<?xml version="1.0" encoding="us-ascii" standalone="no"?><svg xmlns="http://www.w3.org/2000/svg" xmlns:xlink="http://www.w3.org/1999/xlink" contentStyleType="text/css" height="918.9px" preserveAspectRatio="none" style="width:1102px;height:918px;background:#FFFFFF;" version="1.1" viewBox="0 0 1102 918" width="1102.5px" zoomAndPan="magnify"><defs/><g><text fill="#000000" font-family="sans-serif" font-size="12.6" font-weight="bold" lengthAdjust="spacing" textLength="209.7" x="445.5" y="27.0967">Sequence Diagram (SD) - US 2003</text><rect fill="#FFFFFF" height="716.6479" style="stroke:#181818;stroke-width:0.9;" width="9" x="57.15" y="119.918"/><rect fill="#FFFFFF" height="652.224" style="stroke:#181818;stroke-width:0.9;" width="9" x="214.2" y="176.2418"/><rect fill="#FFFFFF" height="306.8191" style="stroke:#181818;stroke-width:0.9;" width="9" x="429.3" y="237.0656"/><rect fill="#FFFFFF" height="125.2477" style="stroke:#181818;stroke-width:0.9;" width="9" x="429.3" y="659.4943"/><rect fill="#FFFFFF" height="250.4953" style="stroke:#181818;stroke-width:0.9;" width="9" x="616.95" y="265.2275"/><rect fill="#FFFFFF" height="28.1619" style="stroke:#181818;stroke-width:0.9;" width="9" x="616.95" y="687.6563"/><rect fill="#FFFFFF" height="12.6" style="stroke:#181818;stroke-width:0.9;" width="9" x="616.95" y="743.9801"/><rect fill="#FFFFFF" height="68.9238" style="stroke:#181818;stroke-width:0.9;" width="9" x="750.6" y="293.3895"/><rect fill="#FFFFFF" height="12.6" style="stroke:#181818;stroke-width:0.9;" width="9" x="879.3" y="321.5514"/><rect fill="#FFFFFF" height="56.3238" style="stroke:#181818;stroke-width:0.9;" width="9" x="879.3" y="390.4752"/><rect fill="#FFFFFF" height="12.6" style="stroke:#181818;stroke-width:0.9;" width="9" x="1019.7" y="474.9609"/><line style="stroke:#181818;stroke-width:0.45;stroke-dasharray:5.0,5.0;" x1="61.2" x2="61.2" y1="110.918" y2="844.6658"/><line style="stroke:#181818;stroke-width:0.45;stroke-dasharray:5.0,5.0;" x1="218.7" x2="218.7" y1="110.918" y2="844.6658"/><line style="stroke:#181818;stroke-width:0.45;stroke-dasharray:5.0,5.0;" x1="433.8" x2="433.8" y1="110.918" y2="844.6658"/><line style="stroke:#181818;stroke-width:0.45;stroke-dasharray:5.0,5.0;" x1="621" x2="621" y1="110.918" y2="844.6658"/><line style="stroke:#181818;stroke-width:0.45;stroke-dasharray:5.0,5.0;" x1="755.1" x2="755.1" y1="110.918" y2="844.6658"/><line style="stroke:#181818;stroke-width:0.45;stroke-dasharray:5.0,5.0;" x1="883.8" x2="883.8" y1="110.918" y2="844.6658"/><line style="stroke:#181818;stroke-width:0.45;stroke-dasharray:5.0,5.0;" x1="1024.2" x2="1024.2" y1="110.918" y2="844.6658"/><text fill="#000000" font-family="sans-serif" font-size="12.6" lengthAdjust="spacing" textLength="108.9" x="4.5" y="107.7557">Customer Manager</text><ellipse cx="61.65" cy="47.809" fill="#E3E3E3" rx="7.2" ry="7.2" style="stroke:#181818;stroke-width:0.45;"/><path d="M61.65,55.009 L61.65,79.309 M49.95,62.209 L73.35,62.209 M61.65,79.309 L49.95,92.809 M61.65,79.309 L73.35,92.809 " fill="none" style="stroke:#181818;stroke-width:0.45;"/><text fill="#000000" font-family="sans-serif" font-size="12.6" lengthAdjust="spacing" textLength="108.9" x="4.5" y="857.3625">Customer Manager</text><ellipse cx="61.65" cy="868.1748" fill="#E3E3E3" rx="7.2" ry="7.2" style="stroke:#181818;stroke-width:0.45;"/><path d="M61.65,875.3748 L61.65,899.6748 M49.95,882.5748 L73.35,882.5748 M61.65,899.6748 L49.95,913.1748 M61.65,899.6748 L73.35,913.1748 " fill="none" style="stroke:#181818;stroke-width:0.45;"/><rect fill="#E3E3E3" height="29.359" rx="2.25" ry="2.25" style="stroke:#181818;stroke-width:0.45;" width="181.8" x="127.8" y="80.659"/><text fill="#000000" font-family="sans-serif" font-size="12.6" lengthAdjust="spacing" textLength="169.2" x="134.1" y="100.5557">GenerateInteviewsTemplateUI</text><rect fill="#E3E3E3" height="29.359" rx="2.25" ry="2.25" style="stroke:#181818;stroke-width:0.45;" width="181.8" x="127.8" y="843.7658"/><text fill="#000000" font-family="sans-serif" font-size="12.6" lengthAdjust="spacing" textLength="169.2" x="134.1" y="863.6625">GenerateInteviewsTemplateUI</text><rect fill="#E3E3E3" height="29.359" rx="2.25" ry="2.25" style="stroke:#181818;stroke-width:0.45;" width="230.4" x="318.6" y="80.659"/><text fill="#000000" font-family="sans-serif" font-size="12.6" lengthAdjust="spacing" textLength="217.8" x="324.9" y="100.5557">:GenerateInteviewsTemplateController</text><rect fill="#E3E3E3" height="29.359" rx="2.25" ry="2.25" style="stroke:#181818;stroke-width:0.45;" width="230.4" x="318.6" y="843.7658"/><text fill="#000000" font-family="sans-serif" font-size="12.6" lengthAdjust="spacing" textLength="217.8" x="324.9" y="863.6625">:GenerateInteviewsTemplateController</text><rect fill="#E3E3E3" height="29.359" rx="2.25" ry="2.25" style="stroke:#181818;stroke-width:0.45;" width="126.9" x="558" y="80.659"/><text fill="#000000" font-family="sans-serif" font-size="12.6" lengthAdjust="spacing" textLength="114.3" x="564.3" y="100.5557">:JobOpeningService</text><rect fill="#E3E3E3" height="29.359" rx="2.25" ry="2.25" style="stroke:#181818;stroke-width:0.45;" width="126.9" x="558" y="843.7658"/><text fill="#000000" font-family="sans-serif" font-size="12.6" lengthAdjust="spacing" textLength="114.3" x="564.3" y="863.6625">:JobOpeningService</text><rect fill="#E3E3E3" height="29.359" rx="2.25" ry="2.25" style="stroke:#181818;stroke-width:0.45;" width="122.4" x="693.9" y="80.659"/><text fill="#000000" font-family="sans-serif" font-size="12.6" lengthAdjust="spacing" textLength="109.8" x="700.2" y="100.5557">PersistenceContext</text><rect fill="#E3E3E3" height="29.359" rx="2.25" ry="2.25" style="stroke:#181818;stroke-width:0.45;" width="122.4" x="693.9" y="843.7658"/><text fill="#000000" font-family="sans-serif" font-size="12.6" lengthAdjust="spacing" textLength="109.8" x="700.2" y="863.6625">PersistenceContext</text><rect fill="#E3E3E3" height="29.359" rx="2.25" ry="2.25" style="stroke:#181818;stroke-width:0.45;" width="117" x="825.3" y="80.659"/><text fill="#000000" font-family="sans-serif" font-size="12.6" lengthAdjust="spacing" textLength="104.4" x="831.6" y="100.5557">RepositoryFactory</text><rect fill="#E3E3E3" height="29.359" rx="2.25" ry="2.25" style="stroke:#181818;stroke-width:0.45;" width="117" x="825.3" y="843.7658"/><text fill="#000000" font-family="sans-serif" font-size="12.6" lengthAdjust="spacing" textLength="104.4" x="831.6" y="863.6625">RepositoryFactory</text><rect fill="#E3E3E3" height="29.359" rx="2.25" ry="2.25" style="stroke:#181818;stroke-width:0.45;" width="145.8" x="951.3" y="80.659"/><text fill="#000000" font-family="sans-serif" font-size="12.6" lengthAdjust="spacing" textLength="133.2" x="957.6" y="100.5557">:JobOpeningRepository</text><rect fill="#E3E3E3" height="29.359" rx="2.25" ry="2.25" style="stroke:#181818;stroke-width:0.45;" width="145.8" x="951.3" y="843.7658"/><text fill="#000000" font-family="sans-serif" font-size="12.6" lengthAdjust="spacing" textLength="133.2" x="957.6" y="863.6625">:JobOpeningRepository</text><rect fill="#FFFFFF" height="716.6479" style="stroke:#181818;stroke-width:0.9;" width="9" x="57.15" y="119.918"/><rect fill="#FFFFFF" height="652.224" style="stroke:#181818;stroke-width:0.9;" width="9" x="214.2" y="176.2418"/><rect fill="#FFFFFF" height="306.8191" style="stroke:#181818;stroke-width:0.9;" width="9" x="429.3" y="237.0656"/><rect fill="#FFFFFF" height="125.2477" style="stroke:#181818;stroke-width:0.9;" width="9" x="429.3" y="659.4943"/><rect fill="#FFFFFF" height="250.4953" style="stroke:#181818;stroke-width:0.9;" width="9" x="616.95" y="265.2275"/><rect fill="#FFFFFF" height="28.1619" style="stroke:#181818;stroke-width:0.9;" width="9" x="616.95" y="687.6563"/><rect fill="#FFFFFF" height="12.6" style="stroke:#181818;stroke-width:0.9;" width="9" x="616.95" y="743.9801"/><rect fill="#FFFFFF" height="68.9238" style="stroke:#181818;stroke-width:0.9;" width="9" x="750.6" y="293.3895"/><rect fill="#FFFFFF" height="12.6" style="stroke:#181818;stroke-width:0.9;" width="9" x="879.3" y="321.5514"/><rect fill="#FFFFFF" height="56.3238" style="stroke:#181818;stroke-width:0.9;" width="9" x="879.3" y="390.4752"/><rect fill="#FFFFFF" height="12.6" style="stroke:#181818;stroke-width:0.9;" width="9" x="1019.7" y="474.9609"/><polygon fill="#181818" points="207.9,137.2799,216.9,140.8799,207.9,144.4799,211.5,140.8799" style="stroke:#181818;stroke-width:0.9;"/><line style="stroke:#181818;stroke-width:0.9;" x1="66.15" x2="213.3" y1="140.8799" y2="140.8799"/><text fill="#000000" font-family="sans-serif" font-size="11.7" lengthAdjust="spacing" textLength="34.2" x="72.45" y="136.1435">show()</text><line style="stroke:#181818;stroke-width:0.9;stroke-dasharray:2.0,2.0;" x1="218.7" x2="261" y1="164.5418" y2="164.5418"/><line style="stroke:#181818;stroke-width:0.9;stroke-dasharray:2.0,2.0;" x1="261" x2="261" y1="164.5418" y2="176.2418"/><line style="stroke:#181818;stroke-width:0.9;stroke-dasharray:2.0,2.0;" x1="224.1" x2="261" y1="176.2418" y2="176.2418"/><polygon fill="#181818" points="233.1,172.6418,224.1,176.2418,233.1,179.8418,229.5,176.2418" style="stroke:#181818;stroke-width:0.9;"/><text fill="#000000" font-family="sans-serif" font-size="11.7" lengthAdjust="spacing" textLength="48.6" x="229.5" y="159.8054">doShow()</text><polygon fill="#181818" points="423,205.3037,432,208.9037,423,212.5037,426.6,208.9037" style="stroke:#181818;stroke-width:0.9;"/><line style="stroke:#181818;stroke-width:0.9;stroke-dasharray:2.0,2.0;" x1="223.2" x2="428.4" y1="208.9037" y2="208.9037"/><text fill="#000000" font-family="sans-serif" font-size="11.7" lengthAdjust="spacing" textLength="39.6" x="229.5" y="204.1673">create()</text><polygon fill="#181818" points="418.5,233.4656,427.5,237.0656,418.5,240.6656,422.1,237.0656" style="stroke:#181818;stroke-width:0.9;"/><line style="stroke:#181818;stroke-width:0.9;" x1="223.2" x2="423.9" y1="237.0656" y2="237.0656"/><text fill="#000000" font-family="sans-serif" font-size="11.7" lengthAdjust="spacing" textLength="86.4" x="229.5" y="232.3292">allJobOpenings()</text><polygon fill="#181818" points="606.15,261.6275,615.15,265.2275,606.15,268.8275,609.75,265.2275" style="stroke:#181818;stroke-width:0.9;"/><line style="stroke:#181818;stroke-width:0.9;" x1="438.3" x2="611.55" y1="265.2275" y2="265.2275"/><text fill="#000000" font-family="sans-serif" font-size="11.7" lengthAdjust="spacing" textLength="86.4" x="444.6" y="260.4911">allJobOpenings()</text><polygon fill="#181818" points="739.8,289.7895,748.8,293.3895,739.8,296.9895,743.4,293.3895" style="stroke:#181818;stroke-width:0.9;"/><line style="stroke:#181818;stroke-width:0.9;" x1="625.95" x2="745.2" y1="293.3895" y2="293.3895"/><text fill="#000000" font-family="sans-serif" font-size="11.7" lengthAdjust="spacing" textLength="67.5" x="632.25" y="288.653">repositories()</text><polygon fill="#181818" points="868.5,317.9514,877.5,321.5514,868.5,325.1514,872.1,321.5514" style="stroke:#181818;stroke-width:0.9;"/><line style="stroke:#181818;stroke-width:0.9;" x1="759.6" x2="873.9" y1="321.5514" y2="321.5514"/><text fill="#000000" font-family="sans-serif" font-size="11.7" lengthAdjust="spacing" textLength="39.6" x="765.9" y="316.8149">create()</text><polygon fill="#181818" points="769.5,330.5514,760.5,334.1514,769.5,337.7514,765.9,334.1514" style="stroke:#181818;stroke-width:0.9;"/><line style="stroke:#181818;stroke-width:0.9;stroke-dasharray:2.0,2.0;" x1="764.1" x2="882.9" y1="334.1514" y2="334.1514"/><polygon fill="#181818" points="635.85,358.7133,626.85,362.3133,635.85,365.9133,632.25,362.3133" style="stroke:#181818;stroke-width:0.9;"/><line style="stroke:#181818;stroke-width:0.9;stroke-dasharray:2.0,2.0;" x1="630.45" x2="754.2" y1="362.3133" y2="362.3133"/><text fill="#000000" font-family="sans-serif" font-size="11.7" lengthAdjust="spacing" textLength="35.1" x="641.25" y="357.5769">factory</text><polygon fill="#181818" points="868.5,386.8752,877.5,390.4752,868.5,394.0752,872.1,390.4752" style="stroke:#181818;stroke-width:0.9;"/><line style="stroke:#181818;stroke-width:0.9;" x1="625.95" x2="873.9" y1="390.4752" y2="390.4752"/><text fill="#000000" font-family="sans-serif" font-size="11.7" lengthAdjust="spacing" textLength="86.4" x="632.25" y="385.7388">allJobOpenings()</text><polygon fill="#181818" points="1013.4,415.0371,1022.4,418.6371,1013.4,422.2371,1017,418.6371" style="stroke:#181818;stroke-width:0.9;"/><line style="stroke:#181818;stroke-width:0.9;" x1="888.3" x2="1018.8" y1="418.6371" y2="418.6371"/><text fill="#000000" font-family="sans-serif" font-size="11.7" lengthAdjust="spacing" textLength="39.6" x="894.6" y="413.9007">create()</text><polygon fill="#181818" points="635.85,443.199,626.85,446.799,635.85,450.399,632.25,446.799" style="stroke:#181818;stroke-width:0.9;"/><line style="stroke:#181818;stroke-width:0.9;stroke-dasharray:2.0,2.0;" x1="630.45" x2="882.9" y1="446.799" y2="446.799"/><text fill="#000000" font-family="sans-serif" font-size="11.7" lengthAdjust="spacing" textLength="114.3" x="641.25" y="442.0626">jobOpeningRepository</text><polygon fill="#181818" points="1008.9,471.3609,1017.9,474.9609,1008.9,478.5609,1012.5,474.9609" style="stroke:#181818;stroke-width:0.9;"/><line style="stroke:#181818;stroke-width:0.9;" x1="625.95" x2="1014.3" y1="474.9609" y2="474.9609"/><text fill="#000000" font-family="sans-serif" font-size="11.7" lengthAdjust="spacing" textLength="86.4" x="632.25" y="470.2245">allJobOpenings()</text><polygon fill="#181818" points="635.85,483.9609,626.85,487.5609,635.85,491.1609,632.25,487.5609" style="stroke:#181818;stroke-width:0.9;"/><line style="stroke:#181818;stroke-width:0.9;stroke-dasharray:2.0,2.0;" x1="630.45" x2="1023.3" y1="487.5609" y2="487.5609"/><polygon fill="#181818" points="448.2,512.1229,439.2,515.7229,448.2,519.3229,444.6,515.7229" style="stroke:#181818;stroke-width:0.9;"/><line style="stroke:#181818;stroke-width:0.9;stroke-dasharray:2.0,2.0;" x1="442.8" x2="620.55" y1="515.7229" y2="515.7229"/><text fill="#000000" font-family="sans-serif" font-size="11.7" lengthAdjust="spacing" textLength="79.2" x="453.6" y="510.9864">allJobOpenings</text><polygon fill="#181818" points="233.1,540.2848,224.1,543.8848,233.1,547.4848,229.5,543.8848" style="stroke:#181818;stroke-width:0.9;"/><line style="stroke:#181818;stroke-width:0.9;stroke-dasharray:2.0,2.0;" x1="227.7" x2="432.9" y1="543.8848" y2="543.8848"/><text fill="#000000" font-family="sans-serif" font-size="11.7" lengthAdjust="spacing" textLength="79.2" x="238.5" y="539.1483">allJobOpenings</text><polygon fill="#181818" points="76.05,584.0086,67.05,587.6086,76.05,591.2086,72.45,587.6086" style="stroke:#181818;stroke-width:0.9;"/><line style="stroke:#181818;stroke-width:0.9;stroke-dasharray:2.0,2.0;" x1="70.65" x2="213.3" y1="587.6086" y2="587.6086"/><text fill="#000000" font-family="sans-serif" font-size="11.7" lengthAdjust="spacing" textLength="74.7" x="81.45" y="567.3103">displays list of</text><text fill="#000000" font-family="sans-serif" font-size="11.7" lengthAdjust="spacing" textLength="65.7" x="85.05" y="582.8722">job openings</text><polygon fill="#181818" points="203.4,627.7324,212.4,631.3324,203.4,634.9324,207,631.3324" style="stroke:#181818;stroke-width:0.9;"/><line style="stroke:#181818;stroke-width:0.9;" x1="66.15" x2="208.8" y1="631.3324" y2="631.3324"/><text fill="#000000" font-family="sans-serif" font-size="11.7" lengthAdjust="spacing" textLength="100.8" x="72.45" y="611.0341">selects job opening</text><text fill="#000000" font-family="sans-serif" font-size="11.7" lengthAdjust="spacing" textLength="107.1" x="76.05" y="626.596">to generate template</text><polygon fill="#181818" points="418.5,655.8943,427.5,659.4943,418.5,663.0943,422.1,659.4943" style="stroke:#181818;stroke-width:0.9;"/><line style="stroke:#181818;stroke-width:0.9;" x1="223.2" x2="423.9" y1="659.4943" y2="659.4943"/><text fill="#000000" font-family="sans-serif" font-size="11.7" lengthAdjust="spacing" textLength="118.8" x="229.5" y="654.7579">generateTemplateFile()</text><polygon fill="#181818" points="606.15,684.0563,615.15,687.6563,606.15,691.2563,609.75,687.6563" style="stroke:#181818;stroke-width:0.9;"/><line style="stroke:#181818;stroke-width:0.9;" x1="438.3" x2="611.55" y1="687.6563" y2="687.6563"/><text fill="#000000" font-family="sans-serif" font-size="11.7" lengthAdjust="spacing" textLength="55.8" x="444.6" y="682.9198">getPlugin()</text><polygon fill="#181818" points="448.2,712.2182,439.2,715.8182,448.2,719.4182,444.6,715.8182" style="stroke:#181818;stroke-width:0.9;"/><line style="stroke:#181818;stroke-width:0.9;stroke-dasharray:2.0,2.0;" x1="442.8" x2="620.55" y1="715.8182" y2="715.8182"/><text fill="#000000" font-family="sans-serif" font-size="11.7" lengthAdjust="spacing" textLength="30.6" x="453.6" y="711.0817">plugin</text><polygon fill="#181818" points="606.15,740.3801,615.15,743.9801,606.15,747.5801,609.75,743.9801" style="stroke:#181818;stroke-width:0.9;"/><line style="stroke:#181818;stroke-width:0.9;" x1="438.3" x2="611.55" y1="743.9801" y2="743.9801"/><text fill="#000000" font-family="sans-serif" font-size="11.7" lengthAdjust="spacing" textLength="151.2" x="444.6" y="739.2437">generateTemplateFile(Plugin)</text><polygon fill="#181818" points="448.2,752.9801,439.2,756.5801,448.2,760.1801,444.6,756.5801" style="stroke:#181818;stroke-width:0.9;"/><line style="stroke:#181818;stroke-width:0.9;stroke-dasharray:2.0,2.0;" x1="442.8" x2="620.55" y1="756.5801" y2="756.5801"/><polygon fill="#181818" points="233.1,781.142,224.1,784.742,233.1,788.342,229.5,784.742" style="stroke:#181818;stroke-width:0.9;"/><line style="stroke:#181818;stroke-width:0.9;stroke-dasharray:2.0,2.0;" x1="227.7" x2="432.9" y1="784.742" y2="784.742"/><text fill="#000000" font-family="sans-serif" font-size="11.7" lengthAdjust="spacing" textLength="95.4" x="238.5" y="780.0056">operation success</text><polygon fill="#181818" points="76.05,824.8658,67.05,828.4658,76.05,832.0658,72.45,828.4658" style="stroke:#181818;stroke-width:0.9;"/><line style="stroke:#181818;stroke-width:0.9;stroke-dasharray:2.0,2.0;" x1="70.65" x2="217.8" y1="828.4658" y2="828.4658"/><text fill="#000000" font-family="sans-serif" font-size="11.7" lengthAdjust="spacing" textLength="94.5" x="81.45" y="808.1675">displays operation</text><text fill="#000000" font-family="sans-serif" font-size="11.7" lengthAdjust="spacing" textLength="44.1" x="85.05" y="823.7294">success</text><!--SRC=[dLInRjim4Dtr5GTFoM0WQBOCMHAaK80YGLLlMLZvhB2XIOMaxFhlUwH4IQGafuad-VZUk-ExEvetBckcsHxsIghoLQizWjKDPgO_gLdvnYeix4aWQ2mjavKO0ymhsweZbnNic32OPPPRWXRutg0i4UuvgnpkehY_X3Li2lXsTNMTPQoqIiFghZ6MqchumIJbqIjW1ZO6TKRobfUyPjB2wZjArCnYBYqUE1xDBzpNWWARl6NaCVvcaN2dfDLAY2xLy3SHU5I_dsgKTB42zO6NwE7TTnQ3dr4RRgoxhzF3lzQ3f-6OzXDhPJZPS7hmRfmyYwABfGmC3trySc1d9J_GrLhVCg2V-uBrBVa2DzGYTRoux0voM8VuLXNjYJiOHF88EHX4Z58ZGSPQ2O09CLHhKkcHsVvWH2MXpjiFLVeUk6WW4NzgDqdfu1Z7YT1CVpnWHeZaoUgn0v6IRuEBED1wjXP_lCKfPIvRvCQk7OvKOAdwaIDjoUVTZ4k_RMTgqkfmhw6gFpD3kNZ7KKr1_tnLtMIxM4k8agTvHkW-q_d9p5A9QAZ6SncM9U4dz7IomvePdtlB3Rqz9mE26WPgzoATVQ2YOkALHK5lhHd3W5XMGTKzR62x1srn5mCol7mFNFJz_FHALcYVHLDnEL6ONyUqcDgJ_z_sEFVCHTfglbJCvvjFBQ02k99Wch94yzN-zpelWr8g5TxVP8_-0G00]--></g></svg>