<?xml version="1.0" encoding="us-ascii" standalone="no"?><svg xmlns="http://www.w3.org/2000/svg" xmlns:xlink="http://www.w3.org/1999/xlink" contentStyleType="text/css" height="1010px" preserveAspectRatio="none" style="width:1243px;height:1010px;background:#FFFFFF;" version="1.1" viewBox="0 0 1243 1010" width="1243px" zoomAndPan="magnify"><defs/><g><text fill="#000000" font-family="sans-serif" font-size="14" font-weight="bold" lengthAdjust="spacing" textLength="233" x="507" y="30.1074">Sequence Diagram (SD) - US 1010</text><rect fill="#FFFFFF" height="785.5664" style="stroke:#181818;stroke-width:1.0;" width="10" x="61.5" y="133.2422"/><rect fill="#FFFFFF" height="156.4551" style="stroke:#181818;stroke-width:1.0;" width="10" x="250.5" y="156.5332"/><rect fill="#FFFFFF" height="253.6191" style="stroke:#181818;stroke-width:1.0;" width="10" x="250.5" y="344.2793"/><rect fill="#FFFFFF" height="280.6191" style="stroke:#181818;stroke-width:1.0;" width="10" x="250.5" y="629.1895"/><rect fill="#FFFFFF" height="93.873" style="stroke:#181818;stroke-width:1.0;" width="10" x="562.5" y="187.8242"/><rect fill="#FFFFFF" height="31.291" style="stroke:#181818;stroke-width:1.0;" width="10" x="562.5" y="375.5703"/><rect fill="#FFFFFF" height="93.873" style="stroke:#181818;stroke-width:1.0;" width="10" x="562.5" y="438.1523"/><rect fill="#FFFFFF" height="200.7461" style="stroke:#181818;stroke-width:1.0;" width="10" x="562.5" y="660.4805"/><rect fill="#FFFFFF" height="31.291" style="stroke:#181818;stroke-width:1.0;" width="10" x="745" y="219.1152"/><rect fill="#FFFFFF" height="31.291" style="stroke:#181818;stroke-width:1.0;" width="10" x="884.5" y="469.4434"/><rect fill="#FFFFFF" height="138.1641" style="stroke:#181818;stroke-width:1.0;" width="10" x="990" y="691.7715"/><rect fill="#FFFFFF" height="75.582" style="stroke:#181818;stroke-width:1.0;" width="10" x="1119" y="723.0625"/><line style="stroke:#181818;stroke-width:0.5;stroke-dasharray:5.0,5.0;" x1="66" x2="66" y1="123.2422" y2="927.8086"/><line style="stroke:#181818;stroke-width:0.5;stroke-dasharray:5.0,5.0;" x1="255" x2="255" y1="123.2422" y2="927.8086"/><line style="stroke:#181818;stroke-width:0.5;stroke-dasharray:5.0,5.0;" x1="567" x2="567" y1="123.2422" y2="927.8086"/><line style="stroke:#181818;stroke-width:0.5;stroke-dasharray:5.0,5.0;" x1="750" x2="750" y1="123.2422" y2="927.8086"/><line style="stroke:#181818;stroke-width:0.5;stroke-dasharray:5.0,5.0;" x1="889" x2="889" y1="123.2422" y2="927.8086"/><line style="stroke:#181818;stroke-width:0.5;stroke-dasharray:5.0,5.0;" x1="995" x2="995" y1="123.2422" y2="927.8086"/><line style="stroke:#181818;stroke-width:0.5;stroke-dasharray:5.0,5.0;" x1="1123.5" x2="1123.5" y1="123.2422" y2="927.8086"/><text fill="#000000" font-family="sans-serif" font-size="14" lengthAdjust="spacing" textLength="117" x="5" y="119.7285">CustomerManager</text><ellipse cx="66.5" cy="53.1211" fill="#E3E3E3" rx="8" ry="8" style="stroke:#181818;stroke-width:0.5;"/><path d="M66.5,61.1211 L66.5,88.1211 M53.5,69.1211 L79.5,69.1211 M66.5,88.1211 L53.5,103.1211 M66.5,88.1211 L79.5,103.1211 " fill="none" style="stroke:#181818;stroke-width:0.5;"/><text fill="#000000" font-family="sans-serif" font-size="14" lengthAdjust="spacing" textLength="117" x="5" y="941.916">CustomerManager</text><ellipse cx="66.5" cy="953.9297" fill="#E3E3E3" rx="8" ry="8" style="stroke:#181818;stroke-width:0.5;"/><path d="M66.5,961.9297 L66.5,988.9297 M53.5,969.9297 L79.5,969.9297 M66.5,988.9297 L53.5,1003.9297 M66.5,988.9297 L79.5,1003.9297 " fill="none" style="stroke:#181818;stroke-width:0.5;"/><rect fill="#E3E3E3" height="32.6211" rx="2.5" ry="2.5" style="stroke:#181818;stroke-width:0.5;" width="137" x="187" y="89.6211"/><text fill="#000000" font-family="sans-serif" font-size="14" lengthAdjust="spacing" textLength="123" x="194" y="111.7285">OpenClosePhaseUI</text><rect fill="#E3E3E3" height="32.6211" rx="2.5" ry="2.5" style="stroke:#181818;stroke-width:0.5;" width="137" x="187" y="926.8086"/><text fill="#000000" font-family="sans-serif" font-size="14" lengthAdjust="spacing" textLength="123" x="194" y="948.916">OpenClosePhaseUI</text><rect fill="#E3E3E3" height="32.6211" rx="2.5" ry="2.5" style="stroke:#181818;stroke-width:0.5;" width="187" x="474" y="89.6211"/><text fill="#000000" font-family="sans-serif" font-size="14" lengthAdjust="spacing" textLength="173" x="481" y="111.7285">OpenClosePhaseController</text><rect fill="#E3E3E3" height="32.6211" rx="2.5" ry="2.5" style="stroke:#181818;stroke-width:0.5;" width="187" x="474" y="926.8086"/><text fill="#000000" font-family="sans-serif" font-size="14" lengthAdjust="spacing" textLength="173" x="481" y="948.916">OpenClosePhaseController</text><rect fill="#E3E3E3" height="32.6211" rx="2.5" ry="2.5" style="stroke:#181818;stroke-width:0.5;" width="158" x="671" y="89.6211"/><text fill="#000000" font-family="sans-serif" font-size="14" lengthAdjust="spacing" textLength="144" x="678" y="111.7285">JobOpeningRepository</text><rect fill="#E3E3E3" height="32.6211" rx="2.5" ry="2.5" style="stroke:#181818;stroke-width:0.5;" width="158" x="671" y="926.8086"/><text fill="#000000" font-family="sans-serif" font-size="14" lengthAdjust="spacing" textLength="144" x="678" y="948.916">JobOpeningRepository</text><rect fill="#E3E3E3" height="32.6211" rx="2.5" ry="2.5" style="stroke:#181818;stroke-width:0.5;" width="101" x="839" y="89.6211"/><text fill="#000000" font-family="sans-serif" font-size="14" lengthAdjust="spacing" textLength="87" x="846" y="111.7285">PhaseService</text><rect fill="#E3E3E3" height="32.6211" rx="2.5" ry="2.5" style="stroke:#181818;stroke-width:0.5;" width="101" x="839" y="926.8086"/><text fill="#000000" font-family="sans-serif" font-size="14" lengthAdjust="spacing" textLength="87" x="846" y="948.916">PhaseService</text><rect fill="#E3E3E3" height="32.6211" rx="2.5" ry="2.5" style="stroke:#181818;stroke-width:0.5;" width="90" x="950" y="89.6211"/><text fill="#000000" font-family="sans-serif" font-size="14" lengthAdjust="spacing" textLength="76" x="957" y="111.7285">JobOpening</text><rect fill="#E3E3E3" height="32.6211" rx="2.5" ry="2.5" style="stroke:#181818;stroke-width:0.5;" width="90" x="950" y="926.8086"/><text fill="#000000" font-family="sans-serif" font-size="14" lengthAdjust="spacing" textLength="76" x="957" y="948.916">JobOpening</text><rect fill="#E3E3E3" height="32.6211" rx="2.5" ry="2.5" style="stroke:#181818;stroke-width:0.5;" width="141" x="1053.5" y="89.6211"/><text fill="#000000" font-family="sans-serif" font-size="14" lengthAdjust="spacing" textLength="127" x="1060.5" y="111.7285">RecruitmentProcess</text><rect fill="#E3E3E3" height="32.6211" rx="2.5" ry="2.5" style="stroke:#181818;stroke-width:0.5;" width="141" x="1053.5" y="926.8086"/><text fill="#000000" font-family="sans-serif" font-size="14" lengthAdjust="spacing" textLength="127" x="1060.5" y="948.916">RecruitmentProcess</text><rect fill="#FFFFFF" height="785.5664" style="stroke:#181818;stroke-width:1.0;" width="10" x="61.5" y="133.2422"/><rect fill="#FFFFFF" height="156.4551" style="stroke:#181818;stroke-width:1.0;" width="10" x="250.5" y="156.5332"/><rect fill="#FFFFFF" height="253.6191" style="stroke:#181818;stroke-width:1.0;" width="10" x="250.5" y="344.2793"/><rect fill="#FFFFFF" height="280.6191" style="stroke:#181818;stroke-width:1.0;" width="10" x="250.5" y="629.1895"/><rect fill="#FFFFFF" height="93.873" style="stroke:#181818;stroke-width:1.0;" width="10" x="562.5" y="187.8242"/><rect fill="#FFFFFF" height="31.291" style="stroke:#181818;stroke-width:1.0;" width="10" x="562.5" y="375.5703"/><rect fill="#FFFFFF" height="93.873" style="stroke:#181818;stroke-width:1.0;" width="10" x="562.5" y="438.1523"/><rect fill="#FFFFFF" height="200.7461" style="stroke:#181818;stroke-width:1.0;" width="10" x="562.5" y="660.4805"/><rect fill="#FFFFFF" height="31.291" style="stroke:#181818;stroke-width:1.0;" width="10" x="745" y="219.1152"/><rect fill="#FFFFFF" height="31.291" style="stroke:#181818;stroke-width:1.0;" width="10" x="884.5" y="469.4434"/><rect fill="#FFFFFF" height="138.1641" style="stroke:#181818;stroke-width:1.0;" width="10" x="990" y="691.7715"/><rect fill="#FFFFFF" height="75.582" style="stroke:#181818;stroke-width:1.0;" width="10" x="1119" y="723.0625"/><polygon fill="#181818" points="238.5,152.5332,248.5,156.5332,238.5,160.5332,242.5,156.5332" style="stroke:#181818;stroke-width:1.0;"/><line style="stroke:#181818;stroke-width:1.0;" x1="71.5" x2="244.5" y1="156.5332" y2="156.5332"/><text fill="#000000" font-family="sans-serif" font-size="13" lengthAdjust="spacing" textLength="160" x="78.5" y="151.2705">asks to open/close a phase</text><polygon fill="#181818" points="550.5,183.8242,560.5,187.8242,550.5,191.8242,554.5,187.8242" style="stroke:#181818;stroke-width:1.0;"/><line style="stroke:#181818;stroke-width:1.0;" x1="260.5" x2="556.5" y1="187.8242" y2="187.8242"/><text fill="#000000" font-family="sans-serif" font-size="13" lengthAdjust="spacing" textLength="135" x="267.5" y="182.5615">getListOfJobOpenings()</text><polygon fill="#181818" points="733,215.1152,743,219.1152,733,223.1152,737,219.1152" style="stroke:#181818;stroke-width:1.0;"/><line style="stroke:#181818;stroke-width:1.0;" x1="572.5" x2="739" y1="219.1152" y2="219.1152"/><text fill="#000000" font-family="sans-serif" font-size="13" lengthAdjust="spacing" textLength="141" x="579.5" y="213.8525">jobOPeningByManager()</text><polygon fill="#181818" points="583.5,246.4063,573.5,250.4063,583.5,254.4063,579.5,250.4063" style="stroke:#181818;stroke-width:1.0;"/><line style="stroke:#181818;stroke-width:1.0;stroke-dasharray:2.0,2.0;" x1="577.5" x2="749" y1="250.4063" y2="250.4063"/><text fill="#000000" font-family="sans-serif" font-size="13" lengthAdjust="spacing" textLength="72" x="589.5" y="245.1436">jobOpenings</text><polygon fill="#181818" points="271.5,277.6973,261.5,281.6973,271.5,285.6973,267.5,281.6973" style="stroke:#181818;stroke-width:1.0;"/><line style="stroke:#181818;stroke-width:1.0;stroke-dasharray:2.0,2.0;" x1="265.5" x2="566.5" y1="281.6973" y2="281.6973"/><text fill="#000000" font-family="sans-serif" font-size="13" lengthAdjust="spacing" textLength="72" x="277.5" y="276.4346">jobOpenings</text><polygon fill="#181818" points="82.5,308.9883,72.5,312.9883,82.5,316.9883,78.5,312.9883" style="stroke:#181818;stroke-width:1.0;"/><line style="stroke:#181818;stroke-width:1.0;stroke-dasharray:2.0,2.0;" x1="76.5" x2="254.5" y1="312.9883" y2="312.9883"/><text fill="#000000" font-family="sans-serif" font-size="13" lengthAdjust="spacing" textLength="149" x="88.5" y="307.7256">shows list of job openings</text><polygon fill="#181818" points="238.5,340.2793,248.5,344.2793,238.5,348.2793,242.5,344.2793" style="stroke:#181818;stroke-width:1.0;"/><line style="stroke:#181818;stroke-width:1.0;" x1="71.5" x2="244.5" y1="344.2793" y2="344.2793"/><text fill="#000000" font-family="sans-serif" font-size="13" lengthAdjust="spacing" textLength="130" x="78.5" y="339.0166">chosses a job opening</text><polygon fill="#181818" points="550.5,371.5703,560.5,375.5703,550.5,379.5703,554.5,375.5703" style="stroke:#181818;stroke-width:1.0;"/><line style="stroke:#181818;stroke-width:1.0;" x1="260.5" x2="556.5" y1="375.5703" y2="375.5703"/><text fill="#000000" font-family="sans-serif" font-size="13" lengthAdjust="spacing" textLength="250" x="267.5" y="370.3076">showJobOpeningCurrentPhase(jobOpening)</text><polygon fill="#181818" points="271.5,402.8613,261.5,406.8613,271.5,410.8613,267.5,406.8613" style="stroke:#181818;stroke-width:1.0;"/><line style="stroke:#181818;stroke-width:1.0;stroke-dasharray:2.0,2.0;" x1="265.5" x2="566.5" y1="406.8613" y2="406.8613"/><text fill="#000000" font-family="sans-serif" font-size="13" lengthAdjust="spacing" textLength="35" x="277.5" y="401.5986">phase</text><polygon fill="#181818" points="550.5,434.1523,560.5,438.1523,550.5,442.1523,554.5,438.1523" style="stroke:#181818;stroke-width:1.0;"/><line style="stroke:#181818;stroke-width:1.0;" x1="260.5" x2="556.5" y1="438.1523" y2="438.1523"/><text fill="#000000" font-family="sans-serif" font-size="13" lengthAdjust="spacing" textLength="283" x="267.5" y="432.8896">checkIfIsPossibleToOpenNextPhase(jobOpening)</text><polygon fill="#181818" points="872.5,465.4434,882.5,469.4434,872.5,473.4434,876.5,469.4434" style="stroke:#181818;stroke-width:1.0;"/><line style="stroke:#181818;stroke-width:1.0;" x1="572.5" x2="878.5" y1="469.4434" y2="469.4434"/><text fill="#000000" font-family="sans-serif" font-size="13" lengthAdjust="spacing" textLength="283" x="579.5" y="464.1807">checkIfIsPossibleToOpenNextPhase(jobOpening)</text><polygon fill="#181818" points="583.5,496.7344,573.5,500.7344,583.5,504.7344,579.5,500.7344" style="stroke:#181818;stroke-width:1.0;"/><line style="stroke:#181818;stroke-width:1.0;stroke-dasharray:2.0,2.0;" x1="577.5" x2="888.5" y1="500.7344" y2="500.7344"/><text fill="#000000" font-family="sans-serif" font-size="13" lengthAdjust="spacing" textLength="60" x="589.5" y="495.4717">isPossible</text><polygon fill="#181818" points="271.5,528.0254,261.5,532.0254,271.5,536.0254,267.5,532.0254" style="stroke:#181818;stroke-width:1.0;"/><line style="stroke:#181818;stroke-width:1.0;stroke-dasharray:2.0,2.0;" x1="265.5" x2="566.5" y1="532.0254" y2="532.0254"/><text fill="#000000" font-family="sans-serif" font-size="13" lengthAdjust="spacing" textLength="60" x="277.5" y="526.7627">isPossible</text><polygon fill="#181818" points="82.5,593.8984,72.5,597.8984,82.5,601.8984,78.5,597.8984" style="stroke:#181818;stroke-width:1.0;"/><line style="stroke:#181818;stroke-width:1.0;stroke-dasharray:2.0,2.0;" x1="76.5" x2="254.5" y1="597.8984" y2="597.8984"/><text fill="#000000" font-family="sans-serif" font-size="13" lengthAdjust="spacing" textLength="142" x="88.5" y="558.0537">shows the current phase</text><text fill="#000000" font-family="sans-serif" font-size="13" lengthAdjust="spacing" textLength="127" x="92.5" y="575.3447">of the job opening and</text><text fill="#000000" font-family="sans-serif" font-size="13" lengthAdjust="spacing" textLength="126" x="92.5" y="592.6357">what is possible to do</text><polygon fill="#181818" points="238.5,625.1895,248.5,629.1895,238.5,633.1895,242.5,629.1895" style="stroke:#181818;stroke-width:1.0;"/><line style="stroke:#181818;stroke-width:1.0;" x1="71.5" x2="244.5" y1="629.1895" y2="629.1895"/><text fill="#000000" font-family="sans-serif" font-size="13" lengthAdjust="spacing" textLength="139" x="78.5" y="623.9268">asks to close the phase</text><polygon fill="#181818" points="550.5,656.4805,560.5,660.4805,550.5,664.4805,554.5,660.4805" style="stroke:#181818;stroke-width:1.0;"/><line style="stroke:#181818;stroke-width:1.0;" x1="260.5" x2="556.5" y1="660.4805" y2="660.4805"/><text fill="#000000" font-family="sans-serif" font-size="13" lengthAdjust="spacing" textLength="165" x="267.5" y="655.2178">openNextPhase(jobOpening)</text><polygon fill="#181818" points="978,687.7715,988,691.7715,978,695.7715,982,691.7715" style="stroke:#181818;stroke-width:1.0;"/><line style="stroke:#181818;stroke-width:1.0;" x1="572.5" x2="984" y1="691.7715" y2="691.7715"/><text fill="#000000" font-family="sans-serif" font-size="13" lengthAdjust="spacing" textLength="121" x="579.5" y="686.5088">recruitmentProcess()</text><polygon fill="#181818" points="1107,719.0625,1117,723.0625,1107,727.0625,1111,723.0625" style="stroke:#181818;stroke-width:1.0;"/><line style="stroke:#181818;stroke-width:1.0;" x1="1000" x2="1113" y1="723.0625" y2="723.0625"/><text fill="#000000" font-family="sans-serif" font-size="13" lengthAdjust="spacing" textLength="100" x="1007" y="717.7998">openNextPhase()</text><line style="stroke:#181818;stroke-width:1.0;" x1="1129" x2="1171" y1="754.3535" y2="754.3535"/><line style="stroke:#181818;stroke-width:1.0;" x1="1171" x2="1171" y1="754.3535" y2="767.3535"/><line style="stroke:#181818;stroke-width:1.0;" x1="1130" x2="1171" y1="767.3535" y2="767.3535"/><polygon fill="#181818" points="1140,763.3535,1130,767.3535,1140,771.3535,1136,767.3535" style="stroke:#181818;stroke-width:1.0;"/><text fill="#000000" font-family="sans-serif" font-size="13" lengthAdjust="spacing" textLength="100" x="1136" y="749.0908">openNextPhase()</text><polygon fill="#181818" points="1011,794.6445,1001,798.6445,1011,802.6445,1007,798.6445" style="stroke:#181818;stroke-width:1.0;"/><line style="stroke:#181818;stroke-width:1.0;stroke-dasharray:2.0,2.0;" x1="1005" x2="1123" y1="798.6445" y2="798.6445"/><text fill="#000000" font-family="sans-serif" font-size="13" lengthAdjust="spacing" textLength="42" x="1017" y="793.3818">sucess</text><polygon fill="#181818" points="583.5,825.9355,573.5,829.9355,583.5,833.9355,579.5,829.9355" style="stroke:#181818;stroke-width:1.0;"/><line style="stroke:#181818;stroke-width:1.0;stroke-dasharray:2.0,2.0;" x1="577.5" x2="994" y1="829.9355" y2="829.9355"/><text fill="#000000" font-family="sans-serif" font-size="13" lengthAdjust="spacing" textLength="42" x="589.5" y="824.6729">sucess</text><polygon fill="#181818" points="271.5,857.2266,261.5,861.2266,271.5,865.2266,267.5,861.2266" style="stroke:#181818;stroke-width:1.0;"/><line style="stroke:#181818;stroke-width:1.0;stroke-dasharray:2.0,2.0;" x1="265.5" x2="566.5" y1="861.2266" y2="861.2266"/><text fill="#000000" font-family="sans-serif" font-size="13" lengthAdjust="spacing" textLength="42" x="277.5" y="855.9639">sucess</text><polygon fill="#181818" points="82.5,905.8086,72.5,909.8086,82.5,913.8086,78.5,909.8086" style="stroke:#181818;stroke-width:1.0;"/><line style="stroke:#181818;stroke-width:1.0;stroke-dasharray:2.0,2.0;" x1="76.5" x2="254.5" y1="909.8086" y2="909.8086"/><text fill="#000000" font-family="sans-serif" font-size="13" lengthAdjust="spacing" textLength="145" x="88.5" y="887.2549">shows current phase and</text><text fill="#000000" font-family="sans-serif" font-size="13" lengthAdjust="spacing" textLength="106" x="92.5" y="904.5459">operation success</text><!--SRC=[dLKzazem4EtrAtQek8B9NKkH8bpZc-HWZj2b4MAnTHZ99yb7-FVHsi9Vo2I4Wi7IlhUxRvyNUv2gu8OVuQYL5fdHHmHdIcIskIcuEF0Kr-wS8nWKZgiqxmROZE_qIQeKzZoto9YJpeUkyQD49H2U9KyfRhf-Ve0PRDRmzFZqo1ZZmca3aqLfdSzhVd3byvW9S0iRYuPvUYU5BBXoC5aMg1QvjhZAkCLDKeSbju8MMZcZypnmjezzq8lU4iuty8Q5jj8NTQu0_h4VMR6kqNnAWLL4-3t6LyMywst__Ws5AQKxed8hemLQ6x8DZrcjaVpa3cj56FWF_OBPLz_ytECE5fm6xHD-4TGvS2Yep2gKFYr34l09eLirvf2Y-owjM-xRqktquPgXes1psPuHgvTiJXqlLnNBjtCOQeUjnqWITo_yCym6rRstHVLYTnYbwHOKL8enTD3Tje925P9qddjxwvE5tEi3UazKbTWZNDSJ4fcs5gqVImSwFfpuWAY6TZQBqXXo2OrvslRsbu7rj8k8r7VD3OdY9OeCnI7P9tRb-vNR77zggkiLVuyK6kEEcogyPV-HuqgGomlRkms7LyQJJPunMIvqDsIDaDnfFPSXY7hazP1-AN8Y7NSi1Lpj_CKfuyxdX28afUMmq__arCikgTS8qT-zIFJT4sVNuwQcvlHFCrY7qm4BBLOwgBu8LEsV8Gg6LGrO8ckt8OsmtPDZbADfqfPDmeuf1btrD1u3jPY81syWnapNCrpmbk_HS2Ur8iA6SL0ycOFz0G00]--></g></svg>