<?xml version="1.0" encoding="us-ascii" standalone="no"?><svg xmlns="http://www.w3.org/2000/svg" xmlns:xlink="http://www.w3.org/1999/xlink" contentStyleType="text/css" height="1054px" preserveAspectRatio="none" style="width:1749px;height:1054px;background:#FFFFFF;" version="1.1" viewBox="0 0 1749 1054" width="1749px" zoomAndPan="magnify"><defs/><g><text fill="#000000" font-family="sans-serif" font-size="14" font-weight="bold" lengthAdjust="spacing" textLength="233" x="759.5" y="30.1074">Sequence Diagram (SD) - US 1020</text><rect fill="#FFFFFF" height="919.2754" style="stroke:#181818;stroke-width:1.0;" width="10" x="252" y="88.2422"/><rect fill="#FFFFFF" height="886.9844" style="stroke:#181818;stroke-width:1.0;" width="10" x="561" y="111.5332"/><rect fill="#FFFFFF" height="31.291" style="stroke:#181818;stroke-width:1.0;" width="10" x="810" y="142.8242"/><rect fill="#FFFFFF" height="14" style="stroke:#181818;stroke-width:1.0;" width="10" x="810" y="963.5176"/><rect fill="#FFFFFF" height="14" style="stroke:#181818;stroke-width:1.0;" width="10" x="978.5" y="555.3164"/><rect fill="#FFFFFF" height="139.1641" style="stroke:#181818;stroke-width:1.0;" width="10" x="1115" y="294.2793"/><rect fill="#FFFFFF" height="139.1641" style="stroke:#181818;stroke-width:1.0;" width="10" x="1115" y="716.4805"/><rect fill="#FFFFFF" height="31.291" style="stroke:#181818;stroke-width:1.0;" width="10" x="1342" y="325.5703"/><rect fill="#FFFFFF" height="31.291" style="stroke:#181818;stroke-width:1.0;" width="10" x="1342" y="747.7715"/><rect fill="#FFFFFF" height="31.291" style="stroke:#181818;stroke-width:1.0;" width="10" x="1460" y="388.1523"/><rect fill="#FFFFFF" height="31.291" style="stroke:#181818;stroke-width:1.0;" width="10" x="1460" y="810.3535"/><rect fill="#FFFFFF" height="14" style="stroke:#181818;stroke-width:1.0;" width="10" x="1580.5" y="510.0254"/><rect fill="#FFFFFF" height="14" style="stroke:#181818;stroke-width:1.0;" width="10" x="1681" y="918.2266"/><rect fill="none" height="370.9102" style="stroke:#000000;stroke-width:1.5;" width="1434" x="205" y="220.4063"/><rect fill="none" height="380.2012" style="stroke:#000000;stroke-width:1.5;" width="1733" x="10" y="605.3164"/><line style="stroke:#181818;stroke-width:0.5;stroke-dasharray:5.0,5.0;" x1="257" x2="257" y1="78.2422" y2="1016.5176"/><line style="stroke:#181818;stroke-width:0.5;stroke-dasharray:5.0,5.0;" x1="565.5" x2="565.5" y1="78.2422" y2="1016.5176"/><line style="stroke:#181818;stroke-width:0.5;stroke-dasharray:5.0,5.0;" x1="815" x2="815" y1="78.2422" y2="1016.5176"/><line style="stroke:#181818;stroke-width:0.5;stroke-dasharray:5.0,5.0;" x1="983" x2="983" y1="78.2422" y2="1016.5176"/><line style="stroke:#181818;stroke-width:0.5;stroke-dasharray:5.0,5.0;" x1="1120" x2="1120" y1="78.2422" y2="1016.5176"/><line style="stroke:#181818;stroke-width:0.5;stroke-dasharray:5.0,5.0;" x1="1347" x2="1347" y1="78.2422" y2="1016.5176"/><line style="stroke:#181818;stroke-width:0.5;stroke-dasharray:5.0,5.0;" x1="1465" x2="1465" y1="78.2422" y2="1016.5176"/><line style="stroke:#181818;stroke-width:0.5;stroke-dasharray:5.0,5.0;" x1="1585" x2="1585" y1="78.2422" y2="1016.5176"/><line style="stroke:#181818;stroke-width:0.5;stroke-dasharray:5.0,5.0;" x1="1686" x2="1686" y1="78.2422" y2="1016.5176"/><rect fill="#E3E3E3" height="32.6211" rx="2.5" ry="2.5" style="stroke:#181818;stroke-width:0.5;" width="84" x="215" y="44.6211"/><text fill="#000000" font-family="sans-serif" font-size="14" lengthAdjust="spacing" textLength="70" x="222" y="66.7285">TCPServer</text><rect fill="#E3E3E3" height="32.6211" rx="2.5" ry="2.5" style="stroke:#181818;stroke-width:0.5;" width="84" x="215" y="1015.5176"/><text fill="#000000" font-family="sans-serif" font-size="14" lengthAdjust="spacing" textLength="70" x="222" y="1037.625">TCPServer</text><rect fill="#E3E3E3" height="32.6211" rx="2.5" ry="2.5" style="stroke:#181818;stroke-width:0.5;" width="173" x="479.5" y="44.6211"/><text fill="#000000" font-family="sans-serif" font-size="14" lengthAdjust="spacing" textLength="159" x="486.5" y="66.7285">:PublishResultsController</text><rect fill="#E3E3E3" height="32.6211" rx="2.5" ry="2.5" style="stroke:#181818;stroke-width:0.5;" width="173" x="479.5" y="1015.5176"/><text fill="#000000" font-family="sans-serif" font-size="14" lengthAdjust="spacing" textLength="159" x="486.5" y="1037.625">:PublishResultsController</text><rect fill="#E3E3E3" height="32.6211" rx="2.5" ry="2.5" style="stroke:#181818;stroke-width:0.5;" width="162" x="734" y="44.6211"/><text fill="#000000" font-family="sans-serif" font-size="14" lengthAdjust="spacing" textLength="148" x="741" y="66.7285">:JobOpeningRepository</text><rect fill="#E3E3E3" height="32.6211" rx="2.5" ry="2.5" style="stroke:#181818;stroke-width:0.5;" width="162" x="734" y="1015.5176"/><text fill="#000000" font-family="sans-serif" font-size="14" lengthAdjust="spacing" textLength="148" x="741" y="1037.625">:JobOpeningRepository</text><rect fill="#E3E3E3" height="32.6211" rx="2.5" ry="2.5" style="stroke:#181818;stroke-width:0.5;" width="155" x="906" y="44.6211"/><text fill="#000000" font-family="sans-serif" font-size="14" lengthAdjust="spacing" textLength="141" x="913" y="66.7285">:ApplicationRepository</text><rect fill="#E3E3E3" height="32.6211" rx="2.5" ry="2.5" style="stroke:#181818;stroke-width:0.5;" width="155" x="906" y="1015.5176"/><text fill="#000000" font-family="sans-serif" font-size="14" lengthAdjust="spacing" textLength="141" x="913" y="1037.625">:ApplicationRepository</text><rect fill="#E3E3E3" height="32.6211" rx="2.5" ry="2.5" style="stroke:#181818;stroke-width:0.5;" width="98" x="1071" y="44.6211"/><text fill="#000000" font-family="sans-serif" font-size="14" lengthAdjust="spacing" textLength="84" x="1078" y="66.7285">:EmailSender</text><rect fill="#E3E3E3" height="32.6211" rx="2.5" ry="2.5" style="stroke:#181818;stroke-width:0.5;" width="98" x="1071" y="1015.5176"/><text fill="#000000" font-family="sans-serif" font-size="14" lengthAdjust="spacing" textLength="84" x="1078" y="1037.625">:EmailSender</text><rect fill="#E3E3E3" height="32.6211" rx="2.5" ry="2.5" style="stroke:#181818;stroke-width:0.5;" width="82" x="1306" y="44.6211"/><text fill="#000000" font-family="sans-serif" font-size="14" lengthAdjust="spacing" textLength="68" x="1313" y="66.7285">:EmailDTO</text><rect fill="#E3E3E3" height="32.6211" rx="2.5" ry="2.5" style="stroke:#181818;stroke-width:0.5;" width="82" x="1306" y="1015.5176"/><text fill="#000000" font-family="sans-serif" font-size="14" lengthAdjust="spacing" textLength="68" x="1313" y="1037.625">:EmailDTO</text><rect fill="#E3E3E3" height="32.6211" rx="2.5" ry="2.5" style="stroke:#181818;stroke-width:0.5;" width="134" x="1398" y="44.6211"/><text fill="#000000" font-family="sans-serif" font-size="14" lengthAdjust="spacing" textLength="120" x="1405" y="66.7285">:NotificationService</text><rect fill="#E3E3E3" height="32.6211" rx="2.5" ry="2.5" style="stroke:#181818;stroke-width:0.5;" width="134" x="1398" y="1015.5176"/><text fill="#000000" font-family="sans-serif" font-size="14" lengthAdjust="spacing" textLength="120" x="1405" y="1037.625">:NotificationService</text><rect fill="#E3E3E3" height="32.6211" rx="2.5" ry="2.5" style="stroke:#181818;stroke-width:0.5;" width="87" x="1542" y="44.6211"/><text fill="#000000" font-family="sans-serif" font-size="14" lengthAdjust="spacing" textLength="73" x="1549" y="66.7285">:Application</text><rect fill="#E3E3E3" height="32.6211" rx="2.5" ry="2.5" style="stroke:#181818;stroke-width:0.5;" width="87" x="1542" y="1015.5176"/><text fill="#000000" font-family="sans-serif" font-size="14" lengthAdjust="spacing" textLength="73" x="1549" y="1037.625">:Application</text><rect fill="#E3E3E3" height="32.6211" rx="2.5" ry="2.5" style="stroke:#181818;stroke-width:0.5;" width="94" x="1639" y="44.6211"/><text fill="#000000" font-family="sans-serif" font-size="14" lengthAdjust="spacing" textLength="80" x="1646" y="66.7285">:JobOpening</text><rect fill="#E3E3E3" height="32.6211" rx="2.5" ry="2.5" style="stroke:#181818;stroke-width:0.5;" width="94" x="1639" y="1015.5176"/><text fill="#000000" font-family="sans-serif" font-size="14" lengthAdjust="spacing" textLength="80" x="1646" y="1037.625">:JobOpening</text><rect fill="#FFFFFF" height="919.2754" style="stroke:#181818;stroke-width:1.0;" width="10" x="252" y="88.2422"/><rect fill="#FFFFFF" height="886.9844" style="stroke:#181818;stroke-width:1.0;" width="10" x="561" y="111.5332"/><rect fill="#FFFFFF" height="31.291" style="stroke:#181818;stroke-width:1.0;" width="10" x="810" y="142.8242"/><rect fill="#FFFFFF" height="14" style="stroke:#181818;stroke-width:1.0;" width="10" x="810" y="963.5176"/><rect fill="#FFFFFF" height="14" style="stroke:#181818;stroke-width:1.0;" width="10" x="978.5" y="555.3164"/><rect fill="#FFFFFF" height="139.1641" style="stroke:#181818;stroke-width:1.0;" width="10" x="1115" y="294.2793"/><rect fill="#FFFFFF" height="139.1641" style="stroke:#181818;stroke-width:1.0;" width="10" x="1115" y="716.4805"/><rect fill="#FFFFFF" height="31.291" style="stroke:#181818;stroke-width:1.0;" width="10" x="1342" y="325.5703"/><rect fill="#FFFFFF" height="31.291" style="stroke:#181818;stroke-width:1.0;" width="10" x="1342" y="747.7715"/><rect fill="#FFFFFF" height="31.291" style="stroke:#181818;stroke-width:1.0;" width="10" x="1460" y="388.1523"/><rect fill="#FFFFFF" height="31.291" style="stroke:#181818;stroke-width:1.0;" width="10" x="1460" y="810.3535"/><rect fill="#FFFFFF" height="14" style="stroke:#181818;stroke-width:1.0;" width="10" x="1580.5" y="510.0254"/><rect fill="#FFFFFF" height="14" style="stroke:#181818;stroke-width:1.0;" width="10" x="1681" y="918.2266"/><polygon fill="#181818" points="549,107.5332,559,111.5332,549,115.5332,553,111.5332" style="stroke:#181818;stroke-width:1.0;"/><line style="stroke:#181818;stroke-width:1.0;" x1="262" x2="555" y1="111.5332" y2="111.5332"/><text fill="#000000" font-family="sans-serif" font-size="13" lengthAdjust="spacing" textLength="220" x="269" y="106.2705">findAcceptedNonNotifiedApplications()</text><polygon fill="#181818" points="798,138.8242,808,142.8242,798,146.8242,802,142.8242" style="stroke:#181818;stroke-width:1.0;"/><line style="stroke:#181818;stroke-width:1.0;" x1="571" x2="804" y1="142.8242" y2="142.8242"/><text fill="#000000" font-family="sans-serif" font-size="13" lengthAdjust="spacing" textLength="220" x="578" y="137.5615">findAcceptedNonNotifiedApplications()</text><polygon fill="#181818" points="582,170.1152,572,174.1152,582,178.1152,578,174.1152" style="stroke:#181818;stroke-width:1.0;"/><line style="stroke:#181818;stroke-width:1.0;stroke-dasharray:2.0,2.0;" x1="576" x2="814" y1="174.1152" y2="174.1152"/><text fill="#000000" font-family="sans-serif" font-size="13" lengthAdjust="spacing" textLength="121" x="588" y="168.8525">applications to Notify</text><polygon fill="#181818" points="273,201.4063,263,205.4063,273,209.4063,269,205.4063" style="stroke:#181818;stroke-width:1.0;"/><line style="stroke:#181818;stroke-width:1.0;stroke-dasharray:2.0,2.0;" x1="267" x2="560" y1="205.4063" y2="205.4063"/><text fill="#000000" font-family="sans-serif" font-size="13" lengthAdjust="spacing" textLength="121" x="279" y="200.1436">applications to Notify</text><path d="M205,220.4063 L278,220.4063 L278,229.6973 L268,239.6973 L205,239.6973 L205,220.4063 " fill="#EEEEEE" style="stroke:#000000;stroke-width:1.5;"/><rect fill="none" height="370.9102" style="stroke:#000000;stroke-width:1.5;" width="1434" x="205" y="220.4063"/><text fill="#000000" font-family="sans-serif" font-size="13" font-weight="bold" lengthAdjust="spacing" textLength="28" x="220" y="235.4346">loop</text><text fill="#000000" font-family="sans-serif" font-size="11" font-weight="bold" lengthAdjust="spacing" textLength="115" x="293" y="234.2764">[for each application]</text><polygon fill="#181818" points="549,258.9883,559,262.9883,549,266.9883,553,262.9883" style="stroke:#181818;stroke-width:1.0;"/><line style="stroke:#181818;stroke-width:1.0;" x1="262" x2="555" y1="262.9883" y2="262.9883"/><text fill="#000000" font-family="sans-serif" font-size="13" lengthAdjust="spacing" textLength="131" x="269" y="257.7256">sendEmail(application)</text><polygon fill="#181818" points="1103,290.2793,1113,294.2793,1103,298.2793,1107,294.2793" style="stroke:#181818;stroke-width:1.0;"/><line style="stroke:#181818;stroke-width:1.0;" x1="571" x2="1109" y1="294.2793" y2="294.2793"/><text fill="#000000" font-family="sans-serif" font-size="13" lengthAdjust="spacing" textLength="131" x="578" y="289.0166">sendEmail(application)</text><polygon fill="#181818" points="1330,321.5703,1340,325.5703,1330,329.5703,1334,325.5703" style="stroke:#181818;stroke-width:1.0;"/><line style="stroke:#181818;stroke-width:1.0;" x1="1125" x2="1336" y1="325.5703" y2="325.5703"/><text fill="#000000" font-family="sans-serif" font-size="13" lengthAdjust="spacing" textLength="129" x="1132" y="320.3076">EmailDTO(application)</text><polygon fill="#181818" points="1136,352.8613,1126,356.8613,1136,360.8613,1132,356.8613" style="stroke:#181818;stroke-width:1.0;"/><line style="stroke:#181818;stroke-width:1.0;stroke-dasharray:2.0,2.0;" x1="1130" x2="1346" y1="356.8613" y2="356.8613"/><text fill="#000000" font-family="sans-serif" font-size="13" lengthAdjust="spacing" textLength="59" x="1142" y="351.5986">EmailDTO</text><polygon fill="#181818" points="1448,384.1523,1458,388.1523,1448,392.1523,1452,388.1523" style="stroke:#181818;stroke-width:1.0;"/><line style="stroke:#181818;stroke-width:1.0;" x1="1125" x2="1454" y1="388.1523" y2="388.1523"/><text fill="#000000" font-family="sans-serif" font-size="13" lengthAdjust="spacing" textLength="128" x="1132" y="382.8896">sendEmail(EmailDTO)</text><polygon fill="#181818" points="1136,415.4434,1126,419.4434,1136,423.4434,1132,419.4434" style="stroke:#181818;stroke-width:1.0;"/><line style="stroke:#181818;stroke-width:1.0;stroke-dasharray:2.0,2.0;" x1="1130" x2="1464" y1="419.4434" y2="419.4434"/><text fill="#000000" font-family="sans-serif" font-size="13" lengthAdjust="spacing" textLength="58" x="1142" y="414.1807">emailSent</text><polygon fill="#181818" points="582,429.4434,572,433.4434,582,437.4434,578,433.4434" style="stroke:#181818;stroke-width:1.0;"/><line style="stroke:#181818;stroke-width:1.0;stroke-dasharray:2.0,2.0;" x1="576" x2="1119" y1="433.4434" y2="433.4434"/><polygon fill="#181818" points="273,443.4434,263,447.4434,273,451.4434,269,447.4434" style="stroke:#181818;stroke-width:1.0;"/><line style="stroke:#181818;stroke-width:1.0;stroke-dasharray:2.0,2.0;" x1="267" x2="560" y1="447.4434" y2="447.4434"/><polygon fill="#181818" points="549,474.7344,559,478.7344,549,482.7344,553,478.7344" style="stroke:#181818;stroke-width:1.0;"/><line style="stroke:#181818;stroke-width:1.0;" x1="262" x2="555" y1="478.7344" y2="478.7344"/><text fill="#000000" font-family="sans-serif" font-size="13" lengthAdjust="spacing" textLength="146" x="269" y="473.4717">defineEmailResult(SENT)</text><polygon fill="#181818" points="1568.5,506.0254,1578.5,510.0254,1568.5,514.0254,1572.5,510.0254" style="stroke:#181818;stroke-width:1.0;"/><line style="stroke:#181818;stroke-width:1.0;" x1="571" x2="1574.5" y1="510.0254" y2="510.0254"/><text fill="#000000" font-family="sans-serif" font-size="13" lengthAdjust="spacing" textLength="146" x="578" y="504.7627">defineEmailResult(SENT)</text><polygon fill="#181818" points="582,520.0254,572,524.0254,582,528.0254,578,524.0254" style="stroke:#181818;stroke-width:1.0;"/><line style="stroke:#181818;stroke-width:1.0;stroke-dasharray:2.0,2.0;" x1="576" x2="1584.5" y1="524.0254" y2="524.0254"/><polygon fill="#181818" points="966.5,551.3164,976.5,555.3164,966.5,559.3164,970.5,555.3164" style="stroke:#181818;stroke-width:1.0;"/><line style="stroke:#181818;stroke-width:1.0;" x1="571" x2="972.5" y1="555.3164" y2="555.3164"/><text fill="#000000" font-family="sans-serif" font-size="13" lengthAdjust="spacing" textLength="98" x="578" y="550.0537">save(Application)</text><polygon fill="#181818" points="582,565.3164,572,569.3164,582,573.3164,578,569.3164" style="stroke:#181818;stroke-width:1.0;"/><line style="stroke:#181818;stroke-width:1.0;stroke-dasharray:2.0,2.0;" x1="576" x2="982.5" y1="569.3164" y2="569.3164"/><polygon fill="#181818" points="273,579.3164,263,583.3164,273,587.3164,269,583.3164" style="stroke:#181818;stroke-width:1.0;"/><line style="stroke:#181818;stroke-width:1.0;stroke-dasharray:2.0,2.0;" x1="267" x2="560" y1="583.3164" y2="583.3164"/><path d="M10,605.3164 L71,605.3164 L71,614.6074 L61,624.6074 L10,624.6074 L10,605.3164 " fill="#EEEEEE" style="stroke:#000000;stroke-width:1.5;"/><rect fill="none" height="380.2012" style="stroke:#000000;stroke-width:1.5;" width="1733" x="10" y="605.3164"/><text fill="#000000" font-family="sans-serif" font-size="13" font-weight="bold" lengthAdjust="spacing" textLength="16" x="25" y="620.3447">alt</text><text fill="#000000" font-family="sans-serif" font-size="11" font-weight="bold" lengthAdjust="spacing" textLength="54" x="86" y="619.1865">[Not Sent]</text><path d="M20,629.6074 L20,656.6074 L247,656.6074 L247,639.6074 L237,629.6074 L20,629.6074 " fill="#FAFAFA" style="stroke:#181818;stroke-width:0.5;"/><path d="M237,629.6074 L237,639.6074 L247,639.6074 L237,629.6074 " fill="#FAFAFA" style="stroke:#181818;stroke-width:0.5;"/><text fill="#000000" font-family="sans-serif" font-size="13" lengthAdjust="spacing" textLength="206" x="26" y="648.6357">CustomerEmailState of JobOpening</text><polygon fill="#181818" points="549,681.1895,559,685.1895,549,689.1895,553,685.1895" style="stroke:#181818;stroke-width:1.0;"/><line style="stroke:#181818;stroke-width:1.0;" x1="262" x2="555" y1="685.1895" y2="685.1895"/><text fill="#000000" font-family="sans-serif" font-size="13" lengthAdjust="spacing" textLength="275" x="269" y="679.9268">sendEmailForCustomer(customer ,applications)</text><polygon fill="#181818" points="1103,712.4805,1113,716.4805,1103,720.4805,1107,716.4805" style="stroke:#181818;stroke-width:1.0;"/><line style="stroke:#181818;stroke-width:1.0;" x1="571" x2="1109" y1="716.4805" y2="716.4805"/><text fill="#000000" font-family="sans-serif" font-size="13" lengthAdjust="spacing" textLength="275" x="578" y="711.2178">sendEmailForCustomer(customer ,applications)</text><polygon fill="#181818" points="1330,743.7715,1340,747.7715,1330,751.7715,1334,747.7715" style="stroke:#181818;stroke-width:1.0;"/><line style="stroke:#181818;stroke-width:1.0;" x1="1125" x2="1336" y1="747.7715" y2="747.7715"/><text fill="#000000" font-family="sans-serif" font-size="13" lengthAdjust="spacing" textLength="198" x="1132" y="742.5088">EmailDTO(customer ,applications)</text><polygon fill="#181818" points="1136,775.0625,1126,779.0625,1136,783.0625,1132,779.0625" style="stroke:#181818;stroke-width:1.0;"/><line style="stroke:#181818;stroke-width:1.0;stroke-dasharray:2.0,2.0;" x1="1130" x2="1346" y1="779.0625" y2="779.0625"/><text fill="#000000" font-family="sans-serif" font-size="13" lengthAdjust="spacing" textLength="59" x="1142" y="773.7998">EmailDTO</text><polygon fill="#181818" points="1448,806.3535,1458,810.3535,1448,814.3535,1452,810.3535" style="stroke:#181818;stroke-width:1.0;"/><line style="stroke:#181818;stroke-width:1.0;" x1="1125" x2="1454" y1="810.3535" y2="810.3535"/><text fill="#000000" font-family="sans-serif" font-size="13" lengthAdjust="spacing" textLength="203" x="1132" y="805.0908">sendEmailForCustomer(EmailDTO)</text><polygon fill="#181818" points="1136,837.6445,1126,841.6445,1136,845.6445,1132,841.6445" style="stroke:#181818;stroke-width:1.0;"/><line style="stroke:#181818;stroke-width:1.0;stroke-dasharray:2.0,2.0;" x1="1130" x2="1464" y1="841.6445" y2="841.6445"/><text fill="#000000" font-family="sans-serif" font-size="13" lengthAdjust="spacing" textLength="58" x="1142" y="836.3818">emailSent</text><polygon fill="#181818" points="582,851.6445,572,855.6445,582,859.6445,578,855.6445" style="stroke:#181818;stroke-width:1.0;"/><line style="stroke:#181818;stroke-width:1.0;stroke-dasharray:2.0,2.0;" x1="576" x2="1119" y1="855.6445" y2="855.6445"/><polygon fill="#181818" points="549,882.9355,559,886.9355,549,890.9355,553,886.9355" style="stroke:#181818;stroke-width:1.0;"/><line style="stroke:#181818;stroke-width:1.0;" x1="262" x2="555" y1="886.9355" y2="886.9355"/><text fill="#000000" font-family="sans-serif" font-size="13" lengthAdjust="spacing" textLength="196" x="269" y="881.6729">defineCustomerNotification(SENT)</text><polygon fill="#181818" points="1669,914.2266,1679,918.2266,1669,922.2266,1673,918.2266" style="stroke:#181818;stroke-width:1.0;"/><line style="stroke:#181818;stroke-width:1.0;" x1="571" x2="1675" y1="918.2266" y2="918.2266"/><text fill="#000000" font-family="sans-serif" font-size="13" lengthAdjust="spacing" textLength="196" x="578" y="912.9639">defineCustomerNotification(SENT)</text><polygon fill="#181818" points="582,928.2266,572,932.2266,582,936.2266,578,932.2266" style="stroke:#181818;stroke-width:1.0;"/><line style="stroke:#181818;stroke-width:1.0;stroke-dasharray:2.0,2.0;" x1="576" x2="1685" y1="932.2266" y2="932.2266"/><polygon fill="#181818" points="798,959.5176,808,963.5176,798,967.5176,802,963.5176" style="stroke:#181818;stroke-width:1.0;"/><line style="stroke:#181818;stroke-width:1.0;" x1="571" x2="804" y1="963.5176" y2="963.5176"/><text fill="#000000" font-family="sans-serif" font-size="13" lengthAdjust="spacing" textLength="99" x="578" y="958.2549">save(jobOpening)</text><polygon fill="#181818" points="582,973.5176,572,977.5176,582,981.5176,578,977.5176" style="stroke:#181818;stroke-width:1.0;"/><line style="stroke:#181818;stroke-width:1.0;stroke-dasharray:2.0,2.0;" x1="576" x2="814" y1="977.5176" y2="977.5176"/><polygon fill="#181818" points="273,994.5176,263,998.5176,273,1002.5176,269,998.5176" style="stroke:#181818;stroke-width:1.0;"/><line style="stroke:#181818;stroke-width:1.0;stroke-dasharray:2.0,2.0;" x1="267" x2="565" y1="998.5176" y2="998.5176"/><!--SRC=[pLNBRjim4BppAuYSPA06qXvpA634oI479uZS3s2ebSs69bMHLk6_xv9wUFMANGGegfD8pWo7-o3TkpA5ACM17wonSb_Q0t1V7e6vRgKGybti8FKd3Rm4wONPQGfmUv7PtyhiU2wq0yQyyWXDuTSHZ0I-Lc8NS4cwNl0b_v7ohxVVRXb3jbTI5S9uVhEzVqcXhA2yuSBnjEglthqStxHo-rTmH-tTlJM-j5etwFDmm7goRyy56BJs2eLrojlo51cuW3C3zAeej9B2Asi6S5mPmnyEGkaKJDQu8ECfv7hxV8RXO83PMA_oPlSG22KXmiDyMibvgwt1sQEt1sw6Z34XlQg4Xn1cbbPy-Ps4aD_nN9bi9IKK7hADDRKroCYcBbaG6H9_HeHGjexprPATOfCVrl2NGuU2yBYtCKhvYMKmKg1-K0LFEyjcsjg2vxRaABEdACRncmYKmsp7V2O4Z949y7uWI77CymAjEm0jfxX29Lf5h2EKQtylgOMgEqi5xd9ahGC678ddMM3AJ5EblQErZ86Jjg3ZRCiR-u1cv8T6UloUZLvs9ltJS8uAWyrbEGEiNeW2zVsJf0-RxM8YorZE5_2Tdz2nSIPmFhOUeEEfMDsJ5kgESwA2P3LR45IXuLnqCRbb7JiCRBXOj0_vuJ5lnY9BG-wvpGCa4e_EunDJrjdmGHSNoUM4EZmGsSMMUxHbgvR8veT_eQtzDuruZTgds_DwuN_QgVJi_tdJpdPdUm3wZCwswRdUhkNJPwLxHyC2aVhuA8GuNfdfvUxrZBtyirCOU-e49X_CcHrZpyvSXGHDN_Vw-mC0]--></g></svg>