<?xml version="1.0" encoding="us-ascii" standalone="no"?><svg xmlns="http://www.w3.org/2000/svg" xmlns:xlink="http://www.w3.org/1999/xlink" contentStyleType="text/css" height="1148px" preserveAspectRatio="none" style="width:1123px;height:1148px;background:#FFFFFF;" version="1.1" viewBox="0 0 1123 1148" width="1123px" zoomAndPan="magnify"><defs/><g><text fill="#000000" font-family="sans-serif" font-size="14" font-weight="bold" lengthAdjust="spacing" textLength="233" x="446.75" y="30.1074">Sequence Diagram (SD) - US 1020</text><rect fill="#FFFFFF" height="922.7793" style="stroke:#181818;stroke-width:1.0;" width="10" x="63.5" y="133.2422"/><rect fill="#FFFFFF" height="890.4883" style="stroke:#181818;stroke-width:1.0;" width="10" x="298.5" y="156.5332"/><rect fill="#FFFFFF" height="738.3242" style="stroke:#181818;stroke-width:1.0;" width="10" x="587.5" y="263.4063"/><rect fill="#FFFFFF" height="31.291" style="stroke:#181818;stroke-width:1.0;" width="10" x="766.5" y="294.6973"/><rect fill="#FFFFFF" height="31.291" style="stroke:#181818;stroke-width:1.0;" width="10" x="926.5" y="482.4434"/><rect fill="#FFFFFF" height="14" style="stroke:#181818;stroke-width:1.0;" width="10" x="1049" y="794.6445"/><rect fill="#FFFFFF" height="14" style="stroke:#181818;stroke-width:1.0;" width="10" x="1049" y="956.4395"/><rect fill="none" height="359.541" style="stroke:#000000;stroke-width:1.5;" width="1009.5" x="108" y="657.1895"/><rect fill="none" height="326.25" style="stroke:#000000;stroke-width:1.5;" width="989.5" x="118" y="683.4805"/><line style="stroke:#181818;stroke-width:0.5;stroke-dasharray:5.0,5.0;" x1="68" x2="68" y1="123.2422" y2="1065.0215"/><line style="stroke:#181818;stroke-width:0.5;stroke-dasharray:5.0,5.0;" x1="303" x2="303" y1="123.2422" y2="1065.0215"/><line style="stroke:#181818;stroke-width:0.5;stroke-dasharray:5.0,5.0;" x1="592" x2="592" y1="123.2422" y2="1065.0215"/><line style="stroke:#181818;stroke-width:0.5;stroke-dasharray:5.0,5.0;" x1="771.5" x2="771.5" y1="123.2422" y2="1065.0215"/><line style="stroke:#181818;stroke-width:0.5;stroke-dasharray:5.0,5.0;" x1="931.5" x2="931.5" y1="123.2422" y2="1065.0215"/><line style="stroke:#181818;stroke-width:0.5;stroke-dasharray:5.0,5.0;" x1="1053.5" x2="1053.5" y1="123.2422" y2="1065.0215"/><text fill="#000000" font-family="sans-serif" font-size="14" lengthAdjust="spacing" textLength="121" x="5" y="119.7285">Customer Manager</text><ellipse cx="68.5" cy="53.1211" fill="#E3E3E3" rx="8" ry="8" style="stroke:#181818;stroke-width:0.5;"/><path d="M68.5,61.1211 L68.5,88.1211 M55.5,69.1211 L81.5,69.1211 M68.5,88.1211 L55.5,103.1211 M68.5,88.1211 L81.5,103.1211 " fill="none" style="stroke:#181818;stroke-width:0.5;"/><text fill="#000000" font-family="sans-serif" font-size="14" lengthAdjust="spacing" textLength="121" x="5" y="1079.1289">Customer Manager</text><ellipse cx="68.5" cy="1091.1426" fill="#E3E3E3" rx="8" ry="8" style="stroke:#181818;stroke-width:0.5;"/><path d="M68.5,1099.1426 L68.5,1126.1426 M55.5,1107.1426 L81.5,1107.1426 M68.5,1126.1426 L55.5,1141.1426 M68.5,1126.1426 L81.5,1141.1426 " fill="none" style="stroke:#181818;stroke-width:0.5;"/><rect fill="#E3E3E3" height="32.6211" rx="2.5" ry="2.5" style="stroke:#181818;stroke-width:0.5;" width="119" x="244" y="89.6211"/><text fill="#000000" font-family="sans-serif" font-size="14" lengthAdjust="spacing" textLength="105" x="251" y="111.7285">PublishResultsUI</text><rect fill="#E3E3E3" height="32.6211" rx="2.5" ry="2.5" style="stroke:#181818;stroke-width:0.5;" width="119" x="244" y="1064.0215"/><text fill="#000000" font-family="sans-serif" font-size="14" lengthAdjust="spacing" textLength="105" x="251" y="1086.1289">PublishResultsUI</text><rect fill="#E3E3E3" height="32.6211" rx="2.5" ry="2.5" style="stroke:#181818;stroke-width:0.5;" width="173" x="506" y="89.6211"/><text fill="#000000" font-family="sans-serif" font-size="14" lengthAdjust="spacing" textLength="159" x="513" y="111.7285">:PublishResultsController</text><rect fill="#E3E3E3" height="32.6211" rx="2.5" ry="2.5" style="stroke:#181818;stroke-width:0.5;" width="173" x="506" y="1064.0215"/><text fill="#000000" font-family="sans-serif" font-size="14" lengthAdjust="spacing" textLength="159" x="513" y="1086.1289">:PublishResultsController</text><rect fill="#E3E3E3" height="32.6211" rx="2.5" ry="2.5" style="stroke:#181818;stroke-width:0.5;" width="162" x="690.5" y="89.6211"/><text fill="#000000" font-family="sans-serif" font-size="14" lengthAdjust="spacing" textLength="148" x="697.5" y="111.7285">:JobOpeningRepository</text><rect fill="#E3E3E3" height="32.6211" rx="2.5" ry="2.5" style="stroke:#181818;stroke-width:0.5;" width="162" x="690.5" y="1064.0215"/><text fill="#000000" font-family="sans-serif" font-size="14" lengthAdjust="spacing" textLength="148" x="697.5" y="1086.1289">:JobOpeningRepository</text><rect fill="#E3E3E3" height="32.6211" rx="2.5" ry="2.5" style="stroke:#181818;stroke-width:0.5;" width="138" x="862.5" y="89.6211"/><text fill="#000000" font-family="sans-serif" font-size="14" lengthAdjust="spacing" textLength="124" x="869.5" y="111.7285">:RankingRepository</text><rect fill="#E3E3E3" height="32.6211" rx="2.5" ry="2.5" style="stroke:#181818;stroke-width:0.5;" width="138" x="862.5" y="1064.0215"/><text fill="#000000" font-family="sans-serif" font-size="14" lengthAdjust="spacing" textLength="124" x="869.5" y="1086.1289">:RankingRepository</text><rect fill="#E3E3E3" height="32.6211" rx="2.5" ry="2.5" style="stroke:#181818;stroke-width:0.5;" width="87" x="1010.5" y="89.6211"/><text fill="#000000" font-family="sans-serif" font-size="14" lengthAdjust="spacing" textLength="73" x="1017.5" y="111.7285">:Application</text><rect fill="#E3E3E3" height="32.6211" rx="2.5" ry="2.5" style="stroke:#181818;stroke-width:0.5;" width="87" x="1010.5" y="1064.0215"/><text fill="#000000" font-family="sans-serif" font-size="14" lengthAdjust="spacing" textLength="73" x="1017.5" y="1086.1289">:Application</text><rect fill="#FFFFFF" height="922.7793" style="stroke:#181818;stroke-width:1.0;" width="10" x="63.5" y="133.2422"/><rect fill="#FFFFFF" height="890.4883" style="stroke:#181818;stroke-width:1.0;" width="10" x="298.5" y="156.5332"/><rect fill="#FFFFFF" height="738.3242" style="stroke:#181818;stroke-width:1.0;" width="10" x="587.5" y="263.4063"/><rect fill="#FFFFFF" height="31.291" style="stroke:#181818;stroke-width:1.0;" width="10" x="766.5" y="294.6973"/><rect fill="#FFFFFF" height="31.291" style="stroke:#181818;stroke-width:1.0;" width="10" x="926.5" y="482.4434"/><rect fill="#FFFFFF" height="14" style="stroke:#181818;stroke-width:1.0;" width="10" x="1049" y="794.6445"/><rect fill="#FFFFFF" height="14" style="stroke:#181818;stroke-width:1.0;" width="10" x="1049" y="956.4395"/><polygon fill="#181818" points="286.5,152.5332,296.5,156.5332,286.5,160.5332,290.5,156.5332" style="stroke:#181818;stroke-width:1.0;"/><line style="stroke:#181818;stroke-width:1.0;" x1="73.5" x2="292.5" y1="156.5332" y2="156.5332"/><text fill="#000000" font-family="sans-serif" font-size="13" lengthAdjust="spacing" textLength="38" x="80.5" y="151.2705">show()</text><line style="stroke:#181818;stroke-width:1.0;" x1="308.5" x2="350.5" y1="187.8242" y2="187.8242"/><line style="stroke:#181818;stroke-width:1.0;" x1="350.5" x2="350.5" y1="187.8242" y2="200.8242"/><line style="stroke:#181818;stroke-width:1.0;" x1="309.5" x2="350.5" y1="200.8242" y2="200.8242"/><polygon fill="#181818" points="319.5,196.8242,309.5,200.8242,319.5,204.8242,315.5,200.8242" style="stroke:#181818;stroke-width:1.0;"/><text fill="#000000" font-family="sans-serif" font-size="13" lengthAdjust="spacing" textLength="54" x="315.5" y="182.5615">doShow()</text><polygon fill="#181818" points="580.5,228.1152,590.5,232.1152,580.5,236.1152,584.5,232.1152" style="stroke:#181818;stroke-width:1.0;"/><line style="stroke:#181818;stroke-width:1.0;" x1="308.5" x2="586.5" y1="232.1152" y2="232.1152"/><text fill="#000000" font-family="sans-serif" font-size="13" lengthAdjust="spacing" textLength="44" x="315.5" y="226.8525">create()</text><polygon fill="#181818" points="575.5,259.4063,585.5,263.4063,575.5,267.4063,579.5,263.4063" style="stroke:#181818;stroke-width:1.0;"/><line style="stroke:#181818;stroke-width:1.0;" x1="308.5" x2="581.5" y1="263.4063" y2="263.4063"/><text fill="#000000" font-family="sans-serif" font-size="13" lengthAdjust="spacing" textLength="150" x="315.5" y="258.1436">allJobOpeningsInResults()</text><polygon fill="#181818" points="754.5,290.6973,764.5,294.6973,754.5,298.6973,758.5,294.6973" style="stroke:#181818;stroke-width:1.0;"/><line style="stroke:#181818;stroke-width:1.0;" x1="597.5" x2="760.5" y1="294.6973" y2="294.6973"/><text fill="#000000" font-family="sans-serif" font-size="13" lengthAdjust="spacing" textLength="150" x="604.5" y="289.4346">allJobOpeningsInResults()</text><polygon fill="#181818" points="608.5,321.9883,598.5,325.9883,608.5,329.9883,604.5,325.9883" style="stroke:#181818;stroke-width:1.0;"/><line style="stroke:#181818;stroke-width:1.0;stroke-dasharray:2.0,2.0;" x1="602.5" x2="770.5" y1="325.9883" y2="325.9883"/><text fill="#000000" font-family="sans-serif" font-size="13" lengthAdjust="spacing" textLength="72" x="614.5" y="320.7256">jobOpenings</text><polygon fill="#181818" points="319.5,353.2793,309.5,357.2793,319.5,361.2793,315.5,357.2793" style="stroke:#181818;stroke-width:1.0;"/><line style="stroke:#181818;stroke-width:1.0;stroke-dasharray:2.0,2.0;" x1="313.5" x2="586.5" y1="357.2793" y2="357.2793"/><text fill="#000000" font-family="sans-serif" font-size="13" lengthAdjust="spacing" textLength="72" x="325.5" y="352.0166">jobOpenings</text><polygon fill="#181818" points="84.5,384.5703,74.5,388.5703,84.5,392.5703,80.5,388.5703" style="stroke:#181818;stroke-width:1.0;"/><line style="stroke:#181818;stroke-width:1.0;stroke-dasharray:2.0,2.0;" x1="78.5" x2="297.5" y1="388.5703" y2="388.5703"/><text fill="#000000" font-family="sans-serif" font-size="13" lengthAdjust="spacing" textLength="201" x="90.5" y="383.3076">shows list of jobOpenings available</text><polygon fill="#181818" points="286.5,415.8613,296.5,419.8613,286.5,423.8613,290.5,419.8613" style="stroke:#181818;stroke-width:1.0;"/><line style="stroke:#181818;stroke-width:1.0;" x1="73.5" x2="292.5" y1="419.8613" y2="419.8613"/><text fill="#000000" font-family="sans-serif" font-size="13" lengthAdjust="spacing" textLength="195" x="80.5" y="414.5986">selects jobOpenings (jobOpening)</text><polygon fill="#181818" points="575.5,447.1523,585.5,451.1523,575.5,455.1523,579.5,451.1523" style="stroke:#181818;stroke-width:1.0;"/><line style="stroke:#181818;stroke-width:1.0;" x1="308.5" x2="581.5" y1="451.1523" y2="451.1523"/><text fill="#000000" font-family="sans-serif" font-size="13" lengthAdjust="spacing" textLength="234" x="315.5" y="445.8896">findRankingByJobReference(jobOpening)</text><polygon fill="#181818" points="914.5,478.4434,924.5,482.4434,914.5,486.4434,918.5,482.4434" style="stroke:#181818;stroke-width:1.0;"/><line style="stroke:#181818;stroke-width:1.0;" x1="597.5" x2="920.5" y1="482.4434" y2="482.4434"/><text fill="#000000" font-family="sans-serif" font-size="13" lengthAdjust="spacing" textLength="233" x="604.5" y="477.1807">applicationsOfJobOpening(jobReference)</text><polygon fill="#181818" points="608.5,509.7344,598.5,513.7344,608.5,517.7344,604.5,513.7344" style="stroke:#181818;stroke-width:1.0;"/><line style="stroke:#181818;stroke-width:1.0;stroke-dasharray:2.0,2.0;" x1="602.5" x2="930.5" y1="513.7344" y2="513.7344"/><text fill="#000000" font-family="sans-serif" font-size="13" lengthAdjust="spacing" textLength="42" x="614.5" y="508.4717">ranking</text><polygon fill="#181818" points="319.5,541.0254,309.5,545.0254,319.5,549.0254,315.5,545.0254" style="stroke:#181818;stroke-width:1.0;"/><line style="stroke:#181818;stroke-width:1.0;stroke-dasharray:2.0,2.0;" x1="313.5" x2="586.5" y1="545.0254" y2="545.0254"/><text fill="#000000" font-family="sans-serif" font-size="13" lengthAdjust="spacing" textLength="42" x="325.5" y="539.7627">ranking</text><polygon fill="#181818" points="84.5,606.8984,74.5,610.8984,84.5,614.8984,80.5,610.8984" style="stroke:#181818;stroke-width:1.0;"/><line style="stroke:#181818;stroke-width:1.0;stroke-dasharray:2.0,2.0;" x1="78.5" x2="297.5" y1="610.8984" y2="610.8984"/><text fill="#000000" font-family="sans-serif" font-size="13" lengthAdjust="spacing" textLength="129" x="90.5" y="571.0537">shows candidates and</text><text fill="#000000" font-family="sans-serif" font-size="13" lengthAdjust="spacing" textLength="129" x="94.5" y="588.3447">customer to notify and</text><text fill="#000000" font-family="sans-serif" font-size="13" lengthAdjust="spacing" textLength="89" x="94.5" y="605.6357">asks to confirm</text><polygon fill="#181818" points="286.5,638.1895,296.5,642.1895,286.5,646.1895,290.5,642.1895" style="stroke:#181818;stroke-width:1.0;"/><line style="stroke:#181818;stroke-width:1.0;" x1="73.5" x2="292.5" y1="642.1895" y2="642.1895"/><text fill="#000000" font-family="sans-serif" font-size="13" lengthAdjust="spacing" textLength="49" x="80.5" y="636.9268">confirms</text><path d="M108,657.1895 L181,657.1895 L181,666.4805 L171,676.4805 L108,676.4805 L108,657.1895 " fill="#EEEEEE" style="stroke:#000000;stroke-width:1.5;"/><rect fill="none" height="359.541" style="stroke:#000000;stroke-width:1.5;" width="1009.5" x="108" y="657.1895"/><text fill="#000000" font-family="sans-serif" font-size="13" font-weight="bold" lengthAdjust="spacing" textLength="28" x="123" y="672.2178">loop</text><text fill="#000000" font-family="sans-serif" font-size="11" font-weight="bold" lengthAdjust="spacing" textLength="146" x="196" y="671.0596">[for each order of ranking]</text><path d="M118,683.4805 L179,683.4805 L179,692.7715 L169,702.7715 L118,702.7715 L118,683.4805 " fill="#EEEEEE" style="stroke:#000000;stroke-width:1.5;"/><rect fill="none" height="326.25" style="stroke:#000000;stroke-width:1.5;" width="989.5" x="118" y="683.4805"/><text fill="#000000" font-family="sans-serif" font-size="13" font-weight="bold" lengthAdjust="spacing" textLength="16" x="133" y="698.5088">alt</text><text fill="#000000" font-family="sans-serif" font-size="11" font-weight="bold" lengthAdjust="spacing" textLength="31" x="194" y="697.3506">[true]</text><path d="M128,707.7715 L128,734.7715 L293,734.7715 L293,717.7715 L283,707.7715 L128,707.7715 " fill="#FAFAFA" style="stroke:#181818;stroke-width:0.5;"/><path d="M283,707.7715 L283,717.7715 L293,717.7715 L283,707.7715 " fill="#FAFAFA" style="stroke:#181818;stroke-width:0.5;"/><text fill="#000000" font-family="sans-serif" font-size="13" lengthAdjust="spacing" textLength="144" x="134" y="726.7998">i &lt;= numberOfVacancies</text><polygon fill="#181818" points="575.5,759.3535,585.5,763.3535,575.5,767.3535,579.5,763.3535" style="stroke:#181818;stroke-width:1.0;"/><line style="stroke:#181818;stroke-width:1.0;" x1="308.5" x2="581.5" y1="763.3535" y2="763.3535"/><text fill="#000000" font-family="sans-serif" font-size="13" lengthAdjust="spacing" textLength="254" x="315.5" y="758.0908">defineApplicationStateAccepted(application)</text><polygon fill="#181818" points="1037,790.6445,1047,794.6445,1037,798.6445,1041,794.6445" style="stroke:#181818;stroke-width:1.0;"/><line style="stroke:#181818;stroke-width:1.0;" x1="597.5" x2="1043" y1="794.6445" y2="794.6445"/><text fill="#000000" font-family="sans-serif" font-size="13" lengthAdjust="spacing" textLength="207" x="604.5" y="789.3818">defineApplicationState(ACCEPTED)</text><polygon fill="#181818" points="608.5,804.6445,598.5,808.6445,608.5,812.6445,604.5,808.6445" style="stroke:#181818;stroke-width:1.0;"/><line style="stroke:#181818;stroke-width:1.0;stroke-dasharray:2.0,2.0;" x1="602.5" x2="1053" y1="808.6445" y2="808.6445"/><polygon fill="#181818" points="319.5,835.9355,309.5,839.9355,319.5,843.9355,315.5,839.9355" style="stroke:#181818;stroke-width:1.0;"/><line style="stroke:#181818;stroke-width:1.0;stroke-dasharray:2.0,2.0;" x1="313.5" x2="586.5" y1="839.9355" y2="839.9355"/><text fill="#000000" font-family="sans-serif" font-size="13" lengthAdjust="spacing" textLength="100" x="325.5" y="834.6729">operator success</text><line style="stroke:#000000;stroke-width:1.0;stroke-dasharray:2.0,2.0;" x1="118" x2="1107.5" y1="848.9355" y2="848.9355"/><text fill="#000000" font-family="sans-serif" font-size="11" font-weight="bold" lengthAdjust="spacing" textLength="35" x="123" y="860.8057">[false]</text><path d="M136,869.5664 L136,896.5664 L293,896.5664 L293,879.5664 L283,869.5664 L136,869.5664 " fill="#FAFAFA" style="stroke:#181818;stroke-width:0.5;"/><path d="M283,869.5664 L283,879.5664 L293,879.5664 L283,869.5664 " fill="#FAFAFA" style="stroke:#181818;stroke-width:0.5;"/><text fill="#000000" font-family="sans-serif" font-size="13" lengthAdjust="spacing" textLength="136" x="142" y="888.5947">i &gt; numberOfVacancies</text><polygon fill="#181818" points="575.5,921.1484,585.5,925.1484,575.5,929.1484,579.5,925.1484" style="stroke:#181818;stroke-width:1.0;"/><line style="stroke:#181818;stroke-width:1.0;" x1="308.5" x2="581.5" y1="925.1484" y2="925.1484"/><text fill="#000000" font-family="sans-serif" font-size="13" lengthAdjust="spacing" textLength="255" x="315.5" y="919.8857">defineApplicationStateRejected(REJECTED)</text><polygon fill="#181818" points="1037,952.4395,1047,956.4395,1037,960.4395,1041,956.4395" style="stroke:#181818;stroke-width:1.0;"/><line style="stroke:#181818;stroke-width:1.0;" x1="597.5" x2="1043" y1="956.4395" y2="956.4395"/><text fill="#000000" font-family="sans-serif" font-size="13" lengthAdjust="spacing" textLength="207" x="604.5" y="951.1768">defineApplicationState(ACCEPTED)</text><polygon fill="#181818" points="608.5,966.4395,598.5,970.4395,608.5,974.4395,604.5,970.4395" style="stroke:#181818;stroke-width:1.0;"/><line style="stroke:#181818;stroke-width:1.0;stroke-dasharray:2.0,2.0;" x1="602.5" x2="1053" y1="970.4395" y2="970.4395"/><polygon fill="#181818" points="319.5,997.7305,309.5,1001.7305,319.5,1005.7305,315.5,1001.7305" style="stroke:#181818;stroke-width:1.0;"/><line style="stroke:#181818;stroke-width:1.0;stroke-dasharray:2.0,2.0;" x1="313.5" x2="591.5" y1="1001.7305" y2="1001.7305"/><text fill="#000000" font-family="sans-serif" font-size="13" lengthAdjust="spacing" textLength="100" x="325.5" y="996.4678">operator success</text><polygon fill="#181818" points="84.5,1043.0215,74.5,1047.0215,84.5,1051.0215,80.5,1047.0215" style="stroke:#181818;stroke-width:1.0;"/><line style="stroke:#181818;stroke-width:1.0;stroke-dasharray:2.0,2.0;" x1="78.5" x2="302.5" y1="1047.0215" y2="1047.0215"/><text fill="#000000" font-family="sans-serif" font-size="13" lengthAdjust="spacing" textLength="100" x="90.5" y="1041.7588">operator success</text><!--SRC=[fPHDRnen48Rl_XKZJd10IdkCsaWfS21IHGIbfrwCTnOSZBsrlOduzntlf_S31QahWMJFE-EPPyPsPwapRla5BaORSRBcWk1jZimrbeoBCp_YpbyLWaNXkJwgME1EF34VKXyXvSeXOrvwakxmRuvQ82mbFmRTTBUSmHpsE_ZoyFM1CIwyiJ1PvCxJiHP-Satds0bm1tk7bb5uBuNCkFOmUSqFIhhJ5bsklDklIzcwAthigXP6UskKgeAsovxNYpbiCjHKmXOpuoJbTIqyo40xFVMMw_DG6dQ7skSiKr9mBuqkLBHcHUNodNiiosJX7-PFL0qy4atpCPt5cZKZGsrEpAuIb9jjJMGK5idZXf4hrTRfrhfYHEhcg0WGYtmfKWdYlYWLD5RvpFk9lBN-BC61MtnmNNNiKjGM3Aw85dWveAPxC6ai1FxEfU87cjKUOLGqnQwZdRQBKNgfr4dLzn_N8jCKRPZkhcEFMZKJ0Lix1swJjWI3UnChObXF4wj332ZQCfkOOECqXh3MZ-8JN2SoeHX4JIVmHuEeRwKte8sNwJLOoC3TsOLDONGgxONru5RRr2PbJ0OftN1Ay0J69gIY3ZLvSENBfuR28oXCYmRIj0Dz4hvz1vrV3cWtwMzE-Gc9ZY4b5-I5PcJ64wH6ONJfTfwAUXO2Cu_9DEh2h0ZHRHVvtOmnVLuiLg-_LilIiM5UNEYm4voxJIgse_O4QV_G6fl9qFBm7BgSadLKARsarNiwpkVf4pntqzdY6rq7ehDTlQmMJON_0MSCpqr0euZkX3JmZs8JY-9NQhf3FmWKXI30zFq3]--></g></svg>