<?xml version="1.0" encoding="us-ascii" standalone="no"?><svg xmlns="http://www.w3.org/2000/svg" xmlns:xlink="http://www.w3.org/1999/xlink" contentStyleType="text/css" height="878px" preserveAspectRatio="none" style="width:1046px;height:878px;background:#FFFFFF;" version="1.1" viewBox="0 0 1046 878" width="1046px" zoomAndPan="magnify"><defs/><g><text fill="#000000" font-family="sans-serif" font-size="14" font-weight="bold" lengthAdjust="spacing" textLength="100" x="466" y="25.1074">Domain Model</text><!--cluster JobOpeningAggregate--><g id="cluster_JobOpeningAggregate"><path d="M516.5,216.6348 L676.5,216.6348 A3.75,3.75 0 0 1 679,219.1348 L686,241.2559 L806.5,241.2559 A2.5,2.5 0 0 1 809,243.7559 L809,753.1348 A2.5,2.5 0 0 1 806.5,755.6348 L516.5,755.6348 A2.5,2.5 0 0 1 514,753.1348 L514,219.1348 A2.5,2.5 0 0 1 516.5,216.6348 " fill="none" style="stroke:#000000;stroke-width:1.5;"/><line style="stroke:#000000;stroke-width:1.5;" x1="514" x2="686" y1="241.2559" y2="241.2559"/><text fill="#000000" font-family="sans-serif" font-size="14" font-weight="bold" lengthAdjust="spacing" textLength="159" x="518" y="233.7422">JobOpeningAggregate</text></g><!--cluster ApplicationAggregate--><g id="cluster_ApplicationAggregate"><path d="M8.5,45.6348 L160.5,45.6348 A3.75,3.75 0 0 1 163,48.1348 L170,70.2559 L487.5,70.2559 A2.5,2.5 0 0 1 490,72.7559 L490,328.1348 A2.5,2.5 0 0 1 487.5,330.6348 L8.5,330.6348 A2.5,2.5 0 0 1 6,328.1348 L6,48.1348 A2.5,2.5 0 0 1 8.5,45.6348 " fill="none" style="stroke:#000000;stroke-width:1.5;"/><line style="stroke:#000000;stroke-width:1.5;" x1="6" x2="170" y1="70.2559" y2="70.2559"/><text fill="#000000" font-family="sans-serif" font-size="14" font-weight="bold" lengthAdjust="spacing" textLength="151" x="10" y="62.7422">ApplicationAggregate</text></g><!--cluster PluginAggregate--><g id="cluster_PluginAggregate"><path d="M835.5,501.6348 L953.5,501.6348 A3.75,3.75 0 0 1 956,504.1348 L963,526.2559 L1036.5,526.2559 A2.5,2.5 0 0 1 1039,528.7559 L1039,869.1348 A2.5,2.5 0 0 1 1036.5,871.6348 L835.5,871.6348 A2.5,2.5 0 0 1 833,869.1348 L833,504.1348 A2.5,2.5 0 0 1 835.5,501.6348 " fill="none" style="stroke:#000000;stroke-width:1.5;"/><line style="stroke:#000000;stroke-width:1.5;" x1="833" x2="963" y1="526.2559" y2="526.2559"/><text fill="#000000" font-family="sans-serif" font-size="14" font-weight="bold" lengthAdjust="spacing" textLength="117" x="837" y="518.7422">PluginAggregate</text></g><!--class JobOpening--><g id="elem_JobOpening"><rect codeLine="9" fill="#F1F1F1" height="68.543" id="JobOpening" rx="2.5" ry="2.5" style="stroke:#181818;stroke-width:0.5;" width="82" x="619" y="253.6348"/><text fill="#000000" font-family="sans-serif" font-size="12" font-style="italic" lengthAdjust="spacing" textLength="44" x="638" y="271.584">&#171;Entity&#187;</text><text fill="#000000" font-family="sans-serif" font-size="12" font-style="italic" lengthAdjust="spacing" textLength="35" x="642.5" y="287.5449">&#171;root&#187;</text><text fill="#000000" font-family="sans-serif" font-size="14" lengthAdjust="spacing" textLength="76" x="622" y="305.6641">JobOpening</text><line style="stroke:#181818;stroke-width:0.5;" x1="620" x2="700" y1="314.1777" y2="314.1777"/></g><!--class JobReference--><g id="elem_JobReference"><rect codeLine="11" fill="#F1F1F1" height="52.582" id="JobReference" rx="2.5" ry="2.5" style="stroke:#181818;stroke-width:0.5;" width="94" x="530" y="401.6348"/><text fill="#000000" font-family="sans-serif" font-size="12" font-style="italic" lengthAdjust="spacing" textLength="85" x="534.5" y="419.584">&#171;Value Object&#187;</text><text fill="#000000" font-family="sans-serif" font-size="14" lengthAdjust="spacing" textLength="88" x="533" y="437.7031">JobReference</text><line style="stroke:#181818;stroke-width:0.5;" x1="531" x2="623" y1="446.2168" y2="446.2168"/></g><!--class RecruitmentProcess--><g id="elem_RecruitmentProcess"><rect codeLine="12" fill="#F1F1F1" height="52.582" id="RecruitmentProcess" rx="2.5" ry="2.5" style="stroke:#181818;stroke-width:0.5;" width="133" x="659.5" y="401.6348"/><text fill="#000000" font-family="sans-serif" font-size="12" font-style="italic" lengthAdjust="spacing" textLength="44" x="704" y="419.584">&#171;Entity&#187;</text><text fill="#000000" font-family="sans-serif" font-size="14" lengthAdjust="spacing" textLength="127" x="662.5" y="437.7031">RecruitmentProcess</text><line style="stroke:#181818;stroke-width:0.5;" x1="660.5" x2="791.5" y1="446.2168" y2="446.2168"/></g><!--class Phase--><g id="elem_Phase"><rect codeLine="13" fill="#F1F1F1" height="52.582" id="Phase" rx="2.5" ry="2.5" style="stroke:#181818;stroke-width:0.5;" width="46" x="673" y="546.6348"/><text fill="#000000" font-family="sans-serif" font-size="12" font-style="italic" lengthAdjust="spacing" textLength="44" x="674" y="564.584">&#171;Entity&#187;</text><text fill="#000000" font-family="sans-serif" font-size="14" lengthAdjust="spacing" textLength="40" x="676" y="582.7031">Phase</text><line style="stroke:#181818;stroke-width:0.5;" x1="674" x2="718" y1="591.2168" y2="591.2168"/></g><!--class PhaseName--><g id="elem_PhaseName"><rect codeLine="14" fill="#F1F1F1" height="52.582" id="PhaseName" rx="2.5" ry="2.5" style="stroke:#181818;stroke-width:0.5;" width="84" x="545" y="686.6348"/><text fill="#000000" font-family="sans-serif" font-size="12" font-style="italic" lengthAdjust="spacing" textLength="82" x="546" y="704.584">&#171;ValueObject&#187;</text><text fill="#000000" font-family="sans-serif" font-size="14" lengthAdjust="spacing" textLength="76" x="549" y="722.7031">PhaseName</text><line style="stroke:#181818;stroke-width:0.5;" x1="546" x2="628" y1="731.2168" y2="731.2168"/></g><!--class PhaseState--><g id="elem_PhaseState"><rect codeLine="15" fill="#F1F1F1" height="52.582" id="PhaseState" rx="2.5" ry="2.5" style="stroke:#181818;stroke-width:0.5;" width="84" x="664" y="686.6348"/><text fill="#000000" font-family="sans-serif" font-size="12" font-style="italic" lengthAdjust="spacing" textLength="82" x="665" y="704.584">&#171;ValueObject&#187;</text><text fill="#000000" font-family="sans-serif" font-size="14" lengthAdjust="spacing" textLength="73" x="669.5" y="722.7031">PhaseState</text><line style="stroke:#181818;stroke-width:0.5;" x1="665" x2="747" y1="731.2168" y2="731.2168"/></g><!--class Application--><g id="elem_Application"><rect codeLine="21" fill="#F1F1F1" height="68.543" id="Application" rx="2.5" ry="2.5" style="stroke:#181818;stroke-width:0.5;" width="75" x="251.5" y="82.6348"/><text fill="#000000" font-family="sans-serif" font-size="12" font-style="italic" lengthAdjust="spacing" textLength="44" x="267" y="100.584">&#171;Entity&#187;</text><text fill="#000000" font-family="sans-serif" font-size="12" font-style="italic" lengthAdjust="spacing" textLength="35" x="271.5" y="116.5449">&#171;root&#187;</text><text fill="#000000" font-family="sans-serif" font-size="14" lengthAdjust="spacing" textLength="69" x="254.5" y="134.6641">Application</text><line style="stroke:#181818;stroke-width:0.5;" x1="252.5" x2="325.5" y1="143.1777" y2="143.1777"/></g><!--class ApplicationID--><g id="elem_ApplicationID"><rect codeLine="22" fill="#F1F1F1" height="52.582" id="ApplicationID" rx="2.5" ry="2.5" style="stroke:#181818;stroke-width:0.5;" width="88" x="22" y="261.6348"/><text fill="#000000" font-family="sans-serif" font-size="12" font-style="italic" lengthAdjust="spacing" textLength="82" x="25" y="279.584">&#171;ValueObject&#187;</text><text fill="#000000" font-family="sans-serif" font-size="14" lengthAdjust="spacing" textLength="82" x="25" y="297.7031">ApplicationID</text><line style="stroke:#181818;stroke-width:0.5;" x1="23" x2="109" y1="306.2168" y2="306.2168"/></g><!--class ApplicationState--><g id="elem_ApplicationState"><rect codeLine="23" fill="#F1F1F1" height="52.582" id="ApplicationState" rx="2.5" ry="2.5" style="stroke:#181818;stroke-width:0.5;" width="108" x="145" y="261.6348"/><text fill="#000000" font-family="sans-serif" font-size="12" font-style="italic" lengthAdjust="spacing" textLength="82" x="158" y="279.584">&#171;ValueObject&#187;</text><text fill="#000000" font-family="sans-serif" font-size="14" lengthAdjust="spacing" textLength="102" x="148" y="297.7031">ApplicationState</text><line style="stroke:#181818;stroke-width:0.5;" x1="146" x2="252" y1="306.2168" y2="306.2168"/></g><!--class ApplicationRequirementsFile--><g id="elem_ApplicationRequirementsFile"><rect codeLine="24" fill="#F1F1F1" height="52.582" id="ApplicationRequirementsFile" rx="2.5" ry="2.5" style="stroke:#181818;stroke-width:0.5;" width="186" x="288" y="261.6348"/><text fill="#000000" font-family="sans-serif" font-size="12" font-style="italic" lengthAdjust="spacing" textLength="82" x="340" y="279.584">&#171;ValueObject&#187;</text><text fill="#000000" font-family="sans-serif" font-size="14" lengthAdjust="spacing" textLength="180" x="291" y="297.7031">ApplicationRequirementsFile</text><line style="stroke:#181818;stroke-width:0.5;" x1="289" x2="473" y1="306.2168" y2="306.2168"/></g><!--class Plugin--><g id="elem_Plugin"><rect codeLine="30" fill="#F1F1F1" height="68.543" id="Plugin" rx="2.5" ry="2.5" style="stroke:#181818;stroke-width:0.5;" width="46" x="855" y="538.6348"/><text fill="#000000" font-family="sans-serif" font-size="12" font-style="italic" lengthAdjust="spacing" textLength="44" x="856" y="556.584">&#171;Entity&#187;</text><text fill="#000000" font-family="sans-serif" font-size="12" font-style="italic" lengthAdjust="spacing" textLength="35" x="860.5" y="572.5449">&#171;root&#187;</text><text fill="#000000" font-family="sans-serif" font-size="14" lengthAdjust="spacing" textLength="39" x="858.5" y="590.6641">Plugin</text><line style="stroke:#181818;stroke-width:0.5;" x1="856" x2="900" y1="599.1777" y2="599.1777"/></g><!--class PluginType--><g id="elem_PluginType"><rect codeLine="32" fill="#F1F1F1" height="52.582" id="PluginType" rx="2.5" ry="2.5" style="stroke:#181818;stroke-width:0.5;" width="87" x="870.5" y="686.6348"/><text fill="#000000" font-family="sans-serif" font-size="12" font-style="italic" lengthAdjust="spacing" textLength="85" x="871.5" y="704.584">&#171;Value Object&#187;</text><text fill="#000000" font-family="sans-serif" font-size="14" lengthAdjust="spacing" textLength="71" x="878.5" y="722.7031">PluginType</text><line style="stroke:#181818;stroke-width:0.5;" x1="871.5" x2="956.5" y1="731.2168" y2="731.2168"/></g><!--class RequirementsSpecification--><g id="elem_RequirementsSpecification"><rect codeLine="34" fill="#F1F1F1" height="52.582" id="RequirementsSpecification" rx="2.5" ry="2.5" style="stroke:#181818;stroke-width:0.5;" width="174" x="849" y="802.6348"/><text fill="#000000" font-family="sans-serif" font-size="12" font-style="italic" lengthAdjust="spacing" textLength="85" x="893.5" y="820.584">&#171;Value Object&#187;</text><text fill="#000000" font-family="sans-serif" font-size="14" lengthAdjust="spacing" textLength="168" x="852" y="838.7031">RequirementsSpecification</text><line style="stroke:#181818;stroke-width:0.5;" x1="850" x2="1022" y1="847.2168" y2="847.2168"/></g><!--link Plugin to PluginType--><g id="link_Plugin_PluginType"><path codeLine="38" d="M886.81,607.8948 C893.13,632.1548 900.0132,658.5496 905.8032,680.7096 " fill="none" id="Plugin-to-PluginType" style="stroke:#181818;stroke-width:1.0;"/><polygon fill="#181818" points="907.32,686.5148,908.9149,676.7959,906.056,681.6772,901.1748,678.8183,907.32,686.5148" style="stroke:#181818;stroke-width:1.0;"/><text fill="#000000" font-family="sans-serif" font-size="13" lengthAdjust="spacing" textLength="96" x="900" y="652.6631">characterized by</text><text fill="#000000" font-family="sans-serif" font-size="13" lengthAdjust="spacing" textLength="7" x="880.6895" y="629.15">1</text><text fill="#000000" font-family="sans-serif" font-size="13" lengthAdjust="spacing" textLength="7" x="897.9659" y="675.5036">1</text></g><!--reverse link PluginType to RequirementsSpecification--><g id="link_PluginType_RequirementsSpecification"><path codeLine="39" d="M922.3516,757.3885 C925.9516,776.0385 927.39,783.5248 931,802.2448 " fill="none" id="PluginType-backto-RequirementsSpecification" style="stroke:#181818;stroke-width:1.0;"/><polygon fill="none" points="918.94,739.7148,916.4603,758.5257,928.2428,756.2513,918.94,739.7148" style="stroke:#181818;stroke-width:1.0;"/></g><!--link JobOpening to JobReference--><g id="link_JobOpening_JobReference"><path codeLine="41" d="M632.49,322.8248 C625.4,332.2048 618.07,342.5748 612,352.6348 C602.54,368.2948 596.1774,381.4102 589.7974,396.1202 " fill="none" id="JobOpening-to-JobReference" style="stroke:#181818;stroke-width:1.0;"/><polygon fill="#181818" points="587.41,401.6248,594.6609,394.9595,589.3995,397.0376,587.3214,391.7763,587.41,401.6248" style="stroke:#181818;stroke-width:1.0;"/><text fill="#000000" font-family="sans-serif" font-size="13" lengthAdjust="spacing" textLength="69" x="613" y="367.6631">identified by</text><text fill="#000000" font-family="sans-serif" font-size="13" lengthAdjust="spacing" textLength="22" x="603.8711" y="344.3407">0..1</text><text fill="#000000" font-family="sans-serif" font-size="13" lengthAdjust="spacing" textLength="7" x="582.0943" y="390.2058">1</text></g><!--link JobOpening to Plugin--><g id="link_JobOpening_Plugin"><path codeLine="42" d="M701,310.7748 C734.59,330.4048 781.13,362.2548 810,401.6348 C841,443.9048 858.678,496.4616 868.468,532.7716 " fill="none" id="JobOpening-to-Plugin" style="stroke:#181818;stroke-width:1.0;"/><polygon fill="#181818" points="870.03,538.5648,871.5491,528.8338,868.7284,533.7372,863.825,530.9164,870.03,538.5648" style="stroke:#181818;stroke-width:1.0;"/><text fill="#000000" font-family="sans-serif" font-size="13" lengthAdjust="spacing" textLength="42" x="840" y="433.6631">selects</text><text fill="#000000" font-family="sans-serif" font-size="13" lengthAdjust="spacing" textLength="5" x="709.0203" y="310.4791">*</text><text fill="#000000" font-family="sans-serif" font-size="13" lengthAdjust="spacing" textLength="22" x="844.4138" y="527.4542">0..2</text></g><!--link JobOpening to RecruitmentProcess--><g id="link_JobOpening_RecruitmentProcess"><path codeLine="43" d="M676.15,322.8948 C687.75,347.1548 700.5609,373.9421 711.1609,396.1021 " fill="none" id="JobOpening-to-RecruitmentProcess" style="stroke:#181818;stroke-width:1.0;"/><polygon fill="#181818" points="713.75,401.5148,713.4748,391.6698,711.5924,397.0042,706.258,395.1219,713.75,401.5148" style="stroke:#181818;stroke-width:1.0;"/><text fill="#000000" font-family="sans-serif" font-size="13" lengthAdjust="spacing" textLength="42" x="699" y="367.6631">selects</text><text fill="#000000" font-family="sans-serif" font-size="13" lengthAdjust="spacing" textLength="5" x="673.4108" y="344.15">*</text><text fill="#000000" font-family="sans-serif" font-size="13" lengthAdjust="spacing" textLength="22" x="686.3734" y="390.5036">0..1</text></g><!--link Application to JobOpening--><g id="link_Application_JobOpening"><path codeLine="46" d="M326.84,135.0448 C367.27,153.1448 433.24,182.7548 490,208.6348 C534.07,228.7348 578.9879,249.4983 613.3879,265.4683 " fill="none" id="Application-to-JobOpening" style="stroke:#181818;stroke-width:1.0;"/><polygon fill="#181818" points="618.83,267.9948,612.3511,260.5769,614.2949,265.8894,608.9825,267.8331,618.83,267.9948" style="stroke:#181818;stroke-width:1.0;"/><text fill="#000000" font-family="sans-serif" font-size="13" lengthAdjust="spacing" textLength="75" x="469" y="196.6631">submitted for</text><text fill="#000000" font-family="sans-serif" font-size="13" lengthAdjust="spacing" textLength="5" x="334.5298" y="133.9382">*</text><text fill="#000000" font-family="sans-serif" font-size="13" lengthAdjust="spacing" textLength="7" x="603.8732" y="259.9882">1</text></g><!--link Application to ApplicationID--><g id="link_Application_ApplicationID"><path codeLine="47" d="M251.31,128.0348 C219.44,137.7948 173.85,155.1148 141,181.6348 C113.72,203.6548 94.736,232.7599 81.796,256.2399 " fill="none" id="Application-to-ApplicationID" style="stroke:#181818;stroke-width:1.0;"/><polygon fill="#181818" points="78.9,261.4948,86.7472,255.5432,81.3133,257.1157,79.7407,251.6819,78.9,261.4948" style="stroke:#181818;stroke-width:1.0;"/><text fill="#000000" font-family="sans-serif" font-size="13" lengthAdjust="spacing" textLength="69" x="142" y="196.6631">identified by</text><text fill="#000000" font-family="sans-serif" font-size="13" lengthAdjust="spacing" textLength="7" x="236.4582" y="125.5919">1</text><text fill="#000000" font-family="sans-serif" font-size="13" lengthAdjust="spacing" textLength="7" x="74.0738" y="250.4789">1</text></g><!--link Application to ApplicationState--><g id="link_Application_ApplicationState"><path codeLine="48" d="M251.42,151.9548 C243.11,160.9348 235,171.0848 229,181.6348 C214.69,206.7948 207.8754,233.3719 203.8254,255.6019 " fill="none" id="Application-to-ApplicationState" style="stroke:#181818;stroke-width:1.0;"/><polygon fill="#181818" points="202.75,261.5048,208.2983,253.3675,203.6462,256.5857,200.4279,251.9336,202.75,261.5048" style="stroke:#181818;stroke-width:1.0;"/><text fill="#000000" font-family="sans-serif" font-size="13" lengthAdjust="spacing" textLength="95" x="230" y="196.6631">presents itself in</text><text fill="#000000" font-family="sans-serif" font-size="13" lengthAdjust="spacing" textLength="7" x="236.5891" y="154.0716">1</text><text fill="#000000" font-family="sans-serif" font-size="13" lengthAdjust="spacing" textLength="7" x="195.8078" y="250.4912">1</text></g><!--link Application to ApplicationRequirementsFile--><g id="link_Application_ApplicationRequirementsFile"><path codeLine="49" d="M311.92,151.9348 C318.03,161.4048 324.47,171.7948 330,181.6348 C344.95,208.2448 357.4137,234.4196 367.2237,256.0696 " fill="none" id="Application-to-ApplicationRequirementsFile" style="stroke:#181818;stroke-width:1.0;"/><polygon fill="#181818" points="369.7,261.5348,369.6289,251.6862,367.6364,256.9805,362.3421,254.988,369.7,261.5348" style="stroke:#181818;stroke-width:1.0;"/><text fill="#000000" font-family="sans-serif" font-size="13" lengthAdjust="spacing" textLength="38" x="341" y="196.6631">origins</text><text fill="#000000" font-family="sans-serif" font-size="13" lengthAdjust="spacing" textLength="7" x="308.1364" y="173.1966">1</text><text fill="#000000" font-family="sans-serif" font-size="13" lengthAdjust="spacing" textLength="22" x="342.5431" y="250.5282">0..1</text></g><!--reverse link RecruitmentProcess to Phase--><g id="link_RecruitmentProcess_Phase"><path codeLine="52" d="M718.1741,466.4487 C712.7441,492.3087 706.86,520.3448 701.42,546.3048 " fill="none" id="RecruitmentProcess-backto-Phase" style="stroke:#181818;stroke-width:1.0;"/><polygon fill="#181818" points="720.64,454.7048,715.4924,459.7547,718.1741,466.4487,723.3217,461.3987,720.64,454.7048" style="stroke:#181818;stroke-width:1.0;"/></g><!--link Phase to PhaseName--><g id="link_Phase_PhaseName"><path codeLine="53" d="M675.75,599.7648 C656.3,624.3948 630.7679,656.7155 611.2279,681.4655 " fill="none" id="Phase-to-PhaseName" style="stroke:#181818;stroke-width:1.0;"/><polygon fill="#181818" points="607.51,686.1748,616.2264,681.5895,610.6083,682.2504,609.9474,676.6323,607.51,686.1748" style="stroke:#181818;stroke-width:1.0;"/><text fill="#000000" font-family="sans-serif" font-size="13" lengthAdjust="spacing" textLength="39" x="645" y="652.6631">named</text><text fill="#000000" font-family="sans-serif" font-size="13" lengthAdjust="spacing" textLength="7" x="663.8516" y="621.1118">1</text><text fill="#000000" font-family="sans-serif" font-size="13" lengthAdjust="spacing" textLength="7" x="604.2309" y="675.5238">1</text></g><!--link Phase to PhaseState--><g id="link_Phase_PhaseState"><path codeLine="54" d="M697.86,599.7648 C699.64,624.3948 701.8972,655.4404 703.6872,680.1904 " fill="none" id="Phase-to-PhaseState" style="stroke:#181818;stroke-width:1.0;"/><polygon fill="#181818" points="704.12,686.1748,707.4604,676.9097,703.7593,681.1878,699.4812,677.4868,704.12,686.1748" style="stroke:#181818;stroke-width:1.0;"/><text fill="#000000" font-family="sans-serif" font-size="13" lengthAdjust="spacing" textLength="95" x="702" y="652.6631">presents itself in</text><text fill="#000000" font-family="sans-serif" font-size="13" lengthAdjust="spacing" textLength="7" x="690.5218" y="621.1118">1</text><text fill="#000000" font-family="sans-serif" font-size="13" lengthAdjust="spacing" textLength="7" x="695.9431" y="675.5238">1</text></g><!--SRC=[ZLJ1Rjim3BthAuXS2XH8iUve10OAj0DQO6kG3ZljeiYqpLQMF4a-f6d_VNHSstBYT3ivCT_JUu-aVE5VoDJIoGeq6Gox6i6wK5fneJ4F42muAie06JbKWQmH9MK8YfpIsFskaF6P5u62HhYrbIG3tss6MeXQgXTP83pOxMEDXannKnGE2naGza8eBRsFYh1QtHa-PvUcyDlmFsTjIDEzU1-X6ypHeL78vLzIDmYFssVsnfHz3zkWSWs52arOEwkGNuqd3wXrAJsUBVoGrI3HAyJrfz26E0Qmqo7qJLrhKhBjsapgg7ekzlifzFxsM78EDU_j1BR1FmtFjMsJ_qPwFiqGPwsRWYP9FhfnUF_FqNMmd-s6dKnE37CR3JtLg2WVEpHbSEhMsuVsude1osLwU4Ow2QYITri5TFIA6Mnt8ggktfRByuf2H6kv-79r5KbCjZ01lWISFATE8QPTjfoMnFollJLcUDISmfzYqrvgPeD7cX3nyWpCpbb_8CERRKKXiAtSkYab2ZDThkCq_y7gbYs1sg5lsmWKs6WEPERPNS3FrZ3XRn1nfzgaCusuvBaThg3eRl1a-iFLJS3m8pk7-SIr-0i0]--></g></svg>