<?xml version="1.0" encoding="us-ascii" standalone="no"?><svg xmlns="http://www.w3.org/2000/svg" xmlns:xlink="http://www.w3.org/1999/xlink" contentStyleType="text/css" height="489px" preserveAspectRatio="none" style="width:660px;height:489px;background:#FFFFFF;" version="1.1" viewBox="0 0 660 489" width="660px" zoomAndPan="magnify"><defs/><g><text fill="#000000" font-family="sans-serif" font-size="14" font-weight="bold" lengthAdjust="spacing" textLength="241" x="208.75" y="30.1074">Sequence Diagram (SD) - US 2000a</text><rect fill="#FFFFFF" height="264.3281" style="stroke:#181818;stroke-width:1.0;" width="10" x="63.5" y="133.2422"/><rect fill="#FFFFFF" height="241.0371" style="stroke:#181818;stroke-width:1.0;" width="10" x="227.5" y="156.5332"/><rect fill="#FFFFFF" height="93.873" style="stroke:#181818;stroke-width:1.0;" width="10" x="388.5" y="263.4063"/><rect fill="#FFFFFF" height="31.291" style="stroke:#181818;stroke-width:1.0;" width="10" x="568.5" y="294.6973"/><line style="stroke:#181818;stroke-width:0.5;stroke-dasharray:5.0,5.0;" x1="68" x2="68" y1="123.2422" y2="406.5703"/><line style="stroke:#181818;stroke-width:0.5;stroke-dasharray:5.0,5.0;" x1="232.5" x2="232.5" y1="123.2422" y2="406.5703"/><line style="stroke:#181818;stroke-width:0.5;stroke-dasharray:5.0,5.0;" x1="393.5" x2="393.5" y1="123.2422" y2="406.5703"/><line style="stroke:#181818;stroke-width:0.5;stroke-dasharray:5.0,5.0;" x1="573.5" x2="573.5" y1="123.2422" y2="406.5703"/><text fill="#000000" font-family="sans-serif" font-size="14" lengthAdjust="spacing" textLength="121" x="5" y="119.7285">Customer manager</text><ellipse cx="68.5" cy="53.1211" fill="#E3E3E3" rx="8" ry="8" style="stroke:#181818;stroke-width:0.5;"/><path d="M68.5,61.1211 L68.5,88.1211 M55.5,69.1211 L81.5,69.1211 M68.5,88.1211 L55.5,103.1211 M68.5,88.1211 L81.5,103.1211 " fill="none" style="stroke:#181818;stroke-width:0.5;"/><text fill="#000000" font-family="sans-serif" font-size="14" lengthAdjust="spacing" textLength="121" x="5" y="420.6777">Customer manager</text><ellipse cx="68.5" cy="432.6914" fill="#E3E3E3" rx="8" ry="8" style="stroke:#181818;stroke-width:0.5;"/><path d="M68.5,440.6914 L68.5,467.6914 M55.5,448.6914 L81.5,448.6914 M68.5,467.6914 L55.5,482.6914 M68.5,467.6914 L81.5,482.6914 " fill="none" style="stroke:#181818;stroke-width:0.5;"/><rect fill="#E3E3E3" height="32.6211" rx="2.5" ry="2.5" style="stroke:#181818;stroke-width:0.5;" width="124" x="170.5" y="89.6211"/><text fill="#000000" font-family="sans-serif" font-size="14" lengthAdjust="spacing" textLength="110" x="177.5" y="111.7285">ListJobOpeningUI</text><rect fill="#E3E3E3" height="32.6211" rx="2.5" ry="2.5" style="stroke:#181818;stroke-width:0.5;" width="124" x="170.5" y="405.5703"/><text fill="#000000" font-family="sans-serif" font-size="14" lengthAdjust="spacing" textLength="110" x="177.5" y="427.6777">ListJobOpeningUI</text><rect fill="#E3E3E3" height="32.6211" rx="2.5" ry="2.5" style="stroke:#181818;stroke-width:0.5;" width="178" x="304.5" y="89.6211"/><text fill="#000000" font-family="sans-serif" font-size="14" lengthAdjust="spacing" textLength="164" x="311.5" y="111.7285">:ListJobOpeningController</text><rect fill="#E3E3E3" height="32.6211" rx="2.5" ry="2.5" style="stroke:#181818;stroke-width:0.5;" width="178" x="304.5" y="405.5703"/><text fill="#000000" font-family="sans-serif" font-size="14" lengthAdjust="spacing" textLength="164" x="311.5" y="427.6777">:ListJobOpeningController</text><rect fill="#E3E3E3" height="32.6211" rx="2.5" ry="2.5" style="stroke:#181818;stroke-width:0.5;" width="162" x="492.5" y="89.6211"/><text fill="#000000" font-family="sans-serif" font-size="14" lengthAdjust="spacing" textLength="148" x="499.5" y="111.7285">:JobOpeningRepository</text><rect fill="#E3E3E3" height="32.6211" rx="2.5" ry="2.5" style="stroke:#181818;stroke-width:0.5;" width="162" x="492.5" y="405.5703"/><text fill="#000000" font-family="sans-serif" font-size="14" lengthAdjust="spacing" textLength="148" x="499.5" y="427.6777">:JobOpeningRepository</text><rect fill="#FFFFFF" height="264.3281" style="stroke:#181818;stroke-width:1.0;" width="10" x="63.5" y="133.2422"/><rect fill="#FFFFFF" height="241.0371" style="stroke:#181818;stroke-width:1.0;" width="10" x="227.5" y="156.5332"/><rect fill="#FFFFFF" height="93.873" style="stroke:#181818;stroke-width:1.0;" width="10" x="388.5" y="263.4063"/><rect fill="#FFFFFF" height="31.291" style="stroke:#181818;stroke-width:1.0;" width="10" x="568.5" y="294.6973"/><polygon fill="#181818" points="215.5,152.5332,225.5,156.5332,215.5,160.5332,219.5,156.5332" style="stroke:#181818;stroke-width:1.0;"/><line style="stroke:#181818;stroke-width:1.0;" x1="73.5" x2="221.5" y1="156.5332" y2="156.5332"/><text fill="#000000" font-family="sans-serif" font-size="13" lengthAdjust="spacing" textLength="38" x="80.5" y="151.2705">show()</text><line style="stroke:#181818;stroke-width:1.0;" x1="237.5" x2="279.5" y1="187.8242" y2="187.8242"/><line style="stroke:#181818;stroke-width:1.0;" x1="279.5" x2="279.5" y1="187.8242" y2="200.8242"/><line style="stroke:#181818;stroke-width:1.0;" x1="238.5" x2="279.5" y1="200.8242" y2="200.8242"/><polygon fill="#181818" points="248.5,196.8242,238.5,200.8242,248.5,204.8242,244.5,200.8242" style="stroke:#181818;stroke-width:1.0;"/><text fill="#000000" font-family="sans-serif" font-size="13" lengthAdjust="spacing" textLength="54" x="244.5" y="182.5615">doShow()</text><polygon fill="#181818" points="381.5,228.1152,391.5,232.1152,381.5,236.1152,385.5,232.1152" style="stroke:#181818;stroke-width:1.0;"/><line style="stroke:#181818;stroke-width:1.0;" x1="237.5" x2="387.5" y1="232.1152" y2="232.1152"/><text fill="#000000" font-family="sans-serif" font-size="13" lengthAdjust="spacing" textLength="44" x="244.5" y="226.8525">create()</text><polygon fill="#181818" points="376.5,259.4063,386.5,263.4063,376.5,267.4063,380.5,263.4063" style="stroke:#181818;stroke-width:1.0;"/><line style="stroke:#181818;stroke-width:1.0;" x1="237.5" x2="382.5" y1="263.4063" y2="263.4063"/><text fill="#000000" font-family="sans-serif" font-size="13" lengthAdjust="spacing" textLength="43" x="244.5" y="258.1436">findAll()</text><polygon fill="#181818" points="556.5,290.6973,566.5,294.6973,556.5,298.6973,560.5,294.6973" style="stroke:#181818;stroke-width:1.0;"/><line style="stroke:#181818;stroke-width:1.0;" x1="398.5" x2="562.5" y1="294.6973" y2="294.6973"/><text fill="#000000" font-family="sans-serif" font-size="13" lengthAdjust="spacing" textLength="43" x="405.5" y="289.4346">findAll()</text><polygon fill="#181818" points="409.5,321.9883,399.5,325.9883,409.5,329.9883,405.5,325.9883" style="stroke:#181818;stroke-width:1.0;"/><line style="stroke:#181818;stroke-width:1.0;stroke-dasharray:2.0,2.0;" x1="403.5" x2="572.5" y1="325.9883" y2="325.9883"/><text fill="#000000" font-family="sans-serif" font-size="13" lengthAdjust="spacing" textLength="86" x="415.5" y="320.7256">jobOpeningList</text><polygon fill="#181818" points="248.5,353.2793,238.5,357.2793,248.5,361.2793,244.5,357.2793" style="stroke:#181818;stroke-width:1.0;"/><line style="stroke:#181818;stroke-width:1.0;stroke-dasharray:2.0,2.0;" x1="242.5" x2="392.5" y1="357.2793" y2="357.2793"/><text fill="#000000" font-family="sans-serif" font-size="13" lengthAdjust="spacing" textLength="86" x="254.5" y="352.0166">jobOpeningList</text><polygon fill="#181818" points="84.5,384.5703,74.5,388.5703,84.5,392.5703,80.5,388.5703" style="stroke:#181818;stroke-width:1.0;"/><line style="stroke:#181818;stroke-width:1.0;stroke-dasharray:2.0,2.0;" x1="78.5" x2="226.5" y1="388.5703" y2="388.5703"/><text fill="#000000" font-family="sans-serif" font-size="13" lengthAdjust="spacing" textLength="130" x="90.5" y="383.3076">Shows job opening list</text><!--SRC=[VP3DQiCm48JlUeh5f-HWC3tcK2Z9nILGgF43REMDeqQMN4bkoDjtPST_WLG7WppVxEp8NvHfqM43ZJLMdfrj28BhIFX9QL5UiAOYt3I18ndGr7e9-3DMzgfC3IVKdeG8AZ1Qq4z7HX8S5DQHsnI7BQHG5l2IPHaA8L06wo3PTpvmi8C63IUv1D13wSa93WXAgXPDWEIeV7YtNnyj6Guhym7Brz1kJUsj2SvgVHywNyM3RRPyKckzuiLkWuNl_QRg5mCDQuduXVILqs77_UrrirqokM1Xb2jRt87Xvxm3Yz8HEvw89sMgDwrPdKOl2onOTlQBFZ7r5NezVSpuddh7XnCLZQxr_B7CF_XG8OA-dnnR-sW0EpX0HmkVFm00]--></g></svg>