<?xml version="1.0" encoding="us-ascii" standalone="no"?><svg xmlns="http://www.w3.org/2000/svg" xmlns:xlink="http://www.w3.org/1999/xlink" contentStyleType="text/css" height="567.7px" preserveAspectRatio="none" style="width:1332px;height:567px;background:#FFFFFF;" version="1.1" viewBox="0 0 1332 567" width="1332.8px" zoomAndPan="magnify"><defs/><g><text fill="#000000" font-family="sans-serif" font-size="9.8" font-weight="bold" lengthAdjust="spacing" textLength="114.8" x="604.275" y="17.5752">Domain Model - US1013</text><!--cluster JobOpeningAggregate--><g id="cluster_JobOpeningAggregate"><path d="M5.95,197.1558 L117.95,197.1558 A2.625,2.625 0 0 1 119.7,198.9058 L124.6,214.3905 L328.65,214.3905 A1.75,1.75 0 0 1 330.4,216.1405 L330.4,561.5058 A1.75,1.75 0 0 1 328.65,563.2558 L5.95,563.2558 A1.75,1.75 0 0 1 4.2,561.5058 L4.2,198.9058 A1.75,1.75 0 0 1 5.95,197.1558 " fill="none" style="stroke:#000000;stroke-width:1.0499999999999998;"/><line style="stroke:#000000;stroke-width:1.0499999999999998;" x1="4.2" x2="124.6" y1="214.3905" y2="214.3905"/><text fill="#000000" font-family="sans-serif" font-size="9.8" font-weight="bold" lengthAdjust="spacing" textLength="111.3" x="7" y="209.131">JobOpeningAggregate</text></g><!--cluster ApplicationAggregate--><g id="cluster_ApplicationAggregate"><path d="M390.25,61.3558 L496.65,61.3558 A2.625,2.625 0 0 1 498.4,63.1058 L503.3,78.5905 L974.05,78.5905 A1.75,1.75 0 0 1 975.8,80.3405 L975.8,387.9058 A1.75,1.75 0 0 1 974.05,389.6558 L390.25,389.6558 A1.75,1.75 0 0 1 388.5,387.9058 L388.5,63.1058 A1.75,1.75 0 0 1 390.25,61.3558 " fill="none" style="stroke:#000000;stroke-width:1.0499999999999998;"/><line style="stroke:#000000;stroke-width:1.0499999999999998;" x1="388.5" x2="503.3" y1="78.5905" y2="78.5905"/><text fill="#000000" font-family="sans-serif" font-size="9.8" font-weight="bold" lengthAdjust="spacing" textLength="105.7" x="391.3" y="73.331">ApplicationAggregate</text></g><!--cluster CandidateAggregate--><g id="cluster_CandidateAggregate"><path d="M994.35,197.1558 L1095.85,197.1558 A2.625,2.625 0 0 1 1097.6,198.9058 L1102.5,214.3905 L1251.95,214.3905 A1.75,1.75 0 0 1 1253.7,216.1405 L1253.7,387.9058 A1.75,1.75 0 0 1 1251.95,389.6558 L994.35,389.6558 A1.75,1.75 0 0 1 992.6,387.9058 L992.6,198.9058 A1.75,1.75 0 0 1 994.35,197.1558 " fill="none" style="stroke:#000000;stroke-width:1.0499999999999998;"/><line style="stroke:#000000;stroke-width:1.0499999999999998;" x1="992.6" x2="1102.5" y1="214.3905" y2="214.3905"/><text fill="#000000" font-family="sans-serif" font-size="9.8" font-weight="bold" lengthAdjust="spacing" textLength="100.8" x="995.4" y="209.131">CandidateAggregate</text></g><!--cluster RankAggregate--><g id="cluster_RankAggregate"><path d="M66.85,61.3558 L143.15,61.3558 A2.625,2.625 0 0 1 144.9,63.1058 L149.8,78.5905 L369.95,78.5905 A1.75,1.75 0 0 1 371.7,80.3405 L371.7,159.7058 A1.75,1.75 0 0 1 369.95,161.4558 L66.85,161.4558 A1.75,1.75 0 0 1 65.1,159.7058 L65.1,63.1058 A1.75,1.75 0 0 1 66.85,61.3558 " fill="none" style="stroke:#000000;stroke-width:1.0499999999999998;"/><line style="stroke:#000000;stroke-width:1.0499999999999998;" x1="65.1" x2="149.8" y1="78.5905" y2="78.5905"/><text fill="#000000" font-family="sans-serif" font-size="9.8" font-weight="bold" lengthAdjust="spacing" textLength="75.6" x="67.9" y="73.331">RankAggregate</text></g><!--class JobOpening--><g id="elem_JobOpening"><rect codeLine="9" fill="#F1F1F1" height="47.9801" id="JobOpening" rx="1.75" ry="1.75" style="stroke:#181818;stroke-width:0.3499999999999999;" width="57.4" x="139.3" y="237.7558"/><text fill="#000000" font-family="sans-serif" font-size="8.4" font-style="italic" lengthAdjust="spacing" textLength="30.8" x="152.6" y="250.3202">&#171;Entity&#187;</text><text fill="#000000" font-family="sans-serif" font-size="8.4" font-style="italic" lengthAdjust="spacing" textLength="24.5" x="155.75" y="261.4929">&#171;root&#187;</text><text fill="#000000" font-family="sans-serif" font-size="9.8" lengthAdjust="spacing" textLength="53.2" x="141.4" y="274.1763">JobOpening</text><line style="stroke:#181818;stroke-width:0.3499999999999999;" x1="140" x2="196" y1="280.1358" y2="280.1358"/></g><!--class NumberOfVacancies--><g id="elem_NumberOfVacancies"><rect codeLine="11" fill="#F1F1F1" height="36.8074" id="NumberOfVacancies" rx="1.75" ry="1.75" style="stroke:#181818;stroke-width:0.3499999999999999;" width="94.5" x="15.75" y="341.3558"/><text fill="#000000" font-family="sans-serif" font-size="8.4" font-style="italic" lengthAdjust="spacing" textLength="57.4" x="34.3" y="353.9202">&#171;ValueObject&#187;</text><text fill="#000000" font-family="sans-serif" font-size="9.8" lengthAdjust="spacing" textLength="90.3" x="17.85" y="366.6036">NumberOfVacancies</text><line style="stroke:#181818;stroke-width:0.3499999999999999;" x1="16.45" x2="109.55" y1="372.5632" y2="372.5632"/></g><!--class JobReference--><g id="elem_JobReference"><rect codeLine="12" fill="#F1F1F1" height="36.8074" id="JobReference" rx="1.75" ry="1.75" style="stroke:#181818;stroke-width:0.3499999999999999;" width="65.8" x="135.1" y="341.3558"/><text fill="#000000" font-family="sans-serif" font-size="8.4" font-style="italic" lengthAdjust="spacing" textLength="59.5" x="138.25" y="353.9202">&#171;Value Object&#187;</text><text fill="#000000" font-family="sans-serif" font-size="9.8" lengthAdjust="spacing" textLength="61.6" x="137.2" y="366.6036">JobReference</text><line style="stroke:#181818;stroke-width:0.3499999999999999;" x1="135.8" x2="200.2" y1="372.5632" y2="372.5632"/></g><!--class RecruitmentProcess--><g id="elem_RecruitmentProcess"><rect codeLine="13" fill="#F1F1F1" height="36.8074" id="RecruitmentProcess" rx="1.75" ry="1.75" style="stroke:#181818;stroke-width:0.3499999999999999;" width="93.1" x="225.75" y="341.3558"/><text fill="#000000" font-family="sans-serif" font-size="8.4" font-style="italic" lengthAdjust="spacing" textLength="30.8" x="256.9" y="353.9202">&#171;Entity&#187;</text><text fill="#000000" font-family="sans-serif" font-size="9.8" lengthAdjust="spacing" textLength="88.9" x="227.85" y="366.6036">RecruitmentProcess</text><line style="stroke:#181818;stroke-width:0.3499999999999999;" x1="226.45" x2="318.15" y1="372.5632" y2="372.5632"/></g><!--class Phase--><g id="elem_Phase"><rect codeLine="14" fill="#F1F1F1" height="36.8074" id="Phase" rx="1.75" ry="1.75" style="stroke:#181818;stroke-width:0.3499999999999999;" width="32.2" x="235.2" y="422.5558"/><text fill="#000000" font-family="sans-serif" font-size="8.4" font-style="italic" lengthAdjust="spacing" textLength="30.8" x="235.9" y="435.1202">&#171;Entity&#187;</text><text fill="#000000" font-family="sans-serif" font-size="9.8" lengthAdjust="spacing" textLength="28" x="237.3" y="447.8036">Phase</text><line style="stroke:#181818;stroke-width:0.3499999999999999;" x1="235.9" x2="266.7" y1="453.7632" y2="453.7632"/></g><!--class PhaseName--><g id="elem_PhaseName"><rect codeLine="15" fill="#F1F1F1" height="36.8074" id="PhaseName" rx="1.75" ry="1.75" style="stroke:#181818;stroke-width:0.3499999999999999;" width="58.8" x="145.6" y="514.9558"/><text fill="#000000" font-family="sans-serif" font-size="8.4" font-style="italic" lengthAdjust="spacing" textLength="57.4" x="146.3" y="527.5202">&#171;ValueObject&#187;</text><text fill="#000000" font-family="sans-serif" font-size="9.8" lengthAdjust="spacing" textLength="53.2" x="148.4" y="540.2036">PhaseName</text><line style="stroke:#181818;stroke-width:0.3499999999999999;" x1="146.3" x2="203.7" y1="546.1632" y2="546.1632"/></g><!--class PhaseState--><g id="elem_PhaseState"><rect codeLine="16" fill="#F1F1F1" height="36.8074" id="PhaseState" rx="1.75" ry="1.75" style="stroke:#181818;stroke-width:0.3499999999999999;" width="58.8" x="228.9" y="514.9558"/><text fill="#000000" font-family="sans-serif" font-size="8.4" font-style="italic" lengthAdjust="spacing" textLength="57.4" x="229.6" y="527.5202">&#171;ValueObject&#187;</text><text fill="#000000" font-family="sans-serif" font-size="9.8" lengthAdjust="spacing" textLength="51.1" x="232.75" y="540.2036">PhaseState</text><line style="stroke:#181818;stroke-width:0.3499999999999999;" x1="229.6" x2="287" y1="546.1632" y2="546.1632"/></g><!--class Application--><g id="elem_Application"><rect codeLine="21" fill="#F1F1F1" height="47.9801" id="Application" rx="1.75" ry="1.75" style="stroke:#181818;stroke-width:0.3499999999999999;" width="52.5" x="626.15" y="101.9558"/><text fill="#000000" font-family="sans-serif" font-size="8.4" font-style="italic" lengthAdjust="spacing" textLength="30.8" x="637" y="114.5202">&#171;Entity&#187;</text><text fill="#000000" font-family="sans-serif" font-size="8.4" font-style="italic" lengthAdjust="spacing" textLength="24.5" x="640.15" y="125.6929">&#171;root&#187;</text><text fill="#000000" font-family="sans-serif" font-size="9.8" lengthAdjust="spacing" textLength="48.3" x="628.25" y="138.3763">Application</text><line style="stroke:#181818;stroke-width:0.3499999999999999;" x1="626.85" x2="677.95" y1="144.3358" y2="144.3358"/></g><!--class Interview--><g id="elem_Interview"><rect codeLine="22" fill="#F1F1F1" height="36.8074" id="Interview" rx="1.75" ry="1.75" style="stroke:#181818;stroke-width:0.3499999999999999;" width="42.7" x="516.25" y="107.5558"/><text fill="#000000" font-family="sans-serif" font-size="8.4" font-style="italic" lengthAdjust="spacing" textLength="30.8" x="522.2" y="120.1202">&#171;Entity&#187;</text><text fill="#000000" font-family="sans-serif" font-size="9.8" lengthAdjust="spacing" textLength="38.5" x="518.35" y="132.8036">Interview</text><line style="stroke:#181818;stroke-width:0.3499999999999999;" x1="516.95" x2="558.25" y1="138.7632" y2="138.7632"/></g><!--class InterviewSchedule--><g id="elem_InterviewSchedule"><rect codeLine="23" fill="#F1F1F1" height="36.8074" id="InterviewSchedule" rx="1.75" ry="1.75" style="stroke:#181818;stroke-width:0.3499999999999999;" width="84" x="495.6" y="243.3558"/><text fill="#000000" font-family="sans-serif" font-size="8.4" font-style="italic" lengthAdjust="spacing" textLength="57.4" x="508.9" y="255.9202">&#171;ValueObject&#187;</text><text fill="#000000" font-family="sans-serif" font-size="9.8" lengthAdjust="spacing" textLength="79.8" x="497.7" y="268.6036">InterviewSchedule</text><line style="stroke:#181818;stroke-width:0.3499999999999999;" x1="496.3" x2="578.9" y1="274.5632" y2="274.5632"/></g><!--class InterviewTimeDate--><g id="elem_InterviewTimeDate"><rect codeLine="24" fill="#F1F1F1" height="36.8074" id="InterviewTimeDate" rx="1.75" ry="1.75" style="stroke:#181818;stroke-width:0.3499999999999999;" width="85.4" x="494.9" y="341.3558"/><text fill="#000000" font-family="sans-serif" font-size="8.4" font-style="italic" lengthAdjust="spacing" textLength="57.4" x="508.9" y="353.9202">&#171;ValueObject&#187;</text><text fill="#000000" font-family="sans-serif" font-size="9.8" lengthAdjust="spacing" textLength="81.2" x="497" y="366.6036">InterviewTimeDate</text><line style="stroke:#181818;stroke-width:0.3499999999999999;" x1="495.6" x2="579.6" y1="372.5632" y2="372.5632"/></g><!--class InterviewAnswersFile--><g id="elem_InterviewAnswersFile"><rect codeLine="25" fill="#F1F1F1" height="36.8074" id="InterviewAnswersFile" rx="1.75" ry="1.75" style="stroke:#181818;stroke-width:0.3499999999999999;" width="95.9" x="604.45" y="243.3558"/><text fill="#000000" font-family="sans-serif" font-size="8.4" font-style="italic" lengthAdjust="spacing" textLength="57.4" x="623.7" y="255.9202">&#171;ValueObject&#187;</text><text fill="#000000" font-family="sans-serif" font-size="9.8" lengthAdjust="spacing" textLength="91.7" x="606.55" y="268.6036">InterviewAnswersFile</text><line style="stroke:#181818;stroke-width:0.3499999999999999;" x1="605.15" x2="699.65" y1="274.5632" y2="274.5632"/></g><!--class ApplicationInfoFile--><g id="elem_ApplicationInfoFile"><rect codeLine="26" fill="#F1F1F1" height="36.8074" id="ApplicationInfoFile" rx="1.75" ry="1.75" style="stroke:#181818;stroke-width:0.3499999999999999;" width="84.7" x="724.85" y="243.3558"/><text fill="#000000" font-family="sans-serif" font-size="8.4" font-style="italic" lengthAdjust="spacing" textLength="57.4" x="738.5" y="255.9202">&#171;ValueObject&#187;</text><text fill="#000000" font-family="sans-serif" font-size="9.8" lengthAdjust="spacing" textLength="80.5" x="726.95" y="268.6036">ApplicationInfoFile</text><line style="stroke:#181818;stroke-width:0.3499999999999999;" x1="725.55" x2="808.85" y1="274.5632" y2="274.5632"/></g><!--class ScreeningResult--><g id="elem_ScreeningResult"><rect codeLine="27" fill="#F1F1F1" height="36.8074" id="ScreeningResult" rx="1.75" ry="1.75" style="stroke:#181818;stroke-width:0.3499999999999999;" width="77" x="861" y="341.3558"/><text fill="#000000" font-family="sans-serif" font-size="8.4" font-style="italic" lengthAdjust="spacing" textLength="57.4" x="870.8" y="353.9202">&#171;ValueObject&#187;</text><text fill="#000000" font-family="sans-serif" font-size="9.8" lengthAdjust="spacing" textLength="72.8" x="863.1" y="366.6036">ScreeningResult</text><line style="stroke:#181818;stroke-width:0.3499999999999999;" x1="861.7" x2="937.3" y1="372.5632" y2="372.5632"/></g><!--class ApplicationRequirementsFile--><g id="elem_ApplicationRequirementsFile"><rect codeLine="28" fill="#F1F1F1" height="36.8074" id="ApplicationRequirementsFile" rx="1.75" ry="1.75" style="stroke:#181818;stroke-width:0.3499999999999999;" width="130.2" x="834.4" y="243.3558"/><text fill="#000000" font-family="sans-serif" font-size="8.4" font-style="italic" lengthAdjust="spacing" textLength="57.4" x="870.8" y="255.9202">&#171;ValueObject&#187;</text><text fill="#000000" font-family="sans-serif" font-size="9.8" lengthAdjust="spacing" textLength="126" x="836.5" y="268.6036">ApplicationRequirementsFile</text><line style="stroke:#181818;stroke-width:0.3499999999999999;" x1="835.1" x2="963.9" y1="274.5632" y2="274.5632"/></g><!--class InterviewStatus--><g id="elem_InterviewStatus"><rect codeLine="29" fill="#F1F1F1" height="36.8074" id="InterviewStatus" rx="1.75" ry="1.75" style="stroke:#181818;stroke-width:0.3499999999999999;" width="70.7" x="400.05" y="243.3558"/><text fill="#000000" font-family="sans-serif" font-size="8.4" font-style="italic" lengthAdjust="spacing" textLength="57.4" x="406.7" y="255.9202">&#171;ValueObject&#187;</text><text fill="#000000" font-family="sans-serif" font-size="9.8" lengthAdjust="spacing" textLength="66.5" x="402.15" y="268.6036">InterviewStatus</text><line style="stroke:#181818;stroke-width:0.3499999999999999;" x1="400.75" x2="470.05" y1="274.5632" y2="274.5632"/></g><!--class Candidate--><g id="elem_Candidate"><rect codeLine="36" fill="#F1F1F1" height="47.9801" id="Candidate" rx="1.75" ry="1.75" style="stroke:#181818;stroke-width:0.3499999999999999;" width="49.7" x="1095.15" y="237.7558"/><text fill="#000000" font-family="sans-serif" font-size="8.4" font-style="italic" lengthAdjust="spacing" textLength="30.8" x="1104.6" y="250.3202">&#171;Entity&#187;</text><text fill="#000000" font-family="sans-serif" font-size="8.4" font-style="italic" lengthAdjust="spacing" textLength="24.5" x="1107.75" y="261.4929">&#171;root&#187;</text><text fill="#000000" font-family="sans-serif" font-size="9.8" lengthAdjust="spacing" textLength="45.5" x="1097.25" y="274.1763">Candidate</text><line style="stroke:#181818;stroke-width:0.3499999999999999;" x1="1095.85" x2="1144.15" y1="280.1358" y2="280.1358"/></g><!--class FirstName--><g id="elem_FirstName"><rect codeLine="38" fill="#F1F1F1" height="36.8074" id="FirstName" rx="1.75" ry="1.75" style="stroke:#181818;stroke-width:0.3499999999999999;" width="60.9" x="1004.15" y="341.3558"/><text fill="#000000" font-family="sans-serif" font-size="8.4" font-style="italic" lengthAdjust="spacing" textLength="59.5" x="1004.85" y="353.9202">&#171;Value Object&#187;</text><text fill="#000000" font-family="sans-serif" font-size="9.8" lengthAdjust="spacing" textLength="44.8" x="1012.2" y="366.6036">FirstName</text><line style="stroke:#181818;stroke-width:0.3499999999999999;" x1="1004.85" x2="1064.35" y1="372.5632" y2="372.5632"/></g><!--class LastName--><g id="elem_LastName"><rect codeLine="39" fill="#F1F1F1" height="36.8074" id="LastName" rx="1.75" ry="1.75" style="stroke:#181818;stroke-width:0.3499999999999999;" width="60.9" x="1089.55" y="341.3558"/><text fill="#000000" font-family="sans-serif" font-size="8.4" font-style="italic" lengthAdjust="spacing" textLength="59.5" x="1090.25" y="353.9202">&#171;Value Object&#187;</text><text fill="#000000" font-family="sans-serif" font-size="9.8" lengthAdjust="spacing" textLength="44.1" x="1097.95" y="366.6036">LastName</text><line style="stroke:#181818;stroke-width:0.3499999999999999;" x1="1090.25" x2="1149.75" y1="372.5632" y2="372.5632"/></g><!--class PhoneNumber--><g id="elem_PhoneNumber"><rect codeLine="41" fill="#F1F1F1" height="36.8074" id="PhoneNumber" rx="1.75" ry="1.75" style="stroke:#181818;stroke-width:0.3499999999999999;" width="67.2" x="1175.3" y="341.3558"/><text fill="#000000" font-family="sans-serif" font-size="8.4" font-style="italic" lengthAdjust="spacing" textLength="59.5" x="1179.15" y="353.9202">&#171;Value Object&#187;</text><text fill="#000000" font-family="sans-serif" font-size="9.8" lengthAdjust="spacing" textLength="63" x="1177.4" y="366.6036">PhoneNumber</text><line style="stroke:#181818;stroke-width:0.3499999999999999;" x1="1176" x2="1241.8" y1="372.5632" y2="372.5632"/></g><!--class Ranking--><g id="elem_Ranking"><rect codeLine="48" fill="#F1F1F1" height="47.9801" id="Ranking" rx="1.75" ry="1.75" style="stroke:#181818;stroke-width:0.3499999999999999;" width="40.6" x="76.3" y="101.9558"/><text fill="#000000" font-family="sans-serif" font-size="8.4" font-style="italic" lengthAdjust="spacing" textLength="30.8" x="81.2" y="114.5202">&#171;Entity&#187;</text><text fill="#000000" font-family="sans-serif" font-size="8.4" font-style="italic" lengthAdjust="spacing" textLength="24.5" x="84.35" y="125.6929">&#171;root&#187;</text><text fill="#000000" font-family="sans-serif" font-size="9.8" lengthAdjust="spacing" textLength="36.4" x="78.4" y="138.3763">Ranking</text><line style="stroke:#181818;stroke-width:0.3499999999999999;" x1="77" x2="116.2" y1="144.3358" y2="144.3358"/></g><!--class Order--><g id="elem_Order"><rect codeLine="49" fill="#F1F1F1" height="36.8074" id="Order" rx="1.75" ry="1.75" style="stroke:#181818;stroke-width:0.3499999999999999;" width="60.9" x="183.75" y="107.5558"/><text fill="#000000" font-family="sans-serif" font-size="8.4" font-style="italic" lengthAdjust="spacing" textLength="59.5" x="184.45" y="120.1202">&#171;Value Object&#187;</text><text fill="#000000" font-family="sans-serif" font-size="9.8" lengthAdjust="spacing" textLength="25.9" x="201.25" y="132.8036">Order</text><line style="stroke:#181818;stroke-width:0.3499999999999999;" x1="184.45" x2="243.95" y1="138.7632" y2="138.7632"/></g><!--class Rank--><g id="elem_Rank"><rect codeLine="50" fill="#F1F1F1" height="36.8074" id="Rank" rx="1.75" ry="1.75" style="stroke:#181818;stroke-width:0.3499999999999999;" width="60.9" x="299.25" y="107.5558"/><text fill="#000000" font-family="sans-serif" font-size="8.4" font-style="italic" lengthAdjust="spacing" textLength="59.5" x="299.95" y="120.1202">&#171;Value Object&#187;</text><text fill="#000000" font-family="sans-serif" font-size="9.8" lengthAdjust="spacing" textLength="23.1" x="318.15" y="132.8036">Rank</text><line style="stroke:#181818;stroke-width:0.3499999999999999;" x1="299.95" x2="359.45" y1="138.7632" y2="138.7632"/></g><!--class EMail--><g id="elem_EMail"><rect codeLine="44" fill="#F1F1F1" height="36.8074" id="EMail" rx="1.75" ry="1.75" style="stroke:#181818;stroke-width:0.3499999999999999;" width="60.9" x="1267.35" y="341.3558"/><text fill="#000000" font-family="sans-serif" font-size="8.4" font-style="italic" lengthAdjust="spacing" textLength="59.5" x="1268.05" y="353.9202">&#171;Value Object&#187;</text><text fill="#000000" font-family="sans-serif" font-size="9.8" lengthAdjust="spacing" textLength="23.8" x="1285.9" y="366.6036">EMail</text><line style="stroke:#181818;stroke-width:0.3499999999999999;" x1="1268.05" x2="1327.55" y1="372.5632" y2="372.5632"/></g><!--link JobOpening to JobReference--><g id="link_JobOpening_JobReference"><path codeLine="54" d="M168,286.2378 C168,303.2198 168,321.5598 168,337.0718 " fill="none" id="JobOpening-to-JobReference" style="stroke:#181818;stroke-width:0.6999999999999998;"/><polygon fill="#181818" points="168,341.2718,170.8,334.9718,168,337.7718,165.2,334.9718,168,341.2718" style="stroke:#181818;stroke-width:0.6999999999999998;"/><text fill="#000000" font-family="sans-serif" font-size="9.1" lengthAdjust="spacing" textLength="48.3" x="168.7" y="317.5756">identified by</text><text fill="#000000" font-family="sans-serif" font-size="9.1" lengthAdjust="spacing" textLength="15.4" x="151.3247" y="301.1164">0..1</text><text fill="#000000" font-family="sans-serif" font-size="9.1" lengthAdjust="spacing" textLength="4.9" x="162.5334" y="333.5639">1</text></g><!--link JobOpening to NumberOfVacancies--><g id="link_JobOpening_NumberOfVacancies"><path codeLine="55" d="M142.317,286.2378 C123.858,303.2198 99.358,325.7598 82.495,341.2718 " fill="none" id="JobOpening-NumberOfVacancies" style="stroke:#181818;stroke-width:0.6999999999999998;"/><text fill="#000000" font-family="sans-serif" font-size="9.1" lengthAdjust="spacing" textLength="33.6" x="119.7" y="317.5756">includes</text><text fill="#000000" font-family="sans-serif" font-size="9.1" lengthAdjust="spacing" textLength="4.9" x="132.7575" y="301.1164">1</text><text fill="#000000" font-family="sans-serif" font-size="9.1" lengthAdjust="spacing" textLength="4.9" x="81.5367" y="333.5639">1</text></g><!--link JobOpening to RecruitmentProcess--><g id="link_JobOpening_RecruitmentProcess"><path codeLine="56" d="M196.77,284.4808 C205.506,291.4528 214.984,299.3558 223.3,307.0558 C234.969,317.8568 244.404,327.7808 253.735,338.1128 " fill="none" id="JobOpening-to-RecruitmentProcess" style="stroke:#181818;stroke-width:0.6999999999999998;"/><polygon fill="#181818" points="256.55,341.2298,254.4055,334.6776,254.2042,338.6323,250.2495,338.4309,256.55,341.2298" style="stroke:#181818;stroke-width:0.6999999999999998;"/><text fill="#000000" font-family="sans-serif" font-size="9.1" lengthAdjust="spacing" textLength="29.4" x="237.3" y="317.5756">selects</text><text fill="#000000" font-family="sans-serif" font-size="9.1" lengthAdjust="spacing" textLength="3.5" x="202.2064" y="285.4086">*</text><text fill="#000000" font-family="sans-serif" font-size="9.1" lengthAdjust="spacing" textLength="15.4" x="235.7272" y="333.5122">0..1</text></g><!--link Application to JobOpening--><g id="link_Application_JobOpening"><path codeLine="59" d="M626.087,143.4588 C610.715,152.2438 590.583,162.1838 571.2,167.0558 C533.617,176.4988 434.875,164.9348 396.9,172.6558 C321.846,187.9158 243.103,223.5414 200.613,244.5204 " fill="none" id="Application-to-JobOpening" style="stroke:#181818;stroke-width:0.6999999999999998;"/><polygon fill="#181818" points="196.847,246.3798,203.7356,246.1013,199.9853,244.8303,201.2564,241.08,196.847,246.3798" style="stroke:#181818;stroke-width:0.6999999999999998;"/><text fill="#000000" font-family="sans-serif" font-size="9.1" lengthAdjust="spacing" textLength="52.5" x="397.6" y="183.1756">submitted for</text><text fill="#000000" font-family="sans-serif" font-size="9.1" lengthAdjust="spacing" textLength="3.5" x="617.0621" y="143.6751">*</text><text fill="#000000" font-family="sans-serif" font-size="9.1" lengthAdjust="spacing" textLength="4.9" x="202.2262" y="240.6534">1</text></g><!--link Application to Candidate--><g id="link_Application_Candidate"><path codeLine="60" d="M678.762,129.7948 C734.657,136.6198 868.721,155.6248 975.8,191.5558 C1019.424,206.1928 1063.2461,228.9651 1091.3651,244.6871 " fill="none" id="Application-to-Candidate" style="stroke:#181818;stroke-width:0.6999999999999998;"/><polygon fill="#181818" points="1095.031,246.7368,1090.8986,241.2183,1091.9761,245.0287,1088.1657,246.1062,1095.031,246.7368" style="stroke:#181818;stroke-width:0.6999999999999998;"/><text fill="#000000" font-family="sans-serif" font-size="9.1" lengthAdjust="spacing" textLength="52.5" x="951.3" y="183.1756">submitted by</text><text fill="#000000" font-family="sans-serif" font-size="9.1" lengthAdjust="spacing" textLength="3.5" x="684.2965" y="141.5638">*</text><text fill="#000000" font-family="sans-serif" font-size="9.1" lengthAdjust="spacing" textLength="4.9" x="1084.7329" y="240.5503">1</text></g><!--link Application to ApplicationInfoFile--><g id="link_Application_ApplicationInfoFile"><path codeLine="61" d="M675.192,150.3538 C686.665,162.4498 700.637,177.5488 712.6,191.5558 C727.167,208.6148 740.3449,225.5186 751.1529,239.7776 " fill="none" id="Application-to-ApplicationInfoFile" style="stroke:#181818;stroke-width:0.6999999999999998;"/><polygon fill="#181818" points="753.69,243.1248,752.1158,236.4127,751.5758,240.3355,747.653,239.7954,753.69,243.1248" style="stroke:#181818;stroke-width:0.6999999999999998;"/><text fill="#000000" font-family="sans-serif" font-size="9.1" lengthAdjust="spacing" textLength="61.6" x="707.7" y="183.1756">is described by</text><text fill="#000000" font-family="sans-serif" font-size="9.1" lengthAdjust="spacing" textLength="4.9" x="673.7883" y="165.4089">1</text><text fill="#000000" font-family="sans-serif" font-size="9.1" lengthAdjust="spacing" textLength="8.4" x="741.1946" y="235.3829">1*</text></g><!--link Application to ApplicationRequirementsFile--><g id="link_Application_ApplicationRequirementsFile"><path codeLine="62" d="M678.818,133.4488 C713.447,142.8988 775.236,162.3938 821.8,191.5558 C845.138,206.1718 865.2307,224.9681 880.0777,240.2841 " fill="none" id="Application-to-ApplicationRequirementsFile" style="stroke:#181818;stroke-width:0.6999999999999998;"/><polygon fill="#181818" points="883.001,243.2998,880.6265,236.8274,880.5649,240.7867,876.6056,240.7252,883.001,243.2998" style="stroke:#181818;stroke-width:0.6999999999999998;"/><text fill="#000000" font-family="sans-serif" font-size="9.1" lengthAdjust="spacing" textLength="26.6" x="809.9" y="183.1756">origins</text><text fill="#000000" font-family="sans-serif" font-size="9.1" lengthAdjust="spacing" textLength="4.9" x="684.321" y="131.684">1</text><text fill="#000000" font-family="sans-serif" font-size="9.1" lengthAdjust="spacing" textLength="15.4" x="862.005" y="235.5984">0..1</text></g><!--link ApplicationRequirementsFile to ScreeningResult--><g id="link_ApplicationRequirementsFile_ScreeningResult"><path codeLine="63" d="M899.5,280.5468 C899.5,297.7878 899.5,319.5088 899.5,336.8338 " fill="none" id="ApplicationRequirementsFile-to-ScreeningResult" style="stroke:#181818;stroke-width:0.6999999999999998;"/><polygon fill="#181818" points="899.5,341.0338,902.3,334.7338,899.5,337.5338,896.7,334.7338,899.5,341.0338" style="stroke:#181818;stroke-width:0.6999999999999998;"/><text fill="#000000" font-family="sans-serif" font-size="9.1" lengthAdjust="spacing" textLength="27.3" x="900.2" y="317.5756">results</text><text fill="#000000" font-family="sans-serif" font-size="9.1" lengthAdjust="spacing" textLength="4.9" x="894.0947" y="295.4897">1</text><text fill="#000000" font-family="sans-serif" font-size="9.1" lengthAdjust="spacing" textLength="15.4" x="882.4156" y="333.5781">0..1</text></g><!--link Interview to InterviewSchedule--><g id="link_Interview_InterviewSchedule"><path codeLine="66" d="M537.6,144.9288 C537.6,170.6538 537.6,213.2698 537.6,238.9528 " fill="none" id="Interview-to-InterviewSchedule" style="stroke:#181818;stroke-width:0.6999999999999998;"/><polygon fill="#181818" points="537.6,243.1528,540.4,236.8528,537.6,239.6528,534.8,236.8528,537.6,243.1528" style="stroke:#181818;stroke-width:0.6999999999999998;"/><text fill="#000000" font-family="sans-serif" font-size="9.1" lengthAdjust="spacing" textLength="61.6" x="538.3" y="183.1756">is scheduled to</text><text fill="#000000" font-family="sans-serif" font-size="9.1" lengthAdjust="spacing" textLength="4.9" x="532.1947" y="159.9092">1</text><text fill="#000000" font-family="sans-serif" font-size="9.1" lengthAdjust="spacing" textLength="15.4" x="520.4194" y="235.4174">0..1</text></g><!--link Interview to InterviewAnswersFile--><g id="link_Interview_InterviewAnswersFile"><path codeLine="67" d="M559.16,137.4948 C573.818,145.5938 592.9,157.8368 606.2,172.6558 C625.191,193.8238 637.3078,220.2898 644.6438,239.3998 " fill="none" id="Interview-to-InterviewAnswersFile" style="stroke:#181818;stroke-width:0.6999999999999998;"/><polygon fill="#181818" points="646.149,243.3208,646.5052,236.4358,644.8947,240.0533,641.2772,238.4427,646.149,243.3208" style="stroke:#181818;stroke-width:0.6999999999999998;"/><text fill="#000000" font-family="sans-serif" font-size="9.1" lengthAdjust="spacing" textLength="37.1" x="617.4" y="183.1756">results in</text><text fill="#000000" font-family="sans-serif" font-size="9.1" lengthAdjust="spacing" textLength="4.9" x="564.4122" y="136.6587">1</text><text fill="#000000" font-family="sans-serif" font-size="9.1" lengthAdjust="spacing" textLength="15.4" x="627.3484" y="235.3207">0..1</text></g><!--link Interview to InterviewStatus--><g id="link_Interview_InterviewStatus"><path codeLine="68" d="M516.04,135.3458 C499.625,142.8708 477.617,155.3518 464.1,172.6558 C447.783,193.5438 441.2548,219.8601 438.1958,239.0611 " fill="none" id="Interview-to-InterviewStatus" style="stroke:#181818;stroke-width:0.6999999999999998;"/><polygon fill="#181818" points="437.535,243.2088,441.2913,237.4278,438.0857,239.7524,435.7611,236.5467,437.535,243.2088" style="stroke:#181818;stroke-width:0.6999999999999998;"/><text fill="#000000" font-family="sans-serif" font-size="9.1" lengthAdjust="spacing" textLength="66.5" x="464.8" y="183.1756">presents itself in</text><text fill="#000000" font-family="sans-serif" font-size="9.1" lengthAdjust="spacing" textLength="4.9" x="505.8878" y="134.0396">1</text><text fill="#000000" font-family="sans-serif" font-size="9.1" lengthAdjust="spacing" textLength="4.9" x="432.5622" y="235.4864">1</text></g><!--link InterviewSchedule to InterviewTimeDate--><g id="link_InterviewSchedule_InterviewTimeDate"><path codeLine="70" d="M537.6,280.5468 C537.6,297.7878 537.6,319.5088 537.6,336.8338 " fill="none" id="InterviewSchedule-to-InterviewTimeDate" style="stroke:#181818;stroke-width:0.6999999999999998;"/><polygon fill="#181818" points="537.6,341.0338,540.4,334.7338,537.6,337.5338,534.8,334.7338,537.6,341.0338" style="stroke:#181818;stroke-width:0.6999999999999998;"/><text fill="#000000" font-family="sans-serif" font-size="9.1" lengthAdjust="spacing" textLength="39.9" x="538.3" y="317.5756">occurs on</text><text fill="#000000" font-family="sans-serif" font-size="9.1" lengthAdjust="spacing" textLength="4.9" x="532.1947" y="295.4897">1</text><text fill="#000000" font-family="sans-serif" font-size="9.1" lengthAdjust="spacing" textLength="4.9" x="532.1641" y="333.5781">1</text></g><!--link Candidate to EMail--><g id="link_Candidate_EMail"><path codeLine="73" d="M1144.913,276.1228 C1161.146,284.9288 1182.783,296.6678 1201.9,307.0558 C1223.712,318.9068 1244.6277,330.2765 1263.4507,340.5175 " fill="none" id="Candidate-to-EMail" style="stroke:#181818;stroke-width:0.6999999999999998;"/><polygon fill="#181818" points="1267.14,342.5248,1262.9442,337.0544,1264.0656,340.8521,1260.2679,341.9735,1267.14,342.5248" style="stroke:#181818;stroke-width:0.6999999999999998;"/><text fill="#000000" font-family="sans-serif" font-size="9.1" lengthAdjust="spacing" textLength="48.3" x="1225.7" y="317.5756">identified by</text><text fill="#000000" font-family="sans-serif" font-size="9.1" lengthAdjust="spacing" textLength="4.9" x="1150.5566" y="275.8017">1</text><text fill="#000000" font-family="sans-serif" font-size="9.1" lengthAdjust="spacing" textLength="4.9" x="1256.7562" y="336.6215">1</text></g><!--link Candidate to PhoneNumber--><g id="link_Candidate_PhoneNumber"><path codeLine="74" d="M1143.45,286.1328 C1149.981,292.8178 1157.037,300.1608 1163.4,307.0558 C1173.669,318.1788 1182.1181,327.803 1190.8261,337.939 " fill="none" id="Candidate-to-PhoneNumber" style="stroke:#181818;stroke-width:0.6999999999999998;"/><polygon fill="#181818" points="1193.563,341.1248,1191.5814,334.5215,1191.2822,338.47,1187.3337,338.1707,1193.563,341.1248" style="stroke:#181818;stroke-width:0.6999999999999998;"/><text fill="#000000" font-family="sans-serif" font-size="9.1" lengthAdjust="spacing" textLength="19.6" x="1176" y="317.5756">uses</text><text fill="#000000" font-family="sans-serif" font-size="9.1" lengthAdjust="spacing" textLength="4.9" x="1142.1594" y="301.1843">1</text><text fill="#000000" font-family="sans-serif" font-size="9.1" lengthAdjust="spacing" textLength="4.9" x="1184.5498" y="333.3829">1</text></g><!--link Candidate to FirstName--><g id="link_Candidate_FirstName"><path codeLine="75" d="M1096.144,286.1958 C1089.676,292.8248 1082.753,300.1188 1076.6,307.0558 C1066.8,318.1018 1058.9814,327.7108 1050.9734,337.9308 " fill="none" id="Candidate-to-FirstName" style="stroke:#181818;stroke-width:0.6999999999999998;"/><polygon fill="#181818" points="1048.383,341.2368,1054.4727,338.0047,1050.5417,338.4818,1050.0647,334.5508,1048.383,341.2368" style="stroke:#181818;stroke-width:0.6999999999999998;"/><text fill="#000000" font-family="sans-serif" font-size="9.1" lengthAdjust="spacing" textLength="36.4" x="1077.3" y="317.5756">called by</text><text fill="#000000" font-family="sans-serif" font-size="9.1" lengthAdjust="spacing" textLength="4.9" x="1086.8871" y="301.0675">1</text><text fill="#000000" font-family="sans-serif" font-size="9.1" lengthAdjust="spacing" textLength="4.9" x="1046.1038" y="333.5208">1</text></g><!--link Candidate to LastName--><g id="link_Candidate_LastName"><path codeLine="76" d="M1120,286.2378 C1120,303.2198 1120,321.5598 1120,337.0718 " fill="none" id="Candidate-to-LastName" style="stroke:#181818;stroke-width:0.6999999999999998;"/><polygon fill="#181818" points="1120,341.2718,1122.8,334.9718,1120,337.7718,1117.2,334.9718,1120,341.2718" style="stroke:#181818;stroke-width:0.6999999999999998;"/><text fill="#000000" font-family="sans-serif" font-size="9.1" lengthAdjust="spacing" textLength="36.4" x="1120.7" y="317.5756">called by</text><text fill="#000000" font-family="sans-serif" font-size="9.1" lengthAdjust="spacing" textLength="4.9" x="1114.6942" y="301.1164">1</text><text fill="#000000" font-family="sans-serif" font-size="9.1" lengthAdjust="spacing" textLength="4.9" x="1114.5334" y="333.5639">1</text></g><!--reverse link RecruitmentProcess to Phase--><g id="link_RecruitmentProcess_Phase"><path codeLine="78" d="M265.4504,386.635 C262.0134,399.69 259.518,409.1788 256.067,422.2828 " fill="none" id="RecruitmentProcess-backto-Phase" style="stroke:#181818;stroke-width:0.6999999999999998;"/><polygon fill="#181818" points="267.589,378.5118,263.812,381.8605,265.4504,386.635,269.2274,383.2862,267.589,378.5118" style="stroke:#181818;stroke-width:0.6999999999999998;"/></g><!--link Phase to PhaseName--><g id="link_Phase_PhaseName"><path codeLine="79" d="M236.229,459.7818 C222.852,475.7348 206.1115,495.7004 192.7415,511.6464 " fill="none" id="Phase-to-PhaseName" style="stroke:#181818;stroke-width:0.6999999999999998;"/><polygon fill="#181818" points="190.043,514.8648,196.2363,511.8361,192.2917,512.1828,191.9451,508.2382,190.043,514.8648" style="stroke:#181818;stroke-width:0.6999999999999998;"/><text fill="#000000" font-family="sans-serif" font-size="9.1" lengthAdjust="spacing" textLength="27.3" x="219.1" y="491.1756">named</text><text fill="#000000" font-family="sans-serif" font-size="9.1" lengthAdjust="spacing" textLength="4.9" x="227.7153" y="474.7319">1</text><text fill="#000000" font-family="sans-serif" font-size="9.1" lengthAdjust="spacing" textLength="4.9" x="188.0551" y="507.1553">1</text></g><!--link Phase to PhaseState--><g id="link_Phase_PhaseState"><path codeLine="80" d="M252.686,459.7818 C253.911,475.7348 255.3743,494.7311 256.5993,510.6771 " fill="none" id="Phase-to-PhaseState" style="stroke:#181818;stroke-width:0.6999999999999998;"/><polygon fill="#181818" points="256.921,514.8648,259.2302,508.3688,256.6529,511.375,253.6467,508.7977,256.921,514.8648" style="stroke:#181818;stroke-width:0.6999999999999998;"/><text fill="#000000" font-family="sans-serif" font-size="9.1" lengthAdjust="spacing" textLength="66.5" x="256.2" y="491.1756">presents itself in</text><text fill="#000000" font-family="sans-serif" font-size="9.1" lengthAdjust="spacing" textLength="4.9" x="247.5665" y="474.7319">1</text><text fill="#000000" font-family="sans-serif" font-size="9.1" lengthAdjust="spacing" textLength="4.9" x="251.1355" y="507.1553">1</text></g><!--link Ranking to JobOpening--><g id="link_Ranking_JobOpening"><path codeLine="82" d="M109.2,150.5218 C122.255,175.0918 140.5494,209.5328 153.5554,234.0118 " fill="none" id="Ranking-to-JobOpening" style="stroke:#181818;stroke-width:0.6999999999999998;"/><polygon fill="#181818" points="155.526,237.7208,155.0427,230.8435,153.8838,234.6299,150.0974,233.471,155.526,237.7208" style="stroke:#181818;stroke-width:0.6999999999999998;"/><text fill="#000000" font-family="sans-serif" font-size="9.1" lengthAdjust="spacing" textLength="32.2" x="126.7" y="183.1756">is about</text><text fill="#000000" font-family="sans-serif" font-size="9.1" lengthAdjust="spacing" textLength="4.9" x="105.9811" y="165.4143">1</text><text fill="#000000" font-family="sans-serif" font-size="9.1" lengthAdjust="spacing" textLength="4.9" x="147.7811" y="229.946">1</text></g><!--link Ranking to Order--><g id="link_Ranking_Order"><path codeLine="83" d="M117.082,126.1058 C135.443,126.1058 158.431,126.1058 179.375,126.1058 " fill="none" id="Ranking-to-Order" style="stroke:#181818;stroke-width:0.6999999999999998;"/><polygon fill="#181818" points="183.575,126.1058,177.275,123.3058,180.075,126.1058,177.275,128.9058,183.575,126.1058" style="stroke:#181818;stroke-width:0.6999999999999998;"/><text fill="#000000" font-family="sans-serif" font-size="9.1" lengthAdjust="spacing" textLength="41.3" x="129.675" y="121.2256">defined by</text><text fill="#000000" font-family="sans-serif" font-size="9.1" lengthAdjust="spacing" textLength="4.9" x="122.385" y="122.7102">1</text><text fill="#000000" font-family="sans-serif" font-size="9.1" lengthAdjust="spacing" textLength="11.2" x="167.0545" y="123.1881">1.*</text></g><!--link Order to Rank--><g id="link_Order_Rank"><path codeLine="84" d="M244.846,126.1058 C261.625,126.1058 278.145,126.1058 294.91,126.1058 " fill="none" id="Order-to-Rank" style="stroke:#181818;stroke-width:0.6999999999999998;"/><polygon fill="#181818" points="299.11,126.1058,292.81,123.3058,295.61,126.1058,292.81,128.9058,299.11,126.1058" style="stroke:#181818;stroke-width:0.6999999999999998;"/><text fill="#000000" font-family="sans-serif" font-size="9.1" lengthAdjust="spacing" textLength="28.7" x="257.6" y="121.2256">defined</text><text fill="#000000" font-family="sans-serif" font-size="9.1" lengthAdjust="spacing" textLength="4.9" x="250.3275" y="123.0812">1</text><text fill="#000000" font-family="sans-serif" font-size="9.1" lengthAdjust="spacing" textLength="11.2" x="282.3684" y="123.1525">1.*</text></g><!--link Order to Application--><g id="link_Order_Application"><path codeLine="85" d="M226.975,107.3528 C239.855,90.2658 261.443,66.1648 287,55.7558 C345.492,31.9348 512.092,33.5168 571.2,55.7558 C595.812,65.0168 615.126,82.3023 630.043,98.7663 " fill="none" id="Order-to-Application" style="stroke:#181818;stroke-width:0.6999999999999998;"/><polygon fill="#181818" points="632.863,101.8788,630.708,95.33,630.513,99.285,626.558,99.0901,632.863,101.8788" style="stroke:#181818;stroke-width:0.6999999999999998;"/><text fill="#000000" font-family="sans-serif" font-size="9.1" lengthAdjust="spacing" textLength="28.7" x="421.05" y="47.3756">defined</text><text fill="#000000" font-family="sans-serif" font-size="9.1" lengthAdjust="spacing" textLength="4.9" x="224.4627" y="99.6174">1</text><text fill="#000000" font-family="sans-serif" font-size="9.1" lengthAdjust="spacing" textLength="4.9" x="623.7717" y="94.096">1</text></g><!--SRC=[ZLPDRvmm4BtpAqPxYHGfKLQzeMYbg4caL4qsscrxwiMOWNLZR6gRHb6K_zu15jQ0eJt1Cc_6RpxUUC_iYr0bCwm0AHIwjn916tVGqPd4p87JO4H-S90AWzm9hQA3I16uC5nY-ruWuLCREU4amgqkc53mg5EKS07Vz-khzQSeAXb_OJd25vriIrH2vJTvRZ1d3k4zYhXardf6kBw-KnJmRRE1duf-6QtTPlCUVHoXJrMHeDbcFnXdYWkqXFd1P8NRv1SHtMnE8NUOeK75iOD0Xu7tBjmEkQc4Ar2vPwCvMkinw57F1sPnrl342fnXqTZthavs3FWurUQcBANWhAvoe3YUTQuw7Pq7vT3y4VWQeDhRzlo0QILnH6WA_2OAl2KguTHws8sohsZilP1pLV0oU52PNa3kkS5c3dPeA-d-7M-7lokQqBf_ImnEoLClgkdCrDtes_6PgLIab7YW6RrjlXL7vBqmrlcZ0IDENzcSlHyUhR2TzmccFgThsDqZ4pA8w5FQCVNYPtCSVlgweBak_jQa0GPUZAcjFjiJzUhgydAzWekB3QpeET1c3BHBwFXCO0h9sy2jyMaUKzcJd-AoIj4ENCwFnxGd1kGTWqL9B2rHzANLUxO4ku04hv92E4ViCcrcNKw3uNjGFWE7lWZa6L859MM1Kk9690lkRN9BCeXfcujSA1ijeKO1n-gBmJGlTQbw1OsT9dkbJS8UVwLqbVo7ixz4-cEfmo7NmQ6jdcE0afpgn40uQd1M-qPJRi4WtQAhgyPvPIpGTHT5fvRwNgtQnbCRnleAZg6oDAjXu6bPnC2Pb4j1-xtXGwF0f9-JTfeBA6hlho6pxkAAGT4ZdSEqbrSSB6-tFrRh6UdG7B14Lsw8h86N981shyGqxndz1MdIQ3yDKCs2wK5Zn4057kml]--></g></svg>