<?xml version="1.0" encoding="us-ascii" standalone="no"?><svg xmlns="http://www.w3.org/2000/svg" xmlns:xlink="http://www.w3.org/1999/xlink" contentStyleType="text/css" height="447px" preserveAspectRatio="none" style="width:419px;height:447px;background:#FFFFFF;" version="1.1" viewBox="0 0 419 447" width="419px" zoomAndPan="magnify"><defs/><g><text fill="#000000" font-family="sans-serif" font-size="14" font-weight="bold" lengthAdjust="spacing" textLength="296" x="63.25" y="30.1074">System Sequence Diagram (SSD) - US 1013</text><rect fill="#FFFFFF" height="222.0371" style="stroke:#181818;stroke-width:1.0;" width="10" x="78.5" y="133.2422"/><rect fill="#FFFFFF" height="31.291" style="stroke:#181818;stroke-width:1.0;" width="10" x="366.5" y="156.5332"/><rect fill="#FFFFFF" height="57.582" style="stroke:#181818;stroke-width:1.0;" width="10" x="366.5" y="219.1152"/><rect fill="#FFFFFF" height="38.291" style="stroke:#181818;stroke-width:1.0;" width="10" x="366.5" y="307.9883"/><rect fill="none" height="81.873" style="stroke:#000000;stroke-width:1.5;" width="403.5" x="10" y="234.1152"/><line style="stroke:#181818;stroke-width:0.5;stroke-dasharray:5.0,5.0;" x1="83" x2="83" y1="123.2422" y2="364.2793"/><line style="stroke:#181818;stroke-width:0.5;stroke-dasharray:5.0,5.0;" x1="371.5" x2="371.5" y1="123.2422" y2="364.2793"/><text fill="#000000" font-family="sans-serif" font-size="14" lengthAdjust="spacing" textLength="121" x="20" y="119.7285">Customer Manager</text><ellipse cx="83.5" cy="53.1211" fill="#E3E3E3" rx="8" ry="8" style="stroke:#181818;stroke-width:0.5;"/><path d="M83.5,61.1211 L83.5,88.1211 M70.5,69.1211 L96.5,69.1211 M83.5,88.1211 L70.5,103.1211 M83.5,88.1211 L96.5,103.1211 " fill="none" style="stroke:#181818;stroke-width:0.5;"/><text fill="#000000" font-family="sans-serif" font-size="14" lengthAdjust="spacing" textLength="121" x="20" y="378.3867">Customer Manager</text><ellipse cx="83.5" cy="390.4004" fill="#E3E3E3" rx="8" ry="8" style="stroke:#181818;stroke-width:0.5;"/><path d="M83.5,398.4004 L83.5,425.4004 M70.5,406.4004 L96.5,406.4004 M83.5,425.4004 L70.5,440.4004 M83.5,425.4004 L96.5,440.4004 " fill="none" style="stroke:#181818;stroke-width:0.5;"/><rect fill="#E3E3E3" height="32.6211" rx="2.5" ry="2.5" style="stroke:#181818;stroke-width:0.5;" width="64" x="339.5" y="89.6211"/><text fill="#000000" font-family="sans-serif" font-size="14" lengthAdjust="spacing" textLength="50" x="346.5" y="111.7285">:System</text><rect fill="#E3E3E3" height="32.6211" rx="2.5" ry="2.5" style="stroke:#181818;stroke-width:0.5;" width="64" x="339.5" y="363.2793"/><text fill="#000000" font-family="sans-serif" font-size="14" lengthAdjust="spacing" textLength="50" x="346.5" y="385.3867">:System</text><rect fill="#FFFFFF" height="222.0371" style="stroke:#181818;stroke-width:1.0;" width="10" x="78.5" y="133.2422"/><rect fill="#FFFFFF" height="31.291" style="stroke:#181818;stroke-width:1.0;" width="10" x="366.5" y="156.5332"/><rect fill="#FFFFFF" height="57.582" style="stroke:#181818;stroke-width:1.0;" width="10" x="366.5" y="219.1152"/><rect fill="#FFFFFF" height="38.291" style="stroke:#181818;stroke-width:1.0;" width="10" x="366.5" y="307.9883"/><polygon fill="#181818" points="354.5,152.5332,364.5,156.5332,354.5,160.5332,358.5,156.5332" style="stroke:#181818;stroke-width:1.0;"/><line style="stroke:#181818;stroke-width:1.0;" x1="88.5" x2="360.5" y1="156.5332" y2="156.5332"/><text fill="#000000" font-family="sans-serif" font-size="13" font-weight="bold" lengthAdjust="spacing" textLength="7" x="95.5" y="151.2705">1</text><text fill="#000000" font-family="sans-serif" font-size="13" lengthAdjust="spacing" textLength="148" x="106.5" y="151.2705">Asks to Rank Candidates</text><polygon fill="#181818" points="99.5,183.8242,89.5,187.8242,99.5,191.8242,95.5,187.8242" style="stroke:#181818;stroke-width:1.0;"/><line style="stroke:#181818;stroke-width:1.0;stroke-dasharray:2.0,2.0;" x1="93.5" x2="370.5" y1="187.8242" y2="187.8242"/><text fill="#000000" font-family="sans-serif" font-size="13" font-weight="bold" lengthAdjust="spacing" textLength="7" x="105.5" y="182.5615">2</text><text fill="#000000" font-family="sans-serif" font-size="13" lengthAdjust="spacing" textLength="230" x="116.5" y="182.5615">Lists job Openings with Analysis Phase</text><polygon fill="#181818" points="354.5,215.1152,364.5,219.1152,354.5,223.1152,358.5,219.1152" style="stroke:#181818;stroke-width:1.0;"/><line style="stroke:#181818;stroke-width:1.0;" x1="88.5" x2="360.5" y1="219.1152" y2="219.1152"/><text fill="#000000" font-family="sans-serif" font-size="13" font-weight="bold" lengthAdjust="spacing" textLength="7" x="95.5" y="213.8525">3</text><text fill="#000000" font-family="sans-serif" font-size="13" lengthAdjust="spacing" textLength="120" x="106.5" y="213.8525">Selects Job Opening</text><path d="M10,234.1152 L83,234.1152 L83,243.4063 L73,253.4063 L10,253.4063 L10,234.1152 " fill="#EEEEEE" style="stroke:#000000;stroke-width:1.5;"/><rect fill="none" height="81.873" style="stroke:#000000;stroke-width:1.5;" width="403.5" x="10" y="234.1152"/><text fill="#000000" font-family="sans-serif" font-size="13" font-weight="bold" lengthAdjust="spacing" textLength="28" x="25" y="249.1436">loop</text><text fill="#000000" font-family="sans-serif" font-size="11" font-weight="bold" lengthAdjust="spacing" textLength="224" x="98" y="247.9854">[for each Application of the Job Opening]</text><polygon fill="#181818" points="99.5,272.6973,89.5,276.6973,99.5,280.6973,95.5,276.6973" style="stroke:#181818;stroke-width:1.0;"/><line style="stroke:#181818;stroke-width:1.0;stroke-dasharray:2.0,2.0;" x1="93.5" x2="370.5" y1="276.6973" y2="276.6973"/><text fill="#000000" font-family="sans-serif" font-size="13" font-weight="bold" lengthAdjust="spacing" textLength="7" x="105.5" y="271.4346">4</text><text fill="#000000" font-family="sans-serif" font-size="13" lengthAdjust="spacing" textLength="187" x="116.5" y="271.4346">Lists Application and asks Rank</text><polygon fill="#181818" points="354.5,303.9883,364.5,307.9883,354.5,311.9883,358.5,307.9883" style="stroke:#181818;stroke-width:1.0;"/><line style="stroke:#181818;stroke-width:1.0;" x1="88.5" x2="360.5" y1="307.9883" y2="307.9883"/><text fill="#000000" font-family="sans-serif" font-size="13" font-weight="bold" lengthAdjust="spacing" textLength="7" x="95.5" y="302.7256">5</text><text fill="#000000" font-family="sans-serif" font-size="13" lengthAdjust="spacing" textLength="248" x="106.5" y="302.7256">Types Rank for the Candidate's Application</text><polygon fill="#181818" points="99.5,342.2793,89.5,346.2793,99.5,350.2793,95.5,346.2793" style="stroke:#181818;stroke-width:1.0;"/><line style="stroke:#181818;stroke-width:1.0;stroke-dasharray:2.0,2.0;" x1="93.5" x2="370.5" y1="346.2793" y2="346.2793"/><text fill="#000000" font-family="sans-serif" font-size="13" font-weight="bold" lengthAdjust="spacing" textLength="7" x="105.5" y="341.0166">6</text><text fill="#000000" font-family="sans-serif" font-size="13" lengthAdjust="spacing" textLength="151" x="116.5" y="341.0166">Shows operation Success</text><!--SRC=[bP31JiCm38RlVGfh5-0mYOdR3aZJTa8W464FuALU6zec8NQP-lQuBHi3DYHoikBVdt__N3aVCM43JV31bYaq199QolZGYMWhBCX8LnCaieA-g8y5N68UTiuNiCMQASl4YKfDnq8D67fhoLk2bSEYbryQixg2AQmDpAvdDrc6hGJVDXjAMbi92IRBbaMj97X0hxlJ191XpQhGbUAiY-W59lDnnz0Tou7Wtb5eb6UWhwzWUlifcSE2AmO9y8o-WYNwtEKwm8EsVmV4djb_ZlLKCGDk3lUEXU4rRE0najVp6NPEIbXuh3js34ybQXfxQ4udiJ-z6QerOeQxB-vvNtK84ROQcB9rSOorioWkU0XRa99-KSuSSJofSMYS6b2Vpd_TltIHnid1Lc_XaE_5jprdZoAVdxPgoh1Z297IQDIqrXBpNnO_0000]--></g></svg>