<?xml version="1.0" encoding="us-ascii" standalone="no"?><svg xmlns="http://www.w3.org/2000/svg" xmlns:xlink="http://www.w3.org/1999/xlink" contentStyleType="text/css" height="344.8px" preserveAspectRatio="none" style="width:292px;height:344px;background:#FFFFFF;" version="1.1" viewBox="0 0 292 344" width="292px" zoomAndPan="magnify"><defs/><g><text fill="#000000" font-family="sans-serif" font-size="11.2" font-weight="bold" lengthAdjust="spacing" textLength="236.8" x="27" y="24.0859">System Sequence Diagram (SSD) - US 1020</text><rect fill="#FFFFFF" height="164.8297" style="stroke:#181818;stroke-width:0.8000000000000002;" width="8" x="50.8" y="106.5938"/><rect fill="#FFFFFF" height="25.0328" style="stroke:#181818;stroke-width:0.8000000000000002;" width="8" x="258" y="125.2266"/><rect fill="#FFFFFF" height="38.8656" style="stroke:#181818;stroke-width:0.8000000000000002;" width="8" x="258" y="175.2922"/><rect fill="#FFFFFF" height="25.0328" style="stroke:#181818;stroke-width:0.8000000000000002;" width="8" x="258" y="239.1906"/><line style="stroke:#181818;stroke-width:0.4000000000000001;stroke-dasharray:5.0,5.0;" x1="54.4" x2="54.4" y1="98.5938" y2="278.6234"/><line style="stroke:#181818;stroke-width:0.4000000000000001;stroke-dasharray:5.0,5.0;" x1="262" x2="262" y1="98.5938" y2="278.6234"/><text fill="#000000" font-family="sans-serif" font-size="11.2" lengthAdjust="spacing" textLength="96.8" x="4" y="95.7828">Customer Manager</text><ellipse cx="54.8" cy="42.4969" fill="#E3E3E3" rx="6.4" ry="6.4" style="stroke:#181818;stroke-width:0.4000000000000001;"/><path d="M54.8,48.8969 L54.8,70.4969 M44.4,55.2969 L65.2,55.2969 M54.8,70.4969 L44.4,82.4969 M54.8,70.4969 L65.2,82.4969 " fill="none" style="stroke:#181818;stroke-width:0.4000000000000001;"/><text fill="#000000" font-family="sans-serif" font-size="11.2" lengthAdjust="spacing" textLength="96.8" x="4" y="289.9094">Customer Manager</text><ellipse cx="54.8" cy="299.5203" fill="#E3E3E3" rx="6.4" ry="6.4" style="stroke:#181818;stroke-width:0.4000000000000001;"/><path d="M54.8,305.9203 L54.8,327.5203 M44.4,312.3203 L65.2,312.3203 M54.8,327.5203 L44.4,339.5203 M54.8,327.5203 L65.2,339.5203 " fill="none" style="stroke:#181818;stroke-width:0.4000000000000001;"/><rect fill="#E3E3E3" height="26.0969" rx="2" ry="2" style="stroke:#181818;stroke-width:0.4000000000000001;" width="51.2" x="236.4" y="71.6969"/><text fill="#000000" font-family="sans-serif" font-size="11.2" lengthAdjust="spacing" textLength="40" x="242" y="89.3828">:System</text><rect fill="#E3E3E3" height="26.0969" rx="2" ry="2" style="stroke:#181818;stroke-width:0.4000000000000001;" width="51.2" x="236.4" y="277.8234"/><text fill="#000000" font-family="sans-serif" font-size="11.2" lengthAdjust="spacing" textLength="40" x="242" y="295.5094">:System</text><rect fill="#FFFFFF" height="164.8297" style="stroke:#181818;stroke-width:0.8000000000000002;" width="8" x="50.8" y="106.5938"/><rect fill="#FFFFFF" height="25.0328" style="stroke:#181818;stroke-width:0.8000000000000002;" width="8" x="258" y="125.2266"/><rect fill="#FFFFFF" height="38.8656" style="stroke:#181818;stroke-width:0.8000000000000002;" width="8" x="258" y="175.2922"/><rect fill="#FFFFFF" height="25.0328" style="stroke:#181818;stroke-width:0.8000000000000002;" width="8" x="258" y="239.1906"/><polygon fill="#181818" points="248.4,122.0266,256.4,125.2266,248.4,128.4266,251.6,125.2266" style="stroke:#181818;stroke-width:0.8000000000000002;"/><line style="stroke:#181818;stroke-width:0.8000000000000002;" x1="58.8" x2="253.2" y1="125.2266" y2="125.2266"/><text fill="#000000" font-family="sans-serif" font-size="10.4" font-weight="bold" lengthAdjust="spacing" textLength="5.6" x="64.4" y="121.0164">1</text><text fill="#000000" font-family="sans-serif" font-size="10.4" lengthAdjust="spacing" textLength="175.2" x="73.2" y="121.0164">Asks notify Customer and Candidates</text><polygon fill="#181818" points="67.6,147.0594,59.6,150.2594,67.6,153.4594,64.4,150.2594" style="stroke:#181818;stroke-width:0.8000000000000002;"/><line style="stroke:#181818;stroke-width:0.8000000000000002;stroke-dasharray:2.0,2.0;" x1="62.8" x2="261.2" y1="150.2594" y2="150.2594"/><text fill="#000000" font-family="sans-serif" font-size="10.4" font-weight="bold" lengthAdjust="spacing" textLength="5.6" x="72.4" y="146.0492">2</text><text fill="#000000" font-family="sans-serif" font-size="10.4" lengthAdjust="spacing" textLength="88.8" x="81.2" y="146.0492">Lists Job Openings</text><polygon fill="#181818" points="248.4,172.0922,256.4,175.2922,248.4,178.4922,251.6,175.2922" style="stroke:#181818;stroke-width:0.8000000000000002;"/><line style="stroke:#181818;stroke-width:0.8000000000000002;" x1="58.8" x2="253.2" y1="175.2922" y2="175.2922"/><text fill="#000000" font-family="sans-serif" font-size="10.4" font-weight="bold" lengthAdjust="spacing" textLength="5.6" x="64.4" y="171.082">3</text><text fill="#000000" font-family="sans-serif" font-size="10.4" lengthAdjust="spacing" textLength="104.8" x="73.2" y="171.082">Selects a Job Opening</text><polygon fill="#181818" points="67.6,210.9578,59.6,214.1578,67.6,217.3578,64.4,214.1578" style="stroke:#181818;stroke-width:0.8000000000000002;"/><line style="stroke:#181818;stroke-width:0.8000000000000002;stroke-dasharray:2.0,2.0;" x1="62.8" x2="261.2" y1="214.1578" y2="214.1578"/><text fill="#000000" font-family="sans-serif" font-size="10.4" font-weight="bold" lengthAdjust="spacing" textLength="5.6" x="72.4" y="203.0313">4</text><text fill="#000000" font-family="sans-serif" font-size="10.4" lengthAdjust="spacing" textLength="103.2" x="81.2" y="196.1148">Shows Users to Notify</text><text fill="#000000" font-family="sans-serif" font-size="10.4" lengthAdjust="spacing" textLength="91.2" x="84.4" y="209.9477">and asks to confirm</text><polygon fill="#181818" points="248.4,235.9906,256.4,239.1906,248.4,242.3906,251.6,239.1906" style="stroke:#181818;stroke-width:0.8000000000000002;"/><line style="stroke:#181818;stroke-width:0.8000000000000002;" x1="58.8" x2="253.2" y1="239.1906" y2="239.1906"/><text fill="#000000" font-family="sans-serif" font-size="10.4" font-weight="bold" lengthAdjust="spacing" textLength="5.6" x="64.4" y="234.9805">5</text><text fill="#000000" font-family="sans-serif" font-size="10.4" lengthAdjust="spacing" textLength="96" x="73.2" y="234.9805">Types desired option</text><polygon fill="#181818" points="67.6,261.0234,59.6,264.2234,67.6,267.4234,64.4,264.2234" style="stroke:#181818;stroke-width:0.8000000000000002;"/><line style="stroke:#181818;stroke-width:0.8000000000000002;stroke-dasharray:2.0,2.0;" x1="62.8" x2="261.2" y1="264.2234" y2="264.2234"/><text fill="#000000" font-family="sans-serif" font-size="10.4" font-weight="bold" lengthAdjust="spacing" textLength="5.6" x="72.4" y="260.0133">6</text><text fill="#000000" font-family="sans-serif" font-size="10.4" lengthAdjust="spacing" textLength="123.2" x="81.2" y="260.0133">Shows Operation Success</text><!--SRC=[bP0zJyD038Rt_0gh4moL2cC69DHEY8_XwCRYNjpqbCGNpWvL_ZrE0g52HQWtd2pxzUFNbYfmYmaRQ297VqYn8T3KKIPpfKLVOKbE-veWaLVaiZuLo06BU0nSmXvheIpJe2PrlIWruEYz8_O4cu3b8BzoRdCDIzWwk5dThh8CEutSDJjA5dkD2HRhJjIi97X2jjbf0IYm5LFOI0q-jCWAYtoQCLQdS2I43rIQv1dO6o9Otdr9ShYNIe2ZXdqFyoJa0jRsXSAQPUmRtepxvW_9ALuQSaJdy1X41HxY3bvQOZl53w2WiuZVdXpLTbe1FANywUAi2NU8n-bA0XhXULpmZSVDS5ZPaZxoFgHc1b_WyBLlIKmi8L41iTKG-S8pJGvjkOH3DxZEUnBvnyqd]--></g></svg>