<?xml version="1.0" encoding="us-ascii" standalone="no"?><svg xmlns="http://www.w3.org/2000/svg" xmlns:xlink="http://www.w3.org/1999/xlink" contentStyleType="text/css" height="883px" preserveAspectRatio="none" style="width:1155px;height:883px;background:#FFFFFF;" version="1.1" viewBox="0 0 1155 883" width="1155px" zoomAndPan="magnify"><defs/><g><text fill="#000000" font-family="sans-serif" font-size="14" font-weight="bold" lengthAdjust="spacing" textLength="164" x="488.5" y="25.1074">Domain Model - US1020</text><!--cluster JobOpeningAggregate--><g id="cluster_JobOpeningAggregate"><path d="M8.5,275.3838 L168.5,275.3838 A3.75,3.75 0 0 1 171,277.8838 L178,300.0049 L469.5,300.0049 A2.5,2.5 0 0 1 472,302.5049 L472,873.8838 A2.5,2.5 0 0 1 469.5,876.3838 L8.5,876.3838 A2.5,2.5 0 0 1 6,873.8838 L6,277.8838 A2.5,2.5 0 0 1 8.5,275.3838 " fill="none" style="stroke:#000000;stroke-width:1.5;"/><line style="stroke:#000000;stroke-width:1.5;" x1="6" x2="178" y1="300.0049" y2="300.0049"/><text fill="#000000" font-family="sans-serif" font-size="14" font-weight="bold" lengthAdjust="spacing" textLength="159" x="10" y="292.4912">JobOpeningAggregate</text></g><!--cluster ApplicationAggregate--><g id="cluster_ApplicationAggregate"><path d="M602.5,81.3838 L754.5,81.3838 A3.75,3.75 0 0 1 757,83.8838 L764,106.0049 L872.5,106.0049 A2.5,2.5 0 0 1 875,108.5049 L875,407.8838 A2.5,2.5 0 0 1 872.5,410.3838 L602.5,410.3838 A2.5,2.5 0 0 1 600,407.8838 L600,83.8838 A2.5,2.5 0 0 1 602.5,81.3838 " fill="none" style="stroke:#000000;stroke-width:1.5;"/><line style="stroke:#000000;stroke-width:1.5;" x1="600" x2="764" y1="106.0049" y2="106.0049"/><text fill="#000000" font-family="sans-serif" font-size="14" font-weight="bold" lengthAdjust="spacing" textLength="151" x="604" y="98.4912">ApplicationAggregate</text></g><!--cluster CustomerAggregate--><g id="cluster_CustomerAggregate"><path d="M498.5,467.3838 L640.5,467.3838 A3.75,3.75 0 0 1 643,469.8838 L650,492.0049 L650.5,492.0049 A2.5,2.5 0 0 1 653,494.5049 L653,739.8838 A2.5,2.5 0 0 1 650.5,742.3838 L498.5,742.3838 A2.5,2.5 0 0 1 496,739.8838 L496,469.8838 A2.5,2.5 0 0 1 498.5,467.3838 " fill="none" style="stroke:#000000;stroke-width:1.5;"/><line style="stroke:#000000;stroke-width:1.5;" x1="496" x2="650" y1="492.0049" y2="492.0049"/><text fill="#000000" font-family="sans-serif" font-size="14" font-weight="bold" lengthAdjust="spacing" textLength="141" x="500" y="484.4912">CustomerAggregate</text></g><!--cluster CandidateAggregate--><g id="cluster_CandidateAggregate"><path d="M777.5,467.3838 L922.5,467.3838 A3.75,3.75 0 0 1 925,469.8838 L932,492.0049 L1145.5,492.0049 A2.5,2.5 0 0 1 1148,494.5049 L1148,739.8838 A2.5,2.5 0 0 1 1145.5,742.3838 L777.5,742.3838 A2.5,2.5 0 0 1 775,739.8838 L775,469.8838 A2.5,2.5 0 0 1 777.5,467.3838 " fill="none" style="stroke:#000000;stroke-width:1.5;"/><line style="stroke:#000000;stroke-width:1.5;" x1="775" x2="932" y1="492.0049" y2="492.0049"/><text fill="#000000" font-family="sans-serif" font-size="14" font-weight="bold" lengthAdjust="spacing" textLength="144" x="779" y="484.4912">CandidateAggregate</text></g><!--cluster RankAggregate--><g id="cluster_RankAggregate"><path d="M140.5,81.3838 L249.5,81.3838 A3.75,3.75 0 0 1 252,83.8838 L259,106.0049 L573.5,106.0049 A2.5,2.5 0 0 1 576,108.5049 L576,221.8838 A2.5,2.5 0 0 1 573.5,224.3838 L140.5,224.3838 A2.5,2.5 0 0 1 138,221.8838 L138,83.8838 A2.5,2.5 0 0 1 140.5,81.3838 " fill="none" style="stroke:#000000;stroke-width:1.5;"/><line style="stroke:#000000;stroke-width:1.5;" x1="138" x2="259" y1="106.0049" y2="106.0049"/><text fill="#000000" font-family="sans-serif" font-size="14" font-weight="bold" lengthAdjust="spacing" textLength="108" x="142" y="98.4912">RankAggregate</text></g><!--class JobOpening--><g id="elem_JobOpening"><rect codeLine="9" fill="#F1F1F1" height="68.543" id="JobOpening" rx="2.5" ry="2.5" style="stroke:#181818;stroke-width:0.5;" width="82" x="245" y="333.3838"/><text fill="#000000" font-family="sans-serif" font-size="12" font-style="italic" lengthAdjust="spacing" textLength="44" x="264" y="351.333">&#171;Entity&#187;</text><text fill="#000000" font-family="sans-serif" font-size="12" font-style="italic" lengthAdjust="spacing" textLength="35" x="268.5" y="367.2939">&#171;root&#187;</text><text fill="#000000" font-family="sans-serif" font-size="14" lengthAdjust="spacing" textLength="76" x="248" y="385.4131">JobOpening</text><line style="stroke:#181818;stroke-width:0.5;" x1="246" x2="326" y1="393.9268" y2="393.9268"/></g><!--class NumberOfVacancies--><g id="elem_NumberOfVacancies"><rect codeLine="11" fill="#F1F1F1" height="52.582" id="NumberOfVacancies" rx="2.5" ry="2.5" style="stroke:#181818;stroke-width:0.5;" width="135" x="22.5" y="533.3838"/><text fill="#000000" font-family="sans-serif" font-size="12" font-style="italic" lengthAdjust="spacing" textLength="82" x="49" y="551.333">&#171;ValueObject&#187;</text><text fill="#000000" font-family="sans-serif" font-size="14" lengthAdjust="spacing" textLength="129" x="25.5" y="569.4521">NumberOfVacancies</text><line style="stroke:#181818;stroke-width:0.5;" x1="23.5" x2="156.5" y1="577.9658" y2="577.9658"/></g><!--class JobReference--><g id="elem_JobReference"><rect codeLine="12" fill="#F1F1F1" height="52.582" id="JobReference" rx="2.5" ry="2.5" style="stroke:#181818;stroke-width:0.5;" width="94" x="193" y="533.3838"/><text fill="#000000" font-family="sans-serif" font-size="12" font-style="italic" lengthAdjust="spacing" textLength="85" x="197.5" y="551.333">&#171;Value Object&#187;</text><text fill="#000000" font-family="sans-serif" font-size="14" lengthAdjust="spacing" textLength="88" x="196" y="569.4521">JobReference</text><line style="stroke:#181818;stroke-width:0.5;" x1="194" x2="286" y1="577.9658" y2="577.9658"/></g><!--class RecruitmentProcess--><g id="elem_RecruitmentProcess"><rect codeLine="13" fill="#F1F1F1" height="52.582" id="RecruitmentProcess" rx="2.5" ry="2.5" style="stroke:#181818;stroke-width:0.5;" width="133" x="322.5" y="533.3838"/><text fill="#000000" font-family="sans-serif" font-size="12" font-style="italic" lengthAdjust="spacing" textLength="44" x="367" y="551.333">&#171;Entity&#187;</text><text fill="#000000" font-family="sans-serif" font-size="14" lengthAdjust="spacing" textLength="127" x="325.5" y="569.4521">RecruitmentProcess</text><line style="stroke:#181818;stroke-width:0.5;" x1="323.5" x2="454.5" y1="577.9658" y2="577.9658"/></g><!--class Phase--><g id="elem_Phase"><rect codeLine="14" fill="#F1F1F1" height="52.582" id="Phase" rx="2.5" ry="2.5" style="stroke:#181818;stroke-width:0.5;" width="46" x="336" y="673.3838"/><text fill="#000000" font-family="sans-serif" font-size="12" font-style="italic" lengthAdjust="spacing" textLength="44" x="337" y="691.333">&#171;Entity&#187;</text><text fill="#000000" font-family="sans-serif" font-size="14" lengthAdjust="spacing" textLength="40" x="339" y="709.4521">Phase</text><line style="stroke:#181818;stroke-width:0.5;" x1="337" x2="381" y1="717.9658" y2="717.9658"/></g><!--class PhaseName--><g id="elem_PhaseName"><rect codeLine="15" fill="#F1F1F1" height="52.582" id="PhaseName" rx="2.5" ry="2.5" style="stroke:#181818;stroke-width:0.5;" width="84" x="208" y="807.3838"/><text fill="#000000" font-family="sans-serif" font-size="12" font-style="italic" lengthAdjust="spacing" textLength="82" x="209" y="825.333">&#171;ValueObject&#187;</text><text fill="#000000" font-family="sans-serif" font-size="14" lengthAdjust="spacing" textLength="76" x="212" y="843.4521">PhaseName</text><line style="stroke:#181818;stroke-width:0.5;" x1="209" x2="291" y1="851.9658" y2="851.9658"/></g><!--class PhaseState--><g id="elem_PhaseState"><rect codeLine="16" fill="#F1F1F1" height="52.582" id="PhaseState" rx="2.5" ry="2.5" style="stroke:#181818;stroke-width:0.5;" width="84" x="327" y="807.3838"/><text fill="#000000" font-family="sans-serif" font-size="12" font-style="italic" lengthAdjust="spacing" textLength="82" x="328" y="825.333">&#171;ValueObject&#187;</text><text fill="#000000" font-family="sans-serif" font-size="14" lengthAdjust="spacing" textLength="73" x="332.5" y="843.4521">PhaseState</text><line style="stroke:#181818;stroke-width:0.5;" x1="328" x2="410" y1="851.9658" y2="851.9658"/></g><!--class Application--><g id="elem_Application"><rect codeLine="22" fill="#F1F1F1" height="68.543" id="Application" rx="2.5" ry="2.5" style="stroke:#181818;stroke-width:0.5;" width="75" x="657.5" y="139.3838"/><text fill="#000000" font-family="sans-serif" font-size="12" font-style="italic" lengthAdjust="spacing" textLength="44" x="673" y="157.333">&#171;Entity&#187;</text><text fill="#000000" font-family="sans-serif" font-size="12" font-style="italic" lengthAdjust="spacing" textLength="35" x="677.5" y="173.2939">&#171;root&#187;</text><text fill="#000000" font-family="sans-serif" font-size="14" lengthAdjust="spacing" textLength="69" x="660.5" y="191.4131">Application</text><line style="stroke:#181818;stroke-width:0.5;" x1="658.5" x2="731.5" y1="199.9268" y2="199.9268"/></g><!--class ApplicationID--><g id="elem_ApplicationID"><rect codeLine="23" fill="#F1F1F1" height="52.582" id="ApplicationID" rx="2.5" ry="2.5" style="stroke:#181818;stroke-width:0.5;" width="88" x="616" y="341.3838"/><text fill="#000000" font-family="sans-serif" font-size="12" font-style="italic" lengthAdjust="spacing" textLength="82" x="619" y="359.333">&#171;ValueObject&#187;</text><text fill="#000000" font-family="sans-serif" font-size="14" lengthAdjust="spacing" textLength="82" x="619" y="377.4521">ApplicationID</text><line style="stroke:#181818;stroke-width:0.5;" x1="617" x2="703" y1="385.9658" y2="385.9658"/></g><!--class ApplicationState--><g id="elem_ApplicationState"><rect codeLine="24" fill="#F1F1F1" height="52.582" id="ApplicationState" rx="2.5" ry="2.5" style="stroke:#181818;stroke-width:0.5;" width="108" x="739" y="341.3838"/><text fill="#000000" font-family="sans-serif" font-size="12" font-style="italic" lengthAdjust="spacing" textLength="82" x="752" y="359.333">&#171;ValueObject&#187;</text><text fill="#000000" font-family="sans-serif" font-size="14" lengthAdjust="spacing" textLength="102" x="742" y="377.4521">ApplicationState</text><line style="stroke:#181818;stroke-width:0.5;" x1="740" x2="846" y1="385.9658" y2="385.9658"/></g><!--class Customer--><g id="elem_Customer"><rect codeLine="30" fill="#F1F1F1" height="68.543" id="Customer" rx="2.5" ry="2.5" style="stroke:#181818;stroke-width:0.5;" width="67" x="535.5" y="525.3838"/><text fill="#000000" font-family="sans-serif" font-size="12" font-style="italic" lengthAdjust="spacing" textLength="44" x="547" y="543.333">&#171;Entity&#187;</text><text fill="#000000" font-family="sans-serif" font-size="12" font-style="italic" lengthAdjust="spacing" textLength="35" x="551.5" y="559.2939">&#171;root&#187;</text><text fill="#000000" font-family="sans-serif" font-size="14" lengthAdjust="spacing" textLength="61" x="538.5" y="577.4131">Customer</text><line style="stroke:#181818;stroke-width:0.5;" x1="536.5" x2="601.5" y1="585.9268" y2="585.9268"/></g><!--class CompanyName--><g id="elem_CompanyName"><rect codeLine="31" fill="#F1F1F1" height="52.582" id="CompanyName" rx="2.5" ry="2.5" style="stroke:#181818;stroke-width:0.5;" width="102" x="522" y="673.3838"/><text fill="#000000" font-family="sans-serif" font-size="12" font-style="italic" lengthAdjust="spacing" textLength="82" x="532" y="691.333">&#171;ValueObject&#187;</text><text fill="#000000" font-family="sans-serif" font-size="14" lengthAdjust="spacing" textLength="96" x="525" y="709.4521">CompanyName</text><line style="stroke:#181818;stroke-width:0.5;" x1="523" x2="623" y1="717.9658" y2="717.9658"/></g><!--class Candidate--><g id="elem_Candidate"><rect codeLine="36" fill="#F1F1F1" height="68.543" id="Candidate" rx="2.5" ry="2.5" style="stroke:#181818;stroke-width:0.5;" width="71" x="881.5" y="525.3838"/><text fill="#000000" font-family="sans-serif" font-size="12" font-style="italic" lengthAdjust="spacing" textLength="44" x="895" y="543.333">&#171;Entity&#187;</text><text fill="#000000" font-family="sans-serif" font-size="12" font-style="italic" lengthAdjust="spacing" textLength="35" x="899.5" y="559.2939">&#171;root&#187;</text><text fill="#000000" font-family="sans-serif" font-size="14" lengthAdjust="spacing" textLength="65" x="884.5" y="577.4131">Candidate</text><line style="stroke:#181818;stroke-width:0.5;" x1="882.5" x2="951.5" y1="585.9268" y2="585.9268"/></g><!--class FirstName--><g id="elem_FirstName"><rect codeLine="39" fill="#F1F1F1" height="52.582" id="FirstName" rx="2.5" ry="2.5" style="stroke:#181818;stroke-width:0.5;" width="87" x="791.5" y="673.3838"/><text fill="#000000" font-family="sans-serif" font-size="12" font-style="italic" lengthAdjust="spacing" textLength="85" x="792.5" y="691.333">&#171;Value Object&#187;</text><text fill="#000000" font-family="sans-serif" font-size="14" lengthAdjust="spacing" textLength="64" x="803" y="709.4521">FirstName</text><line style="stroke:#181818;stroke-width:0.5;" x1="792.5" x2="877.5" y1="717.9658" y2="717.9658"/></g><!--class LastName--><g id="elem_LastName"><rect codeLine="40" fill="#F1F1F1" height="52.582" id="LastName" rx="2.5" ry="2.5" style="stroke:#181818;stroke-width:0.5;" width="87" x="913.5" y="673.3838"/><text fill="#000000" font-family="sans-serif" font-size="12" font-style="italic" lengthAdjust="spacing" textLength="85" x="914.5" y="691.333">&#171;Value Object&#187;</text><text fill="#000000" font-family="sans-serif" font-size="14" lengthAdjust="spacing" textLength="63" x="925.5" y="709.4521">LastName</text><line style="stroke:#181818;stroke-width:0.5;" x1="914.5" x2="999.5" y1="717.9658" y2="717.9658"/></g><!--class PhoneNumber--><g id="elem_PhoneNumber"><rect codeLine="42" fill="#F1F1F1" height="52.582" id="PhoneNumber" rx="2.5" ry="2.5" style="stroke:#181818;stroke-width:0.5;" width="96" x="1036" y="673.3838"/><text fill="#000000" font-family="sans-serif" font-size="12" font-style="italic" lengthAdjust="spacing" textLength="85" x="1041.5" y="691.333">&#171;Value Object&#187;</text><text fill="#000000" font-family="sans-serif" font-size="14" lengthAdjust="spacing" textLength="90" x="1039" y="709.4521">PhoneNumber</text><line style="stroke:#181818;stroke-width:0.5;" x1="1037" x2="1131" y1="717.9658" y2="717.9658"/></g><!--class Ranking--><g id="elem_Ranking"><rect codeLine="53" fill="#F1F1F1" height="68.543" id="Ranking" rx="2.5" ry="2.5" style="stroke:#181818;stroke-width:0.5;" width="58" x="154" y="139.3838"/><text fill="#000000" font-family="sans-serif" font-size="12" font-style="italic" lengthAdjust="spacing" textLength="44" x="161" y="157.333">&#171;Entity&#187;</text><text fill="#000000" font-family="sans-serif" font-size="12" font-style="italic" lengthAdjust="spacing" textLength="35" x="165.5" y="173.2939">&#171;root&#187;</text><text fill="#000000" font-family="sans-serif" font-size="14" lengthAdjust="spacing" textLength="52" x="157" y="191.4131">Ranking</text><line style="stroke:#181818;stroke-width:0.5;" x1="155" x2="211" y1="199.9268" y2="199.9268"/></g><!--class Order--><g id="elem_Order"><rect codeLine="54" fill="#F1F1F1" height="52.582" id="Order" rx="2.5" ry="2.5" style="stroke:#181818;stroke-width:0.5;" width="87" x="307.5" y="147.3838"/><text fill="#000000" font-family="sans-serif" font-size="12" font-style="italic" lengthAdjust="spacing" textLength="85" x="308.5" y="165.333">&#171;Value Object&#187;</text><text fill="#000000" font-family="sans-serif" font-size="14" lengthAdjust="spacing" textLength="37" x="332.5" y="183.4521">Order</text><line style="stroke:#181818;stroke-width:0.5;" x1="308.5" x2="393.5" y1="191.9658" y2="191.9658"/></g><!--class Rank--><g id="elem_Rank"><rect codeLine="55" fill="#F1F1F1" height="52.582" id="Rank" rx="2.5" ry="2.5" style="stroke:#181818;stroke-width:0.5;" width="87" x="472.5" y="147.3838"/><text fill="#000000" font-family="sans-serif" font-size="12" font-style="italic" lengthAdjust="spacing" textLength="85" x="473.5" y="165.333">&#171;Value Object&#187;</text><text fill="#000000" font-family="sans-serif" font-size="14" lengthAdjust="spacing" textLength="33" x="499.5" y="183.4521">Rank</text><line style="stroke:#181818;stroke-width:0.5;" x1="473.5" x2="558.5" y1="191.9658" y2="191.9658"/></g><!--class EMail--><g id="elem_EMail"><rect codeLine="47" fill="#F1F1F1" height="52.582" id="EMail" rx="2.5" ry="2.5" style="stroke:#181818;stroke-width:0.5;" width="87" x="669.5" y="673.3838"/><text fill="#000000" font-family="sans-serif" font-size="12" font-style="italic" lengthAdjust="spacing" textLength="85" x="670.5" y="691.333">&#171;Value Object&#187;</text><text fill="#000000" font-family="sans-serif" font-size="14" lengthAdjust="spacing" textLength="34" x="696" y="709.4521">EMail</text><line style="stroke:#181818;stroke-width:0.5;" x1="670.5" x2="755.5" y1="717.9658" y2="717.9658"/></g><!--link JobOpening to JobReference--><g id="link_JobOpening_JobReference"><path codeLine="61" d="M273.99,402.5938 C270.82,412.1538 267.57,422.6138 265,432.3838 C256.51,464.6538 249.43,502.2338 245,527.9938 " fill="none" id="JobOpening-to-JobReference" style="stroke:#181818;stroke-width:1.0;"/><polygon fill="#181818" points="244.15,532.9838,249.6099,524.7868,244.9928,528.0553,241.7243,523.4383,244.15,532.9838" style="stroke:#181818;stroke-width:1.0;"/><text fill="#000000" font-family="sans-serif" font-size="13" lengthAdjust="spacing" textLength="69" x="266" y="447.4121">identified by</text><text fill="#000000" font-family="sans-serif" font-size="13" lengthAdjust="spacing" textLength="22" x="248.179" y="423.8407">0..1</text><text fill="#000000" font-family="sans-serif" font-size="13" lengthAdjust="spacing" textLength="7" x="237.3003" y="521.9078">1</text></g><!--link JobOpening to Customer--><g id="link_JobOpening_Customer"><path codeLine="62" d="M327.05,384.0638 C366.31,399.6438 426.15,426.2638 472,459.3838 C496.39,476.9938 520.03,501.0538 537.87,521.1038 " fill="none" id="JobOpening-to-Customer" style="stroke:#181818;stroke-width:1.0;"/><polygon fill="#181818" points="541.35,525.0538,538.4161,515.6521,538.0504,521.2971,532.4054,520.9314,541.35,525.0538" style="stroke:#181818;stroke-width:1.0;"/><text fill="#000000" font-family="sans-serif" font-size="13" lengthAdjust="spacing" textLength="75" x="459" y="447.4121">requested by</text><text fill="#000000" font-family="sans-serif" font-size="13" lengthAdjust="spacing" textLength="5" x="335.0795" y="382.5771">*</text><text fill="#000000" font-family="sans-serif" font-size="13" lengthAdjust="spacing" textLength="7" x="528.6067" y="514.1621">1</text></g><!--link JobOpening to NumberOfVacancies--><g id="link_JobOpening_NumberOfVacancies"><path codeLine="63" d="M244.82,398.0038 C230.85,408.4038 215.4,420.4938 202,432.3838 C166.46,463.9238 131.05,506.2038 109.84,533.0038 " fill="none" id="JobOpening-NumberOfVacancies" style="stroke:#181818;stroke-width:1.0;"/><text fill="#000000" font-family="sans-serif" font-size="13" lengthAdjust="spacing" textLength="48" x="203" y="447.4121">includes</text><text fill="#000000" font-family="sans-serif" font-size="13" lengthAdjust="spacing" textLength="7" x="229.8614" y="398.9498">1</text><text fill="#000000" font-family="sans-serif" font-size="13" lengthAdjust="spacing" textLength="7" x="106.6186" y="521.9325">1</text></g><!--link JobOpening to RecruitmentProcess--><g id="link_JobOpening_RecruitmentProcess"><path codeLine="64" d="M318.23,402.5438 C326.02,411.7638 333.85,422.0638 340,432.3838 C358.27,463.0538 372.08,501.7538 380.31,528.2138 " fill="none" id="JobOpening-to-RecruitmentProcess" style="stroke:#181818;stroke-width:1.0;"/><polygon fill="#181818" points="381.78,533.0138,382.9584,523.2357,380.3106,528.2346,375.3117,525.5868,381.78,533.0138" style="stroke:#181818;stroke-width:1.0;"/><text fill="#000000" font-family="sans-serif" font-size="13" lengthAdjust="spacing" textLength="42" x="349" y="447.4121">selects</text><text fill="#000000" font-family="sans-serif" font-size="13" lengthAdjust="spacing" textLength="5" x="318.3398" y="424.0545">*</text><text fill="#000000" font-family="sans-serif" font-size="13" lengthAdjust="spacing" textLength="22" x="355.5666" y="521.9448">0..1</text></g><!--link Application to JobOpening--><g id="link_Application_JobOpening"><path codeLine="67" d="M657.29,193.2938 C633.92,204.6538 603.27,219.4738 576,232.3838 C530.08,254.1238 401.49,313.5738 331.98,345.6638 " fill="none" id="Application-to-JobOpening" style="stroke:#181818;stroke-width:1.0;"/><polygon fill="#181818" points="327.08,347.9338,336.9278,347.7882,331.6185,345.8358,333.571,340.5265,327.08,347.9338" style="stroke:#181818;stroke-width:1.0;"/><text fill="#000000" font-family="sans-serif" font-size="13" lengthAdjust="spacing" textLength="75" x="558" y="255.4121">submitted for</text><text fill="#000000" font-family="sans-serif" font-size="13" lengthAdjust="spacing" textLength="5" x="644.625" y="192.4731">*</text><text fill="#000000" font-family="sans-serif" font-size="13" lengthAdjust="spacing" textLength="7" x="335.0208" y="339.9611">1</text></g><!--link Application to Candidate--><g id="link_Application_Candidate"><path codeLine="68" d="M732.54,182.2438 C774.5,192.8038 839.85,216.8438 865,267.3838 C906.46,350.7038 915.29,461.9538 916.9,519.9738 " fill="none" id="Application-to-Candidate" style="stroke:#181818;stroke-width:1.0;"/><polygon fill="#181818" points="917.03,525.0738,920.7973,515.9739,916.9015,520.0754,912.8,516.1796,917.03,525.0738" style="stroke:#181818;stroke-width:1.0;"/><text fill="#000000" font-family="sans-serif" font-size="13" lengthAdjust="spacing" textLength="75" x="909" y="373.4121">submitted by</text><text fill="#000000" font-family="sans-serif" font-size="13" lengthAdjust="spacing" textLength="5" x="740.4229" y="179.3182">*</text><text fill="#000000" font-family="sans-serif" font-size="13" lengthAdjust="spacing" textLength="7" x="909.3902" y="514.1858">1</text></g><!--link Application to ApplicationID--><g id="link_Application_ApplicationID"><path codeLine="69" d="M664.74,208.6938 C657.9,218.2938 651.6,229.1938 648,240.3838 C637.87,271.8838 643.73,309.9038 650.32,335.9838 " fill="none" id="Application-to-ApplicationID" style="stroke:#181818;stroke-width:1.0;"/><polygon fill="#181818" points="651.64,341.0338,653.2235,331.3131,650.3703,336.1977,645.4857,333.3445,651.64,341.0338" style="stroke:#181818;stroke-width:1.0;"/><text fill="#000000" font-family="sans-serif" font-size="13" lengthAdjust="spacing" textLength="69" x="649" y="255.4121">identified by</text><text fill="#000000" font-family="sans-serif" font-size="13" lengthAdjust="spacing" textLength="7" x="652.1485" y="229.9573">1</text><text fill="#000000" font-family="sans-serif" font-size="13" lengthAdjust="spacing" textLength="7" x="641.8974" y="329.9694">1</text></g><!--link Application to Rank--><g id="link_Application_Rank"><path codeLine="70" d="M657.42,173.8838 C630.59,173.8838 594.26,173.8838 565.14,173.8838 " fill="none" id="Application-to-Rank" style="stroke:#181818;stroke-width:1.0;"/><polygon fill="#181818" points="559.79,173.8838,568.79,177.8838,564.79,173.8838,568.79,169.8838,559.79,173.8838" style="stroke:#181818;stroke-width:1.0;"/><text fill="#000000" font-family="sans-serif" font-size="13" lengthAdjust="spacing" textLength="61" x="578" y="166.9121">ordered by</text><text fill="#000000" font-family="sans-serif" font-size="13" lengthAdjust="spacing" textLength="7" x="642.5891" y="169.3631">1</text><text fill="#000000" font-family="sans-serif" font-size="13" lengthAdjust="spacing" textLength="22" x="567.4948" y="189.1573">0..1</text></g><!--link Application to ApplicationState--><g id="link_Application_ApplicationState"><path codeLine="71" d="M712.29,208.7638 C730.81,245.0338 759.9,302.0238 777.63,336.7738 " fill="none" id="Application-to-ApplicationState" style="stroke:#181818;stroke-width:1.0;"/><polygon fill="#181818" points="779.95,341.3138,779.4146,331.4795,777.6739,336.8619,772.2916,335.1212,779.95,341.3138" style="stroke:#181818;stroke-width:1.0;"/><text fill="#000000" font-family="sans-serif" font-size="13" lengthAdjust="spacing" textLength="95" x="736" y="255.4121">presents itself in</text><text fill="#000000" font-family="sans-serif" font-size="13" lengthAdjust="spacing" textLength="7" x="707.574" y="230.0389">1</text><text fill="#000000" font-family="sans-serif" font-size="13" lengthAdjust="spacing" textLength="7" x="769.1228" y="330.3141">1</text></g><!--link Customer to EMail--><g id="link_Customer_EMail"><path codeLine="74" d="M602.76,593.2338 C626.91,616.3738 659.14,647.2638 682.51,669.6638 " fill="none" id="Customer-to-EMail" style="stroke:#181818;stroke-width:1.0;"/><polygon fill="#181818" points="686.18,673.1738,682.4411,664.0622,682.5668,669.7177,676.9113,669.8434,686.18,673.1738" style="stroke:#181818;stroke-width:1.0;"/><text fill="#000000" font-family="sans-serif" font-size="13" lengthAdjust="spacing" textLength="28" x="654" y="639.4121">uses</text><text fill="#000000" font-family="sans-serif" font-size="13" lengthAdjust="spacing" textLength="7" x="610.4449" y="595.4646">1</text><text fill="#000000" font-family="sans-serif" font-size="13" lengthAdjust="spacing" textLength="7" x="672.1685" y="662.1418">1</text></g><!--link Customer to CompanyName--><g id="link_Customer_CompanyName"><path codeLine="75" d="M569.98,594.6438 C570.63,617.1038 571.48,646.3638 572.11,668.1638 " fill="none" id="Customer-to-CompanyName" style="stroke:#181818;stroke-width:1.0;"/><polygon fill="#181818" points="572.26,673.2638,576.0013,664.1532,572.1172,668.2658,568.0046,664.3817,572.26,673.2638" style="stroke:#181818;stroke-width:1.0;"/><text fill="#000000" font-family="sans-serif" font-size="13" lengthAdjust="spacing" textLength="53" x="572" y="639.4121">is named</text><text fill="#000000" font-family="sans-serif" font-size="13" lengthAdjust="spacing" textLength="7" x="562.5626" y="615.899">1</text><text fill="#000000" font-family="sans-serif" font-size="13" lengthAdjust="spacing" textLength="7" x="564.2795" y="662.2526">1</text></g><!--link Candidate to EMail--><g id="link_Candidate_EMail"><path codeLine="77" d="M881.44,573.4938 C853.23,584.4738 813.59,602.1038 783,624.3838 C765.69,636.9938 749.15,654.2638 736.49,669.0038 " fill="none" id="Candidate-to-EMail" style="stroke:#181818;stroke-width:1.0;"/><polygon fill="#181818" points="733.03,673.0838,741.8977,668.7986,736.2604,669.2674,735.7915,663.63,733.03,673.0838" style="stroke:#181818;stroke-width:1.0;"/><text fill="#000000" font-family="sans-serif" font-size="13" lengthAdjust="spacing" textLength="69" x="784" y="639.4121">identified by</text><text fill="#000000" font-family="sans-serif" font-size="13" lengthAdjust="spacing" textLength="7" x="866.3839" y="571.6532">1</text><text fill="#000000" font-family="sans-serif" font-size="13" lengthAdjust="spacing" textLength="7" x="729.8526" y="662.031">1</text></g><!--link Candidate to PhoneNumber--><g id="link_Candidate_PhoneNumber"><path codeLine="78" d="M952.73,586.4038 C968.15,597.7138 986.23,611.3738 1002,624.3838 C1019.51,638.8238 1038.3,655.7838 1053.47,669.8638 " fill="none" id="Candidate-to-PhoneNumber" style="stroke:#181818;stroke-width:1.0;"/><polygon fill="#181818" points="1057.25,673.3838,1053.401,664.3182,1053.5952,669.9717,1047.9417,670.1659,1057.25,673.3838" style="stroke:#181818;stroke-width:1.0;"/><text fill="#000000" font-family="sans-serif" font-size="13" lengthAdjust="spacing" textLength="28" x="1023" y="639.4121">uses</text><text fill="#000000" font-family="sans-serif" font-size="13" lengthAdjust="spacing" textLength="7" x="960.4534" y="587.0534">1</text><text fill="#000000" font-family="sans-serif" font-size="13" lengthAdjust="spacing" textLength="7" x="1042.8766" y="661.9673">1</text></g><!--link Candidate to FirstName--><g id="link_Candidate_FirstName"><path codeLine="79" d="M892.39,594.6038 C885.83,604.0638 878.92,614.4838 873,624.3838 C864.5,638.6038 856.03,654.9438 849.25,668.6938 " fill="none" id="Candidate-to-FirstName" style="stroke:#181818;stroke-width:1.0;"/><polygon fill="#181818" points="847.02,673.2538,854.5664,666.9252,849.2161,668.7619,847.3794,663.4115,847.02,673.2538" style="stroke:#181818;stroke-width:1.0;"/><text fill="#000000" font-family="sans-serif" font-size="13" lengthAdjust="spacing" textLength="52" x="874" y="639.4121">called by</text><text fill="#000000" font-family="sans-serif" font-size="13" lengthAdjust="spacing" textLength="7" x="880.7343" y="615.8524">1</text><text fill="#000000" font-family="sans-serif" font-size="13" lengthAdjust="spacing" textLength="7" x="841.9903" y="662.2403">1</text></g><!--link Candidate to LastName--><g id="link_Candidate_LastName"><path codeLine="80" d="M926.79,594.6438 C933.32,617.1938 941.85,646.6138 948.18,668.4438 " fill="none" id="Candidate-to-LastName" style="stroke:#181818;stroke-width:1.0;"/><polygon fill="#181818" points="949.57,673.2638,950.9168,663.5074,948.1832,668.46,943.2307,665.7264,949.57,673.2638" style="stroke:#181818;stroke-width:1.0;"/><text fill="#000000" font-family="sans-serif" font-size="13" lengthAdjust="spacing" textLength="52" x="941" y="639.4121">called by</text><text fill="#000000" font-family="sans-serif" font-size="13" lengthAdjust="spacing" textLength="7" x="920.8318" y="615.899">1</text><text fill="#000000" font-family="sans-serif" font-size="13" lengthAdjust="spacing" textLength="7" x="940.0424" y="662.2526">1</text></g><!--reverse link RecruitmentProcess to Phase--><g id="link_RecruitmentProcess_Phase"><path codeLine="82" d="M380.6,599.5338 C375.5,622.9638 369.14,652.2338 364.64,672.9238 " fill="none" id="RecruitmentProcess-backto-Phase" style="stroke:#181818;stroke-width:1.0;"/><polygon fill="#181818" points="383.43,586.5138,378.2481,591.5286,380.8841,598.2406,386.066,593.2258,383.43,586.5138" style="stroke:#181818;stroke-width:1.0;"/></g><!--link Phase to PhaseName--><g id="link_Phase_PhaseName"><path codeLine="83" d="M337.72,726.6438 C319.57,748.6338 293.46,780.2538 274.45,803.2738 " fill="none" id="Phase-to-PhaseName" style="stroke:#181818;stroke-width:1.0;"/><polygon fill="#181818" points="271.22,807.1838,280.0433,802.8079,274.4111,803.3345,273.8845,797.7022,271.22,807.1838" style="stroke:#181818;stroke-width:1.0;"/><text fill="#000000" font-family="sans-serif" font-size="13" lengthAdjust="spacing" textLength="39" x="312" y="773.4121">named</text><text fill="#000000" font-family="sans-serif" font-size="13" lengthAdjust="spacing" textLength="7" x="325.6091" y="748.0176">1</text><text fill="#000000" font-family="sans-serif" font-size="13" lengthAdjust="spacing" textLength="7" x="268.3178" y="796.1541">1</text></g><!--link Phase to PhaseState--><g id="link_Phase_PhaseState"><path codeLine="84" d="M360.95,726.6438 C362.59,748.2738 364.93,779.2138 366.67,802.1338 " fill="none" id="Phase-to-PhaseState" style="stroke:#181818;stroke-width:1.0;"/><polygon fill="#181818" points="367.05,807.1838,370.3439,797.9021,366.6643,802.1987,362.3677,798.5191,367.05,807.1838" style="stroke:#181818;stroke-width:1.0;"/><text fill="#000000" font-family="sans-serif" font-size="13" lengthAdjust="spacing" textLength="95" x="365" y="773.4121">presents itself in</text><text fill="#000000" font-family="sans-serif" font-size="13" lengthAdjust="spacing" textLength="7" x="353.6303" y="748.0176">1</text><text fill="#000000" font-family="sans-serif" font-size="13" lengthAdjust="spacing" textLength="7" x="358.7897" y="796.1541">1</text></g><!--link Ranking to JobOpening--><g id="link_Ranking_JobOpening"><path codeLine="87" d="M194.32,208.4838 C200.09,224.2638 207.65,243.1338 216,259.3838 C228.36,283.4238 244.73,308.8338 258.53,328.9038 " fill="none" id="Ranking-to-JobOpening" style="stroke:#181818;stroke-width:1.0;"/><polygon fill="#181818" points="261.44,333.1038,259.5989,323.4286,258.591,328.9949,253.0246,327.987,261.44,333.1038" style="stroke:#181818;stroke-width:1.0;"/><text fill="#000000" font-family="sans-serif" font-size="13" lengthAdjust="spacing" textLength="46" x="217" y="255.4121">is about</text><text fill="#000000" font-family="sans-serif" font-size="13" lengthAdjust="spacing" textLength="7" x="188.6641" y="229.9842">1</text><text fill="#000000" font-family="sans-serif" font-size="13" lengthAdjust="spacing" textLength="7" x="249.2664" y="322.2213">1</text></g><!--link Ranking to Order--><g id="link_Ranking_Order"><path codeLine="88" d="M212.26,173.8838 C236.96,173.8838 272.82,173.8838 301.9,173.8838 " fill="none" id="Ranking-to-Order" style="stroke:#181818;stroke-width:1.0;"/><polygon fill="#181818" points="307.25,173.8838,298.25,169.8838,302.25,173.8838,298.25,177.8838,307.25,173.8838" style="stroke:#181818;stroke-width:1.0;"/><text fill="#000000" font-family="sans-serif" font-size="13" lengthAdjust="spacing" textLength="59" x="230.25" y="166.9121">defined by</text><text fill="#000000" font-family="sans-serif" font-size="13" lengthAdjust="spacing" textLength="7" x="219.8358" y="169.033">1</text><text fill="#000000" font-family="sans-serif" font-size="13" lengthAdjust="spacing" textLength="16" x="283.6492" y="169.7157">1.*</text></g><!--link Order to Rank--><g id="link_Order_Rank"><path codeLine="89" d="M394.78,173.8838 C417.06,173.8838 444.21,173.8838 467.17,173.8838 " fill="none" id="Order-to-Rank" style="stroke:#181818;stroke-width:1.0;"/><polygon fill="#181818" points="472.3,173.8838,463.3,169.8838,467.3,173.8838,463.3,177.8838,472.3,173.8838" style="stroke:#181818;stroke-width:1.0;"/><text fill="#000000" font-family="sans-serif" font-size="13" lengthAdjust="spacing" textLength="41" x="413" y="166.9121">defined</text><text fill="#000000" font-family="sans-serif" font-size="13" lengthAdjust="spacing" textLength="7" x="402.6108" y="169.563">1</text><text fill="#000000" font-family="sans-serif" font-size="13" lengthAdjust="spacing" textLength="7" x="457.4825" y="169.563">1</text></g><!--link Order to Application--><g id="link_Order_Application"><path codeLine="90" d="M369.3,147.2138 C387.73,122.8938 418.6,88.5238 455,73.3838 C492.96,57.5938 506.39,71.6638 547.5,72.3838 C560.17,72.6038 564.17,68.8238 576,73.3838 C609.39,86.2638 640.06,112.6838 661.9,135.2038 " fill="none" id="Order-to-Application" style="stroke:#181818;stroke-width:1.0;"/><polygon fill="#181818" points="665.6,139.0738,662.2696,129.8051,662.1439,135.4606,656.4884,135.3349,665.6,139.0738" style="stroke:#181818;stroke-width:1.0;"/><text fill="#000000" font-family="sans-serif" font-size="13" lengthAdjust="spacing" textLength="41" x="505.5" y="61.4121">defined</text><text fill="#000000" font-family="sans-serif" font-size="13" lengthAdjust="spacing" textLength="7" x="365.7225" y="136.191">1</text><text fill="#000000" font-family="sans-serif" font-size="13" lengthAdjust="spacing" textLength="16" x="642.7044" y="128.1858">1.*</text></g><!--SRC=[ZLN1Zjem4BtdAqPSLbe913r6gqWhTYkrwYuhLjrJByQPW8jZfxPpG6Z_lHCI1mSSMYw1p9kPDy_pp9tT2rKnmqgGGg4xL0ZQk9rExYGM3fm68xOx1xamo9tGAjc9784BmoMstqiaV6uJ9vn4UD8b4mfUT8uIfl3pVJ7_Ca-IYl4zso9yrvjLXKgexUDsQt3B7C8nIRXarWP1U7XuLbJma6NmIz4lexNBicFosK5VwtA3PbLyCCuK5sW9yy5aZQlDRoAQPUUIQopGeEBe8U0nSFJbriXDBLo9ohqPpT7QW46FUjinYwE1LrRY28jJ_Dqrmru2QA9UdCUgaeApHkQ8Ea5qJ9xFQ-YtfykMCTG8DoBdkIrhwtI99aBCX_x5QgdBYgb3LAT0XILJkSYfGwoLZzrOa0xwLHZhmbvmSIW_s5YyFpMji5sqAmmDHPqyylc52Hd3D1y_rvgfVJXIjtdqziR2U-rM9e-m26fSnzhkWQScyzbiCO7fD8C9FGVMI86iJ0GAWJbi3eEq-pRdbDIVTGe6_zHetJN-rEFqk7OfzL5SrZdQM8kEOSIDALYKD9UbaK8Zz9djGBuWmUjDALp3hj1cDEMyJs46pJD824GREkjIjMXMDrDpHYbThdIE_zsYjMKAbK5BVIm8Hp8Kf279q1z5cDnkOWgr9OMZYD25nD-2ecyvbUkbYDKRpXd7Xdxn3AB0ipLJu4pAMqLxbuRG9B8XzxHpftisQQ_f8JD_FwVTk2EOcu9xgquM8pj7OhADhjqGsG1dj7EjXLF8iQ2_sjCSxQiUrMz91xcCDrN2hJa3_m80]--></g></svg>