<?xml version="1.0" encoding="us-ascii" standalone="no"?><svg xmlns="http://www.w3.org/2000/svg" xmlns:xlink="http://www.w3.org/1999/xlink" contentStyleType="text/css" height="1246px" preserveAspectRatio="none" style="width:1795px;height:1246px;background:#FFFFFF;" version="1.1" viewBox="0 0 1795 1246" width="1795px" zoomAndPan="magnify"><defs/><g><text fill="#000000" font-family="sans-serif" font-size="14" font-weight="bold" lengthAdjust="spacing" textLength="241" x="776" y="30.1074">Sequence Diagram (SD) - US 2000a</text><rect fill="#FFFFFF" height="1021.0586" style="stroke:#181818;stroke-width:1.0;" width="10" x="63.5" y="133.2422"/><rect fill="#FFFFFF" height="988.7676" style="stroke:#181818;stroke-width:1.0;" width="10" x="290.5" y="156.5332"/><rect fill="#FFFFFF" height="93.873" style="stroke:#181818;stroke-width:1.0;" width="10" x="516.5" y="263.4063"/><rect fill="#FFFFFF" height="541.8203" style="stroke:#181818;stroke-width:1.0;" width="10" x="516.5" y="572.1895"/><rect fill="#FFFFFF" height="145.7461" style="stroke:#181818;stroke-width:1.0;" width="10" x="742.5" y="717.9355"/><rect fill="#FFFFFF" height="31.291" style="stroke:#181818;stroke-width:1.0;" width="10" x="968.5" y="801.0996"/><rect fill="#FFFFFF" height="31.291" style="stroke:#181818;stroke-width:1.0;" width="10" x="1106.5" y="294.6973"/><rect fill="#FFFFFF" height="62.582" style="stroke:#181818;stroke-width:1.0;" width="10" x="1256" y="894.9727"/><rect fill="#FFFFFF" height="62.582" style="stroke:#181818;stroke-width:1.0;" width="10" x="1719" y="988.8457"/><line style="stroke:#181818;stroke-width:0.5;stroke-dasharray:5.0,5.0;" x1="68" x2="68" y1="123.2422" y2="1163.3008"/><line style="stroke:#181818;stroke-width:0.5;stroke-dasharray:5.0,5.0;" x1="295" x2="295" y1="123.2422" y2="1163.3008"/><line style="stroke:#181818;stroke-width:0.5;stroke-dasharray:5.0,5.0;" x1="521" x2="521" y1="123.2422" y2="1163.3008"/><line style="stroke:#181818;stroke-width:0.5;stroke-dasharray:5.0,5.0;" x1="747.5" x2="747.5" y1="123.2422" y2="1163.3008"/><line style="stroke:#181818;stroke-width:0.5;stroke-dasharray:5.0,5.0;" x1="973" x2="973" y1="123.2422" y2="1163.3008"/><line style="stroke:#181818;stroke-width:0.5;stroke-dasharray:5.0,5.0;" x1="1111" x2="1111" y1="123.2422" y2="1163.3008"/><line style="stroke:#181818;stroke-width:0.5;stroke-dasharray:5.0,5.0;" x1="1261" x2="1261" y1="123.2422" y2="1163.3008"/><line style="stroke:#181818;stroke-width:0.5;stroke-dasharray:5.0,5.0;" x1="1420" x2="1420" y1="123.2422" y2="1163.3008"/><line style="stroke:#181818;stroke-width:0.5;stroke-dasharray:5.0,5.0;" x1="1580" x2="1580" y1="123.2422" y2="1163.3008"/><line style="stroke:#181818;stroke-width:0.5;stroke-dasharray:5.0,5.0;" x1="1724" x2="1724" y1="123.2422" y2="1163.3008"/><text fill="#000000" font-family="sans-serif" font-size="14" lengthAdjust="spacing" textLength="121" x="5" y="119.7285">Customer manager</text><ellipse cx="68.5" cy="53.1211" fill="#E3E3E3" rx="8" ry="8" style="stroke:#181818;stroke-width:0.5;"/><path d="M68.5,61.1211 L68.5,88.1211 M55.5,69.1211 L81.5,69.1211 M68.5,88.1211 L55.5,103.1211 M68.5,88.1211 L81.5,103.1211 " fill="none" style="stroke:#181818;stroke-width:0.5;"/><text fill="#000000" font-family="sans-serif" font-size="14" lengthAdjust="spacing" textLength="121" x="5" y="1177.4082">Customer manager</text><ellipse cx="68.5" cy="1189.4219" fill="#E3E3E3" rx="8" ry="8" style="stroke:#181818;stroke-width:0.5;"/><path d="M68.5,1197.4219 L68.5,1224.4219 M55.5,1205.4219 L81.5,1205.4219 M68.5,1224.4219 L55.5,1239.4219 M68.5,1224.4219 L81.5,1239.4219 " fill="none" style="stroke:#181818;stroke-width:0.5;"/><rect fill="#E3E3E3" height="32.6211" rx="2.5" ry="2.5" style="stroke:#181818;stroke-width:0.5;" width="155" x="218" y="89.6211"/><text fill="#000000" font-family="sans-serif" font-size="14" lengthAdjust="spacing" textLength="141" x="225" y="111.7285">RegisterJobOpeningUI</text><rect fill="#E3E3E3" height="32.6211" rx="2.5" ry="2.5" style="stroke:#181818;stroke-width:0.5;" width="155" x="218" y="1162.3008"/><text fill="#000000" font-family="sans-serif" font-size="14" lengthAdjust="spacing" textLength="141" x="225" y="1184.4082">RegisterJobOpeningUI</text><rect fill="#E3E3E3" height="32.6211" rx="2.5" ry="2.5" style="stroke:#181818;stroke-width:0.5;" width="209" x="417" y="89.6211"/><text fill="#000000" font-family="sans-serif" font-size="14" lengthAdjust="spacing" textLength="195" x="424" y="111.7285">:RegisterJobOpeningController</text><rect fill="#E3E3E3" height="32.6211" rx="2.5" ry="2.5" style="stroke:#181818;stroke-width:0.5;" width="209" x="417" y="1162.3008"/><text fill="#000000" font-family="sans-serif" font-size="14" lengthAdjust="spacing" textLength="195" x="424" y="1184.4082">:RegisterJobOpeningController</text><rect fill="#E3E3E3" height="32.6211" rx="2.5" ry="2.5" style="stroke:#181818;stroke-width:0.5;" width="138" x="678.5" y="89.6211"/><text fill="#000000" font-family="sans-serif" font-size="14" lengthAdjust="spacing" textLength="124" x="685.5" y="111.7285">:JobOpeningBuilder</text><rect fill="#E3E3E3" height="32.6211" rx="2.5" ry="2.5" style="stroke:#181818;stroke-width:0.5;" width="138" x="678.5" y="1162.3008"/><text fill="#000000" font-family="sans-serif" font-size="14" lengthAdjust="spacing" textLength="124" x="685.5" y="1184.4082">:JobOpeningBuilder</text><rect fill="#E3E3E3" height="32.6211" rx="2.5" ry="2.5" style="stroke:#181818;stroke-width:0.5;" width="113" x="917" y="89.6211"/><text fill="#000000" font-family="sans-serif" font-size="14" lengthAdjust="spacing" textLength="99" x="924" y="111.7285">job:JobOpening</text><rect fill="#E3E3E3" height="32.6211" rx="2.5" ry="2.5" style="stroke:#181818;stroke-width:0.5;" width="113" x="917" y="1162.3008"/><text fill="#000000" font-family="sans-serif" font-size="14" lengthAdjust="spacing" textLength="99" x="924" y="1184.4082">job:JobOpening</text><rect fill="#E3E3E3" height="32.6211" rx="2.5" ry="2.5" style="stroke:#181818;stroke-width:0.5;" width="143" x="1040" y="89.6211"/><text fill="#000000" font-family="sans-serif" font-size="14" lengthAdjust="spacing" textLength="129" x="1047" y="111.7285">CustomerRepository</text><rect fill="#E3E3E3" height="32.6211" rx="2.5" ry="2.5" style="stroke:#181818;stroke-width:0.5;" width="143" x="1040" y="1162.3008"/><text fill="#000000" font-family="sans-serif" font-size="14" lengthAdjust="spacing" textLength="129" x="1047" y="1184.4082">CustomerRepository</text><rect fill="#E3E3E3" height="32.6211" rx="2.5" ry="2.5" style="stroke:#181818;stroke-width:0.5;" width="136" x="1193" y="89.6211"/><text fill="#000000" font-family="sans-serif" font-size="14" lengthAdjust="spacing" textLength="122" x="1200" y="111.7285">PersistenceContext</text><rect fill="#E3E3E3" height="32.6211" rx="2.5" ry="2.5" style="stroke:#181818;stroke-width:0.5;" width="136" x="1193" y="1162.3008"/><text fill="#000000" font-family="sans-serif" font-size="14" lengthAdjust="spacing" textLength="122" x="1200" y="1184.4082">PersistenceContext</text><rect fill="#E3E3E3" height="32.6211" rx="2.5" ry="2.5" style="stroke:#181818;stroke-width:0.5;" width="162" x="1339" y="89.6211"/><text fill="#000000" font-family="sans-serif" font-size="14" lengthAdjust="spacing" textLength="148" x="1346" y="111.7285">:JobOpeningRepository</text><rect fill="#E3E3E3" height="32.6211" rx="2.5" ry="2.5" style="stroke:#181818;stroke-width:0.5;" width="162" x="1339" y="1162.3008"/><text fill="#000000" font-family="sans-serif" font-size="14" lengthAdjust="spacing" textLength="148" x="1346" y="1184.4082">:JobOpeningRepository</text><rect fill="#E3E3E3" height="32.6211" rx="2.5" ry="2.5" style="stroke:#181818;stroke-width:0.5;" width="138" x="1511" y="89.6211"/><text fill="#000000" font-family="sans-serif" font-size="14" lengthAdjust="spacing" textLength="124" x="1518" y="111.7285">:JobOpeningBuilder</text><rect fill="#E3E3E3" height="32.6211" rx="2.5" ry="2.5" style="stroke:#181818;stroke-width:0.5;" width="138" x="1511" y="1162.3008"/><text fill="#000000" font-family="sans-serif" font-size="14" lengthAdjust="spacing" textLength="124" x="1518" y="1184.4082">:JobOpeningBuilder</text><rect fill="#E3E3E3" height="32.6211" rx="2.5" ry="2.5" style="stroke:#181818;stroke-width:0.5;" width="130" x="1659" y="89.6211"/><text fill="#000000" font-family="sans-serif" font-size="14" lengthAdjust="spacing" textLength="116" x="1666" y="111.7285">RepositoryFactory</text><rect fill="#E3E3E3" height="32.6211" rx="2.5" ry="2.5" style="stroke:#181818;stroke-width:0.5;" width="130" x="1659" y="1162.3008"/><text fill="#000000" font-family="sans-serif" font-size="14" lengthAdjust="spacing" textLength="116" x="1666" y="1184.4082">RepositoryFactory</text><rect fill="#FFFFFF" height="1021.0586" style="stroke:#181818;stroke-width:1.0;" width="10" x="63.5" y="133.2422"/><rect fill="#FFFFFF" height="988.7676" style="stroke:#181818;stroke-width:1.0;" width="10" x="290.5" y="156.5332"/><rect fill="#FFFFFF" height="93.873" style="stroke:#181818;stroke-width:1.0;" width="10" x="516.5" y="263.4063"/><rect fill="#FFFFFF" height="541.8203" style="stroke:#181818;stroke-width:1.0;" width="10" x="516.5" y="572.1895"/><rect fill="#FFFFFF" height="145.7461" style="stroke:#181818;stroke-width:1.0;" width="10" x="742.5" y="717.9355"/><rect fill="#FFFFFF" height="31.291" style="stroke:#181818;stroke-width:1.0;" width="10" x="968.5" y="801.0996"/><rect fill="#FFFFFF" height="31.291" style="stroke:#181818;stroke-width:1.0;" width="10" x="1106.5" y="294.6973"/><rect fill="#FFFFFF" height="62.582" style="stroke:#181818;stroke-width:1.0;" width="10" x="1256" y="894.9727"/><rect fill="#FFFFFF" height="62.582" style="stroke:#181818;stroke-width:1.0;" width="10" x="1719" y="988.8457"/><polygon fill="#181818" points="278.5,152.5332,288.5,156.5332,278.5,160.5332,282.5,156.5332" style="stroke:#181818;stroke-width:1.0;"/><line style="stroke:#181818;stroke-width:1.0;" x1="73.5" x2="284.5" y1="156.5332" y2="156.5332"/><text fill="#000000" font-family="sans-serif" font-size="13" lengthAdjust="spacing" textLength="38" x="80.5" y="151.2705">show()</text><line style="stroke:#181818;stroke-width:1.0;" x1="300.5" x2="342.5" y1="187.8242" y2="187.8242"/><line style="stroke:#181818;stroke-width:1.0;" x1="342.5" x2="342.5" y1="187.8242" y2="200.8242"/><line style="stroke:#181818;stroke-width:1.0;" x1="301.5" x2="342.5" y1="200.8242" y2="200.8242"/><polygon fill="#181818" points="311.5,196.8242,301.5,200.8242,311.5,204.8242,307.5,200.8242" style="stroke:#181818;stroke-width:1.0;"/><text fill="#000000" font-family="sans-serif" font-size="13" lengthAdjust="spacing" textLength="54" x="307.5" y="182.5615">doShow()</text><polygon fill="#181818" points="509.5,228.1152,519.5,232.1152,509.5,236.1152,513.5,232.1152" style="stroke:#181818;stroke-width:1.0;"/><line style="stroke:#181818;stroke-width:1.0;" x1="300.5" x2="515.5" y1="232.1152" y2="232.1152"/><text fill="#000000" font-family="sans-serif" font-size="13" lengthAdjust="spacing" textLength="44" x="307.5" y="226.8525">create()</text><polygon fill="#181818" points="504.5,259.4063,514.5,263.4063,504.5,267.4063,508.5,263.4063" style="stroke:#181818;stroke-width:1.0;"/><line style="stroke:#181818;stroke-width:1.0;" x1="300.5" x2="510.5" y1="263.4063" y2="263.4063"/><text fill="#000000" font-family="sans-serif" font-size="13" lengthAdjust="spacing" textLength="78" x="307.5" y="258.1436">findAllActive()</text><polygon fill="#181818" points="1094.5,290.6973,1104.5,294.6973,1094.5,298.6973,1098.5,294.6973" style="stroke:#181818;stroke-width:1.0;"/><line style="stroke:#181818;stroke-width:1.0;" x1="526.5" x2="1100.5" y1="294.6973" y2="294.6973"/><text fill="#000000" font-family="sans-serif" font-size="13" lengthAdjust="spacing" textLength="78" x="533.5" y="289.4346">findAllActive()</text><polygon fill="#181818" points="537.5,321.9883,527.5,325.9883,537.5,329.9883,533.5,325.9883" style="stroke:#181818;stroke-width:1.0;"/><line style="stroke:#181818;stroke-width:1.0;stroke-dasharray:2.0,2.0;" x1="531.5" x2="1110.5" y1="325.9883" y2="325.9883"/><text fill="#000000" font-family="sans-serif" font-size="13" lengthAdjust="spacing" textLength="75" x="543.5" y="320.7256">customerList</text><polygon fill="#181818" points="311.5,353.2793,301.5,357.2793,311.5,361.2793,307.5,357.2793" style="stroke:#181818;stroke-width:1.0;"/><line style="stroke:#181818;stroke-width:1.0;stroke-dasharray:2.0,2.0;" x1="305.5" x2="520.5" y1="357.2793" y2="357.2793"/><text fill="#000000" font-family="sans-serif" font-size="13" lengthAdjust="spacing" textLength="75" x="317.5" y="352.0166">customerList</text><polygon fill="#181818" points="84.5,401.8613,74.5,405.8613,84.5,409.8613,80.5,405.8613" style="stroke:#181818;stroke-width:1.0;"/><line style="stroke:#181818;stroke-width:1.0;stroke-dasharray:2.0,2.0;" x1="78.5" x2="289.5" y1="405.8613" y2="405.8613"/><text fill="#000000" font-family="sans-serif" font-size="13" lengthAdjust="spacing" textLength="140" x="90.5" y="383.3076">Show custumer list, and</text><text fill="#000000" font-family="sans-serif" font-size="13" lengthAdjust="spacing" textLength="160" x="94.5" y="400.5986">ask JobOpening information</text><polygon fill="#181818" points="278.5,485.0254,288.5,489.0254,278.5,493.0254,282.5,489.0254" style="stroke:#181818;stroke-width:1.0;"/><line style="stroke:#181818;stroke-width:1.0;" x1="73.5" x2="284.5" y1="489.0254" y2="489.0254"/><text fill="#000000" font-family="sans-serif" font-size="13" lengthAdjust="spacing" textLength="78" x="80.5" y="431.8896">job reference,</text><text fill="#000000" font-family="sans-serif" font-size="13" lengthAdjust="spacing" textLength="130" x="84.5" y="449.1807">job title, contract type,</text><text fill="#000000" font-family="sans-serif" font-size="13" lengthAdjust="spacing" textLength="152" x="84.5" y="466.4717">mode, address, customer,</text><text fill="#000000" font-family="sans-serif" font-size="13" lengthAdjust="spacing" textLength="189" x="84.5" y="483.7627">number of vacancies, description</text><polygon fill="#181818" points="504.5,568.1895,514.5,572.1895,504.5,576.1895,508.5,572.1895" style="stroke:#181818;stroke-width:1.0;"/><line style="stroke:#181818;stroke-width:1.0;" x1="300.5" x2="510.5" y1="572.1895" y2="572.1895"/><text fill="#000000" font-family="sans-serif" font-size="13" lengthAdjust="spacing" textLength="193" x="307.5" y="515.0537">registerJobOpening(job reference,</text><text fill="#000000" font-family="sans-serif" font-size="13" lengthAdjust="spacing" textLength="130" x="311.5" y="532.3447">job title, contract type,</text><text fill="#000000" font-family="sans-serif" font-size="13" lengthAdjust="spacing" textLength="152" x="311.5" y="549.6357">mode, address, customer,</text><text fill="#000000" font-family="sans-serif" font-size="13" lengthAdjust="spacing" textLength="193" x="311.5" y="566.9268">number of vacancies, description)</text><polygon fill="#181818" points="735.5,599.4805,745.5,603.4805,735.5,607.4805,739.5,603.4805" style="stroke:#181818;stroke-width:1.0;"/><line style="stroke:#181818;stroke-width:1.0;" x1="526.5" x2="741.5" y1="603.4805" y2="603.4805"/><text fill="#000000" font-family="sans-serif" font-size="13" lengthAdjust="spacing" textLength="44" x="533.5" y="598.2178">create()</text><polygon fill="#181818" points="735.5,682.6445,745.5,686.6445,735.5,690.6445,739.5,686.6445" style="stroke:#181818;stroke-width:1.0;"/><line style="stroke:#181818;stroke-width:1.0;" x1="526.5" x2="741.5" y1="686.6445" y2="686.6445"/><text fill="#000000" font-family="sans-serif" font-size="13" lengthAdjust="spacing" textLength="105" x="533.5" y="629.5088">with(job reference,</text><text fill="#000000" font-family="sans-serif" font-size="13" lengthAdjust="spacing" textLength="130" x="537.5" y="646.7998">job title, contract type,</text><text fill="#000000" font-family="sans-serif" font-size="13" lengthAdjust="spacing" textLength="152" x="537.5" y="664.0908">mode, address, customer,</text><text fill="#000000" font-family="sans-serif" font-size="13" lengthAdjust="spacing" textLength="193" x="537.5" y="681.3818">number of vacancies, description)</text><polygon fill="#181818" points="730.5,713.9355,740.5,717.9355,730.5,721.9355,734.5,717.9355" style="stroke:#181818;stroke-width:1.0;"/><line style="stroke:#181818;stroke-width:1.0;" x1="526.5" x2="736.5" y1="717.9355" y2="717.9355"/><text fill="#000000" font-family="sans-serif" font-size="13" lengthAdjust="spacing" textLength="35" x="533.5" y="712.6729">build()</text><polygon fill="#181818" points="956.5,797.0996,966.5,801.0996,956.5,805.0996,960.5,801.0996" style="stroke:#181818;stroke-width:1.0;"/><line style="stroke:#181818;stroke-width:1.0;" x1="752.5" x2="962.5" y1="801.0996" y2="801.0996"/><text fill="#000000" font-family="sans-serif" font-size="13" lengthAdjust="spacing" textLength="122" x="759.5" y="743.9639">create (job reference,</text><text fill="#000000" font-family="sans-serif" font-size="13" lengthAdjust="spacing" textLength="130" x="763.5" y="761.2549">job title, contract type,</text><text fill="#000000" font-family="sans-serif" font-size="13" lengthAdjust="spacing" textLength="152" x="763.5" y="778.5459">mode, address, customer,</text><text fill="#000000" font-family="sans-serif" font-size="13" lengthAdjust="spacing" textLength="193" x="763.5" y="795.8369">number of vacancies, description)</text><polygon fill="#181818" points="763.5,828.3906,753.5,832.3906,763.5,836.3906,759.5,832.3906" style="stroke:#181818;stroke-width:1.0;"/><line style="stroke:#181818;stroke-width:1.0;stroke-dasharray:2.0,2.0;" x1="757.5" x2="972.5" y1="832.3906" y2="832.3906"/><text fill="#000000" font-family="sans-serif" font-size="13" lengthAdjust="spacing" textLength="17" x="769.5" y="827.1279">job</text><polygon fill="#181818" points="537.5,859.6816,527.5,863.6816,537.5,867.6816,533.5,863.6816" style="stroke:#181818;stroke-width:1.0;"/><line style="stroke:#181818;stroke-width:1.0;stroke-dasharray:2.0,2.0;" x1="531.5" x2="746.5" y1="863.6816" y2="863.6816"/><text fill="#000000" font-family="sans-serif" font-size="13" lengthAdjust="spacing" textLength="17" x="543.5" y="858.4189">job</text><polygon fill="#181818" points="1244,890.9727,1254,894.9727,1244,898.9727,1248,894.9727" style="stroke:#181818;stroke-width:1.0;"/><line style="stroke:#181818;stroke-width:1.0;" x1="526.5" x2="1250" y1="894.9727" y2="894.9727"/><text fill="#000000" font-family="sans-serif" font-size="13" lengthAdjust="spacing" textLength="75" x="533.5" y="889.71">repositories()</text><polygon fill="#181818" points="1712,922.2637,1722,926.2637,1712,930.2637,1716,926.2637" style="stroke:#181818;stroke-width:1.0;"/><line style="stroke:#181818;stroke-width:1.0;" x1="1266" x2="1718" y1="926.2637" y2="926.2637"/><text fill="#000000" font-family="sans-serif" font-size="13" lengthAdjust="spacing" textLength="36" x="1273" y="921.001">create</text><polygon fill="#181818" points="537.5,953.5547,527.5,957.5547,537.5,961.5547,533.5,957.5547" style="stroke:#181818;stroke-width:1.0;"/><line style="stroke:#181818;stroke-width:1.0;stroke-dasharray:2.0,2.0;" x1="531.5" x2="1260" y1="957.5547" y2="957.5547"/><text fill="#000000" font-family="sans-serif" font-size="13" lengthAdjust="spacing" textLength="39" x="543.5" y="952.292">factory</text><polygon fill="#181818" points="1707,984.8457,1717,988.8457,1707,992.8457,1711,988.8457" style="stroke:#181818;stroke-width:1.0;"/><line style="stroke:#181818;stroke-width:1.0;" x1="526.5" x2="1713" y1="988.8457" y2="988.8457"/><text fill="#000000" font-family="sans-serif" font-size="13" lengthAdjust="spacing" textLength="32" x="533.5" y="983.583">jobs()</text><polygon fill="#181818" points="1431,1016.1367,1421,1020.1367,1431,1024.1367,1427,1020.1367" style="stroke:#181818;stroke-width:1.0;"/><line style="stroke:#181818;stroke-width:1.0;" x1="1425" x2="1718" y1="1020.1367" y2="1020.1367"/><text fill="#000000" font-family="sans-serif" font-size="13" lengthAdjust="spacing" textLength="36" x="1437" y="1014.874">create</text><polygon fill="#181818" points="537.5,1047.4277,527.5,1051.4277,537.5,1055.4277,533.5,1051.4277" style="stroke:#181818;stroke-width:1.0;"/><line style="stroke:#181818;stroke-width:1.0;stroke-dasharray:2.0,2.0;" x1="531.5" x2="1723" y1="1051.4277" y2="1051.4277"/><text fill="#000000" font-family="sans-serif" font-size="13" lengthAdjust="spacing" textLength="39" x="543.5" y="1046.165">JORep</text><polygon fill="#181818" points="1408,1078.7188,1418,1082.7188,1408,1086.7188,1412,1082.7188" style="stroke:#181818;stroke-width:1.0;"/><line style="stroke:#181818;stroke-width:1.0;" x1="526.5" x2="1414" y1="1082.7188" y2="1082.7188"/><text fill="#000000" font-family="sans-serif" font-size="13" lengthAdjust="spacing" textLength="51" x="533.5" y="1077.4561">save(job)</text><polygon fill="#181818" points="311.5,1110.0098,301.5,1114.0098,311.5,1118.0098,307.5,1114.0098" style="stroke:#181818;stroke-width:1.0;"/><line style="stroke:#181818;stroke-width:1.0;stroke-dasharray:2.0,2.0;" x1="305.5" x2="520.5" y1="1114.0098" y2="1114.0098"/><text fill="#000000" font-family="sans-serif" font-size="13" lengthAdjust="spacing" textLength="113" x="317.5" y="1108.7471">operations success</text><polygon fill="#181818" points="84.5,1141.3008,74.5,1145.3008,84.5,1149.3008,80.5,1145.3008" style="stroke:#181818;stroke-width:1.0;"/><line style="stroke:#181818;stroke-width:1.0;stroke-dasharray:2.0,2.0;" x1="78.5" x2="294.5" y1="1145.3008" y2="1145.3008"/><text fill="#000000" font-family="sans-serif" font-size="13" lengthAdjust="spacing" textLength="175" x="90.5" y="1140.0381">display operation success Info</text><!--SRC=[nLJBRjim4BppAnO-sO0D63tc421DKC11WHGHVEk5fjOsQubKIIgk_xvBKfAfLu_fnP39sPtP1yTUfAguuIMKMcbnDhf4SAP6PhkRYeiBFs7cRWM2GU6uEXKfm9vvhgzIdU382ukCEUa8ck7l6fL0U97yv77Bx6K56zXdy6MxtNB661TE6rWyrzOHiO6IAs8o2-0MzXOD8m8dXQouSh1unvEq3ishFhnLg8XmlulGNH_uC4O-Q-MCBeec-Vtl8F8UyRMMHTx0c-y-zfS-9F20osvsRraVrXRtZfMsakgzHGNqlm_yWSPwrTGoBm__k00S7yzA7b2ylequPkfxdYpmdkvR65JCwdFwmSaFxZ1EYVbVs3pI8E21ra5VbwiKisDqqLxdEci0yV0-2heK1YbYvl8eLVvK54y-hyTq1CaqMH91yQ7D_mmDvGJKPYIccTntQZ_BiOtfSxHbpO9ZAHvcGrPVVK3NVkCBWg-1g_odekPUu3uVaEgeJScTr6hGOQ3LevTuHEEtOasX_Y2ykZK8BuxemTsgS5Vgd8vvdXkqTjq9zLUgBW-KLn_XWmkkX4G2v6Y5aLN3Enw36JskvMVfcPdvOEZDClVMQGvnbUxyYVBdXHpyLxgPxPDaBORWmL-wkk1_zBsnkAXaqok1o9FDRv6T_E4U3U1TlVqEZUqlh63ZJ2GqxTc4LxA919GssaBiupHcv3xH0rF9KtHzzP66Akt939uJBESncdGYPTA9efCdpD6rUbHj8il9uOXnDUrJka8JFCM2hOMWLKZpzbxLoBfoQQk2t-uvsXIm8wzAyv3bC_ON]--></g></svg>