<?xml version="1.0" encoding="us-ascii" standalone="no"?><svg xmlns="http://www.w3.org/2000/svg" xmlns:xlink="http://www.w3.org/1999/xlink" contentStyleType="text/css" height="880px" preserveAspectRatio="none" style="width:986px;height:880px;background:#FFFFFF;" version="1.1" viewBox="0 0 986 880" width="986px" zoomAndPan="magnify"><defs/><g><text fill="#000000" font-family="sans-serif" font-size="14" font-weight="bold" lengthAdjust="spacing" textLength="100" x="436" y="25.1074">Domain Model</text><!--cluster JobOpeningAggregate--><g id="cluster_JobOpeningAggregate"><path d="M321.5,216.6348 L481.5,216.6348 A3.75,3.75 0 0 1 484,219.1348 L491,241.2559 L611.5,241.2559 A2.5,2.5 0 0 1 614,243.7559 L614,755.1348 A2.5,2.5 0 0 1 611.5,757.6348 L321.5,757.6348 A2.5,2.5 0 0 1 319,755.1348 L319,219.1348 A2.5,2.5 0 0 1 321.5,216.6348 " fill="none" style="stroke:#000000;stroke-width:1.5;"/><line style="stroke:#000000;stroke-width:1.5;" x1="319" x2="491" y1="241.2559" y2="241.2559"/><text fill="#000000" font-family="sans-serif" font-size="14" font-weight="bold" lengthAdjust="spacing" textLength="159" x="323" y="233.7422">JobOpeningAggregate</text></g><!--cluster ApplicationAggregate--><g id="cluster_ApplicationAggregate"><path d="M8.5,45.6348 L160.5,45.6348 A3.75,3.75 0 0 1 163,48.1348 L170,70.2559 L292.5,70.2559 A2.5,2.5 0 0 1 295,72.7559 L295,468.1348 A2.5,2.5 0 0 1 292.5,470.6348 L8.5,470.6348 A2.5,2.5 0 0 1 6,468.1348 L6,48.1348 A2.5,2.5 0 0 1 8.5,45.6348 " fill="none" style="stroke:#000000;stroke-width:1.5;"/><line style="stroke:#000000;stroke-width:1.5;" x1="6" x2="170" y1="70.2559" y2="70.2559"/><text fill="#000000" font-family="sans-serif" font-size="14" font-weight="bold" lengthAdjust="spacing" textLength="151" x="10" y="62.7422">ApplicationAggregate</text></g><!--cluster PluginAggregate--><g id="cluster_PluginAggregate"><path d="M640.5,503.6348 L758.5,503.6348 A3.75,3.75 0 0 1 761,506.1348 L768,528.2559 L976.5,528.2559 A2.5,2.5 0 0 1 979,530.7559 L979,871.1348 A2.5,2.5 0 0 1 976.5,873.6348 L640.5,873.6348 A2.5,2.5 0 0 1 638,871.1348 L638,506.1348 A2.5,2.5 0 0 1 640.5,503.6348 " fill="none" style="stroke:#000000;stroke-width:1.5;"/><line style="stroke:#000000;stroke-width:1.5;" x1="638" x2="768" y1="528.2559" y2="528.2559"/><text fill="#000000" font-family="sans-serif" font-size="14" font-weight="bold" lengthAdjust="spacing" textLength="117" x="642" y="520.7422">PluginAggregate</text></g><!--class JobOpening--><g id="elem_JobOpening"><rect codeLine="9" fill="#F1F1F1" height="68.543" id="JobOpening" rx="2.5" ry="2.5" style="stroke:#181818;stroke-width:0.5;" width="82" x="488" y="253.6348"/><text fill="#000000" font-family="sans-serif" font-size="12" font-style="italic" lengthAdjust="spacing" textLength="44" x="507" y="271.584">&#171;Entity&#187;</text><text fill="#000000" font-family="sans-serif" font-size="12" font-style="italic" lengthAdjust="spacing" textLength="35" x="511.5" y="287.5449">&#171;root&#187;</text><text fill="#000000" font-family="sans-serif" font-size="14" lengthAdjust="spacing" textLength="76" x="491" y="305.6641">JobOpening</text><line style="stroke:#181818;stroke-width:0.5;" x1="489" x2="569" y1="314.1777" y2="314.1777"/></g><!--class JobOpeningState--><g id="elem_JobOpeningState"><rect codeLine="11" fill="#F1F1F1" height="52.582" id="JobOpeningState" rx="2.5" ry="2.5" style="stroke:#181818;stroke-width:0.5;" width="115" x="336.5" y="261.6348"/><text fill="#000000" font-family="sans-serif" font-size="12" font-style="italic" lengthAdjust="spacing" textLength="82" x="353" y="279.584">&#171;ValueObject&#187;</text><text fill="#000000" font-family="sans-serif" font-size="14" lengthAdjust="spacing" textLength="109" x="339.5" y="297.7031">JobOpeningState</text><line style="stroke:#181818;stroke-width:0.5;" x1="337.5" x2="450.5" y1="306.2168" y2="306.2168"/></g><!--class JobReference--><g id="elem_JobReference"><rect codeLine="12" fill="#F1F1F1" height="52.582" id="JobReference" rx="2.5" ry="2.5" style="stroke:#181818;stroke-width:0.5;" width="94" x="335" y="401.6348"/><text fill="#000000" font-family="sans-serif" font-size="12" font-style="italic" lengthAdjust="spacing" textLength="85" x="339.5" y="419.584">&#171;Value Object&#187;</text><text fill="#000000" font-family="sans-serif" font-size="14" lengthAdjust="spacing" textLength="88" x="338" y="437.7031">JobReference</text><line style="stroke:#181818;stroke-width:0.5;" x1="336" x2="428" y1="446.2168" y2="446.2168"/></g><!--class RecruitmentProcess--><g id="elem_RecruitmentProcess"><rect codeLine="13" fill="#F1F1F1" height="52.582" id="RecruitmentProcess" rx="2.5" ry="2.5" style="stroke:#181818;stroke-width:0.5;" width="133" x="464.5" y="401.6348"/><text fill="#000000" font-family="sans-serif" font-size="12" font-style="italic" lengthAdjust="spacing" textLength="44" x="509" y="419.584">&#171;Entity&#187;</text><text fill="#000000" font-family="sans-serif" font-size="14" lengthAdjust="spacing" textLength="127" x="467.5" y="437.7031">RecruitmentProcess</text><line style="stroke:#181818;stroke-width:0.5;" x1="465.5" x2="596.5" y1="446.2168" y2="446.2168"/></g><!--class Phase--><g id="elem_Phase"><rect codeLine="14" fill="#F1F1F1" height="52.582" id="Phase" rx="2.5" ry="2.5" style="stroke:#181818;stroke-width:0.5;" width="46" x="478" y="548.6348"/><text fill="#000000" font-family="sans-serif" font-size="12" font-style="italic" lengthAdjust="spacing" textLength="44" x="479" y="566.584">&#171;Entity&#187;</text><text fill="#000000" font-family="sans-serif" font-size="14" lengthAdjust="spacing" textLength="40" x="481" y="584.7031">Phase</text><line style="stroke:#181818;stroke-width:0.5;" x1="479" x2="523" y1="593.2168" y2="593.2168"/></g><!--class PhaseName--><g id="elem_PhaseName"><rect codeLine="15" fill="#F1F1F1" height="52.582" id="PhaseName" rx="2.5" ry="2.5" style="stroke:#181818;stroke-width:0.5;" width="84" x="350" y="688.6348"/><text fill="#000000" font-family="sans-serif" font-size="12" font-style="italic" lengthAdjust="spacing" textLength="82" x="351" y="706.584">&#171;ValueObject&#187;</text><text fill="#000000" font-family="sans-serif" font-size="14" lengthAdjust="spacing" textLength="76" x="354" y="724.7031">PhaseName</text><line style="stroke:#181818;stroke-width:0.5;" x1="351" x2="433" y1="733.2168" y2="733.2168"/></g><!--class PhaseState--><g id="elem_PhaseState"><rect codeLine="16" fill="#F1F1F1" height="52.582" id="PhaseState" rx="2.5" ry="2.5" style="stroke:#181818;stroke-width:0.5;" width="84" x="469" y="688.6348"/><text fill="#000000" font-family="sans-serif" font-size="12" font-style="italic" lengthAdjust="spacing" textLength="82" x="470" y="706.584">&#171;ValueObject&#187;</text><text fill="#000000" font-family="sans-serif" font-size="14" lengthAdjust="spacing" textLength="73" x="474.5" y="724.7031">PhaseState</text><line style="stroke:#181818;stroke-width:0.5;" x1="470" x2="552" y1="733.2168" y2="733.2168"/></g><!--class Application--><g id="elem_Application"><rect codeLine="22" fill="#F1F1F1" height="68.543" id="Application" rx="2.5" ry="2.5" style="stroke:#181818;stroke-width:0.5;" width="75" x="144.5" y="82.6348"/><text fill="#000000" font-family="sans-serif" font-size="12" font-style="italic" lengthAdjust="spacing" textLength="44" x="160" y="100.584">&#171;Entity&#187;</text><text fill="#000000" font-family="sans-serif" font-size="12" font-style="italic" lengthAdjust="spacing" textLength="35" x="164.5" y="116.5449">&#171;root&#187;</text><text fill="#000000" font-family="sans-serif" font-size="14" lengthAdjust="spacing" textLength="69" x="147.5" y="134.6641">Application</text><line style="stroke:#181818;stroke-width:0.5;" x1="145.5" x2="218.5" y1="143.1777" y2="143.1777"/></g><!--class Interview--><g id="elem_Interview"><rect codeLine="23" fill="#F1F1F1" height="52.582" id="Interview" rx="2.5" ry="2.5" style="stroke:#181818;stroke-width:0.5;" width="61" x="47.5" y="261.6348"/><text fill="#000000" font-family="sans-serif" font-size="12" font-style="italic" lengthAdjust="spacing" textLength="44" x="56" y="279.584">&#171;Entity&#187;</text><text fill="#000000" font-family="sans-serif" font-size="14" lengthAdjust="spacing" textLength="55" x="50.5" y="297.7031">Interview</text><line style="stroke:#181818;stroke-width:0.5;" x1="48.5" x2="107.5" y1="306.2168" y2="306.2168"/></g><!--class Score--><g id="elem_Score"><rect codeLine="24" fill="#F1F1F1" height="52.582" id="Score" rx="2.5" ry="2.5" style="stroke:#181818;stroke-width:0.5;" width="84" x="22" y="401.6348"/><text fill="#000000" font-family="sans-serif" font-size="12" font-style="italic" lengthAdjust="spacing" textLength="82" x="23" y="419.584">&#171;ValueObject&#187;</text><text fill="#000000" font-family="sans-serif" font-size="14" lengthAdjust="spacing" textLength="37" x="45.5" y="437.7031">Score</text><line style="stroke:#181818;stroke-width:0.5;" x1="23" x2="105" y1="446.2168" y2="446.2168"/></g><!--class ApplicationState--><g id="elem_ApplicationState"><rect codeLine="25" fill="#F1F1F1" height="52.582" id="ApplicationState" rx="2.5" ry="2.5" style="stroke:#181818;stroke-width:0.5;" width="108" x="144" y="261.6348"/><text fill="#000000" font-family="sans-serif" font-size="12" font-style="italic" lengthAdjust="spacing" textLength="82" x="157" y="279.584">&#171;ValueObject&#187;</text><text fill="#000000" font-family="sans-serif" font-size="14" lengthAdjust="spacing" textLength="102" x="147" y="297.7031">ApplicationState</text><line style="stroke:#181818;stroke-width:0.5;" x1="145" x2="251" y1="306.2168" y2="306.2168"/></g><!--class InterviewAnswersFile--><g id="elem_InterviewAnswersFile"><rect codeLine="26" fill="#F1F1F1" height="52.582" id="InterviewAnswersFile" rx="2.5" ry="2.5" style="stroke:#181818;stroke-width:0.5;" width="137" x="141.5" y="401.6348"/><text fill="#000000" font-family="sans-serif" font-size="12" font-style="italic" lengthAdjust="spacing" textLength="82" x="169" y="419.584">&#171;ValueObject&#187;</text><text fill="#000000" font-family="sans-serif" font-size="14" lengthAdjust="spacing" textLength="131" x="144.5" y="437.7031">InterviewAnswersFile</text><line style="stroke:#181818;stroke-width:0.5;" x1="142.5" x2="277.5" y1="446.2168" y2="446.2168"/></g><!--class Plugin--><g id="elem_Plugin"><rect codeLine="31" fill="#F1F1F1" height="68.543" id="Plugin" rx="2.5" ry="2.5" style="stroke:#181818;stroke-width:0.5;" width="46" x="660" y="540.6348"/><text fill="#000000" font-family="sans-serif" font-size="12" font-style="italic" lengthAdjust="spacing" textLength="44" x="661" y="558.584">&#171;Entity&#187;</text><text fill="#000000" font-family="sans-serif" font-size="12" font-style="italic" lengthAdjust="spacing" textLength="35" x="665.5" y="574.5449">&#171;root&#187;</text><text fill="#000000" font-family="sans-serif" font-size="14" lengthAdjust="spacing" textLength="39" x="663.5" y="592.6641">Plugin</text><line style="stroke:#181818;stroke-width:0.5;" x1="661" x2="705" y1="601.1777" y2="601.1777"/></g><!--class PluginType--><g id="elem_PluginType"><rect codeLine="33" fill="#F1F1F1" height="52.582" id="PluginType" rx="2.5" ry="2.5" style="stroke:#181818;stroke-width:0.5;" width="87" x="660.5" y="688.6348"/><text fill="#000000" font-family="sans-serif" font-size="12" font-style="italic" lengthAdjust="spacing" textLength="85" x="661.5" y="706.584">&#171;Value Object&#187;</text><text fill="#000000" font-family="sans-serif" font-size="14" lengthAdjust="spacing" textLength="71" x="668.5" y="724.7031">PluginType</text><line style="stroke:#181818;stroke-width:0.5;" x1="661.5" x2="746.5" y1="733.2168" y2="733.2168"/></g><!--class InterviewModel--><g id="elem_InterviewModel"><rect codeLine="34" fill="#F1F1F1" height="52.582" id="InterviewModel" rx="2.5" ry="2.5" style="stroke:#181818;stroke-width:0.5;" width="99" x="654.5" y="804.6348"/><text fill="#000000" font-family="sans-serif" font-size="12" font-style="italic" lengthAdjust="spacing" textLength="85" x="661.5" y="822.584">&#171;Value Object&#187;</text><text fill="#000000" font-family="sans-serif" font-size="14" lengthAdjust="spacing" textLength="93" x="657.5" y="840.7031">InterviewModel</text><line style="stroke:#181818;stroke-width:0.5;" x1="655.5" x2="752.5" y1="849.2168" y2="849.2168"/></g><!--class RequirementsSpecification--><g id="elem_RequirementsSpecification"><rect codeLine="35" fill="#F1F1F1" height="52.582" id="RequirementsSpecification" rx="2.5" ry="2.5" style="stroke:#181818;stroke-width:0.5;" width="174" x="789" y="804.6348"/><text fill="#000000" font-family="sans-serif" font-size="12" font-style="italic" lengthAdjust="spacing" textLength="85" x="833.5" y="822.584">&#171;Value Object&#187;</text><text fill="#000000" font-family="sans-serif" font-size="14" lengthAdjust="spacing" textLength="168" x="792" y="840.7031">RequirementsSpecification</text><line style="stroke:#181818;stroke-width:0.5;" x1="790" x2="962" y1="849.2168" y2="849.2168"/></g><!--link Plugin to PluginType--><g id="link_Plugin_PluginType"><path codeLine="39" d="M688.14,609.8948 C691.55,632.3548 696.01,661.6148 699.33,683.4148 " fill="none" id="Plugin-to-PluginType" style="stroke:#181818;stroke-width:1.0;"/><polygon fill="#181818" points="700.1,688.5148,702.6912,679.0129,699.3429,683.5724,694.7834,680.2242,700.1,688.5148" style="stroke:#181818;stroke-width:1.0;"/><text fill="#000000" font-family="sans-serif" font-size="13" lengthAdjust="spacing" textLength="96" x="696" y="654.6631">characterized by</text><text fill="#000000" font-family="sans-serif" font-size="13" lengthAdjust="spacing" textLength="7" x="681.4116" y="631.15">1</text><text fill="#000000" font-family="sans-serif" font-size="13" lengthAdjust="spacing" textLength="7" x="691.3888" y="677.5036">1</text></g><!--reverse link PluginType to RequirementsSpecification--><g id="link_PluginType_RequirementsSpecification"><path codeLine="40" d="M759.39,752.8448 C784.78,769.6748 814.26,789.2148 837.23,804.4348 " fill="none" id="PluginType-backto-RequirementsSpecification" style="stroke:#181818;stroke-width:1.0;"/><polygon fill="none" points="755.4,758.6048,742.6,741.7148,763.14,746.9348,755.4,758.6048" style="stroke:#181818;stroke-width:1.0;"/></g><!--reverse link PluginType to InterviewModel--><g id="link_PluginType_InterviewModel"><path codeLine="41" d="M704,761.7148 C704,776.1848 704,791.6648 704,804.2448 " fill="none" id="PluginType-backto-InterviewModel" style="stroke:#181818;stroke-width:1.0;"/><polygon fill="none" points="697,761.7148,704,741.7148,711,761.7148,697,761.7148" style="stroke:#181818;stroke-width:1.0;"/></g><!--link JobOpening to JobReference--><g id="link_JobOpening_JobReference"><path codeLine="44" d="M487.8,320.2848 C475.32,330.2348 461.8,341.5548 450,352.6348 C435.06,366.6648 419.58,383.4248 407.16,397.5048 " fill="none" id="JobOpening-to-JobReference" style="stroke:#181818;stroke-width:1.0;"/><polygon fill="#181818" points="403.75,401.3948,412.6946,397.2724,407.0496,397.6381,406.6839,391.9931,403.75,401.3948" style="stroke:#181818;stroke-width:1.0;"/><text fill="#000000" font-family="sans-serif" font-size="13" lengthAdjust="spacing" textLength="69" x="451" y="367.6631">identified by</text><text fill="#000000" font-family="sans-serif" font-size="13" lengthAdjust="spacing" textLength="22" x="459.4245" y="321.3148">0..1</text><text fill="#000000" font-family="sans-serif" font-size="13" lengthAdjust="spacing" textLength="7" x="400.9703" y="390.3558">1</text></g><!--link JobOpening to Plugin--><g id="link_JobOpening_Plugin"><path codeLine="45" d="M558.26,322.8848 C566.17,332.3548 574.58,342.7648 582,352.6348 C597.77,373.6348 602.78,378.3948 615,401.6348 C638.2,445.7648 658.22,499.6348 670.41,535.3148 " fill="none" id="JobOpening-to-Plugin" style="stroke:#181818;stroke-width:1.0;"/><polygon fill="#181818" points="672.16,540.4348,673.0733,530.6283,670.5617,535.6971,665.493,533.1855,672.16,540.4348" style="stroke:#181818;stroke-width:1.0;"/><text fill="#000000" font-family="sans-serif" font-size="13" lengthAdjust="spacing" textLength="42" x="650" y="433.6631">selects</text><text fill="#000000" font-family="sans-serif" font-size="13" lengthAdjust="spacing" textLength="5" x="557.6921" y="344.1383">*</text><text fill="#000000" font-family="sans-serif" font-size="13" lengthAdjust="spacing" textLength="22" x="645.9967" y="529.2994">0..2</text></g><!--link JobOpening to RecruitmentProcess--><g id="link_JobOpening_RecruitmentProcess"><path codeLine="46" d="M529.49,322.8948 C529.81,345.3548 530.24,374.6148 530.55,396.4148 " fill="none" id="JobOpening-to-RecruitmentProcess" style="stroke:#181818;stroke-width:1.0;"/><polygon fill="#181818" points="530.63,401.5148,534.501,392.4585,530.5586,396.5153,526.5018,392.5728,530.63,401.5148" style="stroke:#181818;stroke-width:1.0;"/><text fill="#000000" font-family="sans-serif" font-size="13" lengthAdjust="spacing" textLength="42" x="531" y="367.6631">selects</text><text fill="#000000" font-family="sans-serif" font-size="13" lengthAdjust="spacing" textLength="5" x="524.1571" y="344.15">*</text><text fill="#000000" font-family="sans-serif" font-size="13" lengthAdjust="spacing" textLength="22" x="506.0007" y="390.5036">0..1</text></g><!--link Application to JobOpening--><g id="link_Application_JobOpening"><path codeLine="49" d="M219.61,122.6148 C277.71,131.0748 390.73,153.7248 469,208.6348 C484.02,219.1748 496.96,234.6048 506.94,249.0048 " fill="none" id="Application-to-JobOpening" style="stroke:#181818;stroke-width:1.0;"/><polygon fill="#181818" points="509.94,253.4248,508.1915,243.7324,507.1304,249.2888,501.574,248.2277,509.94,253.4248" style="stroke:#181818;stroke-width:1.0;"/><text fill="#000000" font-family="sans-serif" font-size="13" lengthAdjust="spacing" textLength="75" x="456" y="196.6631">submitted for</text><text fill="#000000" font-family="sans-serif" font-size="13" lengthAdjust="spacing" textLength="5" x="227.5067" y="119.1222">*</text><text fill="#000000" font-family="sans-serif" font-size="13" lengthAdjust="spacing" textLength="7" x="498.6395" y="242.2875">1</text></g><!--link Application to Interview--><g id="link_Application_Interview"><path codeLine="50" d="M159.86,151.9348 C153.69,161.4948 147.02,171.9348 141,181.6348 C125.34,206.8448 108.1,235.8048 95.62,257.0048 " fill="none" id="Application-to-Interview" style="stroke:#181818;stroke-width:1.0;"/><polygon fill="#181818" points="93.03,261.4048,101.0318,255.6627,95.5582,257.0911,94.1299,251.6175,93.03,261.4048" style="stroke:#181818;stroke-width:1.0;"/><text fill="#000000" font-family="sans-serif" font-size="13" lengthAdjust="spacing" textLength="38" x="142" y="196.6631">origins</text><text fill="#000000" font-family="sans-serif" font-size="13" lengthAdjust="spacing" textLength="7" x="148.6134" y="173.1966">1</text><text fill="#000000" font-family="sans-serif" font-size="13" lengthAdjust="spacing" textLength="22" x="71.9619" y="250.3681">0..1</text></g><!--link Application to ApplicationState--><g id="link_Application_ApplicationState"><path codeLine="51" d="M185.2,151.9248 C188.08,182.3048 192.27,226.5548 195.06,256.0648 " fill="none" id="Application-to-ApplicationState" style="stroke:#181818;stroke-width:1.0;"/><polygon fill="#181818" points="195.56,261.4048,198.6925,252.0673,195.088,256.4271,190.7282,252.8226,195.56,261.4048" style="stroke:#181818;stroke-width:1.0;"/><text fill="#000000" font-family="sans-serif" font-size="13" lengthAdjust="spacing" textLength="95" x="191" y="196.6631">presents itself in</text><text fill="#000000" font-family="sans-serif" font-size="13" lengthAdjust="spacing" textLength="7" x="178.1503" y="173.1849">1</text><text fill="#000000" font-family="sans-serif" font-size="13" lengthAdjust="spacing" textLength="7" x="187.1864" y="250.3681">1</text></g><!--link Interview to Score--><g id="link_Interview_Score"><path codeLine="54" d="M75.4,314.7648 C73.07,337.7648 69.64,371.5648 67.15,396.0848 " fill="none" id="Interview-to-Score" style="stroke:#181818;stroke-width:1.0;"/><polygon fill="#181818" points="66.63,401.1748,71.5349,392.6341,67.1445,396.2013,63.5773,391.8109,66.63,401.1748" style="stroke:#181818;stroke-width:1.0;"/><text fill="#000000" font-family="sans-serif" font-size="13" lengthAdjust="spacing" textLength="75" x="73" y="367.6631">is marked by</text><text fill="#000000" font-family="sans-serif" font-size="13" lengthAdjust="spacing" textLength="7" x="67.1419" y="336.1118">1</text><text fill="#000000" font-family="sans-serif" font-size="13" lengthAdjust="spacing" textLength="22" x="42.7991" y="390.5238">0..1</text></g><!--link Interview to InterviewAnswersFile--><g id="link_Interview_InterviewAnswersFile"><path codeLine="55" d="M108.55,310.5648 C123.94,322.1148 142.39,337.1448 157,352.6348 C169.73,366.1348 181.89,382.8448 191.34,397.0148 " fill="none" id="Interview-to-InterviewAnswersFile" style="stroke:#181818;stroke-width:1.0;"/><polygon fill="#181818" points="194.18,401.3248,192.5544,391.611,191.423,397.1536,185.8804,396.0222,194.18,401.3248" style="stroke:#181818;stroke-width:1.0;"/><text fill="#000000" font-family="sans-serif" font-size="13" lengthAdjust="spacing" textLength="53" x="173" y="367.6631">results in</text><text fill="#000000" font-family="sans-serif" font-size="13" lengthAdjust="spacing" textLength="7" x="116.4241" y="310.8964">1</text><text fill="#000000" font-family="sans-serif" font-size="13" lengthAdjust="spacing" textLength="22" x="165.9779" y="390.2696">0..1</text></g><!--reverse link RecruitmentProcess to Phase--><g id="link_RecruitmentProcess_Phase"><path codeLine="61" d="M523.03,467.6648 C517.75,493.1648 510.98,525.9148 506.34,548.3148 " fill="none" id="RecruitmentProcess-backto-Phase" style="stroke:#181818;stroke-width:1.0;"/><polygon fill="#181818" points="525.71,454.7248,520.5792,459.7918,523.2831,466.4768,528.4139,461.4097,525.71,454.7248" style="stroke:#181818;stroke-width:1.0;"/></g><!--link Phase to PhaseName--><g id="link_Phase_PhaseName"><path codeLine="62" d="M480.75,601.7648 C462.36,625.0548 435.22,659.4148 415.8,684.0048 " fill="none" id="Phase-to-PhaseName" style="stroke:#181818;stroke-width:1.0;"/><polygon fill="#181818" points="412.51,688.1748,421.2252,683.5873,415.6073,684.2496,414.945,678.6317,412.51,688.1748" style="stroke:#181818;stroke-width:1.0;"/><text fill="#000000" font-family="sans-serif" font-size="13" lengthAdjust="spacing" textLength="39" x="450" y="654.6631">named</text><text fill="#000000" font-family="sans-serif" font-size="13" lengthAdjust="spacing" textLength="7" x="468.8516" y="623.1118">1</text><text fill="#000000" font-family="sans-serif" font-size="13" lengthAdjust="spacing" textLength="7" x="409.2309" y="677.5238">1</text></g><!--link Phase to PhaseState--><g id="link_Phase_PhaseState"><path codeLine="63" d="M502.86,601.7648 C504.52,624.7648 506.97,658.5648 508.75,683.0848 " fill="none" id="Phase-to-PhaseState" style="stroke:#181818;stroke-width:1.0;"/><polygon fill="#181818" points="509.12,688.1748,512.4403,678.9025,508.7485,683.1886,504.4624,679.4968,509.12,688.1748" style="stroke:#181818;stroke-width:1.0;"/><text fill="#000000" font-family="sans-serif" font-size="13" lengthAdjust="spacing" textLength="95" x="507" y="654.6631">presents itself in</text><text fill="#000000" font-family="sans-serif" font-size="13" lengthAdjust="spacing" textLength="7" x="495.5218" y="623.1118">1</text><text fill="#000000" font-family="sans-serif" font-size="13" lengthAdjust="spacing" textLength="7" x="500.9431" y="677.5238">1</text></g><!--SRC=[XLHDRzim3BthLn2v52YGOjqnC0m4s0PqmDQW6NRQHP5fcuqiUPAy8ilstqV7zLTiTxx8jXxv7fz8tVWZcL8wMO0cW-5K8bWNSYjkDAO1WWL7MHuW8OSga3KYfmH1aLCQc_S26Pzu4IXeX0-sa6JWYqrG2r5ATPGPmcTxU2pHaCcsMUOmam7XB8JIqll19aJHHyDvJd4CFmn_EMj379_5tmbq7-eSKVHTwWeV3y-iBevxr1EcwD2e3W8j1ivjiYTKhg9Ge0axPnNohvw_G-rowN5nuwiibbHSzkTbSZsTDTkorAHaxUsCDuFT9NDQFGyceFj5-3AZTQ-iMz8ve7ZBr2xzrlWNTFuJwIcKw-eAs-ager5DhxvS_l_tg1lOjxeZ9sTuBUdIRTUWmJd_hBXzwtFs-n8LfRsZav2wWbU5g_iLhDVnPHsesO3AUM8KSzDlJE1m4eFTwCzwlSmuGOvBOEx1CApUtTqD98owUWCyUknVIes2OTXj7LC7SVpxLZf7UDHSfPzYuvPgPYBwC266pTX5DihQX0ol3WM5mB9IwyOXzoEohdGEidpBaF7pS5udFRg1qg6l_GKAh305Cgomptb5rWm0k-QXaExOcBQ8dktr3J1ZfMl6cegV6Rjk-KmlWo-QUsFKGzs5iG73IxA4URF4Vm00]--></g></svg>