<?xml version="1.0" encoding="UTF-8" standalone="no"?><svg xmlns="http://www.w3.org/2000/svg" xmlns:xlink="http://www.w3.org/1999/xlink" contentStyleType="text/css" height="1965px" preserveAspectRatio="none" style="width:2251px;height:1965px;background:#FFFFFF;" version="1.1" viewBox="0 0 2251 1965" width="2251px" zoomAndPan="magnify"><defs/><g><text fill="#000000" font-family="sans-serif" font-size="14" font-weight="bold" lengthAdjust="spacing" textLength="244" x="1002.5" y="28.5352">Sequence Diagram (SD) - US 2002</text><rect fill="#FFFFFF" height="1731.9609" style="stroke:#181818;stroke-width:1.0;" width="10" x="46" y="136.043"/><rect fill="#FFFFFF" height="1633.2969" style="stroke:#181818;stroke-width:1.0;" width="10" x="367" y="234.707"/><rect fill="#FFFFFF" height="614.875" style="stroke:#181818;stroke-width:1.0;" width="10" x="640" y="277.2617"/><rect fill="#FFFFFF" height="112.6641" style="stroke:#181818;stroke-width:1.0;" width="10" x="640" y="929.6914"/><rect fill="#FFFFFF" height="112.6641" style="stroke:#181818;stroke-width:1.0;" width="10" x="640" y="1155.0195"/><rect fill="#FFFFFF" height="365.9922" style="stroke:#181818;stroke-width:1.0;" width="10" x="640" y="1455.457"/><rect fill="#FFFFFF" height="75.1094" style="stroke:#181818;stroke-width:1.0;" width="10" x="900" y="314.8164"/><rect fill="#FFFFFF" height="37.5547" style="stroke:#181818;stroke-width:1.0;" width="10" x="900" y="540.1445"/><rect fill="#FFFFFF" height="37.5547" style="stroke:#181818;stroke-width:1.0;" width="10" x="900" y="727.918"/><rect fill="#FFFFFF" height="75.1094" style="stroke:#181818;stroke-width:1.0;" width="10" x="1100.5" y="427.4805"/><rect fill="#FFFFFF" height="75.1094" style="stroke:#181818;stroke-width:1.0;" width="10" x="1100.5" y="615.2539"/><rect fill="#FFFFFF" height="75.1094" style="stroke:#181818;stroke-width:1.0;" width="10" x="1100.5" y="803.0273"/><rect fill="#FFFFFF" height="14" style="stroke:#181818;stroke-width:1.0;" width="10" x="1316" y="1793.4492"/><rect fill="#FFFFFF" height="37.5547" style="stroke:#181818;stroke-width:1.0;" width="10" x="1546" y="967.2461"/><rect fill="#FFFFFF" height="37.5547" style="stroke:#181818;stroke-width:1.0;" width="10" x="1777.5" y="1192.5742"/><rect fill="#FFFFFF" height="75.1094" style="stroke:#181818;stroke-width:1.0;" width="10" x="2001" y="1680.7852"/><line style="stroke:#181818;stroke-width:0.5;stroke-dasharray:5.0,5.0;" x1="51" x2="51" y1="126.043" y2="1877.0039"/><line style="stroke:#181818;stroke-width:0.5;stroke-dasharray:5.0,5.0;" x1="372" x2="372" y1="126.043" y2="1877.0039"/><line style="stroke:#181818;stroke-width:0.5;stroke-dasharray:5.0,5.0;" x1="645" x2="645" y1="126.043" y2="1877.0039"/><line style="stroke:#181818;stroke-width:0.5;stroke-dasharray:5.0,5.0;" x1="905" x2="905" y1="126.043" y2="1877.0039"/><line style="stroke:#181818;stroke-width:0.5;stroke-dasharray:5.0,5.0;" x1="1105" x2="1105" y1="126.043" y2="1877.0039"/><line style="stroke:#181818;stroke-width:0.5;stroke-dasharray:5.0,5.0;" x1="1321" x2="1321" y1="126.043" y2="1877.0039"/><line style="stroke:#181818;stroke-width:0.5;stroke-dasharray:5.0,5.0;" x1="1551" x2="1551" y1="126.043" y2="1877.0039"/><line style="stroke:#181818;stroke-width:0.5;stroke-dasharray:5.0,5.0;" x1="1782" x2="1782" y1="126.043" y2="1877.0039"/><line style="stroke:#181818;stroke-width:0.5;stroke-dasharray:5.0,5.0;" x1="2006" x2="2006" y1="126.043" y2="1877.0039"/><line style="stroke:#181818;stroke-width:0.5;stroke-dasharray:5.0,5.0;" x1="2180" x2="2180" y1="126.043" y2="1877.0039"/><text fill="#000000" font-family="sans-serif" font-size="20" lengthAdjust="spacing" textLength="86" x="5" y="121.8242">Operator</text><ellipse cx="51" cy="50.9883" fill="#E3E3E3" rx="8" ry="8" style="stroke:#181818;stroke-width:0.5;"/><path d="M51,58.9883 L51,85.9883 M38,66.9883 L64,66.9883 M51,85.9883 L38,100.9883 M51,85.9883 L64,100.9883 " fill="none" style="stroke:#181818;stroke-width:0.5;"/><text fill="#000000" font-family="sans-serif" font-size="20" lengthAdjust="spacing" textLength="86" x="5" y="1895.3398">Operator</text><ellipse cx="51" cy="1908.0586" fill="#E3E3E3" rx="8" ry="8" style="stroke:#181818;stroke-width:0.5;"/><path d="M51,1916.0586 L51,1943.0586 M38,1924.0586 L64,1924.0586 M51,1943.0586 L38,1958.0586 M51,1943.0586 L64,1958.0586 " fill="none" style="stroke:#181818;stroke-width:0.5;"/><rect fill="#E3E3E3" height="37.5547" rx="2.5" ry="2.5" style="stroke:#181818;stroke-width:0.5;" width="222" x="261" y="87.4883"/><text fill="#000000" font-family="sans-serif" font-size="20" lengthAdjust="spacing" textLength="208" x="268" y="113.8242">RegisterApplicationUI</text><rect fill="#E3E3E3" height="37.5547" rx="2.5" ry="2.5" style="stroke:#181818;stroke-width:0.5;" width="222" x="261" y="1876.0039"/><text fill="#000000" font-family="sans-serif" font-size="20" lengthAdjust="spacing" textLength="208" x="268" y="1902.3398">RegisterApplicationUI</text><rect fill="#E3E3E3" height="37.5547" rx="2.5" ry="2.5" style="stroke:#181818;stroke-width:0.5;" width="304" x="493" y="87.4883"/><text fill="#000000" font-family="sans-serif" font-size="20" lengthAdjust="spacing" textLength="290" x="500" y="113.8242">:RegisterApplicationController</text><rect fill="#E3E3E3" height="37.5547" rx="2.5" ry="2.5" style="stroke:#181818;stroke-width:0.5;" width="304" x="493" y="1876.0039"/><text fill="#000000" font-family="sans-serif" font-size="20" lengthAdjust="spacing" textLength="290" x="500" y="1902.3398">:RegisterApplicationController</text><rect fill="#E3E3E3" height="37.5547" rx="2.5" ry="2.5" style="stroke:#181818;stroke-width:0.5;" width="196" x="807" y="87.4883"/><text fill="#000000" font-family="sans-serif" font-size="20" lengthAdjust="spacing" textLength="182" x="814" y="113.8242">PersistenceContext</text><rect fill="#E3E3E3" height="37.5547" rx="2.5" ry="2.5" style="stroke:#181818;stroke-width:0.5;" width="196" x="807" y="1876.0039"/><text fill="#000000" font-family="sans-serif" font-size="20" lengthAdjust="spacing" textLength="182" x="814" y="1902.3398">PersistenceContext</text><rect fill="#E3E3E3" height="37.5547" rx="2.5" ry="2.5" style="stroke:#181818;stroke-width:0.5;" width="185" x="1013" y="87.4883"/><text fill="#000000" font-family="sans-serif" font-size="20" lengthAdjust="spacing" textLength="171" x="1020" y="113.8242">RepositoryFactory</text><rect fill="#E3E3E3" height="37.5547" rx="2.5" ry="2.5" style="stroke:#181818;stroke-width:0.5;" width="185" x="1013" y="1876.0039"/><text fill="#000000" font-family="sans-serif" font-size="20" lengthAdjust="spacing" textLength="171" x="1020" y="1902.3398">RepositoryFactory</text><rect fill="#E3E3E3" height="37.5547" rx="2.5" ry="2.5" style="stroke:#181818;stroke-width:0.5;" width="226" x="1208" y="87.4883"/><text fill="#000000" font-family="sans-serif" font-size="20" lengthAdjust="spacing" textLength="212" x="1215" y="113.8242">ApplicationRepository</text><rect fill="#E3E3E3" height="37.5547" rx="2.5" ry="2.5" style="stroke:#181818;stroke-width:0.5;" width="226" x="1208" y="1876.0039"/><text fill="#000000" font-family="sans-serif" font-size="20" lengthAdjust="spacing" textLength="212" x="1215" y="1902.3398">ApplicationRepository</text><rect fill="#E3E3E3" height="37.5547" rx="2.5" ry="2.5" style="stroke:#181818;stroke-width:0.5;" width="214" x="1444" y="87.4883"/><text fill="#000000" font-family="sans-serif" font-size="20" lengthAdjust="spacing" textLength="200" x="1451" y="113.8242">CandidateRepository</text><rect fill="#E3E3E3" height="37.5547" rx="2.5" ry="2.5" style="stroke:#181818;stroke-width:0.5;" width="214" x="1444" y="1876.0039"/><text fill="#000000" font-family="sans-serif" font-size="20" lengthAdjust="spacing" textLength="200" x="1451" y="1902.3398">CandidateRepository</text><rect fill="#E3E3E3" height="37.5547" rx="2.5" ry="2.5" style="stroke:#181818;stroke-width:0.5;" width="229" x="1668" y="87.4883"/><text fill="#000000" font-family="sans-serif" font-size="20" lengthAdjust="spacing" textLength="215" x="1675" y="113.8242">JobOpeningRepository</text><rect fill="#E3E3E3" height="37.5547" rx="2.5" ry="2.5" style="stroke:#181818;stroke-width:0.5;" width="229" x="1668" y="1876.0039"/><text fill="#000000" font-family="sans-serif" font-size="20" lengthAdjust="spacing" textLength="215" x="1675" y="1902.3398">JobOpeningRepository</text><rect fill="#E3E3E3" height="37.5547" rx="2.5" ry="2.5" style="stroke:#181818;stroke-width:0.5;" width="198" x="1907" y="87.4883"/><text fill="#000000" font-family="sans-serif" font-size="20" lengthAdjust="spacing" textLength="184" x="1914" y="113.8242">:ApplicationBuilder</text><rect fill="#E3E3E3" height="37.5547" rx="2.5" ry="2.5" style="stroke:#181818;stroke-width:0.5;" width="198" x="1907" y="1876.0039"/><text fill="#000000" font-family="sans-serif" font-size="20" lengthAdjust="spacing" textLength="184" x="1914" y="1902.3398">:ApplicationBuilder</text><rect fill="#E3E3E3" height="37.5547" rx="2.5" ry="2.5" style="stroke:#181818;stroke-width:0.5;" width="130" x="2115" y="87.4883"/><text fill="#000000" font-family="sans-serif" font-size="20" lengthAdjust="spacing" textLength="116" x="2122" y="113.8242">:Application</text><rect fill="#E3E3E3" height="37.5547" rx="2.5" ry="2.5" style="stroke:#181818;stroke-width:0.5;" width="130" x="2115" y="1876.0039"/><text fill="#000000" font-family="sans-serif" font-size="20" lengthAdjust="spacing" textLength="116" x="2122" y="1902.3398">:Application</text><rect fill="#FFFFFF" height="1731.9609" style="stroke:#181818;stroke-width:1.0;" width="10" x="46" y="136.043"/><rect fill="#FFFFFF" height="1633.2969" style="stroke:#181818;stroke-width:1.0;" width="10" x="367" y="234.707"/><rect fill="#FFFFFF" height="614.875" style="stroke:#181818;stroke-width:1.0;" width="10" x="640" y="277.2617"/><rect fill="#FFFFFF" height="112.6641" style="stroke:#181818;stroke-width:1.0;" width="10" x="640" y="929.6914"/><rect fill="#FFFFFF" height="112.6641" style="stroke:#181818;stroke-width:1.0;" width="10" x="640" y="1155.0195"/><rect fill="#FFFFFF" height="365.9922" style="stroke:#181818;stroke-width:1.0;" width="10" x="640" y="1455.457"/><rect fill="#FFFFFF" height="75.1094" style="stroke:#181818;stroke-width:1.0;" width="10" x="900" y="314.8164"/><rect fill="#FFFFFF" height="37.5547" style="stroke:#181818;stroke-width:1.0;" width="10" x="900" y="540.1445"/><rect fill="#FFFFFF" height="37.5547" style="stroke:#181818;stroke-width:1.0;" width="10" x="900" y="727.918"/><rect fill="#FFFFFF" height="75.1094" style="stroke:#181818;stroke-width:1.0;" width="10" x="1100.5" y="427.4805"/><rect fill="#FFFFFF" height="75.1094" style="stroke:#181818;stroke-width:1.0;" width="10" x="1100.5" y="615.2539"/><rect fill="#FFFFFF" height="75.1094" style="stroke:#181818;stroke-width:1.0;" width="10" x="1100.5" y="803.0273"/><rect fill="#FFFFFF" height="14" style="stroke:#181818;stroke-width:1.0;" width="10" x="1316" y="1793.4492"/><rect fill="#FFFFFF" height="37.5547" style="stroke:#181818;stroke-width:1.0;" width="10" x="1546" y="967.2461"/><rect fill="#FFFFFF" height="37.5547" style="stroke:#181818;stroke-width:1.0;" width="10" x="1777.5" y="1192.5742"/><rect fill="#FFFFFF" height="75.1094" style="stroke:#181818;stroke-width:1.0;" width="10" x="2001" y="1680.7852"/><polygon fill="#181818" points="360,185.1523,370,189.1523,360,193.1523,364,189.1523" style="stroke:#181818;stroke-width:1.0;"/><line style="stroke:#181818;stroke-width:1.0;" x1="56" x2="366" y1="189.1523" y2="189.1523"/><text fill="#000000" font-family="sans-serif" font-size="20" lengthAdjust="spacing" textLength="147" x="63" y="159.3789">asks to register</text><text fill="#000000" font-family="sans-serif" font-size="20" lengthAdjust="spacing" textLength="136" x="69" y="182.9336">an application</text><line style="stroke:#181818;stroke-width:1.0;" x1="372" x2="419" y1="221.707" y2="221.707"/><line style="stroke:#181818;stroke-width:1.0;" x1="419" x2="419" y1="221.707" y2="234.707"/><line style="stroke:#181818;stroke-width:1.0;" x1="378" x2="419" y1="234.707" y2="234.707"/><polygon fill="#181818" points="388,230.707,378,234.707,388,238.707,384,234.707" style="stroke:#181818;stroke-width:1.0;"/><text fill="#000000" font-family="sans-serif" font-size="20" lengthAdjust="spacing" textLength="89" x="384" y="215.4883">doShow()</text><polygon fill="#181818" points="628,273.2617,638,277.2617,628,281.2617,632,277.2617" style="stroke:#181818;stroke-width:1.0;"/><line style="stroke:#181818;stroke-width:1.0;" x1="377" x2="634" y1="277.2617" y2="277.2617"/><text fill="#000000" font-family="sans-serif" font-size="20" lengthAdjust="spacing" textLength="58" x="384" y="271.043">create</text><polygon fill="#181818" points="888,310.8164,898,314.8164,888,318.8164,892,314.8164" style="stroke:#181818;stroke-width:1.0;"/><line style="stroke:#181818;stroke-width:1.0;" x1="650" x2="894" y1="314.8164" y2="314.8164"/><text fill="#000000" font-family="sans-serif" font-size="20" lengthAdjust="spacing" textLength="128" x="657" y="308.5977">repositories()</text><polygon fill="#181818" points="1093.5,348.3711,1103.5,352.3711,1093.5,356.3711,1097.5,352.3711" style="stroke:#181818;stroke-width:1.0;"/><line style="stroke:#181818;stroke-width:1.0;" x1="910" x2="1099.5" y1="352.3711" y2="352.3711"/><text fill="#000000" font-family="sans-serif" font-size="20" lengthAdjust="spacing" textLength="58" x="917" y="346.1523">create</text><polygon fill="#181818" points="661,385.9258,651,389.9258,661,393.9258,657,389.9258" style="stroke:#181818;stroke-width:1.0;"/><line style="stroke:#181818;stroke-width:1.0;" x1="655" x2="904" y1="389.9258" y2="389.9258"/><text fill="#000000" font-family="sans-serif" font-size="20" lengthAdjust="spacing" textLength="65" x="667" y="383.707">factory</text><polygon fill="#181818" points="1088.5,423.4805,1098.5,427.4805,1088.5,431.4805,1092.5,427.4805" style="stroke:#181818;stroke-width:1.0;"/><line style="stroke:#181818;stroke-width:1.0;" x1="650" x2="1094.5" y1="427.4805" y2="427.4805"/><text fill="#000000" font-family="sans-serif" font-size="20" lengthAdjust="spacing" textLength="131" x="657" y="421.2617">applications()</text><polygon fill="#181818" points="1309,461.0352,1319,465.0352,1309,469.0352,1313,465.0352" style="stroke:#181818;stroke-width:1.0;"/><line style="stroke:#181818;stroke-width:1.0;" x1="1110.5" x2="1315" y1="465.0352" y2="465.0352"/><text fill="#000000" font-family="sans-serif" font-size="20" lengthAdjust="spacing" textLength="58" x="1117.5" y="458.8164">create</text><polygon fill="#181818" points="661,498.5898,651,502.5898,661,506.5898,657,502.5898" style="stroke:#181818;stroke-width:1.0;"/><line style="stroke:#181818;stroke-width:1.0;" x1="655" x2="1104.5" y1="502.5898" y2="502.5898"/><text fill="#000000" font-family="sans-serif" font-size="20" lengthAdjust="spacing" textLength="73" x="667" y="496.3711">APPRep</text><polygon fill="#181818" points="888,536.1445,898,540.1445,888,544.1445,892,540.1445" style="stroke:#181818;stroke-width:1.0;"/><line style="stroke:#181818;stroke-width:1.0;" x1="650" x2="894" y1="540.1445" y2="540.1445"/><text fill="#000000" font-family="sans-serif" font-size="20" lengthAdjust="spacing" textLength="128" x="657" y="533.9258">repositories()</text><polygon fill="#181818" points="661,573.6992,651,577.6992,661,581.6992,657,577.6992" style="stroke:#181818;stroke-width:1.0;"/><line style="stroke:#181818;stroke-width:1.0;" x1="655" x2="904" y1="577.6992" y2="577.6992"/><text fill="#000000" font-family="sans-serif" font-size="20" lengthAdjust="spacing" textLength="65" x="667" y="571.4805">factory</text><polygon fill="#181818" points="1088.5,611.2539,1098.5,615.2539,1088.5,619.2539,1092.5,615.2539" style="stroke:#181818;stroke-width:1.0;"/><line style="stroke:#181818;stroke-width:1.0;" x1="650" x2="1094.5" y1="615.2539" y2="615.2539"/><text fill="#000000" font-family="sans-serif" font-size="20" lengthAdjust="spacing" textLength="118" x="657" y="609.0352">candidates()</text><polygon fill="#181818" points="1539,648.8086,1549,652.8086,1539,656.8086,1543,652.8086" style="stroke:#181818;stroke-width:1.0;"/><line style="stroke:#181818;stroke-width:1.0;" x1="1110.5" x2="1545" y1="652.8086" y2="652.8086"/><text fill="#000000" font-family="sans-serif" font-size="20" lengthAdjust="spacing" textLength="58" x="1117.5" y="646.5898">create</text><polygon fill="#181818" points="661,686.3633,651,690.3633,661,694.3633,657,690.3633" style="stroke:#181818;stroke-width:1.0;"/><line style="stroke:#181818;stroke-width:1.0;" x1="655" x2="1104.5" y1="690.3633" y2="690.3633"/><text fill="#000000" font-family="sans-serif" font-size="20" lengthAdjust="spacing" textLength="80" x="667" y="684.1445">CANRep</text><polygon fill="#181818" points="888,723.918,898,727.918,888,731.918,892,727.918" style="stroke:#181818;stroke-width:1.0;"/><line style="stroke:#181818;stroke-width:1.0;" x1="650" x2="894" y1="727.918" y2="727.918"/><text fill="#000000" font-family="sans-serif" font-size="20" lengthAdjust="spacing" textLength="128" x="657" y="721.6992">repositories()</text><polygon fill="#181818" points="661,761.4727,651,765.4727,661,769.4727,657,765.4727" style="stroke:#181818;stroke-width:1.0;"/><line style="stroke:#181818;stroke-width:1.0;" x1="655" x2="904" y1="765.4727" y2="765.4727"/><text fill="#000000" font-family="sans-serif" font-size="20" lengthAdjust="spacing" textLength="65" x="667" y="759.2539">factory</text><polygon fill="#181818" points="1088.5,799.0273,1098.5,803.0273,1088.5,807.0273,1092.5,803.0273" style="stroke:#181818;stroke-width:1.0;"/><line style="stroke:#181818;stroke-width:1.0;" x1="650" x2="1094.5" y1="803.0273" y2="803.0273"/><text fill="#000000" font-family="sans-serif" font-size="20" lengthAdjust="spacing" textLength="137" x="657" y="796.8086">jobOpenings()</text><polygon fill="#181818" points="1770.5,836.582,1780.5,840.582,1770.5,844.582,1774.5,840.582" style="stroke:#181818;stroke-width:1.0;"/><line style="stroke:#181818;stroke-width:1.0;" x1="1110.5" x2="1776.5" y1="840.582" y2="840.582"/><text fill="#000000" font-family="sans-serif" font-size="20" lengthAdjust="spacing" textLength="58" x="1117.5" y="834.3633">create</text><polygon fill="#181818" points="661,874.1367,651,878.1367,661,882.1367,657,878.1367" style="stroke:#181818;stroke-width:1.0;"/><line style="stroke:#181818;stroke-width:1.0;" x1="655" x2="1104.5" y1="878.1367" y2="878.1367"/><text fill="#000000" font-family="sans-serif" font-size="20" lengthAdjust="spacing" textLength="71" x="667" y="871.918">JOBRep</text><polygon fill="#181818" points="388,888.1367,378,892.1367,388,896.1367,384,892.1367" style="stroke:#181818;stroke-width:1.0;"/><line style="stroke:#181818;stroke-width:1.0;" x1="382" x2="644" y1="892.1367" y2="892.1367"/><polygon fill="#181818" points="628,925.6914,638,929.6914,628,933.6914,632,929.6914" style="stroke:#181818;stroke-width:1.0;"/><line style="stroke:#181818;stroke-width:1.0;" x1="377" x2="634" y1="929.6914" y2="929.6914"/><text fill="#000000" font-family="sans-serif" font-size="20" lengthAdjust="spacing" textLength="145" x="384" y="923.4727">allCandidates()</text><polygon fill="#181818" points="1534,963.2461,1544,967.2461,1534,971.2461,1538,967.2461" style="stroke:#181818;stroke-width:1.0;"/><line style="stroke:#181818;stroke-width:1.0;" x1="650" x2="1540" y1="967.2461" y2="967.2461"/><text fill="#000000" font-family="sans-serif" font-size="20" lengthAdjust="spacing" textLength="78" x="657" y="961.0273">findAll()</text><polygon fill="#181818" points="661,1000.8008,651,1004.8008,661,1008.8008,657,1004.8008" style="stroke:#181818;stroke-width:1.0;"/><line style="stroke:#181818;stroke-width:1.0;" x1="655" x2="1550" y1="1004.8008" y2="1004.8008"/><text fill="#000000" font-family="sans-serif" font-size="20" lengthAdjust="spacing" textLength="164" x="667" y="998.582">list of candidates</text><polygon fill="#181818" points="388,1038.3555,378,1042.3555,388,1046.3555,384,1042.3555" style="stroke:#181818;stroke-width:1.0;"/><line style="stroke:#181818;stroke-width:1.0;" x1="382" x2="644" y1="1042.3555" y2="1042.3555"/><text fill="#000000" font-family="sans-serif" font-size="20" lengthAdjust="spacing" textLength="164" x="394" y="1036.1367">list of candidates</text><polygon fill="#181818" points="67,1075.9102,57,1079.9102,67,1083.9102,63,1079.9102" style="stroke:#181818;stroke-width:1.0;"/><line style="stroke:#181818;stroke-width:1.0;" x1="61" x2="366" y1="1079.9102" y2="1079.9102"/><text fill="#000000" font-family="sans-serif" font-size="20" lengthAdjust="spacing" textLength="189" x="73" y="1073.6914">displays candidates</text><polygon fill="#181818" points="355,1113.4648,365,1117.4648,355,1121.4648,359,1117.4648" style="stroke:#181818;stroke-width:1.0;"/><line style="stroke:#181818;stroke-width:1.0;" x1="56" x2="361" y1="1117.4648" y2="1117.4648"/><text fill="#000000" font-family="sans-serif" font-size="20" lengthAdjust="spacing" textLength="175" x="63" y="1111.2461">selects candidates</text><polygon fill="#181818" points="628,1151.0195,638,1155.0195,628,1159.0195,632,1155.0195" style="stroke:#181818;stroke-width:1.0;"/><line style="stroke:#181818;stroke-width:1.0;" x1="377" x2="634" y1="1155.0195" y2="1155.0195"/><text fill="#000000" font-family="sans-serif" font-size="20" lengthAdjust="spacing" textLength="160" x="384" y="1148.8008">allJobOpenings()</text><polygon fill="#181818" points="1765.5,1188.5742,1775.5,1192.5742,1765.5,1196.5742,1769.5,1192.5742" style="stroke:#181818;stroke-width:1.0;"/><line style="stroke:#181818;stroke-width:1.0;" x1="650" x2="1771.5" y1="1192.5742" y2="1192.5742"/><text fill="#000000" font-family="sans-serif" font-size="20" lengthAdjust="spacing" textLength="78" x="657" y="1186.3555">findAll()</text><polygon fill="#181818" points="661,1226.1289,651,1230.1289,661,1234.1289,657,1230.1289" style="stroke:#181818;stroke-width:1.0;"/><line style="stroke:#181818;stroke-width:1.0;" x1="655" x2="1781.5" y1="1230.1289" y2="1230.1289"/><text fill="#000000" font-family="sans-serif" font-size="20" lengthAdjust="spacing" textLength="185" x="667" y="1223.9102">list of job openings</text><polygon fill="#181818" points="388,1263.6836,378,1267.6836,388,1271.6836,384,1267.6836" style="stroke:#181818;stroke-width:1.0;"/><line style="stroke:#181818;stroke-width:1.0;" x1="382" x2="644" y1="1267.6836" y2="1267.6836"/><text fill="#000000" font-family="sans-serif" font-size="20" lengthAdjust="spacing" textLength="185" x="394" y="1261.4648">list of job openings</text><polygon fill="#181818" points="67,1301.2383,57,1305.2383,67,1309.2383,63,1305.2383" style="stroke:#181818;stroke-width:1.0;"/><line style="stroke:#181818;stroke-width:1.0;" x1="61" x2="366" y1="1305.2383" y2="1305.2383"/><text fill="#000000" font-family="sans-serif" font-size="20" lengthAdjust="spacing" textLength="210" x="73" y="1299.0195">displays job openings</text><polygon fill="#181818" points="355,1338.793,365,1342.793,355,1346.793,359,1342.793" style="stroke:#181818;stroke-width:1.0;"/><line style="stroke:#181818;stroke-width:1.0;" x1="56" x2="361" y1="1342.793" y2="1342.793"/><text fill="#000000" font-family="sans-serif" font-size="20" lengthAdjust="spacing" textLength="196" x="63" y="1336.5742">selects job openings</text><polygon fill="#181818" points="67,1376.3477,57,1380.3477,67,1384.3477,63,1380.3477" style="stroke:#181818;stroke-width:1.0;"/><line style="stroke:#181818;stroke-width:1.0;" x1="61" x2="366" y1="1380.3477" y2="1380.3477"/><text fill="#000000" font-family="sans-serif" font-size="20" lengthAdjust="spacing" textLength="280" x="73" y="1374.1289">asks for id and path to folder</text><polygon fill="#181818" points="355,1413.9023,365,1417.9023,355,1421.9023,359,1417.9023" style="stroke:#181818;stroke-width:1.0;"/><line style="stroke:#181818;stroke-width:1.0;" x1="56" x2="361" y1="1417.9023" y2="1417.9023"/><text fill="#000000" font-family="sans-serif" font-size="20" lengthAdjust="spacing" textLength="287" x="63" y="1411.6836">provides id and path to folder</text><polygon fill="#181818" points="628,1451.457,638,1455.457,628,1459.457,632,1455.457" style="stroke:#181818;stroke-width:1.0;"/><line style="stroke:#181818;stroke-width:1.0;" x1="377" x2="634" y1="1455.457" y2="1455.457"/><text fill="#000000" font-family="sans-serif" font-size="20" lengthAdjust="spacing" textLength="197" x="384" y="1449.2383">registerApplication()</text><polygon fill="#181818" points="1994,1489.0117,2004,1493.0117,1994,1497.0117,1998,1493.0117" style="stroke:#181818;stroke-width:1.0;"/><line style="stroke:#181818;stroke-width:1.0;" x1="650" x2="2000" y1="1493.0117" y2="1493.0117"/><text fill="#000000" font-family="sans-serif" font-size="20" lengthAdjust="spacing" textLength="183" x="657" y="1486.793">withApplicationId()</text><polygon fill="#181818" points="1994,1526.5664,2004,1530.5664,1994,1534.5664,1998,1530.5664" style="stroke:#181818;stroke-width:1.0;"/><line style="stroke:#181818;stroke-width:1.0;" x1="650" x2="2000" y1="1530.5664" y2="1530.5664"/><text fill="#000000" font-family="sans-serif" font-size="20" lengthAdjust="spacing" textLength="98" x="657" y="1524.3477">withDate()</text><polygon fill="#181818" points="1994,1564.1211,2004,1568.1211,1994,1572.1211,1998,1568.1211" style="stroke:#181818;stroke-width:1.0;"/><line style="stroke:#181818;stroke-width:1.0;" x1="650" x2="2000" y1="1568.1211" y2="1568.1211"/><text fill="#000000" font-family="sans-serif" font-size="20" lengthAdjust="spacing" textLength="266" x="657" y="1561.9023">withPathApplicationFolder()</text><polygon fill="#181818" points="1994,1601.6758,2004,1605.6758,1994,1609.6758,1998,1605.6758" style="stroke:#181818;stroke-width:1.0;"/><line style="stroke:#181818;stroke-width:1.0;" x1="650" x2="2000" y1="1605.6758" y2="1605.6758"/><text fill="#000000" font-family="sans-serif" font-size="20" lengthAdjust="spacing" textLength="152" x="657" y="1599.457">withCandidate()</text><polygon fill="#181818" points="1994,1639.2305,2004,1643.2305,1994,1647.2305,1998,1643.2305" style="stroke:#181818;stroke-width:1.0;"/><line style="stroke:#181818;stroke-width:1.0;" x1="650" x2="2000" y1="1643.2305" y2="1643.2305"/><text fill="#000000" font-family="sans-serif" font-size="20" lengthAdjust="spacing" textLength="167" x="657" y="1637.0117">withJobOpening()</text><polygon fill="#181818" points="1989,1676.7852,1999,1680.7852,1989,1684.7852,1993,1680.7852" style="stroke:#181818;stroke-width:1.0;"/><line style="stroke:#181818;stroke-width:1.0;" x1="650" x2="1995" y1="1680.7852" y2="1680.7852"/><text fill="#000000" font-family="sans-serif" font-size="20" lengthAdjust="spacing" textLength="64" x="657" y="1674.5664">build()</text><polygon fill="#181818" points="2168,1714.3398,2178,1718.3398,2168,1722.3398,2172,1718.3398" style="stroke:#181818;stroke-width:1.0;"/><line style="stroke:#181818;stroke-width:1.0;" x1="2011" x2="2174" y1="1718.3398" y2="1718.3398"/><text fill="#000000" font-family="sans-serif" font-size="20" lengthAdjust="spacing" textLength="58" x="2018" y="1712.1211">create</text><polygon fill="#181818" points="661,1751.8945,651,1755.8945,661,1759.8945,657,1755.8945" style="stroke:#181818;stroke-width:1.0;"/><line style="stroke:#181818;stroke-width:1.0;" x1="655" x2="2005" y1="1755.8945" y2="1755.8945"/><text fill="#000000" font-family="sans-serif" font-size="20" lengthAdjust="spacing" textLength="107" x="667" y="1749.6758">application</text><polygon fill="#181818" points="1304,1789.4492,1314,1793.4492,1304,1797.4492,1308,1793.4492" style="stroke:#181818;stroke-width:1.0;"/><line style="stroke:#181818;stroke-width:1.0;" x1="650" x2="1310" y1="1793.4492" y2="1793.4492"/><text fill="#000000" font-family="sans-serif" font-size="20" lengthAdjust="spacing" textLength="56" x="657" y="1787.2305">save()</text><polygon fill="#181818" points="661,1803.4492,651,1807.4492,661,1811.4492,657,1807.4492" style="stroke:#181818;stroke-width:1.0;"/><line style="stroke:#181818;stroke-width:1.0;" x1="655" x2="1320" y1="1807.4492" y2="1807.4492"/><polygon fill="#181818" points="388,1817.4492,378,1821.4492,388,1825.4492,384,1821.4492" style="stroke:#181818;stroke-width:1.0;"/><line style="stroke:#181818;stroke-width:1.0;" x1="382" x2="644" y1="1821.4492" y2="1821.4492"/><polygon fill="#181818" points="67,1855.0039,57,1859.0039,67,1863.0039,63,1859.0039" style="stroke:#181818;stroke-width:1.0;"/><line style="stroke:#181818;stroke-width:1.0;" x1="61" x2="366" y1="1859.0039" y2="1859.0039"/><text fill="#000000" font-family="sans-serif" font-size="20" lengthAdjust="spacing" textLength="236" x="73" y="1852.7852">shows operation success</text><!--SRC=[pLOzRzim4DtrAmXFoH0WoEYXW6CZW3qqGWLlNHZnP3EcHPMaxRg_lYTIjYXIbjLsQP119j-xZtTt9FMEbnLLT2zalWD661Jq8CoRB4t6Vm5vUKxq1KBsifJvLiaz4ACEuErKDD_H3MJcB80eo0qjDy87w2rbyiJB3Iceq90aXXk4Pl3Z06KEPC7ffiOzP8j7yaJM6Nf-VaaIcXkfoEIz0aNnQqAe9ciDAa6pXkUyegKXas-muTg0cbMLu3arN9RhfSCkkyXf3tIEoIef13ZpxS-aoqr1wPgByTOO-6aiFfs7mLHISmps_6QZFriKhdPXNW0jmq9dQHgXvxHad5430NO- -nfXL_83zIfHx02yUd-Dm5ClZjS35wnH0PURdxVnbsXjcVWHetErIGZ-rL_awGjMW4mHjzF4I6mDfpxvNXAA_wsjXhIyKfZCjlBqy6ZNM_jB7zYM2Wcv0aHquNujwmsFWFHqZZHrqOY33hrXQUq20X6EshLk_8rE68Khkjrc49dgHk1CUZ948TG5ioir51ckERmulBrE74qN1M5SpTrNOaYAVyqulxJptNnTWu_8jvc4_pFVp-j8tatO3Uc8X9jf7fTmFL8XD1oEdfcYGinlbcfukAw5AtZ9Pa94R5SlntJOqBl0iuB8mkkMA0NVI9Jm60Ez6jYp2uyWhYj1pzhdnsUR1e4NNW-eLyxLxKuOrlFQ5pVqRDh1BZROMtfYDnBP114AufiPK7J8n3XDEnPkgze3yytPYwN09m9dUA4mV8YORNtH5D9UNR7TIiaZPw072N7bLFni-BFojVSfMZjni_KiBLbZwmvbWMx68LFQSV1canj7lSxxE7ZRp_Vn7_LNTD9wBmsxuL7SVHUSXTtzxdnvxucWAKClGPYNMrNJ8uI5RMvIvzm10yUHCu_nj-Tmq-0Q7q6wdW1bqoBwaEUWTV8R]--></g></svg>