<?xml version="1.0" encoding="us-ascii" standalone="no"?><svg xmlns="http://www.w3.org/2000/svg" xmlns:xlink="http://www.w3.org/1999/xlink" contentStyleType="text/css" height="783.2px" preserveAspectRatio="none" style="width:1286px;height:783px;background:#FFFFFF;" version="1.1" viewBox="0 0 1286 783" width="1286.4px" zoomAndPan="magnify"><defs/><g><text fill="#000000" font-family="sans-serif" font-size="11.2" font-weight="bold" lengthAdjust="spacing" textLength="192.8" x="546.2" y="24.0859">Sequence Diagram (SD) - US 2000a</text><rect fill="#FFFFFF" height="603.4203" style="stroke:#181818;stroke-width:0.8000000000000002;" width="8" x="50.8" y="106.5938"/><rect fill="#FFFFFF" height="584.7875" style="stroke:#181818;stroke-width:0.8000000000000002;" width="8" x="237.2" y="125.2266"/><rect fill="#FFFFFF" height="125.1641" style="stroke:#181818;stroke-width:0.8000000000000002;" width="8" x="379.6" y="210.725"/><rect fill="#FFFFFF" height="175.2297" style="stroke:#181818;stroke-width:0.8000000000000002;" width="8" x="379.6" y="502.5516"/><rect fill="#FFFFFF" height="75.0984" style="stroke:#181818;stroke-width:0.8000000000000002;" width="8" x="520.8" y="235.7578"/><rect fill="#FFFFFF" height="25.0328" style="stroke:#181818;stroke-width:0.8000000000000002;" width="8" x="661.2" y="260.7906"/><rect fill="#FFFFFF" height="25.0328" style="stroke:#181818;stroke-width:0.8000000000000002;" width="8" x="893.2" y="527.5844"/><rect fill="#FFFFFF" height="25.0328" style="stroke:#181818;stroke-width:0.8000000000000002;" width="8" x="1029.6" y="577.65"/><rect fill="#FFFFFF" height="25.0328" style="stroke:#181818;stroke-width:0.8000000000000002;" width="8" x="1211.2" y="438.6531"/><line style="stroke:#181818;stroke-width:0.4000000000000001;stroke-dasharray:5.0,5.0;" x1="54.4" x2="54.4" y1="98.5938" y2="717.2141"/><line style="stroke:#181818;stroke-width:0.4000000000000001;stroke-dasharray:5.0,5.0;" x1="241.2" x2="241.2" y1="98.5938" y2="717.2141"/><line style="stroke:#181818;stroke-width:0.4000000000000001;stroke-dasharray:5.0,5.0;" x1="383.6" x2="383.6" y1="98.5938" y2="717.2141"/><line style="stroke:#181818;stroke-width:0.4000000000000001;stroke-dasharray:5.0,5.0;" x1="524.4" x2="524.4" y1="98.5938" y2="717.2141"/><line style="stroke:#181818;stroke-width:0.4000000000000001;stroke-dasharray:5.0,5.0;" x1="665.2" x2="665.2" y1="98.5938" y2="717.2141"/><line style="stroke:#181818;stroke-width:0.4000000000000001;stroke-dasharray:5.0,5.0;" x1="802.8" x2="802.8" y1="98.5938" y2="717.2141"/><line style="stroke:#181818;stroke-width:0.4000000000000001;stroke-dasharray:5.0,5.0;" x1="897.2" x2="897.2" y1="98.5938" y2="717.2141"/><line style="stroke:#181818;stroke-width:0.4000000000000001;stroke-dasharray:5.0,5.0;" x1="1033.2" x2="1033.2" y1="98.5938" y2="717.2141"/><line style="stroke:#181818;stroke-width:0.4000000000000001;stroke-dasharray:5.0,5.0;" x1="1214.8" x2="1214.8" y1="98.5938" y2="717.2141"/><text fill="#000000" font-family="sans-serif" font-size="11.2" lengthAdjust="spacing" textLength="96.8" x="4" y="95.7828">Customer manager</text><ellipse cx="54.8" cy="42.4969" fill="#E3E3E3" rx="6.4" ry="6.4" style="stroke:#181818;stroke-width:0.4000000000000001;"/><path d="M54.8,48.8969 L54.8,70.4969 M44.4,55.2969 L65.2,55.2969 M54.8,70.4969 L44.4,82.4969 M54.8,70.4969 L65.2,82.4969 " fill="none" style="stroke:#181818;stroke-width:0.4000000000000001;"/><text fill="#000000" font-family="sans-serif" font-size="11.2" lengthAdjust="spacing" textLength="96.8" x="4" y="728.5">Customer manager</text><ellipse cx="54.8" cy="738.1109" fill="#E3E3E3" rx="6.4" ry="6.4" style="stroke:#181818;stroke-width:0.4000000000000001;"/><path d="M54.8,744.5109 L54.8,766.1109 M44.4,750.9109 L65.2,750.9109 M54.8,766.1109 L44.4,778.1109 M54.8,766.1109 L65.2,778.1109 " fill="none" style="stroke:#181818;stroke-width:0.4000000000000001;"/><rect fill="#E3E3E3" height="26.0969" rx="2" ry="2" style="stroke:#181818;stroke-width:0.4000000000000001;" width="88" x="197.2" y="71.6969"/><text fill="#000000" font-family="sans-serif" font-size="11.2" lengthAdjust="spacing" textLength="76.8" x="202.8" y="89.3828">SetupPhasesUI</text><rect fill="#E3E3E3" height="26.0969" rx="2" ry="2" style="stroke:#181818;stroke-width:0.4000000000000001;" width="88" x="197.2" y="716.4141"/><text fill="#000000" font-family="sans-serif" font-size="11.2" lengthAdjust="spacing" textLength="76.8" x="202.8" y="734.1">SetupPhasesUI</text><rect fill="#E3E3E3" height="26.0969" rx="2" ry="2" style="stroke:#181818;stroke-width:0.4000000000000001;" width="131.2" x="318" y="71.6969"/><text fill="#000000" font-family="sans-serif" font-size="11.2" lengthAdjust="spacing" textLength="120" x="323.6" y="89.3828">:SetupPhasesController</text><rect fill="#E3E3E3" height="26.0969" rx="2" ry="2" style="stroke:#181818;stroke-width:0.4000000000000001;" width="131.2" x="318" y="716.4141"/><text fill="#000000" font-family="sans-serif" font-size="11.2" lengthAdjust="spacing" textLength="120" x="323.6" y="734.1">:SetupPhasesController</text><rect fill="#E3E3E3" height="26.0969" rx="2" ry="2" style="stroke:#181818;stroke-width:0.4000000000000001;" width="135.2" x="457.2" y="71.6969"/><text fill="#000000" font-family="sans-serif" font-size="11.2" lengthAdjust="spacing" textLength="124" x="462.8" y="89.3828">listJobOpeningController</text><rect fill="#E3E3E3" height="26.0969" rx="2" ry="2" style="stroke:#181818;stroke-width:0.4000000000000001;" width="135.2" x="457.2" y="716.4141"/><text fill="#000000" font-family="sans-serif" font-size="11.2" lengthAdjust="spacing" textLength="124" x="462.8" y="734.1">listJobOpeningController</text><rect fill="#E3E3E3" height="26.0969" rx="2" ry="2" style="stroke:#181818;stroke-width:0.4000000000000001;" width="129.6" x="600.4" y="71.6969"/><text fill="#000000" font-family="sans-serif" font-size="11.2" lengthAdjust="spacing" textLength="118.4" x="606" y="89.3828">:JobOpeningRepository</text><rect fill="#E3E3E3" height="26.0969" rx="2" ry="2" style="stroke:#181818;stroke-width:0.4000000000000001;" width="129.6" x="600.4" y="716.4141"/><text fill="#000000" font-family="sans-serif" font-size="11.2" lengthAdjust="spacing" textLength="118.4" x="606" y="734.1">:JobOpeningRepository</text><rect fill="#E3E3E3" height="26.0969" rx="2" ry="2" style="stroke:#181818;stroke-width:0.4000000000000001;" width="129.6" x="738" y="71.6969"/><text fill="#000000" font-family="sans-serif" font-size="11.2" lengthAdjust="spacing" textLength="118.4" x="743.6" y="89.3828">:JobOpeningRepository</text><rect fill="#E3E3E3" height="26.0969" rx="2" ry="2" style="stroke:#181818;stroke-width:0.4000000000000001;" width="129.6" x="738" y="716.4141"/><text fill="#000000" font-family="sans-serif" font-size="11.2" lengthAdjust="spacing" textLength="118.4" x="743.6" y="734.1">:JobOpeningRepository</text><rect fill="#E3E3E3" height="26.0969" rx="2" ry="2" style="stroke:#181818;stroke-width:0.4000000000000001;" width="43.2" x="875.6" y="71.6969"/><text fill="#000000" font-family="sans-serif" font-size="11.2" lengthAdjust="spacing" textLength="32" x="881.2" y="89.3828">Phase</text><rect fill="#E3E3E3" height="26.0969" rx="2" ry="2" style="stroke:#181818;stroke-width:0.4000000000000001;" width="43.2" x="875.6" y="716.4141"/><text fill="#000000" font-family="sans-serif" font-size="11.2" lengthAdjust="spacing" textLength="32" x="881.2" y="734.1">Phase</text><rect fill="#E3E3E3" height="26.0969" rx="2" ry="2" style="stroke:#181818;stroke-width:0.4000000000000001;" width="213.6" x="926.8" y="71.6969"/><text fill="#000000" font-family="sans-serif" font-size="11.2" lengthAdjust="spacing" textLength="202.4" x="932.4" y="89.3828">recruitmentProcess:RecruitmentProcess</text><rect fill="#E3E3E3" height="26.0969" rx="2" ry="2" style="stroke:#181818;stroke-width:0.4000000000000001;" width="213.6" x="926.8" y="716.4141"/><text fill="#000000" font-family="sans-serif" font-size="11.2" lengthAdjust="spacing" textLength="202.4" x="932.4" y="734.1">recruitmentProcess:RecruitmentProcess</text><rect fill="#E3E3E3" height="26.0969" rx="2" ry="2" style="stroke:#181818;stroke-width:0.4000000000000001;" width="133.6" x="1148.4" y="71.6969"/><text fill="#000000" font-family="sans-serif" font-size="11.2" lengthAdjust="spacing" textLength="122.4" x="1154" y="89.3828">jobOpening:JobOpening</text><rect fill="#E3E3E3" height="26.0969" rx="2" ry="2" style="stroke:#181818;stroke-width:0.4000000000000001;" width="133.6" x="1148.4" y="716.4141"/><text fill="#000000" font-family="sans-serif" font-size="11.2" lengthAdjust="spacing" textLength="122.4" x="1154" y="734.1">jobOpening:JobOpening</text><rect fill="#FFFFFF" height="603.4203" style="stroke:#181818;stroke-width:0.8000000000000002;" width="8" x="50.8" y="106.5938"/><rect fill="#FFFFFF" height="584.7875" style="stroke:#181818;stroke-width:0.8000000000000002;" width="8" x="237.2" y="125.2266"/><rect fill="#FFFFFF" height="125.1641" style="stroke:#181818;stroke-width:0.8000000000000002;" width="8" x="379.6" y="210.725"/><rect fill="#FFFFFF" height="175.2297" style="stroke:#181818;stroke-width:0.8000000000000002;" width="8" x="379.6" y="502.5516"/><rect fill="#FFFFFF" height="75.0984" style="stroke:#181818;stroke-width:0.8000000000000002;" width="8" x="520.8" y="235.7578"/><rect fill="#FFFFFF" height="25.0328" style="stroke:#181818;stroke-width:0.8000000000000002;" width="8" x="661.2" y="260.7906"/><rect fill="#FFFFFF" height="25.0328" style="stroke:#181818;stroke-width:0.8000000000000002;" width="8" x="893.2" y="527.5844"/><rect fill="#FFFFFF" height="25.0328" style="stroke:#181818;stroke-width:0.8000000000000002;" width="8" x="1029.6" y="577.65"/><rect fill="#FFFFFF" height="25.0328" style="stroke:#181818;stroke-width:0.8000000000000002;" width="8" x="1211.2" y="438.6531"/><polygon fill="#181818" points="227.6,122.0266,235.6,125.2266,227.6,128.4266,230.8,125.2266" style="stroke:#181818;stroke-width:0.8000000000000002;"/><line style="stroke:#181818;stroke-width:0.8000000000000002;" x1="58.8" x2="232.4" y1="125.2266" y2="125.2266"/><text fill="#000000" font-family="sans-serif" font-size="10.4" lengthAdjust="spacing" textLength="30.4" x="64.4" y="121.0164">show()</text><line style="stroke:#181818;stroke-width:0.8000000000000002;" x1="245.2" x2="278.8" y1="150.2594" y2="150.2594"/><line style="stroke:#181818;stroke-width:0.8000000000000002;" x1="278.8" x2="278.8" y1="150.2594" y2="160.6594"/><line style="stroke:#181818;stroke-width:0.8000000000000002;" x1="246" x2="278.8" y1="160.6594" y2="160.6594"/><polygon fill="#181818" points="254,157.4594,246,160.6594,254,163.8594,250.8,160.6594" style="stroke:#181818;stroke-width:0.8000000000000002;"/><text fill="#000000" font-family="sans-serif" font-size="10.4" lengthAdjust="spacing" textLength="43.2" x="250.8" y="146.0492">doShow()</text><polygon fill="#181818" points="374,182.4922,382,185.6922,374,188.8922,377.2,185.6922" style="stroke:#181818;stroke-width:0.8000000000000002;"/><line style="stroke:#181818;stroke-width:0.8000000000000002;" x1="245.2" x2="378.8" y1="185.6922" y2="185.6922"/><text fill="#000000" font-family="sans-serif" font-size="10.4" lengthAdjust="spacing" textLength="35.2" x="250.8" y="181.482">create()</text><polygon fill="#181818" points="370,207.525,378,210.725,370,213.925,373.2,210.725" style="stroke:#181818;stroke-width:0.8000000000000002;"/><line style="stroke:#181818;stroke-width:0.8000000000000002;" x1="245.2" x2="374.8" y1="210.725" y2="210.725"/><text fill="#000000" font-family="sans-serif" font-size="10.4" lengthAdjust="spacing" textLength="34.4" x="250.8" y="206.5148">findAll()</text><polygon fill="#181818" points="511.2,232.5578,519.2,235.7578,511.2,238.9578,514.4,235.7578" style="stroke:#181818;stroke-width:0.8000000000000002;"/><line style="stroke:#181818;stroke-width:0.8000000000000002;" x1="387.6" x2="516" y1="235.7578" y2="235.7578"/><text fill="#000000" font-family="sans-serif" font-size="10.4" lengthAdjust="spacing" textLength="34.4" x="393.2" y="231.5477">findAll()</text><polygon fill="#181818" points="651.6,257.5906,659.6,260.7906,651.6,263.9906,654.8,260.7906" style="stroke:#181818;stroke-width:0.8000000000000002;"/><line style="stroke:#181818;stroke-width:0.8000000000000002;" x1="528.8" x2="656.4" y1="260.7906" y2="260.7906"/><text fill="#000000" font-family="sans-serif" font-size="10.4" lengthAdjust="spacing" textLength="34.4" x="534.4" y="256.5805">findAll()</text><polygon fill="#181818" points="537.6,282.6234,529.6,285.8234,537.6,289.0234,534.4,285.8234" style="stroke:#181818;stroke-width:0.8000000000000002;"/><line style="stroke:#181818;stroke-width:0.8000000000000002;stroke-dasharray:2.0,2.0;" x1="532.8" x2="664.4" y1="285.8234" y2="285.8234"/><text fill="#000000" font-family="sans-serif" font-size="10.4" lengthAdjust="spacing" textLength="68.8" x="542.4" y="281.6133">jobOpeningList</text><polygon fill="#181818" points="396.4,307.6563,388.4,310.8563,396.4,314.0563,393.2,310.8563" style="stroke:#181818;stroke-width:0.8000000000000002;"/><line style="stroke:#181818;stroke-width:0.8000000000000002;stroke-dasharray:2.0,2.0;" x1="391.6" x2="524" y1="310.8563" y2="310.8563"/><text fill="#000000" font-family="sans-serif" font-size="10.4" lengthAdjust="spacing" textLength="68.8" x="401.2" y="306.6461">jobOpeningList</text><polygon fill="#181818" points="254,332.6891,246,335.8891,254,339.0891,250.8,335.8891" style="stroke:#181818;stroke-width:0.8000000000000002;"/><line style="stroke:#181818;stroke-width:0.8000000000000002;stroke-dasharray:2.0,2.0;" x1="249.2" x2="382.8" y1="335.8891" y2="335.8891"/><text fill="#000000" font-family="sans-serif" font-size="10.4" lengthAdjust="spacing" textLength="68.8" x="258.8" y="331.6789">jobOpeningList</text><polygon fill="#181818" points="67.6,371.5547,59.6,374.7547,67.6,377.9547,64.4,374.7547" style="stroke:#181818;stroke-width:0.8000000000000002;"/><line style="stroke:#181818;stroke-width:0.8000000000000002;stroke-dasharray:2.0,2.0;" x1="62.8" x2="236.4" y1="374.7547" y2="374.7547"/><text fill="#000000" font-family="sans-serif" font-size="10.4" lengthAdjust="spacing" textLength="116" x="72.4" y="356.7117">show jobOpeningList and</text><text fill="#000000" font-family="sans-serif" font-size="10.4" lengthAdjust="spacing" textLength="91.2" x="75.6" y="370.5445">askes to select one</text><polygon fill="#181818" points="227.6,410.4203,235.6,413.6203,227.6,416.8203,230.8,413.6203" style="stroke:#181818;stroke-width:0.8000000000000002;"/><line style="stroke:#181818;stroke-width:0.8000000000000002;" x1="58.8" x2="232.4" y1="413.6203" y2="413.6203"/><text fill="#000000" font-family="sans-serif" font-size="10.4" lengthAdjust="spacing" textLength="159.2" x="64.4" y="395.5773">types requested data (jobOpening,</text><text fill="#000000" font-family="sans-serif" font-size="10.4" lengthAdjust="spacing" textLength="91.2" x="67.6" y="409.4102">hasInterview, dates)</text><polygon fill="#181818" points="1201.6,435.4531,1209.6,438.6531,1201.6,441.8531,1204.8,438.6531" style="stroke:#181818;stroke-width:0.8000000000000002;"/><line style="stroke:#181818;stroke-width:0.8000000000000002;" x1="245.2" x2="1206.4" y1="438.6531" y2="438.6531"/><text fill="#000000" font-family="sans-serif" font-size="10.4" lengthAdjust="spacing" textLength="33.6" x="250.8" y="434.443">selects</text><polygon fill="#181818" points="254,460.4859,246,463.6859,254,466.8859,250.8,463.6859" style="stroke:#181818;stroke-width:0.8000000000000002;"/><line style="stroke:#181818;stroke-width:0.8000000000000002;stroke-dasharray:2.0,2.0;" x1="249.2" x2="1214.4" y1="463.6859" y2="463.6859"/><text fill="#000000" font-family="sans-serif" font-size="10.4" lengthAdjust="spacing" textLength="52" x="258.8" y="459.4758">jobOpening</text><polygon fill="#181818" points="370,499.3516,378,502.5516,370,505.7516,373.2,502.5516" style="stroke:#181818;stroke-width:0.8000000000000002;"/><line style="stroke:#181818;stroke-width:0.8000000000000002;" x1="245.2" x2="374.8" y1="502.5516" y2="502.5516"/><text fill="#000000" font-family="sans-serif" font-size="10.4" lengthAdjust="spacing" textLength="119.2" x="250.8" y="484.5086">setupPhases(jobOpening,</text><text fill="#000000" font-family="sans-serif" font-size="10.4" lengthAdjust="spacing" textLength="88" x="250.8" y="498.3414">hasInterview,dates)</text><polygon fill="#181818" points="883.6,524.3844,891.6,527.5844,883.6,530.7844,886.8,527.5844" style="stroke:#181818;stroke-width:0.8000000000000002;"/><line style="stroke:#181818;stroke-width:0.8000000000000002;" x1="387.6" x2="888.4" y1="527.5844" y2="527.5844"/><text fill="#000000" font-family="sans-serif" font-size="10.4" lengthAdjust="spacing" textLength="35.2" x="393.2" y="523.3742">create()</text><polygon fill="#181818" points="396.4,549.4172,388.4,552.6172,396.4,555.8172,393.2,552.6172" style="stroke:#181818;stroke-width:0.8000000000000002;"/><line style="stroke:#181818;stroke-width:0.8000000000000002;stroke-dasharray:2.0,2.0;" x1="391.6" x2="896.4" y1="552.6172" y2="552.6172"/><text fill="#000000" font-family="sans-serif" font-size="10.4" lengthAdjust="spacing" textLength="33.6" x="401.2" y="548.407">phases</text><polygon fill="#181818" points="1020,574.45,1028,577.65,1020,580.85,1023.2,577.65" style="stroke:#181818;stroke-width:0.8000000000000002;"/><line style="stroke:#181818;stroke-width:0.8000000000000002;" x1="387.6" x2="1024.8" y1="577.65" y2="577.65"/><text fill="#000000" font-family="sans-serif" font-size="10.4" lengthAdjust="spacing" textLength="29.6" x="393.2" y="573.4398">crete()</text><polygon fill="#181818" points="396.4,599.4828,388.4,602.6828,396.4,605.8828,393.2,602.6828" style="stroke:#181818;stroke-width:0.8000000000000002;"/><line style="stroke:#181818;stroke-width:0.8000000000000002;stroke-dasharray:2.0,2.0;" x1="391.6" x2="1032.8" y1="602.6828" y2="602.6828"/><text fill="#000000" font-family="sans-serif" font-size="10.4" lengthAdjust="spacing" textLength="90.4" x="401.2" y="598.4727">recruitmentProcess</text><polygon fill="#181818" points="1205.6,624.5156,1213.6,627.7156,1205.6,630.9156,1208.8,627.7156" style="stroke:#181818;stroke-width:0.8000000000000002;"/><line style="stroke:#181818;stroke-width:0.8000000000000002;" x1="387.6" x2="1210.4" y1="627.7156" y2="627.7156"/><text fill="#000000" font-family="sans-serif" font-size="10.4" lengthAdjust="spacing" textLength="157.6" x="393.2" y="623.5055">setupPhases(recruitmentProcess)</text><polygon fill="#181818" points="793.2,649.5484,801.2,652.7484,793.2,655.9484,796.4,652.7484" style="stroke:#181818;stroke-width:0.8000000000000002;"/><line style="stroke:#181818;stroke-width:0.8000000000000002;" x1="387.6" x2="798" y1="652.7484" y2="652.7484"/><text fill="#000000" font-family="sans-serif" font-size="10.4" lengthAdjust="spacing" textLength="79.2" x="393.2" y="648.5383">save(jobOpening)</text><polygon fill="#181818" points="254,674.5813,246,677.7813,254,680.9813,250.8,677.7813" style="stroke:#181818;stroke-width:0.8000000000000002;"/><line style="stroke:#181818;stroke-width:0.8000000000000002;stroke-dasharray:2.0,2.0;" x1="249.2" x2="382.8" y1="677.7813" y2="677.7813"/><text fill="#000000" font-family="sans-serif" font-size="10.4" lengthAdjust="spacing" textLength="106.4" x="258.8" y="673.5711">show operation sucess</text><polygon fill="#181818" points="67.6,699.6141,59.6,702.8141,67.6,706.0141,64.4,702.8141" style="stroke:#181818;stroke-width:0.8000000000000002;"/><line style="stroke:#181818;stroke-width:0.8000000000000002;stroke-dasharray:2.0,2.0;" x1="62.8" x2="236.4" y1="702.8141" y2="702.8141"/><text fill="#000000" font-family="sans-serif" font-size="10.4" lengthAdjust="spacing" textLength="106.4" x="72.4" y="698.6039">show operation sucess</text><!--SRC=[ZLHDZ-8m3BtdLrYSG1eaj4SEAwrcBenMcj5KtFQIRJsGeIJTs0NnxzT9eKq_GCC1aRptRCVFXWx6Ljhh8noTTVdUkoC2-neLjKYbyuFUOSQN4i5ZpjhkofH0Ursuix4x-DGbeL9iMAWP_glHvWWlHky2RvwzB609smn-h5OhhPJIEJiFi-UQM19xE6ehcVmCDC6Mq2j9m2OtbROCimovhjxtcf2scuQpwJFM2UNPMVQkBA_XkcDVKXhYL_VthK8hBnY80dXFkEvK7rWvClAKIvDApj_blhwDoB7y25RXLn-K_llQy14jltkN8z7wOtGLnSAy7liHljfIaggYea5KuuivQSR611M-OVbJsWrhSTkTvukKir42tE32PLT2SzcrJy3SeoZkW9_65h_AKj0sTD9xbN15ER1cMZwmJwc1ACG9Pjr97fnH4LyASvImQ-HlWLI1D-L4ek5R7sa7kjZL1_pGoK2Z63YuCs23jiKVAmOVa80T49QonE0i3fpbIuLXRcHjYR60GhE6UHViIQB8H6uiepyPF3y51bBhPiCCHSGCrBNoDbbNniIp-YsOc0xgDhjVKg-YQq7V6A2uM-b8jffcwrH363aNhwbNRZzmjtTDz7xmP2jLmXob6U_vWvH9uxicZICib1eguzzF4EeJ9crTJ4zX72vNeTTid0MgHtLD3EE8ttx-0m00]--></g></svg>