<?xml version="1.0" encoding="UTF-8" standalone="no"?><svg xmlns="http://www.w3.org/2000/svg" xmlns:xlink="http://www.w3.org/1999/xlink" contentStyleType="text/css" height="1059px" preserveAspectRatio="none" style="width:1728px;height:1059px;background:#FFFFFF;" version="1.1" viewBox="0 0 1728 1059" width="1728px" zoomAndPan="magnify"><defs/><g><text fill="#000000" font-family="sans-serif" font-size="14" font-weight="bold" lengthAdjust="spacing" textLength="244" x="741" y="28.5352">Sequence Diagram (SD) - US 1006</text><rect fill="#FFFFFF" height="826.2031" style="stroke:#181818;stroke-width:1.0;" width="10" x="93.5" y="136.043"/><rect fill="#FFFFFF" height="742.0938" style="stroke:#181818;stroke-width:1.0;" width="10" x="328.5" y="211.1523"/><rect fill="#FFFFFF" height="478.6563" style="stroke:#181818;stroke-width:1.0;" width="10" x="598.5" y="291.2617"/><rect fill="#FFFFFF" height="403.5469" style="stroke:#181818;stroke-width:1.0;" width="10" x="993.5" y="328.8164"/><rect fill="#FFFFFF" height="89.1094" style="stroke:#181818;stroke-width:1.0;" width="10" x="1194" y="366.3711"/><rect fill="#FFFFFF" height="14" style="stroke:#181818;stroke-width:1.0;" width="10" x="1394.5" y="403.9258"/><rect fill="#FFFFFF" height="75.1094" style="stroke:#181818;stroke-width:1.0;" width="10" x="1394.5" y="493.0352"/><rect fill="#FFFFFF" height="14" style="stroke:#181818;stroke-width:1.0;" width="10" x="1607" y="605.6992"/><line style="stroke:#181818;stroke-width:0.5;stroke-dasharray:5.0,5.0;" x1="98" x2="98" y1="126.043" y2="971.2461"/><line style="stroke:#181818;stroke-width:0.5;stroke-dasharray:5.0,5.0;" x1="333" x2="333" y1="126.043" y2="971.2461"/><line style="stroke:#181818;stroke-width:0.5;stroke-dasharray:5.0,5.0;" x1="603" x2="603" y1="126.043" y2="971.2461"/><line style="stroke:#181818;stroke-width:0.5;stroke-dasharray:5.0,5.0;" x1="998" x2="998" y1="126.043" y2="971.2461"/><line style="stroke:#181818;stroke-width:0.5;stroke-dasharray:5.0,5.0;" x1="1199" x2="1199" y1="126.043" y2="971.2461"/><line style="stroke:#181818;stroke-width:0.5;stroke-dasharray:5.0,5.0;" x1="1399" x2="1399" y1="126.043" y2="971.2461"/><line style="stroke:#181818;stroke-width:0.5;stroke-dasharray:5.0,5.0;" x1="1612" x2="1612" y1="126.043" y2="971.2461"/><text fill="#000000" font-family="sans-serif" font-size="20" lengthAdjust="spacing" textLength="181" x="5" y="121.8242">Customer Manager</text><ellipse cx="98.5" cy="50.9883" fill="#E3E3E3" rx="8" ry="8" style="stroke:#181818;stroke-width:0.5;"/><path d="M98.5,58.9883 L98.5,85.9883 M85.5,66.9883 L111.5,66.9883 M98.5,85.9883 L85.5,100.9883 M98.5,85.9883 L111.5,100.9883 " fill="none" style="stroke:#181818;stroke-width:0.5;"/><text fill="#000000" font-family="sans-serif" font-size="20" lengthAdjust="spacing" textLength="181" x="5" y="989.582">Customer Manager</text><ellipse cx="98.5" cy="1002.3008" fill="#E3E3E3" rx="8" ry="8" style="stroke:#181818;stroke-width:0.5;"/><path d="M98.5,1010.3008 L98.5,1037.3008 M85.5,1018.3008 L111.5,1018.3008 M98.5,1037.3008 L85.5,1052.3008 M98.5,1037.3008 L111.5,1052.3008 " fill="none" style="stroke:#181818;stroke-width:0.5;"/><rect fill="#E3E3E3" height="37.5547" rx="2.5" ry="2.5" style="stroke:#181818;stroke-width:0.5;" width="219" x="224" y="87.4883"/><text fill="#000000" font-family="sans-serif" font-size="20" lengthAdjust="spacing" textLength="205" x="231" y="113.8242">ShowCandidateInfoUI</text><rect fill="#E3E3E3" height="37.5547" rx="2.5" ry="2.5" style="stroke:#181818;stroke-width:0.5;" width="219" x="224" y="970.2461"/><text fill="#000000" font-family="sans-serif" font-size="20" lengthAdjust="spacing" textLength="205" x="231" y="996.582">ShowCandidateInfoUI</text><rect fill="#E3E3E3" height="37.5547" rx="2.5" ry="2.5" style="stroke:#181818;stroke-width:0.5;" width="301" x="453" y="87.4883"/><text fill="#000000" font-family="sans-serif" font-size="20" lengthAdjust="spacing" textLength="287" x="460" y="113.8242">:ShowCandidateInfoController</text><rect fill="#E3E3E3" height="37.5547" rx="2.5" ry="2.5" style="stroke:#181818;stroke-width:0.5;" width="301" x="453" y="970.2461"/><text fill="#000000" font-family="sans-serif" font-size="20" lengthAdjust="spacing" textLength="287" x="460" y="996.582">:ShowCandidateInfoController</text><rect fill="#E3E3E3" height="37.5547" rx="2.5" ry="2.5" style="stroke:#181818;stroke-width:0.5;" width="185" x="906" y="87.4883"/><text fill="#000000" font-family="sans-serif" font-size="20" lengthAdjust="spacing" textLength="171" x="913" y="113.8242">:CandidateService</text><rect fill="#E3E3E3" height="37.5547" rx="2.5" ry="2.5" style="stroke:#181818;stroke-width:0.5;" width="185" x="906" y="970.2461"/><text fill="#000000" font-family="sans-serif" font-size="20" lengthAdjust="spacing" textLength="171" x="913" y="996.582">:CandidateService</text><rect fill="#E3E3E3" height="37.5547" rx="2.5" ry="2.5" style="stroke:#181818;stroke-width:0.5;" width="196" x="1101" y="87.4883"/><text fill="#000000" font-family="sans-serif" font-size="20" lengthAdjust="spacing" textLength="182" x="1108" y="113.8242">PersistenceContext</text><rect fill="#E3E3E3" height="37.5547" rx="2.5" ry="2.5" style="stroke:#181818;stroke-width:0.5;" width="196" x="1101" y="970.2461"/><text fill="#000000" font-family="sans-serif" font-size="20" lengthAdjust="spacing" textLength="182" x="1108" y="996.582">PersistenceContext</text><rect fill="#E3E3E3" height="37.5547" rx="2.5" ry="2.5" style="stroke:#181818;stroke-width:0.5;" width="185" x="1307" y="87.4883"/><text fill="#000000" font-family="sans-serif" font-size="20" lengthAdjust="spacing" textLength="171" x="1314" y="113.8242">RepositoryFactory</text><rect fill="#E3E3E3" height="37.5547" rx="2.5" ry="2.5" style="stroke:#181818;stroke-width:0.5;" width="185" x="1307" y="970.2461"/><text fill="#000000" font-family="sans-serif" font-size="20" lengthAdjust="spacing" textLength="171" x="1314" y="996.582">RepositoryFactory</text><rect fill="#E3E3E3" height="37.5547" rx="2.5" ry="2.5" style="stroke:#181818;stroke-width:0.5;" width="220" x="1502" y="87.4883"/><text fill="#000000" font-family="sans-serif" font-size="20" lengthAdjust="spacing" textLength="206" x="1509" y="113.8242">:CandidateRepository</text><rect fill="#E3E3E3" height="37.5547" rx="2.5" ry="2.5" style="stroke:#181818;stroke-width:0.5;" width="220" x="1502" y="970.2461"/><text fill="#000000" font-family="sans-serif" font-size="20" lengthAdjust="spacing" textLength="206" x="1509" y="996.582">:CandidateRepository</text><rect fill="#FFFFFF" height="826.2031" style="stroke:#181818;stroke-width:1.0;" width="10" x="93.5" y="136.043"/><rect fill="#FFFFFF" height="742.0938" style="stroke:#181818;stroke-width:1.0;" width="10" x="328.5" y="211.1523"/><rect fill="#FFFFFF" height="478.6563" style="stroke:#181818;stroke-width:1.0;" width="10" x="598.5" y="291.2617"/><rect fill="#FFFFFF" height="403.5469" style="stroke:#181818;stroke-width:1.0;" width="10" x="993.5" y="328.8164"/><rect fill="#FFFFFF" height="89.1094" style="stroke:#181818;stroke-width:1.0;" width="10" x="1194" y="366.3711"/><rect fill="#FFFFFF" height="14" style="stroke:#181818;stroke-width:1.0;" width="10" x="1394.5" y="403.9258"/><rect fill="#FFFFFF" height="75.1094" style="stroke:#181818;stroke-width:1.0;" width="10" x="1394.5" y="493.0352"/><rect fill="#FFFFFF" height="14" style="stroke:#181818;stroke-width:1.0;" width="10" x="1607" y="605.6992"/><polygon fill="#181818" points="321.5,161.5977,331.5,165.5977,321.5,169.5977,325.5,165.5977" style="stroke:#181818;stroke-width:1.0;"/><line style="stroke:#181818;stroke-width:1.0;" x1="103.5" x2="327.5" y1="165.5977" y2="165.5977"/><text fill="#000000" font-family="sans-serif" font-size="20" lengthAdjust="spacing" textLength="63" x="110.5" y="159.3789">show()</text><line style="stroke:#181818;stroke-width:1.0;stroke-dasharray:2.0,2.0;" x1="333.5" x2="380.5" y1="198.1523" y2="198.1523"/><line style="stroke:#181818;stroke-width:1.0;stroke-dasharray:2.0,2.0;" x1="380.5" x2="380.5" y1="198.1523" y2="211.1523"/><line style="stroke:#181818;stroke-width:1.0;stroke-dasharray:2.0,2.0;" x1="339.5" x2="380.5" y1="211.1523" y2="211.1523"/><polygon fill="#181818" points="349.5,207.1523,339.5,211.1523,349.5,215.1523,345.5,211.1523" style="stroke:#181818;stroke-width:1.0;"/><text fill="#000000" font-family="sans-serif" font-size="20" lengthAdjust="spacing" textLength="89" x="345.5" y="191.9336">doShow()</text><polygon fill="#181818" points="591.5,249.707,601.5,253.707,591.5,257.707,595.5,253.707" style="stroke:#181818;stroke-width:1.0;"/><line style="stroke:#181818;stroke-width:1.0;stroke-dasharray:2.0,2.0;" x1="338.5" x2="597.5" y1="253.707" y2="253.707"/><text fill="#000000" font-family="sans-serif" font-size="20" lengthAdjust="spacing" textLength="72" x="345.5" y="247.4883">create()</text><polygon fill="#181818" points="586.5,287.2617,596.5,291.2617,586.5,295.2617,590.5,291.2617" style="stroke:#181818;stroke-width:1.0;"/><line style="stroke:#181818;stroke-width:1.0;" x1="338.5" x2="592.5" y1="291.2617" y2="291.2617"/><text fill="#000000" font-family="sans-serif" font-size="20" lengthAdjust="spacing" textLength="148" x="345.5" y="285.043">allActiveUsers()</text><polygon fill="#181818" points="981.5,324.8164,991.5,328.8164,981.5,332.8164,985.5,328.8164" style="stroke:#181818;stroke-width:1.0;"/><line style="stroke:#181818;stroke-width:1.0;" x1="608.5" x2="987.5" y1="328.8164" y2="328.8164"/><text fill="#000000" font-family="sans-serif" font-size="20" lengthAdjust="spacing" textLength="148" x="615.5" y="322.5977">allActiveUsers()</text><polygon fill="#181818" points="1182,362.3711,1192,366.3711,1182,370.3711,1186,366.3711" style="stroke:#181818;stroke-width:1.0;"/><line style="stroke:#181818;stroke-width:1.0;" x1="1003.5" x2="1188" y1="366.3711" y2="366.3711"/><text fill="#000000" font-family="sans-serif" font-size="20" lengthAdjust="spacing" textLength="128" x="1010.5" y="360.1523">repositories()</text><polygon fill="#181818" points="1382.5,399.9258,1392.5,403.9258,1382.5,407.9258,1386.5,403.9258" style="stroke:#181818;stroke-width:1.0;"/><line style="stroke:#181818;stroke-width:1.0;" x1="1204" x2="1388.5" y1="403.9258" y2="403.9258"/><text fill="#000000" font-family="sans-serif" font-size="20" lengthAdjust="spacing" textLength="72" x="1211" y="397.707">create()</text><polygon fill="#181818" points="1215,413.9258,1205,417.9258,1215,421.9258,1211,417.9258" style="stroke:#181818;stroke-width:1.0;"/><line style="stroke:#181818;stroke-width:1.0;stroke-dasharray:2.0,2.0;" x1="1209" x2="1398.5" y1="417.9258" y2="417.9258"/><polygon fill="#181818" points="1014.5,451.4805,1004.5,455.4805,1014.5,459.4805,1010.5,455.4805" style="stroke:#181818;stroke-width:1.0;"/><line style="stroke:#181818;stroke-width:1.0;stroke-dasharray:2.0,2.0;" x1="1008.5" x2="1198" y1="455.4805" y2="455.4805"/><text fill="#000000" font-family="sans-serif" font-size="20" lengthAdjust="spacing" textLength="65" x="1020.5" y="449.2617">factory</text><polygon fill="#181818" points="1382.5,489.0352,1392.5,493.0352,1382.5,497.0352,1386.5,493.0352" style="stroke:#181818;stroke-width:1.0;"/><line style="stroke:#181818;stroke-width:1.0;" x1="1003.5" x2="1388.5" y1="493.0352" y2="493.0352"/><text fill="#000000" font-family="sans-serif" font-size="20" lengthAdjust="spacing" textLength="65" x="1010.5" y="486.8164">users()</text><polygon fill="#181818" points="1600,526.5898,1610,530.5898,1600,534.5898,1604,530.5898" style="stroke:#181818;stroke-width:1.0;"/><line style="stroke:#181818;stroke-width:1.0;" x1="1404.5" x2="1606" y1="530.5898" y2="530.5898"/><text fill="#000000" font-family="sans-serif" font-size="20" lengthAdjust="spacing" textLength="72" x="1411.5" y="524.3711">create()</text><polygon fill="#181818" points="1014.5,564.1445,1004.5,568.1445,1014.5,572.1445,1010.5,568.1445" style="stroke:#181818;stroke-width:1.0;"/><line style="stroke:#181818;stroke-width:1.0;stroke-dasharray:2.0,2.0;" x1="1008.5" x2="1398.5" y1="568.1445" y2="568.1445"/><text fill="#000000" font-family="sans-serif" font-size="20" lengthAdjust="spacing" textLength="143" x="1020.5" y="561.9258">userRepository</text><polygon fill="#181818" points="1595,601.6992,1605,605.6992,1595,609.6992,1599,605.6992" style="stroke:#181818;stroke-width:1.0;"/><line style="stroke:#181818;stroke-width:1.0;" x1="1003.5" x2="1601" y1="605.6992" y2="605.6992"/><text fill="#000000" font-family="sans-serif" font-size="20" lengthAdjust="spacing" textLength="136" x="1010.5" y="599.4805">findAllActive()</text><polygon fill="#181818" points="1014.5,615.6992,1004.5,619.6992,1014.5,623.6992,1010.5,619.6992" style="stroke:#181818;stroke-width:1.0;"/><line style="stroke:#181818;stroke-width:1.0;stroke-dasharray:2.0,2.0;" x1="1008.5" x2="1611" y1="619.6992" y2="619.6992"/><polygon fill="#181818" points="619.5,653.2539,609.5,657.2539,619.5,661.2539,615.5,657.2539" style="stroke:#181818;stroke-width:1.0;"/><line style="stroke:#181818;stroke-width:1.0;stroke-dasharray:2.0,2.0;" x1="613.5" x2="992.5" y1="657.2539" y2="657.2539"/><text fill="#000000" font-family="sans-serif" font-size="20" lengthAdjust="spacing" textLength="131" x="625.5" y="651.0352">allCandidates</text><polygon fill="#181818" points="981.5,690.8086,991.5,694.8086,981.5,698.8086,985.5,694.8086" style="stroke:#181818;stroke-width:1.0;"/><line style="stroke:#181818;stroke-width:1.0;" x1="608.5" x2="987.5" y1="694.8086" y2="694.8086"/><text fill="#000000" font-family="sans-serif" font-size="20" lengthAdjust="spacing" textLength="361" x="615.5" y="688.5898">sortUserAlphabetically(allCandidates)</text><polygon fill="#181818" points="619.5,728.3633,609.5,732.3633,619.5,736.3633,615.5,732.3633" style="stroke:#181818;stroke-width:1.0;"/><line style="stroke:#181818;stroke-width:1.0;stroke-dasharray:2.0,2.0;" x1="613.5" x2="997.5" y1="732.3633" y2="732.3633"/><text fill="#000000" font-family="sans-serif" font-size="20" lengthAdjust="spacing" textLength="131" x="625.5" y="726.1445">allCandidates</text><polygon fill="#181818" points="349.5,765.918,339.5,769.918,349.5,773.918,345.5,769.918" style="stroke:#181818;stroke-width:1.0;"/><line style="stroke:#181818;stroke-width:1.0;stroke-dasharray:2.0,2.0;" x1="343.5" x2="602.5" y1="769.918" y2="769.918"/><text fill="#000000" font-family="sans-serif" font-size="20" lengthAdjust="spacing" textLength="131" x="355.5" y="763.6992">allCandidates</text><polygon fill="#181818" points="114.5,827.0273,104.5,831.0273,114.5,835.0273,110.5,831.0273" style="stroke:#181818;stroke-width:1.0;"/><line style="stroke:#181818;stroke-width:1.0;stroke-dasharray:2.0,2.0;" x1="108.5" x2="327.5" y1="831.0273" y2="831.0273"/><text fill="#000000" font-family="sans-serif" font-size="20" lengthAdjust="spacing" textLength="139" x="120.5" y="801.2539">displays list of</text><text fill="#000000" font-family="sans-serif" font-size="20" lengthAdjust="spacing" textLength="104" x="126.5" y="824.8086">candidates</text><polygon fill="#181818" points="316.5,888.1367,326.5,892.1367,316.5,896.1367,320.5,892.1367" style="stroke:#181818;stroke-width:1.0;"/><line style="stroke:#181818;stroke-width:1.0;" x1="103.5" x2="322.5" y1="892.1367" y2="892.1367"/><text fill="#000000" font-family="sans-serif" font-size="20" lengthAdjust="spacing" textLength="201" x="110.5" y="862.3633">selects candidate the</text><text fill="#000000" font-family="sans-serif" font-size="20" lengthAdjust="spacing" textLength="173" x="116.5" y="885.918">check information</text><polygon fill="#181818" points="114.5,949.2461,104.5,953.2461,114.5,957.2461,110.5,953.2461" style="stroke:#181818;stroke-width:1.0;"/><line style="stroke:#181818;stroke-width:1.0;stroke-dasharray:2.0,2.0;" x1="108.5" x2="332.5" y1="953.2461" y2="953.2461"/><text fill="#000000" font-family="sans-serif" font-size="20" lengthAdjust="spacing" textLength="197" x="120.5" y="923.4727">displays information</text><text fill="#000000" font-family="sans-serif" font-size="20" lengthAdjust="spacing" textLength="119" x="126.5" y="947.0273">of candidate</text><!--SRC=[bLGzZzim3DtzAuXCoH0WxT3XXWE270xmKA2eaQsBAjEn44Lo9VbIzzUNygTaEocQoH7VUoGVATchK1Kpx2Orls8EEHQibkvTAvU9FmYV3uaT873JIlFIw1k2CpK6aOhnAxjWvXg9O90xfYuo1DYIvVekr0KA9YqcYHEEe1d-gb5nX3V1BXwtpTvsi8Tp1fyEXoy9_HXtsi3cL5j7YGryPOeocGqm2sUB9g44Jd1HCULWavNwVc8g5pbpcAf2dzCEcSQubmNmH2qRBMKlFVsT4KTIXkP3S6pH_NSIOx-XiS8wtw2Nmz-k1I-FOzfthBGLr7NptZRVj2mwVLJ9HEXAPyg3lNFYWyATJGdGpt_1_fNiW1UQYRvlTtqWXVrmdkkiY_Z09996oCaVOd2310crPW0cvT4BeI_0pgK3hzj0G2MXtjj_gempyAS3YVXBkqdA39O9N0YjpAS5h0YHF5aTEX0fjMFm9nwqNwsb3UUufAnbYzmekkMO2pogFd2aAxbUCp6k-BNVfSM8XtwcQhpQj8SFkmgg6AKBeVBZCDh5RlJBtEv5nuWIppE5-37PoZgEbyS-tpchZVFhTfHLoNuYNJyYDzj8OVTVwMO5HsiRLZ5SnwVi-TKPxh5j4-V2Lf8r5YHj1EZYXm8-wpj-4L3Issqd4BWIFQb4VWL1hwIvCIUqUfeim15N5vFSl7h_fgojoby0]--></g></svg>