<?xml version="1.0" encoding="UTF-8" standalone="no"?><svg xmlns="http://www.w3.org/2000/svg" xmlns:xlink="http://www.w3.org/1999/xlink" contentStyleType="text/css" height="1411px" preserveAspectRatio="none" style="width:1836px;height:1411px;background:#FFFFFF;" version="1.1" viewBox="0 0 1836 1411" width="1836px" zoomAndPan="magnify"><defs/><g><text fill="#000000" font-family="sans-serif" font-size="14" font-weight="bold" lengthAdjust="spacing" textLength="244" x="795" y="28.5352">Sequence Diagram (SD) - US 1011</text><rect fill="#FFFFFF" height="1178.1953" style="stroke:#181818;stroke-width:1.0;" width="10" x="93.5" y="136.043"/><rect fill="#FFFFFF" height="1103.0859" style="stroke:#181818;stroke-width:1.0;" width="10" x="368.5" y="211.1523"/><rect fill="#FFFFFF" height="351.9922" style="stroke:#181818;stroke-width:1.0;" width="10" x="686.5" y="291.2617"/><rect fill="#FFFFFF" height="534.7656" style="stroke:#181818;stroke-width:1.0;" width="10" x="686.5" y="779.4727"/><rect fill="#FFFFFF" height="149.6641" style="stroke:#181818;stroke-width:1.0;" width="10" x="691.5" y="1164.5742"/><rect fill="#FFFFFF" height="89.1094" style="stroke:#181818;stroke-width:1.0;" width="10" x="953" y="328.8164"/><rect fill="#FFFFFF" height="14" style="stroke:#181818;stroke-width:1.0;" width="10" x="1153.5" y="366.3711"/><rect fill="#FFFFFF" height="75.1094" style="stroke:#181818;stroke-width:1.0;" width="10" x="1153.5" y="455.4805"/><rect fill="#FFFFFF" height="75.1094" style="stroke:#181818;stroke-width:1.0;" width="10" x="1153.5" y="817.0273"/><rect fill="#FFFFFF" height="37.5547" style="stroke:#181818;stroke-width:1.0;" width="10" x="1373.5" y="568.1445"/><rect fill="#FFFFFF" height="37.5547" style="stroke:#181818;stroke-width:1.0;" width="10" x="1591.5" y="929.6914"/><rect fill="#FFFFFF" height="14" style="stroke:#181818;stroke-width:1.0;" width="10" x="1758.5" y="1202.1289"/><line style="stroke:#181818;stroke-width:0.5;stroke-dasharray:5.0,5.0;" x1="98" x2="98" y1="126.043" y2="1323.2383"/><line style="stroke:#181818;stroke-width:0.5;stroke-dasharray:5.0,5.0;" x1="373" x2="373" y1="126.043" y2="1323.2383"/><line style="stroke:#181818;stroke-width:0.5;stroke-dasharray:5.0,5.0;" x1="691" x2="691" y1="126.043" y2="1323.2383"/><line style="stroke:#181818;stroke-width:0.5;stroke-dasharray:5.0,5.0;" x1="958" x2="958" y1="126.043" y2="1323.2383"/><line style="stroke:#181818;stroke-width:0.5;stroke-dasharray:5.0,5.0;" x1="1158" x2="1158" y1="126.043" y2="1323.2383"/><line style="stroke:#181818;stroke-width:0.5;stroke-dasharray:5.0,5.0;" x1="1378" x2="1378" y1="126.043" y2="1323.2383"/><line style="stroke:#181818;stroke-width:0.5;stroke-dasharray:5.0,5.0;" x1="1596" x2="1596" y1="126.043" y2="1323.2383"/><line style="stroke:#181818;stroke-width:0.5;stroke-dasharray:5.0,5.0;" x1="1763" x2="1763" y1="126.043" y2="1323.2383"/><text fill="#000000" font-family="sans-serif" font-size="20" lengthAdjust="spacing" textLength="181" x="5" y="121.8242">Customer Manager</text><ellipse cx="98.5" cy="50.9883" fill="#E3E3E3" rx="8" ry="8" style="stroke:#181818;stroke-width:0.5;"/><path d="M98.5,58.9883 L98.5,85.9883 M85.5,66.9883 L111.5,66.9883 M98.5,85.9883 L85.5,100.9883 M98.5,85.9883 L111.5,100.9883 " fill="none" style="stroke:#181818;stroke-width:0.5;"/><text fill="#000000" font-family="sans-serif" font-size="20" lengthAdjust="spacing" textLength="181" x="5" y="1341.5742">Customer Manager</text><ellipse cx="98.5" cy="1354.293" fill="#E3E3E3" rx="8" ry="8" style="stroke:#181818;stroke-width:0.5;"/><path d="M98.5,1362.293 L98.5,1389.293 M85.5,1370.293 L111.5,1370.293 M98.5,1389.293 L85.5,1404.293 M98.5,1389.293 L111.5,1404.293 " fill="none" style="stroke:#181818;stroke-width:0.5;"/><rect fill="#E3E3E3" height="37.5547" rx="2.5" ry="2.5" style="stroke:#181818;stroke-width:0.5;" width="235" x="256" y="87.4883"/><text fill="#000000" font-family="sans-serif" font-size="20" lengthAdjust="spacing" textLength="221" x="263" y="113.8242">SelectInterviewModelUI</text><rect fill="#E3E3E3" height="37.5547" rx="2.5" ry="2.5" style="stroke:#181818;stroke-width:0.5;" width="235" x="256" y="1322.2383"/><text fill="#000000" font-family="sans-serif" font-size="20" lengthAdjust="spacing" textLength="221" x="263" y="1348.5742">SelectInterviewModelUI</text><rect fill="#E3E3E3" height="37.5547" rx="2.5" ry="2.5" style="stroke:#181818;stroke-width:0.5;" width="317" x="533" y="87.4883"/><text fill="#000000" font-family="sans-serif" font-size="20" lengthAdjust="spacing" textLength="303" x="540" y="113.8242">:SelectInterviewModelController</text><rect fill="#E3E3E3" height="37.5547" rx="2.5" ry="2.5" style="stroke:#181818;stroke-width:0.5;" width="317" x="533" y="1322.2383"/><text fill="#000000" font-family="sans-serif" font-size="20" lengthAdjust="spacing" textLength="303" x="540" y="1348.5742">:SelectInterviewModelController</text><rect fill="#E3E3E3" height="37.5547" rx="2.5" ry="2.5" style="stroke:#181818;stroke-width:0.5;" width="196" x="860" y="87.4883"/><text fill="#000000" font-family="sans-serif" font-size="20" lengthAdjust="spacing" textLength="182" x="867" y="113.8242">PersistenceContext</text><rect fill="#E3E3E3" height="37.5547" rx="2.5" ry="2.5" style="stroke:#181818;stroke-width:0.5;" width="196" x="860" y="1322.2383"/><text fill="#000000" font-family="sans-serif" font-size="20" lengthAdjust="spacing" textLength="182" x="867" y="1348.5742">PersistenceContext</text><rect fill="#E3E3E3" height="37.5547" rx="2.5" ry="2.5" style="stroke:#181818;stroke-width:0.5;" width="185" x="1066" y="87.4883"/><text fill="#000000" font-family="sans-serif" font-size="20" lengthAdjust="spacing" textLength="171" x="1073" y="113.8242">RepositoryFactory</text><rect fill="#E3E3E3" height="37.5547" rx="2.5" ry="2.5" style="stroke:#181818;stroke-width:0.5;" width="185" x="1066" y="1322.2383"/><text fill="#000000" font-family="sans-serif" font-size="20" lengthAdjust="spacing" textLength="171" x="1073" y="1348.5742">RepositoryFactory</text><rect fill="#E3E3E3" height="37.5547" rx="2.5" ry="2.5" style="stroke:#181818;stroke-width:0.5;" width="235" x="1261" y="87.4883"/><text fill="#000000" font-family="sans-serif" font-size="20" lengthAdjust="spacing" textLength="221" x="1268" y="113.8242">:JobOpeningRepository</text><rect fill="#E3E3E3" height="37.5547" rx="2.5" ry="2.5" style="stroke:#181818;stroke-width:0.5;" width="235" x="1261" y="1322.2383"/><text fill="#000000" font-family="sans-serif" font-size="20" lengthAdjust="spacing" textLength="221" x="1268" y="1348.5742">:JobOpeningRepository</text><rect fill="#E3E3E3" height="37.5547" rx="2.5" ry="2.5" style="stroke:#181818;stroke-width:0.5;" width="181" x="1506" y="87.4883"/><text fill="#000000" font-family="sans-serif" font-size="20" lengthAdjust="spacing" textLength="167" x="1513" y="113.8242">:PluginRepository</text><rect fill="#E3E3E3" height="37.5547" rx="2.5" ry="2.5" style="stroke:#181818;stroke-width:0.5;" width="181" x="1506" y="1322.2383"/><text fill="#000000" font-family="sans-serif" font-size="20" lengthAdjust="spacing" textLength="167" x="1513" y="1348.5742">:PluginRepository</text><rect fill="#E3E3E3" height="37.5547" rx="2.5" ry="2.5" style="stroke:#181818;stroke-width:0.5;" width="133" x="1697" y="87.4883"/><text fill="#000000" font-family="sans-serif" font-size="20" lengthAdjust="spacing" textLength="119" x="1704" y="113.8242">:JobOpening</text><rect fill="#E3E3E3" height="37.5547" rx="2.5" ry="2.5" style="stroke:#181818;stroke-width:0.5;" width="133" x="1697" y="1322.2383"/><text fill="#000000" font-family="sans-serif" font-size="20" lengthAdjust="spacing" textLength="119" x="1704" y="1348.5742">:JobOpening</text><rect fill="#FFFFFF" height="1178.1953" style="stroke:#181818;stroke-width:1.0;" width="10" x="93.5" y="136.043"/><rect fill="#FFFFFF" height="1103.0859" style="stroke:#181818;stroke-width:1.0;" width="10" x="368.5" y="211.1523"/><rect fill="#FFFFFF" height="351.9922" style="stroke:#181818;stroke-width:1.0;" width="10" x="686.5" y="291.2617"/><rect fill="#FFFFFF" height="534.7656" style="stroke:#181818;stroke-width:1.0;" width="10" x="686.5" y="779.4727"/><rect fill="#FFFFFF" height="149.6641" style="stroke:#181818;stroke-width:1.0;" width="10" x="691.5" y="1164.5742"/><rect fill="#FFFFFF" height="89.1094" style="stroke:#181818;stroke-width:1.0;" width="10" x="953" y="328.8164"/><rect fill="#FFFFFF" height="14" style="stroke:#181818;stroke-width:1.0;" width="10" x="1153.5" y="366.3711"/><rect fill="#FFFFFF" height="75.1094" style="stroke:#181818;stroke-width:1.0;" width="10" x="1153.5" y="455.4805"/><rect fill="#FFFFFF" height="75.1094" style="stroke:#181818;stroke-width:1.0;" width="10" x="1153.5" y="817.0273"/><rect fill="#FFFFFF" height="37.5547" style="stroke:#181818;stroke-width:1.0;" width="10" x="1373.5" y="568.1445"/><rect fill="#FFFFFF" height="37.5547" style="stroke:#181818;stroke-width:1.0;" width="10" x="1591.5" y="929.6914"/><rect fill="#FFFFFF" height="14" style="stroke:#181818;stroke-width:1.0;" width="10" x="1758.5" y="1202.1289"/><polygon fill="#181818" points="361.5,161.5977,371.5,165.5977,361.5,169.5977,365.5,165.5977" style="stroke:#181818;stroke-width:1.0;"/><line style="stroke:#181818;stroke-width:1.0;" x1="103.5" x2="367.5" y1="165.5977" y2="165.5977"/><text fill="#000000" font-family="sans-serif" font-size="20" lengthAdjust="spacing" textLength="63" x="110.5" y="159.3789">show()</text><line style="stroke:#181818;stroke-width:1.0;stroke-dasharray:2.0,2.0;" x1="373.5" x2="420.5" y1="198.1523" y2="198.1523"/><line style="stroke:#181818;stroke-width:1.0;stroke-dasharray:2.0,2.0;" x1="420.5" x2="420.5" y1="198.1523" y2="211.1523"/><line style="stroke:#181818;stroke-width:1.0;stroke-dasharray:2.0,2.0;" x1="379.5" x2="420.5" y1="211.1523" y2="211.1523"/><polygon fill="#181818" points="389.5,207.1523,379.5,211.1523,389.5,215.1523,385.5,211.1523" style="stroke:#181818;stroke-width:1.0;"/><text fill="#000000" font-family="sans-serif" font-size="20" lengthAdjust="spacing" textLength="89" x="385.5" y="191.9336">doShow()</text><polygon fill="#181818" points="679.5,249.707,689.5,253.707,679.5,257.707,683.5,253.707" style="stroke:#181818;stroke-width:1.0;"/><line style="stroke:#181818;stroke-width:1.0;stroke-dasharray:2.0,2.0;" x1="378.5" x2="685.5" y1="253.707" y2="253.707"/><text fill="#000000" font-family="sans-serif" font-size="20" lengthAdjust="spacing" textLength="72" x="385.5" y="247.4883">create()</text><polygon fill="#181818" points="674.5,287.2617,684.5,291.2617,674.5,295.2617,678.5,291.2617" style="stroke:#181818;stroke-width:1.0;"/><line style="stroke:#181818;stroke-width:1.0;" x1="378.5" x2="680.5" y1="291.2617" y2="291.2617"/><text fill="#000000" font-family="sans-serif" font-size="20" lengthAdjust="spacing" textLength="160" x="385.5" y="285.043">allJobOpenings()</text><polygon fill="#181818" points="941,324.8164,951,328.8164,941,332.8164,945,328.8164" style="stroke:#181818;stroke-width:1.0;"/><line style="stroke:#181818;stroke-width:1.0;" x1="696.5" x2="947" y1="328.8164" y2="328.8164"/><text fill="#000000" font-family="sans-serif" font-size="20" lengthAdjust="spacing" textLength="128" x="703.5" y="322.5977">repositories()</text><polygon fill="#181818" points="1141.5,362.3711,1151.5,366.3711,1141.5,370.3711,1145.5,366.3711" style="stroke:#181818;stroke-width:1.0;"/><line style="stroke:#181818;stroke-width:1.0;" x1="963" x2="1147.5" y1="366.3711" y2="366.3711"/><text fill="#000000" font-family="sans-serif" font-size="20" lengthAdjust="spacing" textLength="72" x="970" y="360.1523">create()</text><polygon fill="#181818" points="974,376.3711,964,380.3711,974,384.3711,970,380.3711" style="stroke:#181818;stroke-width:1.0;"/><line style="stroke:#181818;stroke-width:1.0;stroke-dasharray:2.0,2.0;" x1="968" x2="1157.5" y1="380.3711" y2="380.3711"/><polygon fill="#181818" points="707.5,413.9258,697.5,417.9258,707.5,421.9258,703.5,417.9258" style="stroke:#181818;stroke-width:1.0;"/><line style="stroke:#181818;stroke-width:1.0;stroke-dasharray:2.0,2.0;" x1="701.5" x2="957" y1="417.9258" y2="417.9258"/><text fill="#000000" font-family="sans-serif" font-size="20" lengthAdjust="spacing" textLength="65" x="713.5" y="411.707">factory</text><polygon fill="#181818" points="1141.5,451.4805,1151.5,455.4805,1141.5,459.4805,1145.5,455.4805" style="stroke:#181818;stroke-width:1.0;"/><line style="stroke:#181818;stroke-width:1.0;" x1="696.5" x2="1147.5" y1="455.4805" y2="455.4805"/><text fill="#000000" font-family="sans-serif" font-size="20" lengthAdjust="spacing" textLength="133" x="703.5" y="449.2617">jobopenings()</text><polygon fill="#181818" points="1366.5,489.0352,1376.5,493.0352,1366.5,497.0352,1370.5,493.0352" style="stroke:#181818;stroke-width:1.0;"/><line style="stroke:#181818;stroke-width:1.0;" x1="1163.5" x2="1372.5" y1="493.0352" y2="493.0352"/><text fill="#000000" font-family="sans-serif" font-size="20" lengthAdjust="spacing" textLength="72" x="1170.5" y="486.8164">create()</text><polygon fill="#181818" points="707.5,526.5898,697.5,530.5898,707.5,534.5898,703.5,530.5898" style="stroke:#181818;stroke-width:1.0;"/><line style="stroke:#181818;stroke-width:1.0;stroke-dasharray:2.0,2.0;" x1="701.5" x2="1157.5" y1="530.5898" y2="530.5898"/><text fill="#000000" font-family="sans-serif" font-size="20" lengthAdjust="spacing" textLength="215" x="713.5" y="524.3711">jobOpeningRepository</text><polygon fill="#181818" points="1361.5,564.1445,1371.5,568.1445,1361.5,572.1445,1365.5,568.1445" style="stroke:#181818;stroke-width:1.0;"/><line style="stroke:#181818;stroke-width:1.0;" x1="696.5" x2="1367.5" y1="568.1445" y2="568.1445"/><text fill="#000000" font-family="sans-serif" font-size="20" lengthAdjust="spacing" textLength="78" x="703.5" y="561.9258">findAll()</text><polygon fill="#181818" points="707.5,601.6992,697.5,605.6992,707.5,609.6992,703.5,605.6992" style="stroke:#181818;stroke-width:1.0;"/><line style="stroke:#181818;stroke-width:1.0;stroke-dasharray:2.0,2.0;" x1="701.5" x2="1377.5" y1="605.6992" y2="605.6992"/><text fill="#000000" font-family="sans-serif" font-size="20" lengthAdjust="spacing" textLength="123" x="713.5" y="599.4805">jobOpenings</text><polygon fill="#181818" points="389.5,639.2539,379.5,643.2539,389.5,647.2539,385.5,643.2539" style="stroke:#181818;stroke-width:1.0;"/><line style="stroke:#181818;stroke-width:1.0;stroke-dasharray:2.0,2.0;" x1="383.5" x2="690.5" y1="643.2539" y2="643.2539"/><text fill="#000000" font-family="sans-serif" font-size="20" lengthAdjust="spacing" textLength="123" x="395.5" y="637.0352">jobOpenings</text><polygon fill="#181818" points="114.5,700.3633,104.5,704.3633,114.5,708.3633,110.5,704.3633" style="stroke:#181818;stroke-width:1.0;"/><line style="stroke:#181818;stroke-width:1.0;stroke-dasharray:2.0,2.0;" x1="108.5" x2="367.5" y1="704.3633" y2="704.3633"/><text fill="#000000" font-family="sans-serif" font-size="20" lengthAdjust="spacing" textLength="139" x="120.5" y="674.5898">displays list of</text><text fill="#000000" font-family="sans-serif" font-size="20" lengthAdjust="spacing" textLength="123" x="126.5" y="698.1445">jobOpenings</text><polygon fill="#181818" points="356.5,737.918,366.5,741.918,356.5,745.918,360.5,741.918" style="stroke:#181818;stroke-width:1.0;"/><line style="stroke:#181818;stroke-width:1.0;" x1="103.5" x2="362.5" y1="741.918" y2="741.918"/><text fill="#000000" font-family="sans-serif" font-size="20" lengthAdjust="spacing" textLength="203" x="110.5" y="735.6992">selects a job opening</text><polygon fill="#181818" points="674.5,775.4727,684.5,779.4727,674.5,783.4727,678.5,779.4727" style="stroke:#181818;stroke-width:1.0;"/><line style="stroke:#181818;stroke-width:1.0;" x1="378.5" x2="680.5" y1="779.4727" y2="779.4727"/><text fill="#000000" font-family="sans-serif" font-size="20" lengthAdjust="spacing" textLength="192" x="385.5" y="773.2539">allInterviewModels()</text><polygon fill="#181818" points="1141.5,813.0273,1151.5,817.0273,1141.5,821.0273,1145.5,817.0273" style="stroke:#181818;stroke-width:1.0;"/><line style="stroke:#181818;stroke-width:1.0;" x1="696.5" x2="1147.5" y1="817.0273" y2="817.0273"/><text fill="#000000" font-family="sans-serif" font-size="20" lengthAdjust="spacing" textLength="133" x="703.5" y="810.8086">jobopenings()</text><polygon fill="#181818" points="1584.5,850.582,1594.5,854.582,1584.5,858.582,1588.5,854.582" style="stroke:#181818;stroke-width:1.0;"/><line style="stroke:#181818;stroke-width:1.0;" x1="1163.5" x2="1590.5" y1="854.582" y2="854.582"/><text fill="#000000" font-family="sans-serif" font-size="20" lengthAdjust="spacing" textLength="72" x="1170.5" y="848.3633">create()</text><polygon fill="#181818" points="707.5,888.1367,697.5,892.1367,707.5,896.1367,703.5,892.1367" style="stroke:#181818;stroke-width:1.0;"/><line style="stroke:#181818;stroke-width:1.0;stroke-dasharray:2.0,2.0;" x1="701.5" x2="1157.5" y1="892.1367" y2="892.1367"/><text fill="#000000" font-family="sans-serif" font-size="20" lengthAdjust="spacing" textLength="163" x="713.5" y="885.918">pluginRepository</text><polygon fill="#181818" points="1579.5,925.6914,1589.5,929.6914,1579.5,933.6914,1583.5,929.6914" style="stroke:#181818;stroke-width:1.0;"/><line style="stroke:#181818;stroke-width:1.0;" x1="696.5" x2="1585.5" y1="929.6914" y2="929.6914"/><text fill="#000000" font-family="sans-serif" font-size="20" lengthAdjust="spacing" textLength="78" x="703.5" y="923.4727">findAll()</text><polygon fill="#181818" points="707.5,963.2461,697.5,967.2461,707.5,971.2461,703.5,967.2461" style="stroke:#181818;stroke-width:1.0;"/><line style="stroke:#181818;stroke-width:1.0;stroke-dasharray:2.0,2.0;" x1="701.5" x2="1595.5" y1="967.2461" y2="967.2461"/><text fill="#000000" font-family="sans-serif" font-size="20" lengthAdjust="spacing" textLength="155" x="713.5" y="961.0273">interviewModels</text><polygon fill="#181818" points="389.5,1000.8008,379.5,1004.8008,389.5,1008.8008,385.5,1004.8008" style="stroke:#181818;stroke-width:1.0;"/><line style="stroke:#181818;stroke-width:1.0;stroke-dasharray:2.0,2.0;" x1="383.5" x2="685.5" y1="1004.8008" y2="1004.8008"/><text fill="#000000" font-family="sans-serif" font-size="20" lengthAdjust="spacing" textLength="155" x="395.5" y="998.582">interviewModels</text><polygon fill="#181818" points="114.5,1061.9102,104.5,1065.9102,114.5,1069.9102,110.5,1065.9102" style="stroke:#181818;stroke-width:1.0;"/><line style="stroke:#181818;stroke-width:1.0;stroke-dasharray:2.0,2.0;" x1="108.5" x2="367.5" y1="1065.9102" y2="1065.9102"/><text fill="#000000" font-family="sans-serif" font-size="20" lengthAdjust="spacing" textLength="198" x="120.5" y="1036.1367">lists interview model</text><text fill="#000000" font-family="sans-serif" font-size="20" lengthAdjust="spacing" textLength="204" x="126.5" y="1059.6914">plugins in the system</text><polygon fill="#181818" points="356.5,1099.4648,366.5,1103.4648,356.5,1107.4648,360.5,1103.4648" style="stroke:#181818;stroke-width:1.0;"/><line style="stroke:#181818;stroke-width:1.0;" x1="103.5" x2="362.5" y1="1103.4648" y2="1103.4648"/><text fill="#000000" font-family="sans-serif" font-size="20" lengthAdjust="spacing" textLength="241" x="110.5" y="1097.2461">selects a interview model</text><polygon fill="#181818" points="679.5,1160.5742,689.5,1164.5742,679.5,1168.5742,683.5,1164.5742" style="stroke:#181818;stroke-width:1.0;"/><line style="stroke:#181818;stroke-width:1.0;" x1="378.5" x2="685.5" y1="1164.5742" y2="1164.5742"/><text fill="#000000" font-family="sans-serif" font-size="20" lengthAdjust="spacing" textLength="200" x="385.5" y="1134.8008">selectInterviewModel</text><text fill="#000000" font-family="sans-serif" font-size="20" lengthAdjust="spacing" textLength="284" x="385.5" y="1158.3555">(interviewModel, jobOpening)</text><polygon fill="#181818" points="1746.5,1198.1289,1756.5,1202.1289,1746.5,1206.1289,1750.5,1202.1289" style="stroke:#181818;stroke-width:1.0;"/><line style="stroke:#181818;stroke-width:1.0;" x1="701.5" x2="1752.5" y1="1202.1289" y2="1202.1289"/><text fill="#000000" font-family="sans-serif" font-size="20" lengthAdjust="spacing" textLength="300" x="708.5" y="1195.9102">InterviewModelSelected(plugIn)</text><polygon fill="#181818" points="712.5,1212.1289,702.5,1216.1289,712.5,1220.1289,708.5,1216.1289" style="stroke:#181818;stroke-width:1.0;"/><line style="stroke:#181818;stroke-width:1.0;stroke-dasharray:2.0,2.0;" x1="706.5" x2="1762.5" y1="1216.1289" y2="1216.1289"/><polygon fill="#181818" points="1366.5,1249.6836,1376.5,1253.6836,1366.5,1257.6836,1370.5,1253.6836" style="stroke:#181818;stroke-width:1.0;"/><line style="stroke:#181818;stroke-width:1.0;" x1="701.5" x2="1372.5" y1="1253.6836" y2="1253.6836"/><text fill="#000000" font-family="sans-serif" font-size="20" lengthAdjust="spacing" textLength="169" x="708.5" y="1247.4648">save(jobOpening)</text><polygon fill="#181818" points="389.5,1263.6836,379.5,1267.6836,389.5,1271.6836,385.5,1267.6836" style="stroke:#181818;stroke-width:1.0;"/><line style="stroke:#181818;stroke-width:1.0;stroke-dasharray:2.0,2.0;" x1="383.5" x2="690.5" y1="1267.6836" y2="1267.6836"/><polygon fill="#181818" points="114.5,1301.2383,104.5,1305.2383,114.5,1309.2383,110.5,1305.2383" style="stroke:#181818;stroke-width:1.0;"/><line style="stroke:#181818;stroke-width:1.0;stroke-dasharray:2.0,2.0;" x1="108.5" x2="367.5" y1="1305.2383" y2="1305.2383"/><text fill="#000000" font-family="sans-serif" font-size="20" lengthAdjust="spacing" textLength="227" x="120.5" y="1299.0195">Show operation success</text><!--SRC=[ZLN9Rjim4BthAmO-EK0Dn3tc4A184405WWOLVCk5aSOsOvfKISgk-_KTQh74HKPqiZbltcnlI7FWicQQ7OKg3rX1XLlM2FkYf2tuFuJlzvaP871KKfLxhOu8LZSuiTIiFB0T5lOY43IMbicTc0BCdbNgpEKEjamOp3BBBK4B_DEWB16UETivtB9uleCLR0fOtw_N6Nsij4h3uganbW9hU6MI8ka5C0CRWpgZ09QNl6RImg90GT5pQL6VE9vVLOLYatVWt8S-fB1FLBXMGlG1nh-Px_o6sd1ZNUuEWtzjYu-FVRVVM2l3gQ3BIrlNfVMYqo2rd-hZLusI-ZLwj50onEWtqUou391qU8jtOEl_Tetc9sQnwse6zBbVi7gari43ZL2TbtUTeJNci1fibIewgpECH7bFqo77Pf97gP4W0vz3100cn9YU2QcdWt66YIiHnMCWGZtqXsD4bvXR2qWG4JtrTLg1n-Hwtfuuq2gPIskkC7P9HGlRikrq4tBC5U3tfKlyKtsecRRwsJ_sSel6DTJcPVQPqEnigNvUrp1RBgiVGeHfzQfl3tliZV0cZ3guHv47-Txm3OKsgDwqGIjkQi4k1WGr7zJsNNfSYILgxnm3pE50NPTlkbJn8lXtr32rcminV5yJG4HtRVVmzOBeRfL841ugBA0EhYVF8oMETExNqBv8ejJxYyypzhvHQjnlx5ncASgKZa8wpy5NZXEC6HteRIKFaa_NB6S1kqSm5rhgOq2K5bJ05GSFQZU9v-zTBlqQlatqFDFlhobllCifj1-qUuUnMhhQSpaJPlfMJG4JOd-ySyES8vgvaWmxuNBQXDigk3LpzqQwdTVCSYN1D6M9fbT9i0V_0G00]--></g></svg>