<?xml version="1.0" encoding="us-ascii" standalone="no"?><svg xmlns="http://www.w3.org/2000/svg" xmlns:xlink="http://www.w3.org/1999/xlink" contentStyleType="text/css" height="740px" preserveAspectRatio="none" style="width:1274px;height:740px;background:#FFFFFF;" version="1.1" viewBox="0 0 1274 740" width="1274px" zoomAndPan="magnify"><defs/><g><text fill="#000000" font-family="sans-serif" font-size="14" font-weight="bold" lengthAdjust="spacing" textLength="233" x="519.75" y="30.1074">Sequence Diagram (SD) - US 1019</text><rect fill="#FFFFFF" height="514.6563" style="stroke:#181818;stroke-width:1.0;" width="10" x="63.5" y="133.2422"/><rect fill="#FFFFFF" height="482.3652" style="stroke:#181818;stroke-width:1.0;" width="10" x="351.5" y="156.5332"/><rect fill="#FFFFFF" height="344.2012" style="stroke:#181818;stroke-width:1.0;" width="10" x="612.5" y="263.4063"/><rect fill="#FFFFFF" height="31.291" style="stroke:#181818;stroke-width:1.0;" width="10" x="873.5" y="294.6973"/><rect fill="#FFFFFF" height="31.291" style="stroke:#181818;stroke-width:1.0;" width="10" x="1042" y="482.4434"/><rect fill="#FFFFFF" height="31.291" style="stroke:#181818;stroke-width:1.0;" width="10" x="1196.5" y="545.0254"/><line style="stroke:#181818;stroke-width:0.5;stroke-dasharray:5.0,5.0;" x1="68" x2="68" y1="123.2422" y2="656.8984"/><line style="stroke:#181818;stroke-width:0.5;stroke-dasharray:5.0,5.0;" x1="356" x2="356" y1="123.2422" y2="656.8984"/><line style="stroke:#181818;stroke-width:0.5;stroke-dasharray:5.0,5.0;" x1="617" x2="617" y1="123.2422" y2="656.8984"/><line style="stroke:#181818;stroke-width:0.5;stroke-dasharray:5.0,5.0;" x1="878.5" x2="878.5" y1="123.2422" y2="656.8984"/><line style="stroke:#181818;stroke-width:0.5;stroke-dasharray:5.0,5.0;" x1="1046.5" x2="1046.5" y1="123.2422" y2="656.8984"/><line style="stroke:#181818;stroke-width:0.5;stroke-dasharray:5.0,5.0;" x1="1201.5" x2="1201.5" y1="123.2422" y2="656.8984"/><text fill="#000000" font-family="sans-serif" font-size="14" lengthAdjust="spacing" textLength="121" x="5" y="119.7285">Customer Manager</text><ellipse cx="68.5" cy="53.1211" fill="#E3E3E3" rx="8" ry="8" style="stroke:#181818;stroke-width:0.5;"/><path d="M68.5,61.1211 L68.5,88.1211 M55.5,69.1211 L81.5,69.1211 M68.5,88.1211 L55.5,103.1211 M68.5,88.1211 L81.5,103.1211 " fill="none" style="stroke:#181818;stroke-width:0.5;"/><text fill="#000000" font-family="sans-serif" font-size="14" lengthAdjust="spacing" textLength="121" x="5" y="671.0059">Customer Manager</text><ellipse cx="68.5" cy="683.0195" fill="#E3E3E3" rx="8" ry="8" style="stroke:#181818;stroke-width:0.5;"/><path d="M68.5,691.0195 L68.5,718.0195 M55.5,699.0195 L81.5,699.0195 M68.5,718.0195 L55.5,733.0195 M68.5,718.0195 L81.5,733.0195 " fill="none" style="stroke:#181818;stroke-width:0.5;"/><rect fill="#E3E3E3" height="32.6211" rx="2.5" ry="2.5" style="stroke:#181818;stroke-width:0.5;" width="175" x="269" y="89.6211"/><text fill="#000000" font-family="sans-serif" font-size="14" lengthAdjust="spacing" textLength="161" x="276" y="111.7285">ListCandidatesByPointsUI</text><rect fill="#E3E3E3" height="32.6211" rx="2.5" ry="2.5" style="stroke:#181818;stroke-width:0.5;" width="175" x="269" y="655.8984"/><text fill="#000000" font-family="sans-serif" font-size="14" lengthAdjust="spacing" textLength="161" x="276" y="678.0059">ListCandidatesByPointsUI</text><rect fill="#E3E3E3" height="32.6211" rx="2.5" ry="2.5" style="stroke:#181818;stroke-width:0.5;" width="229" x="503" y="89.6211"/><text fill="#000000" font-family="sans-serif" font-size="14" lengthAdjust="spacing" textLength="215" x="510" y="111.7285">:ListCandidatesByPointsController</text><rect fill="#E3E3E3" height="32.6211" rx="2.5" ry="2.5" style="stroke:#181818;stroke-width:0.5;" width="229" x="503" y="655.8984"/><text fill="#000000" font-family="sans-serif" font-size="14" lengthAdjust="spacing" textLength="215" x="510" y="678.0059">:ListCandidatesByPointsController</text><rect fill="#E3E3E3" height="32.6211" rx="2.5" ry="2.5" style="stroke:#181818;stroke-width:0.5;" width="162" x="797.5" y="89.6211"/><text fill="#000000" font-family="sans-serif" font-size="14" lengthAdjust="spacing" textLength="148" x="804.5" y="111.7285">:JobOpeningRepository</text><rect fill="#E3E3E3" height="32.6211" rx="2.5" ry="2.5" style="stroke:#181818;stroke-width:0.5;" width="162" x="797.5" y="655.8984"/><text fill="#000000" font-family="sans-serif" font-size="14" lengthAdjust="spacing" textLength="148" x="804.5" y="678.0059">:JobOpeningRepository</text><rect fill="#E3E3E3" height="32.6211" rx="2.5" ry="2.5" style="stroke:#181818;stroke-width:0.5;" width="155" x="969.5" y="89.6211"/><text fill="#000000" font-family="sans-serif" font-size="14" lengthAdjust="spacing" textLength="141" x="976.5" y="111.7285">:ApplicationRepository</text><rect fill="#E3E3E3" height="32.6211" rx="2.5" ry="2.5" style="stroke:#181818;stroke-width:0.5;" width="155" x="969.5" y="655.8984"/><text fill="#000000" font-family="sans-serif" font-size="14" lengthAdjust="spacing" textLength="141" x="976.5" y="678.0059">:ApplicationRepository</text><rect fill="#E3E3E3" height="32.6211" rx="2.5" ry="2.5" style="stroke:#181818;stroke-width:0.5;" width="134" x="1134.5" y="89.6211"/><text fill="#000000" font-family="sans-serif" font-size="14" lengthAdjust="spacing" textLength="120" x="1141.5" y="111.7285">:ApplicationService</text><rect fill="#E3E3E3" height="32.6211" rx="2.5" ry="2.5" style="stroke:#181818;stroke-width:0.5;" width="134" x="1134.5" y="655.8984"/><text fill="#000000" font-family="sans-serif" font-size="14" lengthAdjust="spacing" textLength="120" x="1141.5" y="678.0059">:ApplicationService</text><rect fill="#FFFFFF" height="514.6563" style="stroke:#181818;stroke-width:1.0;" width="10" x="63.5" y="133.2422"/><rect fill="#FFFFFF" height="482.3652" style="stroke:#181818;stroke-width:1.0;" width="10" x="351.5" y="156.5332"/><rect fill="#FFFFFF" height="344.2012" style="stroke:#181818;stroke-width:1.0;" width="10" x="612.5" y="263.4063"/><rect fill="#FFFFFF" height="31.291" style="stroke:#181818;stroke-width:1.0;" width="10" x="873.5" y="294.6973"/><rect fill="#FFFFFF" height="31.291" style="stroke:#181818;stroke-width:1.0;" width="10" x="1042" y="482.4434"/><rect fill="#FFFFFF" height="31.291" style="stroke:#181818;stroke-width:1.0;" width="10" x="1196.5" y="545.0254"/><polygon fill="#181818" points="339.5,152.5332,349.5,156.5332,339.5,160.5332,343.5,156.5332" style="stroke:#181818;stroke-width:1.0;"/><line style="stroke:#181818;stroke-width:1.0;" x1="73.5" x2="345.5" y1="156.5332" y2="156.5332"/><text fill="#000000" font-family="sans-serif" font-size="13" lengthAdjust="spacing" textLength="38" x="80.5" y="151.2705">show()</text><line style="stroke:#181818;stroke-width:1.0;" x1="361.5" x2="403.5" y1="187.8242" y2="187.8242"/><line style="stroke:#181818;stroke-width:1.0;" x1="403.5" x2="403.5" y1="187.8242" y2="200.8242"/><line style="stroke:#181818;stroke-width:1.0;" x1="362.5" x2="403.5" y1="200.8242" y2="200.8242"/><polygon fill="#181818" points="372.5,196.8242,362.5,200.8242,372.5,204.8242,368.5,200.8242" style="stroke:#181818;stroke-width:1.0;"/><text fill="#000000" font-family="sans-serif" font-size="13" lengthAdjust="spacing" textLength="54" x="368.5" y="182.5615">doShow()</text><polygon fill="#181818" points="605.5,228.1152,615.5,232.1152,605.5,236.1152,609.5,232.1152" style="stroke:#181818;stroke-width:1.0;"/><line style="stroke:#181818;stroke-width:1.0;" x1="361.5" x2="611.5" y1="232.1152" y2="232.1152"/><text fill="#000000" font-family="sans-serif" font-size="13" lengthAdjust="spacing" textLength="44" x="368.5" y="226.8525">create()</text><polygon fill="#181818" points="600.5,259.4063,610.5,263.4063,600.5,267.4063,604.5,263.4063" style="stroke:#181818;stroke-width:1.0;"/><line style="stroke:#181818;stroke-width:1.0;" x1="361.5" x2="606.5" y1="263.4063" y2="263.4063"/><text fill="#000000" font-family="sans-serif" font-size="13" lengthAdjust="spacing" textLength="232" x="368.5" y="258.1436">allJobOpeningsWithInterviewInAnalysis()</text><polygon fill="#181818" points="861.5,290.6973,871.5,294.6973,861.5,298.6973,865.5,294.6973" style="stroke:#181818;stroke-width:1.0;"/><line style="stroke:#181818;stroke-width:1.0;" x1="622.5" x2="867.5" y1="294.6973" y2="294.6973"/><text fill="#000000" font-family="sans-serif" font-size="13" lengthAdjust="spacing" textLength="232" x="629.5" y="289.4346">allJobOpeningsWithInterviewInAnalysis()</text><polygon fill="#181818" points="633.5,321.9883,623.5,325.9883,633.5,329.9883,629.5,325.9883" style="stroke:#181818;stroke-width:1.0;"/><line style="stroke:#181818;stroke-width:1.0;stroke-dasharray:2.0,2.0;" x1="627.5" x2="877.5" y1="325.9883" y2="325.9883"/><text fill="#000000" font-family="sans-serif" font-size="13" lengthAdjust="spacing" textLength="72" x="639.5" y="320.7256">jobOpenings</text><polygon fill="#181818" points="372.5,353.2793,362.5,357.2793,372.5,361.2793,368.5,357.2793" style="stroke:#181818;stroke-width:1.0;"/><line style="stroke:#181818;stroke-width:1.0;stroke-dasharray:2.0,2.0;" x1="366.5" x2="611.5" y1="357.2793" y2="357.2793"/><text fill="#000000" font-family="sans-serif" font-size="13" lengthAdjust="spacing" textLength="72" x="378.5" y="352.0166">jobOpenings</text><polygon fill="#181818" points="84.5,384.5703,74.5,388.5703,84.5,392.5703,80.5,388.5703" style="stroke:#181818;stroke-width:1.0;"/><line style="stroke:#181818;stroke-width:1.0;stroke-dasharray:2.0,2.0;" x1="78.5" x2="350.5" y1="388.5703" y2="388.5703"/><text fill="#000000" font-family="sans-serif" font-size="13" lengthAdjust="spacing" textLength="201" x="90.5" y="383.3076">shows list of jobOpenings available</text><polygon fill="#181818" points="339.5,415.8613,349.5,419.8613,339.5,423.8613,343.5,419.8613" style="stroke:#181818;stroke-width:1.0;"/><line style="stroke:#181818;stroke-width:1.0;stroke-dasharray:2.0,2.0;" x1="73.5" x2="345.5" y1="419.8613" y2="419.8613"/><text fill="#000000" font-family="sans-serif" font-size="13" lengthAdjust="spacing" textLength="195" x="80.5" y="414.5986">selects jobOpenings (jobOpening)</text><polygon fill="#181818" points="600.5,447.1523,610.5,451.1523,600.5,455.1523,604.5,451.1523" style="stroke:#181818;stroke-width:1.0;"/><line style="stroke:#181818;stroke-width:1.0;stroke-dasharray:2.0,2.0;" x1="361.5" x2="606.5" y1="451.1523" y2="451.1523"/><text fill="#000000" font-family="sans-serif" font-size="13" lengthAdjust="spacing" textLength="223" x="368.5" y="445.8896">applicationsOfJobOpening(jobOpening)</text><polygon fill="#181818" points="1030,478.4434,1040,482.4434,1030,486.4434,1034,482.4434" style="stroke:#181818;stroke-width:1.0;"/><line style="stroke:#181818;stroke-width:1.0;stroke-dasharray:2.0,2.0;" x1="622.5" x2="1036" y1="482.4434" y2="482.4434"/><text fill="#000000" font-family="sans-serif" font-size="13" lengthAdjust="spacing" textLength="223" x="629.5" y="477.1807">applicationsOfJobOpening(jobOpening)</text><polygon fill="#181818" points="633.5,509.7344,623.5,513.7344,633.5,517.7344,629.5,513.7344" style="stroke:#181818;stroke-width:1.0;"/><line style="stroke:#181818;stroke-width:1.0;stroke-dasharray:2.0,2.0;" x1="627.5" x2="1046" y1="513.7344" y2="513.7344"/><text fill="#000000" font-family="sans-serif" font-size="13" lengthAdjust="spacing" textLength="104" x="639.5" y="508.4717">list of applications</text><polygon fill="#181818" points="1184.5,541.0254,1194.5,545.0254,1184.5,549.0254,1188.5,545.0254" style="stroke:#181818;stroke-width:1.0;"/><line style="stroke:#181818;stroke-width:1.0;stroke-dasharray:2.0,2.0;" x1="622.5" x2="1190.5" y1="545.0254" y2="545.0254"/><text fill="#000000" font-family="sans-serif" font-size="13" lengthAdjust="spacing" textLength="272" x="629.5" y="539.7627">sortApplicationsByInterviewPoints(applications)</text><polygon fill="#181818" points="633.5,572.3164,623.5,576.3164,633.5,580.3164,629.5,576.3164" style="stroke:#181818;stroke-width:1.0;"/><line style="stroke:#181818;stroke-width:1.0;stroke-dasharray:2.0,2.0;" x1="627.5" x2="1200.5" y1="576.3164" y2="576.3164"/><text fill="#000000" font-family="sans-serif" font-size="13" lengthAdjust="spacing" textLength="109" x="639.5" y="571.0537">applications sorted</text><polygon fill="#181818" points="372.5,603.6074,362.5,607.6074,372.5,611.6074,368.5,607.6074" style="stroke:#181818;stroke-width:1.0;"/><line style="stroke:#181818;stroke-width:1.0;stroke-dasharray:2.0,2.0;" x1="366.5" x2="616.5" y1="607.6074" y2="607.6074"/><text fill="#000000" font-family="sans-serif" font-size="13" lengthAdjust="spacing" textLength="109" x="378.5" y="602.3447">applications sorted</text><polygon fill="#181818" points="84.5,634.8984,74.5,638.8984,84.5,642.8984,80.5,638.8984" style="stroke:#181818;stroke-width:1.0;"/><line style="stroke:#181818;stroke-width:1.0;stroke-dasharray:2.0,2.0;" x1="78.5" x2="355.5" y1="638.8984" y2="638.8984"/><text fill="#000000" font-family="sans-serif" font-size="13" lengthAdjust="spacing" textLength="254" x="90.5" y="633.6357">shows candidates sorted by interview points</text><!--SRC=[dLJBRjim4BppAnO-sGS3pR4v14YTYue4AI8OEQ-fjRqDJQeaRKD_dzMRbjq7UX50xSpix72byC6sH8y7E3ZhzDwx0q7qHr9Xg9IeFt17UQmCWISTqUvC2WXxBDoPxGwsQ08f5JaADATVHxAQu8bnL-Fc-TC2bh3EuUxBtLUbK4VdOROwXYXjFRoWbJv-1XXW7SWhaO-ikKGROVRC8QxG5bnWfF2j-k7Onh3EMdXs2Rw_ZLuv6xqpfcio7YVixsxpMfALaTweT875PzKmf21l9kZ7iZIiCRAp4xXK_WZFoPzOKu_DJxf9XKzYker0rKzOFiY4S2z9k_DyaM8o9OM-NBYy0xGln_cag3q9upT5D6QSERnpt6SsrkRedDb7YwOA78GxD4wYKucIwBOH_Ozc5wxg59PJapz7DLNG5IsrqIUIKfgvwq9erEei0nZP4t3R50XuGZQuaHtlqX_Y9oFh7ox0y_6m65gajd6yxl2w7HEv94xTjvjJf_Wlz26BRk5KHx-Ai1ytLKspxFdNRcGtwmISZyd-oeSrt6dxXSrJvKjZpNPtIbV6KbhJXOg9huP-wux_GaqtzTO6wE4lqP5XKm7tKq7PZ9KAhhDF]--></g></svg>