<?xml version="1.0" encoding="UTF-8" standalone="no"?><svg xmlns="http://www.w3.org/2000/svg" xmlns:xlink="http://www.w3.org/1999/xlink" contentStyleType="text/css" height="1683px" preserveAspectRatio="none" style="width:4645px;height:1683px;background:#FFFFFF;" version="1.1" viewBox="0 0 4645 1683" width="4645px" zoomAndPan="magnify"><defs/><g><text fill="#000000" font-family="sans-serif" font-size="14" font-weight="bold" lengthAdjust="spacing" textLength="252" x="2195.5" y="28.5352">Sequence Diagram (SD) - US 2000a</text><rect fill="#FFFFFF" height="1450.6328" style="stroke:#181818;stroke-width:1.0;" width="10" x="46" y="136.043"/><rect fill="#FFFFFF" height="1366.5234" style="stroke:#181818;stroke-width:1.0;" width="10" x="401" y="211.1523"/><rect fill="#FFFFFF" height="638.4297" style="stroke:#181818;stroke-width:1.0;" width="10" x="809" y="413.4805"/><rect fill="#FFFFFF" height="112.6641" style="stroke:#181818;stroke-width:1.0;" width="10" x="1407" y="526.1445"/><rect fill="#FFFFFF" height="37.5547" style="stroke:#181818;stroke-width:1.0;" width="10" x="2029" y="563.6992"/><rect fill="#FFFFFF" height="75.1094" style="stroke:#181818;stroke-width:1.0;" width="10" x="2223" y="676.3633"/><rect fill="#FFFFFF" height="37.5547" style="stroke:#181818;stroke-width:1.0;" width="10" x="2772" y="939.2461"/><rect fill="#FFFFFF" height="497.2109" style="stroke:#181818;stroke-width:1.0;" width="10" x="3082.5" y="1089.4648"/><rect fill="#FFFFFF" height="422.1016" style="stroke:#181818;stroke-width:1.0;" width="10" x="3454" y="1164.5742"/><rect fill="#FFFFFF" height="112.6641" style="stroke:#181818;stroke-width:1.0;" width="10" x="3994" y="1389.9023"/><rect fill="#FFFFFF" height="75.1094" style="stroke:#181818;stroke-width:1.0;" width="10" x="4189.5" y="789.0273"/><rect fill="#FFFFFF" height="75.1094" style="stroke:#181818;stroke-width:1.0;" width="10" x="4189.5" y="1202.1289"/><rect fill="#FFFFFF" height="37.5547" style="stroke:#181818;stroke-width:1.0;" width="10" x="4578" y="1427.457"/><line style="stroke:#181818;stroke-width:0.5;stroke-dasharray:5.0,5.0;" x1="51" x2="51" y1="126.043" y2="1595.6758"/><line style="stroke:#181818;stroke-width:0.5;stroke-dasharray:5.0,5.0;" x1="406" x2="406" y1="126.043" y2="1595.6758"/><line style="stroke:#181818;stroke-width:0.5;stroke-dasharray:5.0,5.0;" x1="813.5" x2="813.5" y1="126.043" y2="1595.6758"/><line style="stroke:#181818;stroke-width:0.5;stroke-dasharray:5.0,5.0;" x1="1411.5" x2="1411.5" y1="126.043" y2="1595.6758"/><line style="stroke:#181818;stroke-width:0.5;stroke-dasharray:5.0,5.0;" x1="2034" x2="2034" y1="126.043" y2="1595.6758"/><line style="stroke:#181818;stroke-width:0.5;stroke-dasharray:5.0,5.0;" x1="2228" x2="2228" y1="126.043" y2="1595.6758"/><line style="stroke:#181818;stroke-width:0.5;stroke-dasharray:5.0,5.0;" x1="2418" x2="2418" y1="126.043" y2="1595.6758"/><line style="stroke:#181818;stroke-width:0.5;stroke-dasharray:5.0,5.0;" x1="2569" x2="2569" y1="126.043" y2="1595.6758"/><line style="stroke:#181818;stroke-width:0.5;stroke-dasharray:5.0,5.0;" x1="2777" x2="2777" y1="126.043" y2="1595.6758"/><line style="stroke:#181818;stroke-width:0.5;stroke-dasharray:5.0,5.0;" x1="3087" x2="3087" y1="126.043" y2="1595.6758"/><line style="stroke:#181818;stroke-width:0.5;stroke-dasharray:5.0,5.0;" x1="3459" x2="3459" y1="126.043" y2="1595.6758"/><line style="stroke:#181818;stroke-width:0.5;stroke-dasharray:5.0,5.0;" x1="3999" x2="3999" y1="126.043" y2="1595.6758"/><line style="stroke:#181818;stroke-width:0.5;stroke-dasharray:5.0,5.0;" x1="4194" x2="4194" y1="126.043" y2="1595.6758"/><line style="stroke:#181818;stroke-width:0.5;stroke-dasharray:5.0,5.0;" x1="4407" x2="4407" y1="126.043" y2="1595.6758"/><line style="stroke:#181818;stroke-width:0.5;stroke-dasharray:5.0,5.0;" x1="4583" x2="4583" y1="126.043" y2="1595.6758"/><text fill="#000000" font-family="sans-serif" font-size="20" lengthAdjust="spacing" textLength="86" x="5" y="121.8242">Operator</text><ellipse cx="51" cy="50.9883" fill="#E3E3E3" rx="8" ry="8" style="stroke:#181818;stroke-width:0.5;"/><path d="M51,58.9883 L51,85.9883 M38,66.9883 L64,66.9883 M51,85.9883 L38,100.9883 M51,85.9883 L64,100.9883 " fill="none" style="stroke:#181818;stroke-width:0.5;"/><text fill="#000000" font-family="sans-serif" font-size="20" lengthAdjust="spacing" textLength="86" x="5" y="1614.0117">Operator</text><ellipse cx="51" cy="1626.7305" fill="#E3E3E3" rx="8" ry="8" style="stroke:#181818;stroke-width:0.5;"/><path d="M51,1634.7305 L51,1661.7305 M38,1642.7305 L64,1642.7305 M51,1661.7305 L38,1676.7305 M51,1661.7305 L64,1676.7305 " fill="none" style="stroke:#181818;stroke-width:0.5;"/><rect fill="#E3E3E3" height="37.5547" rx="2.5" ry="2.5" style="stroke:#181818;stroke-width:0.5;" width="210" x="301" y="87.4883"/><text fill="#000000" font-family="sans-serif" font-size="20" lengthAdjust="spacing" textLength="196" x="308" y="113.8242">RegisterCandidateUI</text><rect fill="#E3E3E3" height="37.5547" rx="2.5" ry="2.5" style="stroke:#181818;stroke-width:0.5;" width="210" x="301" y="1594.6758"/><text fill="#000000" font-family="sans-serif" font-size="20" lengthAdjust="spacing" textLength="196" x="308" y="1621.0117">RegisterCandidateUI</text><rect fill="#E3E3E3" height="37.5547" rx="2.5" ry="2.5" style="stroke:#181818;stroke-width:0.5;" width="343" x="642.5" y="87.4883"/><text fill="#000000" font-family="sans-serif" font-size="20" lengthAdjust="spacing" textLength="329" x="649.5" y="113.8242">:RegisterCandidateControllerEvent</text><rect fill="#E3E3E3" height="37.5547" rx="2.5" ry="2.5" style="stroke:#181818;stroke-width:0.5;" width="343" x="642.5" y="1594.6758"/><text fill="#000000" font-family="sans-serif" font-size="20" lengthAdjust="spacing" textLength="329" x="649.5" y="1621.0117">:RegisterCandidateControllerEvent</text><rect fill="#E3E3E3" height="37.5547" rx="2.5" ry="2.5" style="stroke:#181818;stroke-width:0.5;" width="131" x="1346.5" y="87.4883"/><text fill="#000000" font-family="sans-serif" font-size="20" lengthAdjust="spacing" textLength="117" x="1353.5" y="113.8242">:UserBuilder</text><rect fill="#E3E3E3" height="37.5547" rx="2.5" ry="2.5" style="stroke:#181818;stroke-width:0.5;" width="131" x="1346.5" y="1594.6758"/><text fill="#000000" font-family="sans-serif" font-size="20" lengthAdjust="spacing" textLength="117" x="1353.5" y="1621.0117">:UserBuilder</text><rect fill="#E3E3E3" height="37.5547" rx="2.5" ry="2.5" style="stroke:#181818;stroke-width:0.5;" width="172" x="1948" y="87.4883"/><text fill="#000000" font-family="sans-serif" font-size="20" lengthAdjust="spacing" textLength="158" x="1955" y="113.8242">user:SystemUser</text><rect fill="#E3E3E3" height="37.5547" rx="2.5" ry="2.5" style="stroke:#181818;stroke-width:0.5;" width="172" x="1948" y="1594.6758"/><text fill="#000000" font-family="sans-serif" font-size="20" lengthAdjust="spacing" textLength="158" x="1955" y="1621.0117">user:SystemUser</text><rect fill="#E3E3E3" height="37.5547" rx="2.5" ry="2.5" style="stroke:#181818;stroke-width:0.5;" width="196" x="2130" y="87.4883"/><text fill="#000000" font-family="sans-serif" font-size="20" lengthAdjust="spacing" textLength="182" x="2137" y="113.8242">PersistenceContext</text><rect fill="#E3E3E3" height="37.5547" rx="2.5" ry="2.5" style="stroke:#181818;stroke-width:0.5;" width="196" x="2130" y="1594.6758"/><text fill="#000000" font-family="sans-serif" font-size="20" lengthAdjust="spacing" textLength="182" x="2137" y="1621.0117">PersistenceContext</text><rect fill="#E3E3E3" height="37.5547" rx="2.5" ry="2.5" style="stroke:#181818;stroke-width:0.5;" width="165" x="2336" y="87.4883"/><text fill="#000000" font-family="sans-serif" font-size="20" lengthAdjust="spacing" textLength="151" x="2343" y="113.8242">:UserRepository</text><rect fill="#E3E3E3" height="37.5547" rx="2.5" ry="2.5" style="stroke:#181818;stroke-width:0.5;" width="165" x="2336" y="1594.6758"/><text fill="#000000" font-family="sans-serif" font-size="20" lengthAdjust="spacing" textLength="151" x="2343" y="1621.0117">:UserRepository</text><rect fill="#E3E3E3" height="37.5547" rx="2.5" ry="2.5" style="stroke:#181818;stroke-width:0.5;" width="117" x="2511" y="87.4883"/><text fill="#000000" font-family="sans-serif" font-size="20" lengthAdjust="spacing" textLength="103" x="2518" y="113.8242">Dispatcher</text><rect fill="#E3E3E3" height="37.5547" rx="2.5" ry="2.5" style="stroke:#181818;stroke-width:0.5;" width="117" x="2511" y="1594.6758"/><text fill="#000000" font-family="sans-serif" font-size="20" lengthAdjust="spacing" textLength="103" x="2518" y="1621.0117">Dispatcher</text><rect fill="#E3E3E3" height="37.5547" rx="2.5" ry="2.5" style="stroke:#181818;stroke-width:0.5;" width="278" x="2638" y="87.4883"/><text fill="#000000" font-family="sans-serif" font-size="20" lengthAdjust="spacing" textLength="264" x="2645" y="113.8242">NewUserForCandidateEvent</text><rect fill="#E3E3E3" height="37.5547" rx="2.5" ry="2.5" style="stroke:#181818;stroke-width:0.5;" width="278" x="2638" y="1594.6758"/><text fill="#000000" font-family="sans-serif" font-size="20" lengthAdjust="spacing" textLength="264" x="2645" y="1621.0117">NewUserForCandidateEvent</text><rect fill="#E3E3E3" height="37.5547" rx="2.5" ry="2.5" style="stroke:#181818;stroke-width:0.5;" width="323" x="2926" y="87.4883"/><text fill="#000000" font-family="sans-serif" font-size="20" lengthAdjust="spacing" textLength="309" x="2933" y="113.8242">NewUserForCandidateWatchDog</text><rect fill="#E3E3E3" height="37.5547" rx="2.5" ry="2.5" style="stroke:#181818;stroke-width:0.5;" width="323" x="2926" y="1594.6758"/><text fill="#000000" font-family="sans-serif" font-size="20" lengthAdjust="spacing" textLength="309" x="2933" y="1621.0117">NewUserForCandidateWatchDog</text><rect fill="#E3E3E3" height="37.5547" rx="2.5" ry="2.5" style="stroke:#181818;stroke-width:0.5;" width="400" x="3259" y="87.4883"/><text fill="#000000" font-family="sans-serif" font-size="20" lengthAdjust="spacing" textLength="386" x="3266" y="113.8242">AddCandidateOnUserCreationController</text><rect fill="#E3E3E3" height="37.5547" rx="2.5" ry="2.5" style="stroke:#181818;stroke-width:0.5;" width="400" x="3259" y="1594.6758"/><text fill="#000000" font-family="sans-serif" font-size="20" lengthAdjust="spacing" textLength="386" x="3266" y="1621.0117">AddCandidateOnUserCreationController</text><rect fill="#E3E3E3" height="37.5547" rx="2.5" ry="2.5" style="stroke:#181818;stroke-width:0.5;" width="186" x="3906" y="87.4883"/><text fill="#000000" font-family="sans-serif" font-size="20" lengthAdjust="spacing" textLength="172" x="3913" y="113.8242">:CandidateBuilder</text><rect fill="#E3E3E3" height="37.5547" rx="2.5" ry="2.5" style="stroke:#181818;stroke-width:0.5;" width="186" x="3906" y="1594.6758"/><text fill="#000000" font-family="sans-serif" font-size="20" lengthAdjust="spacing" textLength="172" x="3913" y="1621.0117">:CandidateBuilder</text><rect fill="#E3E3E3" height="37.5547" rx="2.5" ry="2.5" style="stroke:#181818;stroke-width:0.5;" width="185" x="4102" y="87.4883"/><text fill="#000000" font-family="sans-serif" font-size="20" lengthAdjust="spacing" textLength="171" x="4109" y="113.8242">RepositoryFactory</text><rect fill="#E3E3E3" height="37.5547" rx="2.5" ry="2.5" style="stroke:#181818;stroke-width:0.5;" width="185" x="4102" y="1594.6758"/><text fill="#000000" font-family="sans-serif" font-size="20" lengthAdjust="spacing" textLength="171" x="4109" y="1621.0117">RepositoryFactory</text><rect fill="#E3E3E3" height="37.5547" rx="2.5" ry="2.5" style="stroke:#181818;stroke-width:0.5;" width="220" x="4297" y="87.4883"/><text fill="#000000" font-family="sans-serif" font-size="20" lengthAdjust="spacing" textLength="206" x="4304" y="113.8242">:CandidateRepository</text><rect fill="#E3E3E3" height="37.5547" rx="2.5" ry="2.5" style="stroke:#181818;stroke-width:0.5;" width="220" x="4297" y="1594.6758"/><text fill="#000000" font-family="sans-serif" font-size="20" lengthAdjust="spacing" textLength="206" x="4304" y="1621.0117">:CandidateRepository</text><rect fill="#E3E3E3" height="37.5547" rx="2.5" ry="2.5" style="stroke:#181818;stroke-width:0.5;" width="112" x="4527" y="87.4883"/><text fill="#000000" font-family="sans-serif" font-size="20" lengthAdjust="spacing" textLength="98" x="4534" y="113.8242">Candidate</text><rect fill="#E3E3E3" height="37.5547" rx="2.5" ry="2.5" style="stroke:#181818;stroke-width:0.5;" width="112" x="4527" y="1594.6758"/><text fill="#000000" font-family="sans-serif" font-size="20" lengthAdjust="spacing" textLength="98" x="4534" y="1621.0117">Candidate</text><rect fill="#FFFFFF" height="1450.6328" style="stroke:#181818;stroke-width:1.0;" width="10" x="46" y="136.043"/><rect fill="#FFFFFF" height="1366.5234" style="stroke:#181818;stroke-width:1.0;" width="10" x="401" y="211.1523"/><rect fill="#FFFFFF" height="638.4297" style="stroke:#181818;stroke-width:1.0;" width="10" x="809" y="413.4805"/><rect fill="#FFFFFF" height="112.6641" style="stroke:#181818;stroke-width:1.0;" width="10" x="1407" y="526.1445"/><rect fill="#FFFFFF" height="37.5547" style="stroke:#181818;stroke-width:1.0;" width="10" x="2029" y="563.6992"/><rect fill="#FFFFFF" height="75.1094" style="stroke:#181818;stroke-width:1.0;" width="10" x="2223" y="676.3633"/><rect fill="#FFFFFF" height="37.5547" style="stroke:#181818;stroke-width:1.0;" width="10" x="2772" y="939.2461"/><rect fill="#FFFFFF" height="497.2109" style="stroke:#181818;stroke-width:1.0;" width="10" x="3082.5" y="1089.4648"/><rect fill="#FFFFFF" height="422.1016" style="stroke:#181818;stroke-width:1.0;" width="10" x="3454" y="1164.5742"/><rect fill="#FFFFFF" height="112.6641" style="stroke:#181818;stroke-width:1.0;" width="10" x="3994" y="1389.9023"/><rect fill="#FFFFFF" height="75.1094" style="stroke:#181818;stroke-width:1.0;" width="10" x="4189.5" y="789.0273"/><rect fill="#FFFFFF" height="75.1094" style="stroke:#181818;stroke-width:1.0;" width="10" x="4189.5" y="1202.1289"/><rect fill="#FFFFFF" height="37.5547" style="stroke:#181818;stroke-width:1.0;" width="10" x="4578" y="1427.457"/><polygon fill="#181818" points="394,161.5977,404,165.5977,394,169.5977,398,165.5977" style="stroke:#181818;stroke-width:1.0;"/><line style="stroke:#181818;stroke-width:1.0;" x1="56" x2="400" y1="165.5977" y2="165.5977"/><text fill="#000000" font-family="sans-serif" font-size="20" lengthAdjust="spacing" textLength="63" x="63" y="159.3789">show()</text><line style="stroke:#181818;stroke-width:1.0;" x1="406" x2="453" y1="198.1523" y2="198.1523"/><line style="stroke:#181818;stroke-width:1.0;" x1="453" x2="453" y1="198.1523" y2="211.1523"/><line style="stroke:#181818;stroke-width:1.0;" x1="412" x2="453" y1="211.1523" y2="211.1523"/><polygon fill="#181818" points="422,207.1523,412,211.1523,422,215.1523,418,211.1523" style="stroke:#181818;stroke-width:1.0;"/><text fill="#000000" font-family="sans-serif" font-size="20" lengthAdjust="spacing" textLength="89" x="418" y="191.9336">doShow()</text><polygon fill="#181818" points="802,249.707,812,253.707,802,257.707,806,253.707" style="stroke:#181818;stroke-width:1.0;"/><line style="stroke:#181818;stroke-width:1.0;" x1="411" x2="808" y1="253.707" y2="253.707"/><text fill="#000000" font-family="sans-serif" font-size="20" lengthAdjust="spacing" textLength="72" x="418" y="247.4883">create()</text><polygon fill="#181818" points="67,287.2617,57,291.2617,67,295.2617,63,291.2617" style="stroke:#181818;stroke-width:1.0;"/><line style="stroke:#181818;stroke-width:1.0;stroke-dasharray:2.0,2.0;" x1="61" x2="400" y1="291.2617" y2="291.2617"/><text fill="#000000" font-family="sans-serif" font-size="20" lengthAdjust="spacing" textLength="254" x="73" y="285.043">Ask candidate information</text><polygon fill="#181818" points="389,348.3711,399,352.3711,389,356.3711,393,352.3711" style="stroke:#181818;stroke-width:1.0;"/><line style="stroke:#181818;stroke-width:1.0;" x1="56" x2="395" y1="352.3711" y2="352.3711"/><text fill="#000000" font-family="sans-serif" font-size="20" lengthAdjust="spacing" textLength="223" x="63" y="322.5977">First Name, Last Name,</text><text fill="#000000" font-family="sans-serif" font-size="20" lengthAdjust="spacing" textLength="321" x="63" y="346.1523">, Phone Number, Email, Password</text><polygon fill="#181818" points="797,409.4805,807,413.4805,797,417.4805,801,413.4805" style="stroke:#181818;stroke-width:1.0;"/><line style="stroke:#181818;stroke-width:1.0;" x1="411" x2="803" y1="413.4805" y2="413.4805"/><text fill="#000000" font-family="sans-serif" font-size="20" lengthAdjust="spacing" textLength="373" x="418" y="383.707">registerCandidate(firsName, lastName,</text><text fill="#000000" font-family="sans-serif" font-size="20" lengthAdjust="spacing" textLength="314" x="424" y="407.2617">phoneNumber, email, password)</text><polygon fill="#181818" points="1400,447.0352,1410,451.0352,1400,455.0352,1404,451.0352" style="stroke:#181818;stroke-width:1.0;"/><line style="stroke:#181818;stroke-width:1.0;" x1="819" x2="1406" y1="451.0352" y2="451.0352"/><text fill="#000000" font-family="sans-serif" font-size="20" lengthAdjust="spacing" textLength="72" x="826" y="444.8164">create()</text><polygon fill="#181818" points="1400,484.5898,1410,488.5898,1400,492.5898,1404,488.5898" style="stroke:#181818;stroke-width:1.0;"/><line style="stroke:#181818;stroke-width:1.0;" x1="819" x2="1406" y1="488.5898" y2="488.5898"/><text fill="#000000" font-family="sans-serif" font-size="20" lengthAdjust="spacing" textLength="569" x="826" y="482.3711">with(firstName, lastName, phoneNumber, email, password)</text><polygon fill="#181818" points="1395,522.1445,1405,526.1445,1395,530.1445,1399,526.1445" style="stroke:#181818;stroke-width:1.0;"/><line style="stroke:#181818;stroke-width:1.0;" x1="819" x2="1401" y1="526.1445" y2="526.1445"/><text fill="#000000" font-family="sans-serif" font-size="20" lengthAdjust="spacing" textLength="64" x="826" y="519.9258">build()</text><polygon fill="#181818" points="2017,559.6992,2027,563.6992,2017,567.6992,2021,563.6992" style="stroke:#181818;stroke-width:1.0;"/><line style="stroke:#181818;stroke-width:1.0;" x1="1417" x2="2023" y1="563.6992" y2="563.6992"/><text fill="#000000" font-family="sans-serif" font-size="20" lengthAdjust="spacing" textLength="593" x="1424" y="557.4805">create (firstName, lastName, phoneNumber, email, password)</text><polygon fill="#181818" points="1428,597.2539,1418,601.2539,1428,605.2539,1424,601.2539" style="stroke:#181818;stroke-width:1.0;"/><line style="stroke:#181818;stroke-width:1.0;stroke-dasharray:2.0,2.0;" x1="1422" x2="2033" y1="601.2539" y2="601.2539"/><text fill="#000000" font-family="sans-serif" font-size="20" lengthAdjust="spacing" textLength="41" x="1434" y="595.0352">user</text><polygon fill="#181818" points="830,634.8086,820,638.8086,830,642.8086,826,638.8086" style="stroke:#181818;stroke-width:1.0;"/><line style="stroke:#181818;stroke-width:1.0;stroke-dasharray:2.0,2.0;" x1="824" x2="1411" y1="638.8086" y2="638.8086"/><text fill="#000000" font-family="sans-serif" font-size="20" lengthAdjust="spacing" textLength="41" x="836" y="632.5898">user</text><polygon fill="#181818" points="2211,672.3633,2221,676.3633,2211,680.3633,2215,676.3633" style="stroke:#181818;stroke-width:1.0;"/><line style="stroke:#181818;stroke-width:1.0;" x1="819" x2="2217" y1="676.3633" y2="676.3633"/><text fill="#000000" font-family="sans-serif" font-size="20" lengthAdjust="spacing" textLength="128" x="826" y="670.1445">repositories()</text><polygon fill="#181818" points="4182.5,709.918,4192.5,713.918,4182.5,717.918,4186.5,713.918" style="stroke:#181818;stroke-width:1.0;"/><line style="stroke:#181818;stroke-width:1.0;" x1="2233" x2="4188.5" y1="713.918" y2="713.918"/><text fill="#000000" font-family="sans-serif" font-size="20" lengthAdjust="spacing" textLength="58" x="2240" y="707.6992">create</text><polygon fill="#181818" points="830,747.4727,820,751.4727,830,755.4727,826,751.4727" style="stroke:#181818;stroke-width:1.0;"/><line style="stroke:#181818;stroke-width:1.0;stroke-dasharray:2.0,2.0;" x1="824" x2="2227" y1="751.4727" y2="751.4727"/><text fill="#000000" font-family="sans-serif" font-size="20" lengthAdjust="spacing" textLength="65" x="836" y="745.2539">factory</text><polygon fill="#181818" points="4177.5,785.0273,4187.5,789.0273,4177.5,793.0273,4181.5,789.0273" style="stroke:#181818;stroke-width:1.0;"/><line style="stroke:#181818;stroke-width:1.0;" x1="819" x2="4183.5" y1="789.0273" y2="789.0273"/><text fill="#000000" font-family="sans-serif" font-size="20" lengthAdjust="spacing" textLength="65" x="826" y="782.8086">users()</text><polygon fill="#181818" points="2429.5,822.582,2419.5,826.582,2429.5,830.582,2425.5,826.582" style="stroke:#181818;stroke-width:1.0;"/><line style="stroke:#181818;stroke-width:1.0;" x1="2423.5" x2="4188.5" y1="826.582" y2="826.582"/><text fill="#000000" font-family="sans-serif" font-size="20" lengthAdjust="spacing" textLength="58" x="2435.5" y="820.3633">create</text><polygon fill="#181818" points="830,860.1367,820,864.1367,830,868.1367,826,864.1367" style="stroke:#181818;stroke-width:1.0;"/><line style="stroke:#181818;stroke-width:1.0;stroke-dasharray:2.0,2.0;" x1="824" x2="4193.5" y1="864.1367" y2="864.1367"/><text fill="#000000" font-family="sans-serif" font-size="20" lengthAdjust="spacing" textLength="61" x="836" y="857.918">UsRep</text><polygon fill="#181818" points="2406.5,897.6914,2416.5,901.6914,2406.5,905.6914,2410.5,901.6914" style="stroke:#181818;stroke-width:1.0;"/><line style="stroke:#181818;stroke-width:1.0;" x1="819" x2="2412.5" y1="901.6914" y2="901.6914"/><text fill="#000000" font-family="sans-serif" font-size="20" lengthAdjust="spacing" textLength="97" x="826" y="895.4727">save(user)</text><polygon fill="#181818" points="2760,935.2461,2770,939.2461,2760,943.2461,2764,939.2461" style="stroke:#181818;stroke-width:1.0;"/><line style="stroke:#181818;stroke-width:1.0;" x1="819" x2="2766" y1="939.2461" y2="939.2461"/><text fill="#000000" font-family="sans-serif" font-size="20" lengthAdjust="spacing" textLength="490" x="826" y="933.0273">create(email, firstName, lastName, phoneNumber))</text><polygon fill="#181818" points="830,972.8008,820,976.8008,830,980.8008,826,976.8008" style="stroke:#181818;stroke-width:1.0;"/><line style="stroke:#181818;stroke-width:1.0;stroke-dasharray:2.0,2.0;" x1="824" x2="2776" y1="976.8008" y2="976.8008"/><text fill="#000000" font-family="sans-serif" font-size="20" lengthAdjust="spacing" textLength="51" x="836" y="970.582">event</text><polygon fill="#181818" points="2557.5,1010.3555,2567.5,1014.3555,2557.5,1018.3555,2561.5,1014.3555" style="stroke:#181818;stroke-width:1.0;"/><line style="stroke:#181818;stroke-width:1.0;" x1="819" x2="2563.5" y1="1014.3555" y2="1014.3555"/><text fill="#000000" font-family="sans-serif" font-size="20" lengthAdjust="spacing" textLength="137" x="826" y="1008.1367">publish(event)</text><polygon fill="#181818" points="422,1047.9102,412,1051.9102,422,1055.9102,418,1051.9102" style="stroke:#181818;stroke-width:1.0;"/><line style="stroke:#181818;stroke-width:1.0;stroke-dasharray:2.0,2.0;" x1="416" x2="813" y1="1051.9102" y2="1051.9102"/><text fill="#000000" font-family="sans-serif" font-size="20" lengthAdjust="spacing" textLength="181" x="428" y="1045.6914">operations success</text><polygon fill="#181818" points="3070.5,1085.4648,3080.5,1089.4648,3070.5,1093.4648,3074.5,1089.4648" style="stroke:#181818;stroke-width:1.0;"/><line style="stroke:#181818;stroke-width:1.0;" x1="2569.5" x2="3076.5" y1="1089.4648" y2="1089.4648"/><text fill="#000000" font-family="sans-serif" font-size="20" lengthAdjust="spacing" textLength="130" x="2576.5" y="1083.2461">handle(event)</text><polygon fill="#181818" points="3447,1123.0195,3457,1127.0195,3447,1131.0195,3451,1127.0195" style="stroke:#181818;stroke-width:1.0;"/><line style="stroke:#181818;stroke-width:1.0;" x1="3092.5" x2="3453" y1="1127.0195" y2="1127.0195"/><text fill="#000000" font-family="sans-serif" font-size="20" lengthAdjust="spacing" textLength="58" x="3099.5" y="1120.8008">create</text><polygon fill="#181818" points="3442,1160.5742,3452,1164.5742,3442,1168.5742,3446,1164.5742" style="stroke:#181818;stroke-width:1.0;"/><line style="stroke:#181818;stroke-width:1.0;" x1="3092.5" x2="3448" y1="1164.5742" y2="1164.5742"/><text fill="#000000" font-family="sans-serif" font-size="20" lengthAdjust="spacing" textLength="200" x="3099.5" y="1158.3555">addCandidate(event)</text><polygon fill="#181818" points="4177.5,1198.1289,4187.5,1202.1289,4177.5,1206.1289,4181.5,1202.1289" style="stroke:#181818;stroke-width:1.0;"/><line style="stroke:#181818;stroke-width:1.0;" x1="3464" x2="4183.5" y1="1202.1289" y2="1202.1289"/><text fill="#000000" font-family="sans-serif" font-size="20" lengthAdjust="spacing" textLength="118" x="3471" y="1195.9102">candidates()</text><polygon fill="#181818" points="4395,1235.6836,4405,1239.6836,4395,1243.6836,4399,1239.6836" style="stroke:#181818;stroke-width:1.0;"/><line style="stroke:#181818;stroke-width:1.0;" x1="4199.5" x2="4401" y1="1239.6836" y2="1239.6836"/><text fill="#000000" font-family="sans-serif" font-size="20" lengthAdjust="spacing" textLength="58" x="4206.5" y="1233.4648">create</text><polygon fill="#181818" points="3475,1273.2383,3465,1277.2383,3475,1281.2383,3471,1277.2383" style="stroke:#181818;stroke-width:1.0;"/><line style="stroke:#181818;stroke-width:1.0;stroke-dasharray:2.0,2.0;" x1="3469" x2="4193.5" y1="1277.2383" y2="1277.2383"/><text fill="#000000" font-family="sans-serif" font-size="20" lengthAdjust="spacing" textLength="143" x="3481" y="1271.0195">candidateRepo</text><polygon fill="#181818" points="3987,1310.793,3997,1314.793,3987,1318.793,3991,1314.793" style="stroke:#181818;stroke-width:1.0;"/><line style="stroke:#181818;stroke-width:1.0;" x1="3464" x2="3993" y1="1314.793" y2="1314.793"/><text fill="#000000" font-family="sans-serif" font-size="20" lengthAdjust="spacing" textLength="72" x="3471" y="1308.5742">create()</text><polygon fill="#181818" points="3987,1348.3477,3997,1352.3477,3987,1356.3477,3991,1352.3477" style="stroke:#181818;stroke-width:1.0;"/><line style="stroke:#181818;stroke-width:1.0;" x1="3464" x2="3993" y1="1352.3477" y2="1352.3477"/><text fill="#000000" font-family="sans-serif" font-size="20" lengthAdjust="spacing" textLength="511" x="3471" y="1346.1289">with(user, firsName, lastName, email, phoneNumber)</text><polygon fill="#181818" points="3982,1385.9023,3992,1389.9023,3982,1393.9023,3986,1389.9023" style="stroke:#181818;stroke-width:1.0;"/><line style="stroke:#181818;stroke-width:1.0;" x1="3464" x2="3988" y1="1389.9023" y2="1389.9023"/><text fill="#000000" font-family="sans-serif" font-size="20" lengthAdjust="spacing" textLength="64" x="3471" y="1383.6836">build()</text><polygon fill="#181818" points="4566,1423.457,4576,1427.457,4566,1431.457,4570,1427.457" style="stroke:#181818;stroke-width:1.0;"/><line style="stroke:#181818;stroke-width:1.0;" x1="4004" x2="4572" y1="1427.457" y2="1427.457"/><text fill="#000000" font-family="sans-serif" font-size="20" lengthAdjust="spacing" textLength="535" x="4011" y="1421.2383">create (user, firsName, lastName, email, phoneNumber)</text><polygon fill="#181818" points="4015,1461.0117,4005,1465.0117,4015,1469.0117,4011,1465.0117" style="stroke:#181818;stroke-width:1.0;"/><line style="stroke:#181818;stroke-width:1.0;stroke-dasharray:2.0,2.0;" x1="4009" x2="4582" y1="1465.0117" y2="1465.0117"/><text fill="#000000" font-family="sans-serif" font-size="20" lengthAdjust="spacing" textLength="94" x="4021" y="1458.793">candidate</text><polygon fill="#181818" points="3475,1498.5664,3465,1502.5664,3475,1506.5664,3471,1502.5664" style="stroke:#181818;stroke-width:1.0;"/><line style="stroke:#181818;stroke-width:1.0;stroke-dasharray:2.0,2.0;" x1="3469" x2="3998" y1="1502.5664" y2="1502.5664"/><text fill="#000000" font-family="sans-serif" font-size="20" lengthAdjust="spacing" textLength="94" x="3481" y="1496.3477">candidate</text><polygon fill="#181818" points="4395,1536.1211,4405,1540.1211,4395,1544.1211,4399,1540.1211" style="stroke:#181818;stroke-width:1.0;"/><line style="stroke:#181818;stroke-width:1.0;" x1="3464" x2="4401" y1="1540.1211" y2="1540.1211"/><text fill="#000000" font-family="sans-serif" font-size="20" lengthAdjust="spacing" textLength="150" x="3471" y="1533.9023">save(candidate)</text><polygon fill="#181818" points="67,1573.6758,57,1577.6758,67,1581.6758,63,1577.6758" style="stroke:#181818;stroke-width:1.0;"/><line style="stroke:#181818;stroke-width:1.0;stroke-dasharray:2.0,2.0;" x1="61" x2="405" y1="1577.6758" y2="1577.6758"/><text fill="#000000" font-family="sans-serif" font-size="20" lengthAdjust="spacing" textLength="289" x="73" y="1571.457">display operation success Info</text><!--SRC=[dLNBRjim4BppAuYS7206WXvpA93w0HWeaY26qKilZBIM2KkYIb9ntQ_lafGeaf8Ij1T3fcPdXilbI9rvtJ39gb9aPyXf3aVMbdehQhtdVu1-kIUgXz1Ar28xIL41rRA5u4t3iZChOA-l9L09cMPrKOO0TMAvkF2we4TMAY14SutGFVngeSw0hZah36wnNz_I9JtiKVd-dX52MAQ5f3VF3KY6JpUKANfG80aIQvxnXjMQthn2mPK6kM9rpdEcuR1po5sCUnW1LxXLASeIvEOTQcshXhMasWX_QtcPWpFIFSUe5a4F-okgL0PlWVZte70t4V05f39ci0564NuxzV7oX8jNQ8JYs91hrn5SY65hhXgcirFdOFWRmvxWOlYsOcZ9q0Zxz2d-X-5TYyBfY28kUCnpZtokJUrA0jDSr4ERdTXistrzsFlLPFE7lcpjvBZsZ9epK2QDn7MpOkUEl-DxDsp4_DBbLnme-e3JB2wBMrpS-QLSxDtYKBVh0SE-49YPpKDVRSgLNNzKPvhrfYYlZq9Mjak9zfPBfUaJg-2EVcV-yMTzHrzEeWRwr5Pl8E_efcAyn4Mcr4N8VDACJ6_3ueZqZh54yfwRDeQwPmR7t7JCmPw34oGaK4BTxhIY3imXBboVh1ETMldOnppZctaAJwSV7j9Z46ulgJT8_yU1v-yklADSHbvCFf0SKgWtaXvIYlVMuysEOyCUS3VT75Iu_OcC8HC4I8ktmRTa6fFwFRgB5rgUaelTEncprSYdkRZ4lBCN9VPYbrDn5uI1j6M8jNeYnTvXOIH7esXpRnZLxfW_cuVRmBXBJkA8HYx1lWrSTl3OnH3PMDAqRoLNfuKjJGptsI3iHn8pGr7LPXae5Mg4bpEWDaAYmEeJXa09lO0lCu5E3CBqPIBAPbwo8FP7d67KaytK9FWed1s7Bgad1Y9n6IRzQ38IyTLKJCrZR52P2NB3aSv67m_1Y7p4DWgfrN3LWvZoRGsYwjyy308z5IfurcNI1uy9Poae38DhflLHgT_Kg1N-HEtDzDMZRsMEqrkowp3l_RZJ7NutGp7p4IP_0G00]--></g></svg>