<?xml version="1.0" encoding="us-ascii" standalone="no"?><svg xmlns="http://www.w3.org/2000/svg" xmlns:xlink="http://www.w3.org/1999/xlink" contentStyleType="text/css" height="1659px" preserveAspectRatio="none" style="width:1566px;height:1659px;background:#FFFFFF;" version="1.1" viewBox="0 0 1566 1659" width="1566px" zoomAndPan="magnify"><defs/><g><text fill="#000000" font-family="sans-serif" font-size="14" font-weight="bold" lengthAdjust="spacing" textLength="233" x="667.75" y="30.1074">Sequence Diagram (SD) - US 1013</text><rect fill="#FFFFFF" height="1433.8535" style="stroke:#181818;stroke-width:1.0;" width="10" x="78.5" y="133.2422"/><rect fill="#FFFFFF" height="1401.5625" style="stroke:#181818;stroke-width:1.0;" width="10" x="313.5" y="156.5332"/><rect fill="#FFFFFF" height="1263.3984" style="stroke:#181818;stroke-width:1.0;" width="10" x="570.5" y="263.4063"/><rect fill="#FFFFFF" height="31.291" style="stroke:#181818;stroke-width:1.0;" width="10" x="783.5" y="294.6973"/><rect fill="#FFFFFF" height="31.291" style="stroke:#181818;stroke-width:1.0;" width="10" x="952" y="482.4434"/><rect fill="#FFFFFF" height="31.291" style="stroke:#181818;stroke-width:1.0;" width="10" x="1099" y="703.4805"/><rect fill="#FFFFFF" height="31.291" style="stroke:#181818;stroke-width:1.0;" width="10" x="1099" y="1039.3906"/><rect fill="#FFFFFF" height="31.291" style="stroke:#181818;stroke-width:1.0;" width="10" x="1099" y="1212.4766"/><rect fill="#FFFFFF" height="14" style="stroke:#181818;stroke-width:1.0;" width="10" x="1099" y="1352.6406"/><rect fill="#FFFFFF" height="14" style="stroke:#181818;stroke-width:1.0;" width="10" x="1099" y="1443.2227"/><rect fill="#FFFFFF" height="108.873" style="stroke:#181818;stroke-width:1.0;" width="10" x="1217.5" y="766.0625"/><rect fill="#FFFFFF" height="369.9102" style="stroke:#181818;stroke-width:1.0;" width="10" x="1217.5" y="1118.6035"/><rect fill="#FFFFFF" height="31.291" style="stroke:#181818;stroke-width:1.0;" width="10" x="1509.5" y="976.8086"/><rect fill="#FFFFFF" height="31.291" style="stroke:#181818;stroke-width:1.0;" width="10" x="1509.5" y="1149.8945"/><rect fill="#FFFFFF" height="14" style="stroke:#181818;stroke-width:1.0;" width="10" x="1509.5" y="1397.9316"/><rect fill="none" height="81.873" style="stroke:#000000;stroke-width:1.5;" width="384" x="10" y="560.0254"/><rect fill="none" height="63.582" style="stroke:#000000;stroke-width:1.5;" width="351" x="1163.5" y="781.0625"/><rect fill="none" height="606.5781" style="stroke:#000000;stroke-width:1.5;" width="1083" x="476.5" y="889.9355"/><rect fill="none" height="63.582" style="stroke:#000000;stroke-width:1.5;" width="309" x="1163.5" y="1258.7676"/><line style="stroke:#181818;stroke-width:0.5;stroke-dasharray:5.0,5.0;" x1="83" x2="83" y1="123.2422" y2="1576.0957"/><line style="stroke:#181818;stroke-width:0.5;stroke-dasharray:5.0,5.0;" x1="318" x2="318" y1="123.2422" y2="1576.0957"/><line style="stroke:#181818;stroke-width:0.5;stroke-dasharray:5.0,5.0;" x1="575.5" x2="575.5" y1="123.2422" y2="1576.0957"/><line style="stroke:#181818;stroke-width:0.5;stroke-dasharray:5.0,5.0;" x1="788.5" x2="788.5" y1="123.2422" y2="1576.0957"/><line style="stroke:#181818;stroke-width:0.5;stroke-dasharray:5.0,5.0;" x1="956.5" x2="956.5" y1="123.2422" y2="1576.0957"/><line style="stroke:#181818;stroke-width:0.5;stroke-dasharray:5.0,5.0;" x1="1103.5" x2="1103.5" y1="123.2422" y2="1576.0957"/><line style="stroke:#181818;stroke-width:0.5;stroke-dasharray:5.0,5.0;" x1="1222.5" x2="1222.5" y1="123.2422" y2="1576.0957"/><line style="stroke:#181818;stroke-width:0.5;stroke-dasharray:5.0,5.0;" x1="1514.5" x2="1514.5" y1="123.2422" y2="1576.0957"/><text fill="#000000" font-family="sans-serif" font-size="14" lengthAdjust="spacing" textLength="121" x="20" y="119.7285">Customer Manager</text><ellipse cx="83.5" cy="53.1211" fill="#E3E3E3" rx="8" ry="8" style="stroke:#181818;stroke-width:0.5;"/><path d="M83.5,61.1211 L83.5,88.1211 M70.5,69.1211 L96.5,69.1211 M83.5,88.1211 L70.5,103.1211 M83.5,88.1211 L96.5,103.1211 " fill="none" style="stroke:#181818;stroke-width:0.5;"/><text fill="#000000" font-family="sans-serif" font-size="14" lengthAdjust="spacing" textLength="121" x="20" y="1590.2031">Customer Manager</text><ellipse cx="83.5" cy="1602.2168" fill="#E3E3E3" rx="8" ry="8" style="stroke:#181818;stroke-width:0.5;"/><path d="M83.5,1610.2168 L83.5,1637.2168 M70.5,1618.2168 L96.5,1618.2168 M83.5,1637.2168 L70.5,1652.2168 M83.5,1637.2168 L96.5,1652.2168 " fill="none" style="stroke:#181818;stroke-width:0.5;"/><rect fill="#E3E3E3" height="32.6211" rx="2.5" ry="2.5" style="stroke:#181818;stroke-width:0.5;" width="131" x="253" y="89.6211"/><text fill="#000000" font-family="sans-serif" font-size="14" lengthAdjust="spacing" textLength="117" x="260" y="111.7285">RankCandidatesUI</text><rect fill="#E3E3E3" height="32.6211" rx="2.5" ry="2.5" style="stroke:#181818;stroke-width:0.5;" width="131" x="253" y="1575.0957"/><text fill="#000000" font-family="sans-serif" font-size="14" lengthAdjust="spacing" textLength="117" x="260" y="1597.2031">RankCandidatesUI</text><rect fill="#E3E3E3" height="32.6211" rx="2.5" ry="2.5" style="stroke:#181818;stroke-width:0.5;" width="178" x="486.5" y="89.6211"/><text fill="#000000" font-family="sans-serif" font-size="14" lengthAdjust="spacing" textLength="164" x="493.5" y="111.7285">:RankCandidateController</text><rect fill="#E3E3E3" height="32.6211" rx="2.5" ry="2.5" style="stroke:#181818;stroke-width:0.5;" width="178" x="486.5" y="1575.0957"/><text fill="#000000" font-family="sans-serif" font-size="14" lengthAdjust="spacing" textLength="164" x="493.5" y="1597.2031">:RankCandidateController</text><rect fill="#E3E3E3" height="32.6211" rx="2.5" ry="2.5" style="stroke:#181818;stroke-width:0.5;" width="162" x="707.5" y="89.6211"/><text fill="#000000" font-family="sans-serif" font-size="14" lengthAdjust="spacing" textLength="148" x="714.5" y="111.7285">:JobOpeningRepository</text><rect fill="#E3E3E3" height="32.6211" rx="2.5" ry="2.5" style="stroke:#181818;stroke-width:0.5;" width="162" x="707.5" y="1575.0957"/><text fill="#000000" font-family="sans-serif" font-size="14" lengthAdjust="spacing" textLength="148" x="714.5" y="1597.2031">:JobOpeningRepository</text><rect fill="#E3E3E3" height="32.6211" rx="2.5" ry="2.5" style="stroke:#181818;stroke-width:0.5;" width="155" x="879.5" y="89.6211"/><text fill="#000000" font-family="sans-serif" font-size="14" lengthAdjust="spacing" textLength="141" x="886.5" y="111.7285">:ApplicationRepository</text><rect fill="#E3E3E3" height="32.6211" rx="2.5" ry="2.5" style="stroke:#181818;stroke-width:0.5;" width="155" x="879.5" y="1575.0957"/><text fill="#000000" font-family="sans-serif" font-size="14" lengthAdjust="spacing" textLength="141" x="886.5" y="1597.2031">:ApplicationRepository</text><rect fill="#E3E3E3" height="32.6211" rx="2.5" ry="2.5" style="stroke:#181818;stroke-width:0.5;" width="119" x="1044.5" y="89.6211"/><text fill="#000000" font-family="sans-serif" font-size="14" lengthAdjust="spacing" textLength="105" x="1051.5" y="111.7285">:RankRepository</text><rect fill="#E3E3E3" height="32.6211" rx="2.5" ry="2.5" style="stroke:#181818;stroke-width:0.5;" width="119" x="1044.5" y="1575.0957"/><text fill="#000000" font-family="sans-serif" font-size="14" lengthAdjust="spacing" textLength="105" x="1051.5" y="1597.2031">:RankRepository</text><rect fill="#E3E3E3" height="32.6211" rx="2.5" ry="2.5" style="stroke:#181818;stroke-width:0.5;" width="98" x="1173.5" y="89.6211"/><text fill="#000000" font-family="sans-serif" font-size="14" lengthAdjust="spacing" textLength="84" x="1180.5" y="111.7285">:RankService</text><rect fill="#E3E3E3" height="32.6211" rx="2.5" ry="2.5" style="stroke:#181818;stroke-width:0.5;" width="98" x="1173.5" y="1575.0957"/><text fill="#000000" font-family="sans-serif" font-size="14" lengthAdjust="spacing" textLength="84" x="1180.5" y="1597.2031">:RankService</text><rect fill="#E3E3E3" height="32.6211" rx="2.5" ry="2.5" style="stroke:#181818;stroke-width:0.5;" width="70" x="1479.5" y="89.6211"/><text fill="#000000" font-family="sans-serif" font-size="14" lengthAdjust="spacing" textLength="56" x="1486.5" y="111.7285">:Ranking</text><rect fill="#E3E3E3" height="32.6211" rx="2.5" ry="2.5" style="stroke:#181818;stroke-width:0.5;" width="70" x="1479.5" y="1575.0957"/><text fill="#000000" font-family="sans-serif" font-size="14" lengthAdjust="spacing" textLength="56" x="1486.5" y="1597.2031">:Ranking</text><rect fill="#FFFFFF" height="1433.8535" style="stroke:#181818;stroke-width:1.0;" width="10" x="78.5" y="133.2422"/><rect fill="#FFFFFF" height="1401.5625" style="stroke:#181818;stroke-width:1.0;" width="10" x="313.5" y="156.5332"/><rect fill="#FFFFFF" height="1263.3984" style="stroke:#181818;stroke-width:1.0;" width="10" x="570.5" y="263.4063"/><rect fill="#FFFFFF" height="31.291" style="stroke:#181818;stroke-width:1.0;" width="10" x="783.5" y="294.6973"/><rect fill="#FFFFFF" height="31.291" style="stroke:#181818;stroke-width:1.0;" width="10" x="952" y="482.4434"/><rect fill="#FFFFFF" height="31.291" style="stroke:#181818;stroke-width:1.0;" width="10" x="1099" y="703.4805"/><rect fill="#FFFFFF" height="31.291" style="stroke:#181818;stroke-width:1.0;" width="10" x="1099" y="1039.3906"/><rect fill="#FFFFFF" height="31.291" style="stroke:#181818;stroke-width:1.0;" width="10" x="1099" y="1212.4766"/><rect fill="#FFFFFF" height="14" style="stroke:#181818;stroke-width:1.0;" width="10" x="1099" y="1352.6406"/><rect fill="#FFFFFF" height="14" style="stroke:#181818;stroke-width:1.0;" width="10" x="1099" y="1443.2227"/><rect fill="#FFFFFF" height="108.873" style="stroke:#181818;stroke-width:1.0;" width="10" x="1217.5" y="766.0625"/><rect fill="#FFFFFF" height="369.9102" style="stroke:#181818;stroke-width:1.0;" width="10" x="1217.5" y="1118.6035"/><rect fill="#FFFFFF" height="31.291" style="stroke:#181818;stroke-width:1.0;" width="10" x="1509.5" y="976.8086"/><rect fill="#FFFFFF" height="31.291" style="stroke:#181818;stroke-width:1.0;" width="10" x="1509.5" y="1149.8945"/><rect fill="#FFFFFF" height="14" style="stroke:#181818;stroke-width:1.0;" width="10" x="1509.5" y="1397.9316"/><polygon fill="#181818" points="301.5,152.5332,311.5,156.5332,301.5,160.5332,305.5,156.5332" style="stroke:#181818;stroke-width:1.0;"/><line style="stroke:#181818;stroke-width:1.0;" x1="88.5" x2="307.5" y1="156.5332" y2="156.5332"/><text fill="#000000" font-family="sans-serif" font-size="13" lengthAdjust="spacing" textLength="38" x="95.5" y="151.2705">show()</text><line style="stroke:#181818;stroke-width:1.0;" x1="323.5" x2="365.5" y1="187.8242" y2="187.8242"/><line style="stroke:#181818;stroke-width:1.0;" x1="365.5" x2="365.5" y1="187.8242" y2="200.8242"/><line style="stroke:#181818;stroke-width:1.0;" x1="324.5" x2="365.5" y1="200.8242" y2="200.8242"/><polygon fill="#181818" points="334.5,196.8242,324.5,200.8242,334.5,204.8242,330.5,200.8242" style="stroke:#181818;stroke-width:1.0;"/><text fill="#000000" font-family="sans-serif" font-size="13" lengthAdjust="spacing" textLength="54" x="330.5" y="182.5615">doShow()</text><polygon fill="#181818" points="563.5,228.1152,573.5,232.1152,563.5,236.1152,567.5,232.1152" style="stroke:#181818;stroke-width:1.0;"/><line style="stroke:#181818;stroke-width:1.0;" x1="323.5" x2="569.5" y1="232.1152" y2="232.1152"/><text fill="#000000" font-family="sans-serif" font-size="13" lengthAdjust="spacing" textLength="44" x="330.5" y="226.8525">create()</text><polygon fill="#181818" points="558.5,259.4063,568.5,263.4063,558.5,267.4063,562.5,263.4063" style="stroke:#181818;stroke-width:1.0;"/><line style="stroke:#181818;stroke-width:1.0;" x1="323.5" x2="564.5" y1="263.4063" y2="263.4063"/><text fill="#000000" font-family="sans-serif" font-size="13" lengthAdjust="spacing" textLength="156" x="330.5" y="258.1436">allJobOpeningsInAnalysis()</text><polygon fill="#181818" points="771.5,290.6973,781.5,294.6973,771.5,298.6973,775.5,294.6973" style="stroke:#181818;stroke-width:1.0;"/><line style="stroke:#181818;stroke-width:1.0;" x1="580.5" x2="777.5" y1="294.6973" y2="294.6973"/><text fill="#000000" font-family="sans-serif" font-size="13" lengthAdjust="spacing" textLength="156" x="587.5" y="289.4346">allJobOpeningsInAnalysis()</text><polygon fill="#181818" points="591.5,321.9883,581.5,325.9883,591.5,329.9883,587.5,325.9883" style="stroke:#181818;stroke-width:1.0;"/><line style="stroke:#181818;stroke-width:1.0;stroke-dasharray:2.0,2.0;" x1="585.5" x2="787.5" y1="325.9883" y2="325.9883"/><text fill="#000000" font-family="sans-serif" font-size="13" lengthAdjust="spacing" textLength="72" x="597.5" y="320.7256">jobOpenings</text><polygon fill="#181818" points="334.5,353.2793,324.5,357.2793,334.5,361.2793,330.5,357.2793" style="stroke:#181818;stroke-width:1.0;"/><line style="stroke:#181818;stroke-width:1.0;stroke-dasharray:2.0,2.0;" x1="328.5" x2="569.5" y1="357.2793" y2="357.2793"/><text fill="#000000" font-family="sans-serif" font-size="13" lengthAdjust="spacing" textLength="72" x="340.5" y="352.0166">jobOpenings</text><polygon fill="#181818" points="99.5,384.5703,89.5,388.5703,99.5,392.5703,95.5,388.5703" style="stroke:#181818;stroke-width:1.0;"/><line style="stroke:#181818;stroke-width:1.0;stroke-dasharray:2.0,2.0;" x1="93.5" x2="312.5" y1="388.5703" y2="388.5703"/><text fill="#000000" font-family="sans-serif" font-size="13" lengthAdjust="spacing" textLength="201" x="105.5" y="383.3076">shows list of jobOpenings available</text><polygon fill="#181818" points="301.5,415.8613,311.5,419.8613,301.5,423.8613,305.5,419.8613" style="stroke:#181818;stroke-width:1.0;"/><line style="stroke:#181818;stroke-width:1.0;stroke-dasharray:2.0,2.0;" x1="88.5" x2="307.5" y1="419.8613" y2="419.8613"/><text fill="#000000" font-family="sans-serif" font-size="13" lengthAdjust="spacing" textLength="195" x="95.5" y="414.5986">selects jobOpenings (jobOpening)</text><polygon fill="#181818" points="558.5,447.1523,568.5,451.1523,558.5,455.1523,562.5,451.1523" style="stroke:#181818;stroke-width:1.0;"/><line style="stroke:#181818;stroke-width:1.0;stroke-dasharray:2.0,2.0;" x1="323.5" x2="564.5" y1="451.1523" y2="451.1523"/><text fill="#000000" font-family="sans-serif" font-size="13" lengthAdjust="spacing" textLength="223" x="330.5" y="445.8896">applicationsOfJobOpening(jobOpening)</text><polygon fill="#181818" points="940,478.4434,950,482.4434,940,486.4434,944,482.4434" style="stroke:#181818;stroke-width:1.0;"/><line style="stroke:#181818;stroke-width:1.0;stroke-dasharray:2.0,2.0;" x1="580.5" x2="946" y1="482.4434" y2="482.4434"/><text fill="#000000" font-family="sans-serif" font-size="13" lengthAdjust="spacing" textLength="223" x="587.5" y="477.1807">applicationsOfJobOpening(jobOpening)</text><polygon fill="#181818" points="591.5,509.7344,581.5,513.7344,591.5,517.7344,587.5,513.7344" style="stroke:#181818;stroke-width:1.0;"/><line style="stroke:#181818;stroke-width:1.0;stroke-dasharray:2.0,2.0;" x1="585.5" x2="956" y1="513.7344" y2="513.7344"/><text fill="#000000" font-family="sans-serif" font-size="13" lengthAdjust="spacing" textLength="104" x="597.5" y="508.4717">list of applications</text><polygon fill="#181818" points="334.5,541.0254,324.5,545.0254,334.5,549.0254,330.5,545.0254" style="stroke:#181818;stroke-width:1.0;"/><line style="stroke:#181818;stroke-width:1.0;stroke-dasharray:2.0,2.0;" x1="328.5" x2="569.5" y1="545.0254" y2="545.0254"/><text fill="#000000" font-family="sans-serif" font-size="13" lengthAdjust="spacing" textLength="104" x="340.5" y="539.7627">list of applications</text><path d="M10,560.0254 L83,560.0254 L83,569.3164 L73,579.3164 L10,579.3164 L10,560.0254 " fill="#EEEEEE" style="stroke:#000000;stroke-width:1.5;"/><rect fill="none" height="81.873" style="stroke:#000000;stroke-width:1.5;" width="384" x="10" y="560.0254"/><text fill="#000000" font-family="sans-serif" font-size="13" font-weight="bold" lengthAdjust="spacing" textLength="28" x="25" y="575.0537">loop</text><text fill="#000000" font-family="sans-serif" font-size="11" font-weight="bold" lengthAdjust="spacing" textLength="119" x="98" y="573.8955">[For each Application]</text><polygon fill="#181818" points="99.5,598.6074,89.5,602.6074,99.5,606.6074,95.5,602.6074" style="stroke:#181818;stroke-width:1.0;"/><line style="stroke:#181818;stroke-width:1.0;stroke-dasharray:2.0,2.0;" x1="93.5" x2="312.5" y1="602.6074" y2="602.6074"/><text fill="#000000" font-family="sans-serif" font-size="13" lengthAdjust="spacing" textLength="132" x="105.5" y="597.3447">asks to rank candidate</text><polygon fill="#181818" points="301.5,629.8984,311.5,633.8984,301.5,637.8984,305.5,633.8984" style="stroke:#181818;stroke-width:1.0;"/><line style="stroke:#181818;stroke-width:1.0;stroke-dasharray:2.0,2.0;" x1="88.5" x2="307.5" y1="633.8984" y2="633.8984"/><text fill="#000000" font-family="sans-serif" font-size="13" lengthAdjust="spacing" textLength="61" x="95.5" y="628.6357">types rank</text><polygon fill="#181818" points="558.5,668.1895,568.5,672.1895,558.5,676.1895,562.5,672.1895" style="stroke:#181818;stroke-width:1.0;"/><line style="stroke:#181818;stroke-width:1.0;stroke-dasharray:2.0,2.0;" x1="323.5" x2="564.5" y1="672.1895" y2="672.1895"/><text fill="#000000" font-family="sans-serif" font-size="13" lengthAdjust="spacing" textLength="190" x="330.5" y="666.9268">checkIfRankExists(job reference)</text><polygon fill="#181818" points="1087,699.4805,1097,703.4805,1087,707.4805,1091,703.4805" style="stroke:#181818;stroke-width:1.0;"/><line style="stroke:#181818;stroke-width:1.0;stroke-dasharray:2.0,2.0;" x1="580.5" x2="1093" y1="703.4805" y2="703.4805"/><text fill="#000000" font-family="sans-serif" font-size="13" lengthAdjust="spacing" textLength="43" x="587.5" y="698.2178">findAll()</text><polygon fill="#181818" points="591.5,730.7715,581.5,734.7715,591.5,738.7715,587.5,734.7715" style="stroke:#181818;stroke-width:1.0;"/><line style="stroke:#181818;stroke-width:1.0;stroke-dasharray:2.0,2.0;" x1="585.5" x2="1103" y1="734.7715" y2="734.7715"/><text fill="#000000" font-family="sans-serif" font-size="13" lengthAdjust="spacing" textLength="86" x="597.5" y="729.5088">all applications</text><polygon fill="#181818" points="1205.5,762.0625,1215.5,766.0625,1205.5,770.0625,1209.5,766.0625" style="stroke:#181818;stroke-width:1.0;"/><line style="stroke:#181818;stroke-width:1.0;stroke-dasharray:2.0,2.0;" x1="580.5" x2="1211.5" y1="766.0625" y2="766.0625"/><text fill="#000000" font-family="sans-serif" font-size="13" lengthAdjust="spacing" textLength="268" x="587.5" y="760.7998">checkIfRankExists(jobReference, applications)</text><path d="M1163.5,781.0625 L1224.5,781.0625 L1224.5,790.3535 L1214.5,800.3535 L1163.5,800.3535 L1163.5,781.0625 " fill="#EEEEEE" style="stroke:#000000;stroke-width:1.5;"/><rect fill="none" height="63.582" style="stroke:#000000;stroke-width:1.5;" width="351" x="1163.5" y="781.0625"/><text fill="#000000" font-family="sans-serif" font-size="13" font-weight="bold" lengthAdjust="spacing" textLength="16" x="1178.5" y="796.0908">alt</text><text fill="#000000" font-family="sans-serif" font-size="11" font-weight="bold" lengthAdjust="spacing" textLength="67" x="1239.5" y="794.9326">[true / false]</text><line style="stroke:#181818;stroke-width:1.0;stroke-dasharray:2.0,2.0;" x1="1227.5" x2="1269.5" y1="823.6445" y2="823.6445"/><line style="stroke:#181818;stroke-width:1.0;stroke-dasharray:2.0,2.0;" x1="1269.5" x2="1269.5" y1="823.6445" y2="836.6445"/><line style="stroke:#181818;stroke-width:1.0;stroke-dasharray:2.0,2.0;" x1="1228.5" x2="1269.5" y1="836.6445" y2="836.6445"/><polygon fill="#181818" points="1238.5,832.6445,1228.5,836.6445,1238.5,840.6445,1234.5,836.6445" style="stroke:#181818;stroke-width:1.0;"/><text fill="#000000" font-family="sans-serif" font-size="13" lengthAdjust="spacing" textLength="268" x="1234.5" y="818.3818">checkIfRankExists(jobReference, applications)</text><polygon fill="#181818" points="591.5,870.9355,581.5,874.9355,591.5,878.9355,587.5,874.9355" style="stroke:#181818;stroke-width:1.0;"/><line style="stroke:#181818;stroke-width:1.0;stroke-dasharray:2.0,2.0;" x1="585.5" x2="1221.5" y1="874.9355" y2="874.9355"/><text fill="#000000" font-family="sans-serif" font-size="13" lengthAdjust="spacing" textLength="108" x="597.5" y="869.6729">exists (true / false)</text><path d="M476.5,889.9355 L537.5,889.9355 L537.5,899.2266 L527.5,909.2266 L476.5,909.2266 L476.5,889.9355 " fill="#EEEEEE" style="stroke:#000000;stroke-width:1.5;"/><rect fill="none" height="606.5781" style="stroke:#000000;stroke-width:1.5;" width="1083" x="476.5" y="889.9355"/><text fill="#000000" font-family="sans-serif" font-size="13" font-weight="bold" lengthAdjust="spacing" textLength="16" x="491.5" y="904.9639">alt</text><text fill="#000000" font-family="sans-serif" font-size="11" font-weight="bold" lengthAdjust="spacing" textLength="31" x="552.5" y="903.8057">[true]</text><line style="stroke:#181818;stroke-width:1.0;stroke-dasharray:2.0,2.0;" x1="580.5" x2="622.5" y1="932.5176" y2="932.5176"/><line style="stroke:#181818;stroke-width:1.0;stroke-dasharray:2.0,2.0;" x1="622.5" x2="622.5" y1="932.5176" y2="945.5176"/><line style="stroke:#181818;stroke-width:1.0;stroke-dasharray:2.0,2.0;" x1="581.5" x2="622.5" y1="945.5176" y2="945.5176"/><polygon fill="#181818" points="591.5,941.5176,581.5,945.5176,591.5,949.5176,587.5,945.5176" style="stroke:#181818;stroke-width:1.0;"/><text fill="#000000" font-family="sans-serif" font-size="13" lengthAdjust="spacing" textLength="189" x="587.5" y="927.2549">saveRank(jobReference, ranking)</text><polygon fill="#181818" points="1497.5,972.8086,1507.5,976.8086,1497.5,980.8086,1501.5,976.8086" style="stroke:#181818;stroke-width:1.0;"/><line style="stroke:#181818;stroke-width:1.0;stroke-dasharray:2.0,2.0;" x1="580.5" x2="1503.5" y1="976.8086" y2="976.8086"/><text fill="#000000" font-family="sans-serif" font-size="13" lengthAdjust="spacing" textLength="44" x="587.5" y="971.5459">create()</text><polygon fill="#181818" points="591.5,1004.0996,581.5,1008.0996,591.5,1012.0996,587.5,1008.0996" style="stroke:#181818;stroke-width:1.0;"/><line style="stroke:#181818;stroke-width:1.0;stroke-dasharray:2.0,2.0;" x1="585.5" x2="1513.5" y1="1008.0996" y2="1008.0996"/><text fill="#000000" font-family="sans-serif" font-size="13" lengthAdjust="spacing" textLength="53" x="597.5" y="1002.8369">newRank</text><polygon fill="#181818" points="1087,1035.3906,1097,1039.3906,1087,1043.3906,1091,1039.3906" style="stroke:#181818;stroke-width:1.0;"/><line style="stroke:#181818;stroke-width:1.0;stroke-dasharray:2.0,2.0;" x1="580.5" x2="1093" y1="1039.3906" y2="1039.3906"/><text fill="#000000" font-family="sans-serif" font-size="13" lengthAdjust="spacing" textLength="87" x="587.5" y="1034.1279">save(newRank)</text><polygon fill="#181818" points="591.5,1066.6816,581.5,1070.6816,591.5,1074.6816,587.5,1070.6816" style="stroke:#181818;stroke-width:1.0;"/><line style="stroke:#181818;stroke-width:1.0;stroke-dasharray:2.0,2.0;" x1="585.5" x2="1103" y1="1070.6816" y2="1070.6816"/><text fill="#000000" font-family="sans-serif" font-size="13" lengthAdjust="spacing" textLength="106" x="597.5" y="1065.4189">operation success</text><line style="stroke:#000000;stroke-width:1.0;stroke-dasharray:2.0,2.0;" x1="476.5" x2="1559.5" y1="1079.6816" y2="1079.6816"/><text fill="#000000" font-family="sans-serif" font-size="11" font-weight="bold" lengthAdjust="spacing" textLength="35" x="481.5" y="1091.5518">[false]</text><polygon fill="#181818" points="1205.5,1114.6035,1215.5,1118.6035,1205.5,1122.6035,1209.5,1118.6035" style="stroke:#181818;stroke-width:1.0;"/><line style="stroke:#181818;stroke-width:1.0;stroke-dasharray:2.0,2.0;" x1="580.5" x2="1211.5" y1="1118.6035" y2="1118.6035"/><text fill="#000000" font-family="sans-serif" font-size="13" lengthAdjust="spacing" textLength="184" x="587.5" y="1113.3408">editRank(jobReference, ranking)</text><polygon fill="#181818" points="1497.5,1145.8945,1507.5,1149.8945,1497.5,1153.8945,1501.5,1149.8945" style="stroke:#181818;stroke-width:1.0;"/><line style="stroke:#181818;stroke-width:1.0;stroke-dasharray:2.0,2.0;" x1="1227.5" x2="1503.5" y1="1149.8945" y2="1149.8945"/><text fill="#000000" font-family="sans-serif" font-size="13" lengthAdjust="spacing" textLength="44" x="1234.5" y="1144.6318">create()</text><polygon fill="#181818" points="1238.5,1177.1855,1228.5,1181.1855,1238.5,1185.1855,1234.5,1181.1855" style="stroke:#181818;stroke-width:1.0;"/><line style="stroke:#181818;stroke-width:1.0;stroke-dasharray:2.0,2.0;" x1="1232.5" x2="1513.5" y1="1181.1855" y2="1181.1855"/><text fill="#000000" font-family="sans-serif" font-size="13" lengthAdjust="spacing" textLength="53" x="1244.5" y="1175.9229">newRank</text><polygon fill="#181818" points="1120,1208.4766,1110,1212.4766,1120,1216.4766,1116,1212.4766" style="stroke:#181818;stroke-width:1.0;"/><line style="stroke:#181818;stroke-width:1.0;stroke-dasharray:2.0,2.0;" x1="1114" x2="1216.5" y1="1212.4766" y2="1212.4766"/><text fill="#000000" font-family="sans-serif" font-size="13" lengthAdjust="spacing" textLength="58" x="1126" y="1207.2139">allRanks()</text><polygon fill="#181818" points="1205.5,1239.7676,1215.5,1243.7676,1205.5,1247.7676,1209.5,1243.7676" style="stroke:#181818;stroke-width:1.0;"/><line style="stroke:#181818;stroke-width:1.0;stroke-dasharray:2.0,2.0;" x1="1104" x2="1211.5" y1="1243.7676" y2="1243.7676"/><text fill="#000000" font-family="sans-serif" font-size="13" lengthAdjust="spacing" textLength="49" x="1111" y="1238.5049">all ranks</text><path d="M1163.5,1258.7676 L1236.5,1258.7676 L1236.5,1268.0586 L1226.5,1278.0586 L1163.5,1278.0586 L1163.5,1258.7676 " fill="#EEEEEE" style="stroke:#000000;stroke-width:1.5;"/><rect fill="none" height="63.582" style="stroke:#000000;stroke-width:1.5;" width="309" x="1163.5" y="1258.7676"/><text fill="#000000" font-family="sans-serif" font-size="13" font-weight="bold" lengthAdjust="spacing" textLength="28" x="1178.5" y="1273.7959">loop</text><text fill="#000000" font-family="sans-serif" font-size="11" font-weight="bold" lengthAdjust="spacing" textLength="81" x="1251.5" y="1272.6377">[for each rank]</text><line style="stroke:#181818;stroke-width:1.0;stroke-dasharray:2.0,2.0;" x1="1227.5" x2="1269.5" y1="1301.3496" y2="1301.3496"/><line style="stroke:#181818;stroke-width:1.0;stroke-dasharray:2.0,2.0;" x1="1269.5" x2="1269.5" y1="1301.3496" y2="1314.3496"/><line style="stroke:#181818;stroke-width:1.0;stroke-dasharray:2.0,2.0;" x1="1228.5" x2="1269.5" y1="1314.3496" y2="1314.3496"/><polygon fill="#181818" points="1238.5,1310.3496,1228.5,1314.3496,1238.5,1318.3496,1234.5,1314.3496" style="stroke:#181818;stroke-width:1.0;"/><text fill="#000000" font-family="sans-serif" font-size="13" lengthAdjust="spacing" textLength="226" x="1234.5" y="1296.0869">findRankByJobReference(job reference)</text><polygon fill="#181818" points="1120,1348.6406,1110,1352.6406,1120,1356.6406,1116,1352.6406" style="stroke:#181818;stroke-width:1.0;"/><line style="stroke:#181818;stroke-width:1.0;stroke-dasharray:2.0,2.0;" x1="1114" x2="1216.5" y1="1352.6406" y2="1352.6406"/><text fill="#000000" font-family="sans-serif" font-size="13" lengthAdjust="spacing" textLength="79" x="1126" y="1347.3779">removeRank()</text><polygon fill="#181818" points="1205.5,1362.6406,1215.5,1366.6406,1205.5,1370.6406,1209.5,1366.6406" style="stroke:#181818;stroke-width:1.0;"/><line style="stroke:#181818;stroke-width:1.0;stroke-dasharray:2.0,2.0;" x1="1104" x2="1211.5" y1="1366.6406" y2="1366.6406"/><polygon fill="#181818" points="1497.5,1393.9316,1507.5,1397.9316,1497.5,1401.9316,1501.5,1397.9316" style="stroke:#181818;stroke-width:1.0;"/><line style="stroke:#181818;stroke-width:1.0;stroke-dasharray:2.0,2.0;" x1="1227.5" x2="1503.5" y1="1397.9316" y2="1397.9316"/><text fill="#000000" font-family="sans-serif" font-size="13" lengthAdjust="spacing" textLength="131" x="1234.5" y="1392.6689">defineRanking(ranking)</text><polygon fill="#181818" points="1238.5,1407.9316,1228.5,1411.9316,1238.5,1415.9316,1234.5,1411.9316" style="stroke:#181818;stroke-width:1.0;"/><line style="stroke:#181818;stroke-width:1.0;stroke-dasharray:2.0,2.0;" x1="1232.5" x2="1513.5" y1="1411.9316" y2="1411.9316"/><polygon fill="#181818" points="1120,1439.2227,1110,1443.2227,1120,1447.2227,1116,1443.2227" style="stroke:#181818;stroke-width:1.0;"/><line style="stroke:#181818;stroke-width:1.0;stroke-dasharray:2.0,2.0;" x1="1114" x2="1216.5" y1="1443.2227" y2="1443.2227"/><text fill="#000000" font-family="sans-serif" font-size="13" lengthAdjust="spacing" textLength="64" x="1126" y="1437.96">saveRank()</text><polygon fill="#181818" points="1205.5,1453.2227,1215.5,1457.2227,1205.5,1461.2227,1209.5,1457.2227" style="stroke:#181818;stroke-width:1.0;"/><line style="stroke:#181818;stroke-width:1.0;stroke-dasharray:2.0,2.0;" x1="1104" x2="1211.5" y1="1457.2227" y2="1457.2227"/><polygon fill="#181818" points="591.5,1484.5137,581.5,1488.5137,591.5,1492.5137,587.5,1488.5137" style="stroke:#181818;stroke-width:1.0;"/><line style="stroke:#181818;stroke-width:1.0;stroke-dasharray:2.0,2.0;" x1="585.5" x2="1221.5" y1="1488.5137" y2="1488.5137"/><text fill="#000000" font-family="sans-serif" font-size="13" lengthAdjust="spacing" textLength="106" x="597.5" y="1483.251">operation success</text><polygon fill="#181818" points="334.5,1522.8047,324.5,1526.8047,334.5,1530.8047,330.5,1526.8047" style="stroke:#181818;stroke-width:1.0;"/><line style="stroke:#181818;stroke-width:1.0;stroke-dasharray:2.0,2.0;" x1="328.5" x2="574.5" y1="1526.8047" y2="1526.8047"/><text fill="#000000" font-family="sans-serif" font-size="13" lengthAdjust="spacing" textLength="106" x="340.5" y="1521.542">operation success</text><polygon fill="#181818" points="99.5,1554.0957,89.5,1558.0957,99.5,1562.0957,95.5,1558.0957" style="stroke:#181818;stroke-width:1.0;"/><line style="stroke:#181818;stroke-width:1.0;stroke-dasharray:2.0,2.0;" x1="93.5" x2="317.5" y1="1558.0957" y2="1558.0957"/><text fill="#000000" font-family="sans-serif" font-size="13" lengthAdjust="spacing" textLength="106" x="105.5" y="1552.833">operation success</text><!--SRC=[hPRTRjiW5CVlUGhKAqTQj5MxwyMahjsaL9egrSe3C7oSi13mWAJBs-z0i8qnwOUscwes__FruvpZs9rG7JDiJ_TQQRurUW_KcGCGEvnqZE_O1cftaa0DSCVKHgO2ksMDVXPgGricBH3YX4Df3RyFe3ZGUy4sNbVLzmkwfEkQNd-w_am8uquRUdLti0x36lg3AOnZhYYpT6t147Jl11STKuvUFJ6rksEg4GrpODUhismr5TrCL7TQEQEbZ3x7nypeGVzyx41X1K_GQIimhLEmm0DyawblkquApfpGAfFZoLpkCyfqyLL1M8Cv2Ww3gZxoWWeJ7HJuVo0fZbZm6HlnV-do2zAXDtWx-hbQf9eLmOF-kD5r59nVZf3ma1j0Ymk7JCeHd5sfMyNaoGgByY5MWfmankZgZFQDRk8za6Yqp5FvDJeW3SpCqiXztQb9gCuVsE3D4xDK2kkeRbCXPKSc9Fk9tHyP3v11uc3OYRWQ7nP3Y3HjDZQIVMn725F3BFbpZtbkRx4UKCJM9D5yHh2lDlLAKfQzWnBBih7KkgFVSSBHoPOcKvFXPdPdgTFKO3TJtizkJjYTEh11Gq0rHPwKRu7lLgqVYsz_C2VhMU3AQi7uHJI76GSHJLkXcbifqwRhfvJqgcLX0gOr9xm6wq98dEfBsJxroNwOUCxIyck1CEd2ggOVuzxjNVzBcC0sTJGf6883MgLX5oGlEsGtvfSJc7Yqx0ZU9alAd3VReaJFVsYIrJG9xRTXhvd5Kl3ip_9qmmQzs1W-mIfQ5fhZOc_e3ao0Iks1Sx3bvY201EFrNMmKQ8HxYT4SVju9xq4snds9LnvXsEN-mLQla1fZ-17oXPJnX1NIzYia37-voVtu-gUlfuU4KJx-i-OUCpUmrx4JNri1GzHYocNq3M2649-hyiqDNBERU0V_OPh-NmtlQ-hpw0VEfG_5t3vraFvOoBuHBnkkLty1]--></g></svg>