<?xml version="1.0" encoding="us-ascii" standalone="no"?><svg xmlns="http://www.w3.org/2000/svg" xmlns:xlink="http://www.w3.org/1999/xlink" contentStyleType="text/css" height="501px" preserveAspectRatio="none" style="width:989px;height:501px;background:#FFFFFF;" version="1.1" viewBox="0 0 989 501" width="989px" zoomAndPan="magnify"><defs/><g><text fill="#000000" font-family="sans-serif" font-size="14" font-weight="bold" lengthAdjust="spacing" textLength="100" x="437.5" y="25.1074">Domain Model</text><!--cluster JobOpeningAggregate--><g id="cluster_JobOpeningAggregate"><path d="M809.5,216.6348 L969.5,216.6348 A3.75,3.75 0 0 1 972,219.1348 L979,241.2559 L979.5,241.2559 A2.5,2.5 0 0 1 982,243.7559 L982,468.1348 A2.5,2.5 0 0 1 979.5,470.6348 L809.5,470.6348 A2.5,2.5 0 0 1 807,468.1348 L807,219.1348 A2.5,2.5 0 0 1 809.5,216.6348 " fill="none" style="stroke:#000000;stroke-width:1.5;"/><line style="stroke:#000000;stroke-width:1.5;" x1="807" x2="979" y1="241.2559" y2="241.2559"/><text fill="#000000" font-family="sans-serif" font-size="14" font-weight="bold" lengthAdjust="spacing" textLength="159" x="811" y="233.7422">JobOpeningAggregate</text></g><!--cluster ApplicationAggregate--><g id="cluster_ApplicationAggregate"><path d="M8.5,45.6348 L160.5,45.6348 A3.75,3.75 0 0 1 163,48.1348 L170,70.2559 L780.5,70.2559 A2.5,2.5 0 0 1 783,72.7559 L783,492.1348 A2.5,2.5 0 0 1 780.5,494.6348 L8.5,494.6348 A2.5,2.5 0 0 1 6,492.1348 L6,48.1348 A2.5,2.5 0 0 1 8.5,45.6348 " fill="none" style="stroke:#000000;stroke-width:1.5;"/><line style="stroke:#000000;stroke-width:1.5;" x1="6" x2="170" y1="70.2559" y2="70.2559"/><text fill="#000000" font-family="sans-serif" font-size="14" font-weight="bold" lengthAdjust="spacing" textLength="151" x="10" y="62.7422">ApplicationAggregate</text></g><!--cluster CandidateAggregate--><g id="cluster_CandidateAggregate"><path d="M289.5,216.6348 L434.5,216.6348 A3.75,3.75 0 0 1 437,219.1348 L444,241.2559 L657.5,241.2559 A2.5,2.5 0 0 1 660,243.7559 L660,468.1348 A2.5,2.5 0 0 1 657.5,470.6348 L289.5,470.6348 A2.5,2.5 0 0 1 287,468.1348 L287,219.1348 A2.5,2.5 0 0 1 289.5,216.6348 " fill="none" style="stroke:#000000;stroke-width:1.5;"/><line style="stroke:#000000;stroke-width:1.5;" x1="287" x2="444" y1="241.2559" y2="241.2559"/><text fill="#000000" font-family="sans-serif" font-size="14" font-weight="bold" lengthAdjust="spacing" textLength="144" x="291" y="233.7422">CandidateAggregate</text></g><!--class JobOpening--><g id="elem_JobOpening"><rect codeLine="9" fill="#F1F1F1" height="68.543" id="JobOpening" rx="2.5" ry="2.5" style="stroke:#181818;stroke-width:0.5;" width="82" x="823" y="253.6348"/><text fill="#000000" font-family="sans-serif" font-size="12" font-style="italic" lengthAdjust="spacing" textLength="44" x="842" y="271.584">&#171;Entity&#187;</text><text fill="#000000" font-family="sans-serif" font-size="12" font-style="italic" lengthAdjust="spacing" textLength="35" x="846.5" y="287.5449">&#171;root&#187;</text><text fill="#000000" font-family="sans-serif" font-size="14" lengthAdjust="spacing" textLength="76" x="826" y="305.6641">JobOpening</text><line style="stroke:#181818;stroke-width:0.5;" x1="824" x2="904" y1="314.1777" y2="314.1777"/></g><!--class JobReference--><g id="elem_JobReference"><rect codeLine="11" fill="#F1F1F1" height="52.582" id="JobReference" rx="2.5" ry="2.5" style="stroke:#181818;stroke-width:0.5;" width="94" x="823" y="401.6348"/><text fill="#000000" font-family="sans-serif" font-size="12" font-style="italic" lengthAdjust="spacing" textLength="85" x="827.5" y="419.584">&#171;Value Object&#187;</text><text fill="#000000" font-family="sans-serif" font-size="14" lengthAdjust="spacing" textLength="88" x="826" y="437.7031">JobReference</text><line style="stroke:#181818;stroke-width:0.5;" x1="824" x2="916" y1="446.2168" y2="446.2168"/></g><!--class Application--><g id="elem_Application"><rect codeLine="17" fill="#F1F1F1" height="68.543" id="Application" rx="2.5" ry="2.5" style="stroke:#181818;stroke-width:0.5;" width="75" x="354.5" y="82.6348"/><text fill="#000000" font-family="sans-serif" font-size="12" font-style="italic" lengthAdjust="spacing" textLength="44" x="370" y="100.584">&#171;Entity&#187;</text><text fill="#000000" font-family="sans-serif" font-size="12" font-style="italic" lengthAdjust="spacing" textLength="35" x="374.5" y="116.5449">&#171;root&#187;</text><text fill="#000000" font-family="sans-serif" font-size="14" lengthAdjust="spacing" textLength="69" x="357.5" y="134.6641">Application</text><line style="stroke:#181818;stroke-width:0.5;" x1="355.5" x2="428.5" y1="143.1777" y2="143.1777"/></g><!--class ApplicationID--><g id="elem_ApplicationID"><rect codeLine="18" fill="#F1F1F1" height="52.582" id="ApplicationID" rx="2.5" ry="2.5" style="stroke:#181818;stroke-width:0.5;" width="88" x="63" y="261.6348"/><text fill="#000000" font-family="sans-serif" font-size="12" font-style="italic" lengthAdjust="spacing" textLength="82" x="66" y="279.584">&#171;ValueObject&#187;</text><text fill="#000000" font-family="sans-serif" font-size="14" lengthAdjust="spacing" textLength="82" x="66" y="297.7031">ApplicationID</text><line style="stroke:#181818;stroke-width:0.5;" x1="64" x2="150" y1="306.2168" y2="306.2168"/></g><!--class Interview--><g id="elem_Interview"><rect codeLine="19" fill="#F1F1F1" height="52.582" id="Interview" rx="2.5" ry="2.5" style="stroke:#181818;stroke-width:0.5;" width="61" x="186.5" y="261.6348"/><text fill="#000000" font-family="sans-serif" font-size="12" font-style="italic" lengthAdjust="spacing" textLength="44" x="195" y="279.584">&#171;Entity&#187;</text><text fill="#000000" font-family="sans-serif" font-size="14" lengthAdjust="spacing" textLength="55" x="189.5" y="297.7031">Interview</text><line style="stroke:#181818;stroke-width:0.5;" x1="187.5" x2="246.5" y1="306.2168" y2="306.2168"/></g><!--class Score--><g id="elem_Score"><rect codeLine="20" fill="#F1F1F1" height="52.582" id="Score" rx="2.5" ry="2.5" style="stroke:#181818;stroke-width:0.5;" width="84" x="159" y="401.6348"/><text fill="#000000" font-family="sans-serif" font-size="12" font-style="italic" lengthAdjust="spacing" textLength="82" x="160" y="419.584">&#171;ValueObject&#187;</text><text fill="#000000" font-family="sans-serif" font-size="14" lengthAdjust="spacing" textLength="37" x="182.5" y="437.7031">Score</text><line style="stroke:#181818;stroke-width:0.5;" x1="160" x2="242" y1="446.2168" y2="446.2168"/></g><!--class InterviewStatus--><g id="elem_InterviewStatus"><rect codeLine="21" fill="#F1F1F1" height="52.582" id="InterviewStatus" rx="2.5" ry="2.5" style="stroke:#181818;stroke-width:0.5;" width="101" x="22.5" y="401.6348"/><text fill="#000000" font-family="sans-serif" font-size="12" font-style="italic" lengthAdjust="spacing" textLength="82" x="32" y="419.584">&#171;ValueObject&#187;</text><text fill="#000000" font-family="sans-serif" font-size="14" lengthAdjust="spacing" textLength="95" x="25.5" y="437.7031">InterviewStatus</text><line style="stroke:#181818;stroke-width:0.5;" x1="23.5" x2="122.5" y1="446.2168" y2="446.2168"/></g><!--class EMail--><g id="elem_EMail"><rect codeLine="32" fill="#F1F1F1" height="52.582" id="EMail" rx="2.5" ry="2.5" style="stroke:#181818;stroke-width:0.5;" width="87" x="679.5" y="401.6348"/><text fill="#000000" font-family="sans-serif" font-size="12" font-style="italic" lengthAdjust="spacing" textLength="85" x="680.5" y="419.584">&#171;Value Object&#187;</text><text fill="#000000" font-family="sans-serif" font-size="14" lengthAdjust="spacing" textLength="34" x="706" y="437.7031">EMail</text><line style="stroke:#181818;stroke-width:0.5;" x1="680.5" x2="765.5" y1="446.2168" y2="446.2168"/></g><!--class Candidate--><g id="elem_Candidate"><rect codeLine="25" fill="#F1F1F1" height="68.543" id="Candidate" rx="2.5" ry="2.5" style="stroke:#181818;stroke-width:0.5;" width="71" x="433.5" y="253.6348"/><text fill="#000000" font-family="sans-serif" font-size="12" font-style="italic" lengthAdjust="spacing" textLength="44" x="447" y="271.584">&#171;Entity&#187;</text><text fill="#000000" font-family="sans-serif" font-size="12" font-style="italic" lengthAdjust="spacing" textLength="35" x="451.5" y="287.5449">&#171;root&#187;</text><text fill="#000000" font-family="sans-serif" font-size="14" lengthAdjust="spacing" textLength="65" x="436.5" y="305.6641">Candidate</text><line style="stroke:#181818;stroke-width:0.5;" x1="434.5" x2="503.5" y1="314.1777" y2="314.1777"/></g><!--class FirstName--><g id="elem_FirstName"><rect codeLine="27" fill="#F1F1F1" height="52.582" id="FirstName" rx="2.5" ry="2.5" style="stroke:#181818;stroke-width:0.5;" width="87" x="303.5" y="401.6348"/><text fill="#000000" font-family="sans-serif" font-size="12" font-style="italic" lengthAdjust="spacing" textLength="85" x="304.5" y="419.584">&#171;Value Object&#187;</text><text fill="#000000" font-family="sans-serif" font-size="14" lengthAdjust="spacing" textLength="64" x="315" y="437.7031">FirstName</text><line style="stroke:#181818;stroke-width:0.5;" x1="304.5" x2="389.5" y1="446.2168" y2="446.2168"/></g><!--class LastName--><g id="elem_LastName"><rect codeLine="28" fill="#F1F1F1" height="52.582" id="LastName" rx="2.5" ry="2.5" style="stroke:#181818;stroke-width:0.5;" width="87" x="425.5" y="401.6348"/><text fill="#000000" font-family="sans-serif" font-size="12" font-style="italic" lengthAdjust="spacing" textLength="85" x="426.5" y="419.584">&#171;Value Object&#187;</text><text fill="#000000" font-family="sans-serif" font-size="14" lengthAdjust="spacing" textLength="63" x="437.5" y="437.7031">LastName</text><line style="stroke:#181818;stroke-width:0.5;" x1="426.5" x2="511.5" y1="446.2168" y2="446.2168"/></g><!--class PhoneNumber--><g id="elem_PhoneNumber"><rect codeLine="29" fill="#F1F1F1" height="52.582" id="PhoneNumber" rx="2.5" ry="2.5" style="stroke:#181818;stroke-width:0.5;" width="96" x="548" y="401.6348"/><text fill="#000000" font-family="sans-serif" font-size="12" font-style="italic" lengthAdjust="spacing" textLength="85" x="553.5" y="419.584">&#171;Value Object&#187;</text><text fill="#000000" font-family="sans-serif" font-size="14" lengthAdjust="spacing" textLength="90" x="551" y="437.7031">PhoneNumber</text><line style="stroke:#181818;stroke-width:0.5;" x1="549" x2="643" y1="446.2168" y2="446.2168"/></g><!--link JobOpening to JobReference--><g id="link_JobOpening_JobReference"><path codeLine="35" d="M865.47,322.8948 C866.52,347.1548 867.6576,373.3605 868.6276,395.5205 " fill="none" id="JobOpening-to-JobReference" style="stroke:#181818;stroke-width:1.0;"/><polygon fill="#181818" points="868.89,401.5148,872.4926,392.3485,868.6713,396.5195,864.5003,392.6983,868.89,401.5148" style="stroke:#181818;stroke-width:1.0;"/><text fill="#000000" font-family="sans-serif" font-size="13" lengthAdjust="spacing" textLength="69" x="868" y="367.6631">identified by</text><text fill="#000000" font-family="sans-serif" font-size="13" lengthAdjust="spacing" textLength="22" x="841.8916" y="344.15">0..1</text><text fill="#000000" font-family="sans-serif" font-size="13" lengthAdjust="spacing" textLength="7" x="860.8239" y="390.5036">1</text></g><!--link Application to JobOpening--><g id="link_Application_JobOpening"><path codeLine="38" d="M429.9,130.3848 C481.97,147.3348 578.47,179.1948 660,208.6348 C716.75,229.1248 776.1208,252.2373 817.1908,268.4873 " fill="none" id="Application-to-JobOpening" style="stroke:#181818;stroke-width:1.0;"/><polygon fill="#181818" points="822.77,270.6948,815.8729,263.6641,818.1207,268.8552,812.9296,271.103,822.77,270.6948" style="stroke:#181818;stroke-width:1.0;"/><text fill="#000000" font-family="sans-serif" font-size="13" lengthAdjust="spacing" textLength="75" x="632" y="196.6631">submitted for</text><text fill="#000000" font-family="sans-serif" font-size="13" lengthAdjust="spacing" textLength="5" x="437.6013" y="128.3899">*</text><text fill="#000000" font-family="sans-serif" font-size="13" lengthAdjust="spacing" textLength="7" x="808.082" y="263.3289">1</text></g><!--link Application to Candidate--><g id="link_Application_Candidate"><path codeLine="39" d="M407.4,151.9248 C420.83,181.4048 437.7227,218.4846 451.1427,247.9446 " fill="none" id="Application-to-Candidate" style="stroke:#181818;stroke-width:1.0;"/><polygon fill="#181818" points="453.63,253.4048,453.5392,243.5563,451.5573,248.8546,446.259,246.8727,453.63,253.4048" style="stroke:#181818;stroke-width:1.0;"/><text fill="#000000" font-family="sans-serif" font-size="13" lengthAdjust="spacing" textLength="75" x="429" y="196.6631">submitted by</text><text fill="#000000" font-family="sans-serif" font-size="13" lengthAdjust="spacing" textLength="5" x="404.5366" y="173.1849">*</text><text fill="#000000" font-family="sans-serif" font-size="13" lengthAdjust="spacing" textLength="7" x="443.0329" y="242.2637">1</text></g><!--link Application to ApplicationID--><g id="link_Application_ApplicationID"><path codeLine="40" d="M354.33,125.8448 C306.73,137.1548 224.34,162.1448 169,208.6348 C150.92,223.8248 137.9489,240.0903 126.5789,256.6303 " fill="none" id="Application-to-ApplicationID" style="stroke:#181818;stroke-width:1.0;"/><polygon fill="#181818" points="123.18,261.5748,131.5747,256.4241,126.0124,257.4544,124.9821,251.8922,123.18,261.5748" style="stroke:#181818;stroke-width:1.0;"/><text fill="#000000" font-family="sans-serif" font-size="13" lengthAdjust="spacing" textLength="69" x="208" y="196.6631">identified by</text><text fill="#000000" font-family="sans-serif" font-size="13" lengthAdjust="spacing" textLength="7" x="339.482" y="122.9844">1</text><text fill="#000000" font-family="sans-serif" font-size="13" lengthAdjust="spacing" textLength="7" x="119.1123" y="250.5774">1</text></g><!--link Application to Interview--><g id="link_Application_Interview"><path codeLine="41" d="M354.01,148.8148 C333.58,165.8248 308.28,187.7148 287,208.6348 C269.81,225.5348 255.6428,241.3176 242.1628,257.0576 " fill="none" id="Application-to-Interview" style="stroke:#181818;stroke-width:1.0;"/><polygon fill="#181818" points="238.26,261.6148,247.1524,257.3809,241.5124,257.8171,241.0761,252.1771,238.26,261.6148" style="stroke:#181818;stroke-width:1.0;"/><text fill="#000000" font-family="sans-serif" font-size="13" lengthAdjust="spacing" textLength="38" x="316" y="196.6631">origins</text><text fill="#000000" font-family="sans-serif" font-size="13" lengthAdjust="spacing" textLength="7" x="339.6196" y="150.0386">1</text><text fill="#000000" font-family="sans-serif" font-size="13" lengthAdjust="spacing" textLength="22" x="218.7609" y="250.1934">0..1</text></g><!--link Interview to Score--><g id="link_Interview_Score"><path codeLine="44" d="M214.03,314.7648 C211.17,339.3948 207.5711,370.4647 204.7011,395.2147 " fill="none" id="Interview-to-Score" style="stroke:#181818;stroke-width:1.0;"/><polygon fill="#181818" points="204.01,401.1748,209.0201,392.6954,204.5859,396.208,201.0733,391.7739,204.01,401.1748" style="stroke:#181818;stroke-width:1.0;"/><text fill="#000000" font-family="sans-serif" font-size="13" lengthAdjust="spacing" textLength="75" x="211" y="367.6631">is marked by</text><text fill="#000000" font-family="sans-serif" font-size="13" lengthAdjust="spacing" textLength="7" x="205.6956" y="336.1118">1</text><text fill="#000000" font-family="sans-serif" font-size="13" lengthAdjust="spacing" textLength="22" x="180.2622" y="390.5238">0..1</text></g><!--link Interview to InterviewStatus--><g id="link_Interview_InterviewStatus"><path codeLine="45" d="M186.4,311.2048 C180.41,315.1948 174.09,319.1748 168,322.6348 C140.33,338.3348 124.93,329.5848 103,352.6348 C90.22,366.0648 84.2202,379.8721 79.8702,395.5921 " fill="none" id="Interview-to-InterviewStatus" style="stroke:#181818;stroke-width:1.0;"/><polygon fill="#181818" points="78.27,401.3748,84.5254,393.7675,79.6035,396.5559,76.8151,391.634,78.27,401.3748" style="stroke:#181818;stroke-width:1.0;"/><text fill="#000000" font-family="sans-serif" font-size="13" lengthAdjust="spacing" textLength="95" x="104" y="367.6631">presents itself in</text><text fill="#000000" font-family="sans-serif" font-size="13" lengthAdjust="spacing" textLength="7" x="171.5144" y="311.6844">1</text><text fill="#000000" font-family="sans-serif" font-size="13" lengthAdjust="spacing" textLength="7" x="71.6793" y="390.3312">1</text></g><!--link Candidate to EMail--><g id="link_Candidate_EMail"><path codeLine="48" d="M504.59,308.4648 C550.32,333.3148 624.4376,373.5908 673.8676,400.4408 " fill="none" id="Candidate-to-EMail" style="stroke:#181818;stroke-width:1.0;"/><polygon fill="#181818" points="679.14,403.3048,673.1407,395.494,674.7464,400.9182,669.3222,402.5238,679.14,403.3048" style="stroke:#181818;stroke-width:1.0;"/><text fill="#000000" font-family="sans-serif" font-size="13" lengthAdjust="spacing" textLength="69" x="619" y="367.6631">identified by</text><text fill="#000000" font-family="sans-serif" font-size="13" lengthAdjust="spacing" textLength="7" x="512.6523" y="308.0102">1</text><text fill="#000000" font-family="sans-serif" font-size="13" lengthAdjust="spacing" textLength="7" x="664.592" y="395.0776">1</text></g><!--link Candidate to PhoneNumber--><g id="link_Candidate_PhoneNumber"><path codeLine="49" d="M502.5,322.7448 C511.83,332.2948 521.91,342.7848 531,352.6348 C545.67,368.5248 557.7401,382.2737 570.1801,396.7537 " fill="none" id="Candidate-to-PhoneNumber" style="stroke:#181818;stroke-width:1.0;"/><polygon fill="#181818" points="574.09,401.3048,571.2592,391.8715,570.8317,397.5122,565.191,397.0847,574.09,401.3048" style="stroke:#181818;stroke-width:1.0;"/><text fill="#000000" font-family="sans-serif" font-size="13" lengthAdjust="spacing" textLength="28" x="548" y="367.6631">uses</text><text fill="#000000" font-family="sans-serif" font-size="13" lengthAdjust="spacing" textLength="7" x="500.6563" y="344.2469">1</text><text fill="#000000" font-family="sans-serif" font-size="13" lengthAdjust="spacing" textLength="7" x="561.2139" y="390.245">1</text></g><!--link Candidate to FirstName--><g id="link_Candidate_FirstName"><path codeLine="50" d="M434.92,322.8348 C425.68,332.3048 415.79,342.7248 407,352.6348 C393,368.4148 381.8306,382.1419 370.3906,396.7419 " fill="none" id="Candidate-to-FirstName" style="stroke:#181818;stroke-width:1.0;"/><polygon fill="#181818" points="366.69,401.4648,375.3895,396.8476,369.7739,397.5291,369.0924,391.9134,366.69,401.4648" style="stroke:#181818;stroke-width:1.0;"/><text fill="#000000" font-family="sans-serif" font-size="13" lengthAdjust="spacing" textLength="52" x="408" y="367.6631">called by</text><text fill="#000000" font-family="sans-serif" font-size="13" lengthAdjust="spacing" textLength="7" x="421.6958" y="344.08">1</text><text fill="#000000" font-family="sans-serif" font-size="13" lengthAdjust="spacing" textLength="7" x="363.4339" y="390.442">1</text></g><!--link Candidate to LastName--><g id="link_Candidate_LastName"><path codeLine="51" d="M469,322.8948 C469,347.1548 469,373.3548 469,395.5148 " fill="none" id="Candidate-to-LastName" style="stroke:#181818;stroke-width:1.0;"/><polygon fill="#181818" points="469,401.5148,473,392.5148,469,396.5148,465,392.5148,469,401.5148" style="stroke:#181818;stroke-width:1.0;"/><text fill="#000000" font-family="sans-serif" font-size="13" lengthAdjust="spacing" textLength="52" x="470" y="367.6631">called by</text><text fill="#000000" font-family="sans-serif" font-size="13" lengthAdjust="spacing" textLength="7" x="461.4203" y="344.15">1</text><text fill="#000000" font-family="sans-serif" font-size="13" lengthAdjust="spacing" textLength="7" x="461.1906" y="390.5036">1</text></g><!--SRC=[XLDBQ-Cm4BxhLmov51PQTg-c64gRXPRjWnRsr8iiZvrfPCb8uoqXvBzt5ZUsuZZjoRRcUyod6P_5DRbM1zs09OUyQH5yu9LNPnOh1lOGg5unb1JGC7cdLbGY60h6Ol_UeE3Bg9ZO8jpuHfE3Ur-YLQhLPgrhX3jVFBReoDLNTHsmreomLSfO7MDIXClBfHETJPx3gvElu3td-LRjHkWpLXZG6PJoNsqxXCVYJNeJodQd13cONhMj9QF_TptZcbHFsUwEeRStUzkzwu2wTOpX7-7xg3RKNemFE6LEUI-ikOj7g27FjNObbH9Y9irG-_OAVrE8_A2Ru_lx1FpHNzUVLjxXGzSK68uW4dYtRsbvhydE8PHA9hxuUN7nQm7dvpaiv7amu0naloHCHLX2iH5YEhJ5ZmFQNZ23s1KDCGkdyk4aPRonb24k1uIajSCjcFOso-gp3GCMafVVYLoKAEFf1DxlYkX7Q7HOz_8pw5JvStKoW3PWbBuY44Uq5P0Jhp5hoku7D0qoZqs7da4NCPu0ZkkLWT7MVYKwR5eA_G00]--></g></svg>