<?xml version="1.0" encoding="us-ascii" standalone="no"?><svg xmlns="http://www.w3.org/2000/svg" xmlns:xlink="http://www.w3.org/1999/xlink" contentStyleType="text/css" height="881px" preserveAspectRatio="none" style="width:1555px;height:881px;background:#FFFFFF;" version="1.1" viewBox="0 0 1555 881" width="1555px" zoomAndPan="magnify"><defs/><g><text fill="#000000" font-family="sans-serif" font-size="14" font-weight="bold" lengthAdjust="spacing" textLength="233" x="662.5" y="30.1074">Sequence Diagram (SD) - US 1017</text><rect fill="#FFFFFF" height="655.8203" style="stroke:#181818;stroke-width:1.0;" width="10" x="63.5" y="133.2422"/><rect fill="#FFFFFF" height="623.5293" style="stroke:#181818;stroke-width:1.0;" width="10" x="298.5" y="156.5332"/><rect fill="#FFFFFF" height="485.3652" style="stroke:#181818;stroke-width:1.0;" width="10" x="629.5" y="263.4063"/><rect fill="#FFFFFF" height="31.291" style="stroke:#181818;stroke-width:1.0;" width="10" x="904.5" y="294.6973"/><rect fill="#FFFFFF" height="31.291" style="stroke:#181818;stroke-width:1.0;" width="10" x="1073" y="482.4434"/><rect fill="#FFFFFF" height="109.873" style="stroke:#181818;stroke-width:1.0;" width="10" x="1212.5" y="607.6074"/><rect fill="#FFFFFF" height="14" style="stroke:#181818;stroke-width:1.0;" width="10" x="1507.5" y="665.1895"/><rect fill="none" height="64.582" style="stroke:#000000;stroke-width:1.5;" width="393.5" x="1155.5" y="622.6074"/><line style="stroke:#181818;stroke-width:0.5;stroke-dasharray:5.0,5.0;" x1="68" x2="68" y1="123.2422" y2="798.0625"/><line style="stroke:#181818;stroke-width:0.5;stroke-dasharray:5.0,5.0;" x1="303.5" x2="303.5" y1="123.2422" y2="798.0625"/><line style="stroke:#181818;stroke-width:0.5;stroke-dasharray:5.0,5.0;" x1="634.5" x2="634.5" y1="123.2422" y2="798.0625"/><line style="stroke:#181818;stroke-width:0.5;stroke-dasharray:5.0,5.0;" x1="909.5" x2="909.5" y1="123.2422" y2="798.0625"/><line style="stroke:#181818;stroke-width:0.5;stroke-dasharray:5.0,5.0;" x1="1077.5" x2="1077.5" y1="123.2422" y2="798.0625"/><line style="stroke:#181818;stroke-width:0.5;stroke-dasharray:5.0,5.0;" x1="1217.5" x2="1217.5" y1="123.2422" y2="798.0625"/><line style="stroke:#181818;stroke-width:0.5;stroke-dasharray:5.0,5.0;" x1="1512" x2="1512" y1="123.2422" y2="798.0625"/><text fill="#000000" font-family="sans-serif" font-size="14" lengthAdjust="spacing" textLength="121" x="5" y="119.7285">Customer Manager</text><ellipse cx="68.5" cy="53.1211" fill="#E3E3E3" rx="8" ry="8" style="stroke:#181818;stroke-width:0.5;"/><path d="M68.5,61.1211 L68.5,88.1211 M55.5,69.1211 L81.5,69.1211 M68.5,88.1211 L55.5,103.1211 M68.5,88.1211 L81.5,103.1211 " fill="none" style="stroke:#181818;stroke-width:0.5;"/><text fill="#000000" font-family="sans-serif" font-size="14" lengthAdjust="spacing" textLength="121" x="5" y="812.1699">Customer Manager</text><ellipse cx="68.5" cy="824.1836" fill="#E3E3E3" rx="8" ry="8" style="stroke:#181818;stroke-width:0.5;"/><path d="M68.5,832.1836 L68.5,859.1836 M55.5,840.1836 L81.5,840.1836 M68.5,859.1836 L55.5,874.1836 M68.5,859.1836 L81.5,874.1836 " fill="none" style="stroke:#181818;stroke-width:0.5;"/><rect fill="#E3E3E3" height="32.6211" rx="2.5" ry="2.5" style="stroke:#181818;stroke-width:0.5;" width="194" x="206.5" y="89.6211"/><text fill="#000000" font-family="sans-serif" font-size="14" lengthAdjust="spacing" textLength="180" x="213.5" y="111.7285">UploadInterviewAnswerFileUI</text><rect fill="#E3E3E3" height="32.6211" rx="2.5" ry="2.5" style="stroke:#181818;stroke-width:0.5;" width="194" x="206.5" y="797.0625"/><text fill="#000000" font-family="sans-serif" font-size="14" lengthAdjust="spacing" textLength="180" x="213.5" y="819.1699">UploadInterviewAnswerFileUI</text><rect fill="#E3E3E3" height="32.6211" rx="2.5" ry="2.5" style="stroke:#181818;stroke-width:0.5;" width="248" x="510.5" y="89.6211"/><text fill="#000000" font-family="sans-serif" font-size="14" lengthAdjust="spacing" textLength="234" x="517.5" y="111.7285">:UploadInterviewAnswerFileController</text><rect fill="#E3E3E3" height="32.6211" rx="2.5" ry="2.5" style="stroke:#181818;stroke-width:0.5;" width="248" x="510.5" y="797.0625"/><text fill="#000000" font-family="sans-serif" font-size="14" lengthAdjust="spacing" textLength="234" x="517.5" y="819.1699">:UploadInterviewAnswerFileController</text><rect fill="#E3E3E3" height="32.6211" rx="2.5" ry="2.5" style="stroke:#181818;stroke-width:0.5;" width="162" x="828.5" y="89.6211"/><text fill="#000000" font-family="sans-serif" font-size="14" lengthAdjust="spacing" textLength="148" x="835.5" y="111.7285">:JobOpeningRepository</text><rect fill="#E3E3E3" height="32.6211" rx="2.5" ry="2.5" style="stroke:#181818;stroke-width:0.5;" width="162" x="828.5" y="797.0625"/><text fill="#000000" font-family="sans-serif" font-size="14" lengthAdjust="spacing" textLength="148" x="835.5" y="819.1699">:JobOpeningRepository</text><rect fill="#E3E3E3" height="32.6211" rx="2.5" ry="2.5" style="stroke:#181818;stroke-width:0.5;" width="155" x="1000.5" y="89.6211"/><text fill="#000000" font-family="sans-serif" font-size="14" lengthAdjust="spacing" textLength="141" x="1007.5" y="111.7285">:ApplicationRepository</text><rect fill="#E3E3E3" height="32.6211" rx="2.5" ry="2.5" style="stroke:#181818;stroke-width:0.5;" width="155" x="1000.5" y="797.0625"/><text fill="#000000" font-family="sans-serif" font-size="14" lengthAdjust="spacing" textLength="141" x="1007.5" y="819.1699">:ApplicationRepository</text><rect fill="#E3E3E3" height="32.6211" rx="2.5" ry="2.5" style="stroke:#181818;stroke-width:0.5;" width="104" x="1165.5" y="89.6211"/><text fill="#000000" font-family="sans-serif" font-size="14" lengthAdjust="spacing" textLength="90" x="1172.5" y="111.7285">:PluginService</text><rect fill="#E3E3E3" height="32.6211" rx="2.5" ry="2.5" style="stroke:#181818;stroke-width:0.5;" width="104" x="1165.5" y="797.0625"/><text fill="#000000" font-family="sans-serif" font-size="14" lengthAdjust="spacing" textLength="90" x="1172.5" y="819.1699">:PluginService</text><rect fill="#E3E3E3" height="32.6211" rx="2.5" ry="2.5" style="stroke:#181818;stroke-width:0.5;" width="53" x="1486" y="89.6211"/><text fill="#000000" font-family="sans-serif" font-size="14" lengthAdjust="spacing" textLength="39" x="1493" y="111.7285">Plugin</text><rect fill="#E3E3E3" height="32.6211" rx="2.5" ry="2.5" style="stroke:#181818;stroke-width:0.5;" width="53" x="1486" y="797.0625"/><text fill="#000000" font-family="sans-serif" font-size="14" lengthAdjust="spacing" textLength="39" x="1493" y="819.1699">Plugin</text><rect fill="#FFFFFF" height="655.8203" style="stroke:#181818;stroke-width:1.0;" width="10" x="63.5" y="133.2422"/><rect fill="#FFFFFF" height="623.5293" style="stroke:#181818;stroke-width:1.0;" width="10" x="298.5" y="156.5332"/><rect fill="#FFFFFF" height="485.3652" style="stroke:#181818;stroke-width:1.0;" width="10" x="629.5" y="263.4063"/><rect fill="#FFFFFF" height="31.291" style="stroke:#181818;stroke-width:1.0;" width="10" x="904.5" y="294.6973"/><rect fill="#FFFFFF" height="31.291" style="stroke:#181818;stroke-width:1.0;" width="10" x="1073" y="482.4434"/><rect fill="#FFFFFF" height="109.873" style="stroke:#181818;stroke-width:1.0;" width="10" x="1212.5" y="607.6074"/><rect fill="#FFFFFF" height="14" style="stroke:#181818;stroke-width:1.0;" width="10" x="1507.5" y="665.1895"/><polygon fill="#181818" points="286.5,152.5332,296.5,156.5332,286.5,160.5332,290.5,156.5332" style="stroke:#181818;stroke-width:1.0;"/><line style="stroke:#181818;stroke-width:1.0;" x1="73.5" x2="292.5" y1="156.5332" y2="156.5332"/><text fill="#000000" font-family="sans-serif" font-size="13" lengthAdjust="spacing" textLength="38" x="80.5" y="151.2705">show()</text><line style="stroke:#181818;stroke-width:1.0;" x1="308.5" x2="350.5" y1="187.8242" y2="187.8242"/><line style="stroke:#181818;stroke-width:1.0;" x1="350.5" x2="350.5" y1="187.8242" y2="200.8242"/><line style="stroke:#181818;stroke-width:1.0;" x1="309.5" x2="350.5" y1="200.8242" y2="200.8242"/><polygon fill="#181818" points="319.5,196.8242,309.5,200.8242,319.5,204.8242,315.5,200.8242" style="stroke:#181818;stroke-width:1.0;"/><text fill="#000000" font-family="sans-serif" font-size="13" lengthAdjust="spacing" textLength="54" x="315.5" y="182.5615">doShow()</text><polygon fill="#181818" points="622.5,228.1152,632.5,232.1152,622.5,236.1152,626.5,232.1152" style="stroke:#181818;stroke-width:1.0;"/><line style="stroke:#181818;stroke-width:1.0;" x1="308.5" x2="628.5" y1="232.1152" y2="232.1152"/><text fill="#000000" font-family="sans-serif" font-size="13" lengthAdjust="spacing" textLength="44" x="315.5" y="226.8525">create()</text><polygon fill="#181818" points="617.5,259.4063,627.5,263.4063,617.5,267.4063,621.5,263.4063" style="stroke:#181818;stroke-width:1.0;"/><line style="stroke:#181818;stroke-width:1.0;" x1="308.5" x2="623.5" y1="263.4063" y2="263.4063"/><text fill="#000000" font-family="sans-serif" font-size="13" lengthAdjust="spacing" textLength="246" x="315.5" y="258.1436">allJobOpeningsWithInterviewSpecification()</text><polygon fill="#181818" points="892.5,290.6973,902.5,294.6973,892.5,298.6973,896.5,294.6973" style="stroke:#181818;stroke-width:1.0;"/><line style="stroke:#181818;stroke-width:1.0;" x1="639.5" x2="898.5" y1="294.6973" y2="294.6973"/><text fill="#000000" font-family="sans-serif" font-size="13" lengthAdjust="spacing" textLength="246" x="646.5" y="289.4346">allJobOpeningsWithInterviewSpecification()</text><polygon fill="#181818" points="650.5,321.9883,640.5,325.9883,650.5,329.9883,646.5,325.9883" style="stroke:#181818;stroke-width:1.0;"/><line style="stroke:#181818;stroke-width:1.0;stroke-dasharray:2.0,2.0;" x1="644.5" x2="908.5" y1="325.9883" y2="325.9883"/><text fill="#000000" font-family="sans-serif" font-size="13" lengthAdjust="spacing" textLength="72" x="656.5" y="320.7256">jobOpenings</text><polygon fill="#181818" points="319.5,353.2793,309.5,357.2793,319.5,361.2793,315.5,357.2793" style="stroke:#181818;stroke-width:1.0;"/><line style="stroke:#181818;stroke-width:1.0;stroke-dasharray:2.0,2.0;" x1="313.5" x2="628.5" y1="357.2793" y2="357.2793"/><text fill="#000000" font-family="sans-serif" font-size="13" lengthAdjust="spacing" textLength="72" x="325.5" y="352.0166">jobOpenings</text><polygon fill="#181818" points="84.5,384.5703,74.5,388.5703,84.5,392.5703,80.5,388.5703" style="stroke:#181818;stroke-width:1.0;"/><line style="stroke:#181818;stroke-width:1.0;stroke-dasharray:2.0,2.0;" x1="78.5" x2="297.5" y1="388.5703" y2="388.5703"/><text fill="#000000" font-family="sans-serif" font-size="13" lengthAdjust="spacing" textLength="201" x="90.5" y="383.3076">shows list of jobOpenings available</text><polygon fill="#181818" points="286.5,415.8613,296.5,419.8613,286.5,423.8613,290.5,419.8613" style="stroke:#181818;stroke-width:1.0;"/><line style="stroke:#181818;stroke-width:1.0;stroke-dasharray:2.0,2.0;" x1="73.5" x2="292.5" y1="419.8613" y2="419.8613"/><text fill="#000000" font-family="sans-serif" font-size="13" lengthAdjust="spacing" textLength="195" x="80.5" y="414.5986">selects jobOpenings (jobOpening)</text><polygon fill="#181818" points="617.5,447.1523,627.5,451.1523,617.5,455.1523,621.5,451.1523" style="stroke:#181818;stroke-width:1.0;"/><line style="stroke:#181818;stroke-width:1.0;stroke-dasharray:2.0,2.0;" x1="308.5" x2="623.5" y1="451.1523" y2="451.1523"/><text fill="#000000" font-family="sans-serif" font-size="13" lengthAdjust="spacing" textLength="223" x="315.5" y="445.8896">applicationsOfJobOpening(jobOpening)</text><polygon fill="#181818" points="1061,478.4434,1071,482.4434,1061,486.4434,1065,482.4434" style="stroke:#181818;stroke-width:1.0;"/><line style="stroke:#181818;stroke-width:1.0;stroke-dasharray:2.0,2.0;" x1="639.5" x2="1067" y1="482.4434" y2="482.4434"/><text fill="#000000" font-family="sans-serif" font-size="13" lengthAdjust="spacing" textLength="223" x="646.5" y="477.1807">applicationsOfJobOpening(jobOpening)</text><polygon fill="#181818" points="650.5,509.7344,640.5,513.7344,650.5,517.7344,646.5,513.7344" style="stroke:#181818;stroke-width:1.0;"/><line style="stroke:#181818;stroke-width:1.0;stroke-dasharray:2.0,2.0;" x1="644.5" x2="1077" y1="513.7344" y2="513.7344"/><text fill="#000000" font-family="sans-serif" font-size="13" lengthAdjust="spacing" textLength="104" x="656.5" y="508.4717">list of applications</text><polygon fill="#181818" points="319.5,541.0254,309.5,545.0254,319.5,549.0254,315.5,545.0254" style="stroke:#181818;stroke-width:1.0;"/><line style="stroke:#181818;stroke-width:1.0;stroke-dasharray:2.0,2.0;" x1="313.5" x2="628.5" y1="545.0254" y2="545.0254"/><text fill="#000000" font-family="sans-serif" font-size="13" lengthAdjust="spacing" textLength="104" x="325.5" y="539.7627">list of applications</text><polygon fill="#181818" points="617.5,572.3164,627.5,576.3164,617.5,580.3164,621.5,576.3164" style="stroke:#181818;stroke-width:1.0;"/><line style="stroke:#181818;stroke-width:1.0;stroke-dasharray:2.0,2.0;" x1="308.5" x2="623.5" y1="576.3164" y2="576.3164"/><text fill="#000000" font-family="sans-serif" font-size="13" lengthAdjust="spacing" textLength="297" x="315.5" y="571.0537">checkFiles(requirementsSpecification ,applications)</text><polygon fill="#181818" points="1200.5,603.6074,1210.5,607.6074,1200.5,611.6074,1204.5,607.6074" style="stroke:#181818;stroke-width:1.0;"/><line style="stroke:#181818;stroke-width:1.0;stroke-dasharray:2.0,2.0;" x1="639.5" x2="1206.5" y1="607.6074" y2="607.6074"/><text fill="#000000" font-family="sans-serif" font-size="13" lengthAdjust="spacing" textLength="231" x="646.5" y="602.3447">checkInterviewFiles(plugin, applications)</text><path d="M1155.5,622.6074 L1228.5,622.6074 L1228.5,631.8984 L1218.5,641.8984 L1155.5,641.8984 L1155.5,622.6074 " fill="#EEEEEE" style="stroke:#000000;stroke-width:1.5;"/><rect fill="none" height="64.582" style="stroke:#000000;stroke-width:1.5;" width="393.5" x="1155.5" y="622.6074"/><text fill="#000000" font-family="sans-serif" font-size="13" font-weight="bold" lengthAdjust="spacing" textLength="28" x="1170.5" y="637.6357">loop</text><text fill="#000000" font-family="sans-serif" font-size="11" font-weight="bold" lengthAdjust="spacing" textLength="119" x="1243.5" y="636.4775">[For each Application]</text><polygon fill="#181818" points="1495.5,661.1895,1505.5,665.1895,1495.5,669.1895,1499.5,665.1895" style="stroke:#181818;stroke-width:1.0;"/><line style="stroke:#181818;stroke-width:1.0;stroke-dasharray:2.0,2.0;" x1="1222.5" x2="1501.5" y1="665.1895" y2="665.1895"/><text fill="#000000" font-family="sans-serif" font-size="13" lengthAdjust="spacing" textLength="266" x="1229.5" y="659.9268">checkInterviewFile(pathApplicationAnswerFile)</text><polygon fill="#181818" points="1233.5,675.1895,1223.5,679.1895,1233.5,683.1895,1229.5,679.1895" style="stroke:#181818;stroke-width:1.0;"/><line style="stroke:#181818;stroke-width:1.0;stroke-dasharray:2.0,2.0;" x1="1227.5" x2="1511.5" y1="679.1895" y2="679.1895"/><polygon fill="#181818" points="650.5,713.4805,640.5,717.4805,650.5,721.4805,646.5,717.4805" style="stroke:#181818;stroke-width:1.0;"/><line style="stroke:#181818;stroke-width:1.0;stroke-dasharray:2.0,2.0;" x1="644.5" x2="1216.5" y1="717.4805" y2="717.4805"/><text fill="#000000" font-family="sans-serif" font-size="13" lengthAdjust="spacing" textLength="108" x="656.5" y="712.2178">invalid applications</text><polygon fill="#181818" points="319.5,744.7715,309.5,748.7715,319.5,752.7715,315.5,748.7715" style="stroke:#181818;stroke-width:1.0;"/><line style="stroke:#181818;stroke-width:1.0;stroke-dasharray:2.0,2.0;" x1="313.5" x2="633.5" y1="748.7715" y2="748.7715"/><text fill="#000000" font-family="sans-serif" font-size="13" lengthAdjust="spacing" textLength="108" x="325.5" y="743.5088">invalid applications</text><polygon fill="#181818" points="84.5,776.0625,74.5,780.0625,84.5,784.0625,80.5,780.0625" style="stroke:#181818;stroke-width:1.0;"/><line style="stroke:#181818;stroke-width:1.0;stroke-dasharray:2.0,2.0;" x1="78.5" x2="302.5" y1="780.0625" y2="780.0625"/><text fill="#000000" font-family="sans-serif" font-size="13" lengthAdjust="spacing" textLength="149" x="90.5" y="774.7998">shows invalid applications</text><!--SRC=[dLJ1QkCm4BthAuQS4cXXUrheOQ6q5BAmjAm9UvxAarWRHT9AIaB_ViUMOikEIvUz6DlptfkPDng5lJ8EFHxWO8sLZRS7WkYF948VSIZtkACglci2JpAYsUaI41gixLcP7MnH1n8YgiZGYluSoKY29uMx5hUidbPm2viAxhxSVHK2PRGU5e_743cjXnzeE8zV00RO1FA2vQEIog69iDWuRR5UcqZ-fEZyOCAP_BFIj5adndgCl_-Gy6XDz5Rhd6hud0XyjsylZWmtzfES3OghVUyO7E0_4_I3Srf9ZCgQ2PmZr_1NVTmfKxMrIUfWhxewoJ4gWNAqVUrCKoUCb1mIxHDklt7tSC-3iEVbgiIi1GSkuTfM6P1-3erpK7fYnWT1r7em8_nIiUbjhHn9jSsDCxtFNTWg2Z6MJlRzfspsNcIHsscflmT1KTCLhQpauaj9wRfl0w5JQnqDe5M8OBSb4F24IkCRBqAUGJy4qhmZOGHU3X-hFaLPDWw79xni1rF6n6drwM2rHluBlVSYdqUHwLSMNjejLKilB_nPCsV9Sos3R4ZkstqCIyzNXV9q81F3QF9mK-gihb9sEtFHwWzF4dNTnjp0MA7l8gsRqDOwUEPxYFjhe5XYaRHJbbPfDitIOMmArd3BZ5AbtSqwVU6YT3M3oDIYI3roJ9aJQbLFl1rfTAfpSvdb5jHYNUTMu3CwtpH_0G00]--></g></svg>