<?xml version="1.0" encoding="UTF-8" standalone="no"?><svg xmlns="http://www.w3.org/2000/svg" xmlns:xlink="http://www.w3.org/1999/xlink" contentStyleType="text/css" height="1185px" preserveAspectRatio="none" style="width:1758px;height:1185px;background:#FFFFFF;" version="1.1" viewBox="0 0 1758 1185" width="1758px" zoomAndPan="magnify"><defs/><g><text fill="#000000" font-family="sans-serif" font-size="14" font-weight="bold" lengthAdjust="spacing" textLength="244" x="756.25" y="28.5352">Sequence Diagram (SD) - US 2003</text><rect fill="#FFFFFF" height="952.8672" style="stroke:#181818;stroke-width:1.0;" width="10" x="46" y="136.043"/><rect fill="#FFFFFF" height="868.7578" style="stroke:#181818;stroke-width:1.0;" width="10" x="285" y="211.1523"/><rect fill="#FFFFFF" height="403.5469" style="stroke:#181818;stroke-width:1.0;" width="10" x="679" y="291.2617"/><rect fill="#FFFFFF" height="164.2188" style="stroke:#181818;stroke-width:1.0;" width="10" x="679" y="854.582"/><rect fill="#FFFFFF" height="328.4375" style="stroke:#181818;stroke-width:1.0;" width="10" x="1001.5" y="328.8164"/><rect fill="#FFFFFF" height="37.5547" style="stroke:#181818;stroke-width:1.0;" width="10" x="1001.5" y="892.1367"/><rect fill="#FFFFFF" height="14" style="stroke:#181818;stroke-width:1.0;" width="10" x="1001.5" y="967.2461"/><rect fill="#FFFFFF" height="89.1094" style="stroke:#181818;stroke-width:1.0;" width="10" x="1209.5" y="366.3711"/><rect fill="#FFFFFF" height="14" style="stroke:#181818;stroke-width:1.0;" width="10" x="1410" y="403.9258"/><rect fill="#FFFFFF" height="75.1094" style="stroke:#181818;stroke-width:1.0;" width="10" x="1410" y="493.0352"/><rect fill="#FFFFFF" height="14" style="stroke:#181818;stroke-width:1.0;" width="10" x="1630" y="605.6992"/><line style="stroke:#181818;stroke-width:0.5;stroke-dasharray:5.0,5.0;" x1="51" x2="51" y1="126.043" y2="1097.9102"/><line style="stroke:#181818;stroke-width:0.5;stroke-dasharray:5.0,5.0;" x1="289.5" x2="289.5" y1="126.043" y2="1097.9102"/><line style="stroke:#181818;stroke-width:0.5;stroke-dasharray:5.0,5.0;" x1="683.5" x2="683.5" y1="126.043" y2="1097.9102"/><line style="stroke:#181818;stroke-width:0.5;stroke-dasharray:5.0,5.0;" x1="1006.5" x2="1006.5" y1="126.043" y2="1097.9102"/><line style="stroke:#181818;stroke-width:0.5;stroke-dasharray:5.0,5.0;" x1="1214.5" x2="1214.5" y1="126.043" y2="1097.9102"/><line style="stroke:#181818;stroke-width:0.5;stroke-dasharray:5.0,5.0;" x1="1414.5" x2="1414.5" y1="126.043" y2="1097.9102"/><line style="stroke:#181818;stroke-width:0.5;stroke-dasharray:5.0,5.0;" x1="1634.5" x2="1634.5" y1="126.043" y2="1097.9102"/><text fill="#000000" font-family="sans-serif" font-size="20" lengthAdjust="spacing" textLength="86" x="5" y="121.8242">Operator</text><ellipse cx="51" cy="50.9883" fill="#E3E3E3" rx="8" ry="8" style="stroke:#181818;stroke-width:0.5;"/><path d="M51,58.9883 L51,85.9883 M38,66.9883 L64,66.9883 M51,85.9883 L38,100.9883 M51,85.9883 L64,100.9883 " fill="none" style="stroke:#181818;stroke-width:0.5;"/><text fill="#000000" font-family="sans-serif" font-size="20" lengthAdjust="spacing" textLength="86" x="5" y="1116.2461">Operator</text><ellipse cx="51" cy="1128.9648" fill="#E3E3E3" rx="8" ry="8" style="stroke:#181818;stroke-width:0.5;"/><path d="M51,1136.9648 L51,1163.9648 M38,1144.9648 L64,1144.9648 M51,1163.9648 L38,1178.9648 M51,1163.9648 L64,1178.9648 " fill="none" style="stroke:#181818;stroke-width:0.5;"/><rect fill="#E3E3E3" height="37.5547" rx="2.5" ry="2.5" style="stroke:#181818;stroke-width:0.5;" width="343" x="118.5" y="87.4883"/><text fill="#000000" font-family="sans-serif" font-size="20" lengthAdjust="spacing" textLength="329" x="125.5" y="113.8242">GenerateRequirementsTemplateUI</text><rect fill="#E3E3E3" height="37.5547" rx="2.5" ry="2.5" style="stroke:#181818;stroke-width:0.5;" width="343" x="118.5" y="1096.9102"/><text fill="#000000" font-family="sans-serif" font-size="20" lengthAdjust="spacing" textLength="329" x="125.5" y="1123.2461">GenerateRequirementsTemplateUI</text><rect fill="#E3E3E3" height="37.5547" rx="2.5" ry="2.5" style="stroke:#181818;stroke-width:0.5;" width="425" x="471.5" y="87.4883"/><text fill="#000000" font-family="sans-serif" font-size="20" lengthAdjust="spacing" textLength="411" x="478.5" y="113.8242">:GenerateRequirementsTemplateController</text><rect fill="#E3E3E3" height="37.5547" rx="2.5" ry="2.5" style="stroke:#181818;stroke-width:0.5;" width="425" x="471.5" y="1096.9102"/><text fill="#000000" font-family="sans-serif" font-size="20" lengthAdjust="spacing" textLength="411" x="478.5" y="1123.2461">:GenerateRequirementsTemplateController</text><rect fill="#E3E3E3" height="37.5547" rx="2.5" ry="2.5" style="stroke:#181818;stroke-width:0.5;" width="200" x="906.5" y="87.4883"/><text fill="#000000" font-family="sans-serif" font-size="20" lengthAdjust="spacing" textLength="186" x="913.5" y="113.8242">:JobOpeningService</text><rect fill="#E3E3E3" height="37.5547" rx="2.5" ry="2.5" style="stroke:#181818;stroke-width:0.5;" width="200" x="906.5" y="1096.9102"/><text fill="#000000" font-family="sans-serif" font-size="20" lengthAdjust="spacing" textLength="186" x="913.5" y="1123.2461">:JobOpeningService</text><rect fill="#E3E3E3" height="37.5547" rx="2.5" ry="2.5" style="stroke:#181818;stroke-width:0.5;" width="196" x="1116.5" y="87.4883"/><text fill="#000000" font-family="sans-serif" font-size="20" lengthAdjust="spacing" textLength="182" x="1123.5" y="113.8242">PersistenceContext</text><rect fill="#E3E3E3" height="37.5547" rx="2.5" ry="2.5" style="stroke:#181818;stroke-width:0.5;" width="196" x="1116.5" y="1096.9102"/><text fill="#000000" font-family="sans-serif" font-size="20" lengthAdjust="spacing" textLength="182" x="1123.5" y="1123.2461">PersistenceContext</text><rect fill="#E3E3E3" height="37.5547" rx="2.5" ry="2.5" style="stroke:#181818;stroke-width:0.5;" width="185" x="1322.5" y="87.4883"/><text fill="#000000" font-family="sans-serif" font-size="20" lengthAdjust="spacing" textLength="171" x="1329.5" y="113.8242">RepositoryFactory</text><rect fill="#E3E3E3" height="37.5547" rx="2.5" ry="2.5" style="stroke:#181818;stroke-width:0.5;" width="185" x="1322.5" y="1096.9102"/><text fill="#000000" font-family="sans-serif" font-size="20" lengthAdjust="spacing" textLength="171" x="1329.5" y="1123.2461">RepositoryFactory</text><rect fill="#E3E3E3" height="37.5547" rx="2.5" ry="2.5" style="stroke:#181818;stroke-width:0.5;" width="235" x="1517.5" y="87.4883"/><text fill="#000000" font-family="sans-serif" font-size="20" lengthAdjust="spacing" textLength="221" x="1524.5" y="113.8242">:JobOpeningRepository</text><rect fill="#E3E3E3" height="37.5547" rx="2.5" ry="2.5" style="stroke:#181818;stroke-width:0.5;" width="235" x="1517.5" y="1096.9102"/><text fill="#000000" font-family="sans-serif" font-size="20" lengthAdjust="spacing" textLength="221" x="1524.5" y="1123.2461">:JobOpeningRepository</text><rect fill="#FFFFFF" height="952.8672" style="stroke:#181818;stroke-width:1.0;" width="10" x="46" y="136.043"/><rect fill="#FFFFFF" height="868.7578" style="stroke:#181818;stroke-width:1.0;" width="10" x="285" y="211.1523"/><rect fill="#FFFFFF" height="403.5469" style="stroke:#181818;stroke-width:1.0;" width="10" x="679" y="291.2617"/><rect fill="#FFFFFF" height="164.2188" style="stroke:#181818;stroke-width:1.0;" width="10" x="679" y="854.582"/><rect fill="#FFFFFF" height="328.4375" style="stroke:#181818;stroke-width:1.0;" width="10" x="1001.5" y="328.8164"/><rect fill="#FFFFFF" height="37.5547" style="stroke:#181818;stroke-width:1.0;" width="10" x="1001.5" y="892.1367"/><rect fill="#FFFFFF" height="14" style="stroke:#181818;stroke-width:1.0;" width="10" x="1001.5" y="967.2461"/><rect fill="#FFFFFF" height="89.1094" style="stroke:#181818;stroke-width:1.0;" width="10" x="1209.5" y="366.3711"/><rect fill="#FFFFFF" height="14" style="stroke:#181818;stroke-width:1.0;" width="10" x="1410" y="403.9258"/><rect fill="#FFFFFF" height="75.1094" style="stroke:#181818;stroke-width:1.0;" width="10" x="1410" y="493.0352"/><rect fill="#FFFFFF" height="14" style="stroke:#181818;stroke-width:1.0;" width="10" x="1630" y="605.6992"/><polygon fill="#181818" points="278,161.5977,288,165.5977,278,169.5977,282,165.5977" style="stroke:#181818;stroke-width:1.0;"/><line style="stroke:#181818;stroke-width:1.0;" x1="56" x2="284" y1="165.5977" y2="165.5977"/><text fill="#000000" font-family="sans-serif" font-size="20" lengthAdjust="spacing" textLength="63" x="63" y="159.3789">show()</text><line style="stroke:#181818;stroke-width:1.0;stroke-dasharray:2.0,2.0;" x1="290" x2="337" y1="198.1523" y2="198.1523"/><line style="stroke:#181818;stroke-width:1.0;stroke-dasharray:2.0,2.0;" x1="337" x2="337" y1="198.1523" y2="211.1523"/><line style="stroke:#181818;stroke-width:1.0;stroke-dasharray:2.0,2.0;" x1="296" x2="337" y1="211.1523" y2="211.1523"/><polygon fill="#181818" points="306,207.1523,296,211.1523,306,215.1523,302,211.1523" style="stroke:#181818;stroke-width:1.0;"/><text fill="#000000" font-family="sans-serif" font-size="20" lengthAdjust="spacing" textLength="89" x="302" y="191.9336">doShow()</text><polygon fill="#181818" points="672,249.707,682,253.707,672,257.707,676,253.707" style="stroke:#181818;stroke-width:1.0;"/><line style="stroke:#181818;stroke-width:1.0;stroke-dasharray:2.0,2.0;" x1="295" x2="678" y1="253.707" y2="253.707"/><text fill="#000000" font-family="sans-serif" font-size="20" lengthAdjust="spacing" textLength="72" x="302" y="247.4883">create()</text><polygon fill="#181818" points="667,287.2617,677,291.2617,667,295.2617,671,291.2617" style="stroke:#181818;stroke-width:1.0;"/><line style="stroke:#181818;stroke-width:1.0;" x1="295" x2="673" y1="291.2617" y2="291.2617"/><text fill="#000000" font-family="sans-serif" font-size="20" lengthAdjust="spacing" textLength="160" x="302" y="285.043">allJobOpenings()</text><polygon fill="#181818" points="989.5,324.8164,999.5,328.8164,989.5,332.8164,993.5,328.8164" style="stroke:#181818;stroke-width:1.0;"/><line style="stroke:#181818;stroke-width:1.0;" x1="689" x2="995.5" y1="328.8164" y2="328.8164"/><text fill="#000000" font-family="sans-serif" font-size="20" lengthAdjust="spacing" textLength="160" x="696" y="322.5977">allJobOpenings()</text><polygon fill="#181818" points="1197.5,362.3711,1207.5,366.3711,1197.5,370.3711,1201.5,366.3711" style="stroke:#181818;stroke-width:1.0;"/><line style="stroke:#181818;stroke-width:1.0;" x1="1011.5" x2="1203.5" y1="366.3711" y2="366.3711"/><text fill="#000000" font-family="sans-serif" font-size="20" lengthAdjust="spacing" textLength="128" x="1018.5" y="360.1523">repositories()</text><polygon fill="#181818" points="1398,399.9258,1408,403.9258,1398,407.9258,1402,403.9258" style="stroke:#181818;stroke-width:1.0;"/><line style="stroke:#181818;stroke-width:1.0;" x1="1219.5" x2="1404" y1="403.9258" y2="403.9258"/><text fill="#000000" font-family="sans-serif" font-size="20" lengthAdjust="spacing" textLength="72" x="1226.5" y="397.707">create()</text><polygon fill="#181818" points="1230.5,413.9258,1220.5,417.9258,1230.5,421.9258,1226.5,417.9258" style="stroke:#181818;stroke-width:1.0;"/><line style="stroke:#181818;stroke-width:1.0;stroke-dasharray:2.0,2.0;" x1="1224.5" x2="1414" y1="417.9258" y2="417.9258"/><polygon fill="#181818" points="1022.5,451.4805,1012.5,455.4805,1022.5,459.4805,1018.5,455.4805" style="stroke:#181818;stroke-width:1.0;"/><line style="stroke:#181818;stroke-width:1.0;stroke-dasharray:2.0,2.0;" x1="1016.5" x2="1213.5" y1="455.4805" y2="455.4805"/><text fill="#000000" font-family="sans-serif" font-size="20" lengthAdjust="spacing" textLength="65" x="1028.5" y="449.2617">factory</text><polygon fill="#181818" points="1398,489.0352,1408,493.0352,1398,497.0352,1402,493.0352" style="stroke:#181818;stroke-width:1.0;"/><line style="stroke:#181818;stroke-width:1.0;" x1="1011.5" x2="1404" y1="493.0352" y2="493.0352"/><text fill="#000000" font-family="sans-serif" font-size="20" lengthAdjust="spacing" textLength="160" x="1018.5" y="486.8164">allJobOpenings()</text><polygon fill="#181818" points="1623,526.5898,1633,530.5898,1623,534.5898,1627,530.5898" style="stroke:#181818;stroke-width:1.0;"/><line style="stroke:#181818;stroke-width:1.0;" x1="1420" x2="1629" y1="530.5898" y2="530.5898"/><text fill="#000000" font-family="sans-serif" font-size="20" lengthAdjust="spacing" textLength="72" x="1427" y="524.3711">create()</text><polygon fill="#181818" points="1022.5,564.1445,1012.5,568.1445,1022.5,572.1445,1018.5,568.1445" style="stroke:#181818;stroke-width:1.0;"/><line style="stroke:#181818;stroke-width:1.0;stroke-dasharray:2.0,2.0;" x1="1016.5" x2="1414" y1="568.1445" y2="568.1445"/><text fill="#000000" font-family="sans-serif" font-size="20" lengthAdjust="spacing" textLength="215" x="1028.5" y="561.9258">jobOpeningRepository</text><polygon fill="#181818" points="1618,601.6992,1628,605.6992,1618,609.6992,1622,605.6992" style="stroke:#181818;stroke-width:1.0;"/><line style="stroke:#181818;stroke-width:1.0;" x1="1011.5" x2="1624" y1="605.6992" y2="605.6992"/><text fill="#000000" font-family="sans-serif" font-size="20" lengthAdjust="spacing" textLength="160" x="1018.5" y="599.4805">allJobOpenings()</text><polygon fill="#181818" points="1022.5,615.6992,1012.5,619.6992,1022.5,623.6992,1018.5,619.6992" style="stroke:#181818;stroke-width:1.0;"/><line style="stroke:#181818;stroke-width:1.0;stroke-dasharray:2.0,2.0;" x1="1016.5" x2="1634" y1="619.6992" y2="619.6992"/><polygon fill="#181818" points="700,653.2539,690,657.2539,700,661.2539,696,657.2539" style="stroke:#181818;stroke-width:1.0;"/><line style="stroke:#181818;stroke-width:1.0;stroke-dasharray:2.0,2.0;" x1="694" x2="1005.5" y1="657.2539" y2="657.2539"/><text fill="#000000" font-family="sans-serif" font-size="20" lengthAdjust="spacing" textLength="146" x="706" y="651.0352">allJobOpenings</text><polygon fill="#181818" points="306,690.8086,296,694.8086,306,698.8086,302,694.8086" style="stroke:#181818;stroke-width:1.0;"/><line style="stroke:#181818;stroke-width:1.0;stroke-dasharray:2.0,2.0;" x1="300" x2="683" y1="694.8086" y2="694.8086"/><text fill="#000000" font-family="sans-serif" font-size="20" lengthAdjust="spacing" textLength="146" x="312" y="688.5898">allJobOpenings</text><polygon fill="#181818" points="67,751.918,57,755.918,67,759.918,63,755.918" style="stroke:#181818;stroke-width:1.0;"/><line style="stroke:#181818;stroke-width:1.0;stroke-dasharray:2.0,2.0;" x1="61" x2="284" y1="755.918" y2="755.918"/><text fill="#000000" font-family="sans-serif" font-size="20" lengthAdjust="spacing" textLength="139" x="73" y="726.1445">displays list of</text><text fill="#000000" font-family="sans-serif" font-size="20" lengthAdjust="spacing" textLength="125" x="79" y="749.6992">job openings</text><polygon fill="#181818" points="273,813.0273,283,817.0273,273,821.0273,277,817.0273" style="stroke:#181818;stroke-width:1.0;"/><line style="stroke:#181818;stroke-width:1.0;" x1="56" x2="279" y1="817.0273" y2="817.0273"/><text fill="#000000" font-family="sans-serif" font-size="20" lengthAdjust="spacing" textLength="186" x="63" y="787.2539">selects job opening</text><text fill="#000000" font-family="sans-serif" font-size="20" lengthAdjust="spacing" textLength="199" x="69" y="810.8086">to generate template</text><polygon fill="#181818" points="667,850.582,677,854.582,667,858.582,671,854.582" style="stroke:#181818;stroke-width:1.0;"/><line style="stroke:#181818;stroke-width:1.0;" x1="295" x2="673" y1="854.582" y2="854.582"/><text fill="#000000" font-family="sans-serif" font-size="20" lengthAdjust="spacing" textLength="222" x="302" y="848.3633">generateTemplateFile()</text><polygon fill="#181818" points="989.5,888.1367,999.5,892.1367,989.5,896.1367,993.5,892.1367" style="stroke:#181818;stroke-width:1.0;"/><line style="stroke:#181818;stroke-width:1.0;" x1="689" x2="995.5" y1="892.1367" y2="892.1367"/><text fill="#000000" font-family="sans-serif" font-size="20" lengthAdjust="spacing" textLength="103" x="696" y="885.918">getPlugin()</text><polygon fill="#181818" points="700,925.6914,690,929.6914,700,933.6914,696,929.6914" style="stroke:#181818;stroke-width:1.0;"/><line style="stroke:#181818;stroke-width:1.0;stroke-dasharray:2.0,2.0;" x1="694" x2="1005.5" y1="929.6914" y2="929.6914"/><text fill="#000000" font-family="sans-serif" font-size="20" lengthAdjust="spacing" textLength="61" x="706" y="923.4727">plugin</text><polygon fill="#181818" points="989.5,963.2461,999.5,967.2461,989.5,971.2461,993.5,967.2461" style="stroke:#181818;stroke-width:1.0;"/><line style="stroke:#181818;stroke-width:1.0;" x1="689" x2="995.5" y1="967.2461" y2="967.2461"/><text fill="#000000" font-family="sans-serif" font-size="20" lengthAdjust="spacing" textLength="281" x="696" y="961.0273">generateTemplateFile(Plugin)</text><polygon fill="#181818" points="700,977.2461,690,981.2461,700,985.2461,696,981.2461" style="stroke:#181818;stroke-width:1.0;"/><line style="stroke:#181818;stroke-width:1.0;stroke-dasharray:2.0,2.0;" x1="694" x2="1005.5" y1="981.2461" y2="981.2461"/><polygon fill="#181818" points="306,1014.8008,296,1018.8008,306,1022.8008,302,1018.8008" style="stroke:#181818;stroke-width:1.0;"/><line style="stroke:#181818;stroke-width:1.0;stroke-dasharray:2.0,2.0;" x1="300" x2="683" y1="1018.8008" y2="1018.8008"/><text fill="#000000" font-family="sans-serif" font-size="20" lengthAdjust="spacing" textLength="171" x="312" y="1012.582">operation success</text><polygon fill="#181818" points="67,1075.9102,57,1079.9102,67,1083.9102,63,1079.9102" style="stroke:#181818;stroke-width:1.0;"/><line style="stroke:#181818;stroke-width:1.0;stroke-dasharray:2.0,2.0;" x1="61" x2="289" y1="1079.9102" y2="1079.9102"/><text fill="#000000" font-family="sans-serif" font-size="20" lengthAdjust="spacing" textLength="177" x="73" y="1050.1367">displays operation</text><text fill="#000000" font-family="sans-serif" font-size="20" lengthAdjust="spacing" textLength="73" x="79" y="1073.6914">success</text><!--SRC=[dLN1Kjim4BtxAtOumI4pJ7lZmALCEk42WviR5rNU63MAv4eADFtwhcGhbcGd53YPrNjlTz-k5BiLgcE6xQJcMsoWmGtRIxVKojNYByANwyf62Eoqqlp5w1s2CtjCJZh6jwp5sXqaWa7kc6fb2h0lhD5lGhMmOT9YLJdX25hZxpqgZd0dMEjnb_NT5InWNLFcwwzLnRZJ1YuUEZIClYw0MLXRD1N9Ei55nvI3Y- -e_3a-aPmmk4Fbx0_STP9YwrLFMkMKctESRzI-qL9Ydt3yjz2urp-fCaLjrMXU1SS07xwh7Fo8nWhhVBTU3_-u09w6SzeJTjeAQlsm35uS0ekY9qiP6G5w_-31taZnIgtrxbL0V_uB5hTa3TpGWFJRvTLmi895Z3Uwxa_ymIYoof2ZGSJW1WcIQXK09kLOhIsb4xF3GK8beS7RTrMEC_3HI2B-r6wICj4nWHEXcVa4m8mGoPFLgGEPKXY3ZtZGOhQMSDpWb3ANBNDZqoz7AN2g-iIHlkJpRkQbt_OxDHbrx6kiwjVCKfxiCQafwf-lQjXi7-i9MV8oJu8-PZg_cLKfaIrLkfVniXJyWbvkThncDkHkXAMtvs11qi10RvwLjmzqLan-PL7IIsjJ613BQMY7jmtSyA2Tl8iH6L- -fP37UNxuIhRe7kM-5MgYC7yTosAwGFv_s_FSCutqrNogc8yFNuVVAA4Ls3tdQ3yx_wFEywXKIiNtjxX7_m00]--></g></svg>