<?xml version="1.0" encoding="UTF-8" standalone="no"?><svg xmlns="http://www.w3.org/2000/svg" xmlns:xlink="http://www.w3.org/1999/xlink" contentStyleType="text/css" height="1256px" preserveAspectRatio="none" style="width:1900px;height:1256px;background:#FFFFFF;" version="1.1" viewBox="0 0 1900 1256" width="1900px" zoomAndPan="magnify"><defs/><g><text fill="#000000" font-family="sans-serif" font-size="14" font-weight="bold" lengthAdjust="spacing" textLength="244" x="827" y="28.5352">Sequence Diagram (SD) - US 1008</text><rect fill="#FFFFFF" height="1023.5313" style="stroke:#181818;stroke-width:1.0;" width="10" x="93.5" y="136.043"/><rect fill="#FFFFFF" height="939.4219" style="stroke:#181818;stroke-width:1.0;" width="10" x="365.5" y="211.1523"/><rect fill="#FFFFFF" height="699.5391" style="stroke:#181818;stroke-width:1.0;" width="10" x="757.5" y="413.4805"/><rect fill="#FFFFFF" height="75.1094" style="stroke:#181818;stroke-width:1.0;" width="10" x="992" y="873.6914"/><rect fill="#FFFFFF" height="37.5547" style="stroke:#181818;stroke-width:1.0;" width="10" x="1178.5" y="723.4727"/><rect fill="#FFFFFF" height="37.5547" style="stroke:#181818;stroke-width:1.0;" width="10" x="1178.5" y="798.582"/><rect fill="#FFFFFF" height="136.2188" style="stroke:#181818;stroke-width:1.0;" width="10" x="1340.5" y="549.6992"/><rect fill="#FFFFFF" height="75.1094" style="stroke:#181818;stroke-width:1.0;" width="10" x="1516.5" y="986.3555"/><rect fill="#FFFFFF" height="37.5547" style="stroke:#181818;stroke-width:1.0;" width="10" x="1849.5" y="610.8086"/><line style="stroke:#181818;stroke-width:0.5;stroke-dasharray:5.0,5.0;" x1="98" x2="98" y1="126.043" y2="1168.5742"/><line style="stroke:#181818;stroke-width:0.5;stroke-dasharray:5.0,5.0;" x1="370.5" x2="370.5" y1="126.043" y2="1168.5742"/><line style="stroke:#181818;stroke-width:0.5;stroke-dasharray:5.0,5.0;" x1="762" x2="762" y1="126.043" y2="1168.5742"/><line style="stroke:#181818;stroke-width:0.5;stroke-dasharray:5.0,5.0;" x1="997" x2="997" y1="126.043" y2="1168.5742"/><line style="stroke:#181818;stroke-width:0.5;stroke-dasharray:5.0,5.0;" x1="1183" x2="1183" y1="126.043" y2="1168.5742"/><line style="stroke:#181818;stroke-width:0.5;stroke-dasharray:5.0,5.0;" x1="1345" x2="1345" y1="126.043" y2="1168.5742"/><line style="stroke:#181818;stroke-width:0.5;stroke-dasharray:5.0,5.0;" x1="1521" x2="1521" y1="126.043" y2="1168.5742"/><line style="stroke:#181818;stroke-width:0.5;stroke-dasharray:5.0,5.0;" x1="1714" x2="1714" y1="126.043" y2="1168.5742"/><line style="stroke:#181818;stroke-width:0.5;stroke-dasharray:5.0,5.0;" x1="1854" x2="1854" y1="126.043" y2="1168.5742"/><text fill="#000000" font-family="sans-serif" font-size="20" lengthAdjust="spacing" textLength="181" x="5" y="121.8242">Language Engineer</text><ellipse cx="98.5" cy="50.9883" fill="#E3E3E3" rx="8" ry="8" style="stroke:#181818;stroke-width:0.5;"/><path d="M98.5,58.9883 L98.5,85.9883 M85.5,66.9883 L111.5,66.9883 M98.5,85.9883 L85.5,100.9883 M98.5,85.9883 L111.5,100.9883 " fill="none" style="stroke:#181818;stroke-width:0.5;"/><text fill="#000000" font-family="sans-serif" font-size="20" lengthAdjust="spacing" textLength="181" x="5" y="1186.9102">Language Engineer</text><ellipse cx="98.5" cy="1199.6289" fill="#E3E3E3" rx="8" ry="8" style="stroke:#181818;stroke-width:0.5;"/><path d="M98.5,1207.6289 L98.5,1234.6289 M85.5,1215.6289 L111.5,1215.6289 M98.5,1234.6289 L85.5,1249.6289 M98.5,1234.6289 L111.5,1249.6289 " fill="none" style="stroke:#181818;stroke-width:0.5;"/><rect fill="#E3E3E3" height="37.5547" rx="2.5" ry="2.5" style="stroke:#181818;stroke-width:0.5;" width="160" x="290.5" y="87.4883"/><text fill="#000000" font-family="sans-serif" font-size="20" lengthAdjust="spacing" textLength="146" x="297.5" y="113.8242">DeployPluginUI</text><rect fill="#E3E3E3" height="37.5547" rx="2.5" ry="2.5" style="stroke:#181818;stroke-width:0.5;" width="160" x="290.5" y="1167.5742"/><text fill="#000000" font-family="sans-serif" font-size="20" lengthAdjust="spacing" textLength="146" x="297.5" y="1193.9102">DeployPluginUI</text><rect fill="#E3E3E3" height="37.5547" rx="2.5" ry="2.5" style="stroke:#181818;stroke-width:0.5;" width="253" x="636" y="87.4883"/><text fill="#000000" font-family="sans-serif" font-size="20" lengthAdjust="spacing" textLength="239" x="643" y="113.8242">:RegisterPluginController</text><rect fill="#E3E3E3" height="37.5547" rx="2.5" ry="2.5" style="stroke:#181818;stroke-width:0.5;" width="253" x="636" y="1167.5742"/><text fill="#000000" font-family="sans-serif" font-size="20" lengthAdjust="spacing" textLength="239" x="643" y="1193.9102">:RegisterPluginController</text><rect fill="#E3E3E3" height="37.5547" rx="2.5" ry="2.5" style="stroke:#181818;stroke-width:0.5;" width="196" x="899" y="87.4883"/><text fill="#000000" font-family="sans-serif" font-size="20" lengthAdjust="spacing" textLength="182" x="906" y="113.8242">PersistenceContext</text><rect fill="#E3E3E3" height="37.5547" rx="2.5" ry="2.5" style="stroke:#181818;stroke-width:0.5;" width="196" x="899" y="1167.5742"/><text fill="#000000" font-family="sans-serif" font-size="20" lengthAdjust="spacing" textLength="182" x="906" y="1193.9102">PersistenceContext</text><rect fill="#E3E3E3" height="37.5547" rx="2.5" ry="2.5" style="stroke:#181818;stroke-width:0.5;" width="157" x="1105" y="87.4883"/><text fill="#000000" font-family="sans-serif" font-size="20" lengthAdjust="spacing" textLength="143" x="1112" y="113.8242">PluginImporter</text><rect fill="#E3E3E3" height="37.5547" rx="2.5" ry="2.5" style="stroke:#181818;stroke-width:0.5;" width="157" x="1105" y="1167.5742"/><text fill="#000000" font-family="sans-serif" font-size="20" lengthAdjust="spacing" textLength="143" x="1112" y="1193.9102">PluginImporter</text><rect fill="#E3E3E3" height="37.5547" rx="2.5" ry="2.5" style="stroke:#181818;stroke-width:0.5;" width="147" x="1272" y="87.4883"/><text fill="#000000" font-family="sans-serif" font-size="20" lengthAdjust="spacing" textLength="133" x="1279" y="113.8242">:PluginBuilder</text><rect fill="#E3E3E3" height="37.5547" rx="2.5" ry="2.5" style="stroke:#181818;stroke-width:0.5;" width="147" x="1272" y="1167.5742"/><text fill="#000000" font-family="sans-serif" font-size="20" lengthAdjust="spacing" textLength="133" x="1279" y="1193.9102">:PluginBuilder</text><rect fill="#E3E3E3" height="37.5547" rx="2.5" ry="2.5" style="stroke:#181818;stroke-width:0.5;" width="185" x="1429" y="87.4883"/><text fill="#000000" font-family="sans-serif" font-size="20" lengthAdjust="spacing" textLength="171" x="1436" y="113.8242">RepositoryFactory</text><rect fill="#E3E3E3" height="37.5547" rx="2.5" ry="2.5" style="stroke:#181818;stroke-width:0.5;" width="185" x="1429" y="1167.5742"/><text fill="#000000" font-family="sans-serif" font-size="20" lengthAdjust="spacing" textLength="171" x="1436" y="1193.9102">RepositoryFactory</text><rect fill="#E3E3E3" height="37.5547" rx="2.5" ry="2.5" style="stroke:#181818;stroke-width:0.5;" width="181" x="1624" y="87.4883"/><text fill="#000000" font-family="sans-serif" font-size="20" lengthAdjust="spacing" textLength="167" x="1631" y="113.8242">:PluginRepository</text><rect fill="#E3E3E3" height="37.5547" rx="2.5" ry="2.5" style="stroke:#181818;stroke-width:0.5;" width="181" x="1624" y="1167.5742"/><text fill="#000000" font-family="sans-serif" font-size="20" lengthAdjust="spacing" textLength="167" x="1631" y="1193.9102">:PluginRepository</text><rect fill="#E3E3E3" height="37.5547" rx="2.5" ry="2.5" style="stroke:#181818;stroke-width:0.5;" width="79" x="1815" y="87.4883"/><text fill="#000000" font-family="sans-serif" font-size="20" lengthAdjust="spacing" textLength="65" x="1822" y="113.8242">:Plugin</text><rect fill="#E3E3E3" height="37.5547" rx="2.5" ry="2.5" style="stroke:#181818;stroke-width:0.5;" width="79" x="1815" y="1167.5742"/><text fill="#000000" font-family="sans-serif" font-size="20" lengthAdjust="spacing" textLength="65" x="1822" y="1193.9102">:Plugin</text><rect fill="#FFFFFF" height="1023.5313" style="stroke:#181818;stroke-width:1.0;" width="10" x="93.5" y="136.043"/><rect fill="#FFFFFF" height="939.4219" style="stroke:#181818;stroke-width:1.0;" width="10" x="365.5" y="211.1523"/><rect fill="#FFFFFF" height="699.5391" style="stroke:#181818;stroke-width:1.0;" width="10" x="757.5" y="413.4805"/><rect fill="#FFFFFF" height="75.1094" style="stroke:#181818;stroke-width:1.0;" width="10" x="992" y="873.6914"/><rect fill="#FFFFFF" height="37.5547" style="stroke:#181818;stroke-width:1.0;" width="10" x="1178.5" y="723.4727"/><rect fill="#FFFFFF" height="37.5547" style="stroke:#181818;stroke-width:1.0;" width="10" x="1178.5" y="798.582"/><rect fill="#FFFFFF" height="136.2188" style="stroke:#181818;stroke-width:1.0;" width="10" x="1340.5" y="549.6992"/><rect fill="#FFFFFF" height="75.1094" style="stroke:#181818;stroke-width:1.0;" width="10" x="1516.5" y="986.3555"/><rect fill="#FFFFFF" height="37.5547" style="stroke:#181818;stroke-width:1.0;" width="10" x="1849.5" y="610.8086"/><polygon fill="#181818" points="358.5,161.5977,368.5,165.5977,358.5,169.5977,362.5,165.5977" style="stroke:#181818;stroke-width:1.0;"/><line style="stroke:#181818;stroke-width:1.0;" x1="103.5" x2="364.5" y1="165.5977" y2="165.5977"/><text fill="#000000" font-family="sans-serif" font-size="20" lengthAdjust="spacing" textLength="63" x="110.5" y="159.3789">show()</text><line style="stroke:#181818;stroke-width:1.0;" x1="370.5" x2="417.5" y1="198.1523" y2="198.1523"/><line style="stroke:#181818;stroke-width:1.0;" x1="417.5" x2="417.5" y1="198.1523" y2="211.1523"/><line style="stroke:#181818;stroke-width:1.0;" x1="376.5" x2="417.5" y1="211.1523" y2="211.1523"/><polygon fill="#181818" points="386.5,207.1523,376.5,211.1523,386.5,215.1523,382.5,211.1523" style="stroke:#181818;stroke-width:1.0;"/><text fill="#000000" font-family="sans-serif" font-size="20" lengthAdjust="spacing" textLength="89" x="382.5" y="191.9336">doShow()</text><polygon fill="#181818" points="750.5,249.707,760.5,253.707,750.5,257.707,754.5,253.707" style="stroke:#181818;stroke-width:1.0;"/><line style="stroke:#181818;stroke-width:1.0;" x1="375.5" x2="756.5" y1="253.707" y2="253.707"/><text fill="#000000" font-family="sans-serif" font-size="20" lengthAdjust="spacing" textLength="72" x="382.5" y="247.4883">create()</text><polygon fill="#181818" points="114.5,287.2617,104.5,291.2617,114.5,295.2617,110.5,291.2617" style="stroke:#181818;stroke-width:1.0;"/><line style="stroke:#181818;stroke-width:1.0;stroke-dasharray:2.0,2.0;" x1="108.5" x2="364.5" y1="291.2617" y2="291.2617"/><text fill="#000000" font-family="sans-serif" font-size="20" lengthAdjust="spacing" textLength="201" x="120.5" y="285.043">Ask user information</text><polygon fill="#181818" points="353.5,348.3711,363.5,352.3711,353.5,356.3711,357.5,352.3711" style="stroke:#181818;stroke-width:1.0;"/><line style="stroke:#181818;stroke-width:1.0;stroke-dasharray:2.0,2.0;" x1="103.5" x2="359.5" y1="352.3711" y2="352.3711"/><text fill="#000000" font-family="sans-serif" font-size="20" lengthAdjust="spacing" textLength="238" x="110.5" y="322.5977">designation, description,</text><text fill="#000000" font-family="sans-serif" font-size="20" lengthAdjust="spacing" textLength="208" x="116.5" y="346.1523">plugin type, classPath</text><polygon fill="#181818" points="745.5,409.4805,755.5,413.4805,745.5,417.4805,749.5,413.4805" style="stroke:#181818;stroke-width:1.0;"/><line style="stroke:#181818;stroke-width:1.0;" x1="375.5" x2="751.5" y1="413.4805" y2="413.4805"/><text fill="#000000" font-family="sans-serif" font-size="20" lengthAdjust="spacing" textLength="363" x="382.5" y="383.707">deployPlugin(designation,description,</text><text fill="#000000" font-family="sans-serif" font-size="20" lengthAdjust="spacing" textLength="211" x="382.5" y="407.2617">classpath,pluginType)</text><polygon fill="#181818" points="1333.5,447.0352,1343.5,451.0352,1333.5,455.0352,1337.5,451.0352" style="stroke:#181818;stroke-width:1.0;"/><line style="stroke:#181818;stroke-width:1.0;" x1="767.5" x2="1339.5" y1="451.0352" y2="451.0352"/><text fill="#000000" font-family="sans-serif" font-size="20" lengthAdjust="spacing" textLength="72" x="774.5" y="444.8164">create()</text><polygon fill="#181818" points="1333.5,508.1445,1343.5,512.1445,1333.5,516.1445,1337.5,512.1445" style="stroke:#181818;stroke-width:1.0;"/><line style="stroke:#181818;stroke-width:1.0;" x1="767.5" x2="1339.5" y1="512.1445" y2="512.1445"/><text fill="#000000" font-family="sans-serif" font-size="20" lengthAdjust="spacing" textLength="279" x="774.5" y="482.3711">with(designation,description,</text><text fill="#000000" font-family="sans-serif" font-size="20" lengthAdjust="spacing" textLength="211" x="774.5" y="505.9258">classpath,pluginType)</text><polygon fill="#181818" points="1328.5,545.6992,1338.5,549.6992,1328.5,553.6992,1332.5,549.6992" style="stroke:#181818;stroke-width:1.0;"/><line style="stroke:#181818;stroke-width:1.0;" x1="767.5" x2="1334.5" y1="549.6992" y2="549.6992"/><text fill="#000000" font-family="sans-serif" font-size="20" lengthAdjust="spacing" textLength="64" x="774.5" y="543.4805">build()</text><polygon fill="#181818" points="1837.5,606.8086,1847.5,610.8086,1837.5,614.8086,1841.5,610.8086" style="stroke:#181818;stroke-width:1.0;"/><line style="stroke:#181818;stroke-width:1.0;" x1="1350.5" x2="1843.5" y1="610.8086" y2="610.8086"/><text fill="#000000" font-family="sans-serif" font-size="20" lengthAdjust="spacing" textLength="303" x="1357.5" y="581.0352">create (designation,description,</text><text fill="#000000" font-family="sans-serif" font-size="20" lengthAdjust="spacing" textLength="211" x="1357.5" y="604.5898">classpath,pluginType)</text><polygon fill="#181818" points="1361.5,644.3633,1351.5,648.3633,1361.5,652.3633,1357.5,648.3633" style="stroke:#181818;stroke-width:1.0;"/><line style="stroke:#181818;stroke-width:1.0;stroke-dasharray:2.0,2.0;" x1="1355.5" x2="1853.5" y1="648.3633" y2="648.3633"/><text fill="#000000" font-family="sans-serif" font-size="20" lengthAdjust="spacing" textLength="61" x="1367.5" y="642.1445">plugin</text><polygon fill="#181818" points="778.5,681.918,768.5,685.918,778.5,689.918,774.5,685.918" style="stroke:#181818;stroke-width:1.0;"/><line style="stroke:#181818;stroke-width:1.0;stroke-dasharray:2.0,2.0;" x1="772.5" x2="1344.5" y1="685.918" y2="685.918"/><text fill="#000000" font-family="sans-serif" font-size="20" lengthAdjust="spacing" textLength="61" x="784.5" y="679.6992">plugin</text><polygon fill="#181818" points="1166.5,719.4727,1176.5,723.4727,1166.5,727.4727,1170.5,723.4727" style="stroke:#181818;stroke-width:1.0;"/><line style="stroke:#181818;stroke-width:1.0;" x1="767.5" x2="1172.5" y1="723.4727" y2="723.4727"/><text fill="#000000" font-family="sans-serif" font-size="20" lengthAdjust="spacing" textLength="215" x="774.5" y="717.2539">plugin.buildImporter()</text><polygon fill="#181818" points="778.5,757.0273,768.5,761.0273,778.5,765.0273,774.5,761.0273" style="stroke:#181818;stroke-width:1.0;"/><line style="stroke:#181818;stroke-width:1.0;stroke-dasharray:2.0,2.0;" x1="772.5" x2="1182.5" y1="761.0273" y2="761.0273"/><text fill="#000000" font-family="sans-serif" font-size="20" lengthAdjust="spacing" textLength="84" x="784.5" y="754.8086">importer</text><polygon fill="#181818" points="1166.5,794.582,1176.5,798.582,1166.5,802.582,1170.5,798.582" style="stroke:#181818;stroke-width:1.0;"/><line style="stroke:#181818;stroke-width:1.0;" x1="767.5" x2="1172.5" y1="798.582" y2="798.582"/><text fill="#000000" font-family="sans-serif" font-size="20" lengthAdjust="spacing" textLength="128" x="774.5" y="792.3633">checkPlugin()</text><polygon fill="#181818" points="778.5,832.1367,768.5,836.1367,778.5,840.1367,774.5,836.1367" style="stroke:#181818;stroke-width:1.0;"/><line style="stroke:#181818;stroke-width:1.0;stroke-dasharray:2.0,2.0;" x1="772.5" x2="1182.5" y1="836.1367" y2="836.1367"/><text fill="#000000" font-family="sans-serif" font-size="20" lengthAdjust="spacing" textLength="171" x="784.5" y="829.918">operation success</text><polygon fill="#181818" points="980,869.6914,990,873.6914,980,877.6914,984,873.6914" style="stroke:#181818;stroke-width:1.0;"/><line style="stroke:#181818;stroke-width:1.0;" x1="767.5" x2="986" y1="873.6914" y2="873.6914"/><text fill="#000000" font-family="sans-serif" font-size="20" lengthAdjust="spacing" textLength="128" x="774.5" y="867.4727">repositories()</text><polygon fill="#181818" points="1509.5,907.2461,1519.5,911.2461,1509.5,915.2461,1513.5,911.2461" style="stroke:#181818;stroke-width:1.0;"/><line style="stroke:#181818;stroke-width:1.0;" x1="1002" x2="1515.5" y1="911.2461" y2="911.2461"/><text fill="#000000" font-family="sans-serif" font-size="20" lengthAdjust="spacing" textLength="58" x="1009" y="905.0273">create</text><polygon fill="#181818" points="778.5,944.8008,768.5,948.8008,778.5,952.8008,774.5,948.8008" style="stroke:#181818;stroke-width:1.0;"/><line style="stroke:#181818;stroke-width:1.0;stroke-dasharray:2.0,2.0;" x1="772.5" x2="996" y1="948.8008" y2="948.8008"/><text fill="#000000" font-family="sans-serif" font-size="20" lengthAdjust="spacing" textLength="65" x="784.5" y="942.582">factory</text><polygon fill="#181818" points="1504.5,982.3555,1514.5,986.3555,1504.5,990.3555,1508.5,986.3555" style="stroke:#181818;stroke-width:1.0;"/><line style="stroke:#181818;stroke-width:1.0;" x1="767.5" x2="1510.5" y1="986.3555" y2="986.3555"/><text fill="#000000" font-family="sans-serif" font-size="20" lengthAdjust="spacing" textLength="85" x="774.5" y="980.1367">plugins()</text><polygon fill="#181818" points="1702.5,1019.9102,1712.5,1023.9102,1702.5,1027.9102,1706.5,1023.9102" style="stroke:#181818;stroke-width:1.0;"/><line style="stroke:#181818;stroke-width:1.0;" x1="1526.5" x2="1708.5" y1="1023.9102" y2="1023.9102"/><text fill="#000000" font-family="sans-serif" font-size="20" lengthAdjust="spacing" textLength="58" x="1533.5" y="1017.6914">create</text><polygon fill="#181818" points="778.5,1057.4648,768.5,1061.4648,778.5,1065.4648,774.5,1061.4648" style="stroke:#181818;stroke-width:1.0;"/><line style="stroke:#181818;stroke-width:1.0;stroke-dasharray:2.0,2.0;" x1="772.5" x2="1520.5" y1="1061.4648" y2="1061.4648"/><text fill="#000000" font-family="sans-serif" font-size="20" lengthAdjust="spacing" textLength="97" x="784.5" y="1055.2461">repository</text><polygon fill="#181818" points="1702.5,1095.0195,1712.5,1099.0195,1702.5,1103.0195,1706.5,1099.0195" style="stroke:#181818;stroke-width:1.0;"/><line style="stroke:#181818;stroke-width:1.0;" x1="767.5" x2="1708.5" y1="1099.0195" y2="1099.0195"/><text fill="#000000" font-family="sans-serif" font-size="20" lengthAdjust="spacing" textLength="117" x="774.5" y="1092.8008">save(plugin)</text><polygon fill="#181818" points="386.5,1109.0195,376.5,1113.0195,386.5,1117.0195,382.5,1113.0195" style="stroke:#181818;stroke-width:1.0;"/><line style="stroke:#181818;stroke-width:1.0;stroke-dasharray:2.0,2.0;" x1="380.5" x2="761.5" y1="1113.0195" y2="1113.0195"/><polygon fill="#181818" points="114.5,1146.5742,104.5,1150.5742,114.5,1154.5742,110.5,1150.5742" style="stroke:#181818;stroke-width:1.0;"/><line style="stroke:#181818;stroke-width:1.0;stroke-dasharray:2.0,2.0;" x1="108.5" x2="369.5" y1="1150.5742" y2="1150.5742"/><text fill="#000000" font-family="sans-serif" font-size="20" lengthAdjust="spacing" textLength="171" x="120.5" y="1144.3555">operation success</text><!--SRC=[dLHDZzCm4BtxLunwwaejAfpG7f20ib8b3jM6thWOPvfQTUrWErlAhySVYMkdgM2vHF7upNjlnlQO8vSjrVGa53jY3JNkQIViavAsuhyHtgs86I1mKbAnWrOd1Aixp7PQoewqmSfU1896PgbiH0um1rghCvSDxAamI8Zbra4h_DcXP0XhJXkFcrVh1rZ2heAtgzLxGWXbLccOVNM4dLE0BxBX4b7FW1hO6TJ42LZEU4kbXTaQMw4kMz4vr6uJGPiIylYC3JSMTKHzTgLg9KHFULqwyI9lYzhuF6VNW_2N3GctuL5QKDcSMgLjhp4iHhuYybF7HTq3-_yIzuojCjnrvV8KcdC9K1UTfBkYeriNl0TD01Bxpb-enTXZuh-m_E2Q2O_kCDLv_k22cnIgLHM3rxpD0BYsr06PHhSxPFjq4-8VpH4w_ylbNkaJjLp9GJQ9eE6D35iBls2Qjs7nNK8RIW1xQN41J51ZjjGU9YtKsHsPvvmbPI1f7SaYSdzpr5bznKN9-9rQVsn5jVSGPsuFhpPnd-w7_ykFORX2PC0uk2yzcOF_Rq6yAu5jMRY8Q5BZ29eyZ8_aDY7vBYiTdaxAUHCg7i9vvUcLaPHqeyi7JAPypRihpGx8Zlq5UgMYQb67LeFf64DZ_aNwTiOu9ZsyR8ucTp4naCW4WQDrWo1TWsdCsFq-JfpYP2VaIlTH9XvNuTGF8k9t-pjP-WaROmEfwC9381grBF4P-eBpg3vwXs6kv3pvcyx6qrzEpK-wFm00]--></g></svg>