<?xml version="1.0" encoding="us-ascii" standalone="no"?><svg xmlns="http://www.w3.org/2000/svg" xmlns:xlink="http://www.w3.org/1999/xlink" contentStyleType="text/css" height="493px" preserveAspectRatio="none" style="width:324px;height:493px;background:#FFFFFF;" version="1.1" viewBox="0 0 324 493" width="324px" zoomAndPan="magnify"><defs/><g><text fill="#000000" font-family="sans-serif" font-size="14" font-weight="bold" lengthAdjust="spacing" textLength="296" x="10" y="30.1074">System Sequence Diagram (SSD) - US 1004</text><rect fill="#FFFFFF" height="268.6191" style="stroke:#181818;stroke-width:1.0;" width="10" x="69.25" y="133.2422"/><rect fill="#FFFFFF" height="48.582" style="stroke:#181818;stroke-width:1.0;" width="10" x="269.25" y="156.5332"/><rect fill="#FFFFFF" height="31.291" style="stroke:#181818;stroke-width:1.0;" width="10" x="269.25" y="236.4063"/><rect fill="#FFFFFF" height="31.291" style="stroke:#181818;stroke-width:1.0;" width="10" x="269.25" y="298.9883"/><rect fill="#FFFFFF" height="31.291" style="stroke:#181818;stroke-width:1.0;" width="10" x="269.25" y="361.5703"/><line style="stroke:#181818;stroke-width:0.5;stroke-dasharray:5.0,5.0;" x1="73.75" x2="73.75" y1="123.2422" y2="410.8613"/><line style="stroke:#181818;stroke-width:0.5;stroke-dasharray:5.0,5.0;" x1="274.25" x2="274.25" y1="123.2422" y2="410.8613"/><text fill="#000000" font-family="sans-serif" font-size="14" lengthAdjust="spacing" textLength="121" x="10.75" y="119.7285">Customer Manager</text><ellipse cx="74.25" cy="53.1211" fill="#E3E3E3" rx="8" ry="8" style="stroke:#181818;stroke-width:0.5;"/><path d="M74.25,61.1211 L74.25,88.1211 M61.25,69.1211 L87.25,69.1211 M74.25,88.1211 L61.25,103.1211 M74.25,88.1211 L87.25,103.1211 " fill="none" style="stroke:#181818;stroke-width:0.5;"/><text fill="#000000" font-family="sans-serif" font-size="14" lengthAdjust="spacing" textLength="121" x="10.75" y="424.9688">Customer Manager</text><ellipse cx="74.25" cy="436.9824" fill="#E3E3E3" rx="8" ry="8" style="stroke:#181818;stroke-width:0.5;"/><path d="M74.25,444.9824 L74.25,471.9824 M61.25,452.9824 L87.25,452.9824 M74.25,471.9824 L61.25,486.9824 M74.25,471.9824 L87.25,486.9824 " fill="none" style="stroke:#181818;stroke-width:0.5;"/><rect fill="#E3E3E3" height="32.6211" rx="2.5" ry="2.5" style="stroke:#181818;stroke-width:0.5;" width="64" x="242.25" y="89.6211"/><text fill="#000000" font-family="sans-serif" font-size="14" lengthAdjust="spacing" textLength="50" x="249.25" y="111.7285">:System</text><rect fill="#E3E3E3" height="32.6211" rx="2.5" ry="2.5" style="stroke:#181818;stroke-width:0.5;" width="64" x="242.25" y="409.8613"/><text fill="#000000" font-family="sans-serif" font-size="14" lengthAdjust="spacing" textLength="50" x="249.25" y="431.9688">:System</text><rect fill="#FFFFFF" height="268.6191" style="stroke:#181818;stroke-width:1.0;" width="10" x="69.25" y="133.2422"/><rect fill="#FFFFFF" height="48.582" style="stroke:#181818;stroke-width:1.0;" width="10" x="269.25" y="156.5332"/><rect fill="#FFFFFF" height="31.291" style="stroke:#181818;stroke-width:1.0;" width="10" x="269.25" y="236.4063"/><rect fill="#FFFFFF" height="31.291" style="stroke:#181818;stroke-width:1.0;" width="10" x="269.25" y="298.9883"/><rect fill="#FFFFFF" height="31.291" style="stroke:#181818;stroke-width:1.0;" width="10" x="269.25" y="361.5703"/><polygon fill="#181818" points="257.25,152.5332,267.25,156.5332,257.25,160.5332,261.25,156.5332" style="stroke:#181818;stroke-width:1.0;"/><line style="stroke:#181818;stroke-width:1.0;" x1="79.25" x2="263.25" y1="156.5332" y2="156.5332"/><text fill="#000000" font-family="sans-serif" font-size="13" font-weight="bold" lengthAdjust="spacing" textLength="7" x="86.25" y="151.2705">1</text><text fill="#000000" font-family="sans-serif" font-size="13" lengthAdjust="spacing" textLength="152" x="97.25" y="151.2705">asks to edit a job Opening</text><polygon fill="#181818" points="90.25,201.1152,80.25,205.1152,90.25,209.1152,86.25,205.1152" style="stroke:#181818;stroke-width:1.0;"/><line style="stroke:#181818;stroke-width:1.0;stroke-dasharray:2.0,2.0;" x1="84.25" x2="273.25" y1="205.1152" y2="205.1152"/><text fill="#000000" font-family="sans-serif" font-size="13" font-weight="bold" lengthAdjust="spacing" textLength="7" x="96.25" y="191.207">2</text><text fill="#000000" font-family="sans-serif" font-size="13" lengthAdjust="spacing" textLength="142" x="107.25" y="182.5615">shows job Openings and</text><text fill="#000000" font-family="sans-serif" font-size="13" lengthAdjust="spacing" textLength="107" x="111.25" y="199.8525">asks to select one</text><polygon fill="#181818" points="257.25,232.4063,267.25,236.4063,257.25,240.4063,261.25,236.4063" style="stroke:#181818;stroke-width:1.0;"/><line style="stroke:#181818;stroke-width:1.0;" x1="79.25" x2="263.25" y1="236.4063" y2="236.4063"/><text fill="#000000" font-family="sans-serif" font-size="13" font-weight="bold" lengthAdjust="spacing" textLength="7" x="86.25" y="231.1436">3</text><text fill="#000000" font-family="sans-serif" font-size="13" lengthAdjust="spacing" textLength="126" x="97.25" y="231.1436">selects a job Opening</text><polygon fill="#181818" points="90.25,263.6973,80.25,267.6973,90.25,271.6973,86.25,267.6973" style="stroke:#181818;stroke-width:1.0;"/><line style="stroke:#181818;stroke-width:1.0;stroke-dasharray:2.0,2.0;" x1="84.25" x2="273.25" y1="267.6973" y2="267.6973"/><text fill="#000000" font-family="sans-serif" font-size="13" font-weight="bold" lengthAdjust="spacing" textLength="7" x="96.25" y="262.4346">4</text><text fill="#000000" font-family="sans-serif" font-size="13" lengthAdjust="spacing" textLength="144" x="107.25" y="262.4346">shows editable attributes</text><polygon fill="#181818" points="257.25,294.9883,267.25,298.9883,257.25,302.9883,261.25,298.9883" style="stroke:#181818;stroke-width:1.0;"/><line style="stroke:#181818;stroke-width:1.0;" x1="79.25" x2="263.25" y1="298.9883" y2="298.9883"/><text fill="#000000" font-family="sans-serif" font-size="13" font-weight="bold" lengthAdjust="spacing" textLength="7" x="86.25" y="293.7256">5</text><text fill="#000000" font-family="sans-serif" font-size="13" lengthAdjust="spacing" textLength="160" x="97.25" y="293.7256">chooses a editable attribute</text><polygon fill="#181818" points="90.25,326.2793,80.25,330.2793,90.25,334.2793,86.25,330.2793" style="stroke:#181818;stroke-width:1.0;"/><line style="stroke:#181818;stroke-width:1.0;stroke-dasharray:2.0,2.0;" x1="84.25" x2="273.25" y1="330.2793" y2="330.2793"/><text fill="#000000" font-family="sans-serif" font-size="13" font-weight="bold" lengthAdjust="spacing" textLength="7" x="96.25" y="325.0166">6</text><text fill="#000000" font-family="sans-serif" font-size="13" lengthAdjust="spacing" textLength="106" x="107.25" y="325.0166">asks for new value</text><polygon fill="#181818" points="257.25,357.5703,267.25,361.5703,257.25,365.5703,261.25,361.5703" style="stroke:#181818;stroke-width:1.0;"/><line style="stroke:#181818;stroke-width:1.0;" x1="79.25" x2="263.25" y1="361.5703" y2="361.5703"/><text fill="#000000" font-family="sans-serif" font-size="13" font-weight="bold" lengthAdjust="spacing" textLength="7" x="86.25" y="356.3076">7</text><text fill="#000000" font-family="sans-serif" font-size="13" lengthAdjust="spacing" textLength="107" x="97.25" y="356.3076">provides new value</text><polygon fill="#181818" points="90.25,388.8613,80.25,392.8613,90.25,396.8613,86.25,392.8613" style="stroke:#181818;stroke-width:1.0;"/><line style="stroke:#181818;stroke-width:1.0;stroke-dasharray:2.0,2.0;" x1="84.25" x2="273.25" y1="392.8613" y2="392.8613"/><text fill="#000000" font-family="sans-serif" font-size="13" font-weight="bold" lengthAdjust="spacing" textLength="7" x="96.25" y="387.5986">8</text><text fill="#000000" font-family="sans-serif" font-size="13" lengthAdjust="spacing" textLength="140" x="107.25" y="387.5986">shows operation sucess</text><!--SRC=[hP4nJyD038Nt_0gh4moLG6Bgm49Nn11rOt4kRdeqiSFPrwh_7YU1gA88KGbFrjsxpy_lT1-vnuGTTC8ITaaw0akP2frlUWnxRAYqKqkGA1XoqvuBT8Ur72CtiCLMgIWicalBanfrKD9x9Wu4wuZD8Byfo_KjB65JmltTtKDHO3RXt5MKl0yc2HPFMSsj97X6zjbf0QYmKLVuI8iXziW6YzKqOxoTsf4G3sWqoGlm6ZfOFdvALgxUAvW0rT40uKqgUEc9VODHFjHC-S8EXrE_TD98NFdcSjJpzmh8DRpoF4AfzSH0c6PqJJ_2lvkSNke_-1lMnCf_1CrIhBAHNcicx4IK1ZENi9drTrzZEbl_QAOZ7B3DLwVJ9pd4sXrT4gw9HdfAQ54OD0VINtFn-W00]--></g></svg>