<?xml version="1.0" encoding="us-ascii" standalone="no"?><svg xmlns="http://www.w3.org/2000/svg" xmlns:xlink="http://www.w3.org/1999/xlink" contentStyleType="text/css" height="881px" preserveAspectRatio="none" style="width:1578px;height:881px;background:#FFFFFF;" version="1.1" viewBox="0 0 1578 881" width="1578px" zoomAndPan="magnify"><defs/><g><text fill="#000000" font-family="sans-serif" font-size="14" font-weight="bold" lengthAdjust="spacing" textLength="233" x="674" y="30.1074">Sequence Diagram (SD) - US 1019</text><rect fill="#FFFFFF" height="655.8203" style="stroke:#181818;stroke-width:1.0;" width="10" x="31.5" y="133.2422"/><rect fill="#FFFFFF" height="623.5293" style="stroke:#181818;stroke-width:1.0;" width="10" x="266.5" y="156.5332"/><rect fill="#FFFFFF" height="485.3652" style="stroke:#181818;stroke-width:1.0;" width="10" x="597.5" y="263.4063"/><rect fill="#FFFFFF" height="31.291" style="stroke:#181818;stroke-width:1.0;" width="10" x="903.5" y="294.6973"/><rect fill="#FFFFFF" height="31.291" style="stroke:#181818;stroke-width:1.0;" width="10" x="1072" y="482.4434"/><rect fill="#FFFFFF" height="109.873" style="stroke:#181818;stroke-width:1.0;" width="10" x="1211.5" y="607.6074"/><rect fill="#FFFFFF" height="14" style="stroke:#181818;stroke-width:1.0;" width="10" x="1530.5" y="665.1895"/><rect fill="none" height="64.582" style="stroke:#000000;stroke-width:1.5;" width="417.5" x="1154.5" y="622.6074"/><line style="stroke:#181818;stroke-width:0.5;stroke-dasharray:5.0,5.0;" x1="36" x2="36" y1="123.2422" y2="798.0625"/><line style="stroke:#181818;stroke-width:0.5;stroke-dasharray:5.0,5.0;" x1="271" x2="271" y1="123.2422" y2="798.0625"/><line style="stroke:#181818;stroke-width:0.5;stroke-dasharray:5.0,5.0;" x1="602" x2="602" y1="123.2422" y2="798.0625"/><line style="stroke:#181818;stroke-width:0.5;stroke-dasharray:5.0,5.0;" x1="908.5" x2="908.5" y1="123.2422" y2="798.0625"/><line style="stroke:#181818;stroke-width:0.5;stroke-dasharray:5.0,5.0;" x1="1076.5" x2="1076.5" y1="123.2422" y2="798.0625"/><line style="stroke:#181818;stroke-width:0.5;stroke-dasharray:5.0,5.0;" x1="1216.5" x2="1216.5" y1="123.2422" y2="798.0625"/><line style="stroke:#181818;stroke-width:0.5;stroke-dasharray:5.0,5.0;" x1="1535" x2="1535" y1="123.2422" y2="798.0625"/><text fill="#000000" font-family="sans-serif" font-size="14" lengthAdjust="spacing" textLength="57" x="5" y="119.7285">Operator</text><ellipse cx="36.5" cy="53.1211" fill="#E3E3E3" rx="8" ry="8" style="stroke:#181818;stroke-width:0.5;"/><path d="M36.5,61.1211 L36.5,88.1211 M23.5,69.1211 L49.5,69.1211 M36.5,88.1211 L23.5,103.1211 M36.5,88.1211 L49.5,103.1211 " fill="none" style="stroke:#181818;stroke-width:0.5;"/><text fill="#000000" font-family="sans-serif" font-size="14" lengthAdjust="spacing" textLength="57" x="5" y="812.1699">Operator</text><ellipse cx="36.5" cy="824.1836" fill="#E3E3E3" rx="8" ry="8" style="stroke:#181818;stroke-width:0.5;"/><path d="M36.5,832.1836 L36.5,859.1836 M23.5,840.1836 L49.5,840.1836 M36.5,859.1836 L23.5,874.1836 M36.5,859.1836 L49.5,874.1836 " fill="none" style="stroke:#181818;stroke-width:0.5;"/><rect fill="#E3E3E3" height="32.6211" rx="2.5" ry="2.5" style="stroke:#181818;stroke-width:0.5;" width="227" x="158" y="89.6211"/><text fill="#000000" font-family="sans-serif" font-size="14" lengthAdjust="spacing" textLength="213" x="165" y="111.7285">UploadRequirementsAnswerFileUI</text><rect fill="#E3E3E3" height="32.6211" rx="2.5" ry="2.5" style="stroke:#181818;stroke-width:0.5;" width="227" x="158" y="797.0625"/><text fill="#000000" font-family="sans-serif" font-size="14" lengthAdjust="spacing" textLength="213" x="165" y="819.1699">UploadRequirementsAnswerFileUI</text><rect fill="#E3E3E3" height="32.6211" rx="2.5" ry="2.5" style="stroke:#181818;stroke-width:0.5;" width="281" x="462" y="89.6211"/><text fill="#000000" font-family="sans-serif" font-size="14" lengthAdjust="spacing" textLength="267" x="469" y="111.7285">:UploadRequirementsAnswerFileController</text><rect fill="#E3E3E3" height="32.6211" rx="2.5" ry="2.5" style="stroke:#181818;stroke-width:0.5;" width="281" x="462" y="797.0625"/><text fill="#000000" font-family="sans-serif" font-size="14" lengthAdjust="spacing" textLength="267" x="469" y="819.1699">:UploadRequirementsAnswerFileController</text><rect fill="#E3E3E3" height="32.6211" rx="2.5" ry="2.5" style="stroke:#181818;stroke-width:0.5;" width="162" x="827.5" y="89.6211"/><text fill="#000000" font-family="sans-serif" font-size="14" lengthAdjust="spacing" textLength="148" x="834.5" y="111.7285">:JobOpeningRepository</text><rect fill="#E3E3E3" height="32.6211" rx="2.5" ry="2.5" style="stroke:#181818;stroke-width:0.5;" width="162" x="827.5" y="797.0625"/><text fill="#000000" font-family="sans-serif" font-size="14" lengthAdjust="spacing" textLength="148" x="834.5" y="819.1699">:JobOpeningRepository</text><rect fill="#E3E3E3" height="32.6211" rx="2.5" ry="2.5" style="stroke:#181818;stroke-width:0.5;" width="155" x="999.5" y="89.6211"/><text fill="#000000" font-family="sans-serif" font-size="14" lengthAdjust="spacing" textLength="141" x="1006.5" y="111.7285">:ApplicationRepository</text><rect fill="#E3E3E3" height="32.6211" rx="2.5" ry="2.5" style="stroke:#181818;stroke-width:0.5;" width="155" x="999.5" y="797.0625"/><text fill="#000000" font-family="sans-serif" font-size="14" lengthAdjust="spacing" textLength="141" x="1006.5" y="819.1699">:ApplicationRepository</text><rect fill="#E3E3E3" height="32.6211" rx="2.5" ry="2.5" style="stroke:#181818;stroke-width:0.5;" width="104" x="1164.5" y="89.6211"/><text fill="#000000" font-family="sans-serif" font-size="14" lengthAdjust="spacing" textLength="90" x="1171.5" y="111.7285">:PluginService</text><rect fill="#E3E3E3" height="32.6211" rx="2.5" ry="2.5" style="stroke:#181818;stroke-width:0.5;" width="104" x="1164.5" y="797.0625"/><text fill="#000000" font-family="sans-serif" font-size="14" lengthAdjust="spacing" textLength="90" x="1171.5" y="819.1699">:PluginService</text><rect fill="#E3E3E3" height="32.6211" rx="2.5" ry="2.5" style="stroke:#181818;stroke-width:0.5;" width="53" x="1509" y="89.6211"/><text fill="#000000" font-family="sans-serif" font-size="14" lengthAdjust="spacing" textLength="39" x="1516" y="111.7285">Plugin</text><rect fill="#E3E3E3" height="32.6211" rx="2.5" ry="2.5" style="stroke:#181818;stroke-width:0.5;" width="53" x="1509" y="797.0625"/><text fill="#000000" font-family="sans-serif" font-size="14" lengthAdjust="spacing" textLength="39" x="1516" y="819.1699">Plugin</text><rect fill="#FFFFFF" height="655.8203" style="stroke:#181818;stroke-width:1.0;" width="10" x="31.5" y="133.2422"/><rect fill="#FFFFFF" height="623.5293" style="stroke:#181818;stroke-width:1.0;" width="10" x="266.5" y="156.5332"/><rect fill="#FFFFFF" height="485.3652" style="stroke:#181818;stroke-width:1.0;" width="10" x="597.5" y="263.4063"/><rect fill="#FFFFFF" height="31.291" style="stroke:#181818;stroke-width:1.0;" width="10" x="903.5" y="294.6973"/><rect fill="#FFFFFF" height="31.291" style="stroke:#181818;stroke-width:1.0;" width="10" x="1072" y="482.4434"/><rect fill="#FFFFFF" height="109.873" style="stroke:#181818;stroke-width:1.0;" width="10" x="1211.5" y="607.6074"/><rect fill="#FFFFFF" height="14" style="stroke:#181818;stroke-width:1.0;" width="10" x="1530.5" y="665.1895"/><polygon fill="#181818" points="254.5,152.5332,264.5,156.5332,254.5,160.5332,258.5,156.5332" style="stroke:#181818;stroke-width:1.0;"/><line style="stroke:#181818;stroke-width:1.0;" x1="41.5" x2="260.5" y1="156.5332" y2="156.5332"/><text fill="#000000" font-family="sans-serif" font-size="13" lengthAdjust="spacing" textLength="38" x="48.5" y="151.2705">show()</text><line style="stroke:#181818;stroke-width:1.0;" x1="276.5" x2="318.5" y1="187.8242" y2="187.8242"/><line style="stroke:#181818;stroke-width:1.0;" x1="318.5" x2="318.5" y1="187.8242" y2="200.8242"/><line style="stroke:#181818;stroke-width:1.0;" x1="277.5" x2="318.5" y1="200.8242" y2="200.8242"/><polygon fill="#181818" points="287.5,196.8242,277.5,200.8242,287.5,204.8242,283.5,200.8242" style="stroke:#181818;stroke-width:1.0;"/><text fill="#000000" font-family="sans-serif" font-size="13" lengthAdjust="spacing" textLength="54" x="283.5" y="182.5615">doShow()</text><polygon fill="#181818" points="590.5,228.1152,600.5,232.1152,590.5,236.1152,594.5,232.1152" style="stroke:#181818;stroke-width:1.0;"/><line style="stroke:#181818;stroke-width:1.0;" x1="276.5" x2="596.5" y1="232.1152" y2="232.1152"/><text fill="#000000" font-family="sans-serif" font-size="13" lengthAdjust="spacing" textLength="44" x="283.5" y="226.8525">create()</text><polygon fill="#181818" points="585.5,259.4063,595.5,263.4063,585.5,267.4063,589.5,263.4063" style="stroke:#181818;stroke-width:1.0;"/><line style="stroke:#181818;stroke-width:1.0;" x1="276.5" x2="591.5" y1="263.4063" y2="263.4063"/><text fill="#000000" font-family="sans-serif" font-size="13" lengthAdjust="spacing" textLength="277" x="283.5" y="258.1436">allJobOpeningsWithRequirementsSpecification()</text><polygon fill="#181818" points="891.5,290.6973,901.5,294.6973,891.5,298.6973,895.5,294.6973" style="stroke:#181818;stroke-width:1.0;"/><line style="stroke:#181818;stroke-width:1.0;" x1="607.5" x2="897.5" y1="294.6973" y2="294.6973"/><text fill="#000000" font-family="sans-serif" font-size="13" lengthAdjust="spacing" textLength="277" x="614.5" y="289.4346">allJobOpeningsWithRequirementsSpecification()</text><polygon fill="#181818" points="618.5,321.9883,608.5,325.9883,618.5,329.9883,614.5,325.9883" style="stroke:#181818;stroke-width:1.0;"/><line style="stroke:#181818;stroke-width:1.0;stroke-dasharray:2.0,2.0;" x1="612.5" x2="907.5" y1="325.9883" y2="325.9883"/><text fill="#000000" font-family="sans-serif" font-size="13" lengthAdjust="spacing" textLength="72" x="624.5" y="320.7256">jobOpenings</text><polygon fill="#181818" points="287.5,353.2793,277.5,357.2793,287.5,361.2793,283.5,357.2793" style="stroke:#181818;stroke-width:1.0;"/><line style="stroke:#181818;stroke-width:1.0;stroke-dasharray:2.0,2.0;" x1="281.5" x2="596.5" y1="357.2793" y2="357.2793"/><text fill="#000000" font-family="sans-serif" font-size="13" lengthAdjust="spacing" textLength="72" x="293.5" y="352.0166">jobOpenings</text><polygon fill="#181818" points="52.5,384.5703,42.5,388.5703,52.5,392.5703,48.5,388.5703" style="stroke:#181818;stroke-width:1.0;"/><line style="stroke:#181818;stroke-width:1.0;stroke-dasharray:2.0,2.0;" x1="46.5" x2="265.5" y1="388.5703" y2="388.5703"/><text fill="#000000" font-family="sans-serif" font-size="13" lengthAdjust="spacing" textLength="201" x="58.5" y="383.3076">shows list of jobOpenings available</text><polygon fill="#181818" points="254.5,415.8613,264.5,419.8613,254.5,423.8613,258.5,419.8613" style="stroke:#181818;stroke-width:1.0;"/><line style="stroke:#181818;stroke-width:1.0;stroke-dasharray:2.0,2.0;" x1="41.5" x2="260.5" y1="419.8613" y2="419.8613"/><text fill="#000000" font-family="sans-serif" font-size="13" lengthAdjust="spacing" textLength="195" x="48.5" y="414.5986">selects jobOpenings (jobOpening)</text><polygon fill="#181818" points="585.5,447.1523,595.5,451.1523,585.5,455.1523,589.5,451.1523" style="stroke:#181818;stroke-width:1.0;"/><line style="stroke:#181818;stroke-width:1.0;stroke-dasharray:2.0,2.0;" x1="276.5" x2="591.5" y1="451.1523" y2="451.1523"/><text fill="#000000" font-family="sans-serif" font-size="13" lengthAdjust="spacing" textLength="223" x="283.5" y="445.8896">applicationsOfJobOpening(jobOpening)</text><polygon fill="#181818" points="1060,478.4434,1070,482.4434,1060,486.4434,1064,482.4434" style="stroke:#181818;stroke-width:1.0;"/><line style="stroke:#181818;stroke-width:1.0;stroke-dasharray:2.0,2.0;" x1="607.5" x2="1066" y1="482.4434" y2="482.4434"/><text fill="#000000" font-family="sans-serif" font-size="13" lengthAdjust="spacing" textLength="223" x="614.5" y="477.1807">applicationsOfJobOpening(jobOpening)</text><polygon fill="#181818" points="618.5,509.7344,608.5,513.7344,618.5,517.7344,614.5,513.7344" style="stroke:#181818;stroke-width:1.0;"/><line style="stroke:#181818;stroke-width:1.0;stroke-dasharray:2.0,2.0;" x1="612.5" x2="1076" y1="513.7344" y2="513.7344"/><text fill="#000000" font-family="sans-serif" font-size="13" lengthAdjust="spacing" textLength="104" x="624.5" y="508.4717">list of applications</text><polygon fill="#181818" points="287.5,541.0254,277.5,545.0254,287.5,549.0254,283.5,545.0254" style="stroke:#181818;stroke-width:1.0;"/><line style="stroke:#181818;stroke-width:1.0;stroke-dasharray:2.0,2.0;" x1="281.5" x2="596.5" y1="545.0254" y2="545.0254"/><text fill="#000000" font-family="sans-serif" font-size="13" lengthAdjust="spacing" textLength="104" x="293.5" y="539.7627">list of applications</text><polygon fill="#181818" points="585.5,572.3164,595.5,576.3164,585.5,580.3164,589.5,576.3164" style="stroke:#181818;stroke-width:1.0;"/><line style="stroke:#181818;stroke-width:1.0;stroke-dasharray:2.0,2.0;" x1="276.5" x2="591.5" y1="576.3164" y2="576.3164"/><text fill="#000000" font-family="sans-serif" font-size="13" lengthAdjust="spacing" textLength="297" x="283.5" y="571.0537">checkFiles(requirementsSpecification ,applications)</text><polygon fill="#181818" points="1199.5,603.6074,1209.5,607.6074,1199.5,611.6074,1203.5,607.6074" style="stroke:#181818;stroke-width:1.0;"/><line style="stroke:#181818;stroke-width:1.0;stroke-dasharray:2.0,2.0;" x1="607.5" x2="1205.5" y1="607.6074" y2="607.6074"/><text fill="#000000" font-family="sans-serif" font-size="13" lengthAdjust="spacing" textLength="262" x="614.5" y="602.3447">checkRequirementsFiles(plugin, applications)</text><path d="M1154.5,622.6074 L1227.5,622.6074 L1227.5,631.8984 L1217.5,641.8984 L1154.5,641.8984 L1154.5,622.6074 " fill="#EEEEEE" style="stroke:#000000;stroke-width:1.5;"/><rect fill="none" height="64.582" style="stroke:#000000;stroke-width:1.5;" width="417.5" x="1154.5" y="622.6074"/><text fill="#000000" font-family="sans-serif" font-size="13" font-weight="bold" lengthAdjust="spacing" textLength="28" x="1169.5" y="637.6357">loop</text><text fill="#000000" font-family="sans-serif" font-size="11" font-weight="bold" lengthAdjust="spacing" textLength="119" x="1242.5" y="636.4775">[For each Application]</text><polygon fill="#181818" points="1518.5,661.1895,1528.5,665.1895,1518.5,669.1895,1522.5,665.1895" style="stroke:#181818;stroke-width:1.0;"/><line style="stroke:#181818;stroke-width:1.0;stroke-dasharray:2.0,2.0;" x1="1221.5" x2="1524.5" y1="665.1895" y2="665.1895"/><text fill="#000000" font-family="sans-serif" font-size="13" lengthAdjust="spacing" textLength="290" x="1228.5" y="659.9268">checkRequirementFile(pathApplicationAnswerFile)</text><polygon fill="#181818" points="1232.5,675.1895,1222.5,679.1895,1232.5,683.1895,1228.5,679.1895" style="stroke:#181818;stroke-width:1.0;"/><line style="stroke:#181818;stroke-width:1.0;stroke-dasharray:2.0,2.0;" x1="1226.5" x2="1534.5" y1="679.1895" y2="679.1895"/><polygon fill="#181818" points="618.5,713.4805,608.5,717.4805,618.5,721.4805,614.5,717.4805" style="stroke:#181818;stroke-width:1.0;"/><line style="stroke:#181818;stroke-width:1.0;stroke-dasharray:2.0,2.0;" x1="612.5" x2="1215.5" y1="717.4805" y2="717.4805"/><text fill="#000000" font-family="sans-serif" font-size="13" lengthAdjust="spacing" textLength="108" x="624.5" y="712.2178">invalid applications</text><polygon fill="#181818" points="287.5,744.7715,277.5,748.7715,287.5,752.7715,283.5,748.7715" style="stroke:#181818;stroke-width:1.0;"/><line style="stroke:#181818;stroke-width:1.0;stroke-dasharray:2.0,2.0;" x1="281.5" x2="601.5" y1="748.7715" y2="748.7715"/><text fill="#000000" font-family="sans-serif" font-size="13" lengthAdjust="spacing" textLength="108" x="293.5" y="743.5088">invalid applications</text><polygon fill="#181818" points="52.5,776.0625,42.5,780.0625,52.5,784.0625,48.5,780.0625" style="stroke:#181818;stroke-width:1.0;"/><line style="stroke:#181818;stroke-width:1.0;stroke-dasharray:2.0,2.0;" x1="46.5" x2="270.5" y1="780.0625" y2="780.0625"/><text fill="#000000" font-family="sans-serif" font-size="13" lengthAdjust="spacing" textLength="149" x="58.5" y="774.7998">shows invalid applications</text><!--SRC=[dLJ1Rjim3BthAuYS4g01rkDw652iA91UMjG8TcPbnjQYI9ga9EZVZxOSMtRSTjZ5iCtt7ib7KM6lZ4EF1pXOOsNjxO4W-YE9q4SSoZrMLCHtJU19HZILpW6XnjAUbQbWXpgG4555XXRqvqX64Zmeh1hSidXOmHgs1Tn-k_qk1CfeFIoU7NdajmLWW6qWBrWsAgaScWYBhTCMorSMKvuEP6AuD-5C_b5fscuIQJEct7t6-MbDz5PhIWc7pud6attZoWotzKhE1iKLlhSC3l2V2VhUEQqaHcND1CwHQ_YBFbRA5EHFIb8BUz75IOvH2TH5czVMCdN2ICadqJnX_OCDW3iUWpqlLpbc8pXm2PUsw03fvz0u1wKdPdmGHAq7Cy8l5UlSsSAHLBkkTrReqsVEYaoFrPE3_w_SJK1qEkjfmRy7JL7I5Iqlvk9EJcazQ0AXLMjy3Q1LY61tEH3mX4hZ6oz3Dub-5AHvJy88l1m-LdsAl6mSZb1utWs-Z8dJwjFnQhpy5thlHNSgHKU_il3IRgwQUtdXpvevIvvh6MHDSjziPLZwZoOFDxdEwYfbkpaNhVpy95tNhiuDZ4NwHjBU2MsjWqU-ZhZ56h9j5aa-9MgKPZ8rYPOEOvtnXWjdb2ojSQVKLozoQpiGcL9aoKUsAND2hSg9mIEDLdLkEBFSZ9gjxTmUV4NdI-Sl]--></g></svg>