<?xml version="1.0" encoding="us-ascii" standalone="no"?><svg xmlns="http://www.w3.org/2000/svg" xmlns:xlink="http://www.w3.org/1999/xlink" contentStyleType="text/css" height="740px" preserveAspectRatio="none" style="width:1136px;height:740px;background:#FFFFFF;" version="1.1" viewBox="0 0 1136 740" width="1136px" zoomAndPan="magnify"><defs/><g><text fill="#000000" font-family="sans-serif" font-size="14" font-weight="bold" lengthAdjust="spacing" textLength="242" x="446" y="30.1074">Sequence Diagram (SD) - US 2000b</text><rect fill="#FFFFFF" height="514.6563" style="stroke:#181818;stroke-width:1.0;" width="10" x="31.5" y="133.2422"/><rect fill="#FFFFFF" height="452.0742" style="stroke:#181818;stroke-width:1.0;" width="10" x="274.5" y="195.8242"/><rect fill="#FFFFFF" height="93.873" style="stroke:#181818;stroke-width:1.0;" width="10" x="452.5" y="263.4063"/><rect fill="#FFFFFF" height="156.4551" style="stroke:#181818;stroke-width:1.0;" width="10" x="452.5" y="451.1523"/><rect fill="#FFFFFF" height="93.873" style="stroke:#181818;stroke-width:1.0;" width="10" x="648" y="482.4434"/><rect fill="#FFFFFF" height="31.291" style="stroke:#181818;stroke-width:1.0;" width="10" x="821.5" y="294.6973"/><line style="stroke:#181818;stroke-width:0.5;stroke-dasharray:5.0,5.0;" x1="36" x2="36" y1="123.2422" y2="656.8984"/><line style="stroke:#181818;stroke-width:0.5;stroke-dasharray:5.0,5.0;" x1="279" x2="279" y1="123.2422" y2="656.8984"/><line style="stroke:#181818;stroke-width:0.5;stroke-dasharray:5.0,5.0;" x1="457" x2="457" y1="123.2422" y2="656.8984"/><line style="stroke:#181818;stroke-width:0.5;stroke-dasharray:5.0,5.0;" x1="653" x2="653" y1="123.2422" y2="656.8984"/><line style="stroke:#181818;stroke-width:0.5;stroke-dasharray:5.0,5.0;" x1="826" x2="826" y1="123.2422" y2="656.8984"/><line style="stroke:#181818;stroke-width:0.5;stroke-dasharray:5.0,5.0;" x1="969" x2="969" y1="123.2422" y2="656.8984"/><line style="stroke:#181818;stroke-width:0.5;stroke-dasharray:5.0,5.0;" x1="1083" x2="1083" y1="123.2422" y2="656.8984"/><text fill="#000000" font-family="sans-serif" font-size="14" lengthAdjust="spacing" textLength="57" x="5" y="119.7285">Operator</text><ellipse cx="36.5" cy="53.1211" fill="#E3E3E3" rx="8" ry="8" style="stroke:#181818;stroke-width:0.5;"/><path d="M36.5,61.1211 L36.5,88.1211 M23.5,69.1211 L49.5,69.1211 M36.5,88.1211 L23.5,103.1211 M36.5,88.1211 L49.5,103.1211 " fill="none" style="stroke:#181818;stroke-width:0.5;"/><text fill="#000000" font-family="sans-serif" font-size="14" lengthAdjust="spacing" textLength="57" x="5" y="671.0059">Operator</text><ellipse cx="36.5" cy="683.0195" fill="#E3E3E3" rx="8" ry="8" style="stroke:#181818;stroke-width:0.5;"/><path d="M36.5,691.0195 L36.5,718.0195 M23.5,699.0195 L49.5,699.0195 M36.5,718.0195 L23.5,733.0195 M36.5,718.0195 L49.5,733.0195 " fill="none" style="stroke:#181818;stroke-width:0.5;"/><rect fill="#E3E3E3" height="32.6211" rx="2.5" ry="2.5" style="stroke:#181818;stroke-width:0.5;" width="141" x="209" y="89.6211"/><text fill="#000000" font-family="sans-serif" font-size="14" lengthAdjust="spacing" textLength="127" x="216" y="111.7285">ActivateCandidateUI</text><rect fill="#E3E3E3" height="32.6211" rx="2.5" ry="2.5" style="stroke:#181818;stroke-width:0.5;" width="141" x="209" y="655.8984"/><text fill="#000000" font-family="sans-serif" font-size="14" lengthAdjust="spacing" textLength="127" x="216" y="678.0059">ActivateCandidateUI</text><rect fill="#E3E3E3" height="32.6211" rx="2.5" ry="2.5" style="stroke:#181818;stroke-width:0.5;" width="195" x="360" y="89.6211"/><text fill="#000000" font-family="sans-serif" font-size="14" lengthAdjust="spacing" textLength="181" x="367" y="111.7285">:ActivateCandidateController</text><rect fill="#E3E3E3" height="32.6211" rx="2.5" ry="2.5" style="stroke:#181818;stroke-width:0.5;" width="195" x="360" y="655.8984"/><text fill="#000000" font-family="sans-serif" font-size="14" lengthAdjust="spacing" textLength="181" x="367" y="678.0059">:ActivateCandidateController</text><rect fill="#E3E3E3" height="32.6211" rx="2.5" ry="2.5" style="stroke:#181818;stroke-width:0.5;" width="176" x="565" y="89.6211"/><text fill="#000000" font-family="sans-serif" font-size="14" lengthAdjust="spacing" textLength="162" x="572" y="111.7285">:UserManagementService</text><rect fill="#E3E3E3" height="32.6211" rx="2.5" ry="2.5" style="stroke:#181818;stroke-width:0.5;" width="176" x="565" y="655.8984"/><text fill="#000000" font-family="sans-serif" font-size="14" lengthAdjust="spacing" textLength="162" x="572" y="678.0059">:UserManagementService</text><rect fill="#E3E3E3" height="32.6211" rx="2.5" ry="2.5" style="stroke:#181818;stroke-width:0.5;" width="151" x="751" y="89.6211"/><text fill="#000000" font-family="sans-serif" font-size="14" lengthAdjust="spacing" textLength="137" x="758" y="111.7285">:CandidateRepository</text><rect fill="#E3E3E3" height="32.6211" rx="2.5" ry="2.5" style="stroke:#181818;stroke-width:0.5;" width="151" x="751" y="655.8984"/><text fill="#000000" font-family="sans-serif" font-size="14" lengthAdjust="spacing" textLength="137" x="758" y="678.0059">:CandidateRepository</text><rect fill="#E3E3E3" height="32.6211" rx="2.5" ry="2.5" style="stroke:#181818;stroke-width:0.5;" width="115" x="912" y="89.6211"/><text fill="#000000" font-family="sans-serif" font-size="14" lengthAdjust="spacing" textLength="101" x="919" y="111.7285">:UserRepository</text><rect fill="#E3E3E3" height="32.6211" rx="2.5" ry="2.5" style="stroke:#181818;stroke-width:0.5;" width="115" x="912" y="655.8984"/><text fill="#000000" font-family="sans-serif" font-size="14" lengthAdjust="spacing" textLength="101" x="919" y="678.0059">:UserRepository</text><rect fill="#E3E3E3" height="32.6211" rx="2.5" ry="2.5" style="stroke:#181818;stroke-width:0.5;" width="93" x="1037" y="89.6211"/><text fill="#000000" font-family="sans-serif" font-size="14" lengthAdjust="spacing" textLength="79" x="1044" y="111.7285">:SystemUser</text><rect fill="#E3E3E3" height="32.6211" rx="2.5" ry="2.5" style="stroke:#181818;stroke-width:0.5;" width="93" x="1037" y="655.8984"/><text fill="#000000" font-family="sans-serif" font-size="14" lengthAdjust="spacing" textLength="79" x="1044" y="678.0059">:SystemUser</text><rect fill="#FFFFFF" height="514.6563" style="stroke:#181818;stroke-width:1.0;" width="10" x="31.5" y="133.2422"/><rect fill="#FFFFFF" height="452.0742" style="stroke:#181818;stroke-width:1.0;" width="10" x="274.5" y="195.8242"/><rect fill="#FFFFFF" height="93.873" style="stroke:#181818;stroke-width:1.0;" width="10" x="452.5" y="263.4063"/><rect fill="#FFFFFF" height="156.4551" style="stroke:#181818;stroke-width:1.0;" width="10" x="452.5" y="451.1523"/><rect fill="#FFFFFF" height="93.873" style="stroke:#181818;stroke-width:1.0;" width="10" x="648" y="482.4434"/><rect fill="#FFFFFF" height="31.291" style="stroke:#181818;stroke-width:1.0;" width="10" x="821.5" y="294.6973"/><polygon fill="#181818" points="267.5,152.5332,277.5,156.5332,267.5,160.5332,271.5,156.5332" style="stroke:#181818;stroke-width:1.0;"/><line style="stroke:#181818;stroke-width:1.0;" x1="41.5" x2="273.5" y1="156.5332" y2="156.5332"/><text fill="#000000" font-family="sans-serif" font-size="13" lengthAdjust="spacing" textLength="38" x="48.5" y="151.2705">show()</text><line style="stroke:#181818;stroke-width:1.0;stroke-dasharray:2.0,2.0;" x1="279.5" x2="326.5" y1="182.8242" y2="182.8242"/><line style="stroke:#181818;stroke-width:1.0;stroke-dasharray:2.0,2.0;" x1="326.5" x2="326.5" y1="182.8242" y2="195.8242"/><line style="stroke:#181818;stroke-width:1.0;stroke-dasharray:2.0,2.0;" x1="285.5" x2="326.5" y1="195.8242" y2="195.8242"/><polygon fill="#181818" points="295.5,191.8242,285.5,195.8242,295.5,199.8242,291.5,195.8242" style="stroke:#181818;stroke-width:1.0;"/><text fill="#000000" font-family="sans-serif" font-size="13" lengthAdjust="spacing" textLength="54" x="291.5" y="177.5615">doShow()</text><polygon fill="#181818" points="445.5,228.1152,455.5,232.1152,445.5,236.1152,449.5,232.1152" style="stroke:#181818;stroke-width:1.0;"/><line style="stroke:#181818;stroke-width:1.0;stroke-dasharray:2.0,2.0;" x1="284.5" x2="451.5" y1="232.1152" y2="232.1152"/><text fill="#000000" font-family="sans-serif" font-size="13" lengthAdjust="spacing" textLength="44" x="291.5" y="226.8525">create()</text><polygon fill="#181818" points="440.5,259.4063,450.5,263.4063,440.5,267.4063,444.5,263.4063" style="stroke:#181818;stroke-width:1.0;"/><line style="stroke:#181818;stroke-width:1.0;" x1="284.5" x2="446.5" y1="263.4063" y2="263.4063"/><text fill="#000000" font-family="sans-serif" font-size="13" lengthAdjust="spacing" textLength="122" x="291.5" y="258.1436">allDeactivatedUsers()</text><polygon fill="#181818" points="809.5,290.6973,819.5,294.6973,809.5,298.6973,813.5,294.6973" style="stroke:#181818;stroke-width:1.0;"/><line style="stroke:#181818;stroke-width:1.0;" x1="462.5" x2="815.5" y1="294.6973" y2="294.6973"/><text fill="#000000" font-family="sans-serif" font-size="13" lengthAdjust="spacing" textLength="110" x="469.5" y="289.4346">findAllDeactivated()</text><polygon fill="#181818" points="473.5,321.9883,463.5,325.9883,473.5,329.9883,469.5,325.9883" style="stroke:#181818;stroke-width:1.0;"/><line style="stroke:#181818;stroke-width:1.0;stroke-dasharray:2.0,2.0;" x1="467.5" x2="825.5" y1="325.9883" y2="325.9883"/><text fill="#000000" font-family="sans-serif" font-size="13" lengthAdjust="spacing" textLength="144" x="479.5" y="320.7256">deactivatedCandidateList</text><polygon fill="#181818" points="295.5,353.2793,285.5,357.2793,295.5,361.2793,291.5,357.2793" style="stroke:#181818;stroke-width:1.0;"/><line style="stroke:#181818;stroke-width:1.0;stroke-dasharray:2.0,2.0;" x1="289.5" x2="456.5" y1="357.2793" y2="357.2793"/><text fill="#000000" font-family="sans-serif" font-size="13" lengthAdjust="spacing" textLength="144" x="301.5" y="352.0166">deactivatedCandidateList</text><polygon fill="#181818" points="52.5,384.5703,42.5,388.5703,52.5,392.5703,48.5,388.5703" style="stroke:#181818;stroke-width:1.0;"/><line style="stroke:#181818;stroke-width:1.0;stroke-dasharray:2.0,2.0;" x1="46.5" x2="273.5" y1="388.5703" y2="388.5703"/><text fill="#000000" font-family="sans-serif" font-size="13" lengthAdjust="spacing" textLength="209" x="58.5" y="383.3076">show List of Deactivated Candidates</text><polygon fill="#181818" points="262.5,415.8613,272.5,419.8613,262.5,423.8613,266.5,419.8613" style="stroke:#181818;stroke-width:1.0;"/><line style="stroke:#181818;stroke-width:1.0;" x1="41.5" x2="268.5" y1="419.8613" y2="419.8613"/><text fill="#000000" font-family="sans-serif" font-size="13" lengthAdjust="spacing" textLength="102" x="48.5" y="414.5986">selects candidate</text><polygon fill="#181818" points="440.5,447.1523,450.5,451.1523,440.5,455.1523,444.5,451.1523" style="stroke:#181818;stroke-width:1.0;"/><line style="stroke:#181818;stroke-width:1.0;" x1="284.5" x2="446.5" y1="451.1523" y2="451.1523"/><text fill="#000000" font-family="sans-serif" font-size="13" lengthAdjust="spacing" textLength="135" x="291.5" y="445.8896">activateCandidate(user)</text><polygon fill="#181818" points="636,478.4434,646,482.4434,636,486.4434,640,482.4434" style="stroke:#181818;stroke-width:1.0;"/><line style="stroke:#181818;stroke-width:1.0;" x1="462.5" x2="642" y1="482.4434" y2="482.4434"/><text fill="#000000" font-family="sans-serif" font-size="13" lengthAdjust="spacing" textLength="104" x="469.5" y="477.1807">activateUser(user)</text><polygon fill="#181818" points="1071.5,509.7344,1081.5,513.7344,1071.5,517.7344,1075.5,513.7344" style="stroke:#181818;stroke-width:1.0;"/><line style="stroke:#181818;stroke-width:1.0;" x1="658" x2="1077.5" y1="513.7344" y2="513.7344"/><text fill="#000000" font-family="sans-serif" font-size="13" lengthAdjust="spacing" textLength="66" x="665" y="508.4717">deactivate()</text><polygon fill="#181818" points="957.5,541.0254,967.5,545.0254,957.5,549.0254,961.5,545.0254" style="stroke:#181818;stroke-width:1.0;"/><line style="stroke:#181818;stroke-width:1.0;" x1="658" x2="963.5" y1="545.0254" y2="545.0254"/><text fill="#000000" font-family="sans-serif" font-size="13" lengthAdjust="spacing" textLength="59" x="665" y="539.7627">save(user)</text><polygon fill="#181818" points="473.5,572.3164,463.5,576.3164,473.5,580.3164,469.5,576.3164" style="stroke:#181818;stroke-width:1.0;"/><line style="stroke:#181818;stroke-width:1.0;stroke-dasharray:2.0,2.0;" x1="467.5" x2="652" y1="576.3164" y2="576.3164"/><text fill="#000000" font-family="sans-serif" font-size="13" lengthAdjust="spacing" textLength="25" x="479.5" y="571.0537">user</text><polygon fill="#181818" points="295.5,603.6074,285.5,607.6074,295.5,611.6074,291.5,607.6074" style="stroke:#181818;stroke-width:1.0;"/><line style="stroke:#181818;stroke-width:1.0;stroke-dasharray:2.0,2.0;" x1="289.5" x2="456.5" y1="607.6074" y2="607.6074"/><text fill="#000000" font-family="sans-serif" font-size="13" lengthAdjust="spacing" textLength="25" x="301.5" y="602.3447">user</text><polygon fill="#181818" points="52.5,634.8984,42.5,638.8984,52.5,642.8984,48.5,638.8984" style="stroke:#181818;stroke-width:1.0;"/><line style="stroke:#181818;stroke-width:1.0;stroke-dasharray:2.0,2.0;" x1="46.5" x2="273.5" y1="638.8984" y2="638.8984"/><text fill="#000000" font-family="sans-serif" font-size="13" lengthAdjust="spacing" textLength="147" x="58.5" y="633.6357">shows operation success</text><!--SRC=[bLJBJiCm4BpdArOzjOTA5KSEI1MzL08X4UK35cTRB18xUDsY_Zrhktas2CZ9pSwCPsUtuGzj6dHOGssDLU_ErWJUdIZZhjAW-i0ZvVvI4JXI7isn6WBu7KlxfSqH3bWnPPdNNg0vVPx8A8ATncF0BVFT2jPGv72tsMpUCdbGUUjWyTAGGpaj01aA9fU9ijTADsWyBBRAwpDwUaHJwb8EnJuXzsFS_GtmqHhlR5LHakv_JeZXpcSqqcPDnkVapbfHf5pFudNCwAvufSQo5lENT0KQUJCZFy4LV0lBB-of3k1qzOKBJY75hb8o6SWJJh1-a0JWNlAtNyjLbYgnkeTrMonjdigXq2ljhpe9sUSY3EL8846mHKm0M5KxQgNAO8Md-eEWOs703sen8r4wQ5DkHsetGYdE999eDuRBdjvDvKcpZwI-EDOQ6EgY-glEfBasRevkmZGWqC0UOD0PT9eyDqEgv9_5e5hGp-bFTtnv4g5_vN_TwO5Oy3Adqsr_UDlIWa9OpL5axRuCG775GszuRasE8TFM0cOQziZ1tDJcIBzFYC76Ruws1lYa535dtm00]--></g></svg>