<?xml version="1.0" encoding="us-ascii" standalone="no"?><svg xmlns="http://www.w3.org/2000/svg" xmlns:xlink="http://www.w3.org/1999/xlink" contentStyleType="text/css" height="444px" preserveAspectRatio="none" style="width:677px;height:444px;background:#FFFFFF;" version="1.1" viewBox="0 0 677 444" width="677.4px" zoomAndPan="magnify"><defs/><g><text fill="#000000" font-family="sans-serif" font-size="8.4" font-weight="bold" lengthAdjust="spacing" textLength="145.2" x="265.65" y="18.0645">Sequence Diagram (SD) - US 2000b</text><rect fill="#FFFFFF" height="308.7938" style="stroke:#181818;stroke-width:0.6;" width="6" x="18.9" y="79.9453"/><rect fill="#FFFFFF" height="271.2445" style="stroke:#181818;stroke-width:0.6;" width="6" x="145.5" y="117.4945"/><rect fill="#FFFFFF" height="56.3238" style="stroke:#181818;stroke-width:0.6;" width="6" x="262.5" y="158.0438"/><rect fill="#FFFFFF" height="93.873" style="stroke:#181818;stroke-width:0.6;" width="6" x="262.5" y="270.6914"/><rect fill="#FFFFFF" height="56.3238" style="stroke:#181818;stroke-width:0.6;" width="6" x="384.9" y="289.466"/><rect fill="#FFFFFF" height="18.7746" style="stroke:#181818;stroke-width:0.6;" width="6" x="489" y="176.8184"/><line style="stroke:#181818;stroke-width:0.3;stroke-dasharray:5.0,5.0;" x1="21.6" x2="21.6" y1="73.9453" y2="394.1391"/><line style="stroke:#181818;stroke-width:0.3;stroke-dasharray:5.0,5.0;" x1="148.5" x2="148.5" y1="73.9453" y2="394.1391"/><line style="stroke:#181818;stroke-width:0.3;stroke-dasharray:5.0,5.0;" x1="265.5" x2="265.5" y1="73.9453" y2="394.1391"/><line style="stroke:#181818;stroke-width:0.3;stroke-dasharray:5.0,5.0;" x1="387.9" x2="387.9" y1="73.9453" y2="394.1391"/><line style="stroke:#181818;stroke-width:0.3;stroke-dasharray:5.0,5.0;" x1="491.7" x2="491.7" y1="73.9453" y2="394.1391"/><line style="stroke:#181818;stroke-width:0.3;stroke-dasharray:5.0,5.0;" x1="577.5" x2="577.5" y1="73.9453" y2="394.1391"/><line style="stroke:#181818;stroke-width:0.3;stroke-dasharray:5.0,5.0;" x1="645.9" x2="645.9" y1="73.9453" y2="394.1391"/><text fill="#000000" font-family="sans-serif" font-size="8.4" lengthAdjust="spacing" textLength="34.2" x="3" y="71.8371">Operator</text><ellipse cx="21.9" cy="31.8727" fill="#E3E3E3" rx="4.8" ry="4.8" style="stroke:#181818;stroke-width:0.3;"/><path d="M21.9,36.6727 L21.9,52.8727 M14.1,41.4727 L29.7,41.4727 M21.9,52.8727 L14.1,61.8727 M21.9,52.8727 L29.7,61.8727 " fill="none" style="stroke:#181818;stroke-width:0.3;"/><text fill="#000000" font-family="sans-serif" font-size="8.4" lengthAdjust="spacing" textLength="34.2" x="3" y="402.6035">Operator</text><ellipse cx="21.9" cy="409.8117" fill="#E3E3E3" rx="4.8" ry="4.8" style="stroke:#181818;stroke-width:0.3;"/><path d="M21.9,414.6117 L21.9,430.8117 M14.1,419.4117 L29.7,419.4117 M21.9,430.8117 L14.1,439.8117 M21.9,430.8117 L29.7,439.8117 " fill="none" style="stroke:#181818;stroke-width:0.3;"/><rect fill="#E3E3E3" height="19.5727" rx="1.5" ry="1.5" style="stroke:#181818;stroke-width:0.3;" width="94.8" x="101.1" y="53.7727"/><text fill="#000000" font-family="sans-serif" font-size="8.4" lengthAdjust="spacing" textLength="86.4" x="105.3" y="67.0371">DeactivateCandidateUI</text><rect fill="#E3E3E3" height="19.5727" rx="1.5" ry="1.5" style="stroke:#181818;stroke-width:0.3;" width="94.8" x="101.1" y="393.5391"/><text fill="#000000" font-family="sans-serif" font-size="8.4" lengthAdjust="spacing" textLength="86.4" x="105.3" y="406.8035">DeactivateCandidateUI</text><rect fill="#E3E3E3" height="19.5727" rx="1.5" ry="1.5" style="stroke:#181818;stroke-width:0.3;" width="127.2" x="201.9" y="53.7727"/><text fill="#000000" font-family="sans-serif" font-size="8.4" lengthAdjust="spacing" textLength="118.8" x="206.1" y="67.0371">:DeactivateCandidateController</text><rect fill="#E3E3E3" height="19.5727" rx="1.5" ry="1.5" style="stroke:#181818;stroke-width:0.3;" width="127.2" x="201.9" y="393.5391"/><text fill="#000000" font-family="sans-serif" font-size="8.4" lengthAdjust="spacing" textLength="118.8" x="206.1" y="406.8035">:DeactivateCandidateController</text><rect fill="#E3E3E3" height="19.5727" rx="1.5" ry="1.5" style="stroke:#181818;stroke-width:0.3;" width="105.6" x="335.1" y="53.7727"/><text fill="#000000" font-family="sans-serif" font-size="8.4" lengthAdjust="spacing" textLength="97.2" x="339.3" y="67.0371">:UserManagementService</text><rect fill="#E3E3E3" height="19.5727" rx="1.5" ry="1.5" style="stroke:#181818;stroke-width:0.3;" width="105.6" x="335.1" y="393.5391"/><text fill="#000000" font-family="sans-serif" font-size="8.4" lengthAdjust="spacing" textLength="97.2" x="339.3" y="406.8035">:UserManagementService</text><rect fill="#E3E3E3" height="19.5727" rx="1.5" ry="1.5" style="stroke:#181818;stroke-width:0.3;" width="90.6" x="446.7" y="53.7727"/><text fill="#000000" font-family="sans-serif" font-size="8.4" lengthAdjust="spacing" textLength="82.2" x="450.9" y="67.0371">:CandidateRepository</text><rect fill="#E3E3E3" height="19.5727" rx="1.5" ry="1.5" style="stroke:#181818;stroke-width:0.3;" width="90.6" x="446.7" y="393.5391"/><text fill="#000000" font-family="sans-serif" font-size="8.4" lengthAdjust="spacing" textLength="82.2" x="450.9" y="406.8035">:CandidateRepository</text><rect fill="#E3E3E3" height="19.5727" rx="1.5" ry="1.5" style="stroke:#181818;stroke-width:0.3;" width="69" x="543.3" y="53.7727"/><text fill="#000000" font-family="sans-serif" font-size="8.4" lengthAdjust="spacing" textLength="60.6" x="547.5" y="67.0371">:UserRepository</text><rect fill="#E3E3E3" height="19.5727" rx="1.5" ry="1.5" style="stroke:#181818;stroke-width:0.3;" width="69" x="543.3" y="393.5391"/><text fill="#000000" font-family="sans-serif" font-size="8.4" lengthAdjust="spacing" textLength="60.6" x="547.5" y="406.8035">:UserRepository</text><rect fill="#E3E3E3" height="19.5727" rx="1.5" ry="1.5" style="stroke:#181818;stroke-width:0.3;" width="55.8" x="618.3" y="53.7727"/><text fill="#000000" font-family="sans-serif" font-size="8.4" lengthAdjust="spacing" textLength="47.4" x="622.5" y="67.0371">:SystemUser</text><rect fill="#E3E3E3" height="19.5727" rx="1.5" ry="1.5" style="stroke:#181818;stroke-width:0.3;" width="55.8" x="618.3" y="393.5391"/><text fill="#000000" font-family="sans-serif" font-size="8.4" lengthAdjust="spacing" textLength="47.4" x="622.5" y="406.8035">:SystemUser</text><rect fill="#FFFFFF" height="308.7938" style="stroke:#181818;stroke-width:0.6;" width="6" x="18.9" y="79.9453"/><rect fill="#FFFFFF" height="271.2445" style="stroke:#181818;stroke-width:0.6;" width="6" x="145.5" y="117.4945"/><rect fill="#FFFFFF" height="56.3238" style="stroke:#181818;stroke-width:0.6;" width="6" x="262.5" y="158.0438"/><rect fill="#FFFFFF" height="93.873" style="stroke:#181818;stroke-width:0.6;" width="6" x="262.5" y="270.6914"/><rect fill="#FFFFFF" height="56.3238" style="stroke:#181818;stroke-width:0.6;" width="6" x="384.9" y="289.466"/><rect fill="#FFFFFF" height="18.7746" style="stroke:#181818;stroke-width:0.6;" width="6" x="489" y="176.8184"/><polygon fill="#181818" points="141.3,91.5199,147.3,93.9199,141.3,96.3199,143.7,93.9199" style="stroke:#181818;stroke-width:0.6;"/><line style="stroke:#181818;stroke-width:0.6;" x1="24.9" x2="144.9" y1="93.9199" y2="93.9199"/><text fill="#000000" font-family="sans-serif" font-size="7.8" lengthAdjust="spacing" textLength="22.8" x="29.1" y="90.7623">show()</text><line style="stroke:#181818;stroke-width:0.6;stroke-dasharray:2.0,2.0;" x1="148.5" x2="176.7" y1="109.6945" y2="109.6945"/><line style="stroke:#181818;stroke-width:0.6;stroke-dasharray:2.0,2.0;" x1="176.7" x2="176.7" y1="109.6945" y2="117.4945"/><line style="stroke:#181818;stroke-width:0.6;stroke-dasharray:2.0,2.0;" x1="152.1" x2="176.7" y1="117.4945" y2="117.4945"/><polygon fill="#181818" points="158.1,115.0945,152.1,117.4945,158.1,119.8945,155.7,117.4945" style="stroke:#181818;stroke-width:0.6;"/><text fill="#000000" font-family="sans-serif" font-size="7.8" lengthAdjust="spacing" textLength="32.4" x="155.7" y="106.5369">doShow()</text><polygon fill="#181818" points="258.3,136.8691,264.3,139.2691,258.3,141.6691,260.7,139.2691" style="stroke:#181818;stroke-width:0.6;"/><line style="stroke:#181818;stroke-width:0.6;stroke-dasharray:2.0,2.0;" x1="151.5" x2="261.9" y1="139.2691" y2="139.2691"/><text fill="#000000" font-family="sans-serif" font-size="7.8" lengthAdjust="spacing" textLength="26.4" x="155.7" y="136.1115">create()</text><polygon fill="#181818" points="255.3,155.6437,261.3,158.0438,255.3,160.4438,257.7,158.0438" style="stroke:#181818;stroke-width:0.6;"/><line style="stroke:#181818;stroke-width:0.6;" x1="151.5" x2="258.9" y1="158.0438" y2="158.0438"/><text fill="#000000" font-family="sans-serif" font-size="7.8" lengthAdjust="spacing" textLength="54" x="155.7" y="154.8861">allActiveUsers()</text><polygon fill="#181818" points="481.8,174.4184,487.8,176.8184,481.8,179.2184,484.2,176.8184" style="stroke:#181818;stroke-width:0.6;"/><line style="stroke:#181818;stroke-width:0.6;" x1="268.5" x2="485.4" y1="176.8184" y2="176.8184"/><text fill="#000000" font-family="sans-serif" font-size="7.8" lengthAdjust="spacing" textLength="46.8" x="272.7" y="173.6607">findAllActive()</text><polygon fill="#181818" points="275.1,193.193,269.1,195.593,275.1,197.993,272.7,195.593" style="stroke:#181818;stroke-width:0.6;"/><line style="stroke:#181818;stroke-width:0.6;stroke-dasharray:2.0,2.0;" x1="271.5" x2="491.4" y1="195.593" y2="195.593"/><text fill="#000000" font-family="sans-serif" font-size="7.8" lengthAdjust="spacing" textLength="67.2" x="278.7" y="192.4354">activeCandidateList</text><polygon fill="#181818" points="158.1,211.9676,152.1,214.3676,158.1,216.7676,155.7,214.3676" style="stroke:#181818;stroke-width:0.6;"/><line style="stroke:#181818;stroke-width:0.6;stroke-dasharray:2.0,2.0;" x1="154.5" x2="264.9" y1="214.3676" y2="214.3676"/><text fill="#000000" font-family="sans-serif" font-size="7.8" lengthAdjust="spacing" textLength="67.2" x="161.7" y="211.21">activeCandidateList</text><polygon fill="#181818" points="31.5,230.7422,25.5,233.1422,31.5,235.5422,29.1,233.1422" style="stroke:#181818;stroke-width:0.6;"/><line style="stroke:#181818;stroke-width:0.6;stroke-dasharray:2.0,2.0;" x1="27.9" x2="144.9" y1="233.1422" y2="233.1422"/><text fill="#000000" font-family="sans-serif" font-size="7.8" lengthAdjust="spacing" textLength="106.2" x="35.1" y="229.9846">show List of Active Candidates</text><polygon fill="#181818" points="138.3,249.5168,144.3,251.9168,138.3,254.3168,140.7,251.9168" style="stroke:#181818;stroke-width:0.6;"/><line style="stroke:#181818;stroke-width:0.6;" x1="24.9" x2="141.9" y1="251.9168" y2="251.9168"/><text fill="#000000" font-family="sans-serif" font-size="7.8" lengthAdjust="spacing" textLength="61.2" x="29.1" y="248.7592">selects candidate</text><polygon fill="#181818" points="255.3,268.2914,261.3,270.6914,255.3,273.0914,257.7,270.6914" style="stroke:#181818;stroke-width:0.6;"/><line style="stroke:#181818;stroke-width:0.6;" x1="151.5" x2="258.9" y1="270.6914" y2="270.6914"/><text fill="#000000" font-family="sans-serif" font-size="7.8" lengthAdjust="spacing" textLength="89.4" x="155.7" y="267.5338">deactivateCandidate(user)</text><polygon fill="#181818" points="377.7,287.066,383.7,289.466,377.7,291.866,380.1,289.466" style="stroke:#181818;stroke-width:0.6;"/><line style="stroke:#181818;stroke-width:0.6;" x1="268.5" x2="381.3" y1="289.466" y2="289.466"/><text fill="#000000" font-family="sans-serif" font-size="7.8" lengthAdjust="spacing" textLength="70.8" x="272.7" y="286.3084">deactivateUser(user)</text><polygon fill="#181818" points="639,305.8406,645,308.2406,639,310.6406,641.4,308.2406" style="stroke:#181818;stroke-width:0.6;"/><line style="stroke:#181818;stroke-width:0.6;" x1="390.9" x2="642.6" y1="308.2406" y2="308.2406"/><text fill="#000000" font-family="sans-serif" font-size="7.8" lengthAdjust="spacing" textLength="39.6" x="395.1" y="305.083">deactivate()</text><polygon fill="#181818" points="570.6,324.6152,576.6,327.0152,570.6,329.4152,573,327.0152" style="stroke:#181818;stroke-width:0.6;"/><line style="stroke:#181818;stroke-width:0.6;" x1="390.9" x2="574.2" y1="327.0152" y2="327.0152"/><text fill="#000000" font-family="sans-serif" font-size="7.8" lengthAdjust="spacing" textLength="35.4" x="395.1" y="323.8576">save(user)</text><polygon fill="#181818" points="275.1,343.3898,269.1,345.7898,275.1,348.1898,272.7,345.7898" style="stroke:#181818;stroke-width:0.6;"/><line style="stroke:#181818;stroke-width:0.6;stroke-dasharray:2.0,2.0;" x1="271.5" x2="387.3" y1="345.7898" y2="345.7898"/><text fill="#000000" font-family="sans-serif" font-size="7.8" lengthAdjust="spacing" textLength="15" x="278.7" y="342.6322">user</text><polygon fill="#181818" points="158.1,362.1645,152.1,364.5645,158.1,366.9645,155.7,364.5645" style="stroke:#181818;stroke-width:0.6;"/><line style="stroke:#181818;stroke-width:0.6;stroke-dasharray:2.0,2.0;" x1="154.5" x2="264.9" y1="364.5645" y2="364.5645"/><text fill="#000000" font-family="sans-serif" font-size="7.8" lengthAdjust="spacing" textLength="15" x="161.7" y="361.4068">user</text><polygon fill="#181818" points="31.5,380.9391,25.5,383.3391,31.5,385.7391,29.1,383.3391" style="stroke:#181818;stroke-width:0.6;"/><line style="stroke:#181818;stroke-width:0.6;stroke-dasharray:2.0,2.0;" x1="27.9" x2="144.9" y1="383.3391" y2="383.3391"/><text fill="#000000" font-family="sans-serif" font-size="7.8" lengthAdjust="spacing" textLength="88.2" x="35.1" y="380.1814">shows operation success</text><!--SRC=[bPJ1Rjim38RlVWeYf_GG8DYnXm55SmcmOi0CFm0dCwbGM_949KNUVgGK9RRZOPjFYldp4_cJCNzODs307dhll7aFlYU8uKGLto83cWyyKXql7K4W4z4Tkx60tx7rdzOTuO0TKrL56qLQqwyJEKEmitXKtRhUFS46cXg-RBVRdvKyQA8FiFe-K40vhG0P6gPG2JbQOmTq4LOx4fqzOwHNTArjvT3iitO_LJulI5-zYy5t7MNy_USiLUzzGoUjzkHYJU5i3QMKwrdgdMRShlX1WsSh3Lpo5UZapG9-fcluKLPVE5AludprXHlEHgMkiZiLoACds7mL3-1PPk0_rqzLZgJe7ZObsFewXpLm9-sldAoy-o8P9f1855WKCm5stOk2IAlWENhaSGgCKXMKx178mRhsfO0U6Dd4d9yp7ifCulkalrcEIT_ICcPKHl7cNn2pRegrd6fGvq7Jm1yWjm8t72-DYZhv4p6O8lgZoUtZCgzFWleljw_BEy5fFKkaswBhsvAe3Dt22Q6inaYKjbdxmtCfSogPjwUQkTUJ2fRcjPJqzm4n-FI9iTu1dumXvket]--></g></svg>