<?xml version="1.0" encoding="us-ascii" standalone="no"?><svg xmlns="http://www.w3.org/2000/svg" xmlns:xlink="http://www.w3.org/1999/xlink" contentStyleType="text/css" height="691.2px" preserveAspectRatio="none" style="width:664px;height:691px;background:#FFFFFF;" version="1.1" viewBox="0 0 664 691" width="664.8px" zoomAndPan="magnify"><defs/><g><text fill="#000000" font-family="sans-serif" font-size="11.2" font-weight="bold" lengthAdjust="spacing" textLength="186.4" x="241" y="24.0859">Sequence Diagram (SD) - US 1004</text><rect fill="#FFFFFF" height="511.0563" style="stroke:#181818;stroke-width:0.8000000000000002;" width="8" x="49.2" y="106.5938"/><rect fill="#FFFFFF" height="299.5938" style="stroke:#181818;stroke-width:0.8000000000000002;" width="8" x="190" y="125.2266"/><rect fill="#FFFFFF" height="160.5969" style="stroke:#181818;stroke-width:0.8000000000000002;" width="8" x="190" y="449.8531"/><rect fill="#FFFFFF" height="75.0984" style="stroke:#181818;stroke-width:0.8000000000000002;" width="8" x="351.6" y="210.725"/><rect fill="#FFFFFF" height="25.0328" style="stroke:#181818;stroke-width:0.8000000000000002;" width="8" x="351.6" y="374.7547"/><rect fill="#FFFFFF" height="110.5313" style="stroke:#181818;stroke-width:0.8000000000000002;" width="8" x="351.6" y="474.8859"/><rect fill="#FFFFFF" height="25.0328" style="stroke:#181818;stroke-width:0.8000000000000002;" width="8" x="486" y="235.7578"/><rect fill="#FFFFFF" height="60.4656" style="stroke:#181818;stroke-width:0.8000000000000002;" width="8" x="582" y="499.9188"/><line style="stroke:#181818;stroke-width:0.4000000000000001;stroke-dasharray:5.0,5.0;" x1="52.8" x2="52.8" y1="98.5938" y2="624.85"/><line style="stroke:#181818;stroke-width:0.4000000000000001;stroke-dasharray:5.0,5.0;" x1="194" x2="194" y1="98.5938" y2="624.85"/><line style="stroke:#181818;stroke-width:0.4000000000000001;stroke-dasharray:5.0,5.0;" x1="355.6" x2="355.6" y1="98.5938" y2="624.85"/><line style="stroke:#181818;stroke-width:0.4000000000000001;stroke-dasharray:5.0,5.0;" x1="490" x2="490" y1="98.5938" y2="624.85"/><line style="stroke:#181818;stroke-width:0.4000000000000001;stroke-dasharray:5.0,5.0;" x1="586" x2="586" y1="98.5938" y2="624.85"/><text fill="#000000" font-family="sans-serif" font-size="11.2" lengthAdjust="spacing" textLength="93.6" x="4" y="95.7828">CostumerManager</text><ellipse cx="53.2" cy="42.4969" fill="#E3E3E3" rx="6.4" ry="6.4" style="stroke:#181818;stroke-width:0.4000000000000001;"/><path d="M53.2,48.8969 L53.2,70.4969 M42.8,55.2969 L63.6,55.2969 M53.2,70.4969 L42.8,82.4969 M53.2,70.4969 L63.6,82.4969 " fill="none" style="stroke:#181818;stroke-width:0.4000000000000001;"/><text fill="#000000" font-family="sans-serif" font-size="11.2" lengthAdjust="spacing" textLength="93.6" x="4" y="636.1359">CostumerManager</text><ellipse cx="53.2" cy="645.7469" fill="#E3E3E3" rx="6.4" ry="6.4" style="stroke:#181818;stroke-width:0.4000000000000001;"/><path d="M53.2,652.1469 L53.2,673.7469 M42.8,658.5469 L63.6,658.5469 M53.2,673.7469 L42.8,685.7469 M53.2,673.7469 L63.6,685.7469 " fill="none" style="stroke:#181818;stroke-width:0.4000000000000001;"/><rect fill="#E3E3E3" height="26.0969" rx="2" ry="2" style="stroke:#181818;stroke-width:0.4000000000000001;" width="100.8" x="143.6" y="71.6969"/><text fill="#000000" font-family="sans-serif" font-size="11.2" lengthAdjust="spacing" textLength="89.6" x="149.2" y="89.3828">EditJobOpeningUI</text><rect fill="#E3E3E3" height="26.0969" rx="2" ry="2" style="stroke:#181818;stroke-width:0.4000000000000001;" width="100.8" x="143.6" y="624.05"/><text fill="#000000" font-family="sans-serif" font-size="11.2" lengthAdjust="spacing" textLength="89.6" x="149.2" y="641.7359">EditJobOpeningUI</text><rect fill="#E3E3E3" height="26.0969" rx="2" ry="2" style="stroke:#181818;stroke-width:0.4000000000000001;" width="144" x="283.6" y="71.6969"/><text fill="#000000" font-family="sans-serif" font-size="11.2" lengthAdjust="spacing" textLength="132.8" x="289.2" y="89.3828">:EditJobOpeningController</text><rect fill="#E3E3E3" height="26.0969" rx="2" ry="2" style="stroke:#181818;stroke-width:0.4000000000000001;" width="144" x="283.6" y="624.05"/><text fill="#000000" font-family="sans-serif" font-size="11.2" lengthAdjust="spacing" textLength="132.8" x="289.2" y="641.7359">:EditJobOpeningController</text><rect fill="#E3E3E3" height="26.0969" rx="2" ry="2" style="stroke:#181818;stroke-width:0.4000000000000001;" width="104" x="438" y="71.6969"/><text fill="#000000" font-family="sans-serif" font-size="11.2" lengthAdjust="spacing" textLength="92.8" x="443.6" y="89.3828">RepositoryFactory</text><rect fill="#E3E3E3" height="26.0969" rx="2" ry="2" style="stroke:#181818;stroke-width:0.4000000000000001;" width="104" x="438" y="624.05"/><text fill="#000000" font-family="sans-serif" font-size="11.2" lengthAdjust="spacing" textLength="92.8" x="443.6" y="641.7359">RepositoryFactory</text><rect fill="#E3E3E3" height="26.0969" rx="2" ry="2" style="stroke:#181818;stroke-width:0.4000000000000001;" width="72" x="550" y="71.6969"/><text fill="#000000" font-family="sans-serif" font-size="11.2" lengthAdjust="spacing" textLength="60.8" x="555.6" y="89.3828">JobOpening</text><rect fill="#E3E3E3" height="26.0969" rx="2" ry="2" style="stroke:#181818;stroke-width:0.4000000000000001;" width="72" x="550" y="624.05"/><text fill="#000000" font-family="sans-serif" font-size="11.2" lengthAdjust="spacing" textLength="60.8" x="555.6" y="641.7359">JobOpening</text><rect fill="#FFFFFF" height="511.0563" style="stroke:#181818;stroke-width:0.8000000000000002;" width="8" x="49.2" y="106.5938"/><rect fill="#FFFFFF" height="299.5938" style="stroke:#181818;stroke-width:0.8000000000000002;" width="8" x="190" y="125.2266"/><rect fill="#FFFFFF" height="160.5969" style="stroke:#181818;stroke-width:0.8000000000000002;" width="8" x="190" y="449.8531"/><rect fill="#FFFFFF" height="75.0984" style="stroke:#181818;stroke-width:0.8000000000000002;" width="8" x="351.6" y="210.725"/><rect fill="#FFFFFF" height="25.0328" style="stroke:#181818;stroke-width:0.8000000000000002;" width="8" x="351.6" y="374.7547"/><rect fill="#FFFFFF" height="110.5313" style="stroke:#181818;stroke-width:0.8000000000000002;" width="8" x="351.6" y="474.8859"/><rect fill="#FFFFFF" height="25.0328" style="stroke:#181818;stroke-width:0.8000000000000002;" width="8" x="486" y="235.7578"/><rect fill="#FFFFFF" height="60.4656" style="stroke:#181818;stroke-width:0.8000000000000002;" width="8" x="582" y="499.9188"/><polygon fill="#181818" points="180.4,122.0266,188.4,125.2266,180.4,128.4266,183.6,125.2266" style="stroke:#181818;stroke-width:0.8000000000000002;"/><line style="stroke:#181818;stroke-width:0.8000000000000002;" x1="57.2" x2="185.2" y1="125.2266" y2="125.2266"/><text fill="#000000" font-family="sans-serif" font-size="10.4" lengthAdjust="spacing" textLength="30.4" x="62.8" y="121.0164">show()</text><line style="stroke:#181818;stroke-width:0.8000000000000002;" x1="198" x2="231.6" y1="150.2594" y2="150.2594"/><line style="stroke:#181818;stroke-width:0.8000000000000002;" x1="231.6" x2="231.6" y1="150.2594" y2="160.6594"/><line style="stroke:#181818;stroke-width:0.8000000000000002;" x1="198.8" x2="231.6" y1="160.6594" y2="160.6594"/><polygon fill="#181818" points="206.8,157.4594,198.8,160.6594,206.8,163.8594,203.6,160.6594" style="stroke:#181818;stroke-width:0.8000000000000002;"/><text fill="#000000" font-family="sans-serif" font-size="10.4" lengthAdjust="spacing" textLength="43.2" x="203.6" y="146.0492">doShow()</text><polygon fill="#181818" points="346,182.4922,354,185.6922,346,188.8922,349.2,185.6922" style="stroke:#181818;stroke-width:0.8000000000000002;"/><line style="stroke:#181818;stroke-width:0.8000000000000002;" x1="198" x2="350.8" y1="185.6922" y2="185.6922"/><text fill="#000000" font-family="sans-serif" font-size="10.4" lengthAdjust="spacing" textLength="35.2" x="203.6" y="181.482">create()</text><polygon fill="#181818" points="342,207.525,350,210.725,342,213.925,345.2,210.725" style="stroke:#181818;stroke-width:0.8000000000000002;"/><line style="stroke:#181818;stroke-width:0.8000000000000002;" x1="198" x2="346.8" y1="210.725" y2="210.725"/><text fill="#000000" font-family="sans-serif" font-size="10.4" lengthAdjust="spacing" textLength="108" x="203.6" y="206.5148">getListOfJobOpenings()</text><polygon fill="#181818" points="476.4,232.5578,484.4,235.7578,476.4,238.9578,479.6,235.7578" style="stroke:#181818;stroke-width:0.8000000000000002;"/><line style="stroke:#181818;stroke-width:0.8000000000000002;" x1="359.6" x2="481.2" y1="235.7578" y2="235.7578"/><text fill="#000000" font-family="sans-serif" font-size="10.4" lengthAdjust="spacing" textLength="111.2" x="365.2" y="231.5477">jobOpeningByManager()</text><polygon fill="#181818" points="368.4,257.5906,360.4,260.7906,368.4,263.9906,365.2,260.7906" style="stroke:#181818;stroke-width:0.8000000000000002;"/><line style="stroke:#181818;stroke-width:0.8000000000000002;stroke-dasharray:2.0,2.0;" x1="363.6" x2="489.2" y1="260.7906" y2="260.7906"/><text fill="#000000" font-family="sans-serif" font-size="10.4" lengthAdjust="spacing" textLength="57.6" x="373.2" y="256.5805">jobOpenings</text><polygon fill="#181818" points="206.8,282.6234,198.8,285.8234,206.8,289.0234,203.6,285.8234" style="stroke:#181818;stroke-width:0.8000000000000002;"/><line style="stroke:#181818;stroke-width:0.8000000000000002;stroke-dasharray:2.0,2.0;" x1="202" x2="354.8" y1="285.8234" y2="285.8234"/><text fill="#000000" font-family="sans-serif" font-size="10.4" lengthAdjust="spacing" textLength="57.6" x="211.6" y="281.6133">jobOpenings</text><polygon fill="#181818" points="66,321.4891,58,324.6891,66,327.8891,62.8,324.6891" style="stroke:#181818;stroke-width:0.8000000000000002;"/><line style="stroke:#181818;stroke-width:0.8000000000000002;stroke-dasharray:2.0,2.0;" x1="61.2" x2="189.2" y1="324.6891" y2="324.6891"/><text fill="#000000" font-family="sans-serif" font-size="10.4" lengthAdjust="spacing" textLength="110.4" x="70.8" y="306.6461">shows jobOpenings and</text><text fill="#000000" font-family="sans-serif" font-size="10.4" lengthAdjust="spacing" textLength="85.6" x="74" y="320.4789">asks to select one</text><polygon fill="#181818" points="180.4,346.5219,188.4,349.7219,180.4,352.9219,183.6,349.7219" style="stroke:#181818;stroke-width:0.8000000000000002;"/><line style="stroke:#181818;stroke-width:0.8000000000000002;" x1="57.2" x2="185.2" y1="349.7219" y2="349.7219"/><text fill="#000000" font-family="sans-serif" font-size="10.4" lengthAdjust="spacing" textLength="102.4" x="62.8" y="345.5117">Selects a job Opening</text><polygon fill="#181818" points="342,371.5547,350,374.7547,342,377.9547,345.2,374.7547" style="stroke:#181818;stroke-width:0.8000000000000002;"/><line style="stroke:#181818;stroke-width:0.8000000000000002;" x1="198" x2="346.8" y1="374.7547" y2="374.7547"/><text fill="#000000" font-family="sans-serif" font-size="10.4" lengthAdjust="spacing" textLength="138.4" x="203.6" y="370.5445">getEditableFields(jobOpening)</text><polygon fill="#181818" points="206.8,396.5875,198.8,399.7875,206.8,402.9875,203.6,399.7875" style="stroke:#181818;stroke-width:0.8000000000000002;"/><line style="stroke:#181818;stroke-width:0.8000000000000002;stroke-dasharray:2.0,2.0;" x1="202" x2="354.8" y1="399.7875" y2="399.7875"/><text fill="#000000" font-family="sans-serif" font-size="10.4" lengthAdjust="spacing" textLength="64" x="211.6" y="395.5773">editableFields</text><polygon fill="#181818" points="66,421.6203,58,424.8203,66,428.0203,62.8,424.8203" style="stroke:#181818;stroke-width:0.8000000000000002;"/><line style="stroke:#181818;stroke-width:0.8000000000000002;stroke-dasharray:2.0,2.0;" x1="61.2" x2="193.2" y1="424.8203" y2="424.8203"/><text fill="#000000" font-family="sans-serif" font-size="10.4" lengthAdjust="spacing" textLength="64" x="70.8" y="420.6102">editableFields</text><polygon fill="#181818" points="180.4,446.6531,188.4,449.8531,180.4,453.0531,183.6,449.8531" style="stroke:#181818;stroke-width:0.8000000000000002;"/><line style="stroke:#181818;stroke-width:0.8000000000000002;" x1="57.2" x2="185.2" y1="449.8531" y2="449.8531"/><text fill="#000000" font-family="sans-serif" font-size="10.4" lengthAdjust="spacing" textLength="110.4" x="62.8" y="445.643">Chooses a editable field</text><polygon fill="#181818" points="342,471.6859,350,474.8859,342,478.0859,345.2,474.8859" style="stroke:#181818;stroke-width:0.8000000000000002;"/><line style="stroke:#181818;stroke-width:0.8000000000000002;" x1="198" x2="346.8" y1="474.8859" y2="474.8859"/><text fill="#000000" font-family="sans-serif" font-size="10.4" lengthAdjust="spacing" textLength="122.4" x="203.6" y="470.6758">editField(jobOpening, field)</text><polygon fill="#181818" points="572.4,496.7188,580.4,499.9188,572.4,503.1188,575.6,499.9188" style="stroke:#181818;stroke-width:0.8000000000000002;"/><line style="stroke:#181818;stroke-width:0.8000000000000002;" x1="359.6" x2="577.2" y1="499.9188" y2="499.9188"/><text fill="#000000" font-family="sans-serif" font-size="10.4" lengthAdjust="spacing" textLength="64" x="365.2" y="495.7086">editField(field)</text><line style="stroke:#181818;stroke-width:0.8000000000000002;" x1="590" x2="623.6" y1="524.9516" y2="524.9516"/><line style="stroke:#181818;stroke-width:0.8000000000000002;" x1="623.6" x2="623.6" y1="524.9516" y2="535.3516"/><line style="stroke:#181818;stroke-width:0.8000000000000002;" x1="590.8" x2="623.6" y1="535.3516" y2="535.3516"/><polygon fill="#181818" points="598.8,532.1516,590.8,535.3516,598.8,538.5516,595.6,535.3516" style="stroke:#181818;stroke-width:0.8000000000000002;"/><text fill="#000000" font-family="sans-serif" font-size="10.4" lengthAdjust="spacing" textLength="64" x="595.6" y="520.7414">editField(field)</text><polygon fill="#181818" points="368.4,557.1844,360.4,560.3844,368.4,563.5844,365.2,560.3844" style="stroke:#181818;stroke-width:0.8000000000000002;"/><line style="stroke:#181818;stroke-width:0.8000000000000002;stroke-dasharray:2.0,2.0;" x1="363.6" x2="585.2" y1="560.3844" y2="560.3844"/><text fill="#000000" font-family="sans-serif" font-size="10.4" lengthAdjust="spacing" textLength="33.6" x="373.2" y="556.1742">sucess</text><polygon fill="#181818" points="206.8,582.2172,198.8,585.4172,206.8,588.6172,203.6,585.4172" style="stroke:#181818;stroke-width:0.8000000000000002;"/><line style="stroke:#181818;stroke-width:0.8000000000000002;stroke-dasharray:2.0,2.0;" x1="202" x2="354.8" y1="585.4172" y2="585.4172"/><text fill="#000000" font-family="sans-serif" font-size="10.4" lengthAdjust="spacing" textLength="33.6" x="211.6" y="581.207">sucess</text><polygon fill="#181818" points="66,607.25,58,610.45,66,613.65,62.8,610.45" style="stroke:#181818;stroke-width:0.8000000000000002;"/><line style="stroke:#181818;stroke-width:0.8000000000000002;stroke-dasharray:2.0,2.0;" x1="61.2" x2="193.2" y1="610.45" y2="610.45"/><text fill="#000000" font-family="sans-serif" font-size="10.4" lengthAdjust="spacing" textLength="112" x="70.8" y="606.2398">shows operation sucess</text><!--SRC=[bLCxRy8m4DxpAqvC81M9IfqOEfGMYQeLKYEsBYOvWalmfJvJnB_lsK1U42GynRxlSQ_mHfj2MRM5BHbArfQs2CxkCE8oKgXaepACtI57i9WuPRAy3k2rIcclJGOhbJD6aTDEe37-xj0a2AzQPHxNZry7C8H538-ZqLCKHIfnPA4t8NQxBTfFPSJ7za0nB1Xj9F9E9xfGna7lBTNkdPRp0erOBMP7sAm96ZTH4pBEKfwVHAjha_M51R6MN0xJaD8XeEMr2QjqGrokaJyWHsZwJpayvXsU_1SCdoL564kBQDyVjA2p4t1MmbAAZy1Qe4fQ08b5eNO1nf2X-z3ivgigLsxxrheG0ZK3KPEgnUUdfBySJcDfo_ZsX1VF6BOJhGGuW5Ay9DQDpnsumMldxQltD0w6liDSfuCoANmRcTI6mH4mvhAxG0OlvnE7c52y09mKEeSWJVPhffOvJZNcAVShspjwVIuP6rhtLNsRMsvOVHKdQo96N-kP32lFlhMSZV8zBVZLoduuQjorQRAY3RLh2k4VyoyUtCsf8EraUPSWNpIcbBqsZwkKxfMZ0grocamNyNp-0G00]--></g></svg>