<?xml version="1.0" encoding="us-ascii" standalone="no"?><svg xmlns="http://www.w3.org/2000/svg" xmlns:xlink="http://www.w3.org/1999/xlink" contentStyleType="text/css" height="880px" preserveAspectRatio="none" style="width:881px;height:880px;background:#FFFFFF;" version="1.1" viewBox="0 0 881 880" width="881px" zoomAndPan="magnify"><defs/><g><text fill="#000000" font-family="sans-serif" font-size="14" font-weight="bold" lengthAdjust="spacing" textLength="164" x="351.5" y="25.1074">Domain Model - US1017</text><!--cluster JobOpeningAggregate--><g id="cluster_JobOpeningAggregate"><path d="M392.5,216.6348 L552.5,216.6348 A3.75,3.75 0 0 1 555,219.1348 L562,241.2559 L682.5,241.2559 A2.5,2.5 0 0 1 685,243.7559 L685,755.1348 A2.5,2.5 0 0 1 682.5,757.6348 L392.5,757.6348 A2.5,2.5 0 0 1 390,755.1348 L390,219.1348 A2.5,2.5 0 0 1 392.5,216.6348 " fill="none" style="stroke:#000000;stroke-width:1.5;"/><line style="stroke:#000000;stroke-width:1.5;" x1="390" x2="562" y1="241.2559" y2="241.2559"/><text fill="#000000" font-family="sans-serif" font-size="14" font-weight="bold" lengthAdjust="spacing" textLength="159" x="394" y="233.7422">JobOpeningAggregate</text></g><!--cluster ApplicationAggregate--><g id="cluster_ApplicationAggregate"><path d="M8.5,45.6348 L160.5,45.6348 A3.75,3.75 0 0 1 163,48.1348 L170,70.2559 L363.5,70.2559 A2.5,2.5 0 0 1 366,72.7559 L366,468.1348 A2.5,2.5 0 0 1 363.5,470.6348 L8.5,470.6348 A2.5,2.5 0 0 1 6,468.1348 L6,48.1348 A2.5,2.5 0 0 1 8.5,45.6348 " fill="none" style="stroke:#000000;stroke-width:1.5;"/><line style="stroke:#000000;stroke-width:1.5;" x1="6" x2="170" y1="70.2559" y2="70.2559"/><text fill="#000000" font-family="sans-serif" font-size="14" font-weight="bold" lengthAdjust="spacing" textLength="151" x="10" y="62.7422">ApplicationAggregate</text></g><!--cluster PluginAggregate--><g id="cluster_PluginAggregate"><path d="M711.5,503.6348 L829.5,503.6348 A3.75,3.75 0 0 1 832,506.1348 L839,528.2559 L871.5,528.2559 A2.5,2.5 0 0 1 874,530.7559 L874,871.1348 A2.5,2.5 0 0 1 871.5,873.6348 L711.5,873.6348 A2.5,2.5 0 0 1 709,871.1348 L709,506.1348 A2.5,2.5 0 0 1 711.5,503.6348 " fill="none" style="stroke:#000000;stroke-width:1.5;"/><line style="stroke:#000000;stroke-width:1.5;" x1="709" x2="839" y1="528.2559" y2="528.2559"/><text fill="#000000" font-family="sans-serif" font-size="14" font-weight="bold" lengthAdjust="spacing" textLength="117" x="713" y="520.7422">PluginAggregate</text></g><!--class JobOpening--><g id="elem_JobOpening"><rect codeLine="9" fill="#F1F1F1" height="68.543" id="JobOpening" rx="2.5" ry="2.5" style="stroke:#181818;stroke-width:0.5;" width="82" x="495" y="253.6348"/><text fill="#000000" font-family="sans-serif" font-size="12" font-style="italic" lengthAdjust="spacing" textLength="44" x="514" y="271.584">&#171;Entity&#187;</text><text fill="#000000" font-family="sans-serif" font-size="12" font-style="italic" lengthAdjust="spacing" textLength="35" x="518.5" y="287.5449">&#171;root&#187;</text><text fill="#000000" font-family="sans-serif" font-size="14" lengthAdjust="spacing" textLength="76" x="498" y="305.6641">JobOpening</text><line style="stroke:#181818;stroke-width:0.5;" x1="496" x2="576" y1="314.1777" y2="314.1777"/></g><!--class JobReference--><g id="elem_JobReference"><rect codeLine="11" fill="#F1F1F1" height="52.582" id="JobReference" rx="2.5" ry="2.5" style="stroke:#181818;stroke-width:0.5;" width="94" x="406" y="401.6348"/><text fill="#000000" font-family="sans-serif" font-size="12" font-style="italic" lengthAdjust="spacing" textLength="85" x="410.5" y="419.584">&#171;Value Object&#187;</text><text fill="#000000" font-family="sans-serif" font-size="14" lengthAdjust="spacing" textLength="88" x="409" y="437.7031">JobReference</text><line style="stroke:#181818;stroke-width:0.5;" x1="407" x2="499" y1="446.2168" y2="446.2168"/></g><!--class RecruitmentProcess--><g id="elem_RecruitmentProcess"><rect codeLine="12" fill="#F1F1F1" height="52.582" id="RecruitmentProcess" rx="2.5" ry="2.5" style="stroke:#181818;stroke-width:0.5;" width="133" x="535.5" y="401.6348"/><text fill="#000000" font-family="sans-serif" font-size="12" font-style="italic" lengthAdjust="spacing" textLength="44" x="580" y="419.584">&#171;Entity&#187;</text><text fill="#000000" font-family="sans-serif" font-size="14" lengthAdjust="spacing" textLength="127" x="538.5" y="437.7031">RecruitmentProcess</text><line style="stroke:#181818;stroke-width:0.5;" x1="536.5" x2="667.5" y1="446.2168" y2="446.2168"/></g><!--class Phase--><g id="elem_Phase"><rect codeLine="13" fill="#F1F1F1" height="52.582" id="Phase" rx="2.5" ry="2.5" style="stroke:#181818;stroke-width:0.5;" width="46" x="549" y="548.6348"/><text fill="#000000" font-family="sans-serif" font-size="12" font-style="italic" lengthAdjust="spacing" textLength="44" x="550" y="566.584">&#171;Entity&#187;</text><text fill="#000000" font-family="sans-serif" font-size="14" lengthAdjust="spacing" textLength="40" x="552" y="584.7031">Phase</text><line style="stroke:#181818;stroke-width:0.5;" x1="550" x2="594" y1="593.2168" y2="593.2168"/></g><!--class PhaseName--><g id="elem_PhaseName"><rect codeLine="14" fill="#F1F1F1" height="52.582" id="PhaseName" rx="2.5" ry="2.5" style="stroke:#181818;stroke-width:0.5;" width="84" x="421" y="688.6348"/><text fill="#000000" font-family="sans-serif" font-size="12" font-style="italic" lengthAdjust="spacing" textLength="82" x="422" y="706.584">&#171;ValueObject&#187;</text><text fill="#000000" font-family="sans-serif" font-size="14" lengthAdjust="spacing" textLength="76" x="425" y="724.7031">PhaseName</text><line style="stroke:#181818;stroke-width:0.5;" x1="422" x2="504" y1="733.2168" y2="733.2168"/></g><!--class PhaseState--><g id="elem_PhaseState"><rect codeLine="15" fill="#F1F1F1" height="52.582" id="PhaseState" rx="2.5" ry="2.5" style="stroke:#181818;stroke-width:0.5;" width="84" x="540" y="688.6348"/><text fill="#000000" font-family="sans-serif" font-size="12" font-style="italic" lengthAdjust="spacing" textLength="82" x="541" y="706.584">&#171;ValueObject&#187;</text><text fill="#000000" font-family="sans-serif" font-size="14" lengthAdjust="spacing" textLength="73" x="545.5" y="724.7031">PhaseState</text><line style="stroke:#181818;stroke-width:0.5;" x1="541" x2="623" y1="733.2168" y2="733.2168"/></g><!--class Application--><g id="elem_Application"><rect codeLine="21" fill="#F1F1F1" height="68.543" id="Application" rx="2.5" ry="2.5" style="stroke:#181818;stroke-width:0.5;" width="75" x="203.5" y="82.6348"/><text fill="#000000" font-family="sans-serif" font-size="12" font-style="italic" lengthAdjust="spacing" textLength="44" x="219" y="100.584">&#171;Entity&#187;</text><text fill="#000000" font-family="sans-serif" font-size="12" font-style="italic" lengthAdjust="spacing" textLength="35" x="223.5" y="116.5449">&#171;root&#187;</text><text fill="#000000" font-family="sans-serif" font-size="14" lengthAdjust="spacing" textLength="69" x="206.5" y="134.6641">Application</text><line style="stroke:#181818;stroke-width:0.5;" x1="204.5" x2="277.5" y1="143.1777" y2="143.1777"/></g><!--class ApplicationID--><g id="elem_ApplicationID"><rect codeLine="22" fill="#F1F1F1" height="52.582" id="ApplicationID" rx="2.5" ry="2.5" style="stroke:#181818;stroke-width:0.5;" width="88" x="22" y="261.6348"/><text fill="#000000" font-family="sans-serif" font-size="12" font-style="italic" lengthAdjust="spacing" textLength="82" x="25" y="279.584">&#171;ValueObject&#187;</text><text fill="#000000" font-family="sans-serif" font-size="14" lengthAdjust="spacing" textLength="82" x="25" y="297.7031">ApplicationID</text><line style="stroke:#181818;stroke-width:0.5;" x1="23" x2="109" y1="306.2168" y2="306.2168"/></g><!--class ApplicationState--><g id="elem_ApplicationState"><rect codeLine="23" fill="#F1F1F1" height="52.582" id="ApplicationState" rx="2.5" ry="2.5" style="stroke:#181818;stroke-width:0.5;" width="108" x="145" y="261.6348"/><text fill="#000000" font-family="sans-serif" font-size="12" font-style="italic" lengthAdjust="spacing" textLength="82" x="158" y="279.584">&#171;ValueObject&#187;</text><text fill="#000000" font-family="sans-serif" font-size="14" lengthAdjust="spacing" textLength="102" x="148" y="297.7031">ApplicationState</text><line style="stroke:#181818;stroke-width:0.5;" x1="146" x2="252" y1="306.2168" y2="306.2168"/></g><!--class Interview--><g id="elem_Interview"><rect codeLine="24" fill="#F1F1F1" height="52.582" id="Interview" rx="2.5" ry="2.5" style="stroke:#181818;stroke-width:0.5;" width="61" x="288.5" y="261.6348"/><text fill="#000000" font-family="sans-serif" font-size="12" font-style="italic" lengthAdjust="spacing" textLength="44" x="297" y="279.584">&#171;Entity&#187;</text><text fill="#000000" font-family="sans-serif" font-size="14" lengthAdjust="spacing" textLength="55" x="291.5" y="297.7031">Interview</text><line style="stroke:#181818;stroke-width:0.5;" x1="289.5" x2="348.5" y1="306.2168" y2="306.2168"/></g><!--class InterviewAnswersFile--><g id="elem_InterviewAnswersFile"><rect codeLine="25" fill="#F1F1F1" height="52.582" id="InterviewAnswersFile" rx="2.5" ry="2.5" style="stroke:#181818;stroke-width:0.5;" width="137" x="212.5" y="401.6348"/><text fill="#000000" font-family="sans-serif" font-size="12" font-style="italic" lengthAdjust="spacing" textLength="82" x="240" y="419.584">&#171;ValueObject&#187;</text><text fill="#000000" font-family="sans-serif" font-size="14" lengthAdjust="spacing" textLength="131" x="215.5" y="437.7031">InterviewAnswersFile</text><line style="stroke:#181818;stroke-width:0.5;" x1="213.5" x2="348.5" y1="446.2168" y2="446.2168"/></g><!--class Plugin--><g id="elem_Plugin"><rect codeLine="32" fill="#F1F1F1" height="68.543" id="Plugin" rx="2.5" ry="2.5" style="stroke:#181818;stroke-width:0.5;" width="46" x="731" y="540.6348"/><text fill="#000000" font-family="sans-serif" font-size="12" font-style="italic" lengthAdjust="spacing" textLength="44" x="732" y="558.584">&#171;Entity&#187;</text><text fill="#000000" font-family="sans-serif" font-size="12" font-style="italic" lengthAdjust="spacing" textLength="35" x="736.5" y="574.5449">&#171;root&#187;</text><text fill="#000000" font-family="sans-serif" font-size="14" lengthAdjust="spacing" textLength="39" x="734.5" y="592.6641">Plugin</text><line style="stroke:#181818;stroke-width:0.5;" x1="732" x2="776" y1="601.1777" y2="601.1777"/></g><!--class PluginType--><g id="elem_PluginType"><rect codeLine="34" fill="#F1F1F1" height="52.582" id="PluginType" rx="2.5" ry="2.5" style="stroke:#181818;stroke-width:0.5;" width="87" x="728.5" y="688.6348"/><text fill="#000000" font-family="sans-serif" font-size="12" font-style="italic" lengthAdjust="spacing" textLength="85" x="729.5" y="706.584">&#171;Value Object&#187;</text><text fill="#000000" font-family="sans-serif" font-size="14" lengthAdjust="spacing" textLength="71" x="736.5" y="724.7031">PluginType</text><line style="stroke:#181818;stroke-width:0.5;" x1="729.5" x2="814.5" y1="733.2168" y2="733.2168"/></g><!--class InterviewModel--><g id="elem_InterviewModel"><rect codeLine="36" fill="#F1F1F1" height="52.582" id="InterviewModel" rx="2.5" ry="2.5" style="stroke:#181818;stroke-width:0.5;" width="99" x="725.5" y="804.6348"/><text fill="#000000" font-family="sans-serif" font-size="12" font-style="italic" lengthAdjust="spacing" textLength="85" x="732.5" y="822.584">&#171;Value Object&#187;</text><text fill="#000000" font-family="sans-serif" font-size="14" lengthAdjust="spacing" textLength="93" x="728.5" y="840.7031">InterviewModel</text><line style="stroke:#181818;stroke-width:0.5;" x1="726.5" x2="823.5" y1="849.2168" y2="849.2168"/></g><!--link Plugin to PluginType--><g id="link_Plugin_PluginType"><path codeLine="40" d="M758.4,609.8948 C761.57,634.1548 764.9941,660.4051 767.8841,682.5651 " fill="none" id="Plugin-to-PluginType" style="stroke:#181818;stroke-width:1.0;"/><polygon fill="#181818" points="768.66,688.5148,771.4625,679.0731,768.0134,683.5568,763.5297,680.1076,768.66,688.5148" style="stroke:#181818;stroke-width:1.0;"/><text fill="#000000" font-family="sans-serif" font-size="13" lengthAdjust="spacing" textLength="96" x="765" y="654.6631">characterized by</text><text fill="#000000" font-family="sans-serif" font-size="13" lengthAdjust="spacing" textLength="7" x="751.5491" y="631.15">1</text><text fill="#000000" font-family="sans-serif" font-size="13" lengthAdjust="spacing" textLength="7" x="760.0782" y="677.5036">1</text></g><!--reverse link PluginType to InterviewModel--><g id="link_PluginType_InterviewModel"><path codeLine="41" d="M773.1428,759.7086 C773.6328,778.3586 773.83,785.5248 774.32,804.2448 " fill="none" id="PluginType-backto-InterviewModel" style="stroke:#181818;stroke-width:1.0;"/><polygon fill="none" points="772.67,741.7148,767.1448,759.8661,779.1407,759.551,772.67,741.7148" style="stroke:#181818;stroke-width:1.0;"/></g><!--link JobOpening to JobReference--><g id="link_JobOpening_JobReference"><path codeLine="43" d="M508.49,322.8248 C501.4,332.2048 494.07,342.5748 488,352.6348 C478.54,368.2948 472.1774,381.4102 465.7974,396.1202 " fill="none" id="JobOpening-to-JobReference" style="stroke:#181818;stroke-width:1.0;"/><polygon fill="#181818" points="463.41,401.6248,470.6609,394.9595,465.3995,397.0376,463.3214,391.7763,463.41,401.6248" style="stroke:#181818;stroke-width:1.0;"/><text fill="#000000" font-family="sans-serif" font-size="13" lengthAdjust="spacing" textLength="69" x="489" y="367.6631">identified by</text><text fill="#000000" font-family="sans-serif" font-size="13" lengthAdjust="spacing" textLength="22" x="479.8711" y="344.3407">0..1</text><text fill="#000000" font-family="sans-serif" font-size="13" lengthAdjust="spacing" textLength="7" x="458.0943" y="390.2058">1</text></g><!--link JobOpening to Plugin--><g id="link_JobOpening_Plugin"><path codeLine="44" d="M577.04,310.7448 C610.65,330.3548 657.2,362.2048 686,401.6348 C717.32,444.5348 734.9887,497.9935 744.6787,534.7035 " fill="none" id="JobOpening-to-Plugin" style="stroke:#181818;stroke-width:1.0;"/><polygon fill="#181818" points="746.21,540.5048,747.7806,530.7819,744.9339,535.6703,740.0455,532.8237,746.21,540.5048" style="stroke:#181818;stroke-width:1.0;"/><text fill="#000000" font-family="sans-serif" font-size="13" lengthAdjust="spacing" textLength="42" x="727" y="433.6631">selects</text><text fill="#000000" font-family="sans-serif" font-size="13" lengthAdjust="spacing" textLength="5" x="585.0677" y="310.4436">*</text><text fill="#000000" font-family="sans-serif" font-size="13" lengthAdjust="spacing" textLength="22" x="720.6282" y="529.3827">0..2</text></g><!--link JobOpening to RecruitmentProcess--><g id="link_JobOpening_RecruitmentProcess"><path codeLine="45" d="M552.15,322.8948 C563.75,347.1548 576.5609,373.9421 587.1609,396.1021 " fill="none" id="JobOpening-to-RecruitmentProcess" style="stroke:#181818;stroke-width:1.0;"/><polygon fill="#181818" points="589.75,401.5148,589.4748,391.6698,587.5924,397.0042,582.258,395.1219,589.75,401.5148" style="stroke:#181818;stroke-width:1.0;"/><text fill="#000000" font-family="sans-serif" font-size="13" lengthAdjust="spacing" textLength="42" x="575" y="367.6631">selects</text><text fill="#000000" font-family="sans-serif" font-size="13" lengthAdjust="spacing" textLength="5" x="549.4108" y="344.15">*</text><text fill="#000000" font-family="sans-serif" font-size="13" lengthAdjust="spacing" textLength="22" x="562.3734" y="390.5036">0..1</text></g><!--link Application to JobOpening--><g id="link_Application_JobOpening"><path codeLine="48" d="M278.66,139.7148 C334.11,171.4748 432.144,227.6319 489.564,260.5319 " fill="none" id="Application-to-JobOpening" style="stroke:#181818;stroke-width:1.0;"/><polygon fill="#181818" points="494.77,263.5148,488.9496,255.5698,490.4317,261.029,484.9724,262.5111,494.77,263.5148" style="stroke:#181818;stroke-width:1.0;"/><text fill="#000000" font-family="sans-serif" font-size="13" lengthAdjust="spacing" textLength="75" x="381" y="196.6631">submitted for</text><text fill="#000000" font-family="sans-serif" font-size="13" lengthAdjust="spacing" textLength="5" x="286.5665" y="139.5887">*</text><text fill="#000000" font-family="sans-serif" font-size="13" lengthAdjust="spacing" textLength="7" x="480.082" y="254.9149">1</text></g><!--link Application to ApplicationID--><g id="link_Application_ApplicationID"><path codeLine="49" d="M203.33,123.4048 C167.88,130.4248 116.02,146.3348 87,181.6348 C68.62,203.9948 64.8412,231.9549 64.6812,255.2649 " fill="none" id="Application-to-ApplicationID" style="stroke:#181818;stroke-width:1.0;"/><polygon fill="#181818" points="64.64,261.2648,68.7017,252.2924,64.6743,256.2649,60.7019,252.2375,64.64,261.2648" style="stroke:#181818;stroke-width:1.0;"/><text fill="#000000" font-family="sans-serif" font-size="13" lengthAdjust="spacing" textLength="69" x="88" y="196.6631">identified by</text><text fill="#000000" font-family="sans-serif" font-size="13" lengthAdjust="spacing" textLength="7" x="188.482" y="120.0793">1</text><text fill="#000000" font-family="sans-serif" font-size="13" lengthAdjust="spacing" textLength="7" x="56.5161" y="250.1957">1</text></g><!--link Application to ApplicationState--><g id="link_Application_ApplicationState"><path codeLine="50" d="M203.43,141.8048 C190.31,152.2548 177.09,165.7848 170,181.6348 C158.37,207.6448 167.4482,234.1267 179.3482,255.9567 " fill="none" id="Application-to-ApplicationState" style="stroke:#181818;stroke-width:1.0;"/><polygon fill="#181818" points="182.22,261.2248,181.4244,251.4081,179.8269,256.8347,174.4003,255.2371,182.22,261.2248" style="stroke:#181818;stroke-width:1.0;"/><text fill="#000000" font-family="sans-serif" font-size="13" lengthAdjust="spacing" textLength="95" x="171" y="196.6631">presents itself in</text><text fill="#000000" font-family="sans-serif" font-size="13" lengthAdjust="spacing" textLength="7" x="188.601" y="141.9868">1</text><text fill="#000000" font-family="sans-serif" font-size="13" lengthAdjust="spacing" textLength="7" x="170.7838" y="250.5847">1</text></g><!--link Application to Interview--><g id="link_Application_Interview"><path codeLine="51" d="M256.97,151.7048 C261.53,161.3548 266.49,171.9048 271,181.6348 C283.61,208.8348 295.3305,234.6465 304.9905,256.0365 " fill="none" id="Application-to-Interview" style="stroke:#181818;stroke-width:1.0;"/><polygon fill="#181818" points="307.46,261.5048,307.4012,251.6561,305.4021,256.9479,300.1102,254.9488,307.46,261.5048" style="stroke:#181818;stroke-width:1.0;"/><text fill="#000000" font-family="sans-serif" font-size="13" lengthAdjust="spacing" textLength="38" x="280" y="196.6631">origins</text><text fill="#000000" font-family="sans-serif" font-size="13" lengthAdjust="spacing" textLength="7" x="252.1133" y="173.2">1</text><text fill="#000000" font-family="sans-serif" font-size="13" lengthAdjust="spacing" textLength="22" x="280.2476" y="250.4912">0..1</text></g><!--link Interview to InterviewAnswersFile--><g id="link_Interview_InterviewAnswersFile"><path codeLine="53" d="M311.94,314.7648 C305.16,339.3948 296.5518,370.6398 289.7418,395.3898 " fill="none" id="Interview-to-InterviewAnswersFile" style="stroke:#181818;stroke-width:1.0;"/><polygon fill="#181818" points="288.15,401.1748,294.3943,393.5584,289.4765,396.3539,286.681,391.4361,288.15,401.1748" style="stroke:#181818;stroke-width:1.0;"/><text fill="#000000" font-family="sans-serif" font-size="13" lengthAdjust="spacing" textLength="53" x="303" y="367.6631">results in</text><text fill="#000000" font-family="sans-serif" font-size="13" lengthAdjust="spacing" textLength="7" x="302.762" y="336.1118">1</text><text fill="#000000" font-family="sans-serif" font-size="13" lengthAdjust="spacing" textLength="22" x="265.3078" y="390.5238">0..1</text></g><!--reverse link RecruitmentProcess to Phase--><g id="link_RecruitmentProcess_Phase"><path codeLine="55" d="M594.2786,466.4759 C588.8286,492.8159 582.81,521.8848 577.34,548.3148 " fill="none" id="RecruitmentProcess-backto-Phase" style="stroke:#181818;stroke-width:1.0;"/><polygon fill="#181818" points="596.71,454.7248,591.5773,459.7898,594.2786,466.4759,599.4113,461.4108,596.71,454.7248" style="stroke:#181818;stroke-width:1.0;"/></g><!--link Phase to PhaseName--><g id="link_Phase_PhaseName"><path codeLine="56" d="M551.75,601.7648 C532.3,626.3948 506.7679,658.7155 487.2279,683.4655 " fill="none" id="Phase-to-PhaseName" style="stroke:#181818;stroke-width:1.0;"/><polygon fill="#181818" points="483.51,688.1748,492.2264,683.5895,486.6083,684.2504,485.9474,678.6323,483.51,688.1748" style="stroke:#181818;stroke-width:1.0;"/><text fill="#000000" font-family="sans-serif" font-size="13" lengthAdjust="spacing" textLength="39" x="521" y="654.6631">named</text><text fill="#000000" font-family="sans-serif" font-size="13" lengthAdjust="spacing" textLength="7" x="539.8516" y="623.1118">1</text><text fill="#000000" font-family="sans-serif" font-size="13" lengthAdjust="spacing" textLength="7" x="480.2309" y="677.5238">1</text></g><!--link Phase to PhaseState--><g id="link_Phase_PhaseState"><path codeLine="57" d="M573.86,601.7648 C575.64,626.3948 577.8972,657.4404 579.6872,682.1904 " fill="none" id="Phase-to-PhaseState" style="stroke:#181818;stroke-width:1.0;"/><polygon fill="#181818" points="580.12,688.1748,583.4604,678.9097,579.7593,683.1878,575.4812,679.4868,580.12,688.1748" style="stroke:#181818;stroke-width:1.0;"/><text fill="#000000" font-family="sans-serif" font-size="13" lengthAdjust="spacing" textLength="95" x="578" y="654.6631">presents itself in</text><text fill="#000000" font-family="sans-serif" font-size="13" lengthAdjust="spacing" textLength="7" x="566.5218" y="623.1118">1</text><text fill="#000000" font-family="sans-serif" font-size="13" lengthAdjust="spacing" textLength="7" x="571.9431" y="677.5238">1</text></g><!--SRC=[ZLJHQjim57tNLrpoKYYaD7iPc608j8KEjePsszDU5FdQlgii6KbUoRB- -wxZnf4TP-kJRTrpxZr7ElA5VoPJIoShq6GmR6i4wq9fnON6F42muAWe0sJaK0MoHfIK8IXoIcFtNY7ZCoy21OrmOoj91ZxR33NCuTlJudhnKOXQgcTP87oocuSQ3PbYLHGE2naGTa8eBRsFYh1StXfkk4rJ-67uoraRqdGdNe_GHypHeL78vUzIDmWFcvyiaYcx0-mHbMieL6Z2sbc5l7JitAFMfVHujl15Lls8muIu_XHQ4sC0A-rDh-fQavBjzasuZghdRB-UGkzlnYEdKDFQEjYz2UX-4RvC6EzhA-DVqFaxqXCMMu-zoRLk2XhuUzkZ_Vf_3xI3VMq3U7AUOgogIzSOnkfRGMy3PuiPpEVf_XarJq2Ld7V5dUWtPh3PYgYw_3EVZyO84SLoTdrr5VKTf301lWtiCQUkRKoxR3ajYVaV3dgOuL6pT7-AJG-Z9X9yf0aHXwTdTieE3HdUR2eAWMNbrWqfaPbXkCPkti7gmfP0xT0prGC55fe3cMbsPx3VRMPQ_jcGOL_7nNFeE9W9yCH6jnED41CxTicdkh-hehlgWspqTpm1mu_i7EOVziHV]--></g></svg>