<?xml version="1.0" encoding="UTF-8" standalone="no"?><svg xmlns="http://www.w3.org/2000/svg" xmlns:xlink="http://www.w3.org/1999/xlink" contentStyleType="text/css" height="1270px" preserveAspectRatio="none" style="width:2894px;height:1270px;background:#FFFFFF;" version="1.1" viewBox="0 0 2894 1270" width="2894px" zoomAndPan="magnify"><defs/><g><text fill="#000000" font-family="sans-serif" font-size="14" font-weight="bold" lengthAdjust="spacing" textLength="244" x="1324" y="28.5352">Sequence Diagram (SD) - US 1000</text><rect fill="#FFFFFF" height="1037.5313" style="stroke:#181818;stroke-width:1.0;" width="10" x="35" y="136.043"/><rect fill="#FFFFFF" height="953.4219" style="stroke:#181818;stroke-width:1.0;" width="10" x="295" y="211.1523"/><rect fill="#FFFFFF" height="638.4297" style="stroke:#181818;stroke-width:1.0;" width="10" x="621" y="488.5898"/><rect fill="#FFFFFF" height="563.3203" style="stroke:#181818;stroke-width:1.0;" width="10" x="1316" y="526.1445"/><rect fill="#FFFFFF" height="112.6641" style="stroke:#181818;stroke-width:1.0;" width="10" x="1727" y="676.3633"/><rect fill="#FFFFFF" height="37.5547" style="stroke:#181818;stroke-width:1.0;" width="10" x="2221" y="713.918"/><rect fill="#FFFFFF" height="75.1094" style="stroke:#181818;stroke-width:1.0;" width="10" x="2415" y="826.582"/><rect fill="#FFFFFF" height="75.1094" style="stroke:#181818;stroke-width:1.0;" width="10" x="2615.5" y="939.2461"/><line style="stroke:#181818;stroke-width:0.5;stroke-dasharray:5.0,5.0;" x1="40" x2="40" y1="126.043" y2="1182.5742"/><line style="stroke:#181818;stroke-width:0.5;stroke-dasharray:5.0,5.0;" x1="299.5" x2="299.5" y1="126.043" y2="1182.5742"/><line style="stroke:#181818;stroke-width:0.5;stroke-dasharray:5.0,5.0;" x1="625.5" x2="625.5" y1="126.043" y2="1182.5742"/><line style="stroke:#181818;stroke-width:0.5;stroke-dasharray:5.0,5.0;" x1="1320.5" x2="1320.5" y1="126.043" y2="1182.5742"/><line style="stroke:#181818;stroke-width:0.5;stroke-dasharray:5.0,5.0;" x1="1731.5" x2="1731.5" y1="126.043" y2="1182.5742"/><line style="stroke:#181818;stroke-width:0.5;stroke-dasharray:5.0,5.0;" x1="2226" x2="2226" y1="126.043" y2="1182.5742"/><line style="stroke:#181818;stroke-width:0.5;stroke-dasharray:5.0,5.0;" x1="2420" x2="2420" y1="126.043" y2="1182.5742"/><line style="stroke:#181818;stroke-width:0.5;stroke-dasharray:5.0,5.0;" x1="2620" x2="2620" y1="126.043" y2="1182.5742"/><line style="stroke:#181818;stroke-width:0.5;stroke-dasharray:5.0,5.0;" x1="2805" x2="2805" y1="126.043" y2="1182.5742"/><text fill="#000000" font-family="sans-serif" font-size="20" lengthAdjust="spacing" textLength="64" x="5" y="121.8242">Admin</text><ellipse cx="40" cy="50.9883" fill="#E3E3E3" rx="8" ry="8" style="stroke:#181818;stroke-width:0.5;"/><path d="M40,58.9883 L40,85.9883 M27,66.9883 L53,66.9883 M40,85.9883 L27,100.9883 M40,85.9883 L53,100.9883 " fill="none" style="stroke:#181818;stroke-width:0.5;"/><text fill="#000000" font-family="sans-serif" font-size="20" lengthAdjust="spacing" textLength="64" x="5" y="1200.9102">Admin</text><ellipse cx="40" cy="1213.6289" fill="#E3E3E3" rx="8" ry="8" style="stroke:#181818;stroke-width:0.5;"/><path d="M40,1221.6289 L40,1248.6289 M27,1229.6289 L53,1229.6289 M40,1248.6289 L27,1263.6289 M40,1248.6289 L53,1263.6289 " fill="none" style="stroke:#181818;stroke-width:0.5;"/><rect fill="#E3E3E3" height="37.5547" rx="2.5" ry="2.5" style="stroke:#181818;stroke-width:0.5;" width="117" x="241.5" y="87.4883"/><text fill="#000000" font-family="sans-serif" font-size="20" lengthAdjust="spacing" textLength="103" x="248.5" y="113.8242">AddUserUI</text><rect fill="#E3E3E3" height="37.5547" rx="2.5" ry="2.5" style="stroke:#181818;stroke-width:0.5;" width="117" x="241.5" y="1181.5742"/><text fill="#000000" font-family="sans-serif" font-size="20" lengthAdjust="spacing" textLength="103" x="248.5" y="1207.9102">AddUserUI</text><rect fill="#E3E3E3" height="37.5547" rx="2.5" ry="2.5" style="stroke:#181818;stroke-width:0.5;" width="199" x="526.5" y="87.4883"/><text fill="#000000" font-family="sans-serif" font-size="20" lengthAdjust="spacing" textLength="185" x="533.5" y="113.8242">:AddUserController</text><rect fill="#E3E3E3" height="37.5547" rx="2.5" ry="2.5" style="stroke:#181818;stroke-width:0.5;" width="199" x="526.5" y="1181.5742"/><text fill="#000000" font-family="sans-serif" font-size="20" lengthAdjust="spacing" textLength="185" x="533.5" y="1207.9102">:AddUserController</text><rect fill="#E3E3E3" height="37.5547" rx="2.5" ry="2.5" style="stroke:#181818;stroke-width:0.5;" width="253" x="1194.5" y="87.4883"/><text fill="#000000" font-family="sans-serif" font-size="20" lengthAdjust="spacing" textLength="239" x="1201.5" y="113.8242">:UserManagementService</text><rect fill="#E3E3E3" height="37.5547" rx="2.5" ry="2.5" style="stroke:#181818;stroke-width:0.5;" width="253" x="1194.5" y="1181.5742"/><text fill="#000000" font-family="sans-serif" font-size="20" lengthAdjust="spacing" textLength="239" x="1201.5" y="1207.9102">:UserManagementService</text><rect fill="#E3E3E3" height="37.5547" rx="2.5" ry="2.5" style="stroke:#181818;stroke-width:0.5;" width="131" x="1666.5" y="87.4883"/><text fill="#000000" font-family="sans-serif" font-size="20" lengthAdjust="spacing" textLength="117" x="1673.5" y="113.8242">:UserBuilder</text><rect fill="#E3E3E3" height="37.5547" rx="2.5" ry="2.5" style="stroke:#181818;stroke-width:0.5;" width="131" x="1666.5" y="1181.5742"/><text fill="#000000" font-family="sans-serif" font-size="20" lengthAdjust="spacing" textLength="117" x="1673.5" y="1207.9102">:UserBuilder</text><rect fill="#E3E3E3" height="37.5547" rx="2.5" ry="2.5" style="stroke:#181818;stroke-width:0.5;" width="172" x="2140" y="87.4883"/><text fill="#000000" font-family="sans-serif" font-size="20" lengthAdjust="spacing" textLength="158" x="2147" y="113.8242">user:SystemUser</text><rect fill="#E3E3E3" height="37.5547" rx="2.5" ry="2.5" style="stroke:#181818;stroke-width:0.5;" width="172" x="2140" y="1181.5742"/><text fill="#000000" font-family="sans-serif" font-size="20" lengthAdjust="spacing" textLength="158" x="2147" y="1207.9102">user:SystemUser</text><rect fill="#E3E3E3" height="37.5547" rx="2.5" ry="2.5" style="stroke:#181818;stroke-width:0.5;" width="196" x="2322" y="87.4883"/><text fill="#000000" font-family="sans-serif" font-size="20" lengthAdjust="spacing" textLength="182" x="2329" y="113.8242">PersistenceContext</text><rect fill="#E3E3E3" height="37.5547" rx="2.5" ry="2.5" style="stroke:#181818;stroke-width:0.5;" width="196" x="2322" y="1181.5742"/><text fill="#000000" font-family="sans-serif" font-size="20" lengthAdjust="spacing" textLength="182" x="2329" y="1207.9102">PersistenceContext</text><rect fill="#E3E3E3" height="37.5547" rx="2.5" ry="2.5" style="stroke:#181818;stroke-width:0.5;" width="185" x="2528" y="87.4883"/><text fill="#000000" font-family="sans-serif" font-size="20" lengthAdjust="spacing" textLength="171" x="2535" y="113.8242">RepositoryFactory</text><rect fill="#E3E3E3" height="37.5547" rx="2.5" ry="2.5" style="stroke:#181818;stroke-width:0.5;" width="185" x="2528" y="1181.5742"/><text fill="#000000" font-family="sans-serif" font-size="20" lengthAdjust="spacing" textLength="171" x="2535" y="1207.9102">RepositoryFactory</text><rect fill="#E3E3E3" height="37.5547" rx="2.5" ry="2.5" style="stroke:#181818;stroke-width:0.5;" width="165" x="2723" y="87.4883"/><text fill="#000000" font-family="sans-serif" font-size="20" lengthAdjust="spacing" textLength="151" x="2730" y="113.8242">:UserRepository</text><rect fill="#E3E3E3" height="37.5547" rx="2.5" ry="2.5" style="stroke:#181818;stroke-width:0.5;" width="165" x="2723" y="1181.5742"/><text fill="#000000" font-family="sans-serif" font-size="20" lengthAdjust="spacing" textLength="151" x="2730" y="1207.9102">:UserRepository</text><rect fill="#FFFFFF" height="1037.5313" style="stroke:#181818;stroke-width:1.0;" width="10" x="35" y="136.043"/><rect fill="#FFFFFF" height="953.4219" style="stroke:#181818;stroke-width:1.0;" width="10" x="295" y="211.1523"/><rect fill="#FFFFFF" height="638.4297" style="stroke:#181818;stroke-width:1.0;" width="10" x="621" y="488.5898"/><rect fill="#FFFFFF" height="563.3203" style="stroke:#181818;stroke-width:1.0;" width="10" x="1316" y="526.1445"/><rect fill="#FFFFFF" height="112.6641" style="stroke:#181818;stroke-width:1.0;" width="10" x="1727" y="676.3633"/><rect fill="#FFFFFF" height="37.5547" style="stroke:#181818;stroke-width:1.0;" width="10" x="2221" y="713.918"/><rect fill="#FFFFFF" height="75.1094" style="stroke:#181818;stroke-width:1.0;" width="10" x="2415" y="826.582"/><rect fill="#FFFFFF" height="75.1094" style="stroke:#181818;stroke-width:1.0;" width="10" x="2615.5" y="939.2461"/><polygon fill="#181818" points="288,161.5977,298,165.5977,288,169.5977,292,165.5977" style="stroke:#181818;stroke-width:1.0;"/><line style="stroke:#181818;stroke-width:1.0;" x1="45" x2="294" y1="165.5977" y2="165.5977"/><text fill="#000000" font-family="sans-serif" font-size="20" lengthAdjust="spacing" textLength="63" x="52" y="159.3789">show()</text><line style="stroke:#181818;stroke-width:1.0;" x1="300" x2="347" y1="198.1523" y2="198.1523"/><line style="stroke:#181818;stroke-width:1.0;" x1="347" x2="347" y1="198.1523" y2="211.1523"/><line style="stroke:#181818;stroke-width:1.0;" x1="306" x2="347" y1="211.1523" y2="211.1523"/><polygon fill="#181818" points="316,207.1523,306,211.1523,316,215.1523,312,211.1523" style="stroke:#181818;stroke-width:1.0;"/><text fill="#000000" font-family="sans-serif" font-size="20" lengthAdjust="spacing" textLength="89" x="312" y="191.9336">doShow()</text><polygon fill="#181818" points="614,249.707,624,253.707,614,257.707,618,253.707" style="stroke:#181818;stroke-width:1.0;"/><line style="stroke:#181818;stroke-width:1.0;" x1="305" x2="620" y1="253.707" y2="253.707"/><text fill="#000000" font-family="sans-serif" font-size="20" lengthAdjust="spacing" textLength="72" x="312" y="247.4883">create()</text><polygon fill="#181818" points="56,287.2617,46,291.2617,56,295.2617,52,291.2617" style="stroke:#181818;stroke-width:1.0;"/><line style="stroke:#181818;stroke-width:1.0;stroke-dasharray:2.0,2.0;" x1="50" x2="294" y1="291.2617" y2="291.2617"/><text fill="#000000" font-family="sans-serif" font-size="20" lengthAdjust="spacing" textLength="201" x="62" y="285.043">Ask user information</text><polygon fill="#181818" points="283,348.3711,293,352.3711,283,356.3711,287,352.3711" style="stroke:#181818;stroke-width:1.0;"/><line style="stroke:#181818;stroke-width:1.0;stroke-dasharray:2.0,2.0;" x1="45" x2="289" y1="352.3711" y2="352.3711"/><text fill="#000000" font-family="sans-serif" font-size="20" lengthAdjust="spacing" textLength="212" x="52" y="322.5977">Password, First Name,</text><text fill="#000000" font-family="sans-serif" font-size="20" lengthAdjust="spacing" textLength="178" x="58" y="346.1523">Last Name, E-mail</text><polygon fill="#181818" points="56,385.9258,46,389.9258,56,393.9258,52,389.9258" style="stroke:#181818;stroke-width:1.0;"/><line style="stroke:#181818;stroke-width:1.0;stroke-dasharray:2.0,2.0;" x1="50" x2="294" y1="389.9258" y2="389.9258"/><text fill="#000000" font-family="sans-serif" font-size="20" lengthAdjust="spacing" textLength="226" x="62" y="383.707">Show List of Role Types</text><polygon fill="#181818" points="283,423.4805,293,427.4805,283,431.4805,287,427.4805" style="stroke:#181818;stroke-width:1.0;"/><line style="stroke:#181818;stroke-width:1.0;stroke-dasharray:2.0,2.0;" x1="45" x2="289" y1="427.4805" y2="427.4805"/><text fill="#000000" font-family="sans-serif" font-size="20" lengthAdjust="spacing" textLength="95" x="52" y="421.2617">Role Type</text><polygon fill="#181818" points="609,484.5898,619,488.5898,609,492.5898,613,488.5898" style="stroke:#181818;stroke-width:1.0;"/><line style="stroke:#181818;stroke-width:1.0;" x1="305" x2="615" y1="488.5898" y2="488.5898"/><text fill="#000000" font-family="sans-serif" font-size="20" lengthAdjust="spacing" textLength="291" x="312" y="458.8164">addUser(password, firstName,</text><text fill="#000000" font-family="sans-serif" font-size="20" lengthAdjust="spacing" textLength="221" x="318" y="482.3711">lastName, email, roles)</text><polygon fill="#181818" points="1304,522.1445,1314,526.1445,1304,530.1445,1308,526.1445" style="stroke:#181818;stroke-width:1.0;"/><line style="stroke:#181818;stroke-width:1.0;" x1="631" x2="1310" y1="526.1445" y2="526.1445"/><text fill="#000000" font-family="sans-serif" font-size="20" lengthAdjust="spacing" textLength="666" x="638" y="519.9258">registerNewUser(email, password, firstName, lastName, email, roles);</text><polygon fill="#181818" points="1720,559.6992,1730,563.6992,1720,567.6992,1724,563.6992" style="stroke:#181818;stroke-width:1.0;"/><line style="stroke:#181818;stroke-width:1.0;" x1="1326" x2="1726" y1="563.6992" y2="563.6992"/><text fill="#000000" font-family="sans-serif" font-size="20" lengthAdjust="spacing" textLength="72" x="1333" y="557.4805">create()</text><polygon fill="#181818" points="1720,597.2539,1730,601.2539,1720,605.2539,1724,601.2539" style="stroke:#181818;stroke-width:1.0;"/><line style="stroke:#181818;stroke-width:1.0;" x1="1326" x2="1726" y1="601.2539" y2="601.2539"/><text fill="#000000" font-family="sans-serif" font-size="20" lengthAdjust="spacing" textLength="382" x="1333" y="595.0352">with(username, password, name, email)</text><polygon fill="#181818" points="1720,634.8086,1730,638.8086,1720,642.8086,1724,638.8086" style="stroke:#181818;stroke-width:1.0;"/><line style="stroke:#181818;stroke-width:1.0;" x1="1326" x2="1726" y1="638.8086" y2="638.8086"/><text fill="#000000" font-family="sans-serif" font-size="20" lengthAdjust="spacing" textLength="153" x="1333" y="632.5898">withRoles(roles)</text><polygon fill="#181818" points="1715,672.3633,1725,676.3633,1715,680.3633,1719,676.3633" style="stroke:#181818;stroke-width:1.0;"/><line style="stroke:#181818;stroke-width:1.0;" x1="1326" x2="1721" y1="676.3633" y2="676.3633"/><text fill="#000000" font-family="sans-serif" font-size="20" lengthAdjust="spacing" textLength="64" x="1333" y="670.1445">build()</text><polygon fill="#181818" points="2209,709.918,2219,713.918,2209,717.918,2213,713.918" style="stroke:#181818;stroke-width:1.0;"/><line style="stroke:#181818;stroke-width:1.0;" x1="1737" x2="2215" y1="713.918" y2="713.918"/><text fill="#000000" font-family="sans-serif" font-size="20" lengthAdjust="spacing" textLength="465" x="1744" y="707.6992">create (username, password, name, email, roles)</text><polygon fill="#181818" points="1748,747.4727,1738,751.4727,1748,755.4727,1744,751.4727" style="stroke:#181818;stroke-width:1.0;"/><line style="stroke:#181818;stroke-width:1.0;stroke-dasharray:2.0,2.0;" x1="1742" x2="2225" y1="751.4727" y2="751.4727"/><text fill="#000000" font-family="sans-serif" font-size="20" lengthAdjust="spacing" textLength="41" x="1754" y="745.2539">user</text><polygon fill="#181818" points="1337,785.0273,1327,789.0273,1337,793.0273,1333,789.0273" style="stroke:#181818;stroke-width:1.0;"/><line style="stroke:#181818;stroke-width:1.0;stroke-dasharray:2.0,2.0;" x1="1331" x2="1731" y1="789.0273" y2="789.0273"/><text fill="#000000" font-family="sans-serif" font-size="20" lengthAdjust="spacing" textLength="41" x="1343" y="782.8086">user</text><polygon fill="#181818" points="2403,822.582,2413,826.582,2403,830.582,2407,826.582" style="stroke:#181818;stroke-width:1.0;"/><line style="stroke:#181818;stroke-width:1.0;" x1="1326" x2="2409" y1="826.582" y2="826.582"/><text fill="#000000" font-family="sans-serif" font-size="20" lengthAdjust="spacing" textLength="128" x="1333" y="820.3633">repositories()</text><polygon fill="#181818" points="2608.5,860.1367,2618.5,864.1367,2608.5,868.1367,2612.5,864.1367" style="stroke:#181818;stroke-width:1.0;"/><line style="stroke:#181818;stroke-width:1.0;" x1="2425" x2="2614.5" y1="864.1367" y2="864.1367"/><text fill="#000000" font-family="sans-serif" font-size="20" lengthAdjust="spacing" textLength="58" x="2432" y="857.918">create</text><polygon fill="#181818" points="1337,897.6914,1327,901.6914,1337,905.6914,1333,901.6914" style="stroke:#181818;stroke-width:1.0;"/><line style="stroke:#181818;stroke-width:1.0;stroke-dasharray:2.0,2.0;" x1="1331" x2="2419" y1="901.6914" y2="901.6914"/><text fill="#000000" font-family="sans-serif" font-size="20" lengthAdjust="spacing" textLength="65" x="1343" y="895.4727">factory</text><polygon fill="#181818" points="2603.5,935.2461,2613.5,939.2461,2603.5,943.2461,2607.5,939.2461" style="stroke:#181818;stroke-width:1.0;"/><line style="stroke:#181818;stroke-width:1.0;" x1="1326" x2="2609.5" y1="939.2461" y2="939.2461"/><text fill="#000000" font-family="sans-serif" font-size="20" lengthAdjust="spacing" textLength="65" x="1333" y="933.0273">users()</text><polygon fill="#181818" points="2793.5,972.8008,2803.5,976.8008,2793.5,980.8008,2797.5,976.8008" style="stroke:#181818;stroke-width:1.0;"/><line style="stroke:#181818;stroke-width:1.0;" x1="2625.5" x2="2799.5" y1="976.8008" y2="976.8008"/><text fill="#000000" font-family="sans-serif" font-size="20" lengthAdjust="spacing" textLength="58" x="2632.5" y="970.582">create</text><polygon fill="#181818" points="1337,1010.3555,1327,1014.3555,1337,1018.3555,1333,1014.3555" style="stroke:#181818;stroke-width:1.0;"/><line style="stroke:#181818;stroke-width:1.0;stroke-dasharray:2.0,2.0;" x1="1331" x2="2619.5" y1="1014.3555" y2="1014.3555"/><text fill="#000000" font-family="sans-serif" font-size="20" lengthAdjust="spacing" textLength="61" x="1343" y="1008.1367">UsRep</text><polygon fill="#181818" points="2793.5,1047.9102,2803.5,1051.9102,2793.5,1055.9102,2797.5,1051.9102" style="stroke:#181818;stroke-width:1.0;"/><line style="stroke:#181818;stroke-width:1.0;" x1="1326" x2="2799.5" y1="1051.9102" y2="1051.9102"/><text fill="#000000" font-family="sans-serif" font-size="20" lengthAdjust="spacing" textLength="97" x="1333" y="1045.6914">save(user)</text><polygon fill="#181818" points="642,1085.4648,632,1089.4648,642,1093.4648,638,1089.4648" style="stroke:#181818;stroke-width:1.0;"/><line style="stroke:#181818;stroke-width:1.0;stroke-dasharray:2.0,2.0;" x1="636" x2="1320" y1="1089.4648" y2="1089.4648"/><text fill="#000000" font-family="sans-serif" font-size="20" lengthAdjust="spacing" textLength="41" x="648" y="1083.2461">user</text><polygon fill="#181818" points="316,1123.0195,306,1127.0195,316,1131.0195,312,1127.0195" style="stroke:#181818;stroke-width:1.0;"/><line style="stroke:#181818;stroke-width:1.0;stroke-dasharray:2.0,2.0;" x1="310" x2="625" y1="1127.0195" y2="1127.0195"/><text fill="#000000" font-family="sans-serif" font-size="20" lengthAdjust="spacing" textLength="41" x="322" y="1120.8008">user</text><polygon fill="#181818" points="56,1160.5742,46,1164.5742,56,1168.5742,52,1164.5742" style="stroke:#181818;stroke-width:1.0;"/><line style="stroke:#181818;stroke-width:1.0;stroke-dasharray:2.0,2.0;" x1="50" x2="299" y1="1164.5742" y2="1164.5742"/><text fill="#000000" font-family="sans-serif" font-size="20" lengthAdjust="spacing" textLength="161" x="62" y="1158.3555">display User Info</text><!--SRC=[XLJ1Rjim3BthAuYUKY01qXqpO42tDa20hYZgvRQBPjE945lo92MPz_MZPCkM76_B8R34Hxwd9rBc96J3DQyhbP-mW09BVgxiLacRYTy87zRC10ZKIghyg5MDOFKPeqZ3ynC_O6RR2a5ZRhayL37077cXha8UeEILGSQii0JDyESPPOxm9FZ1uHRPqpsiO9_1mtgzPlJZkLKQxXwBMiWxu0Rs1ZMZgbRaek7IkbZXDlUxBhvBevi-_8NEf5LLeVQmSJc1E-nNBkauDP8Bg2yYHv_IVy_WFvz5LVI5- -yKTIRG9ckDnThXktAjsHiwOG9yGsq4mSWKfn1_MO-ztKxJth5HHf1JxTORrleisfqHEs9xFntC6oqkt69dC7F_iFf4TiA6hazT5_UqkHks2fLrcsFUBW16RmcOQwHeo7Rfnky_cXCuMq38KkcQMw5ae0qaRzoOgzB54hP26mkllCObV9VmmeVLywhceffMT-BWXIm3LSAxebxxrZPefWH3P5OwxpfdqGmoIYTZK57ni42dOGcKYIQo96eo5bKcdhwNY4JZmTsiViMh9-jBpNB-XV3Zo1Xwb0K2ukexChcBsV1LsEF2tOdq7AC4ENB-AzUvQHQz2VEm7-uhxfemBYnWd3bkCWQvy3z9jxxtezNLMIK2N2rMu1Gwi2TtCmKFOgEptOwclzH-nWGP4WcRcMCsKu3Aqb0E3inZ4gLbD_Qns3ckI7T7u4wOAFIFWOlvMKfL-Es4jdiy8bAV7h644ePVqDzZt1ZJURkvcz3CyUo4qPs2urbBtu92cARYRRVSqMiJfxbNY_q1]--></g></svg>