<?xml version="1.0" encoding="UTF-8" standalone="no"?><svg xmlns="http://www.w3.org/2000/svg" xmlns:xlink="http://www.w3.org/1999/xlink" contentStyleType="text/css" height="1138px" preserveAspectRatio="none" style="width:1658px;height:1138px;background:#FFFFFF;" version="1.1" viewBox="0 0 1658 1138" width="1658px" zoomAndPan="magnify"><defs/><g><text fill="#000000" font-family="sans-serif" font-size="14" font-weight="bold" lengthAdjust="spacing" textLength="244" x="706" y="28.5352">Sequence Diagram (SD) - US 1000</text><rect fill="#FFFFFF" height="905.7578" style="stroke:#181818;stroke-width:1.0;" width="10" x="35" y="136.043"/><rect fill="#FFFFFF" height="830.6484" style="stroke:#181818;stroke-width:1.0;" width="10" x="306" y="211.1523"/><rect fill="#FFFFFF" height="403.5469" style="stroke:#181818;stroke-width:1.0;" width="10" x="538" y="291.2617"/><rect fill="#FFFFFF" height="187.7734" style="stroke:#181818;stroke-width:1.0;" width="10" x="538" y="807.4727"/><rect fill="#FFFFFF" height="328.4375" style="stroke:#181818;stroke-width:1.0;" width="10" x="803.5" y="328.8164"/><rect fill="#FFFFFF" height="112.6641" style="stroke:#181818;stroke-width:1.0;" width="10" x="803.5" y="845.0273"/><rect fill="#FFFFFF" height="89.1094" style="stroke:#181818;stroke-width:1.0;" width="10" x="1038" y="366.3711"/><rect fill="#FFFFFF" height="14" style="stroke:#181818;stroke-width:1.0;" width="10" x="1238.5" y="403.9258"/><rect fill="#FFFFFF" height="75.1094" style="stroke:#181818;stroke-width:1.0;" width="10" x="1238.5" y="493.0352"/><rect fill="#FFFFFF" height="14" style="stroke:#181818;stroke-width:1.0;" width="10" x="1423.5" y="605.6992"/><line style="stroke:#181818;stroke-width:0.5;stroke-dasharray:5.0,5.0;" x1="40" x2="40" y1="126.043" y2="1050.8008"/><line style="stroke:#181818;stroke-width:0.5;stroke-dasharray:5.0,5.0;" x1="311" x2="311" y1="126.043" y2="1050.8008"/><line style="stroke:#181818;stroke-width:0.5;stroke-dasharray:5.0,5.0;" x1="543" x2="543" y1="126.043" y2="1050.8008"/><line style="stroke:#181818;stroke-width:0.5;stroke-dasharray:5.0,5.0;" x1="808" x2="808" y1="126.043" y2="1050.8008"/><line style="stroke:#181818;stroke-width:0.5;stroke-dasharray:5.0,5.0;" x1="1043" x2="1043" y1="126.043" y2="1050.8008"/><line style="stroke:#181818;stroke-width:0.5;stroke-dasharray:5.0,5.0;" x1="1243" x2="1243" y1="126.043" y2="1050.8008"/><line style="stroke:#181818;stroke-width:0.5;stroke-dasharray:5.0,5.0;" x1="1428" x2="1428" y1="126.043" y2="1050.8008"/><line style="stroke:#181818;stroke-width:0.5;stroke-dasharray:5.0,5.0;" x1="1586" x2="1586" y1="126.043" y2="1050.8008"/><text fill="#000000" font-family="sans-serif" font-size="20" lengthAdjust="spacing" textLength="64" x="5" y="121.8242">Admin</text><ellipse cx="40" cy="50.9883" fill="#E3E3E3" rx="8" ry="8" style="stroke:#181818;stroke-width:0.5;"/><path d="M40,58.9883 L40,85.9883 M27,66.9883 L53,66.9883 M40,85.9883 L27,100.9883 M40,85.9883 L53,100.9883 " fill="none" style="stroke:#181818;stroke-width:0.5;"/><text fill="#000000" font-family="sans-serif" font-size="20" lengthAdjust="spacing" textLength="64" x="5" y="1069.1367">Admin</text><ellipse cx="40" cy="1081.8555" fill="#E3E3E3" rx="8" ry="8" style="stroke:#181818;stroke-width:0.5;"/><path d="M40,1089.8555 L40,1116.8555 M27,1097.8555 L53,1097.8555 M40,1116.8555 L27,1131.8555 M40,1116.8555 L53,1131.8555 " fill="none" style="stroke:#181818;stroke-width:0.5;"/><rect fill="#E3E3E3" height="37.5547" rx="2.5" ry="2.5" style="stroke:#181818;stroke-width:0.5;" width="186" x="218" y="87.4883"/><text fill="#000000" font-family="sans-serif" font-size="20" lengthAdjust="spacing" textLength="172" x="225" y="113.8242">DeactivateUsersUI</text><rect fill="#E3E3E3" height="37.5547" rx="2.5" ry="2.5" style="stroke:#181818;stroke-width:0.5;" width="186" x="218" y="1049.8008"/><text fill="#000000" font-family="sans-serif" font-size="20" lengthAdjust="spacing" textLength="172" x="225" y="1076.1367">DeactivateUsersUI</text><rect fill="#E3E3E3" height="37.5547" rx="2.5" ry="2.5" style="stroke:#181818;stroke-width:0.5;" width="258" x="414" y="87.4883"/><text fill="#000000" font-family="sans-serif" font-size="20" lengthAdjust="spacing" textLength="244" x="421" y="113.8242">:DeactivateUserController</text><rect fill="#E3E3E3" height="37.5547" rx="2.5" ry="2.5" style="stroke:#181818;stroke-width:0.5;" width="258" x="414" y="1049.8008"/><text fill="#000000" font-family="sans-serif" font-size="20" lengthAdjust="spacing" textLength="244" x="421" y="1076.1367">:DeactivateUserController</text><rect fill="#E3E3E3" height="37.5547" rx="2.5" ry="2.5" style="stroke:#181818;stroke-width:0.5;" width="253" x="682" y="87.4883"/><text fill="#000000" font-family="sans-serif" font-size="20" lengthAdjust="spacing" textLength="239" x="689" y="113.8242">:UserManagementService</text><rect fill="#E3E3E3" height="37.5547" rx="2.5" ry="2.5" style="stroke:#181818;stroke-width:0.5;" width="253" x="682" y="1049.8008"/><text fill="#000000" font-family="sans-serif" font-size="20" lengthAdjust="spacing" textLength="239" x="689" y="1076.1367">:UserManagementService</text><rect fill="#E3E3E3" height="37.5547" rx="2.5" ry="2.5" style="stroke:#181818;stroke-width:0.5;" width="196" x="945" y="87.4883"/><text fill="#000000" font-family="sans-serif" font-size="20" lengthAdjust="spacing" textLength="182" x="952" y="113.8242">PersistenceContext</text><rect fill="#E3E3E3" height="37.5547" rx="2.5" ry="2.5" style="stroke:#181818;stroke-width:0.5;" width="196" x="945" y="1049.8008"/><text fill="#000000" font-family="sans-serif" font-size="20" lengthAdjust="spacing" textLength="182" x="952" y="1076.1367">PersistenceContext</text><rect fill="#E3E3E3" height="37.5547" rx="2.5" ry="2.5" style="stroke:#181818;stroke-width:0.5;" width="185" x="1151" y="87.4883"/><text fill="#000000" font-family="sans-serif" font-size="20" lengthAdjust="spacing" textLength="171" x="1158" y="113.8242">RepositoryFactory</text><rect fill="#E3E3E3" height="37.5547" rx="2.5" ry="2.5" style="stroke:#181818;stroke-width:0.5;" width="185" x="1151" y="1049.8008"/><text fill="#000000" font-family="sans-serif" font-size="20" lengthAdjust="spacing" textLength="171" x="1158" y="1076.1367">RepositoryFactory</text><rect fill="#E3E3E3" height="37.5547" rx="2.5" ry="2.5" style="stroke:#181818;stroke-width:0.5;" width="165" x="1346" y="87.4883"/><text fill="#000000" font-family="sans-serif" font-size="20" lengthAdjust="spacing" textLength="151" x="1353" y="113.8242">:UserRepository</text><rect fill="#E3E3E3" height="37.5547" rx="2.5" ry="2.5" style="stroke:#181818;stroke-width:0.5;" width="165" x="1346" y="1049.8008"/><text fill="#000000" font-family="sans-serif" font-size="20" lengthAdjust="spacing" textLength="151" x="1353" y="1076.1367">:UserRepository</text><rect fill="#E3E3E3" height="37.5547" rx="2.5" ry="2.5" style="stroke:#181818;stroke-width:0.5;" width="131" x="1521" y="87.4883"/><text fill="#000000" font-family="sans-serif" font-size="20" lengthAdjust="spacing" textLength="117" x="1528" y="113.8242">:SystemUser</text><rect fill="#E3E3E3" height="37.5547" rx="2.5" ry="2.5" style="stroke:#181818;stroke-width:0.5;" width="131" x="1521" y="1049.8008"/><text fill="#000000" font-family="sans-serif" font-size="20" lengthAdjust="spacing" textLength="117" x="1528" y="1076.1367">:SystemUser</text><rect fill="#FFFFFF" height="905.7578" style="stroke:#181818;stroke-width:1.0;" width="10" x="35" y="136.043"/><rect fill="#FFFFFF" height="830.6484" style="stroke:#181818;stroke-width:1.0;" width="10" x="306" y="211.1523"/><rect fill="#FFFFFF" height="403.5469" style="stroke:#181818;stroke-width:1.0;" width="10" x="538" y="291.2617"/><rect fill="#FFFFFF" height="187.7734" style="stroke:#181818;stroke-width:1.0;" width="10" x="538" y="807.4727"/><rect fill="#FFFFFF" height="328.4375" style="stroke:#181818;stroke-width:1.0;" width="10" x="803.5" y="328.8164"/><rect fill="#FFFFFF" height="112.6641" style="stroke:#181818;stroke-width:1.0;" width="10" x="803.5" y="845.0273"/><rect fill="#FFFFFF" height="89.1094" style="stroke:#181818;stroke-width:1.0;" width="10" x="1038" y="366.3711"/><rect fill="#FFFFFF" height="14" style="stroke:#181818;stroke-width:1.0;" width="10" x="1238.5" y="403.9258"/><rect fill="#FFFFFF" height="75.1094" style="stroke:#181818;stroke-width:1.0;" width="10" x="1238.5" y="493.0352"/><rect fill="#FFFFFF" height="14" style="stroke:#181818;stroke-width:1.0;" width="10" x="1423.5" y="605.6992"/><polygon fill="#181818" points="299,161.5977,309,165.5977,299,169.5977,303,165.5977" style="stroke:#181818;stroke-width:1.0;"/><line style="stroke:#181818;stroke-width:1.0;" x1="45" x2="305" y1="165.5977" y2="165.5977"/><text fill="#000000" font-family="sans-serif" font-size="20" lengthAdjust="spacing" textLength="63" x="52" y="159.3789">show()</text><line style="stroke:#181818;stroke-width:1.0;stroke-dasharray:2.0,2.0;" x1="311" x2="358" y1="198.1523" y2="198.1523"/><line style="stroke:#181818;stroke-width:1.0;stroke-dasharray:2.0,2.0;" x1="358" x2="358" y1="198.1523" y2="211.1523"/><line style="stroke:#181818;stroke-width:1.0;stroke-dasharray:2.0,2.0;" x1="317" x2="358" y1="211.1523" y2="211.1523"/><polygon fill="#181818" points="327,207.1523,317,211.1523,327,215.1523,323,211.1523" style="stroke:#181818;stroke-width:1.0;"/><text fill="#000000" font-family="sans-serif" font-size="20" lengthAdjust="spacing" textLength="89" x="323" y="191.9336">doShow()</text><polygon fill="#181818" points="531,249.707,541,253.707,531,257.707,535,253.707" style="stroke:#181818;stroke-width:1.0;"/><line style="stroke:#181818;stroke-width:1.0;stroke-dasharray:2.0,2.0;" x1="316" x2="537" y1="253.707" y2="253.707"/><text fill="#000000" font-family="sans-serif" font-size="20" lengthAdjust="spacing" textLength="72" x="323" y="247.4883">create()</text><polygon fill="#181818" points="526,287.2617,536,291.2617,526,295.2617,530,291.2617" style="stroke:#181818;stroke-width:1.0;"/><line style="stroke:#181818;stroke-width:1.0;" x1="316" x2="532" y1="291.2617" y2="291.2617"/><text fill="#000000" font-family="sans-serif" font-size="20" lengthAdjust="spacing" textLength="122" x="323" y="285.043">activeUsers()</text><polygon fill="#181818" points="791.5,324.8164,801.5,328.8164,791.5,332.8164,795.5,328.8164" style="stroke:#181818;stroke-width:1.0;"/><line style="stroke:#181818;stroke-width:1.0;" x1="548" x2="797.5" y1="328.8164" y2="328.8164"/><text fill="#000000" font-family="sans-serif" font-size="20" lengthAdjust="spacing" textLength="153" x="555" y="322.5977">activatedUsers()</text><polygon fill="#181818" points="1026,362.3711,1036,366.3711,1026,370.3711,1030,366.3711" style="stroke:#181818;stroke-width:1.0;"/><line style="stroke:#181818;stroke-width:1.0;" x1="813.5" x2="1032" y1="366.3711" y2="366.3711"/><text fill="#000000" font-family="sans-serif" font-size="20" lengthAdjust="spacing" textLength="128" x="820.5" y="360.1523">repositories()</text><polygon fill="#181818" points="1226.5,399.9258,1236.5,403.9258,1226.5,407.9258,1230.5,403.9258" style="stroke:#181818;stroke-width:1.0;"/><line style="stroke:#181818;stroke-width:1.0;" x1="1048" x2="1232.5" y1="403.9258" y2="403.9258"/><text fill="#000000" font-family="sans-serif" font-size="20" lengthAdjust="spacing" textLength="72" x="1055" y="397.707">create()</text><polygon fill="#181818" points="1059,413.9258,1049,417.9258,1059,421.9258,1055,417.9258" style="stroke:#181818;stroke-width:1.0;"/><line style="stroke:#181818;stroke-width:1.0;stroke-dasharray:2.0,2.0;" x1="1053" x2="1242.5" y1="417.9258" y2="417.9258"/><polygon fill="#181818" points="824.5,451.4805,814.5,455.4805,824.5,459.4805,820.5,455.4805" style="stroke:#181818;stroke-width:1.0;"/><line style="stroke:#181818;stroke-width:1.0;stroke-dasharray:2.0,2.0;" x1="818.5" x2="1042" y1="455.4805" y2="455.4805"/><text fill="#000000" font-family="sans-serif" font-size="20" lengthAdjust="spacing" textLength="65" x="830.5" y="449.2617">factory</text><polygon fill="#181818" points="1226.5,489.0352,1236.5,493.0352,1226.5,497.0352,1230.5,493.0352" style="stroke:#181818;stroke-width:1.0;"/><line style="stroke:#181818;stroke-width:1.0;" x1="813.5" x2="1232.5" y1="493.0352" y2="493.0352"/><text fill="#000000" font-family="sans-serif" font-size="20" lengthAdjust="spacing" textLength="65" x="820.5" y="486.8164">users()</text><polygon fill="#181818" points="1416.5,526.5898,1426.5,530.5898,1416.5,534.5898,1420.5,530.5898" style="stroke:#181818;stroke-width:1.0;"/><line style="stroke:#181818;stroke-width:1.0;" x1="1248.5" x2="1422.5" y1="530.5898" y2="530.5898"/><text fill="#000000" font-family="sans-serif" font-size="20" lengthAdjust="spacing" textLength="72" x="1255.5" y="524.3711">create()</text><polygon fill="#181818" points="824.5,564.1445,814.5,568.1445,824.5,572.1445,820.5,568.1445" style="stroke:#181818;stroke-width:1.0;"/><line style="stroke:#181818;stroke-width:1.0;stroke-dasharray:2.0,2.0;" x1="818.5" x2="1242.5" y1="568.1445" y2="568.1445"/><text fill="#000000" font-family="sans-serif" font-size="20" lengthAdjust="spacing" textLength="143" x="830.5" y="561.9258">userRepository</text><polygon fill="#181818" points="1411.5,601.6992,1421.5,605.6992,1411.5,609.6992,1415.5,605.6992" style="stroke:#181818;stroke-width:1.0;"/><line style="stroke:#181818;stroke-width:1.0;" x1="813.5" x2="1417.5" y1="605.6992" y2="605.6992"/><text fill="#000000" font-family="sans-serif" font-size="20" lengthAdjust="spacing" textLength="170" x="820.5" y="599.4805">findByActive(true)</text><polygon fill="#181818" points="824.5,615.6992,814.5,619.6992,824.5,623.6992,820.5,619.6992" style="stroke:#181818;stroke-width:1.0;"/><line style="stroke:#181818;stroke-width:1.0;stroke-dasharray:2.0,2.0;" x1="818.5" x2="1427.5" y1="619.6992" y2="619.6992"/><polygon fill="#181818" points="559,653.2539,549,657.2539,559,661.2539,555,657.2539" style="stroke:#181818;stroke-width:1.0;"/><line style="stroke:#181818;stroke-width:1.0;stroke-dasharray:2.0,2.0;" x1="553" x2="807.5" y1="657.2539" y2="657.2539"/><text fill="#000000" font-family="sans-serif" font-size="20" lengthAdjust="spacing" textLength="142" x="565" y="651.0352">activeUsersList</text><polygon fill="#181818" points="327,690.8086,317,694.8086,327,698.8086,323,694.8086" style="stroke:#181818;stroke-width:1.0;"/><line style="stroke:#181818;stroke-width:1.0;stroke-dasharray:2.0,2.0;" x1="321" x2="542" y1="694.8086" y2="694.8086"/><text fill="#000000" font-family="sans-serif" font-size="20" lengthAdjust="spacing" textLength="142" x="333" y="688.5898">activeUsersList</text><polygon fill="#181818" points="56,728.3633,46,732.3633,56,736.3633,52,732.3633" style="stroke:#181818;stroke-width:1.0;"/><line style="stroke:#181818;stroke-width:1.0;stroke-dasharray:2.0,2.0;" x1="50" x2="305" y1="732.3633" y2="732.3633"/><text fill="#000000" font-family="sans-serif" font-size="20" lengthAdjust="spacing" textLength="237" x="62" y="726.1445">show List of Active Users</text><polygon fill="#181818" points="294,765.918,304,769.918,294,773.918,298,769.918" style="stroke:#181818;stroke-width:1.0;"/><line style="stroke:#181818;stroke-width:1.0;" x1="45" x2="300" y1="769.918" y2="769.918"/><text fill="#000000" font-family="sans-serif" font-size="20" lengthAdjust="spacing" textLength="41" x="52" y="763.6992">user</text><polygon fill="#181818" points="526,803.4727,536,807.4727,526,811.4727,530,807.4727" style="stroke:#181818;stroke-width:1.0;"/><line style="stroke:#181818;stroke-width:1.0;" x1="316" x2="532" y1="807.4727" y2="807.4727"/><text fill="#000000" font-family="sans-serif" font-size="20" lengthAdjust="spacing" textLength="195" x="323" y="801.2539">deactivateUser(user)</text><polygon fill="#181818" points="791.5,841.0273,801.5,845.0273,791.5,849.0273,795.5,845.0273" style="stroke:#181818;stroke-width:1.0;"/><line style="stroke:#181818;stroke-width:1.0;" x1="548" x2="797.5" y1="845.0273" y2="845.0273"/><text fill="#000000" font-family="sans-serif" font-size="20" lengthAdjust="spacing" textLength="195" x="555" y="838.8086">deactivateUser(user)</text><polygon fill="#181818" points="1574.5,878.582,1584.5,882.582,1574.5,886.582,1578.5,882.582" style="stroke:#181818;stroke-width:1.0;"/><line style="stroke:#181818;stroke-width:1.0;" x1="813.5" x2="1580.5" y1="882.582" y2="882.582"/><text fill="#000000" font-family="sans-serif" font-size="20" lengthAdjust="spacing" textLength="111" x="820.5" y="876.3633">deactivate()</text><polygon fill="#181818" points="1416.5,916.1367,1426.5,920.1367,1416.5,924.1367,1420.5,920.1367" style="stroke:#181818;stroke-width:1.0;"/><line style="stroke:#181818;stroke-width:1.0;" x1="813.5" x2="1422.5" y1="920.1367" y2="920.1367"/><text fill="#000000" font-family="sans-serif" font-size="20" lengthAdjust="spacing" textLength="97" x="820.5" y="913.918">save(user)</text><polygon fill="#181818" points="559,953.6914,549,957.6914,559,961.6914,555,957.6914" style="stroke:#181818;stroke-width:1.0;"/><line style="stroke:#181818;stroke-width:1.0;stroke-dasharray:2.0,2.0;" x1="553" x2="807.5" y1="957.6914" y2="957.6914"/><text fill="#000000" font-family="sans-serif" font-size="20" lengthAdjust="spacing" textLength="41" x="565" y="951.4727">user</text><polygon fill="#181818" points="327,991.2461,317,995.2461,327,999.2461,323,995.2461" style="stroke:#181818;stroke-width:1.0;"/><line style="stroke:#181818;stroke-width:1.0;stroke-dasharray:2.0,2.0;" x1="321" x2="542" y1="995.2461" y2="995.2461"/><text fill="#000000" font-family="sans-serif" font-size="20" lengthAdjust="spacing" textLength="41" x="333" y="989.0273">user</text><polygon fill="#181818" points="56,1028.8008,46,1032.8008,56,1036.8008,52,1032.8008" style="stroke:#181818;stroke-width:1.0;"/><line style="stroke:#181818;stroke-width:1.0;stroke-dasharray:2.0,2.0;" x1="50" x2="305" y1="1032.8008" y2="1032.8008"/><text fill="#000000" font-family="sans-serif" font-size="20" lengthAdjust="spacing" textLength="236" x="62" y="1026.582">shows operation success</text><!--SRC=[dLJBRjim4BphAnO-EGS3Reyv14Xh133G0aK5Vm11hHp24gcIL5BrwxiaHKkKw1YjJp9tPlOnIvgBa1tJh6qKls055TQiR-oBahOKVn0-xmiJ8T0ggVYhLYs2rJtE8XtZ5tR6qWuDWaPkcJmtSu1vPPLw5_8CDMiC5eKLbg0b_kfHSeI3O6U7svQ71zZ1gOHF-_s-e1_ZLcdOF5Uja1jW1au6TK6gLd3HCMbXSq02YJTcqSNCwHXmnnJrcCA-KejQDGrgZvx-BbWE-vr9wgv56WhgDy7HKyRl8YNye0g4iQuhfuc_hGUlZrFQJ-oK4TJgyE8x7ZoBJZFbJDXn86jOEL2kre53gOCvcJ1CFu0mn0BevxvWzqJZWaUoIRrl7ueGyT4Zx6AmKcK8ky2aT1nr0dAQ8p6uHe8umOXO0BnAS6sfEpF41sOyKXbd7oM8K6LLhXwvqqWY_jeEaj9nhW9NGXd_F20ZHF9aoBpzHCcPvKySQ9UjnOShN5DosP9fr65vbWAtgfzD99JSvuQOLlmK5cvbRsndAgPFTlLcKxCYed8jPFLbUFRRiNLlpNBfp9KTA4dYPQOP-fhhWqtyHfDQIYHxD5_5U3dky9VR7E-LySdTjGD70rL3wDg7JEQAzcQkiUYYIfwuhSF-vxMwhtJhQlct9b686v8nsZ0oE8X_x8zl-rzDoP7kEs50TQYP5Kg2wJb7OyONSR6zVm40]--></g></svg>