<?xml version="1.0" encoding="UTF-8" standalone="no"?><svg xmlns="http://www.w3.org/2000/svg" xmlns:xlink="http://www.w3.org/1999/xlink" contentStyleType="text/css" height="800px" preserveAspectRatio="none" style="width:1271px;height:800px;background:#FFFFFF;" version="1.1" viewBox="0 0 1271 800" width="1271px" zoomAndPan="magnify"><defs/><g><!--class ListBackOfficeUsersUI--><g id="elem_ListBackOfficeUsersUI"><rect codeLine="8" fill="#F1F1F1" height="50" id="ListBackOfficeUsersUI" rx="2.5" ry="2.5" style="stroke:#181818;stroke-width:0.5;" width="243" x="45" y="7"/><ellipse cx="61" cy="24" fill="#ADD1B2" rx="12" ry="12" style="stroke:#181818;stroke-width:1.0;"/><path d="M63.8066,31.0801 Q63.123,31.4316 62.3711,31.6074 Q61.6191,31.7832 60.7891,31.7832 Q57.8398,31.7832 56.2871,29.8398 Q54.7344,27.8965 54.7344,24.2246 Q54.7344,20.543 56.2871,18.5996 Q57.8398,16.6563 60.7891,16.6563 Q61.6191,16.6563 62.3809,16.832 Q63.1426,17.0078 63.8066,17.3594 L63.8066,20.5625 Q63.0645,19.8789 62.3662,19.5615 Q61.668,19.2441 60.9258,19.2441 Q59.3438,19.2441 58.5381,20.499 Q57.7324,21.7539 57.7324,24.2246 Q57.7324,26.6855 58.5381,27.9404 Q59.3438,29.1953 60.9258,29.1953 Q61.668,29.1953 62.3662,28.8779 Q63.0645,28.5605 63.8066,27.877 Z " fill="#000000"/><text fill="#000000" font-family="sans-serif" font-size="20" lengthAdjust="spacing" textLength="209" x="76" y="31.5586">ListBackOfficeUsersUI</text><line style="stroke:#181818;stroke-width:0.5;" x1="46" x2="287" y1="41" y2="41"/><line style="stroke:#181818;stroke-width:0.5;" x1="46" x2="287" y1="49" y2="49"/></g><!--class ListBackOfficeUsersController--><g id="elem_ListBackOfficeUsersController"><rect codeLine="10" fill="#F1F1F1" height="50" id="ListBackOfficeUsersController" rx="2.5" ry="2.5" style="stroke:#181818;stroke-width:0.5;" width="319" x="7" y="118"/><ellipse cx="23" cy="135" fill="#ADD1B2" rx="12" ry="12" style="stroke:#181818;stroke-width:1.0;"/><path d="M25.8066,142.0801 Q25.123,142.4316 24.3711,142.6074 Q23.6191,142.7832 22.7891,142.7832 Q19.8398,142.7832 18.2871,140.8398 Q16.7344,138.8965 16.7344,135.2246 Q16.7344,131.543 18.2871,129.5996 Q19.8398,127.6563 22.7891,127.6563 Q23.6191,127.6563 24.3809,127.832 Q25.1426,128.0078 25.8066,128.3594 L25.8066,131.5625 Q25.0645,130.8789 24.3662,130.5615 Q23.668,130.2441 22.9258,130.2441 Q21.3438,130.2441 20.5381,131.499 Q19.7324,132.7539 19.7324,135.2246 Q19.7324,137.6855 20.5381,138.9404 Q21.3438,140.1953 22.9258,140.1953 Q23.668,140.1953 24.3662,139.8779 Q25.0645,139.5605 25.8066,138.877 Z " fill="#000000"/><text fill="#000000" font-family="sans-serif" font-size="20" lengthAdjust="spacing" textLength="285" x="38" y="142.5586">ListBackOfficeUsersController</text><line style="stroke:#181818;stroke-width:0.5;" x1="8" x2="325" y1="152" y2="152"/><line style="stroke:#181818;stroke-width:0.5;" x1="8" x2="325" y1="160" y2="160"/></g><!--class UserManagementService--><g id="elem_UserManagementService"><rect codeLine="12" fill="#F1F1F1" height="50" id="UserManagementService" rx="2.5" ry="2.5" style="stroke:#181818;stroke-width:0.5;" width="267" x="522" y="302.78"/><ellipse cx="538" cy="319.78" fill="#ADD1B2" rx="12" ry="12" style="stroke:#181818;stroke-width:1.0;"/><path d="M540.8066,326.8601 Q540.123,327.2116 539.3711,327.3874 Q538.6191,327.5632 537.7891,327.5632 Q534.8398,327.5632 533.2871,325.6198 Q531.7344,323.6765 531.7344,320.0046 Q531.7344,316.323 533.2871,314.3796 Q534.8398,312.4363 537.7891,312.4363 Q538.6191,312.4363 539.3809,312.612 Q540.1426,312.7878 540.8066,313.1394 L540.8066,316.3425 Q540.0645,315.6589 539.3662,315.3415 Q538.668,315.0241 537.9258,315.0241 Q536.3438,315.0241 535.5381,316.279 Q534.7324,317.5339 534.7324,320.0046 Q534.7324,322.4655 535.5381,323.7204 Q536.3438,324.9753 537.9258,324.9753 Q538.668,324.9753 539.3662,324.6579 Q540.0645,324.3405 540.8066,323.657 Z " fill="#000000"/><text fill="#000000" font-family="sans-serif" font-size="20" lengthAdjust="spacing" textLength="233" x="553" y="327.3386">UserManagementService</text><line style="stroke:#181818;stroke-width:0.5;" x1="523" x2="788" y1="336.78" y2="336.78"/><line style="stroke:#181818;stroke-width:0.5;" x1="523" x2="788" y1="344.78" y2="344.78"/></g><!--class UserRepository--><g id="elem_UserRepository"><rect codeLine="14" fill="#F1F1F1" height="73.5547" id="UserRepository" rx="2.5" ry="2.5" style="stroke:#181818;stroke-width:0.5;" width="318" x="824.5" y="291"/><ellipse cx="906.5" cy="308" fill="#B4A7E5" rx="12" ry="12" style="stroke:#181818;stroke-width:1.0;"/><path d="M902.1797,303.459 L902.1797,300.9199 L910.8613,300.9199 L910.8613,303.459 L907.9609,303.459 L907.9609,312.9609 L910.8613,312.9609 L910.8613,315.5 L902.1797,315.5 L902.1797,312.9609 L905.0801,312.9609 L905.0801,303.459 Z " fill="#000000"/><text fill="#000000" font-family="sans-serif" font-size="20" font-style="italic" lengthAdjust="spacing" textLength="145" x="928.5" y="315.5586">UserRepository</text><line style="stroke:#181818;stroke-width:0.5;" x1="825.5" x2="1141.5" y1="325" y2="325"/><line style="stroke:#181818;stroke-width:0.5;" x1="825.5" x2="1141.5" y1="333" y2="333"/><text fill="#000000" font-family="sans-serif" font-size="20" lengthAdjust="spacing" textLength="306" x="830.5" y="356.3359">Iterable&lt;SystemUser&gt; findAll();</text></g><!--class JpaUserRepository--><g id="elem_JpaUserRepository"><rect codeLine="18" fill="#F1F1F1" height="50" id="JpaUserRepository" rx="2.5" ry="2.5" style="stroke:#181818;stroke-width:0.5;" width="209" x="726" y="449.56"/><ellipse cx="742" cy="466.56" fill="#ADD1B2" rx="12" ry="12" style="stroke:#181818;stroke-width:1.0;"/><path d="M744.8066,473.6401 Q744.123,473.9916 743.3711,474.1674 Q742.6191,474.3432 741.7891,474.3432 Q738.8398,474.3432 737.2871,472.3998 Q735.7344,470.4565 735.7344,466.7846 Q735.7344,463.103 737.2871,461.1596 Q738.8398,459.2163 741.7891,459.2163 Q742.6191,459.2163 743.3809,459.392 Q744.1426,459.5678 744.8066,459.9194 L744.8066,463.1225 Q744.0645,462.4389 743.3662,462.1215 Q742.668,461.8041 741.9258,461.8041 Q740.3438,461.8041 739.5381,463.059 Q738.7324,464.3139 738.7324,466.7846 Q738.7324,469.2455 739.5381,470.5004 Q740.3438,471.7553 741.9258,471.7553 Q742.668,471.7553 743.3662,471.4379 Q744.0645,471.1205 744.8066,470.437 Z " fill="#000000"/><text fill="#000000" font-family="sans-serif" font-size="20" lengthAdjust="spacing" textLength="175" x="757" y="474.1186">JpaUserRepository</text><line style="stroke:#181818;stroke-width:0.5;" x1="727" x2="934" y1="483.56" y2="483.56"/><line style="stroke:#181818;stroke-width:0.5;" x1="727" x2="934" y1="491.56" y2="491.56"/></g><!--class JpaBaseRepository--><g id="elem_JpaBaseRepository"><rect codeLine="20" fill="#F1F1F1" height="50" id="JpaBaseRepository" rx="2.5" ry="2.5" style="stroke:#181818;stroke-width:0.5;" width="210" x="713.5" y="584.56"/><ellipse cx="729.5" cy="601.56" fill="#ADD1B2" rx="12" ry="12" style="stroke:#181818;stroke-width:1.0;"/><path d="M732.3066,608.6401 Q731.623,608.9916 730.8711,609.1674 Q730.1191,609.3432 729.2891,609.3432 Q726.3398,609.3432 724.7871,607.3998 Q723.2344,605.4565 723.2344,601.7846 Q723.2344,598.103 724.7871,596.1596 Q726.3398,594.2163 729.2891,594.2163 Q730.1191,594.2163 730.8809,594.392 Q731.6426,594.5678 732.3066,594.9194 L732.3066,598.1225 Q731.5645,597.4389 730.8662,597.1215 Q730.168,596.8041 729.4258,596.8041 Q727.8438,596.8041 727.0381,598.059 Q726.2324,599.3139 726.2324,601.7846 Q726.2324,604.2455 727.0381,605.5004 Q727.8438,606.7553 729.4258,606.7553 Q730.168,606.7553 730.8662,606.4379 Q731.5645,606.1205 732.3066,605.437 Z " fill="#000000"/><text fill="#000000" font-family="sans-serif" font-size="20" lengthAdjust="spacing" textLength="176" x="744.5" y="609.1186">JpaBaseRepository</text><line style="stroke:#181818;stroke-width:0.5;" x1="714.5" x2="922.5" y1="618.56" y2="618.56"/><line style="stroke:#181818;stroke-width:0.5;" x1="714.5" x2="922.5" y1="626.56" y2="626.56"/></g><!--class InMemoryUserRepository--><g id="elem_InMemoryUserRepository"><rect codeLine="22" fill="#F1F1F1" height="50" id="InMemoryUserRepository" rx="2.5" ry="2.5" style="stroke:#181818;stroke-width:0.5;" width="274" x="972.5" y="449.56"/><ellipse cx="988.5" cy="466.56" fill="#ADD1B2" rx="12" ry="12" style="stroke:#181818;stroke-width:1.0;"/><path d="M991.3066,473.6401 Q990.623,473.9916 989.8711,474.1674 Q989.1191,474.3432 988.2891,474.3432 Q985.3398,474.3432 983.7871,472.3998 Q982.2344,470.4565 982.2344,466.7846 Q982.2344,463.103 983.7871,461.1596 Q985.3398,459.2163 988.2891,459.2163 Q989.1191,459.2163 989.8809,459.392 Q990.6426,459.5678 991.3066,459.9194 L991.3066,463.1225 Q990.5645,462.4389 989.8662,462.1215 Q989.168,461.8041 988.4258,461.8041 Q986.8438,461.8041 986.0381,463.059 Q985.2324,464.3139 985.2324,466.7846 Q985.2324,469.2455 986.0381,470.5004 Q986.8438,471.7553 988.4258,471.7553 Q989.168,471.7553 989.8662,471.4379 Q990.5645,471.1205 991.3066,470.437 Z " fill="#000000"/><text fill="#000000" font-family="sans-serif" font-size="20" lengthAdjust="spacing" textLength="240" x="1003.5" y="474.1186">InMemoryUserRepository</text><line style="stroke:#181818;stroke-width:0.5;" x1="973.5" x2="1245.5" y1="483.56" y2="483.56"/><line style="stroke:#181818;stroke-width:0.5;" x1="973.5" x2="1245.5" y1="491.56" y2="491.56"/></g><!--class InMemoryDomainRepository--><g id="elem_InMemoryDomainRepository"><rect codeLine="24" fill="#F1F1F1" height="50" id="InMemoryDomainRepository" rx="2.5" ry="2.5" style="stroke:#181818;stroke-width:0.5;" width="306" x="958.5" y="584.56"/><ellipse cx="974.5" cy="601.56" fill="#ADD1B2" rx="12" ry="12" style="stroke:#181818;stroke-width:1.0;"/><path d="M977.3066,608.6401 Q976.623,608.9916 975.8711,609.1674 Q975.1191,609.3432 974.2891,609.3432 Q971.3398,609.3432 969.7871,607.3998 Q968.2344,605.4565 968.2344,601.7846 Q968.2344,598.103 969.7871,596.1596 Q971.3398,594.2163 974.2891,594.2163 Q975.1191,594.2163 975.8809,594.392 Q976.6426,594.5678 977.3066,594.9194 L977.3066,598.1225 Q976.5645,597.4389 975.8662,597.1215 Q975.168,596.8041 974.4258,596.8041 Q972.8438,596.8041 972.0381,598.059 Q971.2324,599.3139 971.2324,601.7846 Q971.2324,604.2455 972.0381,605.5004 Q972.8438,606.7553 974.4258,606.7553 Q975.168,606.7553 975.8662,606.4379 Q976.5645,606.1205 977.3066,605.437 Z " fill="#000000"/><text fill="#000000" font-family="sans-serif" font-size="20" lengthAdjust="spacing" textLength="272" x="989.5" y="609.1186">InMemoryDomainRepository</text><line style="stroke:#181818;stroke-width:0.5;" x1="959.5" x2="1263.5" y1="618.56" y2="618.56"/><line style="stroke:#181818;stroke-width:0.5;" x1="959.5" x2="1263.5" y1="626.56" y2="626.56"/></g><!--class DomainRepository--><g id="elem_DomainRepository"><rect codeLine="26" fill="#F1F1F1" height="73.5547" id="DomainRepository" rx="2.5" ry="2.5" style="stroke:#181818;stroke-width:0.5;" width="318" x="805.5" y="719.56"/><ellipse cx="871.5" cy="736.56" fill="#B4A7E5" rx="12" ry="12" style="stroke:#181818;stroke-width:1.0;"/><path d="M867.1797,732.019 L867.1797,729.4799 L875.8613,729.4799 L875.8613,732.019 L872.9609,732.019 L872.9609,741.5209 L875.8613,741.5209 L875.8613,744.06 L867.1797,744.06 L867.1797,741.5209 L870.0801,741.5209 L870.0801,732.019 Z " fill="#000000"/><text fill="#000000" font-family="sans-serif" font-size="20" font-style="italic" lengthAdjust="spacing" textLength="177" x="893.5" y="744.1186">DomainRepository</text><line style="stroke:#181818;stroke-width:0.5;" x1="806.5" x2="1122.5" y1="753.56" y2="753.56"/><line style="stroke:#181818;stroke-width:0.5;" x1="806.5" x2="1122.5" y1="761.56" y2="761.56"/><text fill="#000000" font-family="sans-serif" font-size="20" lengthAdjust="spacing" textLength="306" x="811.5" y="784.8959">Iterable&lt;SystemUser&gt; findAll();</text></g><!--class DeactivateUsersUI--><g id="elem_DeactivateUsersUI"><rect codeLine="30" fill="#F1F1F1" height="50" id="DeactivateUsersUI" rx="2.5" ry="2.5" style="stroke:#181818;stroke-width:0.5;" width="206" x="399.5" y="7"/><ellipse cx="415.5" cy="24" fill="#ADD1B2" rx="12" ry="12" style="stroke:#181818;stroke-width:1.0;"/><path d="M418.3066,31.0801 Q417.623,31.4316 416.8711,31.6074 Q416.1191,31.7832 415.2891,31.7832 Q412.3398,31.7832 410.7871,29.8398 Q409.2344,27.8965 409.2344,24.2246 Q409.2344,20.543 410.7871,18.5996 Q412.3398,16.6563 415.2891,16.6563 Q416.1191,16.6563 416.8809,16.832 Q417.6426,17.0078 418.3066,17.3594 L418.3066,20.5625 Q417.5645,19.8789 416.8662,19.5615 Q416.168,19.2441 415.4258,19.2441 Q413.8438,19.2441 413.0381,20.499 Q412.2324,21.7539 412.2324,24.2246 Q412.2324,26.6855 413.0381,27.9404 Q413.8438,29.1953 415.4258,29.1953 Q416.168,29.1953 416.8662,28.8779 Q417.5645,28.5605 418.3066,27.877 Z " fill="#000000"/><text fill="#000000" font-family="sans-serif" font-size="20" lengthAdjust="spacing" textLength="172" x="430.5" y="31.5586">DeactivateUsersUI</text><line style="stroke:#181818;stroke-width:0.5;" x1="400.5" x2="604.5" y1="41" y2="41"/><line style="stroke:#181818;stroke-width:0.5;" x1="400.5" x2="604.5" y1="49" y2="49"/></g><!--class ActivateUsersUI--><g id="elem_ActivateUsersUI"><rect codeLine="32" fill="#F1F1F1" height="50" id="ActivateUsersUI" rx="2.5" ry="2.5" style="stroke:#181818;stroke-width:0.5;" width="183" x="717" y="7"/><ellipse cx="733" cy="24" fill="#ADD1B2" rx="12" ry="12" style="stroke:#181818;stroke-width:1.0;"/><path d="M735.8066,31.0801 Q735.123,31.4316 734.3711,31.6074 Q733.6191,31.7832 732.7891,31.7832 Q729.8398,31.7832 728.2871,29.8398 Q726.7344,27.8965 726.7344,24.2246 Q726.7344,20.543 728.2871,18.5996 Q729.8398,16.6563 732.7891,16.6563 Q733.6191,16.6563 734.3809,16.832 Q735.1426,17.0078 735.8066,17.3594 L735.8066,20.5625 Q735.0645,19.8789 734.3662,19.5615 Q733.668,19.2441 732.9258,19.2441 Q731.3438,19.2441 730.5381,20.499 Q729.7324,21.7539 729.7324,24.2246 Q729.7324,26.6855 730.5381,27.9404 Q731.3438,29.1953 732.9258,29.1953 Q733.668,29.1953 734.3662,28.8779 Q735.0645,28.5605 735.8066,27.877 Z " fill="#000000"/><text fill="#000000" font-family="sans-serif" font-size="20" lengthAdjust="spacing" textLength="149" x="748" y="31.5586">ActivateUsersUI</text><line style="stroke:#181818;stroke-width:0.5;" x1="718" x2="899" y1="41" y2="41"/><line style="stroke:#181818;stroke-width:0.5;" x1="718" x2="899" y1="49" y2="49"/></g><!--class AddUserUI--><g id="elem_AddUserUI"><rect codeLine="34" fill="#F1F1F1" height="50" id="AddUserUI" rx="2.5" ry="2.5" style="stroke:#181818;stroke-width:0.5;" width="137" x="1011" y="7"/><ellipse cx="1027" cy="24" fill="#ADD1B2" rx="12" ry="12" style="stroke:#181818;stroke-width:1.0;"/><path d="M1029.8066,31.0801 Q1029.123,31.4316 1028.3711,31.6074 Q1027.6191,31.7832 1026.7891,31.7832 Q1023.8398,31.7832 1022.2871,29.8398 Q1020.7344,27.8965 1020.7344,24.2246 Q1020.7344,20.543 1022.2871,18.5996 Q1023.8398,16.6563 1026.7891,16.6563 Q1027.6191,16.6563 1028.3809,16.832 Q1029.1426,17.0078 1029.8066,17.3594 L1029.8066,20.5625 Q1029.0645,19.8789 1028.3662,19.5615 Q1027.668,19.2441 1026.9258,19.2441 Q1025.3438,19.2441 1024.5381,20.499 Q1023.7324,21.7539 1023.7324,24.2246 Q1023.7324,26.6855 1024.5381,27.9404 Q1025.3438,29.1953 1026.9258,29.1953 Q1027.668,29.1953 1028.3662,28.8779 Q1029.0645,28.5605 1029.8066,27.877 Z " fill="#000000"/><text fill="#000000" font-family="sans-serif" font-size="20" lengthAdjust="spacing" textLength="103" x="1042" y="31.5586">AddUserUI</text><line style="stroke:#181818;stroke-width:0.5;" x1="1012" x2="1147" y1="41" y2="41"/><line style="stroke:#181818;stroke-width:0.5;" x1="1012" x2="1147" y1="49" y2="49"/></g><!--class DeactivateUsersController--><g id="elem_DeactivateUsersController"><rect codeLine="36" fill="#F1F1F1" height="50" id="DeactivateUsersController" rx="2.5" ry="2.5" style="stroke:#181818;stroke-width:0.5;" width="282" x="361.5" y="118"/><ellipse cx="377.5" cy="135" fill="#ADD1B2" rx="12" ry="12" style="stroke:#181818;stroke-width:1.0;"/><path d="M380.3066,142.0801 Q379.623,142.4316 378.8711,142.6074 Q378.1191,142.7832 377.2891,142.7832 Q374.3398,142.7832 372.7871,140.8398 Q371.2344,138.8965 371.2344,135.2246 Q371.2344,131.543 372.7871,129.5996 Q374.3398,127.6563 377.2891,127.6563 Q378.1191,127.6563 378.8809,127.832 Q379.6426,128.0078 380.3066,128.3594 L380.3066,131.5625 Q379.5645,130.8789 378.8662,130.5615 Q378.168,130.2441 377.4258,130.2441 Q375.8438,130.2441 375.0381,131.499 Q374.2324,132.7539 374.2324,135.2246 Q374.2324,137.6855 375.0381,138.9404 Q375.8438,140.1953 377.4258,140.1953 Q378.168,140.1953 378.8662,139.8779 Q379.5645,139.5605 380.3066,138.877 Z " fill="#000000"/><text fill="#000000" font-family="sans-serif" font-size="20" lengthAdjust="spacing" textLength="248" x="392.5" y="142.5586">DeactivateUsersController</text><line style="stroke:#181818;stroke-width:0.5;" x1="362.5" x2="642.5" y1="152" y2="152"/><line style="stroke:#181818;stroke-width:0.5;" x1="362.5" x2="642.5" y1="160" y2="160"/></g><!--class ActivateUsersController--><g id="elem_ActivateUsersController"><rect codeLine="38" fill="#F1F1F1" height="50" id="ActivateUsersController" rx="2.5" ry="2.5" style="stroke:#181818;stroke-width:0.5;" width="259" x="679" y="118"/><ellipse cx="695" cy="135" fill="#ADD1B2" rx="12" ry="12" style="stroke:#181818;stroke-width:1.0;"/><path d="M697.8066,142.0801 Q697.123,142.4316 696.3711,142.6074 Q695.6191,142.7832 694.7891,142.7832 Q691.8398,142.7832 690.2871,140.8398 Q688.7344,138.8965 688.7344,135.2246 Q688.7344,131.543 690.2871,129.5996 Q691.8398,127.6563 694.7891,127.6563 Q695.6191,127.6563 696.3809,127.832 Q697.1426,128.0078 697.8066,128.3594 L697.8066,131.5625 Q697.0645,130.8789 696.3662,130.5615 Q695.668,130.2441 694.9258,130.2441 Q693.3438,130.2441 692.5381,131.499 Q691.7324,132.7539 691.7324,135.2246 Q691.7324,137.6855 692.5381,138.9404 Q693.3438,140.1953 694.9258,140.1953 Q695.668,140.1953 696.3662,139.8779 Q697.0645,139.5605 697.8066,138.877 Z " fill="#000000"/><text fill="#000000" font-family="sans-serif" font-size="20" lengthAdjust="spacing" textLength="225" x="710" y="142.5586">ActivateUsersController</text><line style="stroke:#181818;stroke-width:0.5;" x1="680" x2="937" y1="152" y2="152"/><line style="stroke:#181818;stroke-width:0.5;" x1="680" x2="937" y1="160" y2="160"/></g><!--class AddUserController--><g id="elem_AddUserController"><rect codeLine="40" fill="#F1F1F1" height="50" id="AddUserController" rx="2.5" ry="2.5" style="stroke:#181818;stroke-width:0.5;" width="213" x="973" y="118"/><ellipse cx="989" cy="135" fill="#ADD1B2" rx="12" ry="12" style="stroke:#181818;stroke-width:1.0;"/><path d="M991.8066,142.0801 Q991.123,142.4316 990.3711,142.6074 Q989.6191,142.7832 988.7891,142.7832 Q985.8398,142.7832 984.2871,140.8398 Q982.7344,138.8965 982.7344,135.2246 Q982.7344,131.543 984.2871,129.5996 Q985.8398,127.6563 988.7891,127.6563 Q989.6191,127.6563 990.3809,127.832 Q991.1426,128.0078 991.8066,128.3594 L991.8066,131.5625 Q991.0645,130.8789 990.3662,130.5615 Q989.668,130.2441 988.9258,130.2441 Q987.3438,130.2441 986.5381,131.499 Q985.7324,132.7539 985.7324,135.2246 Q985.7324,137.6855 986.5381,138.9404 Q987.3438,140.1953 988.9258,140.1953 Q989.668,140.1953 990.3662,139.8779 Q991.0645,139.5605 991.8066,138.877 Z " fill="#000000"/><text fill="#000000" font-family="sans-serif" font-size="20" lengthAdjust="spacing" textLength="179" x="1004" y="142.5586">AddUserController</text><line style="stroke:#181818;stroke-width:0.5;" x1="974" x2="1185" y1="152" y2="152"/><line style="stroke:#181818;stroke-width:0.5;" x1="974" x2="1185" y1="160" y2="160"/></g><!--link ListBackOfficeUsersUI to ListBackOfficeUsersController--><g id="link_ListBackOfficeUsersUI_ListBackOfficeUsersController"><path codeLine="42" d="M166.5,57.46 C166.5,73.45 166.5,94.45 166.5,111.53 " fill="none" id="ListBackOfficeUsersUI-to-ListBackOfficeUsersController" style="stroke:#181818;stroke-width:1.0;stroke-dasharray:7.0,7.0;"/><polygon fill="#181818" points="166.5,116.11,170.5,107.11,166.5,111.11,162.5,107.11,166.5,116.11" style="stroke:#181818;stroke-width:1.0;"/></g><!--link DeactivateUsersUI to DeactivateUsersController--><g id="link_DeactivateUsersUI_DeactivateUsersController"><path codeLine="44" d="M502.5,57.46 C502.5,73.45 502.5,94.45 502.5,111.53 " fill="none" id="DeactivateUsersUI-to-DeactivateUsersController" style="stroke:#181818;stroke-width:1.0;stroke-dasharray:7.0,7.0;"/><polygon fill="#181818" points="502.5,116.11,506.5,107.11,502.5,111.11,498.5,107.11,502.5,116.11" style="stroke:#181818;stroke-width:1.0;"/></g><!--link ActivateUsersUI to ActivateUsersController--><g id="link_ActivateUsersUI_ActivateUsersController"><path codeLine="46" d="M808.5,57.46 C808.5,73.45 808.5,94.45 808.5,111.53 " fill="none" id="ActivateUsersUI-to-ActivateUsersController" style="stroke:#181818;stroke-width:1.0;stroke-dasharray:7.0,7.0;"/><polygon fill="#181818" points="808.5,116.11,812.5,107.11,808.5,111.11,804.5,107.11,808.5,116.11" style="stroke:#181818;stroke-width:1.0;"/></g><!--link AddUserUI to AddUserController--><g id="link_AddUserUI_AddUserController"><path codeLine="48" d="M1079.5,57.46 C1079.5,73.45 1079.5,94.45 1079.5,111.53 " fill="none" id="AddUserUI-to-AddUserController" style="stroke:#181818;stroke-width:1.0;stroke-dasharray:7.0,7.0;"/><polygon fill="#181818" points="1079.5,116.11,1083.5,107.11,1079.5,111.11,1075.5,107.11,1079.5,116.11" style="stroke:#181818;stroke-width:1.0;"/></g><!--link ListBackOfficeUsersController to UserManagementService--><g id="link_ListBackOfficeUsersController_UserManagementService"><path codeLine="51" d="M231.94,168.46 C323.58,202.71 489.51,264.74 584.2,300.13 " fill="none" id="ListBackOfficeUsersController-to-UserManagementService" style="stroke:#181818;stroke-width:1.0;stroke-dasharray:7.0,7.0;"/><polygon fill="#181818" points="588.64,301.79,581.6175,294.8846,583.9584,300.0344,578.8085,302.3752,588.64,301.79" style="stroke:#181818;stroke-width:1.0;"/></g><!--link DeactivateUsersController to UserManagementService--><g id="link_DeactivateUsersController_UserManagementService"><path codeLine="53" d="M522.82,168.27 C550.82,201.73 601.22,261.93 631.19,297.74 " fill="none" id="DeactivateUsersController-to-UserManagementService" style="stroke:#181818;stroke-width:1.0;stroke-dasharray:7.0,7.0;"/><polygon fill="#181818" points="634.13,301.25,631.4273,291.7792,630.9234,297.4136,625.2891,296.9097,634.13,301.25" style="stroke:#181818;stroke-width:1.0;"/></g><!--link ActivateUsersController to UserManagementService--><g id="link_ActivateUsersController_UserManagementService"><path codeLine="55" d="M788.18,168.27 C760.18,201.73 709.78,261.93 679.81,297.74 " fill="none" id="ActivateUsersController-to-UserManagementService" style="stroke:#181818;stroke-width:1.0;stroke-dasharray:7.0,7.0;"/><polygon fill="#181818" points="676.87,301.25,685.7109,296.9097,680.0766,297.4136,679.5727,291.7792,676.87,301.25" style="stroke:#181818;stroke-width:1.0;"/></g><!--link AddUserController to UserManagementService--><g id="link_AddUserController_UserManagementService"><path codeLine="57" d="M1022.76,168.46 C943.54,202.61 800.28,264.37 718.06,299.81 " fill="none" id="AddUserController-to-UserManagementService" style="stroke:#181818;stroke-width:1.0;stroke-dasharray:7.0,7.0;"/><polygon fill="#181818" points="713.63,301.72,723.4783,301.8255,718.2205,299.7384,720.3077,294.4806,713.63,301.72" style="stroke:#181818;stroke-width:1.0;"/></g><!--link UserManagementService to UserRepository--><g id="link_UserManagementService_UserRepository"><path codeLine="60" d="M789.37,327.78 C797.92,327.78 807.9,327.78 817.95,327.78 " fill="none" id="UserManagementService-to-UserRepository" style="stroke:#181818;stroke-width:1.0;stroke-dasharray:7.0,7.0;"/><polygon fill="#181818" points="822.69,327.78,813.69,323.78,817.69,327.78,813.69,331.78,822.69,327.78" style="stroke:#181818;stroke-width:1.0;"/></g><!--reverse link UserRepository to JpaUserRepository--><g id="link_UserRepository_JpaUserRepository"><path codeLine="62" d="M929.91,379.49 C904.92,403.14 876.34,430.18 856.25,449.19 " fill="none" id="UserRepository-backto-JpaUserRepository" style="stroke:#181818;stroke-width:1.0;stroke-dasharray:7.0,7.0;"/><polygon fill="none" points="924.85,374.64,944.19,365.98,934.47,384.81,924.85,374.64" style="stroke:#181818;stroke-width:1.0;"/><text fill="#000000" font-family="sans-serif" font-size="20" lengthAdjust="spacing" textLength="114" x="913.5" y="414.8959">implements</text></g><!--reverse link UserRepository to InMemoryUserRepository--><g id="link_UserRepository_InMemoryUserRepository"><path codeLine="64" d="M1028.81,380.84 C1049.11,404.16 1072.07,430.54 1088.29,449.19 " fill="none" id="UserRepository-backto-InMemoryUserRepository" style="stroke:#181818;stroke-width:1.0;stroke-dasharray:7.0,7.0;"/><polygon fill="none" points="1023.81,385.76,1015.96,366.08,1034.37,376.57,1023.81,385.76" style="stroke:#181818;stroke-width:1.0;"/><text fill="#000000" font-family="sans-serif" font-size="20" lengthAdjust="spacing" textLength="114" x="1061.5" y="414.8959">implements</text></g><!--link JpaUserRepository to JpaBaseRepository--><g id="link_JpaUserRepository_JpaBaseRepository"><path codeLine="66" d="M828.3,499.95 C826.71,517.57 824.51,541.9 822.6,563.06 " fill="none" id="JpaUserRepository-to-JpaBaseRepository" style="stroke:#181818;stroke-width:1.0;stroke-dasharray:7.0,7.0;"/><polygon fill="none" points="829.59,563.52,820.82,582.81,815.65,562.26,829.59,563.52" style="stroke:#181818;stroke-width:1.0;"/><text fill="#000000" font-family="sans-serif" font-size="20" lengthAdjust="spacing" textLength="76" x="827.5" y="549.8959">extends</text></g><!--link InMemoryUserRepository to InMemoryDomainRepository--><g id="link_InMemoryUserRepository_InMemoryDomainRepository"><path codeLine="68" d="M1109.87,499.95 C1110.13,517.57 1110.5,541.9 1110.82,563.06 " fill="none" id="InMemoryUserRepository-to-InMemoryDomainRepository" style="stroke:#181818;stroke-width:1.0;stroke-dasharray:7.0,7.0;"/><polygon fill="none" points="1117.81,562.7,1111.11,582.8,1103.81,562.91,1117.81,562.7" style="stroke:#181818;stroke-width:1.0;"/><text fill="#000000" font-family="sans-serif" font-size="20" lengthAdjust="spacing" textLength="76" x="1111.5" y="549.8959">extends</text></g><!--link JpaBaseRepository to DomainRepository--><g id="link_JpaBaseRepository_DomainRepository"><path codeLine="70" d="M842.94,634.79 C861.98,653.67 889.1,680.56 912.89,704.15 " fill="none" id="JpaBaseRepository-to-DomainRepository" style="stroke:#181818;stroke-width:1.0;stroke-dasharray:7.0,7.0;"/><polygon fill="none" points="917.58,698.94,926.85,718,907.72,708.89,917.58,698.94" style="stroke:#181818;stroke-width:1.0;"/><text fill="#000000" font-family="sans-serif" font-size="20" lengthAdjust="spacing" textLength="114" x="897.5" y="684.8959">implements</text></g><!--link InMemoryDomainRepository to DomainRepository--><g id="link_InMemoryDomainRepository_DomainRepository"><path codeLine="72" d="M1086.9,634.79 C1067.72,653.67 1040.42,680.56 1016.46,704.15 " fill="none" id="InMemoryDomainRepository-to-DomainRepository" style="stroke:#181818;stroke-width:1.0;stroke-dasharray:7.0,7.0;"/><polygon fill="none" points="1021.57,708.95,1002.4,718,1011.74,698.98,1021.57,708.95" style="stroke:#181818;stroke-width:1.0;"/><text fill="#000000" font-family="sans-serif" font-size="20" lengthAdjust="spacing" textLength="114" x="1055.5" y="684.8959">implements</text></g><!--SRC=[dPFVJi8m5CRl-nIzr9k5UAc4P6XCPYGc8WzmsCwmeMkNjg0JV7UxuQ2itO9Uzdpdz_Kx_QFNJ9IWeE0oNMD6CynXmysZ56RElf3UZ8XkMsW9wHfME3SLHwemDI1M79q6_GwP_61YHNFWsbKu4_XMbKXBoQjwGOYZfXoqZerHRBancAHID9kF26aK-ioqcThDN_ASfRZGgFGYsNqFoFTs02KvHtLgguKP23j1WNOyL5lRNSjC65GvfDYql68fDJDILJkIM06M7CVpIXiiQdb2SoQocFEhwpjoz7uguPnrX2bez8L4pB2mwp3MgW-o02PS_HIsg_qXxWD2QjWMJ7kOhH3tbBEihfmA7OFJSGUD0lB1q1M2bqoZQ39yluHumpJGGC8uqDwRzpZweStFJGRZMSfYmQVd9R-GYl_3T7CFTfDWdVu2xciyNzFnFehylq1lAIjAtdZfC1F-3HtGDuwY_SJ_OXR3JuCYiqoFSGFsVJANzyqRD82uINkTBu793m00]--></g></svg>