<?xml version="1.0" encoding="UTF-8" standalone="no"?><svg xmlns="http://www.w3.org/2000/svg" xmlns:xlink="http://www.w3.org/1999/xlink" contentStyleType="text/css" height="861px" preserveAspectRatio="none" style="width:1509px;height:861px;background:#FFFFFF;" version="1.1" viewBox="0 0 1509 861" width="1509px" zoomAndPan="magnify"><defs/><g><text fill="#000000" font-family="sans-serif" font-size="14" font-weight="bold" lengthAdjust="spacing" textLength="244" x="631.75" y="28.5352">Sequence Diagram (SD) - US 1000</text><rect fill="#FFFFFF" height="628.875" style="stroke:#181818;stroke-width:1.0;" width="10" x="35" y="136.043"/><rect fill="#FFFFFF" height="544.7656" style="stroke:#181818;stroke-width:1.0;" width="10" x="233" y="211.1523"/><rect fill="#FFFFFF" height="403.5469" style="stroke:#181818;stroke-width:1.0;" width="10" x="507" y="291.2617"/><rect fill="#FFFFFF" height="328.4375" style="stroke:#181818;stroke-width:1.0;" width="10" x="796" y="328.8164"/><rect fill="#FFFFFF" height="89.1094" style="stroke:#181818;stroke-width:1.0;" width="10" x="1030.5" y="366.3711"/><rect fill="#FFFFFF" height="14" style="stroke:#181818;stroke-width:1.0;" width="10" x="1231" y="403.9258"/><rect fill="#FFFFFF" height="75.1094" style="stroke:#181818;stroke-width:1.0;" width="10" x="1231" y="493.0352"/><rect fill="#FFFFFF" height="14" style="stroke:#181818;stroke-width:1.0;" width="10" x="1416" y="605.6992"/><line style="stroke:#181818;stroke-width:0.5;stroke-dasharray:5.0,5.0;" x1="40" x2="40" y1="126.043" y2="773.918"/><line style="stroke:#181818;stroke-width:0.5;stroke-dasharray:5.0,5.0;" x1="237.5" x2="237.5" y1="126.043" y2="773.918"/><line style="stroke:#181818;stroke-width:0.5;stroke-dasharray:5.0,5.0;" x1="511.5" x2="511.5" y1="126.043" y2="773.918"/><line style="stroke:#181818;stroke-width:0.5;stroke-dasharray:5.0,5.0;" x1="800.5" x2="800.5" y1="126.043" y2="773.918"/><line style="stroke:#181818;stroke-width:0.5;stroke-dasharray:5.0,5.0;" x1="1035.5" x2="1035.5" y1="126.043" y2="773.918"/><line style="stroke:#181818;stroke-width:0.5;stroke-dasharray:5.0,5.0;" x1="1235.5" x2="1235.5" y1="126.043" y2="773.918"/><line style="stroke:#181818;stroke-width:0.5;stroke-dasharray:5.0,5.0;" x1="1420.5" x2="1420.5" y1="126.043" y2="773.918"/><text fill="#000000" font-family="sans-serif" font-size="20" lengthAdjust="spacing" textLength="64" x="5" y="121.8242">Admin</text><ellipse cx="40" cy="50.9883" fill="#E3E3E3" rx="8" ry="8" style="stroke:#181818;stroke-width:0.5;"/><path d="M40,58.9883 L40,85.9883 M27,66.9883 L53,66.9883 M40,85.9883 L27,100.9883 M40,85.9883 L53,100.9883 " fill="none" style="stroke:#181818;stroke-width:0.5;"/><text fill="#000000" font-family="sans-serif" font-size="20" lengthAdjust="spacing" textLength="64" x="5" y="792.2539">Admin</text><ellipse cx="40" cy="804.9727" fill="#E3E3E3" rx="8" ry="8" style="stroke:#181818;stroke-width:0.5;"/><path d="M40,812.9727 L40,839.9727 M27,820.9727 L53,820.9727 M40,839.9727 L27,854.9727 M40,839.9727 L53,854.9727 " fill="none" style="stroke:#181818;stroke-width:0.5;"/><rect fill="#E3E3E3" height="37.5547" rx="2.5" ry="2.5" style="stroke:#181818;stroke-width:0.5;" width="223" x="126.5" y="87.4883"/><text fill="#000000" font-family="sans-serif" font-size="20" lengthAdjust="spacing" textLength="209" x="133.5" y="113.8242">ListBackOfficeUsersUI</text><rect fill="#E3E3E3" height="37.5547" rx="2.5" ry="2.5" style="stroke:#181818;stroke-width:0.5;" width="223" x="126.5" y="772.918"/><text fill="#000000" font-family="sans-serif" font-size="20" lengthAdjust="spacing" textLength="209" x="133.5" y="799.2539">ListBackOfficeUsersUI</text><rect fill="#E3E3E3" height="37.5547" rx="2.5" ry="2.5" style="stroke:#181818;stroke-width:0.5;" width="305" x="359.5" y="87.4883"/><text fill="#000000" font-family="sans-serif" font-size="20" lengthAdjust="spacing" textLength="291" x="366.5" y="113.8242">:ListBackOfficeUsersController</text><rect fill="#E3E3E3" height="37.5547" rx="2.5" ry="2.5" style="stroke:#181818;stroke-width:0.5;" width="305" x="359.5" y="772.918"/><text fill="#000000" font-family="sans-serif" font-size="20" lengthAdjust="spacing" textLength="291" x="366.5" y="799.2539">:ListBackOfficeUsersController</text><rect fill="#E3E3E3" height="37.5547" rx="2.5" ry="2.5" style="stroke:#181818;stroke-width:0.5;" width="253" x="674.5" y="87.4883"/><text fill="#000000" font-family="sans-serif" font-size="20" lengthAdjust="spacing" textLength="239" x="681.5" y="113.8242">:UserManagementService</text><rect fill="#E3E3E3" height="37.5547" rx="2.5" ry="2.5" style="stroke:#181818;stroke-width:0.5;" width="253" x="674.5" y="772.918"/><text fill="#000000" font-family="sans-serif" font-size="20" lengthAdjust="spacing" textLength="239" x="681.5" y="799.2539">:UserManagementService</text><rect fill="#E3E3E3" height="37.5547" rx="2.5" ry="2.5" style="stroke:#181818;stroke-width:0.5;" width="196" x="937.5" y="87.4883"/><text fill="#000000" font-family="sans-serif" font-size="20" lengthAdjust="spacing" textLength="182" x="944.5" y="113.8242">PersistenceContext</text><rect fill="#E3E3E3" height="37.5547" rx="2.5" ry="2.5" style="stroke:#181818;stroke-width:0.5;" width="196" x="937.5" y="772.918"/><text fill="#000000" font-family="sans-serif" font-size="20" lengthAdjust="spacing" textLength="182" x="944.5" y="799.2539">PersistenceContext</text><rect fill="#E3E3E3" height="37.5547" rx="2.5" ry="2.5" style="stroke:#181818;stroke-width:0.5;" width="185" x="1143.5" y="87.4883"/><text fill="#000000" font-family="sans-serif" font-size="20" lengthAdjust="spacing" textLength="171" x="1150.5" y="113.8242">RepositoryFactory</text><rect fill="#E3E3E3" height="37.5547" rx="2.5" ry="2.5" style="stroke:#181818;stroke-width:0.5;" width="185" x="1143.5" y="772.918"/><text fill="#000000" font-family="sans-serif" font-size="20" lengthAdjust="spacing" textLength="171" x="1150.5" y="799.2539">RepositoryFactory</text><rect fill="#E3E3E3" height="37.5547" rx="2.5" ry="2.5" style="stroke:#181818;stroke-width:0.5;" width="165" x="1338.5" y="87.4883"/><text fill="#000000" font-family="sans-serif" font-size="20" lengthAdjust="spacing" textLength="151" x="1345.5" y="113.8242">:UserRepository</text><rect fill="#E3E3E3" height="37.5547" rx="2.5" ry="2.5" style="stroke:#181818;stroke-width:0.5;" width="165" x="1338.5" y="772.918"/><text fill="#000000" font-family="sans-serif" font-size="20" lengthAdjust="spacing" textLength="151" x="1345.5" y="799.2539">:UserRepository</text><rect fill="#FFFFFF" height="628.875" style="stroke:#181818;stroke-width:1.0;" width="10" x="35" y="136.043"/><rect fill="#FFFFFF" height="544.7656" style="stroke:#181818;stroke-width:1.0;" width="10" x="233" y="211.1523"/><rect fill="#FFFFFF" height="403.5469" style="stroke:#181818;stroke-width:1.0;" width="10" x="507" y="291.2617"/><rect fill="#FFFFFF" height="328.4375" style="stroke:#181818;stroke-width:1.0;" width="10" x="796" y="328.8164"/><rect fill="#FFFFFF" height="89.1094" style="stroke:#181818;stroke-width:1.0;" width="10" x="1030.5" y="366.3711"/><rect fill="#FFFFFF" height="14" style="stroke:#181818;stroke-width:1.0;" width="10" x="1231" y="403.9258"/><rect fill="#FFFFFF" height="75.1094" style="stroke:#181818;stroke-width:1.0;" width="10" x="1231" y="493.0352"/><rect fill="#FFFFFF" height="14" style="stroke:#181818;stroke-width:1.0;" width="10" x="1416" y="605.6992"/><polygon fill="#181818" points="226,161.5977,236,165.5977,226,169.5977,230,165.5977" style="stroke:#181818;stroke-width:1.0;"/><line style="stroke:#181818;stroke-width:1.0;" x1="45" x2="232" y1="165.5977" y2="165.5977"/><text fill="#000000" font-family="sans-serif" font-size="20" lengthAdjust="spacing" textLength="63" x="52" y="159.3789">show()</text><line style="stroke:#181818;stroke-width:1.0;stroke-dasharray:2.0,2.0;" x1="238" x2="285" y1="198.1523" y2="198.1523"/><line style="stroke:#181818;stroke-width:1.0;stroke-dasharray:2.0,2.0;" x1="285" x2="285" y1="198.1523" y2="211.1523"/><line style="stroke:#181818;stroke-width:1.0;stroke-dasharray:2.0,2.0;" x1="244" x2="285" y1="211.1523" y2="211.1523"/><polygon fill="#181818" points="254,207.1523,244,211.1523,254,215.1523,250,211.1523" style="stroke:#181818;stroke-width:1.0;"/><text fill="#000000" font-family="sans-serif" font-size="20" lengthAdjust="spacing" textLength="89" x="250" y="191.9336">doShow()</text><polygon fill="#181818" points="500,249.707,510,253.707,500,257.707,504,253.707" style="stroke:#181818;stroke-width:1.0;"/><line style="stroke:#181818;stroke-width:1.0;stroke-dasharray:2.0,2.0;" x1="243" x2="506" y1="253.707" y2="253.707"/><text fill="#000000" font-family="sans-serif" font-size="20" lengthAdjust="spacing" textLength="72" x="250" y="247.4883">create()</text><polygon fill="#181818" points="495,287.2617,505,291.2617,495,295.2617,499,291.2617" style="stroke:#181818;stroke-width:1.0;"/><line style="stroke:#181818;stroke-width:1.0;" x1="243" x2="501" y1="291.2617" y2="291.2617"/><text fill="#000000" font-family="sans-serif" font-size="20" lengthAdjust="spacing" textLength="192" x="250" y="285.043">allBackOfficeUsers()</text><polygon fill="#181818" points="784,324.8164,794,328.8164,784,332.8164,788,328.8164" style="stroke:#181818;stroke-width:1.0;"/><line style="stroke:#181818;stroke-width:1.0;" x1="517" x2="790" y1="328.8164" y2="328.8164"/><text fill="#000000" font-family="sans-serif" font-size="20" lengthAdjust="spacing" textLength="90" x="524" y="322.5977">allUsers()</text><polygon fill="#181818" points="1018.5,362.3711,1028.5,366.3711,1018.5,370.3711,1022.5,366.3711" style="stroke:#181818;stroke-width:1.0;"/><line style="stroke:#181818;stroke-width:1.0;" x1="806" x2="1024.5" y1="366.3711" y2="366.3711"/><text fill="#000000" font-family="sans-serif" font-size="20" lengthAdjust="spacing" textLength="128" x="813" y="360.1523">repositories()</text><polygon fill="#181818" points="1219,399.9258,1229,403.9258,1219,407.9258,1223,403.9258" style="stroke:#181818;stroke-width:1.0;"/><line style="stroke:#181818;stroke-width:1.0;" x1="1040.5" x2="1225" y1="403.9258" y2="403.9258"/><text fill="#000000" font-family="sans-serif" font-size="20" lengthAdjust="spacing" textLength="72" x="1047.5" y="397.707">create()</text><polygon fill="#181818" points="1051.5,413.9258,1041.5,417.9258,1051.5,421.9258,1047.5,417.9258" style="stroke:#181818;stroke-width:1.0;"/><line style="stroke:#181818;stroke-width:1.0;stroke-dasharray:2.0,2.0;" x1="1045.5" x2="1235" y1="417.9258" y2="417.9258"/><polygon fill="#181818" points="817,451.4805,807,455.4805,817,459.4805,813,455.4805" style="stroke:#181818;stroke-width:1.0;"/><line style="stroke:#181818;stroke-width:1.0;stroke-dasharray:2.0,2.0;" x1="811" x2="1034.5" y1="455.4805" y2="455.4805"/><text fill="#000000" font-family="sans-serif" font-size="20" lengthAdjust="spacing" textLength="65" x="823" y="449.2617">factory</text><polygon fill="#181818" points="1219,489.0352,1229,493.0352,1219,497.0352,1223,493.0352" style="stroke:#181818;stroke-width:1.0;"/><line style="stroke:#181818;stroke-width:1.0;" x1="806" x2="1225" y1="493.0352" y2="493.0352"/><text fill="#000000" font-family="sans-serif" font-size="20" lengthAdjust="spacing" textLength="65" x="813" y="486.8164">users()</text><polygon fill="#181818" points="1409,526.5898,1419,530.5898,1409,534.5898,1413,530.5898" style="stroke:#181818;stroke-width:1.0;"/><line style="stroke:#181818;stroke-width:1.0;" x1="1241" x2="1415" y1="530.5898" y2="530.5898"/><text fill="#000000" font-family="sans-serif" font-size="20" lengthAdjust="spacing" textLength="72" x="1248" y="524.3711">create()</text><polygon fill="#181818" points="817,564.1445,807,568.1445,817,572.1445,813,568.1445" style="stroke:#181818;stroke-width:1.0;"/><line style="stroke:#181818;stroke-width:1.0;stroke-dasharray:2.0,2.0;" x1="811" x2="1235" y1="568.1445" y2="568.1445"/><text fill="#000000" font-family="sans-serif" font-size="20" lengthAdjust="spacing" textLength="143" x="823" y="561.9258">userRepository</text><polygon fill="#181818" points="1404,601.6992,1414,605.6992,1404,609.6992,1408,605.6992" style="stroke:#181818;stroke-width:1.0;"/><line style="stroke:#181818;stroke-width:1.0;" x1="806" x2="1410" y1="605.6992" y2="605.6992"/><text fill="#000000" font-family="sans-serif" font-size="20" lengthAdjust="spacing" textLength="78" x="813" y="599.4805">findAll()</text><polygon fill="#181818" points="817,615.6992,807,619.6992,817,623.6992,813,619.6992" style="stroke:#181818;stroke-width:1.0;"/><line style="stroke:#181818;stroke-width:1.0;stroke-dasharray:2.0,2.0;" x1="811" x2="1420" y1="619.6992" y2="619.6992"/><polygon fill="#181818" points="528,653.2539,518,657.2539,528,661.2539,524,657.2539" style="stroke:#181818;stroke-width:1.0;"/><line style="stroke:#181818;stroke-width:1.0;stroke-dasharray:2.0,2.0;" x1="522" x2="800" y1="657.2539" y2="657.2539"/><text fill="#000000" font-family="sans-serif" font-size="20" lengthAdjust="spacing" textLength="76" x="534" y="651.0352">allUsers</text><polygon fill="#181818" points="254,690.8086,244,694.8086,254,698.8086,250,694.8086" style="stroke:#181818;stroke-width:1.0;"/><line style="stroke:#181818;stroke-width:1.0;stroke-dasharray:2.0,2.0;" x1="248" x2="511" y1="694.8086" y2="694.8086"/><text fill="#000000" font-family="sans-serif" font-size="20" lengthAdjust="spacing" textLength="152" x="260" y="688.5898">backofficeUsers</text><polygon fill="#181818" points="56,751.918,46,755.918,56,759.918,52,755.918" style="stroke:#181818;stroke-width:1.0;"/><line style="stroke:#181818;stroke-width:1.0;stroke-dasharray:2.0,2.0;" x1="50" x2="237" y1="755.918" y2="755.918"/><text fill="#000000" font-family="sans-serif" font-size="20" lengthAdjust="spacing" textLength="139" x="62" y="726.1445">displays list of</text><text fill="#000000" font-family="sans-serif" font-size="20" lengthAdjust="spacing" textLength="158" x="68" y="749.6992">backoffice Users</text><!--SRC=[TLF1Rjim3BtxAuYSsaE0jCSU2dGh2WJOi656RhjeCfqAaILNajjbNpzAYc9PLdsInVSUoKVAdeGQcM63rFo47NJOiqcw5wrSA_uXtEyQco0mQANvgz43WZCJPf6HyHCxOklE4i4WTqmTPGwmhwpJ7q8TeMVIOjCuuGZQujk4YYCy2tRqk9ls-HQsS6ZXRhVRDVGnxhI1pLCt2BK1Pk5WqJIawWGN8rCEDj-4TL-eWXzzBpZwk3ti8tQ_H3vKe5-fLwEbH1Ceysz1zU3lJ56R0v8xQDv98L0kvsP9-4dQbCstvpNnhmlWzVMIzWj7RGNrV7u9hPy3YsuhvSpOYpCU5YmJxynXjAe1-lm9jeza23pGCFJ7pMqJ8o6wXsqAThgDOH-ObVONdOYSJI86DqWGBvWG1O19MNXUocUcXq169x6Blr6fohzEmDycE37NPfE8IQu9N0bLfXC05I6I9xlp_XTAOHJ-neEsrLf2kCCrfPPjuKCVLwCK-Apwp95OybGpSLdnOrodrNnJEtCnqs8JFsqgAo8fzq9rJrAkbirUIH6vo5ScoD3N59KD37jJSXTxaozTUWr_Q6_rlBSblzpRz91ioDe9EqfsjY1fAA3xtohJWwfWUcU5WVy1]--></g></svg>