<?xml version="1.0" encoding="UTF-8" standalone="no"?><svg xmlns="http://www.w3.org/2000/svg" xmlns:xlink="http://www.w3.org/1999/xlink" contentStyleType="text/css" height="1138px" preserveAspectRatio="none" style="width:1646px;height:1138px;background:#FFFFFF;" version="1.1" viewBox="0 0 1646 1138" width="1646px" zoomAndPan="magnify"><defs/><g><text fill="#000000" font-family="sans-serif" font-size="14" font-weight="bold" lengthAdjust="spacing" textLength="244" x="700.25" y="28.5352">Sequence Diagram (SD) - US 1000</text><rect fill="#FFFFFF" height="905.7578" style="stroke:#181818;stroke-width:1.0;" width="10" x="35" y="136.043"/><rect fill="#FFFFFF" height="830.6484" style="stroke:#181818;stroke-width:1.0;" width="10" x="329" y="211.1523"/><rect fill="#FFFFFF" height="403.5469" style="stroke:#181818;stroke-width:1.0;" width="10" x="538" y="291.2617"/><rect fill="#FFFFFF" height="187.7734" style="stroke:#181818;stroke-width:1.0;" width="10" x="538" y="807.4727"/><rect fill="#FFFFFF" height="328.4375" style="stroke:#181818;stroke-width:1.0;" width="10" x="792" y="328.8164"/><rect fill="#FFFFFF" height="112.6641" style="stroke:#181818;stroke-width:1.0;" width="10" x="792" y="845.0273"/><rect fill="#FFFFFF" height="89.1094" style="stroke:#181818;stroke-width:1.0;" width="10" x="1026.5" y="366.3711"/><rect fill="#FFFFFF" height="14" style="stroke:#181818;stroke-width:1.0;" width="10" x="1227" y="403.9258"/><rect fill="#FFFFFF" height="75.1094" style="stroke:#181818;stroke-width:1.0;" width="10" x="1227" y="493.0352"/><rect fill="#FFFFFF" height="14" style="stroke:#181818;stroke-width:1.0;" width="10" x="1412" y="605.6992"/><line style="stroke:#181818;stroke-width:0.5;stroke-dasharray:5.0,5.0;" x1="40" x2="40" y1="126.043" y2="1050.8008"/><line style="stroke:#181818;stroke-width:0.5;stroke-dasharray:5.0,5.0;" x1="333.5" x2="333.5" y1="126.043" y2="1050.8008"/><line style="stroke:#181818;stroke-width:0.5;stroke-dasharray:5.0,5.0;" x1="542.5" x2="542.5" y1="126.043" y2="1050.8008"/><line style="stroke:#181818;stroke-width:0.5;stroke-dasharray:5.0,5.0;" x1="796.5" x2="796.5" y1="126.043" y2="1050.8008"/><line style="stroke:#181818;stroke-width:0.5;stroke-dasharray:5.0,5.0;" x1="1031.5" x2="1031.5" y1="126.043" y2="1050.8008"/><line style="stroke:#181818;stroke-width:0.5;stroke-dasharray:5.0,5.0;" x1="1231.5" x2="1231.5" y1="126.043" y2="1050.8008"/><line style="stroke:#181818;stroke-width:0.5;stroke-dasharray:5.0,5.0;" x1="1416.5" x2="1416.5" y1="126.043" y2="1050.8008"/><line style="stroke:#181818;stroke-width:0.5;stroke-dasharray:5.0,5.0;" x1="1574.5" x2="1574.5" y1="126.043" y2="1050.8008"/><text fill="#000000" font-family="sans-serif" font-size="20" lengthAdjust="spacing" textLength="64" x="5" y="121.8242">Admin</text><ellipse cx="40" cy="50.9883" fill="#E3E3E3" rx="8" ry="8" style="stroke:#181818;stroke-width:0.5;"/><path d="M40,58.9883 L40,85.9883 M27,66.9883 L53,66.9883 M40,85.9883 L27,100.9883 M40,85.9883 L53,100.9883 " fill="none" style="stroke:#181818;stroke-width:0.5;"/><text fill="#000000" font-family="sans-serif" font-size="20" lengthAdjust="spacing" textLength="64" x="5" y="1069.1367">Admin</text><ellipse cx="40" cy="1081.8555" fill="#E3E3E3" rx="8" ry="8" style="stroke:#181818;stroke-width:0.5;"/><path d="M40,1089.8555 L40,1116.8555 M27,1097.8555 L53,1097.8555 M40,1116.8555 L27,1131.8555 M40,1116.8555 L53,1131.8555 " fill="none" style="stroke:#181818;stroke-width:0.5;"/><rect fill="#E3E3E3" height="37.5547" rx="2.5" ry="2.5" style="stroke:#181818;stroke-width:0.5;" width="163" x="252.5" y="87.4883"/><text fill="#000000" font-family="sans-serif" font-size="20" lengthAdjust="spacing" textLength="149" x="259.5" y="113.8242">ActivateUsersUI</text><rect fill="#E3E3E3" height="37.5547" rx="2.5" ry="2.5" style="stroke:#181818;stroke-width:0.5;" width="163" x="252.5" y="1049.8008"/><text fill="#000000" font-family="sans-serif" font-size="20" lengthAdjust="spacing" textLength="149" x="259.5" y="1076.1367">ActivateUsersUI</text><rect fill="#E3E3E3" height="37.5547" rx="2.5" ry="2.5" style="stroke:#181818;stroke-width:0.5;" width="235" x="425.5" y="87.4883"/><text fill="#000000" font-family="sans-serif" font-size="20" lengthAdjust="spacing" textLength="221" x="432.5" y="113.8242">:ActivateUserController</text><rect fill="#E3E3E3" height="37.5547" rx="2.5" ry="2.5" style="stroke:#181818;stroke-width:0.5;" width="235" x="425.5" y="1049.8008"/><text fill="#000000" font-family="sans-serif" font-size="20" lengthAdjust="spacing" textLength="221" x="432.5" y="1076.1367">:ActivateUserController</text><rect fill="#E3E3E3" height="37.5547" rx="2.5" ry="2.5" style="stroke:#181818;stroke-width:0.5;" width="253" x="670.5" y="87.4883"/><text fill="#000000" font-family="sans-serif" font-size="20" lengthAdjust="spacing" textLength="239" x="677.5" y="113.8242">:UserManagementService</text><rect fill="#E3E3E3" height="37.5547" rx="2.5" ry="2.5" style="stroke:#181818;stroke-width:0.5;" width="253" x="670.5" y="1049.8008"/><text fill="#000000" font-family="sans-serif" font-size="20" lengthAdjust="spacing" textLength="239" x="677.5" y="1076.1367">:UserManagementService</text><rect fill="#E3E3E3" height="37.5547" rx="2.5" ry="2.5" style="stroke:#181818;stroke-width:0.5;" width="196" x="933.5" y="87.4883"/><text fill="#000000" font-family="sans-serif" font-size="20" lengthAdjust="spacing" textLength="182" x="940.5" y="113.8242">PersistenceContext</text><rect fill="#E3E3E3" height="37.5547" rx="2.5" ry="2.5" style="stroke:#181818;stroke-width:0.5;" width="196" x="933.5" y="1049.8008"/><text fill="#000000" font-family="sans-serif" font-size="20" lengthAdjust="spacing" textLength="182" x="940.5" y="1076.1367">PersistenceContext</text><rect fill="#E3E3E3" height="37.5547" rx="2.5" ry="2.5" style="stroke:#181818;stroke-width:0.5;" width="185" x="1139.5" y="87.4883"/><text fill="#000000" font-family="sans-serif" font-size="20" lengthAdjust="spacing" textLength="171" x="1146.5" y="113.8242">RepositoryFactory</text><rect fill="#E3E3E3" height="37.5547" rx="2.5" ry="2.5" style="stroke:#181818;stroke-width:0.5;" width="185" x="1139.5" y="1049.8008"/><text fill="#000000" font-family="sans-serif" font-size="20" lengthAdjust="spacing" textLength="171" x="1146.5" y="1076.1367">RepositoryFactory</text><rect fill="#E3E3E3" height="37.5547" rx="2.5" ry="2.5" style="stroke:#181818;stroke-width:0.5;" width="165" x="1334.5" y="87.4883"/><text fill="#000000" font-family="sans-serif" font-size="20" lengthAdjust="spacing" textLength="151" x="1341.5" y="113.8242">:UserRepository</text><rect fill="#E3E3E3" height="37.5547" rx="2.5" ry="2.5" style="stroke:#181818;stroke-width:0.5;" width="165" x="1334.5" y="1049.8008"/><text fill="#000000" font-family="sans-serif" font-size="20" lengthAdjust="spacing" textLength="151" x="1341.5" y="1076.1367">:UserRepository</text><rect fill="#E3E3E3" height="37.5547" rx="2.5" ry="2.5" style="stroke:#181818;stroke-width:0.5;" width="131" x="1509.5" y="87.4883"/><text fill="#000000" font-family="sans-serif" font-size="20" lengthAdjust="spacing" textLength="117" x="1516.5" y="113.8242">:SystemUser</text><rect fill="#E3E3E3" height="37.5547" rx="2.5" ry="2.5" style="stroke:#181818;stroke-width:0.5;" width="131" x="1509.5" y="1049.8008"/><text fill="#000000" font-family="sans-serif" font-size="20" lengthAdjust="spacing" textLength="117" x="1516.5" y="1076.1367">:SystemUser</text><rect fill="#FFFFFF" height="905.7578" style="stroke:#181818;stroke-width:1.0;" width="10" x="35" y="136.043"/><rect fill="#FFFFFF" height="830.6484" style="stroke:#181818;stroke-width:1.0;" width="10" x="329" y="211.1523"/><rect fill="#FFFFFF" height="403.5469" style="stroke:#181818;stroke-width:1.0;" width="10" x="538" y="291.2617"/><rect fill="#FFFFFF" height="187.7734" style="stroke:#181818;stroke-width:1.0;" width="10" x="538" y="807.4727"/><rect fill="#FFFFFF" height="328.4375" style="stroke:#181818;stroke-width:1.0;" width="10" x="792" y="328.8164"/><rect fill="#FFFFFF" height="112.6641" style="stroke:#181818;stroke-width:1.0;" width="10" x="792" y="845.0273"/><rect fill="#FFFFFF" height="89.1094" style="stroke:#181818;stroke-width:1.0;" width="10" x="1026.5" y="366.3711"/><rect fill="#FFFFFF" height="14" style="stroke:#181818;stroke-width:1.0;" width="10" x="1227" y="403.9258"/><rect fill="#FFFFFF" height="75.1094" style="stroke:#181818;stroke-width:1.0;" width="10" x="1227" y="493.0352"/><rect fill="#FFFFFF" height="14" style="stroke:#181818;stroke-width:1.0;" width="10" x="1412" y="605.6992"/><polygon fill="#181818" points="322,161.5977,332,165.5977,322,169.5977,326,165.5977" style="stroke:#181818;stroke-width:1.0;"/><line style="stroke:#181818;stroke-width:1.0;" x1="45" x2="328" y1="165.5977" y2="165.5977"/><text fill="#000000" font-family="sans-serif" font-size="20" lengthAdjust="spacing" textLength="63" x="52" y="159.3789">show()</text><line style="stroke:#181818;stroke-width:1.0;stroke-dasharray:2.0,2.0;" x1="334" x2="381" y1="198.1523" y2="198.1523"/><line style="stroke:#181818;stroke-width:1.0;stroke-dasharray:2.0,2.0;" x1="381" x2="381" y1="198.1523" y2="211.1523"/><line style="stroke:#181818;stroke-width:1.0;stroke-dasharray:2.0,2.0;" x1="340" x2="381" y1="211.1523" y2="211.1523"/><polygon fill="#181818" points="350,207.1523,340,211.1523,350,215.1523,346,211.1523" style="stroke:#181818;stroke-width:1.0;"/><text fill="#000000" font-family="sans-serif" font-size="20" lengthAdjust="spacing" textLength="89" x="346" y="191.9336">doShow()</text><polygon fill="#181818" points="531,249.707,541,253.707,531,257.707,535,253.707" style="stroke:#181818;stroke-width:1.0;"/><line style="stroke:#181818;stroke-width:1.0;stroke-dasharray:2.0,2.0;" x1="339" x2="537" y1="253.707" y2="253.707"/><text fill="#000000" font-family="sans-serif" font-size="20" lengthAdjust="spacing" textLength="72" x="346" y="247.4883">create()</text><polygon fill="#181818" points="526,287.2617,536,291.2617,526,295.2617,530,291.2617" style="stroke:#181818;stroke-width:1.0;"/><line style="stroke:#181818;stroke-width:1.0;" x1="339" x2="532" y1="291.2617" y2="291.2617"/><text fill="#000000" font-family="sans-serif" font-size="20" lengthAdjust="spacing" textLength="146" x="346" y="285.043">deactiveUsers()</text><polygon fill="#181818" points="780,324.8164,790,328.8164,780,332.8164,784,328.8164" style="stroke:#181818;stroke-width:1.0;"/><line style="stroke:#181818;stroke-width:1.0;" x1="548" x2="786" y1="328.8164" y2="328.8164"/><text fill="#000000" font-family="sans-serif" font-size="20" lengthAdjust="spacing" textLength="177" x="555" y="322.5977">deactivatedUsers()</text><polygon fill="#181818" points="1014.5,362.3711,1024.5,366.3711,1014.5,370.3711,1018.5,366.3711" style="stroke:#181818;stroke-width:1.0;"/><line style="stroke:#181818;stroke-width:1.0;" x1="802" x2="1020.5" y1="366.3711" y2="366.3711"/><text fill="#000000" font-family="sans-serif" font-size="20" lengthAdjust="spacing" textLength="128" x="809" y="360.1523">repositories()</text><polygon fill="#181818" points="1215,399.9258,1225,403.9258,1215,407.9258,1219,403.9258" style="stroke:#181818;stroke-width:1.0;"/><line style="stroke:#181818;stroke-width:1.0;" x1="1036.5" x2="1221" y1="403.9258" y2="403.9258"/><text fill="#000000" font-family="sans-serif" font-size="20" lengthAdjust="spacing" textLength="72" x="1043.5" y="397.707">create()</text><polygon fill="#181818" points="1047.5,413.9258,1037.5,417.9258,1047.5,421.9258,1043.5,417.9258" style="stroke:#181818;stroke-width:1.0;"/><line style="stroke:#181818;stroke-width:1.0;stroke-dasharray:2.0,2.0;" x1="1041.5" x2="1231" y1="417.9258" y2="417.9258"/><polygon fill="#181818" points="813,451.4805,803,455.4805,813,459.4805,809,455.4805" style="stroke:#181818;stroke-width:1.0;"/><line style="stroke:#181818;stroke-width:1.0;stroke-dasharray:2.0,2.0;" x1="807" x2="1030.5" y1="455.4805" y2="455.4805"/><text fill="#000000" font-family="sans-serif" font-size="20" lengthAdjust="spacing" textLength="65" x="819" y="449.2617">factory</text><polygon fill="#181818" points="1215,489.0352,1225,493.0352,1215,497.0352,1219,493.0352" style="stroke:#181818;stroke-width:1.0;"/><line style="stroke:#181818;stroke-width:1.0;" x1="802" x2="1221" y1="493.0352" y2="493.0352"/><text fill="#000000" font-family="sans-serif" font-size="20" lengthAdjust="spacing" textLength="65" x="809" y="486.8164">users()</text><polygon fill="#181818" points="1405,526.5898,1415,530.5898,1405,534.5898,1409,530.5898" style="stroke:#181818;stroke-width:1.0;"/><line style="stroke:#181818;stroke-width:1.0;" x1="1237" x2="1411" y1="530.5898" y2="530.5898"/><text fill="#000000" font-family="sans-serif" font-size="20" lengthAdjust="spacing" textLength="72" x="1244" y="524.3711">create()</text><polygon fill="#181818" points="813,564.1445,803,568.1445,813,572.1445,809,568.1445" style="stroke:#181818;stroke-width:1.0;"/><line style="stroke:#181818;stroke-width:1.0;stroke-dasharray:2.0,2.0;" x1="807" x2="1231" y1="568.1445" y2="568.1445"/><text fill="#000000" font-family="sans-serif" font-size="20" lengthAdjust="spacing" textLength="143" x="819" y="561.9258">userRepository</text><polygon fill="#181818" points="1400,601.6992,1410,605.6992,1400,609.6992,1404,605.6992" style="stroke:#181818;stroke-width:1.0;"/><line style="stroke:#181818;stroke-width:1.0;" x1="802" x2="1406" y1="605.6992" y2="605.6992"/><text fill="#000000" font-family="sans-serif" font-size="20" lengthAdjust="spacing" textLength="177" x="809" y="599.4805">findByActive(false)</text><polygon fill="#181818" points="813,615.6992,803,619.6992,813,623.6992,809,619.6992" style="stroke:#181818;stroke-width:1.0;"/><line style="stroke:#181818;stroke-width:1.0;stroke-dasharray:2.0,2.0;" x1="807" x2="1416" y1="619.6992" y2="619.6992"/><polygon fill="#181818" points="559,653.2539,549,657.2539,559,661.2539,555,657.2539" style="stroke:#181818;stroke-width:1.0;"/><line style="stroke:#181818;stroke-width:1.0;stroke-dasharray:2.0,2.0;" x1="553" x2="796" y1="657.2539" y2="657.2539"/><text fill="#000000" font-family="sans-serif" font-size="20" lengthAdjust="spacing" textLength="166" x="565" y="651.0352">deactiveUsersList</text><polygon fill="#181818" points="350,690.8086,340,694.8086,350,698.8086,346,694.8086" style="stroke:#181818;stroke-width:1.0;"/><line style="stroke:#181818;stroke-width:1.0;stroke-dasharray:2.0,2.0;" x1="344" x2="542" y1="694.8086" y2="694.8086"/><text fill="#000000" font-family="sans-serif" font-size="20" lengthAdjust="spacing" textLength="166" x="356" y="688.5898">deactiveUsersList</text><polygon fill="#181818" points="56,728.3633,46,732.3633,56,736.3633,52,732.3633" style="stroke:#181818;stroke-width:1.0;"/><line style="stroke:#181818;stroke-width:1.0;stroke-dasharray:2.0,2.0;" x1="50" x2="328" y1="732.3633" y2="732.3633"/><text fill="#000000" font-family="sans-serif" font-size="20" lengthAdjust="spacing" textLength="260" x="62" y="726.1445">show List of Deactive Users</text><polygon fill="#181818" points="317,765.918,327,769.918,317,773.918,321,769.918" style="stroke:#181818;stroke-width:1.0;"/><line style="stroke:#181818;stroke-width:1.0;" x1="45" x2="323" y1="769.918" y2="769.918"/><text fill="#000000" font-family="sans-serif" font-size="20" lengthAdjust="spacing" textLength="41" x="52" y="763.6992">user</text><polygon fill="#181818" points="526,803.4727,536,807.4727,526,811.4727,530,807.4727" style="stroke:#181818;stroke-width:1.0;"/><line style="stroke:#181818;stroke-width:1.0;" x1="339" x2="532" y1="807.4727" y2="807.4727"/><text fill="#000000" font-family="sans-serif" font-size="20" lengthAdjust="spacing" textLength="171" x="346" y="801.2539">activateUser(user)</text><polygon fill="#181818" points="780,841.0273,790,845.0273,780,849.0273,784,845.0273" style="stroke:#181818;stroke-width:1.0;"/><line style="stroke:#181818;stroke-width:1.0;" x1="548" x2="786" y1="845.0273" y2="845.0273"/><text fill="#000000" font-family="sans-serif" font-size="20" lengthAdjust="spacing" textLength="171" x="555" y="838.8086">activateUser(user)</text><polygon fill="#181818" points="1563,878.582,1573,882.582,1563,886.582,1567,882.582" style="stroke:#181818;stroke-width:1.0;"/><line style="stroke:#181818;stroke-width:1.0;" x1="802" x2="1569" y1="882.582" y2="882.582"/><text fill="#000000" font-family="sans-serif" font-size="20" lengthAdjust="spacing" textLength="87" x="809" y="876.3633">activate()</text><polygon fill="#181818" points="1405,916.1367,1415,920.1367,1405,924.1367,1409,920.1367" style="stroke:#181818;stroke-width:1.0;"/><line style="stroke:#181818;stroke-width:1.0;" x1="802" x2="1411" y1="920.1367" y2="920.1367"/><text fill="#000000" font-family="sans-serif" font-size="20" lengthAdjust="spacing" textLength="97" x="809" y="913.918">save(user)</text><polygon fill="#181818" points="559,953.6914,549,957.6914,559,961.6914,555,957.6914" style="stroke:#181818;stroke-width:1.0;"/><line style="stroke:#181818;stroke-width:1.0;stroke-dasharray:2.0,2.0;" x1="553" x2="796" y1="957.6914" y2="957.6914"/><text fill="#000000" font-family="sans-serif" font-size="20" lengthAdjust="spacing" textLength="41" x="565" y="951.4727">user</text><polygon fill="#181818" points="350,991.2461,340,995.2461,350,999.2461,346,995.2461" style="stroke:#181818;stroke-width:1.0;"/><line style="stroke:#181818;stroke-width:1.0;stroke-dasharray:2.0,2.0;" x1="344" x2="542" y1="995.2461" y2="995.2461"/><text fill="#000000" font-family="sans-serif" font-size="20" lengthAdjust="spacing" textLength="41" x="356" y="989.0273">user</text><polygon fill="#181818" points="56,1028.8008,46,1032.8008,56,1036.8008,52,1032.8008" style="stroke:#181818;stroke-width:1.0;"/><line style="stroke:#181818;stroke-width:1.0;stroke-dasharray:2.0,2.0;" x1="50" x2="328" y1="1032.8008" y2="1032.8008"/><text fill="#000000" font-family="sans-serif" font-size="20" lengthAdjust="spacing" textLength="236" x="62" y="1026.582">shows operation success</text><!--SRC=[dLJ1Rjim3BtxAuYUqaE0hCSU2cmB2WHOWM56Fa2GwLI8BNcItCxx-b6I7Skoqg3BoH7VUoBvI9cpa1tJh6qKFsC55TQiR-opahOKVn4UTeMP8D0ggVYhLYs2rJr6aOxnCpjXQOS6GIEtJ9wQ661UMQNUXJn1pHg3HM659MY9ltkK764lsCdXDkN-7hPmBE7BRhShwCUuLHhklbQja7V031mDwe9KhU2YOz9IZ5lnnYowY3aU0kgmn3p6eEzKdbPDWzfZvxy9ns5VcAJAMgI6e7uJ73rb_2wMX9zqlp3MLUGqyO_ruFNnalOBEsK4bJay-se7pwBJJ3epTcp66bOET5Vhm27LmHnDQAHlG6XW0VHpNx1zecR18rcatZVtHOZuw06sKx1IPGYxmAnq67K2SkuZCRX6WZZ12P40AlGwmRLKERB41o8cwOpTdqM8KcLrBZwvqub62cjBI4nFlHMu4ifuw04P8P8dK-8MB9ISOVx4WRRPN7nuBcscv6vRzACE0vGANCi-waX8kSyrSPdnKnYwbSLJENCo_M9UhnOL9J4frq9MtmQ_ihZnBqOwUUP23vp5pUbL4VfosOVZ-8EQbOeiHYcUnykEt598XtfQCECJSFi7ZWQgXlsevOCciwszYLMIMbZqrcqSyZ-twvREjUtoJqx4dqOauxHXv72G_jWVN_1dBScHRhjWG7MecHLAWkavHsF6Pp4Ptty0]--></g></svg>