<?xml version="1.0" encoding="UTF-8" standalone="no"?><svg xmlns="http://www.w3.org/2000/svg" xmlns:xlink="http://www.w3.org/1999/xlink" contentStyleType="text/css" height="937px" preserveAspectRatio="none" style="width:1575px;height:937px;background:#FFFFFF;" version="1.1" viewBox="0 0 1575 937" width="1575px" zoomAndPan="magnify"><defs/><g><text fill="#000000" font-family="sans-serif" font-size="14" font-weight="bold" lengthAdjust="spacing" textLength="251" x="661.25" y="28.5352">Sequence Diagram (SD) - US 2000c</text><rect fill="#FFFFFF" height="703.9844" style="stroke:#181818;stroke-width:1.0;" width="10" x="46" y="136.043"/><rect fill="#FFFFFF" height="619.875" style="stroke:#181818;stroke-width:1.0;" width="10" x="219" y="211.1523"/><rect fill="#FFFFFF" height="478.6563" style="stroke:#181818;stroke-width:1.0;" width="10" x="446" y="291.2617"/><rect fill="#FFFFFF" height="403.5469" style="stroke:#181818;stroke-width:1.0;" width="10" x="841" y="328.8164"/><rect fill="#FFFFFF" height="89.1094" style="stroke:#181818;stroke-width:1.0;" width="10" x="1041.5" y="366.3711"/><rect fill="#FFFFFF" height="14" style="stroke:#181818;stroke-width:1.0;" width="10" x="1242" y="403.9258"/><rect fill="#FFFFFF" height="75.1094" style="stroke:#181818;stroke-width:1.0;" width="10" x="1242" y="493.0352"/><rect fill="#FFFFFF" height="14" style="stroke:#181818;stroke-width:1.0;" width="10" x="1454.5" y="605.6992"/><line style="stroke:#181818;stroke-width:0.5;stroke-dasharray:5.0,5.0;" x1="51" x2="51" y1="126.043" y2="849.0273"/><line style="stroke:#181818;stroke-width:0.5;stroke-dasharray:5.0,5.0;" x1="224" x2="224" y1="126.043" y2="849.0273"/><line style="stroke:#181818;stroke-width:0.5;stroke-dasharray:5.0,5.0;" x1="451" x2="451" y1="126.043" y2="849.0273"/><line style="stroke:#181818;stroke-width:0.5;stroke-dasharray:5.0,5.0;" x1="845.5" x2="845.5" y1="126.043" y2="849.0273"/><line style="stroke:#181818;stroke-width:0.5;stroke-dasharray:5.0,5.0;" x1="1046.5" x2="1046.5" y1="126.043" y2="849.0273"/><line style="stroke:#181818;stroke-width:0.5;stroke-dasharray:5.0,5.0;" x1="1246.5" x2="1246.5" y1="126.043" y2="849.0273"/><line style="stroke:#181818;stroke-width:0.5;stroke-dasharray:5.0,5.0;" x1="1459.5" x2="1459.5" y1="126.043" y2="849.0273"/><text fill="#000000" font-family="sans-serif" font-size="20" lengthAdjust="spacing" textLength="86" x="5" y="121.8242">Operator</text><ellipse cx="51" cy="50.9883" fill="#E3E3E3" rx="8" ry="8" style="stroke:#181818;stroke-width:0.5;"/><path d="M51,58.9883 L51,85.9883 M38,66.9883 L64,66.9883 M51,85.9883 L38,100.9883 M51,85.9883 L64,100.9883 " fill="none" style="stroke:#181818;stroke-width:0.5;"/><text fill="#000000" font-family="sans-serif" font-size="20" lengthAdjust="spacing" textLength="86" x="5" y="867.3633">Operator</text><ellipse cx="51" cy="880.082" fill="#E3E3E3" rx="8" ry="8" style="stroke:#181818;stroke-width:0.5;"/><path d="M51,888.082 L51,915.082 M38,896.082 L64,896.082 M51,915.082 L38,930.082 M51,915.082 L64,930.082 " fill="none" style="stroke:#181818;stroke-width:0.5;"/><rect fill="#E3E3E3" height="37.5547" rx="2.5" ry="2.5" style="stroke:#181818;stroke-width:0.5;" width="176" x="136" y="87.4883"/><text fill="#000000" font-family="sans-serif" font-size="20" lengthAdjust="spacing" textLength="162" x="143" y="113.8242">ListCandidatesUI</text><rect fill="#E3E3E3" height="37.5547" rx="2.5" ry="2.5" style="stroke:#181818;stroke-width:0.5;" width="176" x="136" y="848.0273"/><text fill="#000000" font-family="sans-serif" font-size="20" lengthAdjust="spacing" textLength="162" x="143" y="874.3633">ListCandidatesUI</text><rect fill="#E3E3E3" height="37.5547" rx="2.5" ry="2.5" style="stroke:#181818;stroke-width:0.5;" width="258" x="322" y="87.4883"/><text fill="#000000" font-family="sans-serif" font-size="20" lengthAdjust="spacing" textLength="244" x="329" y="113.8242">:ListCandidatesController</text><rect fill="#E3E3E3" height="37.5547" rx="2.5" ry="2.5" style="stroke:#181818;stroke-width:0.5;" width="258" x="322" y="848.0273"/><text fill="#000000" font-family="sans-serif" font-size="20" lengthAdjust="spacing" textLength="244" x="329" y="874.3633">:ListCandidatesController</text><rect fill="#E3E3E3" height="37.5547" rx="2.5" ry="2.5" style="stroke:#181818;stroke-width:0.5;" width="185" x="753.5" y="87.4883"/><text fill="#000000" font-family="sans-serif" font-size="20" lengthAdjust="spacing" textLength="171" x="760.5" y="113.8242">:CandidateService</text><rect fill="#E3E3E3" height="37.5547" rx="2.5" ry="2.5" style="stroke:#181818;stroke-width:0.5;" width="185" x="753.5" y="848.0273"/><text fill="#000000" font-family="sans-serif" font-size="20" lengthAdjust="spacing" textLength="171" x="760.5" y="874.3633">:CandidateService</text><rect fill="#E3E3E3" height="37.5547" rx="2.5" ry="2.5" style="stroke:#181818;stroke-width:0.5;" width="196" x="948.5" y="87.4883"/><text fill="#000000" font-family="sans-serif" font-size="20" lengthAdjust="spacing" textLength="182" x="955.5" y="113.8242">PersistenceContext</text><rect fill="#E3E3E3" height="37.5547" rx="2.5" ry="2.5" style="stroke:#181818;stroke-width:0.5;" width="196" x="948.5" y="848.0273"/><text fill="#000000" font-family="sans-serif" font-size="20" lengthAdjust="spacing" textLength="182" x="955.5" y="874.3633">PersistenceContext</text><rect fill="#E3E3E3" height="37.5547" rx="2.5" ry="2.5" style="stroke:#181818;stroke-width:0.5;" width="185" x="1154.5" y="87.4883"/><text fill="#000000" font-family="sans-serif" font-size="20" lengthAdjust="spacing" textLength="171" x="1161.5" y="113.8242">RepositoryFactory</text><rect fill="#E3E3E3" height="37.5547" rx="2.5" ry="2.5" style="stroke:#181818;stroke-width:0.5;" width="185" x="1154.5" y="848.0273"/><text fill="#000000" font-family="sans-serif" font-size="20" lengthAdjust="spacing" textLength="171" x="1161.5" y="874.3633">RepositoryFactory</text><rect fill="#E3E3E3" height="37.5547" rx="2.5" ry="2.5" style="stroke:#181818;stroke-width:0.5;" width="220" x="1349.5" y="87.4883"/><text fill="#000000" font-family="sans-serif" font-size="20" lengthAdjust="spacing" textLength="206" x="1356.5" y="113.8242">:CandidateRepository</text><rect fill="#E3E3E3" height="37.5547" rx="2.5" ry="2.5" style="stroke:#181818;stroke-width:0.5;" width="220" x="1349.5" y="848.0273"/><text fill="#000000" font-family="sans-serif" font-size="20" lengthAdjust="spacing" textLength="206" x="1356.5" y="874.3633">:CandidateRepository</text><rect fill="#FFFFFF" height="703.9844" style="stroke:#181818;stroke-width:1.0;" width="10" x="46" y="136.043"/><rect fill="#FFFFFF" height="619.875" style="stroke:#181818;stroke-width:1.0;" width="10" x="219" y="211.1523"/><rect fill="#FFFFFF" height="478.6563" style="stroke:#181818;stroke-width:1.0;" width="10" x="446" y="291.2617"/><rect fill="#FFFFFF" height="403.5469" style="stroke:#181818;stroke-width:1.0;" width="10" x="841" y="328.8164"/><rect fill="#FFFFFF" height="89.1094" style="stroke:#181818;stroke-width:1.0;" width="10" x="1041.5" y="366.3711"/><rect fill="#FFFFFF" height="14" style="stroke:#181818;stroke-width:1.0;" width="10" x="1242" y="403.9258"/><rect fill="#FFFFFF" height="75.1094" style="stroke:#181818;stroke-width:1.0;" width="10" x="1242" y="493.0352"/><rect fill="#FFFFFF" height="14" style="stroke:#181818;stroke-width:1.0;" width="10" x="1454.5" y="605.6992"/><polygon fill="#181818" points="212,161.5977,222,165.5977,212,169.5977,216,165.5977" style="stroke:#181818;stroke-width:1.0;"/><line style="stroke:#181818;stroke-width:1.0;" x1="56" x2="218" y1="165.5977" y2="165.5977"/><text fill="#000000" font-family="sans-serif" font-size="20" lengthAdjust="spacing" textLength="63" x="63" y="159.3789">show()</text><line style="stroke:#181818;stroke-width:1.0;stroke-dasharray:2.0,2.0;" x1="224" x2="271" y1="198.1523" y2="198.1523"/><line style="stroke:#181818;stroke-width:1.0;stroke-dasharray:2.0,2.0;" x1="271" x2="271" y1="198.1523" y2="211.1523"/><line style="stroke:#181818;stroke-width:1.0;stroke-dasharray:2.0,2.0;" x1="230" x2="271" y1="211.1523" y2="211.1523"/><polygon fill="#181818" points="240,207.1523,230,211.1523,240,215.1523,236,211.1523" style="stroke:#181818;stroke-width:1.0;"/><text fill="#000000" font-family="sans-serif" font-size="20" lengthAdjust="spacing" textLength="89" x="236" y="191.9336">doShow()</text><polygon fill="#181818" points="439,249.707,449,253.707,439,257.707,443,253.707" style="stroke:#181818;stroke-width:1.0;"/><line style="stroke:#181818;stroke-width:1.0;stroke-dasharray:2.0,2.0;" x1="229" x2="445" y1="253.707" y2="253.707"/><text fill="#000000" font-family="sans-serif" font-size="20" lengthAdjust="spacing" textLength="72" x="236" y="247.4883">create()</text><polygon fill="#181818" points="434,287.2617,444,291.2617,434,295.2617,438,291.2617" style="stroke:#181818;stroke-width:1.0;"/><line style="stroke:#181818;stroke-width:1.0;" x1="229" x2="440" y1="291.2617" y2="291.2617"/><text fill="#000000" font-family="sans-serif" font-size="20" lengthAdjust="spacing" textLength="148" x="236" y="285.043">allActiveUsers()</text><polygon fill="#181818" points="829,324.8164,839,328.8164,829,332.8164,833,328.8164" style="stroke:#181818;stroke-width:1.0;"/><line style="stroke:#181818;stroke-width:1.0;" x1="456" x2="835" y1="328.8164" y2="328.8164"/><text fill="#000000" font-family="sans-serif" font-size="20" lengthAdjust="spacing" textLength="148" x="463" y="322.5977">allActiveUsers()</text><polygon fill="#181818" points="1029.5,362.3711,1039.5,366.3711,1029.5,370.3711,1033.5,366.3711" style="stroke:#181818;stroke-width:1.0;"/><line style="stroke:#181818;stroke-width:1.0;" x1="851" x2="1035.5" y1="366.3711" y2="366.3711"/><text fill="#000000" font-family="sans-serif" font-size="20" lengthAdjust="spacing" textLength="128" x="858" y="360.1523">repositories()</text><polygon fill="#181818" points="1230,399.9258,1240,403.9258,1230,407.9258,1234,403.9258" style="stroke:#181818;stroke-width:1.0;"/><line style="stroke:#181818;stroke-width:1.0;" x1="1051.5" x2="1236" y1="403.9258" y2="403.9258"/><text fill="#000000" font-family="sans-serif" font-size="20" lengthAdjust="spacing" textLength="72" x="1058.5" y="397.707">create()</text><polygon fill="#181818" points="1062.5,413.9258,1052.5,417.9258,1062.5,421.9258,1058.5,417.9258" style="stroke:#181818;stroke-width:1.0;"/><line style="stroke:#181818;stroke-width:1.0;stroke-dasharray:2.0,2.0;" x1="1056.5" x2="1246" y1="417.9258" y2="417.9258"/><polygon fill="#181818" points="862,451.4805,852,455.4805,862,459.4805,858,455.4805" style="stroke:#181818;stroke-width:1.0;"/><line style="stroke:#181818;stroke-width:1.0;stroke-dasharray:2.0,2.0;" x1="856" x2="1045.5" y1="455.4805" y2="455.4805"/><text fill="#000000" font-family="sans-serif" font-size="20" lengthAdjust="spacing" textLength="65" x="868" y="449.2617">factory</text><polygon fill="#181818" points="1230,489.0352,1240,493.0352,1230,497.0352,1234,493.0352" style="stroke:#181818;stroke-width:1.0;"/><line style="stroke:#181818;stroke-width:1.0;" x1="851" x2="1236" y1="493.0352" y2="493.0352"/><text fill="#000000" font-family="sans-serif" font-size="20" lengthAdjust="spacing" textLength="65" x="858" y="486.8164">users()</text><polygon fill="#181818" points="1447.5,526.5898,1457.5,530.5898,1447.5,534.5898,1451.5,530.5898" style="stroke:#181818;stroke-width:1.0;"/><line style="stroke:#181818;stroke-width:1.0;" x1="1252" x2="1453.5" y1="530.5898" y2="530.5898"/><text fill="#000000" font-family="sans-serif" font-size="20" lengthAdjust="spacing" textLength="72" x="1259" y="524.3711">create()</text><polygon fill="#181818" points="862,564.1445,852,568.1445,862,572.1445,858,568.1445" style="stroke:#181818;stroke-width:1.0;"/><line style="stroke:#181818;stroke-width:1.0;stroke-dasharray:2.0,2.0;" x1="856" x2="1246" y1="568.1445" y2="568.1445"/><text fill="#000000" font-family="sans-serif" font-size="20" lengthAdjust="spacing" textLength="143" x="868" y="561.9258">userRepository</text><polygon fill="#181818" points="1442.5,601.6992,1452.5,605.6992,1442.5,609.6992,1446.5,605.6992" style="stroke:#181818;stroke-width:1.0;"/><line style="stroke:#181818;stroke-width:1.0;" x1="851" x2="1448.5" y1="605.6992" y2="605.6992"/><text fill="#000000" font-family="sans-serif" font-size="20" lengthAdjust="spacing" textLength="136" x="858" y="599.4805">findAllActive()</text><polygon fill="#181818" points="862,615.6992,852,619.6992,862,623.6992,858,619.6992" style="stroke:#181818;stroke-width:1.0;"/><line style="stroke:#181818;stroke-width:1.0;stroke-dasharray:2.0,2.0;" x1="856" x2="1458.5" y1="619.6992" y2="619.6992"/><polygon fill="#181818" points="467,653.2539,457,657.2539,467,661.2539,463,657.2539" style="stroke:#181818;stroke-width:1.0;"/><line style="stroke:#181818;stroke-width:1.0;stroke-dasharray:2.0,2.0;" x1="461" x2="840" y1="657.2539" y2="657.2539"/><text fill="#000000" font-family="sans-serif" font-size="20" lengthAdjust="spacing" textLength="131" x="473" y="651.0352">allCandidates</text><polygon fill="#181818" points="829,690.8086,839,694.8086,829,698.8086,833,694.8086" style="stroke:#181818;stroke-width:1.0;"/><line style="stroke:#181818;stroke-width:1.0;" x1="456" x2="835" y1="694.8086" y2="694.8086"/><text fill="#000000" font-family="sans-serif" font-size="20" lengthAdjust="spacing" textLength="361" x="463" y="688.5898">sortUserAlphabetically(allCandidates)</text><polygon fill="#181818" points="467,728.3633,457,732.3633,467,736.3633,463,732.3633" style="stroke:#181818;stroke-width:1.0;"/><line style="stroke:#181818;stroke-width:1.0;stroke-dasharray:2.0,2.0;" x1="461" x2="845" y1="732.3633" y2="732.3633"/><text fill="#000000" font-family="sans-serif" font-size="20" lengthAdjust="spacing" textLength="131" x="473" y="726.1445">allCandidates</text><polygon fill="#181818" points="240,765.918,230,769.918,240,773.918,236,769.918" style="stroke:#181818;stroke-width:1.0;"/><line style="stroke:#181818;stroke-width:1.0;stroke-dasharray:2.0,2.0;" x1="234" x2="450" y1="769.918" y2="769.918"/><text fill="#000000" font-family="sans-serif" font-size="20" lengthAdjust="spacing" textLength="131" x="246" y="763.6992">allCandidates</text><polygon fill="#181818" points="67,827.0273,57,831.0273,67,835.0273,63,831.0273" style="stroke:#181818;stroke-width:1.0;"/><line style="stroke:#181818;stroke-width:1.0;stroke-dasharray:2.0,2.0;" x1="61" x2="223" y1="831.0273" y2="831.0273"/><text fill="#000000" font-family="sans-serif" font-size="20" lengthAdjust="spacing" textLength="139" x="73" y="801.2539">displays list of</text><text fill="#000000" font-family="sans-serif" font-size="20" lengthAdjust="spacing" textLength="104" x="79" y="824.8086">candidates</text><!--SRC=[bLF1QkCm4BtxAuQSaaCWxB67GcWf10fTQdBRYogF4n55SYMbNU_NToHPiMKxNUgJh7dlpSoRaJq9rJ33pbBp4rPGOSqkqZrfvKhn3-7Nfh090cUjD3yQVKPmveA3ICFuYHsmTAr4CCWTKmSv1DWZg_IdK0UecRHO54uuWfRuVa754Hu5EtZSidnSmHhs9MNUR7X17-DE6rYyD6WOdHR0BEmjceAKdU2YOSh1ubbOzy1K9IhcqEvt4RRBGNSvwe6wD5fAZABzxuXrPPHeFWJ7WExEHOxzZSPI3j-JbyE_Be2drpdj5Hjj1NNNFeLssy2YsrkLz8HOEbCU7CmI7nIF3XL0dp_1-fxCW3kQW_vSheeO2T4Th5EmqcKC-q2ljEjq8h9tYHZS846yO4AC04pAhHT2NuKTImyS3u41bOGwX_-hSfs4lqqauazD9ocJZ1Cu4PgPKW3C294y6Jvq85CAm_0t7hIUhIM4AvnIvh9bRjHnHSO2jweVE19BlioPc5TytstKPCIfdxuQhzPluysk1bLSfMkXgcqQxMGtkfKEUn4PMU9nfY7-ccnc7Vld__tEMMsSNxUjR8xi3UaH4hbTPWgh7wKR5PojxR2Az1o_PO-VJdh7DYIkX6qaQor8sWZGzHy5_APKUk2ZiNq1]--></g></svg>