<?xml version="1.0" encoding="UTF-8" standalone="no"?><svg xmlns="http://www.w3.org/2000/svg" xmlns:xlink="http://www.w3.org/1999/xlink" contentStyleType="text/css" height="1411px" preserveAspectRatio="none" style="width:2078px;height:1411px;background:#FFFFFF;" version="1.1" viewBox="0 0 2078 1411" width="2078px" zoomAndPan="magnify"><defs/><g><text fill="#000000" font-family="sans-serif" font-size="14" font-weight="bold" lengthAdjust="spacing" textLength="244" x="916" y="28.5352">Sequence Diagram (SD) - US 1009</text><rect fill="#FFFFFF" height="1178.1953" style="stroke:#181818;stroke-width:1.0;" width="10" x="93.5" y="136.043"/><rect fill="#FFFFFF" height="1103.0859" style="stroke:#181818;stroke-width:1.0;" width="10" x="460.5" y="211.1523"/><rect fill="#FFFFFF" height="351.9922" style="stroke:#181818;stroke-width:1.0;" width="10" x="873.5" y="291.2617"/><rect fill="#FFFFFF" height="534.7656" style="stroke:#181818;stroke-width:1.0;" width="10" x="873.5" y="779.4727"/><rect fill="#FFFFFF" height="149.6641" style="stroke:#181818;stroke-width:1.0;" width="10" x="878.5" y="1164.5742"/><rect fill="#FFFFFF" height="89.1094" style="stroke:#181818;stroke-width:1.0;" width="10" x="1195" y="328.8164"/><rect fill="#FFFFFF" height="14" style="stroke:#181818;stroke-width:1.0;" width="10" x="1395.5" y="366.3711"/><rect fill="#FFFFFF" height="75.1094" style="stroke:#181818;stroke-width:1.0;" width="10" x="1395.5" y="455.4805"/><rect fill="#FFFFFF" height="75.1094" style="stroke:#181818;stroke-width:1.0;" width="10" x="1395.5" y="817.0273"/><rect fill="#FFFFFF" height="37.5547" style="stroke:#181818;stroke-width:1.0;" width="10" x="1615.5" y="568.1445"/><rect fill="#FFFFFF" height="37.5547" style="stroke:#181818;stroke-width:1.0;" width="10" x="1833.5" y="929.6914"/><rect fill="#FFFFFF" height="14" style="stroke:#181818;stroke-width:1.0;" width="10" x="2000.5" y="1202.1289"/><line style="stroke:#181818;stroke-width:0.5;stroke-dasharray:5.0,5.0;" x1="98" x2="98" y1="126.043" y2="1323.2383"/><line style="stroke:#181818;stroke-width:0.5;stroke-dasharray:5.0,5.0;" x1="465" x2="465" y1="126.043" y2="1323.2383"/><line style="stroke:#181818;stroke-width:0.5;stroke-dasharray:5.0,5.0;" x1="878" x2="878" y1="126.043" y2="1323.2383"/><line style="stroke:#181818;stroke-width:0.5;stroke-dasharray:5.0,5.0;" x1="1200" x2="1200" y1="126.043" y2="1323.2383"/><line style="stroke:#181818;stroke-width:0.5;stroke-dasharray:5.0,5.0;" x1="1400" x2="1400" y1="126.043" y2="1323.2383"/><line style="stroke:#181818;stroke-width:0.5;stroke-dasharray:5.0,5.0;" x1="1620" x2="1620" y1="126.043" y2="1323.2383"/><line style="stroke:#181818;stroke-width:0.5;stroke-dasharray:5.0,5.0;" x1="1838" x2="1838" y1="126.043" y2="1323.2383"/><line style="stroke:#181818;stroke-width:0.5;stroke-dasharray:5.0,5.0;" x1="2005" x2="2005" y1="126.043" y2="1323.2383"/><text fill="#000000" font-family="sans-serif" font-size="20" lengthAdjust="spacing" textLength="181" x="5" y="121.8242">Customer Manager</text><ellipse cx="98.5" cy="50.9883" fill="#E3E3E3" rx="8" ry="8" style="stroke:#181818;stroke-width:0.5;"/><path d="M98.5,58.9883 L98.5,85.9883 M85.5,66.9883 L111.5,66.9883 M98.5,85.9883 L85.5,100.9883 M98.5,85.9883 L111.5,100.9883 " fill="none" style="stroke:#181818;stroke-width:0.5;"/><text fill="#000000" font-family="sans-serif" font-size="20" lengthAdjust="spacing" textLength="181" x="5" y="1341.5742">Customer Manager</text><ellipse cx="98.5" cy="1354.293" fill="#E3E3E3" rx="8" ry="8" style="stroke:#181818;stroke-width:0.5;"/><path d="M98.5,1362.293 L98.5,1389.293 M85.5,1370.293 L111.5,1370.293 M98.5,1389.293 L85.5,1404.293 M98.5,1389.293 L111.5,1404.293 " fill="none" style="stroke:#181818;stroke-width:0.5;"/><rect fill="#E3E3E3" height="37.5547" rx="2.5" ry="2.5" style="stroke:#181818;stroke-width:0.5;" width="345" x="293" y="87.4883"/><text fill="#000000" font-family="sans-serif" font-size="20" lengthAdjust="spacing" textLength="331" x="300" y="113.8242">SelectRequirementsSpecificationUI</text><rect fill="#E3E3E3" height="37.5547" rx="2.5" ry="2.5" style="stroke:#181818;stroke-width:0.5;" width="345" x="293" y="1322.2383"/><text fill="#000000" font-family="sans-serif" font-size="20" lengthAdjust="spacing" textLength="331" x="300" y="1348.5742">SelectRequirementsSpecificationUI</text><rect fill="#E3E3E3" height="37.5547" rx="2.5" ry="2.5" style="stroke:#181818;stroke-width:0.5;" width="427" x="665" y="87.4883"/><text fill="#000000" font-family="sans-serif" font-size="20" lengthAdjust="spacing" textLength="413" x="672" y="113.8242">:SelectRequirementsSpecificationController</text><rect fill="#E3E3E3" height="37.5547" rx="2.5" ry="2.5" style="stroke:#181818;stroke-width:0.5;" width="427" x="665" y="1322.2383"/><text fill="#000000" font-family="sans-serif" font-size="20" lengthAdjust="spacing" textLength="413" x="672" y="1348.5742">:SelectRequirementsSpecificationController</text><rect fill="#E3E3E3" height="37.5547" rx="2.5" ry="2.5" style="stroke:#181818;stroke-width:0.5;" width="196" x="1102" y="87.4883"/><text fill="#000000" font-family="sans-serif" font-size="20" lengthAdjust="spacing" textLength="182" x="1109" y="113.8242">PersistenceContext</text><rect fill="#E3E3E3" height="37.5547" rx="2.5" ry="2.5" style="stroke:#181818;stroke-width:0.5;" width="196" x="1102" y="1322.2383"/><text fill="#000000" font-family="sans-serif" font-size="20" lengthAdjust="spacing" textLength="182" x="1109" y="1348.5742">PersistenceContext</text><rect fill="#E3E3E3" height="37.5547" rx="2.5" ry="2.5" style="stroke:#181818;stroke-width:0.5;" width="185" x="1308" y="87.4883"/><text fill="#000000" font-family="sans-serif" font-size="20" lengthAdjust="spacing" textLength="171" x="1315" y="113.8242">RepositoryFactory</text><rect fill="#E3E3E3" height="37.5547" rx="2.5" ry="2.5" style="stroke:#181818;stroke-width:0.5;" width="185" x="1308" y="1322.2383"/><text fill="#000000" font-family="sans-serif" font-size="20" lengthAdjust="spacing" textLength="171" x="1315" y="1348.5742">RepositoryFactory</text><rect fill="#E3E3E3" height="37.5547" rx="2.5" ry="2.5" style="stroke:#181818;stroke-width:0.5;" width="235" x="1503" y="87.4883"/><text fill="#000000" font-family="sans-serif" font-size="20" lengthAdjust="spacing" textLength="221" x="1510" y="113.8242">:JobOpeningRepository</text><rect fill="#E3E3E3" height="37.5547" rx="2.5" ry="2.5" style="stroke:#181818;stroke-width:0.5;" width="235" x="1503" y="1322.2383"/><text fill="#000000" font-family="sans-serif" font-size="20" lengthAdjust="spacing" textLength="221" x="1510" y="1348.5742">:JobOpeningRepository</text><rect fill="#E3E3E3" height="37.5547" rx="2.5" ry="2.5" style="stroke:#181818;stroke-width:0.5;" width="181" x="1748" y="87.4883"/><text fill="#000000" font-family="sans-serif" font-size="20" lengthAdjust="spacing" textLength="167" x="1755" y="113.8242">:PluginRepository</text><rect fill="#E3E3E3" height="37.5547" rx="2.5" ry="2.5" style="stroke:#181818;stroke-width:0.5;" width="181" x="1748" y="1322.2383"/><text fill="#000000" font-family="sans-serif" font-size="20" lengthAdjust="spacing" textLength="167" x="1755" y="1348.5742">:PluginRepository</text><rect fill="#E3E3E3" height="37.5547" rx="2.5" ry="2.5" style="stroke:#181818;stroke-width:0.5;" width="133" x="1939" y="87.4883"/><text fill="#000000" font-family="sans-serif" font-size="20" lengthAdjust="spacing" textLength="119" x="1946" y="113.8242">:JobOpening</text><rect fill="#E3E3E3" height="37.5547" rx="2.5" ry="2.5" style="stroke:#181818;stroke-width:0.5;" width="133" x="1939" y="1322.2383"/><text fill="#000000" font-family="sans-serif" font-size="20" lengthAdjust="spacing" textLength="119" x="1946" y="1348.5742">:JobOpening</text><rect fill="#FFFFFF" height="1178.1953" style="stroke:#181818;stroke-width:1.0;" width="10" x="93.5" y="136.043"/><rect fill="#FFFFFF" height="1103.0859" style="stroke:#181818;stroke-width:1.0;" width="10" x="460.5" y="211.1523"/><rect fill="#FFFFFF" height="351.9922" style="stroke:#181818;stroke-width:1.0;" width="10" x="873.5" y="291.2617"/><rect fill="#FFFFFF" height="534.7656" style="stroke:#181818;stroke-width:1.0;" width="10" x="873.5" y="779.4727"/><rect fill="#FFFFFF" height="149.6641" style="stroke:#181818;stroke-width:1.0;" width="10" x="878.5" y="1164.5742"/><rect fill="#FFFFFF" height="89.1094" style="stroke:#181818;stroke-width:1.0;" width="10" x="1195" y="328.8164"/><rect fill="#FFFFFF" height="14" style="stroke:#181818;stroke-width:1.0;" width="10" x="1395.5" y="366.3711"/><rect fill="#FFFFFF" height="75.1094" style="stroke:#181818;stroke-width:1.0;" width="10" x="1395.5" y="455.4805"/><rect fill="#FFFFFF" height="75.1094" style="stroke:#181818;stroke-width:1.0;" width="10" x="1395.5" y="817.0273"/><rect fill="#FFFFFF" height="37.5547" style="stroke:#181818;stroke-width:1.0;" width="10" x="1615.5" y="568.1445"/><rect fill="#FFFFFF" height="37.5547" style="stroke:#181818;stroke-width:1.0;" width="10" x="1833.5" y="929.6914"/><rect fill="#FFFFFF" height="14" style="stroke:#181818;stroke-width:1.0;" width="10" x="2000.5" y="1202.1289"/><polygon fill="#181818" points="453.5,161.5977,463.5,165.5977,453.5,169.5977,457.5,165.5977" style="stroke:#181818;stroke-width:1.0;"/><line style="stroke:#181818;stroke-width:1.0;" x1="103.5" x2="459.5" y1="165.5977" y2="165.5977"/><text fill="#000000" font-family="sans-serif" font-size="20" lengthAdjust="spacing" textLength="63" x="110.5" y="159.3789">show()</text><line style="stroke:#181818;stroke-width:1.0;stroke-dasharray:2.0,2.0;" x1="465.5" x2="512.5" y1="198.1523" y2="198.1523"/><line style="stroke:#181818;stroke-width:1.0;stroke-dasharray:2.0,2.0;" x1="512.5" x2="512.5" y1="198.1523" y2="211.1523"/><line style="stroke:#181818;stroke-width:1.0;stroke-dasharray:2.0,2.0;" x1="471.5" x2="512.5" y1="211.1523" y2="211.1523"/><polygon fill="#181818" points="481.5,207.1523,471.5,211.1523,481.5,215.1523,477.5,211.1523" style="stroke:#181818;stroke-width:1.0;"/><text fill="#000000" font-family="sans-serif" font-size="20" lengthAdjust="spacing" textLength="89" x="477.5" y="191.9336">doShow()</text><polygon fill="#181818" points="866.5,249.707,876.5,253.707,866.5,257.707,870.5,253.707" style="stroke:#181818;stroke-width:1.0;"/><line style="stroke:#181818;stroke-width:1.0;stroke-dasharray:2.0,2.0;" x1="470.5" x2="872.5" y1="253.707" y2="253.707"/><text fill="#000000" font-family="sans-serif" font-size="20" lengthAdjust="spacing" textLength="72" x="477.5" y="247.4883">create()</text><polygon fill="#181818" points="861.5,287.2617,871.5,291.2617,861.5,295.2617,865.5,291.2617" style="stroke:#181818;stroke-width:1.0;"/><line style="stroke:#181818;stroke-width:1.0;" x1="470.5" x2="867.5" y1="291.2617" y2="291.2617"/><text fill="#000000" font-family="sans-serif" font-size="20" lengthAdjust="spacing" textLength="160" x="477.5" y="285.043">allJobOpenings()</text><polygon fill="#181818" points="1183,324.8164,1193,328.8164,1183,332.8164,1187,328.8164" style="stroke:#181818;stroke-width:1.0;"/><line style="stroke:#181818;stroke-width:1.0;" x1="883.5" x2="1189" y1="328.8164" y2="328.8164"/><text fill="#000000" font-family="sans-serif" font-size="20" lengthAdjust="spacing" textLength="128" x="890.5" y="322.5977">repositories()</text><polygon fill="#181818" points="1383.5,362.3711,1393.5,366.3711,1383.5,370.3711,1387.5,366.3711" style="stroke:#181818;stroke-width:1.0;"/><line style="stroke:#181818;stroke-width:1.0;" x1="1205" x2="1389.5" y1="366.3711" y2="366.3711"/><text fill="#000000" font-family="sans-serif" font-size="20" lengthAdjust="spacing" textLength="72" x="1212" y="360.1523">create()</text><polygon fill="#181818" points="1216,376.3711,1206,380.3711,1216,384.3711,1212,380.3711" style="stroke:#181818;stroke-width:1.0;"/><line style="stroke:#181818;stroke-width:1.0;stroke-dasharray:2.0,2.0;" x1="1210" x2="1399.5" y1="380.3711" y2="380.3711"/><polygon fill="#181818" points="894.5,413.9258,884.5,417.9258,894.5,421.9258,890.5,417.9258" style="stroke:#181818;stroke-width:1.0;"/><line style="stroke:#181818;stroke-width:1.0;stroke-dasharray:2.0,2.0;" x1="888.5" x2="1199" y1="417.9258" y2="417.9258"/><text fill="#000000" font-family="sans-serif" font-size="20" lengthAdjust="spacing" textLength="65" x="900.5" y="411.707">factory</text><polygon fill="#181818" points="1383.5,451.4805,1393.5,455.4805,1383.5,459.4805,1387.5,455.4805" style="stroke:#181818;stroke-width:1.0;"/><line style="stroke:#181818;stroke-width:1.0;" x1="883.5" x2="1389.5" y1="455.4805" y2="455.4805"/><text fill="#000000" font-family="sans-serif" font-size="20" lengthAdjust="spacing" textLength="133" x="890.5" y="449.2617">jobopenings()</text><polygon fill="#181818" points="1608.5,489.0352,1618.5,493.0352,1608.5,497.0352,1612.5,493.0352" style="stroke:#181818;stroke-width:1.0;"/><line style="stroke:#181818;stroke-width:1.0;" x1="1405.5" x2="1614.5" y1="493.0352" y2="493.0352"/><text fill="#000000" font-family="sans-serif" font-size="20" lengthAdjust="spacing" textLength="72" x="1412.5" y="486.8164">create()</text><polygon fill="#181818" points="894.5,526.5898,884.5,530.5898,894.5,534.5898,890.5,530.5898" style="stroke:#181818;stroke-width:1.0;"/><line style="stroke:#181818;stroke-width:1.0;stroke-dasharray:2.0,2.0;" x1="888.5" x2="1399.5" y1="530.5898" y2="530.5898"/><text fill="#000000" font-family="sans-serif" font-size="20" lengthAdjust="spacing" textLength="215" x="900.5" y="524.3711">jobOpeningRepository</text><polygon fill="#181818" points="1603.5,564.1445,1613.5,568.1445,1603.5,572.1445,1607.5,568.1445" style="stroke:#181818;stroke-width:1.0;"/><line style="stroke:#181818;stroke-width:1.0;" x1="883.5" x2="1609.5" y1="568.1445" y2="568.1445"/><text fill="#000000" font-family="sans-serif" font-size="20" lengthAdjust="spacing" textLength="78" x="890.5" y="561.9258">findAll()</text><polygon fill="#181818" points="894.5,601.6992,884.5,605.6992,894.5,609.6992,890.5,605.6992" style="stroke:#181818;stroke-width:1.0;"/><line style="stroke:#181818;stroke-width:1.0;stroke-dasharray:2.0,2.0;" x1="888.5" x2="1619.5" y1="605.6992" y2="605.6992"/><text fill="#000000" font-family="sans-serif" font-size="20" lengthAdjust="spacing" textLength="123" x="900.5" y="599.4805">jobOpenings</text><polygon fill="#181818" points="481.5,639.2539,471.5,643.2539,481.5,647.2539,477.5,643.2539" style="stroke:#181818;stroke-width:1.0;"/><line style="stroke:#181818;stroke-width:1.0;stroke-dasharray:2.0,2.0;" x1="475.5" x2="877.5" y1="643.2539" y2="643.2539"/><text fill="#000000" font-family="sans-serif" font-size="20" lengthAdjust="spacing" textLength="123" x="487.5" y="637.0352">jobOpenings</text><polygon fill="#181818" points="114.5,700.3633,104.5,704.3633,114.5,708.3633,110.5,704.3633" style="stroke:#181818;stroke-width:1.0;"/><line style="stroke:#181818;stroke-width:1.0;stroke-dasharray:2.0,2.0;" x1="108.5" x2="459.5" y1="704.3633" y2="704.3633"/><text fill="#000000" font-family="sans-serif" font-size="20" lengthAdjust="spacing" textLength="139" x="120.5" y="674.5898">displays list of</text><text fill="#000000" font-family="sans-serif" font-size="20" lengthAdjust="spacing" textLength="123" x="126.5" y="698.1445">jobOpenings</text><polygon fill="#181818" points="448.5,737.918,458.5,741.918,448.5,745.918,452.5,741.918" style="stroke:#181818;stroke-width:1.0;"/><line style="stroke:#181818;stroke-width:1.0;" x1="103.5" x2="454.5" y1="741.918" y2="741.918"/><text fill="#000000" font-family="sans-serif" font-size="20" lengthAdjust="spacing" textLength="203" x="110.5" y="735.6992">selects a job opening</text><polygon fill="#181818" points="861.5,775.4727,871.5,779.4727,861.5,783.4727,865.5,779.4727" style="stroke:#181818;stroke-width:1.0;"/><line style="stroke:#181818;stroke-width:1.0;" x1="470.5" x2="867.5" y1="779.4727" y2="779.4727"/><text fill="#000000" font-family="sans-serif" font-size="20" lengthAdjust="spacing" textLength="170" x="477.5" y="773.2539">allRequirements()</text><polygon fill="#181818" points="1383.5,813.0273,1393.5,817.0273,1383.5,821.0273,1387.5,817.0273" style="stroke:#181818;stroke-width:1.0;"/><line style="stroke:#181818;stroke-width:1.0;" x1="883.5" x2="1389.5" y1="817.0273" y2="817.0273"/><text fill="#000000" font-family="sans-serif" font-size="20" lengthAdjust="spacing" textLength="133" x="890.5" y="810.8086">jobopenings()</text><polygon fill="#181818" points="1826.5,850.582,1836.5,854.582,1826.5,858.582,1830.5,854.582" style="stroke:#181818;stroke-width:1.0;"/><line style="stroke:#181818;stroke-width:1.0;" x1="1405.5" x2="1832.5" y1="854.582" y2="854.582"/><text fill="#000000" font-family="sans-serif" font-size="20" lengthAdjust="spacing" textLength="72" x="1412.5" y="848.3633">create()</text><polygon fill="#181818" points="894.5,888.1367,884.5,892.1367,894.5,896.1367,890.5,892.1367" style="stroke:#181818;stroke-width:1.0;"/><line style="stroke:#181818;stroke-width:1.0;stroke-dasharray:2.0,2.0;" x1="888.5" x2="1399.5" y1="892.1367" y2="892.1367"/><text fill="#000000" font-family="sans-serif" font-size="20" lengthAdjust="spacing" textLength="163" x="900.5" y="885.918">pluginRepository</text><polygon fill="#181818" points="1821.5,925.6914,1831.5,929.6914,1821.5,933.6914,1825.5,929.6914" style="stroke:#181818;stroke-width:1.0;"/><line style="stroke:#181818;stroke-width:1.0;" x1="883.5" x2="1827.5" y1="929.6914" y2="929.6914"/><text fill="#000000" font-family="sans-serif" font-size="20" lengthAdjust="spacing" textLength="78" x="890.5" y="923.4727">findAll()</text><polygon fill="#181818" points="894.5,963.2461,884.5,967.2461,894.5,971.2461,890.5,967.2461" style="stroke:#181818;stroke-width:1.0;"/><line style="stroke:#181818;stroke-width:1.0;stroke-dasharray:2.0,2.0;" x1="888.5" x2="1837.5" y1="967.2461" y2="967.2461"/><text fill="#000000" font-family="sans-serif" font-size="20" lengthAdjust="spacing" textLength="128" x="900.5" y="961.0273">requirements</text><polygon fill="#181818" points="481.5,1000.8008,471.5,1004.8008,481.5,1008.8008,477.5,1004.8008" style="stroke:#181818;stroke-width:1.0;"/><line style="stroke:#181818;stroke-width:1.0;stroke-dasharray:2.0,2.0;" x1="475.5" x2="872.5" y1="1004.8008" y2="1004.8008"/><text fill="#000000" font-family="sans-serif" font-size="20" lengthAdjust="spacing" textLength="128" x="487.5" y="998.582">requirements</text><polygon fill="#181818" points="114.5,1061.9102,104.5,1065.9102,114.5,1069.9102,110.5,1065.9102" style="stroke:#181818;stroke-width:1.0;"/><line style="stroke:#181818;stroke-width:1.0;stroke-dasharray:2.0,2.0;" x1="108.5" x2="459.5" y1="1065.9102" y2="1065.9102"/><text fill="#000000" font-family="sans-serif" font-size="20" lengthAdjust="spacing" textLength="290" x="120.5" y="1036.1367">lists requirement specification</text><text fill="#000000" font-family="sans-serif" font-size="20" lengthAdjust="spacing" textLength="204" x="126.5" y="1059.6914">plugins in the system</text><polygon fill="#181818" points="448.5,1099.4648,458.5,1103.4648,448.5,1107.4648,452.5,1103.4648" style="stroke:#181818;stroke-width:1.0;"/><line style="stroke:#181818;stroke-width:1.0;" x1="103.5" x2="454.5" y1="1103.4648" y2="1103.4648"/><text fill="#000000" font-family="sans-serif" font-size="20" lengthAdjust="spacing" textLength="333" x="110.5" y="1097.2461">selects a requirement specification</text><polygon fill="#181818" points="866.5,1160.5742,876.5,1164.5742,866.5,1168.5742,870.5,1164.5742" style="stroke:#181818;stroke-width:1.0;"/><line style="stroke:#181818;stroke-width:1.0;" x1="470.5" x2="872.5" y1="1164.5742" y2="1164.5742"/><text fill="#000000" font-family="sans-serif" font-size="20" lengthAdjust="spacing" textLength="310" x="477.5" y="1134.8008">selectRequirementsSpecification</text><text fill="#000000" font-family="sans-serif" font-size="20" lengthAdjust="spacing" textLength="379" x="477.5" y="1158.3555">(requirementSpecification, jobOpening)</text><polygon fill="#181818" points="1988.5,1198.1289,1998.5,1202.1289,1988.5,1206.1289,1992.5,1202.1289" style="stroke:#181818;stroke-width:1.0;"/><line style="stroke:#181818;stroke-width:1.0;" x1="888.5" x2="1994.5" y1="1202.1289" y2="1202.1289"/><text fill="#000000" font-family="sans-serif" font-size="20" lengthAdjust="spacing" textLength="400" x="895.5" y="1195.9102">RequirementSpecificationSelected(plugIn)</text><polygon fill="#181818" points="899.5,1212.1289,889.5,1216.1289,899.5,1220.1289,895.5,1216.1289" style="stroke:#181818;stroke-width:1.0;"/><line style="stroke:#181818;stroke-width:1.0;stroke-dasharray:2.0,2.0;" x1="893.5" x2="2004.5" y1="1216.1289" y2="1216.1289"/><polygon fill="#181818" points="1608.5,1249.6836,1618.5,1253.6836,1608.5,1257.6836,1612.5,1253.6836" style="stroke:#181818;stroke-width:1.0;"/><line style="stroke:#181818;stroke-width:1.0;" x1="888.5" x2="1614.5" y1="1253.6836" y2="1253.6836"/><text fill="#000000" font-family="sans-serif" font-size="20" lengthAdjust="spacing" textLength="169" x="895.5" y="1247.4648">save(jobOpening)</text><polygon fill="#181818" points="481.5,1263.6836,471.5,1267.6836,481.5,1271.6836,477.5,1267.6836" style="stroke:#181818;stroke-width:1.0;"/><line style="stroke:#181818;stroke-width:1.0;stroke-dasharray:2.0,2.0;" x1="475.5" x2="877.5" y1="1267.6836" y2="1267.6836"/><polygon fill="#181818" points="114.5,1301.2383,104.5,1305.2383,114.5,1309.2383,110.5,1305.2383" style="stroke:#181818;stroke-width:1.0;"/><line style="stroke:#181818;stroke-width:1.0;stroke-dasharray:2.0,2.0;" x1="108.5" x2="459.5" y1="1305.2383" y2="1305.2383"/><text fill="#000000" font-family="sans-serif" font-size="20" lengthAdjust="spacing" textLength="227" x="120.5" y="1299.0195">Show operation success</text><!--SRC=[ZLLDRzim3BtxLn0zfS02TBkjXm93Ym8PCAo8aLilgisaQXN94vLssQyVvOz47xPRdnBnyP5wUgBeLUf6MB5Nfdh56chSYeDozqQxKlv3-7PLq021lT6cUhPcZ-3i0OD88wfNiSFI7HM2nSe9lLCXW9v5RTwbti5MACAYSD8njCG_1zGLmfqKEuzRb7UNi8HD2L-lhhuN_8dA6GiNjmToNDZ2Bw6vahq0GR0Xj0KNSBAIZT0EBafKN7tDjDBY7hMZii5ARcKbd3Hwi-hoLd7MzGTfjoo7DKhrPSz_YvZd0Ir9Sdv77eD_NOlFb-EqDJQ696_pUD_kzjXcyMhIvK_pzBj1pIgUCree1tBqWphif4wGl3Z7Ex3rVplvvPjms6bT07_-5onlM4MuveCrxulBBj06Lx0SOhKfkwWFd8bMFKs7F8l96PL5XWny7f40X5BdzYYb3W_61u9K9igFWGdje8_4Z6xat5h0217JiwxX3Y8chtcxua7BqLxQS8rvobYrL9PjvvkKOse3iIvTuo_coKp86dT_qzijEwvXRr5dBoEUdTngtDUfp5Rg-eTIQLkzwzl57ZjJdjAgGtfMUR3lJ6vgjC7rr1Qj9JLA70aKYmzc-wWZhf5Br8uV0k5nO4wNBxnK-KK8nrMlpUnj6BxFdNv6Tz9w-7etT2CbSqE4IhjlajaKPOmvOxptK-dO8Ldh_TIBWdrkrfeDL9rgQunlp44HLuIE3UDzGY4QA7n-s3-TO0HIWtj6e2FVwdr2EUweITQyeKG9cdyK7_KYu8v2NmA_Jnp9vynvdlNSptgYMlTuOxtm8gtqHC7mLGi1GOdO2rE7FqKqCRn8lE4Yb6FUDNCsyQ-fdmwstJRGeQgGUcCbb-O_]--></g></svg>