<?xml version="1.0" encoding="us-ascii" standalone="no"?><svg xmlns="http://www.w3.org/2000/svg" xmlns:xlink="http://www.w3.org/1999/xlink" contentStyleType="text/css" height="465px" preserveAspectRatio="none" style="width:324px;height:465px;background:#FFFFFF;" version="1.1" viewBox="0 0 324 465" width="324px" zoomAndPan="magnify"><defs/><g><text fill="#000000" font-family="sans-serif" font-size="14" font-weight="bold" lengthAdjust="spacing" textLength="296" x="10" y="30.1074">System Sequence Diagram (SSD) - US 1010</text><rect fill="#FFFFFF" height="240.6191" style="stroke:#181818;stroke-width:1.0;" width="10" x="69.25" y="133.2422"/><rect fill="#FFFFFF" height="31.291" style="stroke:#181818;stroke-width:1.0;" width="10" x="269.25" y="156.5332"/><rect fill="#FFFFFF" height="65.873" style="stroke:#181818;stroke-width:1.0;" width="10" x="269.25" y="219.1152"/><rect fill="#FFFFFF" height="48.582" style="stroke:#181818;stroke-width:1.0;" width="10" x="269.25" y="316.2793"/><line style="stroke:#181818;stroke-width:0.5;stroke-dasharray:5.0,5.0;" x1="73.75" x2="73.75" y1="123.2422" y2="382.8613"/><line style="stroke:#181818;stroke-width:0.5;stroke-dasharray:5.0,5.0;" x1="274.25" x2="274.25" y1="123.2422" y2="382.8613"/><text fill="#000000" font-family="sans-serif" font-size="14" lengthAdjust="spacing" textLength="121" x="10.75" y="119.7285">Customer Manager</text><ellipse cx="74.25" cy="53.1211" fill="#E3E3E3" rx="8" ry="8" style="stroke:#181818;stroke-width:0.5;"/><path d="M74.25,61.1211 L74.25,88.1211 M61.25,69.1211 L87.25,69.1211 M74.25,88.1211 L61.25,103.1211 M74.25,88.1211 L87.25,103.1211 " fill="none" style="stroke:#181818;stroke-width:0.5;"/><text fill="#000000" font-family="sans-serif" font-size="14" lengthAdjust="spacing" textLength="121" x="10.75" y="396.9688">Customer Manager</text><ellipse cx="74.25" cy="408.9824" fill="#E3E3E3" rx="8" ry="8" style="stroke:#181818;stroke-width:0.5;"/><path d="M74.25,416.9824 L74.25,443.9824 M61.25,424.9824 L87.25,424.9824 M74.25,443.9824 L61.25,458.9824 M74.25,443.9824 L87.25,458.9824 " fill="none" style="stroke:#181818;stroke-width:0.5;"/><rect fill="#E3E3E3" height="32.6211" rx="2.5" ry="2.5" style="stroke:#181818;stroke-width:0.5;" width="64" x="242.25" y="89.6211"/><text fill="#000000" font-family="sans-serif" font-size="14" lengthAdjust="spacing" textLength="50" x="249.25" y="111.7285">:System</text><rect fill="#E3E3E3" height="32.6211" rx="2.5" ry="2.5" style="stroke:#181818;stroke-width:0.5;" width="64" x="242.25" y="381.8613"/><text fill="#000000" font-family="sans-serif" font-size="14" lengthAdjust="spacing" textLength="50" x="249.25" y="403.9688">:System</text><rect fill="#FFFFFF" height="240.6191" style="stroke:#181818;stroke-width:1.0;" width="10" x="69.25" y="133.2422"/><rect fill="#FFFFFF" height="31.291" style="stroke:#181818;stroke-width:1.0;" width="10" x="269.25" y="156.5332"/><rect fill="#FFFFFF" height="65.873" style="stroke:#181818;stroke-width:1.0;" width="10" x="269.25" y="219.1152"/><rect fill="#FFFFFF" height="48.582" style="stroke:#181818;stroke-width:1.0;" width="10" x="269.25" y="316.2793"/><polygon fill="#181818" points="257.25,152.5332,267.25,156.5332,257.25,160.5332,261.25,156.5332" style="stroke:#181818;stroke-width:1.0;"/><line style="stroke:#181818;stroke-width:1.0;" x1="79.25" x2="263.25" y1="156.5332" y2="156.5332"/><text fill="#000000" font-family="sans-serif" font-size="13" font-weight="bold" lengthAdjust="spacing" textLength="7" x="86.25" y="151.2705">1</text><text fill="#000000" font-family="sans-serif" font-size="13" lengthAdjust="spacing" textLength="160" x="97.25" y="151.2705">asks to open/close a phase</text><polygon fill="#181818" points="90.25,183.8242,80.25,187.8242,90.25,191.8242,86.25,187.8242" style="stroke:#181818;stroke-width:1.0;"/><line style="stroke:#181818;stroke-width:1.0;stroke-dasharray:2.0,2.0;" x1="84.25" x2="273.25" y1="187.8242" y2="187.8242"/><text fill="#000000" font-family="sans-serif" font-size="13" font-weight="bold" lengthAdjust="spacing" textLength="7" x="96.25" y="182.5615">2</text><text fill="#000000" font-family="sans-serif" font-size="13" lengthAdjust="spacing" textLength="149" x="107.25" y="182.5615">shows list of job openings</text><polygon fill="#181818" points="257.25,215.1152,267.25,219.1152,257.25,223.1152,261.25,219.1152" style="stroke:#181818;stroke-width:1.0;"/><line style="stroke:#181818;stroke-width:1.0;" x1="79.25" x2="263.25" y1="219.1152" y2="219.1152"/><text fill="#000000" font-family="sans-serif" font-size="13" font-weight="bold" lengthAdjust="spacing" textLength="7" x="86.25" y="213.8525">3</text><text fill="#000000" font-family="sans-serif" font-size="13" lengthAdjust="spacing" textLength="130" x="97.25" y="213.8525">chosses a job opening</text><polygon fill="#181818" points="90.25,280.9883,80.25,284.9883,90.25,288.9883,86.25,284.9883" style="stroke:#181818;stroke-width:1.0;"/><line style="stroke:#181818;stroke-width:1.0;stroke-dasharray:2.0,2.0;" x1="84.25" x2="273.25" y1="284.9883" y2="284.9883"/><text fill="#000000" font-family="sans-serif" font-size="13" font-weight="bold" lengthAdjust="spacing" textLength="7" x="96.25" y="262.4346">4</text><text fill="#000000" font-family="sans-serif" font-size="13" lengthAdjust="spacing" textLength="142" x="107.25" y="245.1436">shows the current phase</text><text fill="#000000" font-family="sans-serif" font-size="13" lengthAdjust="spacing" textLength="127" x="111.25" y="262.4346">of the job opening and</text><text fill="#000000" font-family="sans-serif" font-size="13" lengthAdjust="spacing" textLength="126" x="111.25" y="279.7256">what is possible to do</text><polygon fill="#181818" points="257.25,312.2793,267.25,316.2793,257.25,320.2793,261.25,316.2793" style="stroke:#181818;stroke-width:1.0;"/><line style="stroke:#181818;stroke-width:1.0;" x1="79.25" x2="263.25" y1="316.2793" y2="316.2793"/><text fill="#000000" font-family="sans-serif" font-size="13" font-weight="bold" lengthAdjust="spacing" textLength="7" x="86.25" y="311.0166">5</text><text fill="#000000" font-family="sans-serif" font-size="13" lengthAdjust="spacing" textLength="139" x="97.25" y="311.0166">asks to close the phase</text><polygon fill="#181818" points="90.25,360.8613,80.25,364.8613,90.25,368.8613,86.25,364.8613" style="stroke:#181818;stroke-width:1.0;"/><line style="stroke:#181818;stroke-width:1.0;stroke-dasharray:2.0,2.0;" x1="84.25" x2="273.25" y1="364.8613" y2="364.8613"/><text fill="#000000" font-family="sans-serif" font-size="13" font-weight="bold" lengthAdjust="spacing" textLength="7" x="96.25" y="350.9531">6</text><text fill="#000000" font-family="sans-serif" font-size="13" lengthAdjust="spacing" textLength="145" x="107.25" y="342.3076">shows current phase and</text><text fill="#000000" font-family="sans-serif" font-size="13" lengthAdjust="spacing" textLength="106" x="111.25" y="359.5986">operation success</text><!--SRC=[dP6nRi9044HxVyM8AYbGeAL84zfK5bsQvRpO5-nRvtOTnDzdRGCY4aMKgrQtuvbtOpt6r5Ec3fqa2KsMZc5vu49lcvx2aMekxTmoCWUZLBVt0cseabDCDGxKAXU5HNDfULRZ3YL_3Pm2Onkf7kLFPRbznXAx4klLUbKKD9YaeTjpzZcOP2pU1ZL7oNYdvDbv0LBir1KUQJ74df9XiPapfkqyJWxncundUG4_uuJbwqMoSVLHOGBfERs4LfH1w1joTbpEpULgErxEyzAT9iUDlrnEYZQgGGxubFrawKtepQZYgzLZbj28Agi3t7t-Bmnh6678cRsPwJ4VQQGQh- -iGQdonQaXGrJqdXxt_hUyZah-J7rjS2vlZFX_VR-OBtWEcycY9EWG0kkZFg_UFm00]--></g></svg>