<?xml version="1.0" encoding="us-ascii" standalone="no"?><svg xmlns="http://www.w3.org/2000/svg" xmlns:xlink="http://www.w3.org/1999/xlink" contentStyleType="text/css" height="611px" preserveAspectRatio="none" style="width:1427px;height:611px;background:#FFFFFF;" version="1.1" viewBox="0 0 1427 611" width="1427px" zoomAndPan="magnify"><defs/><g><text fill="#000000" font-family="sans-serif" font-size="14" font-weight="bold" lengthAdjust="spacing" textLength="100" x="656.5" y="25.1074">Domain Model</text><!--cluster JobOpeningAggregate--><g id="cluster_JobOpeningAggregate"><path d="M8.5,45.6348 L168.5,45.6348 A3.75,3.75 0 0 1 171,48.1348 L178,70.2559 L298.5,70.2559 A2.5,2.5 0 0 1 301,72.7559 L301,602.1348 A2.5,2.5 0 0 1 298.5,604.6348 L8.5,604.6348 A2.5,2.5 0 0 1 6,602.1348 L6,48.1348 A2.5,2.5 0 0 1 8.5,45.6348 " fill="none" style="stroke:#000000;stroke-width:1.5;"/><line style="stroke:#000000;stroke-width:1.5;" x1="6" x2="178" y1="70.2559" y2="70.2559"/><text fill="#000000" font-family="sans-serif" font-size="14" font-weight="bold" lengthAdjust="spacing" textLength="159" x="10" y="62.7422">JobOpeningAggregate</text></g><!--cluster CustomerAggregate--><g id="cluster_CustomerAggregate"><path d="M327.5,216.6348 L469.5,216.6348 A3.75,3.75 0 0 1 472,219.1348 L479,241.2559 L479.5,241.2559 A2.5,2.5 0 0 1 482,243.7559 L482,468.1348 A2.5,2.5 0 0 1 479.5,470.6348 L327.5,470.6348 A2.5,2.5 0 0 1 325,468.1348 L325,219.1348 A2.5,2.5 0 0 1 327.5,216.6348 " fill="none" style="stroke:#000000;stroke-width:1.5;"/><line style="stroke:#000000;stroke-width:1.5;" x1="325" x2="479" y1="241.2559" y2="241.2559"/><text fill="#000000" font-family="sans-serif" font-size="14" font-weight="bold" lengthAdjust="spacing" textLength="141" x="329" y="233.7422">CustomerAggregate</text></g><!--cluster NotificationAggregate--><g id="cluster_NotificationAggregate"><path d="M508.5,53.6348 L662.5,53.6348 A3.75,3.75 0 0 1 665,56.1348 L672,78.2559 L1417.5,78.2559 A2.5,2.5 0 0 1 1420,80.7559 L1420,328.1348 A2.5,2.5 0 0 1 1417.5,330.6348 L508.5,330.6348 A2.5,2.5 0 0 1 506,328.1348 L506,56.1348 A2.5,2.5 0 0 1 508.5,53.6348 " fill="none" style="stroke:#000000;stroke-width:1.5;"/><line style="stroke:#000000;stroke-width:1.5;" x1="506" x2="672" y1="78.2559" y2="78.2559"/><text fill="#000000" font-family="sans-serif" font-size="14" font-weight="bold" lengthAdjust="spacing" textLength="153" x="510" y="70.7422">NotificationAggregate</text></g><!--class JobOpening--><g id="elem_JobOpening"><rect codeLine="9" fill="#F1F1F1" height="68.543" id="JobOpening" rx="2.5" ry="2.5" style="stroke:#181818;stroke-width:0.5;" width="82" x="177" y="82.6348"/><text fill="#000000" font-family="sans-serif" font-size="12" font-style="italic" lengthAdjust="spacing" textLength="44" x="196" y="100.584">&#171;Entity&#187;</text><text fill="#000000" font-family="sans-serif" font-size="12" font-style="italic" lengthAdjust="spacing" textLength="35" x="200.5" y="116.5449">&#171;root&#187;</text><text fill="#000000" font-family="sans-serif" font-size="14" lengthAdjust="spacing" textLength="76" x="180" y="134.6641">JobOpening</text><line style="stroke:#181818;stroke-width:0.5;" x1="178" x2="258" y1="143.1777" y2="143.1777"/></g><!--class JobReference--><g id="elem_JobReference"><rect codeLine="11" fill="#F1F1F1" height="52.582" id="JobReference" rx="2.5" ry="2.5" style="stroke:#181818;stroke-width:0.5;" width="94" x="22" y="261.6348"/><text fill="#000000" font-family="sans-serif" font-size="12" font-style="italic" lengthAdjust="spacing" textLength="85" x="26.5" y="279.584">&#171;Value Object&#187;</text><text fill="#000000" font-family="sans-serif" font-size="14" lengthAdjust="spacing" textLength="88" x="25" y="297.7031">JobReference</text><line style="stroke:#181818;stroke-width:0.5;" x1="23" x2="115" y1="306.2168" y2="306.2168"/></g><!--class RecruitmentProcess--><g id="elem_RecruitmentProcess"><rect codeLine="12" fill="#F1F1F1" height="52.582" id="RecruitmentProcess" rx="2.5" ry="2.5" style="stroke:#181818;stroke-width:0.5;" width="133" x="151.5" y="261.6348"/><text fill="#000000" font-family="sans-serif" font-size="12" font-style="italic" lengthAdjust="spacing" textLength="44" x="196" y="279.584">&#171;Entity&#187;</text><text fill="#000000" font-family="sans-serif" font-size="14" lengthAdjust="spacing" textLength="127" x="154.5" y="297.7031">RecruitmentProcess</text><line style="stroke:#181818;stroke-width:0.5;" x1="152.5" x2="283.5" y1="306.2168" y2="306.2168"/></g><!--class Phase--><g id="elem_Phase"><rect codeLine="13" fill="#F1F1F1" height="52.582" id="Phase" rx="2.5" ry="2.5" style="stroke:#181818;stroke-width:0.5;" width="46" x="165" y="401.6348"/><text fill="#000000" font-family="sans-serif" font-size="12" font-style="italic" lengthAdjust="spacing" textLength="44" x="166" y="419.584">&#171;Entity&#187;</text><text fill="#000000" font-family="sans-serif" font-size="14" lengthAdjust="spacing" textLength="40" x="168" y="437.7031">Phase</text><line style="stroke:#181818;stroke-width:0.5;" x1="166" x2="210" y1="446.2168" y2="446.2168"/></g><!--class PhaseName--><g id="elem_PhaseName"><rect codeLine="14" fill="#F1F1F1" height="52.582" id="PhaseName" rx="2.5" ry="2.5" style="stroke:#181818;stroke-width:0.5;" width="84" x="37" y="535.6348"/><text fill="#000000" font-family="sans-serif" font-size="12" font-style="italic" lengthAdjust="spacing" textLength="82" x="38" y="553.584">&#171;ValueObject&#187;</text><text fill="#000000" font-family="sans-serif" font-size="14" lengthAdjust="spacing" textLength="76" x="41" y="571.7031">PhaseName</text><line style="stroke:#181818;stroke-width:0.5;" x1="38" x2="120" y1="580.2168" y2="580.2168"/></g><!--class PhaseState--><g id="elem_PhaseState"><rect codeLine="15" fill="#F1F1F1" height="52.582" id="PhaseState" rx="2.5" ry="2.5" style="stroke:#181818;stroke-width:0.5;" width="84" x="156" y="535.6348"/><text fill="#000000" font-family="sans-serif" font-size="12" font-style="italic" lengthAdjust="spacing" textLength="82" x="157" y="553.584">&#171;ValueObject&#187;</text><text fill="#000000" font-family="sans-serif" font-size="14" lengthAdjust="spacing" textLength="73" x="161.5" y="571.7031">PhaseState</text><line style="stroke:#181818;stroke-width:0.5;" x1="157" x2="239" y1="580.2168" y2="580.2168"/></g><!--class Customer--><g id="elem_Customer"><rect codeLine="21" fill="#F1F1F1" height="68.543" id="Customer" rx="2.5" ry="2.5" style="stroke:#181818;stroke-width:0.5;" width="67" x="361.5" y="253.6348"/><text fill="#000000" font-family="sans-serif" font-size="12" font-style="italic" lengthAdjust="spacing" textLength="44" x="373" y="271.584">&#171;Entity&#187;</text><text fill="#000000" font-family="sans-serif" font-size="12" font-style="italic" lengthAdjust="spacing" textLength="35" x="377.5" y="287.5449">&#171;root&#187;</text><text fill="#000000" font-family="sans-serif" font-size="14" lengthAdjust="spacing" textLength="61" x="364.5" y="305.6641">Customer</text><line style="stroke:#181818;stroke-width:0.5;" x1="362.5" x2="427.5" y1="314.1777" y2="314.1777"/></g><!--class EMail--><g id="elem_EMail"><rect codeLine="23" fill="#F1F1F1" height="52.582" id="EMail" rx="2.5" ry="2.5" style="stroke:#181818;stroke-width:0.5;" width="84" x="361" y="401.6348"/><text fill="#000000" font-family="sans-serif" font-size="12" font-style="italic" lengthAdjust="spacing" textLength="82" x="362" y="419.584">&#171;ValueObject&#187;</text><text fill="#000000" font-family="sans-serif" font-size="14" lengthAdjust="spacing" textLength="34" x="386" y="437.7031">EMail</text><line style="stroke:#181818;stroke-width:0.5;" x1="362" x2="444" y1="446.2168" y2="446.2168"/></g><!--class Notification--><g id="elem_Notification"><rect codeLine="27" fill="#F1F1F1" height="52.582" id="Notification" rx="2.5" ry="2.5" style="stroke:#181818;stroke-width:0.5;" width="75" x="936.5" y="90.6348"/><text fill="#000000" font-family="sans-serif" font-size="12" font-style="italic" lengthAdjust="spacing" textLength="44" x="952" y="108.584">&#171;Entity&#187;</text><text fill="#000000" font-family="sans-serif" font-size="14" lengthAdjust="spacing" textLength="69" x="939.5" y="126.7031">Notification</text><line style="stroke:#181818;stroke-width:0.5;" x1="937.5" x2="1010.5" y1="135.2168" y2="135.2168"/></g><!--class ID--><g id="elem_ID"><rect codeLine="28" fill="#F1F1F1" height="52.582" id="ID" rx="2.5" ry="2.5" style="stroke:#181818;stroke-width:0.5;" width="84" x="522" y="261.6348"/><text fill="#000000" font-family="sans-serif" font-size="12" font-style="italic" lengthAdjust="spacing" textLength="82" x="523" y="279.584">&#171;ValueObject&#187;</text><text fill="#000000" font-family="sans-serif" font-size="14" lengthAdjust="spacing" textLength="13" x="557.5" y="297.7031">ID</text><line style="stroke:#181818;stroke-width:0.5;" x1="523" x2="605" y1="306.2168" y2="306.2168"/></g><!--class NotificationDate--><g id="elem_NotificationDate"><rect codeLine="29" fill="#F1F1F1" height="52.582" id="NotificationDate" rx="2.5" ry="2.5" style="stroke:#181818;stroke-width:0.5;" width="105" x="641.5" y="261.6348"/><text fill="#000000" font-family="sans-serif" font-size="12" font-style="italic" lengthAdjust="spacing" textLength="82" x="653" y="279.584">&#171;ValueObject&#187;</text><text fill="#000000" font-family="sans-serif" font-size="14" lengthAdjust="spacing" textLength="99" x="644.5" y="297.7031">NotificationDate</text><line style="stroke:#181818;stroke-width:0.5;" x1="642.5" x2="745.5" y1="306.2168" y2="306.2168"/></g><!--class NotificationState--><g id="elem_NotificationState"><rect codeLine="30" fill="#F1F1F1" height="52.582" id="NotificationState" rx="2.5" ry="2.5" style="stroke:#181818;stroke-width:0.5;" width="108" x="782" y="261.6348"/><text fill="#000000" font-family="sans-serif" font-size="12" font-style="italic" lengthAdjust="spacing" textLength="82" x="795" y="279.584">&#171;ValueObject&#187;</text><text fill="#000000" font-family="sans-serif" font-size="14" lengthAdjust="spacing" textLength="102" x="785" y="297.7031">NotificationState</text><line style="stroke:#181818;stroke-width:0.5;" x1="783" x2="889" y1="306.2168" y2="306.2168"/></g><!--class NotificationType--><g id="elem_NotificationType"><rect codeLine="31" fill="#F1F1F1" height="52.582" id="NotificationType" rx="2.5" ry="2.5" style="stroke:#181818;stroke-width:0.5;" width="107" x="925.5" y="261.6348"/><text fill="#000000" font-family="sans-serif" font-size="12" font-style="italic" lengthAdjust="spacing" textLength="82" x="938" y="279.584">&#171;ValueObject&#187;</text><text fill="#000000" font-family="sans-serif" font-size="14" lengthAdjust="spacing" textLength="101" x="928.5" y="297.7031">NotificationType</text><line style="stroke:#181818;stroke-width:0.5;" x1="926.5" x2="1031.5" y1="306.2168" y2="306.2168"/></g><!--class SenderEmail--><g id="elem_SenderEmail"><rect codeLine="32" fill="#F1F1F1" height="52.582" id="SenderEmail" rx="2.5" ry="2.5" style="stroke:#181818;stroke-width:0.5;" width="86" x="1068" y="261.6348"/><text fill="#000000" font-family="sans-serif" font-size="12" font-style="italic" lengthAdjust="spacing" textLength="82" x="1070" y="279.584">&#171;ValueObject&#187;</text><text fill="#000000" font-family="sans-serif" font-size="14" lengthAdjust="spacing" textLength="80" x="1071" y="297.7031">SenderEmail</text><line style="stroke:#181818;stroke-width:0.5;" x1="1069" x2="1153" y1="306.2168" y2="306.2168"/></g><!--class ReceiverEmail--><g id="elem_ReceiverEmail"><rect codeLine="33" fill="#F1F1F1" height="52.582" id="ReceiverEmail" rx="2.5" ry="2.5" style="stroke:#181818;stroke-width:0.5;" width="96" x="1189" y="261.6348"/><text fill="#000000" font-family="sans-serif" font-size="12" font-style="italic" lengthAdjust="spacing" textLength="82" x="1196" y="279.584">&#171;ValueObject&#187;</text><text fill="#000000" font-family="sans-serif" font-size="14" lengthAdjust="spacing" textLength="90" x="1192" y="297.7031">ReceiverEmail</text><line style="stroke:#181818;stroke-width:0.5;" x1="1190" x2="1284" y1="306.2168" y2="306.2168"/></g><!--class Message--><g id="elem_Message"><rect codeLine="34" fill="#F1F1F1" height="52.582" id="Message" rx="2.5" ry="2.5" style="stroke:#181818;stroke-width:0.5;" width="84" x="1320" y="261.6348"/><text fill="#000000" font-family="sans-serif" font-size="12" font-style="italic" lengthAdjust="spacing" textLength="82" x="1321" y="279.584">&#171;ValueObject&#187;</text><text fill="#000000" font-family="sans-serif" font-size="14" lengthAdjust="spacing" textLength="57" x="1333.5" y="297.7031">Message</text><line style="stroke:#181818;stroke-width:0.5;" x1="1321" x2="1403" y1="306.2168" y2="306.2168"/></g><!--link JobOpening to JobReference--><g id="link_JobOpening_JobReference"><path codeLine="38" d="M176.93,147.2448 C164.05,157.3548 150.27,169.2848 139,181.6348 C117.97,204.6748 98.75,234.5848 85.79,256.6748 " fill="none" id="JobOpening-to-JobReference" style="stroke:#181818;stroke-width:1.0;"/><polygon fill="#181818" points="83.12,261.2648,91.0993,255.4915,85.6314,256.9412,84.1816,251.4733,83.12,261.2648" style="stroke:#181818;stroke-width:1.0;"/><text fill="#000000" font-family="sans-serif" font-size="13" lengthAdjust="spacing" textLength="69" x="140" y="196.6631">identified by</text><text fill="#000000" font-family="sans-serif" font-size="13" lengthAdjust="spacing" textLength="22" x="146.9568" y="147.6394">0..1</text><text fill="#000000" font-family="sans-serif" font-size="13" lengthAdjust="spacing" textLength="7" x="78.5759" y="250.1957">1</text></g><!--link JobOpening to Customer--><g id="link_JobOpening_Customer"><path codeLine="39" d="M253.39,151.9248 C283.64,180.8048 327.02,222.2248 357.78,251.5948 " fill="none" id="JobOpening-to-Customer" style="stroke:#181818;stroke-width:1.0;"/><polygon fill="#181818" points="361.47,255.1148,357.7132,246.0106,357.85,251.6658,352.1948,251.8026,361.47,255.1148" style="stroke:#181818;stroke-width:1.0;"/><text fill="#000000" font-family="sans-serif" font-size="13" lengthAdjust="spacing" textLength="75" x="303" y="196.6631">requested by</text><text fill="#000000" font-family="sans-serif" font-size="13" lengthAdjust="spacing" textLength="5" x="253.8374" y="173.1849">*</text><text fill="#000000" font-family="sans-serif" font-size="13" lengthAdjust="spacing" textLength="7" x="346.3697" y="243.1424">1</text></g><!--link JobOpening to RecruitmentProcess--><g id="link_JobOpening_RecruitmentProcess"><path codeLine="40" d="M218,151.9248 C218,182.3048 218,226.5548 218,256.0648 " fill="none" id="JobOpening-to-RecruitmentProcess" style="stroke:#181818;stroke-width:1.0;"/><polygon fill="#181818" points="218,261.4048,222,252.4048,218,256.4048,214,252.4048,218,261.4048" style="stroke:#181818;stroke-width:1.0;"/><text fill="#000000" font-family="sans-serif" font-size="13" lengthAdjust="spacing" textLength="42" x="219" y="196.6631">selects</text><text fill="#000000" font-family="sans-serif" font-size="13" lengthAdjust="spacing" textLength="5" x="212.5859" y="173.1849">*</text><text fill="#000000" font-family="sans-serif" font-size="13" lengthAdjust="spacing" textLength="22" x="193.4563" y="250.3681">0..1</text></g><!--link Customer to EMail--><g id="link_Customer_EMail"><path codeLine="42" d="M396.96,322.8948 C398.26,345.3548 399.96,374.6148 401.22,396.4148 " fill="none" id="Customer-to-EMail" style="stroke:#181818;stroke-width:1.0;"/><polygon fill="#181818" points="401.51,401.5148,404.9622,392.2908,401.2097,396.5238,396.9767,392.7713,401.51,401.5148" style="stroke:#181818;stroke-width:1.0;"/><text fill="#000000" font-family="sans-serif" font-size="13" lengthAdjust="spacing" textLength="28" x="400" y="367.6631">uses</text><text fill="#000000" font-family="sans-serif" font-size="13" lengthAdjust="spacing" textLength="7" x="389.7049" y="344.15">1</text><text fill="#000000" font-family="sans-serif" font-size="13" lengthAdjust="spacing" textLength="7" x="393.3561" y="390.5036">1</text></g><!--reverse link RecruitmentProcess to Phase--><g id="link_RecruitmentProcess_Phase"><path codeLine="44" d="M209.6,327.7848 C204.5,351.2148 198.14,380.4848 193.64,401.1748 " fill="none" id="RecruitmentProcess-backto-Phase" style="stroke:#181818;stroke-width:1.0;"/><polygon fill="#181818" points="212.43,314.7648,207.2481,319.7796,209.8841,326.4916,215.066,321.4768,212.43,314.7648" style="stroke:#181818;stroke-width:1.0;"/></g><!--link Phase to PhaseName--><g id="link_Phase_PhaseName"><path codeLine="45" d="M166.72,454.8948 C148.57,476.8848 122.46,508.5048 103.45,531.5248 " fill="none" id="Phase-to-PhaseName" style="stroke:#181818;stroke-width:1.0;"/><polygon fill="#181818" points="100.22,535.4348,109.0433,531.0589,103.4111,531.5855,102.8845,525.9532,100.22,535.4348" style="stroke:#181818;stroke-width:1.0;"/><text fill="#000000" font-family="sans-serif" font-size="13" lengthAdjust="spacing" textLength="39" x="142" y="501.6631">named</text><text fill="#000000" font-family="sans-serif" font-size="13" lengthAdjust="spacing" textLength="7" x="154.6091" y="476.2686">1</text><text fill="#000000" font-family="sans-serif" font-size="13" lengthAdjust="spacing" textLength="7" x="97.3178" y="524.4051">1</text></g><!--link Phase to PhaseState--><g id="link_Phase_PhaseState"><path codeLine="46" d="M189.95,454.8948 C191.59,476.5248 193.93,507.4648 195.67,530.3848 " fill="none" id="Phase-to-PhaseState" style="stroke:#181818;stroke-width:1.0;"/><polygon fill="#181818" points="196.05,535.4348,199.3439,526.153,195.6643,530.4497,191.3677,526.7701,196.05,535.4348" style="stroke:#181818;stroke-width:1.0;"/><text fill="#000000" font-family="sans-serif" font-size="13" lengthAdjust="spacing" textLength="95" x="195" y="501.6631">presents itself in</text><text fill="#000000" font-family="sans-serif" font-size="13" lengthAdjust="spacing" textLength="7" x="182.6303" y="476.2686">1</text><text fill="#000000" font-family="sans-serif" font-size="13" lengthAdjust="spacing" textLength="7" x="187.7897" y="524.4051">1</text></g><!--link Notification to NotificationDate--><g id="link_Notification_NotificationDate"><path codeLine="48" d="M936.49,126.6848 C891.36,138.5748 815.39,163.8448 765,208.6348 C748.16,223.6048 731.16,242.2448 718.03,257.5948 " fill="none" id="Notification-to-NotificationDate" style="stroke:#181818;stroke-width:1.0;"/><polygon fill="#181818" points="714.77,261.4248,723.6549,257.1753,718.0157,257.6214,717.5696,251.9822,714.77,261.4248" style="stroke:#181818;stroke-width:1.0;"/><text fill="#000000" font-family="sans-serif" font-size="13" lengthAdjust="spacing" textLength="40" x="800" y="196.6631">sent at</text><text fill="#000000" font-family="sans-serif" font-size="13" lengthAdjust="spacing" textLength="7" x="921.4162" y="144.3365">1</text><text fill="#000000" font-family="sans-serif" font-size="13" lengthAdjust="spacing" textLength="7" x="711.7637" y="250.3927">1</text></g><!--link Notification to SenderEmail--><g id="link_Notification_SenderEmail"><path codeLine="49" d="M1011.76,134.8148 C1032.34,145.5748 1056.83,161.3548 1073,181.6348 C1090.38,203.4248 1100.2,233.8448 1105.49,256.4148 " fill="none" id="Notification-to-SenderEmail" style="stroke:#181818;stroke-width:1.0;"/><polygon fill="#181818" points="1106.61,261.4048,1108.5355,251.746,1105.5118,256.5269,1100.7309,253.5031,1106.61,261.4048" style="stroke:#181818;stroke-width:1.0;"/><text fill="#000000" font-family="sans-serif" font-size="13" lengthAdjust="spacing" textLength="43" x="1085" y="196.6631">sent by</text><text fill="#000000" font-family="sans-serif" font-size="13" lengthAdjust="spacing" textLength="7" x="1019.6252" y="133.6606">1</text><text fill="#000000" font-family="sans-serif" font-size="13" lengthAdjust="spacing" textLength="7" x="1097.7854" y="250.3681">1</text></g><!--link Notification to ReceiverEmail--><g id="link_Notification_ReceiverEmail"><path codeLine="50" d="M1011.53,127.1148 C1054.91,139.1748 1126.2,164.3848 1172,208.6348 C1187.47,223.5848 1202.91,242.0348 1214.85,257.2948 " fill="none" id="Notification-to-ReceiverEmail" style="stroke:#181818;stroke-width:1.0;"/><polygon fill="#181818" points="1218.12,261.5048,1215.7448,251.9466,1215.0473,257.5603,1209.4336,256.8629,1218.12,261.5048" style="stroke:#181818;stroke-width:1.0;"/><text fill="#000000" font-family="sans-serif" font-size="13" lengthAdjust="spacing" textLength="40" x="1159" y="196.6631">sent to</text><text fill="#000000" font-family="sans-serif" font-size="13" lengthAdjust="spacing" textLength="7" x="1019.6078" y="144.8511">1</text><text fill="#000000" font-family="sans-serif" font-size="13" lengthAdjust="spacing" textLength="7" x="1205.9446" y="250.4912">1</text></g><!--link ReceiverEmail to EMail--><g id="link_ReceiverEmail_EMail"><path codeLine="51" d="M1210.26,314.6748 C1199.23,323.7448 1185.82,333.0748 1172,338.6348 C1039.4,392.0148 596.17,417.7948 450.12,424.9748 " fill="none" id="ReceiverEmail-to-EMail" style="stroke:#181818;stroke-width:1.0;"/><polygon fill="#181818" points="445.05,425.2248,454.2335,428.7834,450.0441,424.9822,453.8453,420.7928,445.05,425.2248" style="stroke:#181818;stroke-width:1.0;"/><text fill="#000000" font-family="sans-serif" font-size="13" lengthAdjust="spacing" textLength="69" x="1126" y="367.6631">derives from</text><text fill="#000000" font-family="sans-serif" font-size="13" lengthAdjust="spacing" textLength="7" x="1196.645" y="336.4456">1</text><text fill="#000000" font-family="sans-serif" font-size="13" lengthAdjust="spacing" textLength="7" x="452.8789" y="420.3529">1</text></g><!--link Notification to Message--><g id="link_Notification_Message"><path codeLine="52" d="M1011.61,120.5348 C1076.43,126.2948 1211.06,145.5248 1303,208.6348 C1320.86,220.8948 1335.52,240.3248 1345.77,256.7848 " fill="none" id="Notification-to-Message" style="stroke:#181818;stroke-width:1.0;"/><polygon fill="#181818" points="1348.54,261.3348,1347.2773,251.5672,1345.9403,257.0638,1340.4437,255.7268,1348.54,261.3348" style="stroke:#181818;stroke-width:1.0;"/><text fill="#000000" font-family="sans-serif" font-size="13" lengthAdjust="spacing" textLength="21" x="1288" y="196.6631">has</text><text fill="#000000" font-family="sans-serif" font-size="13" lengthAdjust="spacing" textLength="7" x="1019.4466" y="116.6585">1</text><text fill="#000000" font-family="sans-serif" font-size="13" lengthAdjust="spacing" textLength="7" x="1337.618" y="250.2819">1</text></g><!--link Notification to ID--><g id="link_Notification_ID"><path codeLine="53" d="M936.23,119.0348 C867.64,122.4448 720.75,138.1248 624,208.6348 C606.51,221.3748 591.69,240.6248 581.15,256.8648 " fill="none" id="Notification-to-ID" style="stroke:#181818;stroke-width:1.0;"/><polygon fill="#181818" points="578.3,261.3648,586.5018,255.9121,580.9807,257.1441,579.7487,251.623,578.3,261.3648" style="stroke:#181818;stroke-width:1.0;"/><text fill="#000000" font-family="sans-serif" font-size="13" lengthAdjust="spacing" textLength="69" x="666" y="196.6631">identified by</text><text fill="#000000" font-family="sans-serif" font-size="13" lengthAdjust="spacing" textLength="7" x="921.6208" y="114.9116">1</text><text fill="#000000" font-family="sans-serif" font-size="13" lengthAdjust="spacing" textLength="7" x="573.7975" y="250.3189">1</text></g><!--link Notification to NotificationState--><g id="link_Notification_NotificationState"><path codeLine="54" d="M936.43,131.1048 C912.35,141.2648 882.3,157.7348 864,181.6348 C847.51,203.1748 840.71,233.6248 837.91,256.2748 " fill="none" id="Notification-to-NotificationState" style="stroke:#181818;stroke-width:1.0;"/><polygon fill="#181818" points="837.34,261.2748,842.3416,252.7904,837.911,256.3075,834.3939,251.8769,837.34,261.2748" style="stroke:#181818;stroke-width:1.0;"/><text fill="#000000" font-family="sans-serif" font-size="13" lengthAdjust="spacing" textLength="96" x="865" y="196.6631">characterized by</text><text fill="#000000" font-family="sans-serif" font-size="13" lengthAdjust="spacing" textLength="5" x="923.5412" y="129.2798">*</text><text fill="#000000" font-family="sans-serif" font-size="13" lengthAdjust="spacing" textLength="7" x="829.8405" y="250.2081">1</text></g><!--link Notification to NotificationType--><g id="link_Notification_NotificationType"><path codeLine="55" d="M972.51,143.7648 C971.91,155.3348 971.29,169.1648 971,181.6348 C970.8,190.0748 970.61,192.1948 971,200.6348 C971.86,219.2048 973.74,239.9448 975.47,256.4548 " fill="none" id="Notification-to-NotificationType" style="stroke:#181818;stroke-width:1.0;"/><polygon fill="#181818" points="976,261.4448,979.026,252.0723,975.4714,256.4728,971.0709,252.9181,976,261.4448" style="stroke:#181818;stroke-width:1.0;"/><text fill="#000000" font-family="sans-serif" font-size="13" lengthAdjust="spacing" textLength="96" x="972" y="196.6631">characterized by</text><text fill="#000000" font-family="sans-serif" font-size="13" lengthAdjust="spacing" textLength="5" x="966.6871" y="165.1118">*</text><text fill="#000000" font-family="sans-serif" font-size="13" lengthAdjust="spacing" textLength="7" x="967.4969" y="250.4174">1</text></g><!--SRC=[bLJ1Rjim3BthAuXS2WH8iLsDma3HvB01QOjssAaNHQPjhRRaIVI0BEY_bwvZHwxb0JlP5jyZ-SWdN_bNRHhfP0sLDaZ71i4wAgsugZ0d80jE5oL1fXqgqjQ8KcS8IZjLOVzU8-CpBqXJXR2rjTG6zZR3IeX6gbTP87otXuS6ZJR5RL4uB2GXd8HGbVG-2CBDpSvmdcEQmelXBsSjfUb9l5sWJvYZGwEGmpzbrI8y77vnRqmv3R0dLAxLLAEXHsSLyj4byuXwBAN7nS2zhCSIGuKm_aoTYCy0xdGKVTTwiZMwYEGXj2JuRG3kzb9Niof1aNjBEjTAThiP2vtEx30O4_fjkw0m96vZEkUm-3pck1-Tn-AmPpGPkbqTapmk5lMVVsFslEvkCf6XYS1ggo_NrrzNiDcaiEBdn5a9iB5DrpDcS3XEQEkUyq4QrvY0mzyjUbh4dyj5d9c0nufRz4AC-LP1Pxq54cWzCYIIOBtPz9OKlQD3yiNA2HX-P4kOVdq9D0uzv_QWYTlAGHiX9ZOAcJERT5eCWQHbJhZaCvmdjWYVRlnC82kcvx5vSHK6UCYThPVp3sv9WAUm3EERyjaKK-mwFfLXhAhadwmYRkdlVx0_xigS_0u0]--></g></svg>