<?xml version="1.0" encoding="us-ascii" standalone="no"?><svg xmlns="http://www.w3.org/2000/svg" xmlns:xlink="http://www.w3.org/1999/xlink" contentStyleType="text/css" height="611px" preserveAspectRatio="none" style="width:779px;height:611px;background:#FFFFFF;" version="1.1" viewBox="0 0 779 611" width="779px" zoomAndPan="magnify"><defs/><g><text fill="#000000" font-family="sans-serif" font-size="14" font-weight="bold" lengthAdjust="spacing" textLength="100" x="332.5" y="25.1074">Domain Model</text><!--cluster JobOpeningAggregate--><g id="cluster_JobOpeningAggregate"><path d="M8.5,45.6348 L168.5,45.6348 A3.75,3.75 0 0 1 171,48.1348 L178,70.2559 L588.5,70.2559 A2.5,2.5 0 0 1 591,72.7559 L591,602.1348 A2.5,2.5 0 0 1 588.5,604.6348 L8.5,604.6348 A2.5,2.5 0 0 1 6,602.1348 L6,48.1348 A2.5,2.5 0 0 1 8.5,45.6348 " fill="none" style="stroke:#000000;stroke-width:1.5;"/><line style="stroke:#000000;stroke-width:1.5;" x1="6" x2="178" y1="70.2559" y2="70.2559"/><text fill="#000000" font-family="sans-serif" font-size="14" font-weight="bold" lengthAdjust="spacing" textLength="159" x="10" y="62.7422">JobOpeningAggregate</text></g><!--cluster CustomerAggregate--><g id="cluster_CustomerAggregate"><path d="M617.5,216.6348 L759.5,216.6348 A3.75,3.75 0 0 1 762,219.1348 L769,241.2559 L769.5,241.2559 A2.5,2.5 0 0 1 772,243.7559 L772,468.1348 A2.5,2.5 0 0 1 769.5,470.6348 L617.5,470.6348 A2.5,2.5 0 0 1 615,468.1348 L615,219.1348 A2.5,2.5 0 0 1 617.5,216.6348 " fill="none" style="stroke:#000000;stroke-width:1.5;"/><line style="stroke:#000000;stroke-width:1.5;" x1="615" x2="769" y1="241.2559" y2="241.2559"/><text fill="#000000" font-family="sans-serif" font-size="14" font-weight="bold" lengthAdjust="spacing" textLength="141" x="619" y="233.7422">CustomerAggregate</text></g><!--class JobOpening--><g id="elem_JobOpening"><rect codeLine="9" fill="#F1F1F1" height="68.543" id="JobOpening" rx="2.5" ry="2.5" style="stroke:#181818;stroke-width:0.5;" width="82" x="318" y="82.6348"/><text fill="#000000" font-family="sans-serif" font-size="12" font-style="italic" lengthAdjust="spacing" textLength="44" x="337" y="100.584">&#171;Entity&#187;</text><text fill="#000000" font-family="sans-serif" font-size="12" font-style="italic" lengthAdjust="spacing" textLength="35" x="341.5" y="116.5449">&#171;root&#187;</text><text fill="#000000" font-family="sans-serif" font-size="14" lengthAdjust="spacing" textLength="76" x="321" y="134.6641">JobOpening</text><line style="stroke:#181818;stroke-width:0.5;" x1="319" x2="399" y1="143.1777" y2="143.1777"/></g><!--class Title--><g id="elem_Title"><rect codeLine="11" fill="#F1F1F1" height="52.582" id="Title" rx="2.5" ry="2.5" style="stroke:#181818;stroke-width:0.5;" width="84" x="22" y="261.6348"/><text fill="#000000" font-family="sans-serif" font-size="12" font-style="italic" lengthAdjust="spacing" textLength="82" x="23" y="279.584">&#171;ValueObject&#187;</text><text fill="#000000" font-family="sans-serif" font-size="14" lengthAdjust="spacing" textLength="27" x="50.5" y="297.7031">Title</text><line style="stroke:#181818;stroke-width:0.5;" x1="23" x2="105" y1="306.2168" y2="306.2168"/></g><!--class NumberOfVacancies--><g id="elem_NumberOfVacancies"><rect codeLine="12" fill="#F1F1F1" height="52.582" id="NumberOfVacancies" rx="2.5" ry="2.5" style="stroke:#181818;stroke-width:0.5;" width="135" x="141.5" y="261.6348"/><text fill="#000000" font-family="sans-serif" font-size="12" font-style="italic" lengthAdjust="spacing" textLength="82" x="168" y="279.584">&#171;ValueObject&#187;</text><text fill="#000000" font-family="sans-serif" font-size="14" lengthAdjust="spacing" textLength="129" x="144.5" y="297.7031">NumberOfVacancies</text><line style="stroke:#181818;stroke-width:0.5;" x1="142.5" x2="275.5" y1="306.2168" y2="306.2168"/></g><!--class JobReference--><g id="elem_JobReference"><rect codeLine="13" fill="#F1F1F1" height="52.582" id="JobReference" rx="2.5" ry="2.5" style="stroke:#181818;stroke-width:0.5;" width="94" x="312" y="261.6348"/><text fill="#000000" font-family="sans-serif" font-size="12" font-style="italic" lengthAdjust="spacing" textLength="85" x="316.5" y="279.584">&#171;Value Object&#187;</text><text fill="#000000" font-family="sans-serif" font-size="14" lengthAdjust="spacing" textLength="88" x="315" y="297.7031">JobReference</text><line style="stroke:#181818;stroke-width:0.5;" x1="313" x2="405" y1="306.2168" y2="306.2168"/></g><!--class RecruitmentProcess--><g id="elem_RecruitmentProcess"><rect codeLine="14" fill="#F1F1F1" height="52.582" id="RecruitmentProcess" rx="2.5" ry="2.5" style="stroke:#181818;stroke-width:0.5;" width="133" x="441.5" y="261.6348"/><text fill="#000000" font-family="sans-serif" font-size="12" font-style="italic" lengthAdjust="spacing" textLength="44" x="486" y="279.584">&#171;Entity&#187;</text><text fill="#000000" font-family="sans-serif" font-size="14" lengthAdjust="spacing" textLength="127" x="444.5" y="297.7031">RecruitmentProcess</text><line style="stroke:#181818;stroke-width:0.5;" x1="442.5" x2="573.5" y1="306.2168" y2="306.2168"/></g><!--class Phase--><g id="elem_Phase"><rect codeLine="15" fill="#F1F1F1" height="52.582" id="Phase" rx="2.5" ry="2.5" style="stroke:#181818;stroke-width:0.5;" width="46" x="455" y="401.6348"/><text fill="#000000" font-family="sans-serif" font-size="12" font-style="italic" lengthAdjust="spacing" textLength="44" x="456" y="419.584">&#171;Entity&#187;</text><text fill="#000000" font-family="sans-serif" font-size="14" lengthAdjust="spacing" textLength="40" x="458" y="437.7031">Phase</text><line style="stroke:#181818;stroke-width:0.5;" x1="456" x2="500" y1="446.2168" y2="446.2168"/></g><!--class PhaseName--><g id="elem_PhaseName"><rect codeLine="16" fill="#F1F1F1" height="52.582" id="PhaseName" rx="2.5" ry="2.5" style="stroke:#181818;stroke-width:0.5;" width="84" x="327" y="535.6348"/><text fill="#000000" font-family="sans-serif" font-size="12" font-style="italic" lengthAdjust="spacing" textLength="82" x="328" y="553.584">&#171;ValueObject&#187;</text><text fill="#000000" font-family="sans-serif" font-size="14" lengthAdjust="spacing" textLength="76" x="331" y="571.7031">PhaseName</text><line style="stroke:#181818;stroke-width:0.5;" x1="328" x2="410" y1="580.2168" y2="580.2168"/></g><!--class PhaseState--><g id="elem_PhaseState"><rect codeLine="17" fill="#F1F1F1" height="52.582" id="PhaseState" rx="2.5" ry="2.5" style="stroke:#181818;stroke-width:0.5;" width="84" x="446" y="535.6348"/><text fill="#000000" font-family="sans-serif" font-size="12" font-style="italic" lengthAdjust="spacing" textLength="82" x="447" y="553.584">&#171;ValueObject&#187;</text><text fill="#000000" font-family="sans-serif" font-size="14" lengthAdjust="spacing" textLength="73" x="451.5" y="571.7031">PhaseState</text><line style="stroke:#181818;stroke-width:0.5;" x1="447" x2="529" y1="580.2168" y2="580.2168"/></g><!--class Customer--><g id="elem_Customer"><rect codeLine="23" fill="#F1F1F1" height="68.543" id="Customer" rx="2.5" ry="2.5" style="stroke:#181818;stroke-width:0.5;" width="67" x="631.5" y="253.6348"/><text fill="#000000" font-family="sans-serif" font-size="12" font-style="italic" lengthAdjust="spacing" textLength="44" x="643" y="271.584">&#171;Entity&#187;</text><text fill="#000000" font-family="sans-serif" font-size="12" font-style="italic" lengthAdjust="spacing" textLength="35" x="647.5" y="287.5449">&#171;root&#187;</text><text fill="#000000" font-family="sans-serif" font-size="14" lengthAdjust="spacing" textLength="61" x="634.5" y="305.6641">Customer</text><line style="stroke:#181818;stroke-width:0.5;" x1="632.5" x2="697.5" y1="314.1777" y2="314.1777"/></g><!--class EMail--><g id="elem_EMail"><rect codeLine="25" fill="#F1F1F1" height="52.582" id="EMail" rx="2.5" ry="2.5" style="stroke:#181818;stroke-width:0.5;" width="84" x="631" y="401.6348"/><text fill="#000000" font-family="sans-serif" font-size="12" font-style="italic" lengthAdjust="spacing" textLength="82" x="632" y="419.584">&#171;ValueObject&#187;</text><text fill="#000000" font-family="sans-serif" font-size="14" lengthAdjust="spacing" textLength="34" x="656" y="437.7031">EMail</text><line style="stroke:#181818;stroke-width:0.5;" x1="632" x2="714" y1="446.2168" y2="446.2168"/></g><!--link JobOpening to JobReference--><g id="link_JobOpening_JobReference"><path codeLine="29" d="M359,151.9248 C359,182.3048 359,226.5548 359,256.0648 " fill="none" id="JobOpening-to-JobReference" style="stroke:#181818;stroke-width:1.0;"/><polygon fill="#181818" points="359,261.4048,363,252.4048,359,256.4048,355,252.4048,359,261.4048" style="stroke:#181818;stroke-width:1.0;"/><text fill="#000000" font-family="sans-serif" font-size="13" lengthAdjust="spacing" textLength="69" x="360" y="196.6631">identified by</text><text fill="#000000" font-family="sans-serif" font-size="13" lengthAdjust="spacing" textLength="22" x="335.1781" y="173.1849">0..1</text><text fill="#000000" font-family="sans-serif" font-size="13" lengthAdjust="spacing" textLength="7" x="351.1906" y="250.3681">1</text></g><!--link JobOpening to Customer--><g id="link_JobOpening_Customer"><path codeLine="30" d="M400.18,128.2348 C448.72,141.4248 530.43,167.7748 591,208.6348 C607.46,219.7348 622.98,235.1148 635.52,249.3148 " fill="none" id="JobOpening-to-Customer" style="stroke:#181818;stroke-width:1.0;"/><polygon fill="#181818" points="638.97,253.2848,636.0943,243.8651,635.6937,249.5077,630.0511,249.1071,638.97,253.2848" style="stroke:#181818;stroke-width:1.0;"/><text fill="#000000" font-family="sans-serif" font-size="13" lengthAdjust="spacing" textLength="75" x="575" y="196.6631">requested by</text><text fill="#000000" font-family="sans-serif" font-size="13" lengthAdjust="spacing" textLength="5" x="407.9605" y="125.7928">*</text><text fill="#000000" font-family="sans-serif" font-size="13" lengthAdjust="spacing" textLength="7" x="626.5254" y="242.3894">1</text></g><!--link JobOpening to NumberOfVacancies--><g id="link_JobOpening_NumberOfVacancies"><path codeLine="31" d="M327.85,151.9448 C319.12,161.5048 309.65,171.9448 301,181.6348 C276.89,208.6548 249.68,239.9548 231.14,261.4048 " fill="none" id="JobOpening-NumberOfVacancies" style="stroke:#181818;stroke-width:1.0;"/><text fill="#000000" font-family="sans-serif" font-size="13" lengthAdjust="spacing" textLength="48" x="302" y="196.6631">includes</text><text fill="#000000" font-family="sans-serif" font-size="13" lengthAdjust="spacing" textLength="7" x="315.1111" y="173.2083">1</text><text fill="#000000" font-family="sans-serif" font-size="13" lengthAdjust="spacing" textLength="7" x="228.4505" y="250.3681">1</text></g><!--link JobOpening to Title--><g id="link_JobOpening_Title"><path codeLine="32" d="M317.65,125.8248 C267.34,136.8948 181.96,161.4148 124,208.6348 C107.47,222.1048 92.84,241.0048 82.17,256.8848 " fill="none" id="JobOpening-to-Title" style="stroke:#181818;stroke-width:1.0;"/><polygon fill="#181818" points="79.27,261.2748,87.5696,255.9722,82.027,257.1036,80.8956,251.561,79.27,261.2748" style="stroke:#181818;stroke-width:1.0;"/><text fill="#000000" font-family="sans-serif" font-size="13" lengthAdjust="spacing" textLength="96" x="165" y="196.6631">characterized by</text><text fill="#000000" font-family="sans-serif" font-size="13" lengthAdjust="spacing" textLength="5" x="305.1133" y="122.95">*</text><text fill="#000000" font-family="sans-serif" font-size="13" lengthAdjust="spacing" textLength="7" x="74.9918" y="250.2081">1</text></g><!--link JobOpening to RecruitmentProcess--><g id="link_JobOpening_RecruitmentProcess"><path codeLine="33" d="M400.07,147.2448 C412.95,157.3548 426.73,169.2848 438,181.6348 C459.03,204.6748 478.25,234.5848 491.21,256.6748 " fill="none" id="JobOpening-to-RecruitmentProcess" style="stroke:#181818;stroke-width:1.0;"/><polygon fill="#181818" points="493.88,261.2648,492.8184,251.4733,491.3686,256.9412,485.9007,255.4915,493.88,261.2648" style="stroke:#181818;stroke-width:1.0;"/><text fill="#000000" font-family="sans-serif" font-size="13" lengthAdjust="spacing" textLength="42" x="455" y="196.6631">selects</text><text fill="#000000" font-family="sans-serif" font-size="13" lengthAdjust="spacing" textLength="5" x="408.1032" y="148.3264">*</text><text fill="#000000" font-family="sans-serif" font-size="13" lengthAdjust="spacing" textLength="22" x="466.071" y="250.1957">0..1</text></g><!--link Customer to EMail--><g id="link_Customer_EMail"><path codeLine="35" d="M666.96,322.8948 C668.26,345.3548 669.96,374.6148 671.22,396.4148 " fill="none" id="Customer-to-EMail" style="stroke:#181818;stroke-width:1.0;"/><polygon fill="#181818" points="671.51,401.5148,674.9622,392.2908,671.2097,396.5238,666.9767,392.7713,671.51,401.5148" style="stroke:#181818;stroke-width:1.0;"/><text fill="#000000" font-family="sans-serif" font-size="13" lengthAdjust="spacing" textLength="28" x="670" y="367.6631">uses</text><text fill="#000000" font-family="sans-serif" font-size="13" lengthAdjust="spacing" textLength="7" x="659.7049" y="344.15">1</text><text fill="#000000" font-family="sans-serif" font-size="13" lengthAdjust="spacing" textLength="7" x="663.3561" y="390.5036">1</text></g><!--reverse link RecruitmentProcess to Phase--><g id="link_RecruitmentProcess_Phase"><path codeLine="37" d="M499.6,327.7848 C494.5,351.2148 488.14,380.4848 483.64,401.1748 " fill="none" id="RecruitmentProcess-backto-Phase" style="stroke:#181818;stroke-width:1.0;"/><polygon fill="#181818" points="502.43,314.7648,497.2481,319.7796,499.8841,326.4916,505.066,321.4768,502.43,314.7648" style="stroke:#181818;stroke-width:1.0;"/></g><!--link Phase to PhaseName--><g id="link_Phase_PhaseName"><path codeLine="38" d="M456.72,454.8948 C438.57,476.8848 412.46,508.5048 393.45,531.5248 " fill="none" id="Phase-to-PhaseName" style="stroke:#181818;stroke-width:1.0;"/><polygon fill="#181818" points="390.22,535.4348,399.0433,531.0589,393.4111,531.5855,392.8845,525.9532,390.22,535.4348" style="stroke:#181818;stroke-width:1.0;"/><text fill="#000000" font-family="sans-serif" font-size="13" lengthAdjust="spacing" textLength="39" x="432" y="501.6631">named</text><text fill="#000000" font-family="sans-serif" font-size="13" lengthAdjust="spacing" textLength="7" x="444.6091" y="476.2686">1</text><text fill="#000000" font-family="sans-serif" font-size="13" lengthAdjust="spacing" textLength="7" x="387.3178" y="524.4051">1</text></g><!--link Phase to PhaseState--><g id="link_Phase_PhaseState"><path codeLine="39" d="M479.95,454.8948 C481.59,476.5248 483.93,507.4648 485.67,530.3848 " fill="none" id="Phase-to-PhaseState" style="stroke:#181818;stroke-width:1.0;"/><polygon fill="#181818" points="486.05,535.4348,489.3439,526.153,485.6643,530.4497,481.3677,526.7701,486.05,535.4348" style="stroke:#181818;stroke-width:1.0;"/><text fill="#000000" font-family="sans-serif" font-size="13" lengthAdjust="spacing" textLength="95" x="484" y="501.6631">presents itself in</text><text fill="#000000" font-family="sans-serif" font-size="13" lengthAdjust="spacing" textLength="7" x="472.6303" y="476.2686">1</text><text fill="#000000" font-family="sans-serif" font-size="13" lengthAdjust="spacing" textLength="7" x="477.7897" y="524.4051">1</text></g><!--SRC=[TL9DRy8m3BtdLrXSa92OjcjLLPesBfFu49iuxH9Ijyr8aovn3mpntsTQwCgW9wVoiz_pUns7dRQLzB84eotIla9mdWednWOp0dBWTLuGfDgZ8ksiA7IAeBHN1jjtYOnFWo1D1k7LbL9RcBiKZH2LL3kP8xovxR92gst-dESUSqa81o6KaI7qcX37Cyjxzaa2dvQ_l7EK90TnF4C_6euutaXJutBxnPgIvDnRrEKM_JBRI2MjqXW6S4otnWmzMjMjWWi63XUgDIfVQohHqiexXI7qr7MeLI433ZOMiXnIs_JVwMJ4Vm1VsndtKWTo9VexjbrQGwOTBy3PN6fpmy9jqND-zFZmy3I2wJI14TShaoBWd9aYqvZ2TdyrDcbdcg5EKGGUlsiCT8jlE9focnVpM6Ng5CCzYjDCcty4gk1_LX5w_JCewNpHdHmZ26ZOXI149tdKExurB88wi19nPy64JsW256t-_U6_u2EmND8XJ1j-19N7mBi3Q69P6Nlm2m00]--></g></svg>