<?xml version="1.0" encoding="us-ascii" standalone="no"?><svg xmlns="http://www.w3.org/2000/svg" xmlns:xlink="http://www.w3.org/1999/xlink" contentStyleType="text/css" height="351px" preserveAspectRatio="none" style="width:536px;height:351px;background:#FFFFFF;" version="1.1" viewBox="0 0 536 351" width="536px" zoomAndPan="magnify"><defs/><g><text fill="#000000" font-family="sans-serif" font-size="14" font-weight="bold" lengthAdjust="spacing" textLength="296" x="119" y="30.1074">System Sequence Diagram (SSD) - US 3002</text><rect fill="#FFFFFF" height="126.1641" style="stroke:#181818;stroke-width:1.0;" width="10" x="33.5" y="133.2422"/><rect fill="#FFFFFF" height="31.291" style="stroke:#181818;stroke-width:1.0;" width="10" x="396.5" y="187.8242"/><rect fill="#FFFFFF" height="93.873" style="stroke:#181818;stroke-width:1.0;" width="10" x="495" y="156.5332"/><line style="stroke:#181818;stroke-width:0.5;stroke-dasharray:5.0,5.0;" x1="38" x2="38" y1="123.2422" y2="268.4063"/><line style="stroke:#181818;stroke-width:0.5;stroke-dasharray:5.0,5.0;" x1="225.5" x2="225.5" y1="123.2422" y2="268.4063"/><line style="stroke:#181818;stroke-width:0.5;stroke-dasharray:5.0,5.0;" x1="401" x2="401" y1="123.2422" y2="268.4063"/><line style="stroke:#181818;stroke-width:0.5;stroke-dasharray:5.0,5.0;" x1="500" x2="500" y1="123.2422" y2="268.4063"/><text fill="#000000" font-family="sans-serif" font-size="14" lengthAdjust="spacing" textLength="61" x="5" y="119.7285">Customer</text><ellipse cx="38.5" cy="53.1211" fill="#E3E3E3" rx="8" ry="8" style="stroke:#181818;stroke-width:0.5;"/><path d="M38.5,61.1211 L38.5,88.1211 M25.5,69.1211 L51.5,69.1211 M38.5,88.1211 L25.5,103.1211 M38.5,88.1211 L51.5,103.1211 " fill="none" style="stroke:#181818;stroke-width:0.5;"/><text fill="#000000" font-family="sans-serif" font-size="14" lengthAdjust="spacing" textLength="61" x="5" y="282.5137">Customer</text><ellipse cx="38.5" cy="294.5273" fill="#E3E3E3" rx="8" ry="8" style="stroke:#181818;stroke-width:0.5;"/><path d="M38.5,302.5273 L38.5,329.5273 M25.5,310.5273 L51.5,310.5273 M38.5,329.5273 L25.5,344.5273 M38.5,329.5273 L51.5,344.5273 " fill="none" style="stroke:#181818;stroke-width:0.5;"/><rect fill="#E3E3E3" height="32.6211" rx="2.5" ry="2.5" style="stroke:#181818;stroke-width:0.5;" width="104" x="173.5" y="89.6211"/><text fill="#000000" font-family="sans-serif" font-size="14" lengthAdjust="spacing" textLength="90" x="180.5" y="111.7285">:CustomerApp</text><rect fill="#E3E3E3" height="32.6211" rx="2.5" ry="2.5" style="stroke:#181818;stroke-width:0.5;" width="104" x="173.5" y="267.4063"/><text fill="#000000" font-family="sans-serif" font-size="14" lengthAdjust="spacing" textLength="90" x="180.5" y="289.5137">:CustomerApp</text><rect fill="#E3E3E3" height="32.6211" rx="2.5" ry="2.5" style="stroke:#181818;stroke-width:0.5;" width="117" x="343" y="89.6211"/><text fill="#000000" font-family="sans-serif" font-size="14" lengthAdjust="spacing" textLength="103" x="350" y="111.7285">:FollowUpServer</text><rect fill="#E3E3E3" height="32.6211" rx="2.5" ry="2.5" style="stroke:#181818;stroke-width:0.5;" width="117" x="343" y="267.4063"/><text fill="#000000" font-family="sans-serif" font-size="14" lengthAdjust="spacing" textLength="103" x="350" y="289.5137">:FollowUpServer</text><rect fill="#E3E3E3" height="32.6211" rx="2.5" ry="2.5" style="stroke:#181818;stroke-width:0.5;" width="60" x="470" y="89.6211"/><text fill="#000000" font-family="sans-serif" font-size="14" lengthAdjust="spacing" textLength="46" x="477" y="111.7285">System</text><rect fill="#E3E3E3" height="32.6211" rx="2.5" ry="2.5" style="stroke:#181818;stroke-width:0.5;" width="60" x="470" y="267.4063"/><text fill="#000000" font-family="sans-serif" font-size="14" lengthAdjust="spacing" textLength="46" x="477" y="289.5137">System</text><rect fill="#FFFFFF" height="126.1641" style="stroke:#181818;stroke-width:1.0;" width="10" x="33.5" y="133.2422"/><rect fill="#FFFFFF" height="31.291" style="stroke:#181818;stroke-width:1.0;" width="10" x="396.5" y="187.8242"/><rect fill="#FFFFFF" height="93.873" style="stroke:#181818;stroke-width:1.0;" width="10" x="495" y="156.5332"/><polygon fill="#181818" points="213.5,152.5332,223.5,156.5332,213.5,160.5332,217.5,156.5332" style="stroke:#181818;stroke-width:1.0;"/><line style="stroke:#181818;stroke-width:1.0;" x1="43.5" x2="219.5" y1="156.5332" y2="156.5332"/><text fill="#000000" font-family="sans-serif" font-size="13" font-weight="bold" lengthAdjust="spacing" textLength="7" x="50.5" y="151.2705">1</text><text fill="#000000" font-family="sans-serif" font-size="13" lengthAdjust="spacing" textLength="147" x="61.5" y="151.2705">asks to list Job Openings</text><polygon fill="#181818" points="384.5,183.8242,394.5,187.8242,384.5,191.8242,388.5,187.8242" style="stroke:#181818;stroke-width:1.0;"/><line style="stroke:#181818;stroke-width:1.0;" x1="225.5" x2="390.5" y1="187.8242" y2="187.8242"/><text fill="#000000" font-family="sans-serif" font-size="13" font-weight="bold" lengthAdjust="spacing" textLength="7" x="232.5" y="182.5615">2</text><text fill="#000000" font-family="sans-serif" font-size="13" lengthAdjust="spacing" textLength="136" x="243.5" y="182.5615">(tcp)listMyJobOpenings</text><polygon fill="#181818" points="236.5,215.1152,226.5,219.1152,236.5,223.1152,232.5,219.1152" style="stroke:#181818;stroke-width:1.0;"/><line style="stroke:#181818;stroke-width:1.0;stroke-dasharray:2.0,2.0;" x1="230.5" x2="400.5" y1="219.1152" y2="219.1152"/><text fill="#000000" font-family="sans-serif" font-size="13" font-weight="bold" lengthAdjust="spacing" textLength="7" x="242.5" y="213.8525">3</text><text fill="#000000" font-family="sans-serif" font-size="13" lengthAdjust="spacing" textLength="136" x="253.5" y="213.8525">(tcp)listMyJobOpenings</text><polygon fill="#181818" points="54.5,246.4063,44.5,250.4063,54.5,254.4063,50.5,250.4063" style="stroke:#181818;stroke-width:1.0;"/><line style="stroke:#181818;stroke-width:1.0;stroke-dasharray:2.0,2.0;" x1="48.5" x2="224.5" y1="250.4063" y2="250.4063"/><text fill="#000000" font-family="sans-serif" font-size="13" font-weight="bold" lengthAdjust="spacing" textLength="7" x="60.5" y="245.1436">4</text><text fill="#000000" font-family="sans-serif" font-size="13" lengthAdjust="spacing" textLength="147" x="71.5" y="245.1436">shows operation success</text><!--SRC=[VP71QiCm38RlUGhHKtiebEsMms2ix50OEvW-WEfggMbYUPRIaBUV7MTjDyPy-ctz-gGVozdvW14xwDYpFKNk23JsLCcr4j2UiI6ZOqiGoIhwfhqto0cFF3ZVm0UsGbMbJfFLZABKWQ7Fdhmbs3fiidrfp7O5QzWRUDni7geAUsNVTmUAILlb28kNNZIj4XU00dj9bJHAdNK1lSAY_gu_Xp1PqZt9NwPNRbiUzi5GlCoe8gSnxe9AXLr1Ebd1-cb6rSbz5b26red2ZW_m7iYda3Avyxb2IjA2AUqPL6P13KkrOPKnRsFY_C3S4FDY-N5kN5-N-Pznf3yffJL3fcHr-YOU13XGH7NiGNfhIMvnxZbpe2y0]--></g></svg>