<?xml version="1.0" encoding="us-ascii" standalone="no"?><svg xmlns="http://www.w3.org/2000/svg" xmlns:xlink="http://www.w3.org/1999/xlink" contentStyleType="text/css" height="477px" preserveAspectRatio="none" style="width:1410px;height:477px;background:#FFFFFF;" version="1.1" viewBox="0 0 1410 477" width="1410px" zoomAndPan="magnify"><defs/><g><text fill="#000000" font-family="sans-serif" font-size="14" font-weight="bold" lengthAdjust="spacing" textLength="100" x="648" y="25.1074">Domain Model</text><!--cluster ApplicationAggregate--><g id="cluster_ApplicationAggregate"><path d="M8.5,45.6348 L160.5,45.6348 A3.75,3.75 0 0 1 163,48.1348 L170,70.2559 L278.5,70.2559 A2.5,2.5 0 0 1 281,72.7559 L281,328.1348 A2.5,2.5 0 0 1 278.5,330.6348 L8.5,330.6348 A2.5,2.5 0 0 1 6,328.1348 L6,48.1348 A2.5,2.5 0 0 1 8.5,45.6348 " fill="none" style="stroke:#000000;stroke-width:1.5;"/><line style="stroke:#000000;stroke-width:1.5;" x1="6" x2="170" y1="70.2559" y2="70.2559"/><text fill="#000000" font-family="sans-serif" font-size="14" font-weight="bold" lengthAdjust="spacing" textLength="151" x="10" y="62.7422">ApplicationAggregate</text></g><!--cluster CandidateAggregate--><g id="cluster_CandidateAggregate"><path d="M307.5,216.6348 L452.5,216.6348 A3.75,3.75 0 0 1 455,219.1348 L462,241.2559 L462.5,241.2559 A2.5,2.5 0 0 1 465,243.7559 L465,468.1348 A2.5,2.5 0 0 1 462.5,470.6348 L307.5,470.6348 A2.5,2.5 0 0 1 305,468.1348 L305,219.1348 A2.5,2.5 0 0 1 307.5,216.6348 " fill="none" style="stroke:#000000;stroke-width:1.5;"/><line style="stroke:#000000;stroke-width:1.5;" x1="305" x2="462" y1="241.2559" y2="241.2559"/><text fill="#000000" font-family="sans-serif" font-size="14" font-weight="bold" lengthAdjust="spacing" textLength="144" x="309" y="233.7422">CandidateAggregate</text></g><!--cluster NotificationAggregate--><g id="cluster_NotificationAggregate"><path d="M491.5,53.6348 L645.5,53.6348 A3.75,3.75 0 0 1 648,56.1348 L655,78.2559 L1400.5,78.2559 A2.5,2.5 0 0 1 1403,80.7559 L1403,328.1348 A2.5,2.5 0 0 1 1400.5,330.6348 L491.5,330.6348 A2.5,2.5 0 0 1 489,328.1348 L489,56.1348 A2.5,2.5 0 0 1 491.5,53.6348 " fill="none" style="stroke:#000000;stroke-width:1.5;"/><line style="stroke:#000000;stroke-width:1.5;" x1="489" x2="655" y1="78.2559" y2="78.2559"/><text fill="#000000" font-family="sans-serif" font-size="14" font-weight="bold" lengthAdjust="spacing" textLength="153" x="493" y="70.7422">NotificationAggregate</text></g><!--class Application--><g id="elem_Application"><rect codeLine="10" fill="#F1F1F1" height="68.543" id="Application" rx="2.5" ry="2.5" style="stroke:#181818;stroke-width:0.5;" width="75" x="130.5" y="82.6348"/><text fill="#000000" font-family="sans-serif" font-size="12" font-style="italic" lengthAdjust="spacing" textLength="44" x="146" y="100.584">&#171;Entity&#187;</text><text fill="#000000" font-family="sans-serif" font-size="12" font-style="italic" lengthAdjust="spacing" textLength="35" x="150.5" y="116.5449">&#171;root&#187;</text><text fill="#000000" font-family="sans-serif" font-size="14" lengthAdjust="spacing" textLength="69" x="133.5" y="134.6641">Application</text><line style="stroke:#181818;stroke-width:0.5;" x1="131.5" x2="204.5" y1="143.1777" y2="143.1777"/></g><!--class ApplicationID--><g id="elem_ApplicationID"><rect codeLine="11" fill="#F1F1F1" height="52.582" id="ApplicationID" rx="2.5" ry="2.5" style="stroke:#181818;stroke-width:0.5;" width="88" x="22" y="261.6348"/><text fill="#000000" font-family="sans-serif" font-size="12" font-style="italic" lengthAdjust="spacing" textLength="82" x="25" y="279.584">&#171;ValueObject&#187;</text><text fill="#000000" font-family="sans-serif" font-size="14" lengthAdjust="spacing" textLength="82" x="25" y="297.7031">ApplicationID</text><line style="stroke:#181818;stroke-width:0.5;" x1="23" x2="109" y1="306.2168" y2="306.2168"/></g><!--class ApplicationState--><g id="elem_ApplicationState"><rect codeLine="12" fill="#F1F1F1" height="52.582" id="ApplicationState" rx="2.5" ry="2.5" style="stroke:#181818;stroke-width:0.5;" width="108" x="145" y="261.6348"/><text fill="#000000" font-family="sans-serif" font-size="12" font-style="italic" lengthAdjust="spacing" textLength="82" x="158" y="279.584">&#171;ValueObject&#187;</text><text fill="#000000" font-family="sans-serif" font-size="14" lengthAdjust="spacing" textLength="102" x="148" y="297.7031">ApplicationState</text><line style="stroke:#181818;stroke-width:0.5;" x1="146" x2="252" y1="306.2168" y2="306.2168"/></g><!--class Candidate--><g id="elem_Candidate"><rect codeLine="19" fill="#F1F1F1" height="68.543" id="Candidate" rx="2.5" ry="2.5" style="stroke:#181818;stroke-width:0.5;" width="71" x="332.5" y="253.6348"/><text fill="#000000" font-family="sans-serif" font-size="12" font-style="italic" lengthAdjust="spacing" textLength="44" x="346" y="271.584">&#171;Entity&#187;</text><text fill="#000000" font-family="sans-serif" font-size="12" font-style="italic" lengthAdjust="spacing" textLength="35" x="350.5" y="287.5449">&#171;root&#187;</text><text fill="#000000" font-family="sans-serif" font-size="14" lengthAdjust="spacing" textLength="65" x="335.5" y="305.6641">Candidate</text><line style="stroke:#181818;stroke-width:0.5;" x1="333.5" x2="402.5" y1="314.1777" y2="314.1777"/></g><!--class EMail--><g id="elem_EMail"><rect codeLine="22" fill="#F1F1F1" height="52.582" id="EMail" rx="2.5" ry="2.5" style="stroke:#181818;stroke-width:0.5;" width="84" x="343" y="401.6348"/><text fill="#000000" font-family="sans-serif" font-size="12" font-style="italic" lengthAdjust="spacing" textLength="82" x="344" y="419.584">&#171;ValueObject&#187;</text><text fill="#000000" font-family="sans-serif" font-size="14" lengthAdjust="spacing" textLength="34" x="368" y="437.7031">EMail</text><line style="stroke:#181818;stroke-width:0.5;" x1="344" x2="426" y1="446.2168" y2="446.2168"/></g><!--class Notification--><g id="elem_Notification"><rect codeLine="26" fill="#F1F1F1" height="52.582" id="Notification" rx="2.5" ry="2.5" style="stroke:#181818;stroke-width:0.5;" width="75" x="919.5" y="90.6348"/><text fill="#000000" font-family="sans-serif" font-size="12" font-style="italic" lengthAdjust="spacing" textLength="44" x="935" y="108.584">&#171;Entity&#187;</text><text fill="#000000" font-family="sans-serif" font-size="14" lengthAdjust="spacing" textLength="69" x="922.5" y="126.7031">Notification</text><line style="stroke:#181818;stroke-width:0.5;" x1="920.5" x2="993.5" y1="135.2168" y2="135.2168"/></g><!--class ID--><g id="elem_ID"><rect codeLine="27" fill="#F1F1F1" height="52.582" id="ID" rx="2.5" ry="2.5" style="stroke:#181818;stroke-width:0.5;" width="84" x="505" y="261.6348"/><text fill="#000000" font-family="sans-serif" font-size="12" font-style="italic" lengthAdjust="spacing" textLength="82" x="506" y="279.584">&#171;ValueObject&#187;</text><text fill="#000000" font-family="sans-serif" font-size="14" lengthAdjust="spacing" textLength="13" x="540.5" y="297.7031">ID</text><line style="stroke:#181818;stroke-width:0.5;" x1="506" x2="588" y1="306.2168" y2="306.2168"/></g><!--class NotificationDate--><g id="elem_NotificationDate"><rect codeLine="28" fill="#F1F1F1" height="52.582" id="NotificationDate" rx="2.5" ry="2.5" style="stroke:#181818;stroke-width:0.5;" width="105" x="624.5" y="261.6348"/><text fill="#000000" font-family="sans-serif" font-size="12" font-style="italic" lengthAdjust="spacing" textLength="82" x="636" y="279.584">&#171;ValueObject&#187;</text><text fill="#000000" font-family="sans-serif" font-size="14" lengthAdjust="spacing" textLength="99" x="627.5" y="297.7031">NotificationDate</text><line style="stroke:#181818;stroke-width:0.5;" x1="625.5" x2="728.5" y1="306.2168" y2="306.2168"/></g><!--class NotificationState--><g id="elem_NotificationState"><rect codeLine="29" fill="#F1F1F1" height="52.582" id="NotificationState" rx="2.5" ry="2.5" style="stroke:#181818;stroke-width:0.5;" width="108" x="765" y="261.6348"/><text fill="#000000" font-family="sans-serif" font-size="12" font-style="italic" lengthAdjust="spacing" textLength="82" x="778" y="279.584">&#171;ValueObject&#187;</text><text fill="#000000" font-family="sans-serif" font-size="14" lengthAdjust="spacing" textLength="102" x="768" y="297.7031">NotificationState</text><line style="stroke:#181818;stroke-width:0.5;" x1="766" x2="872" y1="306.2168" y2="306.2168"/></g><!--class NotificationType--><g id="elem_NotificationType"><rect codeLine="30" fill="#F1F1F1" height="52.582" id="NotificationType" rx="2.5" ry="2.5" style="stroke:#181818;stroke-width:0.5;" width="107" x="908.5" y="261.6348"/><text fill="#000000" font-family="sans-serif" font-size="12" font-style="italic" lengthAdjust="spacing" textLength="82" x="921" y="279.584">&#171;ValueObject&#187;</text><text fill="#000000" font-family="sans-serif" font-size="14" lengthAdjust="spacing" textLength="101" x="911.5" y="297.7031">NotificationType</text><line style="stroke:#181818;stroke-width:0.5;" x1="909.5" x2="1014.5" y1="306.2168" y2="306.2168"/></g><!--class SenderEmail--><g id="elem_SenderEmail"><rect codeLine="31" fill="#F1F1F1" height="52.582" id="SenderEmail" rx="2.5" ry="2.5" style="stroke:#181818;stroke-width:0.5;" width="86" x="1051" y="261.6348"/><text fill="#000000" font-family="sans-serif" font-size="12" font-style="italic" lengthAdjust="spacing" textLength="82" x="1053" y="279.584">&#171;ValueObject&#187;</text><text fill="#000000" font-family="sans-serif" font-size="14" lengthAdjust="spacing" textLength="80" x="1054" y="297.7031">SenderEmail</text><line style="stroke:#181818;stroke-width:0.5;" x1="1052" x2="1136" y1="306.2168" y2="306.2168"/></g><!--class ReceiverEmail--><g id="elem_ReceiverEmail"><rect codeLine="32" fill="#F1F1F1" height="52.582" id="ReceiverEmail" rx="2.5" ry="2.5" style="stroke:#181818;stroke-width:0.5;" width="96" x="1172" y="261.6348"/><text fill="#000000" font-family="sans-serif" font-size="12" font-style="italic" lengthAdjust="spacing" textLength="82" x="1179" y="279.584">&#171;ValueObject&#187;</text><text fill="#000000" font-family="sans-serif" font-size="14" lengthAdjust="spacing" textLength="90" x="1175" y="297.7031">ReceiverEmail</text><line style="stroke:#181818;stroke-width:0.5;" x1="1173" x2="1267" y1="306.2168" y2="306.2168"/></g><!--class Message--><g id="elem_Message"><rect codeLine="33" fill="#F1F1F1" height="52.582" id="Message" rx="2.5" ry="2.5" style="stroke:#181818;stroke-width:0.5;" width="84" x="1303" y="261.6348"/><text fill="#000000" font-family="sans-serif" font-size="12" font-style="italic" lengthAdjust="spacing" textLength="82" x="1304" y="279.584">&#171;ValueObject&#187;</text><text fill="#000000" font-family="sans-serif" font-size="14" lengthAdjust="spacing" textLength="57" x="1316.5" y="297.7031">Message</text><line style="stroke:#181818;stroke-width:0.5;" x1="1304" x2="1386" y1="306.2168" y2="306.2168"/></g><!--link Application to ApplicationID--><g id="link_Application_ApplicationID"><path codeLine="37" d="M130.48,147.6048 C119.79,157.4948 108.91,169.1948 101,181.6348 C85.26,206.3848 77.1993,233.0916 72.1593,255.4516 " fill="none" id="Application-to-ApplicationID" style="stroke:#181818;stroke-width:1.0;"/><polygon fill="#181818" points="70.84,261.3048,76.7211,253.4046,71.9394,256.4271,68.9169,251.6455,70.84,261.3048" style="stroke:#181818;stroke-width:1.0;"/><text fill="#000000" font-family="sans-serif" font-size="13" lengthAdjust="spacing" textLength="69" x="102" y="196.6631">identified by</text><text fill="#000000" font-family="sans-serif" font-size="13" lengthAdjust="spacing" textLength="7" x="115.4042" y="149.0321">1</text><text fill="#000000" font-family="sans-serif" font-size="13" lengthAdjust="spacing" textLength="7" x="64.1499" y="250.245">1</text></g><!--link Application to ApplicationState--><g id="link_Application_ApplicationState"><path codeLine="38" d="M174.2,151.9248 C180.12,184.1948 187.8276,226.2232 193.1976,255.5032 " fill="none" id="Application-to-ApplicationState" style="stroke:#181818;stroke-width:1.0;"/><polygon fill="#181818" points="194.28,261.4048,196.5908,251.8308,193.378,256.4868,188.7221,253.274,194.28,261.4048" style="stroke:#181818;stroke-width:1.0;"/><text fill="#000000" font-family="sans-serif" font-size="13" lengthAdjust="spacing" textLength="95" x="184" y="196.6631">presents itself in</text><text fill="#000000" font-family="sans-serif" font-size="13" lengthAdjust="spacing" textLength="7" x="167.6472" y="173.1849">1</text><text fill="#000000" font-family="sans-serif" font-size="13" lengthAdjust="spacing" textLength="7" x="185.3791" y="250.3681">1</text></g><!--link Application to Candidate--><g id="link_Application_Candidate"><path codeLine="40" d="M205.73,132.9848 C230.76,144.0048 263.39,160.7248 288,181.6348 C312,202.0248 329.9465,225.7764 344.4965,248.1264 " fill="none" id="Application-to-Candidate" style="stroke:#181818;stroke-width:1.0;"/><polygon fill="#181818" points="347.77,253.1548,346.212,243.4299,345.0421,248.9645,339.5075,247.7946,347.77,253.1548" style="stroke:#181818;stroke-width:1.0;"/><text fill="#000000" font-family="sans-serif" font-size="13" lengthAdjust="spacing" textLength="75" x="308" y="196.6631">submitted by</text><text fill="#000000" font-family="sans-serif" font-size="13" lengthAdjust="spacing" textLength="5" x="213.3988" y="131.4855">*</text><text fill="#000000" font-family="sans-serif" font-size="13" lengthAdjust="spacing" textLength="7" x="336.5431" y="242.5048">1</text></g><!--link Candidate to EMail--><g id="link_Candidate_EMail"><path codeLine="42" d="M372.16,322.8948 C375.15,347.1548 378.3764,373.3998 381.1064,395.5598 " fill="none" id="Candidate-to-EMail" style="stroke:#181818;stroke-width:1.0;"/><polygon fill="#181818" points="381.84,401.5148,384.7096,392.0932,381.2286,396.5523,376.7696,393.0714,381.84,401.5148" style="stroke:#181818;stroke-width:1.0;"/><text fill="#000000" font-family="sans-serif" font-size="13" lengthAdjust="spacing" textLength="69" x="379" y="367.6631">identified by</text><text fill="#000000" font-family="sans-serif" font-size="13" lengthAdjust="spacing" textLength="7" x="365.2693" y="344.15">1</text><text fill="#000000" font-family="sans-serif" font-size="13" lengthAdjust="spacing" textLength="7" x="373.2999" y="390.5036">1</text></g><!--link Notification to NotificationDate--><g id="link_Notification_NotificationDate"><path codeLine="45" d="M919.49,126.6848 C874.36,138.5748 798.39,163.8448 748,208.6348 C729.73,224.8748 715.1509,240.8404 701.6409,256.8404 " fill="none" id="Notification-to-NotificationDate" style="stroke:#181818;stroke-width:1.0;"/><polygon fill="#181818" points="697.77,261.4248,706.6326,257.1289,700.9957,257.6045,700.5201,251.9677,697.77,261.4248" style="stroke:#181818;stroke-width:1.0;"/><text fill="#000000" font-family="sans-serif" font-size="13" lengthAdjust="spacing" textLength="40" x="783" y="196.6631">sent at</text><text fill="#000000" font-family="sans-serif" font-size="13" lengthAdjust="spacing" textLength="7" x="904.4162" y="144.3365">1</text><text fill="#000000" font-family="sans-serif" font-size="13" lengthAdjust="spacing" textLength="7" x="694.7637" y="250.3927">1</text></g><!--link Notification to SenderEmail--><g id="link_Notification_SenderEmail"><path codeLine="46" d="M994.76,134.8148 C1015.34,145.5748 1039.83,161.3548 1056,181.6348 C1074.69,205.0748 1083.3804,232.6306 1088.3404,255.5406 " fill="none" id="Notification-to-SenderEmail" style="stroke:#181818;stroke-width:1.0;"/><polygon fill="#181818" points="1089.61,261.4048,1091.6151,251.7622,1088.552,256.518,1083.7962,253.4549,1089.61,261.4048" style="stroke:#181818;stroke-width:1.0;"/><text fill="#000000" font-family="sans-serif" font-size="13" lengthAdjust="spacing" textLength="43" x="1068" y="196.6631">sent by</text><text fill="#000000" font-family="sans-serif" font-size="13" lengthAdjust="spacing" textLength="7" x="1002.6252" y="133.6606">1</text><text fill="#000000" font-family="sans-serif" font-size="13" lengthAdjust="spacing" textLength="7" x="1080.7854" y="250.3681">1</text></g><!--link Notification to ReceiverEmail--><g id="link_Notification_ReceiverEmail"><path codeLine="47" d="M994.53,127.1148 C1037.91,139.1748 1109.2,164.3848 1155,208.6348 C1171.93,224.9848 1185.147,240.7827 1197.457,256.7527 " fill="none" id="Notification-to-ReceiverEmail" style="stroke:#181818;stroke-width:1.0;"/><polygon fill="#181818" points="1201.12,261.5048,1198.7935,251.9346,1198.0675,257.5447,1192.4574,256.8186,1201.12,261.5048" style="stroke:#181818;stroke-width:1.0;"/><text fill="#000000" font-family="sans-serif" font-size="13" lengthAdjust="spacing" textLength="40" x="1142" y="196.6631">sent to</text><text fill="#000000" font-family="sans-serif" font-size="13" lengthAdjust="spacing" textLength="7" x="1002.6078" y="144.8511">1</text><text fill="#000000" font-family="sans-serif" font-size="13" lengthAdjust="spacing" textLength="7" x="1188.9446" y="250.4912">1</text></g><!--link ReceiverEmail to EMail--><g id="link_ReceiverEmail_EMail"><path codeLine="48" d="M1193.26,314.6848 C1182.23,323.7448 1168.82,333.0748 1155,338.6348 C1020.65,392.7048 573.853,418.1244 433.103,424.9444 " fill="none" id="ReceiverEmail-to-EMail" style="stroke:#181818;stroke-width:1.0;"/><polygon fill="#181818" points="427.11,425.2348,436.293,428.7945,432.1041,424.9928,435.9059,420.8039,427.11,425.2348" style="stroke:#181818;stroke-width:1.0;"/><text fill="#000000" font-family="sans-serif" font-size="13" lengthAdjust="spacing" textLength="69" x="1109" y="367.6631">derives from</text><text fill="#000000" font-family="sans-serif" font-size="13" lengthAdjust="spacing" textLength="7" x="1179.645" y="336.4578">1</text><text fill="#000000" font-family="sans-serif" font-size="13" lengthAdjust="spacing" textLength="7" x="434.9492" y="420.3646">1</text></g><!--link Notification to Message--><g id="link_Notification_Message"><path codeLine="49" d="M994.61,120.5348 C1059.43,126.2948 1194.06,145.5248 1286,208.6348 C1305.54,222.0448 1318.1828,238.878 1328.4728,256.178 " fill="none" id="Notification-to-Message" style="stroke:#181818;stroke-width:1.0;"/><polygon fill="#181818" points="1331.54,261.3348,1330.377,251.5548,1328.984,257.0375,1323.5013,255.6445,1331.54,261.3348" style="stroke:#181818;stroke-width:1.0;"/><text fill="#000000" font-family="sans-serif" font-size="13" lengthAdjust="spacing" textLength="21" x="1271" y="196.6631">has</text><text fill="#000000" font-family="sans-serif" font-size="13" lengthAdjust="spacing" textLength="7" x="1002.4466" y="116.6585">1</text><text fill="#000000" font-family="sans-serif" font-size="13" lengthAdjust="spacing" textLength="7" x="1320.618" y="250.2819">1</text></g><!--link Notification to ID--><g id="link_Notification_ID"><path codeLine="50" d="M919.23,119.0348 C850.64,122.4448 703.75,138.1248 607,208.6348 C587.87,222.5748 575.1017,239.2016 564.4717,256.2716 " fill="none" id="Notification-to-ID" style="stroke:#181818;stroke-width:1.0;"/><polygon fill="#181818" points="561.3,261.3648,569.453,255.8394,563.9431,257.1204,562.6621,251.6105,561.3,261.3648" style="stroke:#181818;stroke-width:1.0;"/><text fill="#000000" font-family="sans-serif" font-size="13" lengthAdjust="spacing" textLength="69" x="649" y="196.6631">identified by</text><text fill="#000000" font-family="sans-serif" font-size="13" lengthAdjust="spacing" textLength="7" x="904.6208" y="114.9116">1</text><text fill="#000000" font-family="sans-serif" font-size="13" lengthAdjust="spacing" textLength="7" x="556.7975" y="250.3189">1</text></g><!--link Notification to NotificationState--><g id="link_Notification_NotificationState"><path codeLine="51" d="M919.43,131.1048 C895.35,141.2648 865.3,157.7348 847,181.6348 C829.26,204.8048 823.3501,232.3069 820.9601,255.3069 " fill="none" id="Notification-to-NotificationState" style="stroke:#181818;stroke-width:1.0;"/><polygon fill="#181818" points="820.34,261.2748,825.2488,252.7364,820.8568,256.3015,817.2916,251.9095,820.34,261.2748" style="stroke:#181818;stroke-width:1.0;"/><text fill="#000000" font-family="sans-serif" font-size="13" lengthAdjust="spacing" textLength="96" x="848" y="196.6631">characterized by</text><text fill="#000000" font-family="sans-serif" font-size="13" lengthAdjust="spacing" textLength="5" x="906.5412" y="129.2798">*</text><text fill="#000000" font-family="sans-serif" font-size="13" lengthAdjust="spacing" textLength="7" x="812.8405" y="250.2081">1</text></g><!--link Notification to NotificationType--><g id="link_Notification_NotificationType"><path codeLine="52" d="M955.51,143.7648 C954.91,155.3348 954.29,169.1648 954,181.6348 C953.8,190.0748 953.61,192.1948 954,200.6348 C954.95,221.1248 956.4946,238.2896 958.3546,255.4796 " fill="none" id="Notification-to-NotificationType" style="stroke:#181818;stroke-width:1.0;"/><polygon fill="#181818" points="959,261.4448,962.0086,252.0667,958.4621,256.4738,954.055,252.9273,959,261.4448" style="stroke:#181818;stroke-width:1.0;"/><text fill="#000000" font-family="sans-serif" font-size="13" lengthAdjust="spacing" textLength="96" x="955" y="196.6631">characterized by</text><text fill="#000000" font-family="sans-serif" font-size="13" lengthAdjust="spacing" textLength="5" x="949.6871" y="165.1118">*</text><text fill="#000000" font-family="sans-serif" font-size="13" lengthAdjust="spacing" textLength="7" x="950.4969" y="250.4174">1</text></g><!--SRC=[bLGzRy8m4DtzAquiI4WCNH6AX0f31rgfL9sw6ET8hZXsP1-LAEA_ro5y9CIfsecGU-_Uktkd3FsMJ2cTB42JGTwN2DPnRiLGuuQ1BJZASeQK72ecQqHEAO8YfpJMpmK6VEe54sk4kIqa6LZQ5BKGefHgApE4MLbgKhBgCCioXvbaX8CGIallcrMOJXScjDed2NnK_vord2I7OnVwD0_bTwbt-BB-3ExYg1LNKdT0SHGDSu_If9G6MCJQjTPdh6fLGnTBIJfYwNXJUhPCc_iz7CxyPh6XTXsgEs-4E8zDsuN5jzB5lLKN4OUjqAJe5aLaw3FY5HNIr- -O9NfVRIOMKFCi1Wy368-Jqs_x1YOGhj1KbZ65zVulh7hw2PGEVQ1w8FQeDq3cJdHqezyEOG9-jow8kTOJjqfJhhw6UtD2j59k4Zef1fr01Sdzd6O6PtWGwOMt0paJs8hs-zWKGIK0F6oSBVhxNyASG2vzFomIMXixYc_b4flAmnTBSR3q_G_swPIxv1y0]--></g></svg>