<?xml version="1.0" encoding="UTF-8" standalone="no"?><svg xmlns="http://www.w3.org/2000/svg" xmlns:xlink="http://www.w3.org/1999/xlink" contentStyleType="text/css" height="506px" preserveAspectRatio="none" style="width:435px;height:506px;background:#FFFFFF;" version="1.1" viewBox="0 0 435 506" width="435px" zoomAndPan="magnify"><defs/><g><text fill="#000000" font-family="sans-serif" font-size="14" font-weight="bold" lengthAdjust="spacing" textLength="309" x="62.25" y="28.5352">System Sequence Diagram (SSD) - US 1011</text><rect fill="#FFFFFF" height="273.4375" style="stroke:#181818;stroke-width:1.0;" width="10" x="93.5" y="136.043"/><rect fill="#FFFFFF" height="37.5547" style="stroke:#181818;stroke-width:1.0;" width="10" x="380.5" y="189.1523"/><rect fill="#FFFFFF" height="61.1094" style="stroke:#181818;stroke-width:1.0;" width="10" x="380.5" y="264.2617"/><rect fill="#FFFFFF" height="37.5547" style="stroke:#181818;stroke-width:1.0;" width="10" x="380.5" y="362.9258"/><line style="stroke:#181818;stroke-width:0.5;stroke-dasharray:5.0,5.0;" x1="98" x2="98" y1="126.043" y2="418.4805"/><line style="stroke:#181818;stroke-width:0.5;stroke-dasharray:5.0,5.0;" x1="385.5" x2="385.5" y1="126.043" y2="418.4805"/><text fill="#000000" font-family="sans-serif" font-size="20" lengthAdjust="spacing" textLength="181" x="5" y="121.8242">Customer Manager</text><ellipse cx="98.5" cy="50.9883" fill="#E3E3E3" rx="8" ry="8" style="stroke:#181818;stroke-width:0.5;"/><path d="M98.5,58.9883 L98.5,85.9883 M85.5,66.9883 L111.5,66.9883 M98.5,85.9883 L85.5,100.9883 M98.5,85.9883 L111.5,100.9883 " fill="none" style="stroke:#181818;stroke-width:0.5;"/><text fill="#000000" font-family="sans-serif" font-size="20" lengthAdjust="spacing" textLength="181" x="5" y="436.8164">Customer Manager</text><ellipse cx="98.5" cy="449.5352" fill="#E3E3E3" rx="8" ry="8" style="stroke:#181818;stroke-width:0.5;"/><path d="M98.5,457.5352 L98.5,484.5352 M85.5,465.5352 L111.5,465.5352 M98.5,484.5352 L85.5,499.5352 M98.5,484.5352 L111.5,499.5352 " fill="none" style="stroke:#181818;stroke-width:0.5;"/><rect fill="#E3E3E3" height="37.5547" rx="2.5" ry="2.5" style="stroke:#181818;stroke-width:0.5;" width="88" x="341.5" y="87.4883"/><text fill="#000000" font-family="sans-serif" font-size="20" lengthAdjust="spacing" textLength="74" x="348.5" y="113.8242">:System</text><rect fill="#E3E3E3" height="37.5547" rx="2.5" ry="2.5" style="stroke:#181818;stroke-width:0.5;" width="88" x="341.5" y="417.4805"/><text fill="#000000" font-family="sans-serif" font-size="20" lengthAdjust="spacing" textLength="74" x="348.5" y="443.8164">:System</text><rect fill="#FFFFFF" height="273.4375" style="stroke:#181818;stroke-width:1.0;" width="10" x="93.5" y="136.043"/><rect fill="#FFFFFF" height="37.5547" style="stroke:#181818;stroke-width:1.0;" width="10" x="380.5" y="189.1523"/><rect fill="#FFFFFF" height="61.1094" style="stroke:#181818;stroke-width:1.0;" width="10" x="380.5" y="264.2617"/><rect fill="#FFFFFF" height="37.5547" style="stroke:#181818;stroke-width:1.0;" width="10" x="380.5" y="362.9258"/><polygon fill="#181818" points="368.5,185.1523,378.5,189.1523,368.5,193.1523,372.5,189.1523" style="stroke:#181818;stroke-width:1.0;"/><line style="stroke:#181818;stroke-width:1.0;" x1="103.5" x2="374.5" y1="189.1523" y2="189.1523"/><text fill="#000000" font-family="sans-serif" font-size="20" font-weight="bold" lengthAdjust="spacing" textLength="13" x="110.5" y="171.1563">1</text><text fill="#000000" font-family="sans-serif" font-size="20" lengthAdjust="spacing" textLength="238" x="127.5" y="159.3789">asks to select a interview</text><text fill="#000000" font-family="sans-serif" font-size="20" lengthAdjust="spacing" textLength="232" x="133.5" y="182.9336">model for a job opening</text><polygon fill="#181818" points="114.5,222.707,104.5,226.707,114.5,230.707,110.5,226.707" style="stroke:#181818;stroke-width:1.0;"/><line style="stroke:#181818;stroke-width:1.0;stroke-dasharray:2.0,2.0;" x1="108.5" x2="384.5" y1="226.707" y2="226.707"/><text fill="#000000" font-family="sans-serif" font-size="20" font-weight="bold" lengthAdjust="spacing" textLength="13" x="120.5" y="220.4883">2</text><text fill="#000000" font-family="sans-serif" font-size="20" lengthAdjust="spacing" textLength="170" x="137.5" y="220.4883">lists job openings</text><polygon fill="#181818" points="368.5,260.2617,378.5,264.2617,368.5,268.2617,372.5,264.2617" style="stroke:#181818;stroke-width:1.0;"/><line style="stroke:#181818;stroke-width:1.0;" x1="103.5" x2="374.5" y1="264.2617" y2="264.2617"/><text fill="#000000" font-family="sans-serif" font-size="20" font-weight="bold" lengthAdjust="spacing" textLength="13" x="110.5" y="258.043">3</text><text fill="#000000" font-family="sans-serif" font-size="20" lengthAdjust="spacing" textLength="203" x="127.5" y="258.043">selects a job opening</text><polygon fill="#181818" points="114.5,321.3711,104.5,325.3711,114.5,329.3711,110.5,325.3711" style="stroke:#181818;stroke-width:1.0;"/><line style="stroke:#181818;stroke-width:1.0;stroke-dasharray:2.0,2.0;" x1="108.5" x2="384.5" y1="325.3711" y2="325.3711"/><text fill="#000000" font-family="sans-serif" font-size="20" font-weight="bold" lengthAdjust="spacing" textLength="13" x="120.5" y="307.375">4</text><text fill="#000000" font-family="sans-serif" font-size="20" lengthAdjust="spacing" textLength="198" x="137.5" y="295.5977">lists interview model</text><text fill="#000000" font-family="sans-serif" font-size="20" lengthAdjust="spacing" textLength="204" x="143.5" y="319.1523">plugins in the system</text><polygon fill="#181818" points="368.5,358.9258,378.5,362.9258,368.5,366.9258,372.5,362.9258" style="stroke:#181818;stroke-width:1.0;"/><line style="stroke:#181818;stroke-width:1.0;" x1="103.5" x2="374.5" y1="362.9258" y2="362.9258"/><text fill="#000000" font-family="sans-serif" font-size="20" font-weight="bold" lengthAdjust="spacing" textLength="13" x="110.5" y="356.707">5</text><text fill="#000000" font-family="sans-serif" font-size="20" lengthAdjust="spacing" textLength="241" x="127.5" y="356.707">selects a interview model</text><polygon fill="#181818" points="114.5,396.4805,104.5,400.4805,114.5,404.4805,110.5,400.4805" style="stroke:#181818;stroke-width:1.0;"/><line style="stroke:#181818;stroke-width:1.0;stroke-dasharray:2.0,2.0;" x1="108.5" x2="384.5" y1="400.4805" y2="400.4805"/><text fill="#000000" font-family="sans-serif" font-size="20" font-weight="bold" lengthAdjust="spacing" textLength="13" x="120.5" y="394.2617">6</text><text fill="#000000" font-family="sans-serif" font-size="20" lengthAdjust="spacing" textLength="236" x="137.5" y="394.2617">shows operation success</text><!--SRC=[bP2nRi9044HxVyM8AYcG82L5cg1qgIowDCjviIy-tpctQn3v-fpjW0m2f6oryixDlB7KrhSKgN71r5oWu1rrJj-3rzp-C5uMcPmaQ88FfegXOMZiU79foTHKSgv7nuXib7pffWAfg0W7wqlio0bdcLfDqlmeoWro_kxO6yRQKjdBd_9y_OmvDZcMY-KoowZJuBjcop7jHaF4xAqJJIWH7-HJTfo111j9YXIfrjYMl6As6ZE6wxWE3dPFogCyGvf-m_prJx9AwbgW0S8krG71UkMujtpuzEb75EomInI4hx15QDcdReDHFsV_Ks3_STpdAMF8Mi5PKPc-bxD1mJSjhY57EFaFnGEISyEnN-hPkgwqlhz0AuQCFfZC7T37i5T15uPtxMw2InKEqXUFf3PuI6SCYrmyketv2m00]--></g></svg>