<?xml version="1.0" encoding="us-ascii" standalone="no"?><svg xmlns="http://www.w3.org/2000/svg" xmlns:xlink="http://www.w3.org/1999/xlink" contentStyleType="text/css" height="565.5px" preserveAspectRatio="none" style="width:734px;height:565px;background:#FFFFFF;" version="1.1" viewBox="0 0 734 565" width="734.5px" zoomAndPan="magnify"><defs/><g><text fill="#000000" font-family="sans-serif" font-size="7" font-weight="bold" lengthAdjust="spacing" textLength="116.5" x="309.875" y="15.0537">Sequence Diagram (SD) - US 1018</text><rect fill="#FFFFFF" height="453.0742" style="stroke:#181818;stroke-width:0.5;" width="5" x="31.75" y="66.6211"/><rect fill="#FFFFFF" height="421.7832" style="stroke:#181818;stroke-width:0.5;" width="5" x="149.25" y="97.9121"/><rect fill="#FFFFFF" height="46.9365" style="stroke:#181818;stroke-width:0.5;" width="5" x="290.25" y="131.7031"/><rect fill="#FFFFFF" height="46.9365" style="stroke:#181818;stroke-width:0.5;" width="5" x="290.25" y="225.5762"/><rect fill="#FFFFFF" height="211.3916" style="stroke:#181818;stroke-width:0.5;" width="5" x="290.25" y="288.1582"/><rect fill="#FFFFFF" height="15.6455" style="stroke:#181818;stroke-width:0.5;" width="5" x="420.75" y="147.3486"/><rect fill="#FFFFFF" height="15.6455" style="stroke:#181818;stroke-width:0.5;" width="5" x="505" y="241.2217"/><rect fill="#FFFFFF" height="15.6455" style="stroke:#181818;stroke-width:0.5;" width="5" x="571.25" y="303.8037"/><rect fill="#FFFFFF" height="15.6455" style="stroke:#181818;stroke-width:0.5;" width="5" x="619.5" y="379.5313"/><rect fill="#FFFFFF" height="15.6455" style="stroke:#181818;stroke-width:0.5;" width="5" x="658.5" y="335.0947"/><rect fill="#FFFFFF" height="15.6455" style="stroke:#181818;stroke-width:0.5;" width="5" x="658.5" y="410.8223"/><rect fill="#FFFFFF" height="15.6455" style="stroke:#181818;stroke-width:0.5;" width="5" x="700.5" y="442.1133"/><rect fill="none" height="134.8096" style="stroke:#000000;stroke-width:0.75;" width="500" x="231.75" y="358.2402"/><line style="stroke:#181818;stroke-width:0.25;stroke-dasharray:5.0,5.0;" x1="34" x2="34" y1="61.6211" y2="524.1953"/><line style="stroke:#181818;stroke-width:0.25;stroke-dasharray:5.0,5.0;" x1="151.75" x2="151.75" y1="61.6211" y2="524.1953"/><line style="stroke:#181818;stroke-width:0.25;stroke-dasharray:5.0,5.0;" x1="292.75" x2="292.75" y1="61.6211" y2="524.1953"/><line style="stroke:#181818;stroke-width:0.25;stroke-dasharray:5.0,5.0;" x1="423.25" x2="423.25" y1="61.6211" y2="524.1953"/><line style="stroke:#181818;stroke-width:0.25;stroke-dasharray:5.0,5.0;" x1="507.25" x2="507.25" y1="61.6211" y2="524.1953"/><line style="stroke:#181818;stroke-width:0.25;stroke-dasharray:5.0,5.0;" x1="573.75" x2="573.75" y1="61.6211" y2="524.1953"/><line style="stroke:#181818;stroke-width:0.25;stroke-dasharray:5.0,5.0;" x1="621.75" x2="621.75" y1="61.6211" y2="524.1953"/><line style="stroke:#181818;stroke-width:0.25;stroke-dasharray:5.0,5.0;" x1="660.75" x2="660.75" y1="61.6211" y2="524.1953"/><line style="stroke:#181818;stroke-width:0.25;stroke-dasharray:5.0,5.0;" x1="702.75" x2="702.75" y1="61.6211" y2="524.1953"/><text fill="#000000" font-family="sans-serif" font-size="7" lengthAdjust="spacing" textLength="60.5" x="2.5" y="59.8643">Customer Manager</text><ellipse cx="34.25" cy="26.5605" fill="#E3E3E3" rx="4" ry="4" style="stroke:#181818;stroke-width:0.25;"/><path d="M34.25,30.5605 L34.25,44.0605 M27.75,34.5605 L40.75,34.5605 M34.25,44.0605 L27.75,51.5605 M34.25,44.0605 L40.75,51.5605 " fill="none" style="stroke:#181818;stroke-width:0.25;"/><text fill="#000000" font-family="sans-serif" font-size="7" lengthAdjust="spacing" textLength="60.5" x="2.5" y="531.249">Customer Manager</text><ellipse cx="34.25" cy="537.2559" fill="#E3E3E3" rx="4" ry="4" style="stroke:#181818;stroke-width:0.25;"/><path d="M34.25,541.2559 L34.25,554.7559 M27.75,545.2559 L40.75,545.2559 M34.25,554.7559 L27.75,562.2559 M34.25,554.7559 L40.75,562.2559 " fill="none" style="stroke:#181818;stroke-width:0.25;"/><rect fill="#E3E3E3" height="16.3105" rx="1.25" ry="1.25" style="stroke:#181818;stroke-width:0.25;" width="68" x="117.75" y="44.8105"/><text fill="#000000" font-family="sans-serif" font-size="7" lengthAdjust="spacing" textLength="61" x="121.25" y="55.8643">EvaluateInterviewUI</text><rect fill="#E3E3E3" height="16.3105" rx="1.25" ry="1.25" style="stroke:#181818;stroke-width:0.25;" width="68" x="117.75" y="523.6953"/><text fill="#000000" font-family="sans-serif" font-size="7" lengthAdjust="spacing" textLength="61" x="121.25" y="534.749">EvaluateInterviewUI</text><rect fill="#E3E3E3" height="16.3105" rx="1.25" ry="1.25" style="stroke:#181818;stroke-width:0.25;" width="112" x="236.75" y="44.8105"/><text fill="#000000" font-family="sans-serif" font-size="7" lengthAdjust="spacing" textLength="105" x="240.25" y="55.8643">EvaluateInterviewModelController</text><rect fill="#E3E3E3" height="16.3105" rx="1.25" ry="1.25" style="stroke:#181818;stroke-width:0.25;" width="112" x="236.75" y="523.6953"/><text fill="#000000" font-family="sans-serif" font-size="7" lengthAdjust="spacing" textLength="105" x="240.25" y="534.749">EvaluateInterviewModelController</text><rect fill="#E3E3E3" height="16.3105" rx="1.25" ry="1.25" style="stroke:#181818;stroke-width:0.25;" width="81" x="382.75" y="44.8105"/><text fill="#000000" font-family="sans-serif" font-size="7" lengthAdjust="spacing" textLength="74" x="386.25" y="55.8643">:JobOpeningRepository</text><rect fill="#E3E3E3" height="16.3105" rx="1.25" ry="1.25" style="stroke:#181818;stroke-width:0.25;" width="81" x="382.75" y="523.6953"/><text fill="#000000" font-family="sans-serif" font-size="7" lengthAdjust="spacing" textLength="74" x="386.25" y="534.749">:JobOpeningRepository</text><rect fill="#E3E3E3" height="16.3105" rx="1.25" ry="1.25" style="stroke:#181818;stroke-width:0.25;" width="77.5" x="468.75" y="44.8105"/><text fill="#000000" font-family="sans-serif" font-size="7" lengthAdjust="spacing" textLength="70.5" x="472.25" y="55.8643">:ApplicationRepository</text><rect fill="#E3E3E3" height="16.3105" rx="1.25" ry="1.25" style="stroke:#181818;stroke-width:0.25;" width="77.5" x="468.75" y="523.6953"/><text fill="#000000" font-family="sans-serif" font-size="7" lengthAdjust="spacing" textLength="70.5" x="472.25" y="534.749">:ApplicationRepository</text><rect fill="#E3E3E3" height="16.3105" rx="1.25" ry="1.25" style="stroke:#181818;stroke-width:0.25;" width="45" x="551.25" y="44.8105"/><text fill="#000000" font-family="sans-serif" font-size="7" lengthAdjust="spacing" textLength="38" x="554.75" y="55.8643">JobOpening</text><rect fill="#E3E3E3" height="16.3105" rx="1.25" ry="1.25" style="stroke:#181818;stroke-width:0.25;" width="45" x="551.25" y="523.6953"/><text fill="#000000" font-family="sans-serif" font-size="7" lengthAdjust="spacing" textLength="38" x="554.75" y="534.749">JobOpening</text><rect fill="#E3E3E3" height="16.3105" rx="1.25" ry="1.25" style="stroke:#181818;stroke-width:0.25;" width="41.5" x="601.25" y="44.8105"/><text fill="#000000" font-family="sans-serif" font-size="7" lengthAdjust="spacing" textLength="34.5" x="604.75" y="55.8643">Application</text><rect fill="#E3E3E3" height="16.3105" rx="1.25" ry="1.25" style="stroke:#181818;stroke-width:0.25;" width="41.5" x="601.25" y="523.6953"/><text fill="#000000" font-family="sans-serif" font-size="7" lengthAdjust="spacing" textLength="34.5" x="604.75" y="534.749">Application</text><rect fill="#E3E3E3" height="16.3105" rx="1.25" ry="1.25" style="stroke:#181818;stroke-width:0.25;" width="26.5" x="647.75" y="44.8105"/><text fill="#000000" font-family="sans-serif" font-size="7" lengthAdjust="spacing" textLength="19.5" x="651.25" y="55.8643">Plugin</text><rect fill="#E3E3E3" height="16.3105" rx="1.25" ry="1.25" style="stroke:#181818;stroke-width:0.25;" width="26.5" x="647.75" y="523.6953"/><text fill="#000000" font-family="sans-serif" font-size="7" lengthAdjust="spacing" textLength="19.5" x="651.25" y="534.749">Plugin</text><rect fill="#E3E3E3" height="16.3105" rx="1.25" ry="1.25" style="stroke:#181818;stroke-width:0.25;" width="47.5" x="679.25" y="44.8105"/><text fill="#000000" font-family="sans-serif" font-size="7" lengthAdjust="spacing" textLength="40.5" x="682.75" y="55.8643">:IntModClass</text><rect fill="#E3E3E3" height="16.3105" rx="1.25" ry="1.25" style="stroke:#181818;stroke-width:0.25;" width="47.5" x="679.25" y="523.6953"/><text fill="#000000" font-family="sans-serif" font-size="7" lengthAdjust="spacing" textLength="40.5" x="682.75" y="534.749">:IntModClass</text><rect fill="#FFFFFF" height="453.0742" style="stroke:#181818;stroke-width:0.5;" width="5" x="31.75" y="66.6211"/><rect fill="#FFFFFF" height="421.7832" style="stroke:#181818;stroke-width:0.5;" width="5" x="149.25" y="97.9121"/><rect fill="#FFFFFF" height="46.9365" style="stroke:#181818;stroke-width:0.5;" width="5" x="290.25" y="131.7031"/><rect fill="#FFFFFF" height="46.9365" style="stroke:#181818;stroke-width:0.5;" width="5" x="290.25" y="225.5762"/><rect fill="#FFFFFF" height="211.3916" style="stroke:#181818;stroke-width:0.5;" width="5" x="290.25" y="288.1582"/><rect fill="#FFFFFF" height="15.6455" style="stroke:#181818;stroke-width:0.5;" width="5" x="420.75" y="147.3486"/><rect fill="#FFFFFF" height="15.6455" style="stroke:#181818;stroke-width:0.5;" width="5" x="505" y="241.2217"/><rect fill="#FFFFFF" height="15.6455" style="stroke:#181818;stroke-width:0.5;" width="5" x="571.25" y="303.8037"/><rect fill="#FFFFFF" height="15.6455" style="stroke:#181818;stroke-width:0.5;" width="5" x="619.5" y="379.5313"/><rect fill="#FFFFFF" height="15.6455" style="stroke:#181818;stroke-width:0.5;" width="5" x="658.5" y="335.0947"/><rect fill="#FFFFFF" height="15.6455" style="stroke:#181818;stroke-width:0.5;" width="5" x="658.5" y="410.8223"/><rect fill="#FFFFFF" height="15.6455" style="stroke:#181818;stroke-width:0.5;" width="5" x="700.5" y="442.1133"/><polygon fill="#181818" points="145.75,76.2666,150.75,78.2666,145.75,80.2666,147.75,78.2666" style="stroke:#181818;stroke-width:0.5;"/><line style="stroke:#181818;stroke-width:0.5;" x1="36.75" x2="148.75" y1="78.2666" y2="78.2666"/><text fill="#000000" font-family="sans-serif" font-size="6.5" lengthAdjust="spacing" textLength="19" x="40.25" y="75.6353">show()</text><line style="stroke:#181818;stroke-width:0.5;" x1="151.75" x2="175.25" y1="91.4121" y2="91.4121"/><line style="stroke:#181818;stroke-width:0.5;" x1="175.25" x2="175.25" y1="91.4121" y2="97.9121"/><line style="stroke:#181818;stroke-width:0.5;" x1="154.75" x2="175.25" y1="97.9121" y2="97.9121"/><polygon fill="#181818" points="159.75,95.9121,154.75,97.9121,159.75,99.9121,157.75,97.9121" style="stroke:#181818;stroke-width:0.5;"/><text fill="#000000" font-family="sans-serif" font-size="6.5" lengthAdjust="spacing" textLength="27" x="157.75" y="88.7808">doShow()</text><polygon fill="#181818" points="286.75,114.0576,291.75,116.0576,286.75,118.0576,288.75,116.0576" style="stroke:#181818;stroke-width:0.5;"/><line style="stroke:#181818;stroke-width:0.5;" x1="154.25" x2="289.75" y1="116.0576" y2="116.0576"/><text fill="#000000" font-family="sans-serif" font-size="6.5" lengthAdjust="spacing" textLength="22" x="157.75" y="113.4263">create()</text><polygon fill="#181818" points="284.25,129.7031,289.25,131.7031,284.25,133.7031,286.25,131.7031" style="stroke:#181818;stroke-width:0.5;"/><line style="stroke:#181818;stroke-width:0.5;" x1="154.25" x2="287.25" y1="131.7031" y2="131.7031"/><text fill="#000000" font-family="sans-serif" font-size="6.5" lengthAdjust="spacing" textLength="116" x="157.75" y="129.0718">allJobOpeningsWithInterviewInAnalysis()</text><polygon fill="#181818" points="414.75,145.3486,419.75,147.3486,414.75,149.3486,416.75,147.3486" style="stroke:#181818;stroke-width:0.5;"/><line style="stroke:#181818;stroke-width:0.5;" x1="295.25" x2="417.75" y1="147.3486" y2="147.3486"/><text fill="#000000" font-family="sans-serif" font-size="6.5" lengthAdjust="spacing" textLength="116" x="298.75" y="144.7173">allJobOpeningsWithInterviewInAnalysis()</text><polygon fill="#181818" points="300.75,160.9941,295.75,162.9941,300.75,164.9941,298.75,162.9941" style="stroke:#181818;stroke-width:0.5;"/><line style="stroke:#181818;stroke-width:0.5;stroke-dasharray:2.0,2.0;" x1="297.75" x2="422.75" y1="162.9941" y2="162.9941"/><text fill="#000000" font-family="sans-serif" font-size="6.5" lengthAdjust="spacing" textLength="36" x="303.75" y="160.3628">jobOpenings</text><polygon fill="#181818" points="159.75,176.6396,154.75,178.6396,159.75,180.6396,157.75,178.6396" style="stroke:#181818;stroke-width:0.5;"/><line style="stroke:#181818;stroke-width:0.5;stroke-dasharray:2.0,2.0;" x1="156.75" x2="292.25" y1="178.6396" y2="178.6396"/><text fill="#000000" font-family="sans-serif" font-size="6.5" lengthAdjust="spacing" textLength="36" x="162.75" y="176.0083">jobOpenings</text><polygon fill="#181818" points="42.25,192.2852,37.25,194.2852,42.25,196.2852,40.25,194.2852" style="stroke:#181818;stroke-width:0.5;"/><line style="stroke:#181818;stroke-width:0.5;stroke-dasharray:2.0,2.0;" x1="39.25" x2="148.75" y1="194.2852" y2="194.2852"/><text fill="#000000" font-family="sans-serif" font-size="6.5" lengthAdjust="spacing" textLength="100.5" x="45.25" y="191.6538">shows list of jobOpenings available</text><polygon fill="#181818" points="143.25,207.9307,148.25,209.9307,143.25,211.9307,145.25,209.9307" style="stroke:#181818;stroke-width:0.5;"/><line style="stroke:#181818;stroke-width:0.5;stroke-dasharray:2.0,2.0;" x1="36.75" x2="146.25" y1="209.9307" y2="209.9307"/><text fill="#000000" font-family="sans-serif" font-size="6.5" lengthAdjust="spacing" textLength="97.5" x="40.25" y="207.2993">selects jobOpenings (jobOpening)</text><polygon fill="#181818" points="284.25,223.5762,289.25,225.5762,284.25,227.5762,286.25,225.5762" style="stroke:#181818;stroke-width:0.5;"/><line style="stroke:#181818;stroke-width:0.5;" x1="154.25" x2="287.25" y1="225.5762" y2="225.5762"/><text fill="#000000" font-family="sans-serif" font-size="6.5" lengthAdjust="spacing" textLength="100.5" x="157.75" y="222.9448">applicationsNotKnown(jobOpening)</text><polygon fill="#181818" points="499,239.2217,504,241.2217,499,243.2217,501,241.2217" style="stroke:#181818;stroke-width:0.5;"/><line style="stroke:#181818;stroke-width:0.5;" x1="295.25" x2="502" y1="241.2217" y2="241.2217"/><text fill="#000000" font-family="sans-serif" font-size="6.5" lengthAdjust="spacing" textLength="100.5" x="298.75" y="238.5903">applicationsNotKnown(jobOpening)</text><polygon fill="#181818" points="300.75,254.8672,295.75,256.8672,300.75,258.8672,298.75,256.8672" style="stroke:#181818;stroke-width:0.5;"/><line style="stroke:#181818;stroke-width:0.5;" x1="297.75" x2="507" y1="256.8672" y2="256.8672"/><text fill="#000000" font-family="sans-serif" font-size="6.5" lengthAdjust="spacing" textLength="34.5" x="303.75" y="254.2358">applications</text><polygon fill="#181818" points="159.75,270.5127,154.75,272.5127,159.75,274.5127,157.75,272.5127" style="stroke:#181818;stroke-width:0.5;"/><line style="stroke:#181818;stroke-width:0.5;stroke-dasharray:2.0,2.0;" x1="156.75" x2="292.25" y1="272.5127" y2="272.5127"/><text fill="#000000" font-family="sans-serif" font-size="6.5" lengthAdjust="spacing" textLength="34.5" x="162.75" y="269.8813">applications</text><polygon fill="#181818" points="284.25,286.1582,289.25,288.1582,284.25,290.1582,286.25,288.1582" style="stroke:#181818;stroke-width:0.5;"/><line style="stroke:#181818;stroke-width:0.5;" x1="154.25" x2="287.25" y1="288.1582" y2="288.1582"/><text fill="#000000" font-family="sans-serif" font-size="6.5" lengthAdjust="spacing" textLength="126.5" x="157.75" y="285.5269">evaluateInterviews(jobOpening, applications)</text><polygon fill="#181818" points="565.25,301.8037,570.25,303.8037,565.25,305.8037,567.25,303.8037" style="stroke:#181818;stroke-width:0.5;"/><line style="stroke:#181818;stroke-width:0.5;" x1="295.25" x2="568.25" y1="303.8037" y2="303.8037"/><text fill="#000000" font-family="sans-serif" font-size="6.5" lengthAdjust="spacing" textLength="80.5" x="298.75" y="301.1724">jobOpening.interviewModel()</text><polygon fill="#181818" points="300.75,317.4492,295.75,319.4492,300.75,321.4492,298.75,319.4492" style="stroke:#181818;stroke-width:0.5;"/><line style="stroke:#181818;stroke-width:0.5;stroke-dasharray:2.0,2.0;" x1="297.75" x2="573.25" y1="319.4492" y2="319.4492"/><text fill="#000000" font-family="sans-serif" font-size="6.5" lengthAdjust="spacing" textLength="17" x="303.75" y="316.8179">plugIn</text><polygon fill="#181818" points="652.5,333.0947,657.5,335.0947,652.5,337.0947,654.5,335.0947" style="stroke:#181818;stroke-width:0.5;"/><line style="stroke:#181818;stroke-width:0.5;" x1="295.25" x2="655.5" y1="335.0947" y2="335.0947"/><text fill="#000000" font-family="sans-serif" font-size="6.5" lengthAdjust="spacing" textLength="25.5" x="298.75" y="332.4634">filePath()</text><polygon fill="#181818" points="300.75,348.7402,295.75,350.7402,300.75,352.7402,298.75,350.7402" style="stroke:#181818;stroke-width:0.5;"/><line style="stroke:#181818;stroke-width:0.5;stroke-dasharray:2.0,2.0;" x1="297.75" x2="660.5" y1="350.7402" y2="350.7402"/><text fill="#000000" font-family="sans-serif" font-size="6.5" lengthAdjust="spacing" textLength="39.5" x="303.75" y="348.1089">solutionsPath</text><path d="M231.75,358.2402 L268.25,358.2402 L268.25,362.8857 L263.25,367.8857 L231.75,367.8857 L231.75,358.2402 " fill="#EEEEEE" style="stroke:#000000;stroke-width:0.75;"/><rect fill="none" height="134.8096" style="stroke:#000000;stroke-width:0.75;" width="500" x="231.75" y="358.2402"/><text fill="#000000" font-family="sans-serif" font-size="6.5" font-weight="bold" lengthAdjust="spacing" textLength="14" x="239.25" y="365.7544">loop</text><text fill="#000000" font-family="sans-serif" font-size="5.5" font-weight="bold" lengthAdjust="spacing" textLength="99" x="275.75" y="365.1753">[for each application of applications]</text><polygon fill="#181818" points="613.5,377.5313,618.5,379.5313,613.5,381.5313,615.5,379.5313" style="stroke:#181818;stroke-width:0.5;"/><line style="stroke:#181818;stroke-width:0.5;" x1="295.25" x2="616.5" y1="379.5313" y2="379.5313"/><text fill="#000000" font-family="sans-serif" font-size="6.5" lengthAdjust="spacing" textLength="63.5" x="298.75" y="376.8999">interviewAnswerPath()</text><polygon fill="#181818" points="300.75,393.1768,295.75,395.1768,300.75,397.1768,298.75,395.1768" style="stroke:#181818;stroke-width:0.5;"/><line style="stroke:#181818;stroke-width:0.5;stroke-dasharray:2.0,2.0;" x1="297.75" x2="621.5" y1="395.1768" y2="395.1768"/><text fill="#000000" font-family="sans-serif" font-size="6.5" lengthAdjust="spacing" textLength="48" x="303.75" y="392.5454">answersFilePath</text><polygon fill="#181818" points="652.5,408.8223,657.5,410.8223,652.5,412.8223,654.5,410.8223" style="stroke:#181818;stroke-width:0.5;"/><line style="stroke:#181818;stroke-width:0.5;" x1="295.25" x2="655.5" y1="410.8223" y2="410.8223"/><text fill="#000000" font-family="sans-serif" font-size="6.5" lengthAdjust="spacing" textLength="60" x="298.75" y="408.1909">plugIn.buildImporter()</text><polygon fill="#181818" points="300.75,424.4678,295.75,426.4678,300.75,428.4678,298.75,426.4678" style="stroke:#181818;stroke-width:0.5;"/><line style="stroke:#181818;stroke-width:0.5;stroke-dasharray:2.0,2.0;" x1="297.75" x2="660.5" y1="426.4678" y2="426.4678"/><text fill="#000000" font-family="sans-serif" font-size="6.5" lengthAdjust="spacing" textLength="23.5" x="303.75" y="423.8364">importer</text><polygon fill="#181818" points="694.5,440.1133,699.5,442.1133,694.5,444.1133,696.5,442.1133" style="stroke:#181818;stroke-width:0.5;"/><line style="stroke:#181818;stroke-width:0.5;" x1="295.25" x2="697.5" y1="442.1133" y2="442.1133"/><text fill="#000000" font-family="sans-serif" font-size="6.5" lengthAdjust="spacing" textLength="161" x="298.75" y="439.4819">evaluateInterviewModel(solutionsPath, answersFilePath)</text><polygon fill="#181818" points="300.75,455.7588,295.75,457.7588,300.75,459.7588,298.75,457.7588" style="stroke:#181818;stroke-width:0.5;"/><line style="stroke:#181818;stroke-width:0.5;stroke-dasharray:2.0,2.0;" x1="297.75" x2="702.5" y1="457.7588" y2="457.7588"/><text fill="#000000" font-family="sans-serif" font-size="6.5" lengthAdjust="spacing" textLength="16" x="303.75" y="455.1274">score</text><polygon fill="#181818" points="616,471.4043,621,473.4043,616,475.4043,618,473.4043" style="stroke:#181818;stroke-width:0.5;"/><line style="stroke:#181818;stroke-width:0.5;" x1="295.25" x2="619" y1="473.4043" y2="473.4043"/><text fill="#000000" font-family="sans-serif" font-size="6.5" lengthAdjust="spacing" textLength="74" x="298.75" y="470.7729">giveInterviewPoints(score)</text><polygon fill="#181818" points="501.5,487.0498,506.5,489.0498,501.5,491.0498,503.5,489.0498" style="stroke:#181818;stroke-width:0.5;"/><line style="stroke:#181818;stroke-width:0.5;" x1="295.25" x2="504.5" y1="489.0498" y2="489.0498"/><text fill="#000000" font-family="sans-serif" font-size="6.5" lengthAdjust="spacing" textLength="48" x="298.75" y="486.4185">save(application)</text><polygon fill="#181818" points="159.75,497.5498,154.75,499.5498,159.75,501.5498,157.75,499.5498" style="stroke:#181818;stroke-width:0.5;"/><line style="stroke:#181818;stroke-width:0.5;stroke-dasharray:2.0,2.0;" x1="156.75" x2="292.25" y1="499.5498" y2="499.5498"/><polygon fill="#181818" points="42.25,513.1953,37.25,515.1953,42.25,517.1953,40.25,515.1953" style="stroke:#181818;stroke-width:0.5;"/><line style="stroke:#181818;stroke-width:0.5;stroke-dasharray:2.0,2.0;" x1="39.25" x2="148.75" y1="515.1953" y2="515.1953"/><text fill="#000000" font-family="sans-serif" font-size="6.5" lengthAdjust="spacing" textLength="73.5" x="45.25" y="512.564">shows operation success</text><!--SRC=[dLHDZzem4BtxLrYSG5fMtLl5eH9YMocjjaL5g6UJ3E2kiLEF0-BVTuBpOJkmNNf1E7xlpVZD1xvANGeh3lnWjCdtrXo0Eri1m-wc5FchsC7AdHLm2xaJUgT20Ev5OKvIx_XMA0J6d7G4NS6V2dGE_5cANOqRhvudVChNA_xquUaZOqpapbW-MbJeAAxbBq9J83lY0laQmJBITpANfT2EZpuVXQg4Wqmxi4S9ftNcaTa_S2-c0BKmsbcZL2FV7rdCddqrcnybQ7hEJoWDIahnVA7G1Nr9qFEoL38NJXgTmEccXiVuNhoLR8u9Bf1jnTepIw1BLUsaH_c_IOPa0ncmK0Bn0l9dnhp_yaXEURDP_SkddyXGFgEYcjDuGX-pxbDXLlvZpyjQGEyd0NCBTDkpeqkXLFzi_2NTlYjKfkTQg3DA38E4fGgKIDTNv7yqcrgoHc6Q9lcxLsC536XX6gqxDoXXzhKRDHmlCMg7aIk9ZfjjIEVYAAGI6ngofYPTKK3H_6447lU76uRtlOFVZVkcpKb7f7SuxPlvBh6s_nlgMrc5VhMqQnRVugGU9w4WNGWOPFmGgRwtxHfoLFP76IsSiDsYGG_eWxuhQO8pdRHSnupJyDDEfArKi1Hk7qPiLW5hG8D0Q5HrUN5D3EErH6LCoRUqdkbg7tfKDsjKY66hTD0PxpoPQpo1JTECzbh872GiBdpyqhmrQPbUv8P7tjZ7JILLaHrAOocjU_oI3UUQLN58lr-ljPrlYyZvX_HTGKhjecu4XoNCZOKmdvRmLZrsyjWdj3HK7XnVX2OtHnx54SP1nGa9khWoeVUiFLE2zJbXbUU0oFu2]--></g></svg>