<?xml version="1.0" encoding="UTF-8" standalone="no"?><svg xmlns="http://www.w3.org/2000/svg" xmlns:xlink="http://www.w3.org/1999/xlink" contentStyleType="text/css" height="1730px" preserveAspectRatio="none" style="width:4154px;height:1730px;background:#FFFFFF;" version="1.1" viewBox="0 0 4154 1730" width="4154px" zoomAndPan="magnify"><defs/><g><text fill="#000000" font-family="sans-serif" font-size="14" font-weight="bold" lengthAdjust="spacing" textLength="244" x="1954" y="28.5352">Sequence Diagram (SD) - US 1001</text><rect fill="#FFFFFF" height="1497.7422" style="stroke:#181818;stroke-width:1.0;" width="10" x="35" y="136.043"/><rect fill="#FFFFFF" height="1413.6328" style="stroke:#181818;stroke-width:1.0;" width="10" x="333" y="211.1523"/><rect fill="#FFFFFF" height="638.4297" style="stroke:#181818;stroke-width:1.0;" width="10" x="680" y="460.5898"/><rect fill="#FFFFFF" height="112.6641" style="stroke:#181818;stroke-width:1.0;" width="10" x="1150" y="573.2539"/><rect fill="#FFFFFF" height="37.5547" style="stroke:#181818;stroke-width:1.0;" width="10" x="1644" y="610.8086"/><rect fill="#FFFFFF" height="75.1094" style="stroke:#181818;stroke-width:1.0;" width="10" x="1838" y="723.4727"/><rect fill="#FFFFFF" height="37.5547" style="stroke:#181818;stroke-width:1.0;" width="10" x="2384.5" y="986.3555"/><rect fill="#FFFFFF" height="497.2109" style="stroke:#181818;stroke-width:1.0;" width="10" x="2690" y="1136.5742"/><rect fill="#FFFFFF" height="422.1016" style="stroke:#181818;stroke-width:1.0;" width="10" x="3056.5" y="1211.6836"/><rect fill="#FFFFFF" height="112.6641" style="stroke:#181818;stroke-width:1.0;" width="10" x="3515.5" y="1437.0117"/><rect fill="#FFFFFF" height="75.1094" style="stroke:#181818;stroke-width:1.0;" width="10" x="3708.5" y="836.1367"/><rect fill="#FFFFFF" height="75.1094" style="stroke:#181818;stroke-width:1.0;" width="10" x="3708.5" y="1249.2383"/><rect fill="#FFFFFF" height="37.5547" style="stroke:#181818;stroke-width:1.0;" width="10" x="4089.5" y="1474.5664"/><line style="stroke:#181818;stroke-width:0.5;stroke-dasharray:5.0,5.0;" x1="40" x2="40" y1="126.043" y2="1642.7852"/><line style="stroke:#181818;stroke-width:0.5;stroke-dasharray:5.0,5.0;" x1="337.5" x2="337.5" y1="126.043" y2="1642.7852"/><line style="stroke:#181818;stroke-width:0.5;stroke-dasharray:5.0,5.0;" x1="685" x2="685" y1="126.043" y2="1642.7852"/><line style="stroke:#181818;stroke-width:0.5;stroke-dasharray:5.0,5.0;" x1="1154.5" x2="1154.5" y1="126.043" y2="1642.7852"/><line style="stroke:#181818;stroke-width:0.5;stroke-dasharray:5.0,5.0;" x1="1649" x2="1649" y1="126.043" y2="1642.7852"/><line style="stroke:#181818;stroke-width:0.5;stroke-dasharray:5.0,5.0;" x1="1843" x2="1843" y1="126.043" y2="1642.7852"/><line style="stroke:#181818;stroke-width:0.5;stroke-dasharray:5.0,5.0;" x1="2033" x2="2033" y1="126.043" y2="1642.7852"/><line style="stroke:#181818;stroke-width:0.5;stroke-dasharray:5.0,5.0;" x1="2184" x2="2184" y1="126.043" y2="1642.7852"/><line style="stroke:#181818;stroke-width:0.5;stroke-dasharray:5.0,5.0;" x1="2389" x2="2389" y1="126.043" y2="1642.7852"/><line style="stroke:#181818;stroke-width:0.5;stroke-dasharray:5.0,5.0;" x1="2695" x2="2695" y1="126.043" y2="1642.7852"/><line style="stroke:#181818;stroke-width:0.5;stroke-dasharray:5.0,5.0;" x1="3061" x2="3061" y1="126.043" y2="1642.7852"/><line style="stroke:#181818;stroke-width:0.5;stroke-dasharray:5.0,5.0;" x1="3520" x2="3520" y1="126.043" y2="1642.7852"/><line style="stroke:#181818;stroke-width:0.5;stroke-dasharray:5.0,5.0;" x1="3713" x2="3713" y1="126.043" y2="1642.7852"/><line style="stroke:#181818;stroke-width:0.5;stroke-dasharray:5.0,5.0;" x1="3923" x2="3923" y1="126.043" y2="1642.7852"/><line style="stroke:#181818;stroke-width:0.5;stroke-dasharray:5.0,5.0;" x1="4094" x2="4094" y1="126.043" y2="1642.7852"/><text fill="#000000" font-family="sans-serif" font-size="20" lengthAdjust="spacing" textLength="64" x="5" y="121.8242">Admin</text><ellipse cx="40" cy="50.9883" fill="#E3E3E3" rx="8" ry="8" style="stroke:#181818;stroke-width:0.5;"/><path d="M40,58.9883 L40,85.9883 M27,66.9883 L53,66.9883 M40,85.9883 L27,100.9883 M40,85.9883 L53,100.9883 " fill="none" style="stroke:#181818;stroke-width:0.5;"/><text fill="#000000" font-family="sans-serif" font-size="20" lengthAdjust="spacing" textLength="64" x="5" y="1661.1211">Admin</text><ellipse cx="40" cy="1673.8398" fill="#E3E3E3" rx="8" ry="8" style="stroke:#181818;stroke-width:0.5;"/><path d="M40,1681.8398 L40,1708.8398 M27,1689.8398 L53,1689.8398 M40,1708.8398 L27,1723.8398 M40,1708.8398 L53,1723.8398 " fill="none" style="stroke:#181818;stroke-width:0.5;"/><rect fill="#E3E3E3" height="37.5547" rx="2.5" ry="2.5" style="stroke:#181818;stroke-width:0.5;" width="205" x="235.5" y="87.4883"/><text fill="#000000" font-family="sans-serif" font-size="20" lengthAdjust="spacing" textLength="191" x="242.5" y="113.8242">RegisterCustomerUI</text><rect fill="#E3E3E3" height="37.5547" rx="2.5" ry="2.5" style="stroke:#181818;stroke-width:0.5;" width="205" x="235.5" y="1641.7852"/><text fill="#000000" font-family="sans-serif" font-size="20" lengthAdjust="spacing" textLength="191" x="242.5" y="1668.1211">RegisterCustomerUI</text><rect fill="#E3E3E3" height="37.5547" rx="2.5" ry="2.5" style="stroke:#181818;stroke-width:0.5;" width="338" x="516" y="87.4883"/><text fill="#000000" font-family="sans-serif" font-size="20" lengthAdjust="spacing" textLength="324" x="523" y="113.8242">:RegisterCustomerControllerEvent</text><rect fill="#E3E3E3" height="37.5547" rx="2.5" ry="2.5" style="stroke:#181818;stroke-width:0.5;" width="338" x="516" y="1641.7852"/><text fill="#000000" font-family="sans-serif" font-size="20" lengthAdjust="spacing" textLength="324" x="523" y="1668.1211">:RegisterCustomerControllerEvent</text><rect fill="#E3E3E3" height="37.5547" rx="2.5" ry="2.5" style="stroke:#181818;stroke-width:0.5;" width="131" x="1089.5" y="87.4883"/><text fill="#000000" font-family="sans-serif" font-size="20" lengthAdjust="spacing" textLength="117" x="1096.5" y="113.8242">:UserBuilder</text><rect fill="#E3E3E3" height="37.5547" rx="2.5" ry="2.5" style="stroke:#181818;stroke-width:0.5;" width="131" x="1089.5" y="1641.7852"/><text fill="#000000" font-family="sans-serif" font-size="20" lengthAdjust="spacing" textLength="117" x="1096.5" y="1668.1211">:UserBuilder</text><rect fill="#E3E3E3" height="37.5547" rx="2.5" ry="2.5" style="stroke:#181818;stroke-width:0.5;" width="172" x="1563" y="87.4883"/><text fill="#000000" font-family="sans-serif" font-size="20" lengthAdjust="spacing" textLength="158" x="1570" y="113.8242">user:SystemUser</text><rect fill="#E3E3E3" height="37.5547" rx="2.5" ry="2.5" style="stroke:#181818;stroke-width:0.5;" width="172" x="1563" y="1641.7852"/><text fill="#000000" font-family="sans-serif" font-size="20" lengthAdjust="spacing" textLength="158" x="1570" y="1668.1211">user:SystemUser</text><rect fill="#E3E3E3" height="37.5547" rx="2.5" ry="2.5" style="stroke:#181818;stroke-width:0.5;" width="196" x="1745" y="87.4883"/><text fill="#000000" font-family="sans-serif" font-size="20" lengthAdjust="spacing" textLength="182" x="1752" y="113.8242">PersistenceContext</text><rect fill="#E3E3E3" height="37.5547" rx="2.5" ry="2.5" style="stroke:#181818;stroke-width:0.5;" width="196" x="1745" y="1641.7852"/><text fill="#000000" font-family="sans-serif" font-size="20" lengthAdjust="spacing" textLength="182" x="1752" y="1668.1211">PersistenceContext</text><rect fill="#E3E3E3" height="37.5547" rx="2.5" ry="2.5" style="stroke:#181818;stroke-width:0.5;" width="165" x="1951" y="87.4883"/><text fill="#000000" font-family="sans-serif" font-size="20" lengthAdjust="spacing" textLength="151" x="1958" y="113.8242">:UserRepository</text><rect fill="#E3E3E3" height="37.5547" rx="2.5" ry="2.5" style="stroke:#181818;stroke-width:0.5;" width="165" x="1951" y="1641.7852"/><text fill="#000000" font-family="sans-serif" font-size="20" lengthAdjust="spacing" textLength="151" x="1958" y="1668.1211">:UserRepository</text><rect fill="#E3E3E3" height="37.5547" rx="2.5" ry="2.5" style="stroke:#181818;stroke-width:0.5;" width="117" x="2126" y="87.4883"/><text fill="#000000" font-family="sans-serif" font-size="20" lengthAdjust="spacing" textLength="103" x="2133" y="113.8242">Dispatcher</text><rect fill="#E3E3E3" height="37.5547" rx="2.5" ry="2.5" style="stroke:#181818;stroke-width:0.5;" width="117" x="2126" y="1641.7852"/><text fill="#000000" font-family="sans-serif" font-size="20" lengthAdjust="spacing" textLength="103" x="2133" y="1668.1211">Dispatcher</text><rect fill="#E3E3E3" height="37.5547" rx="2.5" ry="2.5" style="stroke:#181818;stroke-width:0.5;" width="273" x="2253" y="87.4883"/><text fill="#000000" font-family="sans-serif" font-size="20" lengthAdjust="spacing" textLength="259" x="2260" y="113.8242">NewUserForCustomerEvent</text><rect fill="#E3E3E3" height="37.5547" rx="2.5" ry="2.5" style="stroke:#181818;stroke-width:0.5;" width="273" x="2253" y="1641.7852"/><text fill="#000000" font-family="sans-serif" font-size="20" lengthAdjust="spacing" textLength="259" x="2260" y="1668.1211">NewUserForCustomerEvent</text><rect fill="#E3E3E3" height="37.5547" rx="2.5" ry="2.5" style="stroke:#181818;stroke-width:0.5;" width="318" x="2536" y="87.4883"/><text fill="#000000" font-family="sans-serif" font-size="20" lengthAdjust="spacing" textLength="304" x="2543" y="113.8242">NewUserForCustomerWatchDog</text><rect fill="#E3E3E3" height="37.5547" rx="2.5" ry="2.5" style="stroke:#181818;stroke-width:0.5;" width="318" x="2536" y="1641.7852"/><text fill="#000000" font-family="sans-serif" font-size="20" lengthAdjust="spacing" textLength="304" x="2543" y="1668.1211">NewUserForCustomerWatchDog</text><rect fill="#E3E3E3" height="37.5547" rx="2.5" ry="2.5" style="stroke:#181818;stroke-width:0.5;" width="395" x="2864" y="87.4883"/><text fill="#000000" font-family="sans-serif" font-size="20" lengthAdjust="spacing" textLength="381" x="2871" y="113.8242">AddCustomerOnUserCreationController</text><rect fill="#E3E3E3" height="37.5547" rx="2.5" ry="2.5" style="stroke:#181818;stroke-width:0.5;" width="395" x="2864" y="1641.7852"/><text fill="#000000" font-family="sans-serif" font-size="20" lengthAdjust="spacing" textLength="381" x="2871" y="1668.1211">AddCustomerOnUserCreationController</text><rect fill="#E3E3E3" height="37.5547" rx="2.5" ry="2.5" style="stroke:#181818;stroke-width:0.5;" width="181" x="3430" y="87.4883"/><text fill="#000000" font-family="sans-serif" font-size="20" lengthAdjust="spacing" textLength="167" x="3437" y="113.8242">:CustomerBuilder</text><rect fill="#E3E3E3" height="37.5547" rx="2.5" ry="2.5" style="stroke:#181818;stroke-width:0.5;" width="181" x="3430" y="1641.7852"/><text fill="#000000" font-family="sans-serif" font-size="20" lengthAdjust="spacing" textLength="167" x="3437" y="1668.1211">:CustomerBuilder</text><rect fill="#E3E3E3" height="37.5547" rx="2.5" ry="2.5" style="stroke:#181818;stroke-width:0.5;" width="185" x="3621" y="87.4883"/><text fill="#000000" font-family="sans-serif" font-size="20" lengthAdjust="spacing" textLength="171" x="3628" y="113.8242">RepositoryFactory</text><rect fill="#E3E3E3" height="37.5547" rx="2.5" ry="2.5" style="stroke:#181818;stroke-width:0.5;" width="185" x="3621" y="1641.7852"/><text fill="#000000" font-family="sans-serif" font-size="20" lengthAdjust="spacing" textLength="171" x="3628" y="1668.1211">RepositoryFactory</text><rect fill="#E3E3E3" height="37.5547" rx="2.5" ry="2.5" style="stroke:#181818;stroke-width:0.5;" width="215" x="3816" y="87.4883"/><text fill="#000000" font-family="sans-serif" font-size="20" lengthAdjust="spacing" textLength="201" x="3823" y="113.8242">:CustomerRepository</text><rect fill="#E3E3E3" height="37.5547" rx="2.5" ry="2.5" style="stroke:#181818;stroke-width:0.5;" width="215" x="3816" y="1641.7852"/><text fill="#000000" font-family="sans-serif" font-size="20" lengthAdjust="spacing" textLength="201" x="3823" y="1668.1211">:CustomerRepository</text><rect fill="#E3E3E3" height="37.5547" rx="2.5" ry="2.5" style="stroke:#181818;stroke-width:0.5;" width="107" x="4041" y="87.4883"/><text fill="#000000" font-family="sans-serif" font-size="20" lengthAdjust="spacing" textLength="93" x="4048" y="113.8242">Customer</text><rect fill="#E3E3E3" height="37.5547" rx="2.5" ry="2.5" style="stroke:#181818;stroke-width:0.5;" width="107" x="4041" y="1641.7852"/><text fill="#000000" font-family="sans-serif" font-size="20" lengthAdjust="spacing" textLength="93" x="4048" y="1668.1211">Customer</text><rect fill="#FFFFFF" height="1497.7422" style="stroke:#181818;stroke-width:1.0;" width="10" x="35" y="136.043"/><rect fill="#FFFFFF" height="1413.6328" style="stroke:#181818;stroke-width:1.0;" width="10" x="333" y="211.1523"/><rect fill="#FFFFFF" height="638.4297" style="stroke:#181818;stroke-width:1.0;" width="10" x="680" y="460.5898"/><rect fill="#FFFFFF" height="112.6641" style="stroke:#181818;stroke-width:1.0;" width="10" x="1150" y="573.2539"/><rect fill="#FFFFFF" height="37.5547" style="stroke:#181818;stroke-width:1.0;" width="10" x="1644" y="610.8086"/><rect fill="#FFFFFF" height="75.1094" style="stroke:#181818;stroke-width:1.0;" width="10" x="1838" y="723.4727"/><rect fill="#FFFFFF" height="37.5547" style="stroke:#181818;stroke-width:1.0;" width="10" x="2384.5" y="986.3555"/><rect fill="#FFFFFF" height="497.2109" style="stroke:#181818;stroke-width:1.0;" width="10" x="2690" y="1136.5742"/><rect fill="#FFFFFF" height="422.1016" style="stroke:#181818;stroke-width:1.0;" width="10" x="3056.5" y="1211.6836"/><rect fill="#FFFFFF" height="112.6641" style="stroke:#181818;stroke-width:1.0;" width="10" x="3515.5" y="1437.0117"/><rect fill="#FFFFFF" height="75.1094" style="stroke:#181818;stroke-width:1.0;" width="10" x="3708.5" y="836.1367"/><rect fill="#FFFFFF" height="75.1094" style="stroke:#181818;stroke-width:1.0;" width="10" x="3708.5" y="1249.2383"/><rect fill="#FFFFFF" height="37.5547" style="stroke:#181818;stroke-width:1.0;" width="10" x="4089.5" y="1474.5664"/><polygon fill="#181818" points="326,161.5977,336,165.5977,326,169.5977,330,165.5977" style="stroke:#181818;stroke-width:1.0;"/><line style="stroke:#181818;stroke-width:1.0;" x1="45" x2="332" y1="165.5977" y2="165.5977"/><text fill="#000000" font-family="sans-serif" font-size="20" lengthAdjust="spacing" textLength="63" x="52" y="159.3789">show()</text><line style="stroke:#181818;stroke-width:1.0;" x1="338" x2="385" y1="198.1523" y2="198.1523"/><line style="stroke:#181818;stroke-width:1.0;" x1="385" x2="385" y1="198.1523" y2="211.1523"/><line style="stroke:#181818;stroke-width:1.0;" x1="344" x2="385" y1="211.1523" y2="211.1523"/><polygon fill="#181818" points="354,207.1523,344,211.1523,354,215.1523,350,211.1523" style="stroke:#181818;stroke-width:1.0;"/><text fill="#000000" font-family="sans-serif" font-size="20" lengthAdjust="spacing" textLength="89" x="350" y="191.9336">doShow()</text><polygon fill="#181818" points="673,249.707,683,253.707,673,257.707,677,253.707" style="stroke:#181818;stroke-width:1.0;"/><line style="stroke:#181818;stroke-width:1.0;" x1="343" x2="679" y1="253.707" y2="253.707"/><text fill="#000000" font-family="sans-serif" font-size="20" lengthAdjust="spacing" textLength="72" x="350" y="247.4883">create()</text><polygon fill="#181818" points="56,287.2617,46,291.2617,56,295.2617,52,291.2617" style="stroke:#181818;stroke-width:1.0;"/><line style="stroke:#181818;stroke-width:1.0;stroke-dasharray:2.0,2.0;" x1="50" x2="332" y1="291.2617" y2="291.2617"/><text fill="#000000" font-family="sans-serif" font-size="20" lengthAdjust="spacing" textLength="201" x="62" y="285.043">Ask user information</text><polygon fill="#181818" points="321,371.9258,331,375.9258,321,379.9258,325,375.9258" style="stroke:#181818;stroke-width:1.0;"/><line style="stroke:#181818;stroke-width:1.0;stroke-dasharray:2.0,2.0;" x1="45" x2="327" y1="375.9258" y2="375.9258"/><text fill="#000000" font-family="sans-serif" font-size="20" lengthAdjust="spacing" textLength="258" x="52" y="322.5977">Password, Company name,</text><text fill="#000000" font-family="sans-serif" font-size="20" lengthAdjust="spacing" textLength="258" x="52" y="346.1523">, E-mail, Street, City, State,</text><text fill="#000000" font-family="sans-serif" font-size="20" lengthAdjust="spacing" textLength="149" x="58" y="369.707">Customer Code</text><polygon fill="#181818" points="668,456.5898,678,460.5898,668,464.5898,672,460.5898" style="stroke:#181818;stroke-width:1.0;"/><line style="stroke:#181818;stroke-width:1.0;" x1="343" x2="674" y1="460.5898" y2="460.5898"/><text fill="#000000" font-family="sans-serif" font-size="20" lengthAdjust="spacing" textLength="318" x="350" y="407.2617">registerCustomer(customerCode,</text><text fill="#000000" font-family="sans-serif" font-size="20" lengthAdjust="spacing" textLength="280" x="356" y="430.8164">companyName, email, street,</text><text fill="#000000" font-family="sans-serif" font-size="20" lengthAdjust="spacing" textLength="267" x="356" y="454.3711">city, state, email, password)</text><polygon fill="#181818" points="1143,494.1445,1153,498.1445,1143,502.1445,1147,498.1445" style="stroke:#181818;stroke-width:1.0;"/><line style="stroke:#181818;stroke-width:1.0;" x1="690" x2="1149" y1="498.1445" y2="498.1445"/><text fill="#000000" font-family="sans-serif" font-size="20" lengthAdjust="spacing" textLength="72" x="697" y="491.9258">create()</text><polygon fill="#181818" points="1143,531.6992,1153,535.6992,1143,539.6992,1147,535.6992" style="stroke:#181818;stroke-width:1.0;"/><line style="stroke:#181818;stroke-width:1.0;" x1="690" x2="1149" y1="535.6992" y2="535.6992"/><text fill="#000000" font-family="sans-serif" font-size="20" lengthAdjust="spacing" textLength="441" x="697" y="529.4805">with(username, password, name, email, roles)</text><polygon fill="#181818" points="1138,569.2539,1148,573.2539,1138,577.2539,1142,573.2539" style="stroke:#181818;stroke-width:1.0;"/><line style="stroke:#181818;stroke-width:1.0;" x1="690" x2="1144" y1="573.2539" y2="573.2539"/><text fill="#000000" font-family="sans-serif" font-size="20" lengthAdjust="spacing" textLength="64" x="697" y="567.0352">build()</text><polygon fill="#181818" points="1632,606.8086,1642,610.8086,1632,614.8086,1636,610.8086" style="stroke:#181818;stroke-width:1.0;"/><line style="stroke:#181818;stroke-width:1.0;" x1="1160" x2="1638" y1="610.8086" y2="610.8086"/><text fill="#000000" font-family="sans-serif" font-size="20" lengthAdjust="spacing" textLength="465" x="1167" y="604.5898">create (username, password, name, email, roles)</text><polygon fill="#181818" points="1171,644.3633,1161,648.3633,1171,652.3633,1167,648.3633" style="stroke:#181818;stroke-width:1.0;"/><line style="stroke:#181818;stroke-width:1.0;stroke-dasharray:2.0,2.0;" x1="1165" x2="1648" y1="648.3633" y2="648.3633"/><text fill="#000000" font-family="sans-serif" font-size="20" lengthAdjust="spacing" textLength="41" x="1177" y="642.1445">user</text><polygon fill="#181818" points="701,681.918,691,685.918,701,689.918,697,685.918" style="stroke:#181818;stroke-width:1.0;"/><line style="stroke:#181818;stroke-width:1.0;stroke-dasharray:2.0,2.0;" x1="695" x2="1154" y1="685.918" y2="685.918"/><text fill="#000000" font-family="sans-serif" font-size="20" lengthAdjust="spacing" textLength="41" x="707" y="679.6992">user</text><polygon fill="#181818" points="1826,719.4727,1836,723.4727,1826,727.4727,1830,723.4727" style="stroke:#181818;stroke-width:1.0;"/><line style="stroke:#181818;stroke-width:1.0;" x1="690" x2="1832" y1="723.4727" y2="723.4727"/><text fill="#000000" font-family="sans-serif" font-size="20" lengthAdjust="spacing" textLength="128" x="697" y="717.2539">repositories()</text><polygon fill="#181818" points="3701.5,757.0273,3711.5,761.0273,3701.5,765.0273,3705.5,761.0273" style="stroke:#181818;stroke-width:1.0;"/><line style="stroke:#181818;stroke-width:1.0;" x1="1848" x2="3707.5" y1="761.0273" y2="761.0273"/><text fill="#000000" font-family="sans-serif" font-size="20" lengthAdjust="spacing" textLength="58" x="1855" y="754.8086">create</text><polygon fill="#181818" points="701,794.582,691,798.582,701,802.582,697,798.582" style="stroke:#181818;stroke-width:1.0;"/><line style="stroke:#181818;stroke-width:1.0;stroke-dasharray:2.0,2.0;" x1="695" x2="1842" y1="798.582" y2="798.582"/><text fill="#000000" font-family="sans-serif" font-size="20" lengthAdjust="spacing" textLength="65" x="707" y="792.3633">factory</text><polygon fill="#181818" points="3696.5,832.1367,3706.5,836.1367,3696.5,840.1367,3700.5,836.1367" style="stroke:#181818;stroke-width:1.0;"/><line style="stroke:#181818;stroke-width:1.0;" x1="690" x2="3702.5" y1="836.1367" y2="836.1367"/><text fill="#000000" font-family="sans-serif" font-size="20" lengthAdjust="spacing" textLength="65" x="697" y="829.918">users()</text><polygon fill="#181818" points="2044.5,869.6914,2034.5,873.6914,2044.5,877.6914,2040.5,873.6914" style="stroke:#181818;stroke-width:1.0;"/><line style="stroke:#181818;stroke-width:1.0;" x1="2038.5" x2="3707.5" y1="873.6914" y2="873.6914"/><text fill="#000000" font-family="sans-serif" font-size="20" lengthAdjust="spacing" textLength="58" x="2050.5" y="867.4727">create</text><polygon fill="#181818" points="701,907.2461,691,911.2461,701,915.2461,697,911.2461" style="stroke:#181818;stroke-width:1.0;"/><line style="stroke:#181818;stroke-width:1.0;stroke-dasharray:2.0,2.0;" x1="695" x2="3712.5" y1="911.2461" y2="911.2461"/><text fill="#000000" font-family="sans-serif" font-size="20" lengthAdjust="spacing" textLength="61" x="707" y="905.0273">UsRep</text><polygon fill="#181818" points="2021.5,944.8008,2031.5,948.8008,2021.5,952.8008,2025.5,948.8008" style="stroke:#181818;stroke-width:1.0;"/><line style="stroke:#181818;stroke-width:1.0;" x1="690" x2="2027.5" y1="948.8008" y2="948.8008"/><text fill="#000000" font-family="sans-serif" font-size="20" lengthAdjust="spacing" textLength="97" x="697" y="942.582">save(user)</text><polygon fill="#181818" points="2372.5,982.3555,2382.5,986.3555,2372.5,990.3555,2376.5,986.3555" style="stroke:#181818;stroke-width:1.0;"/><line style="stroke:#181818;stroke-width:1.0;" x1="690" x2="2378.5" y1="986.3555" y2="986.3555"/><text fill="#000000" font-family="sans-serif" font-size="20" lengthAdjust="spacing" textLength="433" x="697" y="980.1367">create(customerCode, user, street, city, state)</text><polygon fill="#181818" points="701,1019.9102,691,1023.9102,701,1027.9102,697,1023.9102" style="stroke:#181818;stroke-width:1.0;"/><line style="stroke:#181818;stroke-width:1.0;stroke-dasharray:2.0,2.0;" x1="695" x2="2388.5" y1="1023.9102" y2="1023.9102"/><text fill="#000000" font-family="sans-serif" font-size="20" lengthAdjust="spacing" textLength="51" x="707" y="1017.6914">event</text><polygon fill="#181818" points="2172.5,1057.4648,2182.5,1061.4648,2172.5,1065.4648,2176.5,1061.4648" style="stroke:#181818;stroke-width:1.0;"/><line style="stroke:#181818;stroke-width:1.0;" x1="690" x2="2178.5" y1="1061.4648" y2="1061.4648"/><text fill="#000000" font-family="sans-serif" font-size="20" lengthAdjust="spacing" textLength="137" x="697" y="1055.2461">publish(event)</text><polygon fill="#181818" points="354,1095.0195,344,1099.0195,354,1103.0195,350,1099.0195" style="stroke:#181818;stroke-width:1.0;"/><line style="stroke:#181818;stroke-width:1.0;stroke-dasharray:2.0,2.0;" x1="348" x2="684" y1="1099.0195" y2="1099.0195"/><text fill="#000000" font-family="sans-serif" font-size="20" lengthAdjust="spacing" textLength="41" x="360" y="1092.8008">user</text><polygon fill="#181818" points="2678,1132.5742,2688,1136.5742,2678,1140.5742,2682,1136.5742" style="stroke:#181818;stroke-width:1.0;"/><line style="stroke:#181818;stroke-width:1.0;" x1="2184.5" x2="2684" y1="1136.5742" y2="1136.5742"/><text fill="#000000" font-family="sans-serif" font-size="20" lengthAdjust="spacing" textLength="130" x="2191.5" y="1130.3555">handle(event)</text><polygon fill="#181818" points="3049.5,1170.1289,3059.5,1174.1289,3049.5,1178.1289,3053.5,1174.1289" style="stroke:#181818;stroke-width:1.0;"/><line style="stroke:#181818;stroke-width:1.0;" x1="2700" x2="3055.5" y1="1174.1289" y2="1174.1289"/><text fill="#000000" font-family="sans-serif" font-size="20" lengthAdjust="spacing" textLength="58" x="2707" y="1167.9102">create</text><polygon fill="#181818" points="3044.5,1207.6836,3054.5,1211.6836,3044.5,1215.6836,3048.5,1211.6836" style="stroke:#181818;stroke-width:1.0;"/><line style="stroke:#181818;stroke-width:1.0;" x1="2700" x2="3050.5" y1="1211.6836" y2="1211.6836"/><text fill="#000000" font-family="sans-serif" font-size="20" lengthAdjust="spacing" textLength="195" x="2707" y="1205.4648">addCustomer(event)</text><polygon fill="#181818" points="3696.5,1245.2383,3706.5,1249.2383,3696.5,1253.2383,3700.5,1249.2383" style="stroke:#181818;stroke-width:1.0;"/><line style="stroke:#181818;stroke-width:1.0;" x1="3066.5" x2="3702.5" y1="1249.2383" y2="1249.2383"/><text fill="#000000" font-family="sans-serif" font-size="20" lengthAdjust="spacing" textLength="113" x="3073.5" y="1243.0195">customers()</text><polygon fill="#181818" points="3911.5,1282.793,3921.5,1286.793,3911.5,1290.793,3915.5,1286.793" style="stroke:#181818;stroke-width:1.0;"/><line style="stroke:#181818;stroke-width:1.0;" x1="3718.5" x2="3917.5" y1="1286.793" y2="1286.793"/><text fill="#000000" font-family="sans-serif" font-size="20" lengthAdjust="spacing" textLength="58" x="3725.5" y="1280.5742">create</text><polygon fill="#181818" points="3077.5,1320.3477,3067.5,1324.3477,3077.5,1328.3477,3073.5,1324.3477" style="stroke:#181818;stroke-width:1.0;"/><line style="stroke:#181818;stroke-width:1.0;stroke-dasharray:2.0,2.0;" x1="3071.5" x2="3712.5" y1="1324.3477" y2="1324.3477"/><text fill="#000000" font-family="sans-serif" font-size="20" lengthAdjust="spacing" textLength="138" x="3083.5" y="1318.1289">customerRepo</text><polygon fill="#181818" points="3508.5,1357.9023,3518.5,1361.9023,3508.5,1365.9023,3512.5,1361.9023" style="stroke:#181818;stroke-width:1.0;"/><line style="stroke:#181818;stroke-width:1.0;" x1="3066.5" x2="3514.5" y1="1361.9023" y2="1361.9023"/><text fill="#000000" font-family="sans-serif" font-size="20" lengthAdjust="spacing" textLength="72" x="3073.5" y="1355.6836">create()</text><polygon fill="#181818" points="3508.5,1395.457,3518.5,1399.457,3508.5,1403.457,3512.5,1399.457" style="stroke:#181818;stroke-width:1.0;"/><line style="stroke:#181818;stroke-width:1.0;" x1="3066.5" x2="3514.5" y1="1399.457" y2="1399.457"/><text fill="#000000" font-family="sans-serif" font-size="20" lengthAdjust="spacing" textLength="430" x="3073.5" y="1393.2383">with(user, address, customerCode, manager)</text><polygon fill="#181818" points="3503.5,1433.0117,3513.5,1437.0117,3503.5,1441.0117,3507.5,1437.0117" style="stroke:#181818;stroke-width:1.0;"/><line style="stroke:#181818;stroke-width:1.0;" x1="3066.5" x2="3509.5" y1="1437.0117" y2="1437.0117"/><text fill="#000000" font-family="sans-serif" font-size="20" lengthAdjust="spacing" textLength="64" x="3073.5" y="1430.793">build()</text><polygon fill="#181818" points="4077.5,1470.5664,4087.5,1474.5664,4077.5,1478.5664,4081.5,1474.5664" style="stroke:#181818;stroke-width:1.0;"/><line style="stroke:#181818;stroke-width:1.0;" x1="3525.5" x2="4083.5" y1="1474.5664" y2="1474.5664"/><text fill="#000000" font-family="sans-serif" font-size="20" lengthAdjust="spacing" textLength="454" x="3532.5" y="1468.3477">create (user, address, customerCode, manager)</text><polygon fill="#181818" points="3536.5,1508.1211,3526.5,1512.1211,3536.5,1516.1211,3532.5,1512.1211" style="stroke:#181818;stroke-width:1.0;"/><line style="stroke:#181818;stroke-width:1.0;stroke-dasharray:2.0,2.0;" x1="3530.5" x2="4093.5" y1="1512.1211" y2="1512.1211"/><text fill="#000000" font-family="sans-serif" font-size="20" lengthAdjust="spacing" textLength="89" x="3542.5" y="1505.9023">customer</text><polygon fill="#181818" points="3077.5,1545.6758,3067.5,1549.6758,3077.5,1553.6758,3073.5,1549.6758" style="stroke:#181818;stroke-width:1.0;"/><line style="stroke:#181818;stroke-width:1.0;stroke-dasharray:2.0,2.0;" x1="3071.5" x2="3519.5" y1="1549.6758" y2="1549.6758"/><text fill="#000000" font-family="sans-serif" font-size="20" lengthAdjust="spacing" textLength="89" x="3083.5" y="1543.457">customer</text><polygon fill="#181818" points="3911.5,1583.2305,3921.5,1587.2305,3911.5,1591.2305,3915.5,1587.2305" style="stroke:#181818;stroke-width:1.0;"/><line style="stroke:#181818;stroke-width:1.0;" x1="3066.5" x2="3917.5" y1="1587.2305" y2="1587.2305"/><text fill="#000000" font-family="sans-serif" font-size="20" lengthAdjust="spacing" textLength="145" x="3073.5" y="1581.0117">save(customer)</text><polygon fill="#181818" points="56,1620.7852,46,1624.7852,56,1628.7852,52,1624.7852" style="stroke:#181818;stroke-width:1.0;"/><line style="stroke:#181818;stroke-width:1.0;stroke-dasharray:2.0,2.0;" x1="50" x2="337" y1="1624.7852" y2="1624.7852"/><text fill="#000000" font-family="sans-serif" font-size="20" lengthAdjust="spacing" textLength="161" x="62" y="1618.5664">display User Info</text><!--SRC=[ZLOzRzim4DtvAuXC3c03ISSC1L8x0RoaGGIZInTMEik49L8bwRZkh- -H52bIafDc22JotRrtdx8-Sj4nnTf6baUeQ0LxTchCinIcu7-1VhaZEa1eAuKi3qgsG8qwGNBJiVB8QYZCfG6ge3HCr4qAq0TMoJCNDTspHWCXXXk45l3x1A84kk6ijhX5iRcbAxehwFtTtJqXX9L6AdhpMBLSt52cwKw38kZKy99tJ1XwymOrrmRK-gGDQbExhGTkSzZ36BV689Li6b1Fxo2CCnhEHiQMzjk9DnKe1-oVSzG9GG_51KbQYtT0VDrf32G3leBILWk6RXdXZsUV7i-eU8DEQevPkVJvm8CSjk6wOwOyz0g6rnps0cVhxrd6Z0nvS4-VmNzOhnjPUnPPv_Z7gWh0xy9QhXKmmwKOSkofhkOycATvNyycViZ9isiOdvf9OgB7KGxn-0qayUt6tva1tsR4_gUhhzXBz05xM9uNjtYuZKULBFpXOBSDW24i19OsTWZMrboxyqTzfBPhA1TxgLgNdq0RI5wPrcUfgYMwR36G2nMiXINzAPRqQTKotYnfOHI0GGGt5_k6P1P0Gy1eMi6iCZMQYaKPnwE29ReeFUcBumHFfpsTlNM4sXFsjrqlE4bBKcFyImIWdBwYMPQk8SxS71OsOJu5NKoDIEMX9UZR3uX-sQUqRA6hIC0Wt4rkL4N_cpOwxKVV-rbb0gmlKi4O6jd7LHhZezuymka2SHNkcvs3JcEUsJPanW6wnN69UPZ7ZFNk_HYcakVeSlMUneQQwRHZJEoT6vjSYpiUa_kLc50x3pbNSAJPExZAJfhEhS2XAREnS2BZ6AH3aEZsEvHuFnEHu6uJaJqy5p7iRZJfJhyQhWyBPphI6vR5k57ImKkSMTUoHlo1YQg1u3AQsMrEBC8cOcQJNRbamywVk4ptF7cQgtn8yTNg-pqzK_wHn6JBJzfWnBoUspxNCN7_B6si2hHUqhmpMYRmbv3wqCja_Qo7UKuMK5pU-Gxwd7hmsz-Zt-1hDGew8DAU6QpIXJIVvCmmXZ49FbJEpLkmdNmEA-pGXbtywnO_YQbt-sab_m00]--></g></svg>