<?xml version="1.0" encoding="us-ascii" standalone="no"?><svg xmlns="http://www.w3.org/2000/svg" xmlns:xlink="http://www.w3.org/1999/xlink" contentStyleType="text/css" height="651px" preserveAspectRatio="none" style="width:1535px;height:651px;background:#FFFFFF;" version="1.1" viewBox="0 0 1535 651" width="1535px" zoomAndPan="magnify"><defs/><g><text fill="#000000" font-family="sans-serif" font-size="14" font-weight="bold" lengthAdjust="spacing" textLength="233" x="650" y="30.1074">Sequence Diagram (SD) - US 3002</text><rect fill="#FFFFFF" height="445.0742" style="stroke:#181818;stroke-width:1.0;" width="10" x="155" y="150.8242"/><rect fill="#FFFFFF" height="314.9102" style="stroke:#181818;stroke-width:1.0;" width="10" x="538" y="187.1152"/><rect fill="#FFFFFF" height="31.291" style="stroke:#181818;stroke-width:1.0;" width="10" x="744.5" y="218.4063"/><rect fill="#FFFFFF" height="189.7461" style="stroke:#181818;stroke-width:1.0;" width="10" x="978" y="280.9883"/><rect fill="#FFFFFF" height="31.291" style="stroke:#181818;stroke-width:1.0;" width="10" x="1120.5" y="401.1523"/><rect fill="#FFFFFF" height="31.291" style="stroke:#181818;stroke-width:1.0;" width="10" x="1365" y="312.2793"/><rect fill="#FFFFFF" height="31.291" style="stroke:#181818;stroke-width:1.0;" width="10" x="1490" y="533.3164"/><rect fill="none" height="81.873" style="stroke:#000000;stroke-width:1.5;" width="295" x="902.5" y="358.5703"/><line style="stroke:#181818;stroke-width:0.5;stroke-dasharray:5.0,5.0;" x1="60" x2="60" y1="78.2422" y2="613.8984"/><line style="stroke:#181818;stroke-width:0.5;stroke-dasharray:5.0,5.0;" x1="159.5" x2="159.5" y1="78.2422" y2="613.8984"/><line style="stroke:#181818;stroke-width:0.5;stroke-dasharray:5.0,5.0;" x1="543" x2="543" y1="78.2422" y2="613.8984"/><line style="stroke:#181818;stroke-width:0.5;stroke-dasharray:5.0,5.0;" x1="749" x2="749" y1="78.2422" y2="613.8984"/><line style="stroke:#181818;stroke-width:0.5;stroke-dasharray:5.0,5.0;" x1="982.5" x2="982.5" y1="78.2422" y2="613.8984"/><line style="stroke:#181818;stroke-width:0.5;stroke-dasharray:5.0,5.0;" x1="1125.5" x2="1125.5" y1="78.2422" y2="613.8984"/><line style="stroke:#181818;stroke-width:0.5;stroke-dasharray:5.0,5.0;" x1="1370" x2="1370" y1="78.2422" y2="613.8984"/><line style="stroke:#181818;stroke-width:0.5;stroke-dasharray:5.0,5.0;" x1="1495" x2="1495" y1="78.2422" y2="613.8984"/><rect fill="#E3E3E3" height="32.6211" rx="2.5" ry="2.5" style="stroke:#181818;stroke-width:0.5;" width="111" x="5" y="44.6211"/><text fill="#000000" font-family="sans-serif" font-size="14" lengthAdjust="spacing" textLength="97" x="12" y="66.7285">TcpCustomerUI</text><rect fill="#E3E3E3" height="32.6211" rx="2.5" ry="2.5" style="stroke:#181818;stroke-width:0.5;" width="111" x="5" y="612.8984"/><text fill="#000000" font-family="sans-serif" font-size="14" lengthAdjust="spacing" textLength="97" x="12" y="635.0059">TcpCustomerUI</text><rect fill="#E3E3E3" height="32.6211" rx="2.5" ry="2.5" style="stroke:#181818;stroke-width:0.5;" width="59" x="130.5" y="44.6211"/><text fill="#000000" font-family="sans-serif" font-size="14" lengthAdjust="spacing" textLength="45" x="137.5" y="66.7285">TcpSrv</text><rect fill="#E3E3E3" height="32.6211" rx="2.5" ry="2.5" style="stroke:#181818;stroke-width:0.5;" width="59" x="130.5" y="612.8984"/><text fill="#000000" font-family="sans-serif" font-size="14" lengthAdjust="spacing" textLength="45" x="137.5" y="635.0059">TcpSrv</text><rect fill="#E3E3E3" height="32.6211" rx="2.5" ry="2.5" style="stroke:#181818;stroke-width:0.5;" width="246" x="420" y="44.6211"/><text fill="#000000" font-family="sans-serif" font-size="14" lengthAdjust="spacing" textLength="232" x="427" y="66.7285">:ListCustomerJobOpeningsController</text><rect fill="#E3E3E3" height="32.6211" rx="2.5" ry="2.5" style="stroke:#181818;stroke-width:0.5;" width="246" x="420" y="612.8984"/><text fill="#000000" font-family="sans-serif" font-size="14" lengthAdjust="spacing" textLength="232" x="427" y="635.0059">:ListCustomerJobOpeningsController</text><rect fill="#E3E3E3" height="32.6211" rx="2.5" ry="2.5" style="stroke:#181818;stroke-width:0.5;" width="147" x="676" y="44.6211"/><text fill="#000000" font-family="sans-serif" font-size="14" lengthAdjust="spacing" textLength="133" x="683" y="66.7285">:CustomerRepository</text><rect fill="#E3E3E3" height="32.6211" rx="2.5" ry="2.5" style="stroke:#181818;stroke-width:0.5;" width="147" x="676" y="612.8984"/><text fill="#000000" font-family="sans-serif" font-size="14" lengthAdjust="spacing" textLength="133" x="683" y="635.0059">:CustomerRepository</text><rect fill="#E3E3E3" height="32.6211" rx="2.5" ry="2.5" style="stroke:#181818;stroke-width:0.5;" width="141" x="912.5" y="44.6211"/><text fill="#000000" font-family="sans-serif" font-size="14" lengthAdjust="spacing" textLength="127" x="919.5" y="66.7285">:JobOpeningService</text><rect fill="#E3E3E3" height="32.6211" rx="2.5" ry="2.5" style="stroke:#181818;stroke-width:0.5;" width="141" x="912.5" y="612.8984"/><text fill="#000000" font-family="sans-serif" font-size="14" lengthAdjust="spacing" textLength="127" x="919.5" y="635.0059">:JobOpeningService</text><rect fill="#E3E3E3" height="32.6211" rx="2.5" ry="2.5" style="stroke:#181818;stroke-width:0.5;" width="124" x="1063.5" y="44.6211"/><text fill="#000000" font-family="sans-serif" font-size="14" lengthAdjust="spacing" textLength="110" x="1070.5" y="66.7285">:JobOpeningDTO</text><rect fill="#E3E3E3" height="32.6211" rx="2.5" ry="2.5" style="stroke:#181818;stroke-width:0.5;" width="124" x="1063.5" y="612.8984"/><text fill="#000000" font-family="sans-serif" font-size="14" lengthAdjust="spacing" textLength="110" x="1070.5" y="635.0059">:JobOpeningDTO</text><rect fill="#E3E3E3" height="32.6211" rx="2.5" ry="2.5" style="stroke:#181818;stroke-width:0.5;" width="162" x="1289" y="44.6211"/><text fill="#000000" font-family="sans-serif" font-size="14" lengthAdjust="spacing" textLength="148" x="1296" y="66.7285">:JobOpeningRepository</text><rect fill="#E3E3E3" height="32.6211" rx="2.5" ry="2.5" style="stroke:#181818;stroke-width:0.5;" width="162" x="1289" y="612.8984"/><text fill="#000000" font-family="sans-serif" font-size="14" lengthAdjust="spacing" textLength="148" x="1296" y="635.0059">:JobOpeningRepository</text><rect fill="#E3E3E3" height="32.6211" rx="2.5" ry="2.5" style="stroke:#181818;stroke-width:0.5;" width="68" x="1461" y="44.6211"/><text fill="#000000" font-family="sans-serif" font-size="14" lengthAdjust="spacing" textLength="54" x="1468" y="66.7285">:TcpUtils</text><rect fill="#E3E3E3" height="32.6211" rx="2.5" ry="2.5" style="stroke:#181818;stroke-width:0.5;" width="68" x="1461" y="612.8984"/><text fill="#000000" font-family="sans-serif" font-size="14" lengthAdjust="spacing" textLength="54" x="1468" y="635.0059">:TcpUtils</text><rect fill="#FFFFFF" height="445.0742" style="stroke:#181818;stroke-width:1.0;" width="10" x="155" y="150.8242"/><rect fill="#FFFFFF" height="314.9102" style="stroke:#181818;stroke-width:1.0;" width="10" x="538" y="187.1152"/><rect fill="#FFFFFF" height="31.291" style="stroke:#181818;stroke-width:1.0;" width="10" x="744.5" y="218.4063"/><rect fill="#FFFFFF" height="189.7461" style="stroke:#181818;stroke-width:1.0;" width="10" x="978" y="280.9883"/><rect fill="#FFFFFF" height="31.291" style="stroke:#181818;stroke-width:1.0;" width="10" x="1120.5" y="401.1523"/><rect fill="#FFFFFF" height="31.291" style="stroke:#181818;stroke-width:1.0;" width="10" x="1365" y="312.2793"/><rect fill="#FFFFFF" height="31.291" style="stroke:#181818;stroke-width:1.0;" width="10" x="1490" y="533.3164"/><polygon fill="#181818" points="148,107.5332,158,111.5332,148,115.5332,152,111.5332" style="stroke:#181818;stroke-width:1.0;"/><line style="stroke:#181818;stroke-width:1.0;" x1="0" x2="154" y1="111.5332" y2="111.5332"/><text fill="#000000" font-family="sans-serif" font-size="13" lengthAdjust="spacing" textLength="136" x="7" y="106.2705">(tcp)listMyJobOpenings</text><line style="stroke:#181818;stroke-width:1.0;" x1="160" x2="207" y1="137.8242" y2="137.8242"/><line style="stroke:#181818;stroke-width:1.0;" x1="207" x2="207" y1="137.8242" y2="150.8242"/><line style="stroke:#181818;stroke-width:1.0;" x1="166" x2="207" y1="150.8242" y2="150.8242"/><polygon fill="#181818" points="176,146.8242,166,150.8242,176,154.8242,172,150.8242" style="stroke:#181818;stroke-width:1.0;"/><text fill="#000000" font-family="sans-serif" font-size="13" lengthAdjust="spacing" textLength="257" x="172" y="132.5615">listCustomerJobOpenings(version, sIn, sOut)</text><polygon fill="#181818" points="526,183.1152,536,187.1152,526,191.1152,530,187.1152" style="stroke:#181818;stroke-width:1.0;"/><line style="stroke:#181818;stroke-width:1.0;" x1="165" x2="532" y1="187.1152" y2="187.1152"/><text fill="#000000" font-family="sans-serif" font-size="13" lengthAdjust="spacing" textLength="354" x="172" y="181.8525">allCustomerJobOpeningsWithRecruitmentProcess(username)</text><polygon fill="#181818" points="732.5,214.4063,742.5,218.4063,732.5,222.4063,736.5,218.4063" style="stroke:#181818;stroke-width:1.0;"/><line style="stroke:#181818;stroke-width:1.0;" x1="548" x2="738.5" y1="218.4063" y2="218.4063"/><text fill="#000000" font-family="sans-serif" font-size="13" lengthAdjust="spacing" textLength="160" x="555" y="213.1436">findByUsername(username)</text><polygon fill="#181818" points="559,245.6973,549,249.6973,559,253.6973,555,249.6973" style="stroke:#181818;stroke-width:1.0;"/><line style="stroke:#181818;stroke-width:1.0;stroke-dasharray:2.0,2.0;" x1="553" x2="748.5" y1="249.6973" y2="249.6973"/><text fill="#000000" font-family="sans-serif" font-size="13" lengthAdjust="spacing" textLength="54" x="565" y="244.4346">customer</text><polygon fill="#181818" points="966,276.9883,976,280.9883,966,284.9883,970,280.9883" style="stroke:#181818;stroke-width:1.0;"/><line style="stroke:#181818;stroke-width:1.0;" x1="548" x2="972" y1="280.9883" y2="280.9883"/><text fill="#000000" font-family="sans-serif" font-size="13" lengthAdjust="spacing" textLength="411" x="555" y="275.7256">allCustomerJobOpeningsWithRecruitmentProcess(Customer customer)</text><polygon fill="#181818" points="1353,308.2793,1363,312.2793,1353,316.2793,1357,312.2793" style="stroke:#181818;stroke-width:1.0;"/><line style="stroke:#181818;stroke-width:1.0;" x1="988" x2="1359" y1="312.2793" y2="312.2793"/><text fill="#000000" font-family="sans-serif" font-size="13" lengthAdjust="spacing" textLength="358" x="995" y="307.0166">findCustomerJobOpeningsWithRecruitmentProcess(customer)</text><polygon fill="#181818" points="999,339.5703,989,343.5703,999,347.5703,995,343.5703" style="stroke:#181818;stroke-width:1.0;"/><line style="stroke:#181818;stroke-width:1.0;stroke-dasharray:2.0,2.0;" x1="993" x2="1369" y1="343.5703" y2="343.5703"/><text fill="#000000" font-family="sans-serif" font-size="13" lengthAdjust="spacing" textLength="129" x="1005" y="338.3076">customerJobOpenings</text><path d="M902.5,358.5703 L975.5,358.5703 L975.5,367.8613 L965.5,377.8613 L902.5,377.8613 L902.5,358.5703 " fill="#EEEEEE" style="stroke:#000000;stroke-width:1.5;"/><rect fill="none" height="81.873" style="stroke:#000000;stroke-width:1.5;" width="295" x="902.5" y="358.5703"/><text fill="#000000" font-family="sans-serif" font-size="13" font-weight="bold" lengthAdjust="spacing" textLength="28" x="917.5" y="373.5986">loop</text><text fill="#000000" font-family="sans-serif" font-size="11" font-weight="bold" lengthAdjust="spacing" textLength="176" x="990.5" y="372.4404">[for each customerJobOpening]</text><polygon fill="#181818" points="1108.5,397.1523,1118.5,401.1523,1108.5,405.1523,1112.5,401.1523" style="stroke:#181818;stroke-width:1.0;"/><line style="stroke:#181818;stroke-width:1.0;" x1="988" x2="1114.5" y1="401.1523" y2="401.1523"/><text fill="#000000" font-family="sans-serif" font-size="13" lengthAdjust="spacing" textLength="44" x="995" y="395.8896">create()</text><polygon fill="#181818" points="999,428.4434,989,432.4434,999,436.4434,995,432.4434" style="stroke:#181818;stroke-width:1.0;"/><line style="stroke:#181818;stroke-width:1.0;stroke-dasharray:2.0,2.0;" x1="993" x2="1124.5" y1="432.4434" y2="432.4434"/><text fill="#000000" font-family="sans-serif" font-size="13" lengthAdjust="spacing" textLength="86" x="1005" y="427.1807">dtoJobOpening</text><polygon fill="#181818" points="559,466.7344,549,470.7344,559,474.7344,555,470.7344" style="stroke:#181818;stroke-width:1.0;"/><line style="stroke:#181818;stroke-width:1.0;stroke-dasharray:2.0,2.0;" x1="553" x2="982" y1="470.7344" y2="470.7344"/><text fill="#000000" font-family="sans-serif" font-size="13" lengthAdjust="spacing" textLength="107" x="565" y="465.4717">dtoJobOpeningList</text><polygon fill="#181818" points="176,498.0254,166,502.0254,176,506.0254,172,502.0254" style="stroke:#181818;stroke-width:1.0;"/><line style="stroke:#181818;stroke-width:1.0;stroke-dasharray:2.0,2.0;" x1="170" x2="542" y1="502.0254" y2="502.0254"/><text fill="#000000" font-family="sans-serif" font-size="13" lengthAdjust="spacing" textLength="107" x="182" y="496.7627">dtoJobOpeningList</text><polygon fill="#181818" points="1478,529.3164,1488,533.3164,1478,537.3164,1482,533.3164" style="stroke:#181818;stroke-width:1.0;"/><line style="stroke:#181818;stroke-width:1.0;" x1="165" x2="1484" y1="533.3164" y2="533.3164"/><text fill="#000000" font-family="sans-serif" font-size="13" lengthAdjust="spacing" textLength="209" x="172" y="528.0537">serializeIterable(dtoJobOpeningList);</text><polygon fill="#181818" points="176,560.6074,166,564.6074,176,568.6074,172,564.6074" style="stroke:#181818;stroke-width:1.0;"/><line style="stroke:#181818;stroke-width:1.0;stroke-dasharray:2.0,2.0;" x1="170" x2="1494" y1="564.6074" y2="564.6074"/><text fill="#000000" font-family="sans-serif" font-size="13" lengthAdjust="spacing" textLength="31" x="182" y="559.3447">serial</text><polygon fill="#181818" points="11,591.8984,1,595.8984,11,599.8984,7,595.8984" style="stroke:#181818;stroke-width:1.0;"/><line style="stroke:#181818;stroke-width:1.0;stroke-dasharray:2.0,2.0;" x1="5" x2="159" y1="595.8984" y2="595.8984"/><text fill="#000000" font-family="sans-serif" font-size="13" lengthAdjust="spacing" textLength="57" x="17" y="590.6357">(tcp)serial</text><!--SRC=[bLDBZvim4BxxLrXx8b8ZhTfRMlNGpILLgrJBefwzPf9OQsng3wdINz-101uWkselW9dlCI_75-Dg5LGbA- -yFWLVWSJGW8XZf5RwHHqXnui56K2ZSaVB0V6aIl_RkACyA1j123H8q1n-DU0qoArHnnQNvTkLNCiYbn_kxzyBGMmqsjJAeRnxqlL34v7yGx6xaohAOhU4vE7SnN88PmZJyEQRYJXeVFNF-neS9HKVlCFWhONGKTDn9hyPk8zG-sZGXykLq4JwCyCc_JOLes5CYxx5g-3jqxu3qljLpCn-wKrzAD3Os8M7Wn12hZ_tZP4RcQ6kLvOwylt2Ua6W7i6nzdRZCef6uzqx6NVjOz_WIaYbqPmLmZ03hfXwIwhAsXkYFmsU7a67nc053dy4ho76h8aGdAg06_19CUNMfni9UHoCAxzSYfxCL9B8TNgYfwpdMUe-HL72aZCnxOVxlvKDoD699JVkow1DDgcmV_Uu8TqLC5ISKjTBJLvvnxBUr_BWWwJ_fnkCIRgqoQri0A9dpB_TSD46f_ubUYR4d3iyk9A9pqSruRQNdVF7LlAXyIL_ayrNBQtpSBU8JOjbb3L_O8SGrBE5RA6t-fYgJxTor9WaSvNZ6IJ6f_LwTesNw6lyBm00]--></g></svg>