<?xml version="1.0" encoding="us-ascii" standalone="no"?><svg xmlns="http://www.w3.org/2000/svg" xmlns:xlink="http://www.w3.org/1999/xlink" contentStyleType="text/css" height="651px" preserveAspectRatio="none" style="width:1385px;height:651px;background:#FFFFFF;" version="1.1" viewBox="0 0 1385 651" width="1385px" zoomAndPan="magnify"><defs/><g><text fill="#000000" font-family="sans-serif" font-size="14" font-weight="bold" lengthAdjust="spacing" textLength="233" x="575.25" y="30.1074">Sequence Diagram (SD) - US 3003</text><rect fill="#FFFFFF" height="445.0742" style="stroke:#181818;stroke-width:1.0;" width="10" x="151" y="150.8242"/><rect fill="#FFFFFF" height="314.9102" style="stroke:#181818;stroke-width:1.0;" width="10" x="456" y="187.1152"/><rect fill="#FFFFFF" height="189.7461" style="stroke:#181818;stroke-width:1.0;" width="10" x="787" y="280.9883"/><rect fill="#FFFFFF" height="31.291" style="stroke:#181818;stroke-width:1.0;" width="10" x="1092" y="218.4063"/><rect fill="#FFFFFF" height="31.291" style="stroke:#181818;stroke-width:1.0;" width="10" x="1238" y="401.1523"/><rect fill="#FFFFFF" height="31.291" style="stroke:#181818;stroke-width:1.0;" width="10" x="1340.5" y="533.3164"/><rect fill="none" height="144.4551" style="stroke:#000000;stroke-width:1.5;" width="596.5" x="715" y="295.9883"/><line style="stroke:#181818;stroke-width:0.5;stroke-dasharray:5.0,5.0;" x1="60" x2="60" y1="78.2422" y2="613.8984"/><line style="stroke:#181818;stroke-width:0.5;stroke-dasharray:5.0,5.0;" x1="155.5" x2="155.5" y1="78.2422" y2="613.8984"/><line style="stroke:#181818;stroke-width:0.5;stroke-dasharray:5.0,5.0;" x1="461" x2="461" y1="78.2422" y2="613.8984"/><line style="stroke:#181818;stroke-width:0.5;stroke-dasharray:5.0,5.0;" x1="792" x2="792" y1="78.2422" y2="613.8984"/><line style="stroke:#181818;stroke-width:0.5;stroke-dasharray:5.0,5.0;" x1="965.5" x2="965.5" y1="78.2422" y2="613.8984"/><line style="stroke:#181818;stroke-width:0.5;stroke-dasharray:5.0,5.0;" x1="1096.5" x2="1096.5" y1="78.2422" y2="613.8984"/><line style="stroke:#181818;stroke-width:0.5;stroke-dasharray:5.0,5.0;" x1="1242.5" x2="1242.5" y1="78.2422" y2="613.8984"/><line style="stroke:#181818;stroke-width:0.5;stroke-dasharray:5.0,5.0;" x1="1345.5" x2="1345.5" y1="78.2422" y2="613.8984"/><rect fill="#E3E3E3" height="32.6211" rx="2.5" ry="2.5" style="stroke:#181818;stroke-width:0.5;" width="111" x="5" y="44.6211"/><text fill="#000000" font-family="sans-serif" font-size="14" lengthAdjust="spacing" textLength="97" x="12" y="66.7285">TcpCustomerUI</text><rect fill="#E3E3E3" height="32.6211" rx="2.5" ry="2.5" style="stroke:#181818;stroke-width:0.5;" width="111" x="5" y="612.8984"/><text fill="#000000" font-family="sans-serif" font-size="14" lengthAdjust="spacing" textLength="97" x="12" y="635.0059">TcpCustomerUI</text><rect fill="#E3E3E3" height="32.6211" rx="2.5" ry="2.5" style="stroke:#181818;stroke-width:0.5;" width="59" x="126.5" y="44.6211"/><text fill="#000000" font-family="sans-serif" font-size="14" lengthAdjust="spacing" textLength="45" x="133.5" y="66.7285">TcpSrv</text><rect fill="#E3E3E3" height="32.6211" rx="2.5" ry="2.5" style="stroke:#181818;stroke-width:0.5;" width="59" x="126.5" y="612.8984"/><text fill="#000000" font-family="sans-serif" font-size="14" lengthAdjust="spacing" textLength="45" x="133.5" y="635.0059">TcpSrv</text><rect fill="#E3E3E3" height="32.6211" rx="2.5" ry="2.5" style="stroke:#181818;stroke-width:0.5;" width="246" x="338" y="44.6211"/><text fill="#000000" font-family="sans-serif" font-size="14" lengthAdjust="spacing" textLength="232" x="345" y="66.7285">:PhaseChangeNotificationsController</text><rect fill="#E3E3E3" height="32.6211" rx="2.5" ry="2.5" style="stroke:#181818;stroke-width:0.5;" width="246" x="338" y="612.8984"/><text fill="#000000" font-family="sans-serif" font-size="14" lengthAdjust="spacing" textLength="232" x="345" y="635.0059">:PhaseChangeNotificationsController</text><rect fill="#E3E3E3" height="32.6211" rx="2.5" ry="2.5" style="stroke:#181818;stroke-width:0.5;" width="134" x="725" y="44.6211"/><text fill="#000000" font-family="sans-serif" font-size="14" lengthAdjust="spacing" textLength="120" x="732" y="66.7285">:NotificationService</text><rect fill="#E3E3E3" height="32.6211" rx="2.5" ry="2.5" style="stroke:#181818;stroke-width:0.5;" width="134" x="725" y="612.8984"/><text fill="#000000" font-family="sans-serif" font-size="14" lengthAdjust="spacing" textLength="120" x="732" y="635.0059">:NotificationService</text><rect fill="#E3E3E3" height="32.6211" rx="2.5" ry="2.5" style="stroke:#181818;stroke-width:0.5;" width="87" x="922.5" y="44.6211"/><text fill="#000000" font-family="sans-serif" font-size="14" lengthAdjust="spacing" textLength="73" x="929.5" y="66.7285">:Notification</text><rect fill="#E3E3E3" height="32.6211" rx="2.5" ry="2.5" style="stroke:#181818;stroke-width:0.5;" width="87" x="922.5" y="612.8984"/><text fill="#000000" font-family="sans-serif" font-size="14" lengthAdjust="spacing" textLength="73" x="929.5" y="635.0059">:Notification</text><rect fill="#E3E3E3" height="32.6211" rx="2.5" ry="2.5" style="stroke:#181818;stroke-width:0.5;" width="155" x="1019.5" y="44.6211"/><text fill="#000000" font-family="sans-serif" font-size="14" lengthAdjust="spacing" textLength="141" x="1026.5" y="66.7285">:NotificationRepository</text><rect fill="#E3E3E3" height="32.6211" rx="2.5" ry="2.5" style="stroke:#181818;stroke-width:0.5;" width="155" x="1019.5" y="612.8984"/><text fill="#000000" font-family="sans-serif" font-size="14" lengthAdjust="spacing" textLength="141" x="1026.5" y="635.0059">:NotificationRepository</text><rect fill="#E3E3E3" height="32.6211" rx="2.5" ry="2.5" style="stroke:#181818;stroke-width:0.5;" width="117" x="1184.5" y="44.6211"/><text fill="#000000" font-family="sans-serif" font-size="14" lengthAdjust="spacing" textLength="103" x="1191.5" y="66.7285">:NotificationDTO</text><rect fill="#E3E3E3" height="32.6211" rx="2.5" ry="2.5" style="stroke:#181818;stroke-width:0.5;" width="117" x="1184.5" y="612.8984"/><text fill="#000000" font-family="sans-serif" font-size="14" lengthAdjust="spacing" textLength="103" x="1191.5" y="635.0059">:NotificationDTO</text><rect fill="#E3E3E3" height="32.6211" rx="2.5" ry="2.5" style="stroke:#181818;stroke-width:0.5;" width="68" x="1311.5" y="44.6211"/><text fill="#000000" font-family="sans-serif" font-size="14" lengthAdjust="spacing" textLength="54" x="1318.5" y="66.7285">:TcpUtils</text><rect fill="#E3E3E3" height="32.6211" rx="2.5" ry="2.5" style="stroke:#181818;stroke-width:0.5;" width="68" x="1311.5" y="612.8984"/><text fill="#000000" font-family="sans-serif" font-size="14" lengthAdjust="spacing" textLength="54" x="1318.5" y="635.0059">:TcpUtils</text><rect fill="#FFFFFF" height="445.0742" style="stroke:#181818;stroke-width:1.0;" width="10" x="151" y="150.8242"/><rect fill="#FFFFFF" height="314.9102" style="stroke:#181818;stroke-width:1.0;" width="10" x="456" y="187.1152"/><rect fill="#FFFFFF" height="189.7461" style="stroke:#181818;stroke-width:1.0;" width="10" x="787" y="280.9883"/><rect fill="#FFFFFF" height="31.291" style="stroke:#181818;stroke-width:1.0;" width="10" x="1092" y="218.4063"/><rect fill="#FFFFFF" height="31.291" style="stroke:#181818;stroke-width:1.0;" width="10" x="1238" y="401.1523"/><rect fill="#FFFFFF" height="31.291" style="stroke:#181818;stroke-width:1.0;" width="10" x="1340.5" y="533.3164"/><polygon fill="#181818" points="144,107.5332,154,111.5332,144,115.5332,148,111.5332" style="stroke:#181818;stroke-width:1.0;"/><line style="stroke:#181818;stroke-width:1.0;" x1="0" x2="150" y1="111.5332" y2="111.5332"/><text fill="#000000" font-family="sans-serif" font-size="13" lengthAdjust="spacing" textLength="132" x="7" y="106.2705">(tcp)listMyNotifications</text><line style="stroke:#181818;stroke-width:1.0;" x1="156" x2="203" y1="137.8242" y2="137.8242"/><line style="stroke:#181818;stroke-width:1.0;" x1="203" x2="203" y1="137.8242" y2="150.8242"/><line style="stroke:#181818;stroke-width:1.0;" x1="162" x2="203" y1="150.8242" y2="150.8242"/><polygon fill="#181818" points="172,146.8242,162,150.8242,172,154.8242,168,150.8242" style="stroke:#181818;stroke-width:1.0;"/><text fill="#000000" font-family="sans-serif" font-size="13" lengthAdjust="spacing" textLength="291" x="168" y="132.5615">showPhaseChangeNotifications(version, sIn, sOut)</text><polygon fill="#181818" points="444,183.1152,454,187.1152,444,191.1152,448,187.1152" style="stroke:#181818;stroke-width:1.0;"/><line style="stroke:#181818;stroke-width:1.0;" x1="161" x2="450" y1="187.1152" y2="187.1152"/><text fill="#000000" font-family="sans-serif" font-size="13" lengthAdjust="spacing" textLength="250" x="168" y="181.8525">allNotViewedNotificationsByReceiver(email)</text><polygon fill="#181818" points="1080,214.4063,1090,218.4063,1080,222.4063,1084,218.4063" style="stroke:#181818;stroke-width:1.0;"/><line style="stroke:#181818;stroke-width:1.0;" x1="161" x2="1086" y1="218.4063" y2="218.4063"/><text fill="#000000" font-family="sans-serif" font-size="13" lengthAdjust="spacing" textLength="250" x="168" y="213.1436">allNotViewedNotificationsByReceiver(email)</text><polygon fill="#181818" points="172,245.6973,162,249.6973,172,253.6973,168,249.6973" style="stroke:#181818;stroke-width:1.0;"/><line style="stroke:#181818;stroke-width:1.0;stroke-dasharray:2.0,2.0;" x1="166" x2="1096" y1="249.6973" y2="249.6973"/><text fill="#000000" font-family="sans-serif" font-size="13" lengthAdjust="spacing" textLength="83" x="178" y="244.4346">notificationList</text><polygon fill="#181818" points="775,276.9883,785,280.9883,775,284.9883,779,280.9883" style="stroke:#181818;stroke-width:1.0;"/><line style="stroke:#181818;stroke-width:1.0;" x1="466" x2="781" y1="280.9883" y2="280.9883"/><text fill="#000000" font-family="sans-serif" font-size="13" lengthAdjust="spacing" textLength="302" x="473" y="275.7256">allNotViewedNotificationsByReceiver(notificationList)</text><path d="M715,295.9883 L788,295.9883 L788,305.2793 L778,315.2793 L715,315.2793 L715,295.9883 " fill="#EEEEEE" style="stroke:#000000;stroke-width:1.5;"/><rect fill="none" height="144.4551" style="stroke:#000000;stroke-width:1.5;" width="596.5" x="715" y="295.9883"/><text fill="#000000" font-family="sans-serif" font-size="13" font-weight="bold" lengthAdjust="spacing" textLength="28" x="730" y="311.0166">loop</text><text fill="#000000" font-family="sans-serif" font-size="11" font-weight="bold" lengthAdjust="spacing" textLength="232" x="803" y="309.8584">[for each notification from notificationList]</text><polygon fill="#181818" points="954,334.5703,964,338.5703,954,342.5703,958,338.5703" style="stroke:#181818;stroke-width:1.0;"/><line style="stroke:#181818;stroke-width:1.0;" x1="797" x2="960" y1="338.5703" y2="338.5703"/><text fill="#000000" font-family="sans-serif" font-size="13" lengthAdjust="spacing" textLength="145" x="804" y="333.3076">changeNotificationState()</text><polygon fill="#181818" points="1085,365.8613,1095,369.8613,1085,373.8613,1089,369.8613" style="stroke:#181818;stroke-width:1.0;"/><line style="stroke:#181818;stroke-width:1.0;" x1="797" x2="1091" y1="369.8613" y2="369.8613"/><text fill="#000000" font-family="sans-serif" font-size="13" lengthAdjust="spacing" textLength="96" x="804" y="364.5986">save(notification)</text><polygon fill="#181818" points="1226,397.1523,1236,401.1523,1226,405.1523,1230,401.1523" style="stroke:#181818;stroke-width:1.0;"/><line style="stroke:#181818;stroke-width:1.0;" x1="797" x2="1232" y1="401.1523" y2="401.1523"/><text fill="#000000" font-family="sans-serif" font-size="13" lengthAdjust="spacing" textLength="44" x="804" y="395.8896">create()</text><polygon fill="#181818" points="808,428.4434,798,432.4434,808,436.4434,804,432.4434" style="stroke:#181818;stroke-width:1.0;"/><line style="stroke:#181818;stroke-width:1.0;stroke-dasharray:2.0,2.0;" x1="802" x2="1242" y1="432.4434" y2="432.4434"/><text fill="#000000" font-family="sans-serif" font-size="13" lengthAdjust="spacing" textLength="82" x="814" y="427.1807">dtoNotification</text><polygon fill="#181818" points="477,466.7344,467,470.7344,477,474.7344,473,470.7344" style="stroke:#181818;stroke-width:1.0;"/><line style="stroke:#181818;stroke-width:1.0;stroke-dasharray:2.0,2.0;" x1="471" x2="791" y1="470.7344" y2="470.7344"/><text fill="#000000" font-family="sans-serif" font-size="13" lengthAdjust="spacing" textLength="103" x="483" y="465.4717">dtoNotificationList</text><polygon fill="#181818" points="172,498.0254,162,502.0254,172,506.0254,168,502.0254" style="stroke:#181818;stroke-width:1.0;"/><line style="stroke:#181818;stroke-width:1.0;stroke-dasharray:2.0,2.0;" x1="166" x2="460" y1="502.0254" y2="502.0254"/><text fill="#000000" font-family="sans-serif" font-size="13" lengthAdjust="spacing" textLength="103" x="178" y="496.7627">dtoNotificationList</text><polygon fill="#181818" points="1328.5,529.3164,1338.5,533.3164,1328.5,537.3164,1332.5,533.3164" style="stroke:#181818;stroke-width:1.0;"/><line style="stroke:#181818;stroke-width:1.0;" x1="161" x2="1334.5" y1="533.3164" y2="533.3164"/><text fill="#000000" font-family="sans-serif" font-size="13" lengthAdjust="spacing" textLength="205" x="168" y="528.0537">serializeIterable(dtoNotificationList);</text><polygon fill="#181818" points="172,560.6074,162,564.6074,172,568.6074,168,564.6074" style="stroke:#181818;stroke-width:1.0;"/><line style="stroke:#181818;stroke-width:1.0;stroke-dasharray:2.0,2.0;" x1="166" x2="1344.5" y1="564.6074" y2="564.6074"/><text fill="#000000" font-family="sans-serif" font-size="13" lengthAdjust="spacing" textLength="31" x="178" y="559.3447">serial</text><polygon fill="#181818" points="11,591.8984,1,595.8984,11,599.8984,7,595.8984" style="stroke:#181818;stroke-width:1.0;"/><line style="stroke:#181818;stroke-width:1.0;stroke-dasharray:2.0,2.0;" x1="5" x2="155" y1="595.8984" y2="595.8984"/><text fill="#000000" font-family="sans-serif" font-size="13" lengthAdjust="spacing" textLength="57" x="17" y="590.6357">(tcp)serial</text><!--SRC=[bLF1Rjim3BthAuYUR6062lIM3JiikGHerw5kTjTa9XQgI9x49CY-VfIJs9BJPTl5jipt7gb7Chnfsqaljx1rrgdMkoq2-HsAC4GwgTxa1ciw6WIFYgJTc1GGMjcuWxORM4iJK0ZInD0QV-xGAeI5bfk8A-f52HMiQdYultyGWjcabUwa9RXxLTry5uZp-zNo3cI0rV8QKljz7wlHxz7duTctLWQSjrmUVdMarrf9qiw6kRFadJ7eU-vudEZFKbRCe1KEsVZx5hp7fJzkO5-mSq6JyyUUnSSRuCNhSu_YzmJ5Tgn8cz27BmSX15IVp_x030fINMbqeATZvWd3pfWKpQrqXp_PM30cyCS72CluUDvHAK0gqdj9U6b9gZiwpThI69Rxhl60JQRxvVY22ZLp2jnARLBHj5UZBZlsVuA3NlHQH7gLNjicx4VsIZIOCvABd7ay3lzMmLGxAMOOA-DS1sldWTEsMJMmvesyha-SgR6QD37VHLqrhYPELfGPwUHWa7lC2in1F79HqEE9FzGTHr74O3MQmS26NBO0YOaz0ssJo4_7OyAUjc7mAcr5siE_yDyVfClMH2_GQsdqBrmIUld3OF6EOlbnT67Sk44bA-WacDOmCZvLrMH5hz6d-6y0]--></g></svg>